<svg width="24" height="24" viewBox="0 0 24 24" fill="none" xmlns="http://www.w3.org/2000/svg">
<path opacity="0.4" d="M11 7.5V16.5C11 17.05 10.55 17.5 10 17.5H7.5C5.98 17.5 4.61 16.88 3.61 15.89C2.63472 14.9101 2.06055 13.6012 2 12.22C1.88 9.08 4.62 6.5 7.77 6.5H10C10.55 6.5 11 6.95 11 7.5ZM22.002 11.78C22.132 14.93 19.392 17.5 16.242 17.5H14.012C13.462 17.5 13.012 17.05 13.012 16.5V7.5C13.012 6.95 13.462 6.5 14.012 6.5H16.512C18.032 6.5 19.402 7.12 20.402 8.11C21.332 9.06 21.942 10.35 22.002 11.78Z" fill="black"/>
<path d="M16 12.75H8C7.59 12.75 7.25 12.41 7.25 12C7.25 11.59 7.59 11.25 8 11.25H16C16.41 11.25 16.75 11.59 16.75 12C16.75 12.41 16.41 12.75 16 12.75Z" fill="black"/>
</svg>
