<svg width="24" height="24" viewBox="0 0 24 24" fill="none" xmlns="http://www.w3.org/2000/svg">
<path d="M16.498 18.25H14.988C14.578 18.25 14.238 17.91 14.238 17.5C14.238 17.09 14.578 16.75 14.988 16.75H16.498C19.118 16.75 21.248 14.62 21.248 12C21.248 9.38 19.118 7.25 16.498 7.25H14.998C14.7991 7.25 14.6083 7.17098 14.4677 7.03033C14.327 6.88968 14.248 6.69891 14.248 6.5C14.248 6.30109 14.327 6.11032 14.4677 5.96967C14.6083 5.82902 14.7991 5.75 14.998 5.75H16.498C19.948 5.75 22.748 8.55 22.748 12C22.748 15.45 19.948 18.25 16.498 18.25ZM9 18.25H7.5C4.05 18.25 1.25 15.45 1.25 12C1.25 8.55 4.05 5.75 7.5 5.75H9C9.41 5.75 9.75 6.09 9.75 6.5C9.75 6.91 9.41 7.25 9 7.25H7.5C4.88 7.25 2.75 9.38 2.75 12C2.75 14.62 4.88 16.75 7.5 16.75H9C9.41 16.75 9.75 17.09 9.75 17.5C9.75 17.91 9.41 18.25 9 18.25Z" fill="black"/>
<path d="M16 12.75H8C7.59 12.75 7.25 12.41 7.25 12C7.25 11.59 7.59 11.25 8 11.25H16C16.41 11.25 16.75 11.59 16.75 12C16.75 12.41 16.41 12.75 16 12.75Z" fill="black"/>
</svg>
