<svg width="24" height="24" viewBox="0 0 24 24" fill="none" xmlns="http://www.w3.org/2000/svg">
<path d="M12 2C6.48 2 2 6.48 2 12C2 17.52 6.48 22 12 22C17.52 22 22 17.52 22 12C22 6.48 17.52 2 12 2ZM16.3 16.69C16.1167 16.7667 15.9107 16.7689 15.7258 16.696C15.5409 16.6232 15.3917 16.4811 15.31 16.3L12 8.85L10.93 11.25H12C12.41 11.25 12.75 11.59 12.75 12C12.75 12.41 12.41 12.75 12 12.75H10.27L8.69 16.3C8.60644 16.4775 8.45667 16.6152 8.2728 16.6835C8.08892 16.7519 7.88558 16.7455 7.70636 16.6657C7.52715 16.5859 7.38634 16.4391 7.31411 16.2567C7.24189 16.0743 7.244 15.8709 7.32 15.69L8.63 12.74H8C7.59 12.74 7.25 12.4 7.25 11.99C7.25 11.58 7.59 11.24 8 11.24H9.29L11.31 6.69C11.55 6.15 12.44 6.15 12.68 6.69L16.68 15.69C16.85 16.07 16.68 16.52 16.3 16.69Z" fill="black"/>
</svg>
