<svg width="24" height="24" viewBox="0 0 24 24" fill="none" xmlns="http://www.w3.org/2000/svg">
<path opacity="0.4" d="M12 22C17.523 22 22 17.523 22 12C22 6.477 17.523 2 12 2C6.477 2 2 6.477 2 12C2 17.523 6.477 22 12 22Z" fill="black"/>
<path d="M16.69 15.7019L12.69 6.70188C12.45 6.16188 11.56 6.16188 11.32 6.70188L9.3 11.2519H8C7.59 11.2519 7.25 11.5919 7.25 12.0019C7.25 12.4119 7.59 12.7519 8 12.7519H8.62L7.31 15.7019C7.14 16.0819 7.31 16.5219 7.69 16.6919C8.07 16.8619 8.51 16.6919 8.68 16.3119L10.26 12.7619H12C12.41 12.7619 12.75 12.4219 12.75 12.0119C12.75 11.6019 12.41 11.2619 12 11.2619H10.93L12 8.86188L15.31 16.3219C15.43 16.6019 15.71 16.7719 16 16.7719C16.1 16.7719 16.21 16.7519 16.3 16.7119C16.68 16.5219 16.85 16.0719 16.69 15.7019Z" fill="black"/>
</svg>
