<svg width="24" height="24" viewBox="0 0 24 24" fill="none" xmlns="http://www.w3.org/2000/svg">
<path d="M16 16.7519C15.71 16.7519 15.44 16.5819 15.31 16.3019L12 8.85188L8.69 16.3119C8.60908 16.4935 8.45933 16.6356 8.27368 16.7068C8.08803 16.7781 7.88168 16.7727 7.7 16.6919C7.32 16.5219 7.15 16.0819 7.32 15.7019L11.32 6.70188C11.56 6.16188 12.45 6.16188 12.69 6.70188L16.69 15.7019C16.86 16.0819 16.69 16.5219 16.31 16.6919C16.21 16.7319 16.1 16.7519 16 16.7519Z" fill="black"/>
<path d="M12 12.75H8C7.59 12.75 7.25 12.41 7.25 12C7.25 11.59 7.59 11.25 8 11.25H12C12.41 11.25 12.75 11.59 12.75 12C12.75 12.41 12.41 12.75 12 12.75Z" fill="black"/>
<path d="M12 22.75C6.07 22.75 1.25 17.93 1.25 12C1.25 6.07 6.07 1.25 12 1.25C17.93 1.25 22.75 6.07 22.75 12C22.75 17.93 17.93 22.75 12 22.75ZM12 2.75C6.9 2.75 2.75 6.9 2.75 12C2.75 17.1 6.9 21.25 12 21.25C17.1 21.25 21.25 17.1 21.25 12C21.25 6.9 17.1 2.75 12 2.75Z" fill="black"/>
</svg>
