<svg width="24" height="24" viewBox="0 0 24 24" fill="none" xmlns="http://www.w3.org/2000/svg">
<path d="M8.57 15.2699L15.11 8.72991M8.98 10.3699C9.30622 10.3699 9.61907 10.2403 9.84974 10.0097C10.0804 9.77898 10.21 9.46613 10.21 9.13991C10.21 8.8137 10.0804 8.50084 9.84974 8.27017C9.61907 8.0395 9.30622 7.90991 8.98 7.90991C8.65378 7.90991 8.34093 8.0395 8.11026 8.27017C7.87959 8.50084 7.75 8.8137 7.75 9.13991C7.75 9.46613 7.87959 9.77898 8.11026 10.0097C8.34093 10.2403 8.65378 10.3699 8.98 10.3699ZM15.52 16.0899C15.8462 16.0899 16.1591 15.9603 16.3897 15.7297C16.6204 15.499 16.75 15.1861 16.75 14.8599C16.75 14.5337 16.6204 14.2208 16.3897 13.9902C16.1591 13.7595 15.8462 13.6299 15.52 13.6299C15.1938 13.6299 14.8809 13.7595 14.6503 13.9902C14.4196 14.2208 14.29 14.5337 14.29 14.8599C14.29 15.1861 14.4196 15.499 14.6503 15.7297C14.8809 15.9603 15.1938 16.0899 15.52 16.0899Z" stroke="black" stroke-width="1.5" stroke-linecap="round" stroke-linejoin="round"/>
<path d="M12 22C17.523 22 22 17.523 22 12C22 6.477 17.523 2 12 2C6.477 2 2 6.477 2 12C2 17.523 6.477 22 12 22Z" stroke="black" stroke-width="1.5" stroke-linecap="round" stroke-linejoin="round"/>
</svg>
