<svg width="24" height="24" viewBox="0 0 24 24" fill="none" xmlns="http://www.w3.org/2000/svg">
<path opacity="0.4" d="M12 22C17.523 22 22 17.523 22 12C22 6.477 17.523 2 12 2C6.477 2 2 6.477 2 12C2 17.523 6.477 22 12 22Z" fill="black"/>
<path d="M12 15.0099C11.81 15.0099 11.62 14.9399 11.47 14.7899L7.94 11.2599C7.80052 11.1188 7.7223 10.9284 7.7223 10.7299C7.7223 10.5315 7.80052 10.3411 7.94 10.1999C8.23 9.90992 8.71 9.90992 9 10.1999L12 13.1999L15 10.1999C15.29 9.90992 15.77 9.90992 16.06 10.1999C16.35 10.4899 16.35 10.9699 16.06 11.2599L12.53 14.7899C12.38 14.9399 12.19 15.0099 12 15.0099Z" fill="black"/>
</svg>
