<svg width="24" height="24" viewBox="0 0 24 24" fill="none" xmlns="http://www.w3.org/2000/svg">
<path opacity="0.4" d="M12 22C17.523 22 22 17.523 22 12C22 6.477 17.523 2 12 2C6.477 2 2 6.477 2 12C2 17.523 6.477 22 12 22Z" fill="black"/>
<path d="M14.5 10.7479L14.09 10.9579H14.08L9.4 13.3779L10.47 10.0379L13.55 8.64795L14.5 10.7479Z" fill="black"/>
<path d="M13.55 8.65L10.47 10.04L12 5.25L13.55 8.65ZM10.47 10.04L9.4 13.38L6 12.25L8.18 11.16L10 10.25L10.47 10.04Z" fill="black"/>
<path d="M18 12.25L13.5 14.75L13.19 14.65L13.1 14.62L9.4 13.38L14.08 10.96H14.09L18 12.25Z" fill="black"/>
<path d="M13.19 14.6489L13 15.2489L12 18.2489L9.5 13.5689L9.4 13.3789L13.1 14.6189L13.19 14.6489Z" fill="black"/>
</svg>
