<svg width="24" height="24" viewBox="0 0 24 24" fill="none" xmlns="http://www.w3.org/2000/svg">
<path d="M9.50001 14.0001C9.33001 14.0001 9.15001 13.9401 9.01001 13.8201C8.89843 13.7254 8.81714 13.6001 8.77624 13.4596C8.73535 13.3192 8.73666 13.1698 8.78001 13.0301L11.28 5.03006C11.37 4.73006 11.64 4.52006 11.95 4.51006C12.27 4.49006 12.55 4.67006 12.68 4.95006L15.18 10.4501C15.35 10.8201 15.19 11.2501 14.83 11.4301L9.83001 13.9301C9.73001 13.9701 9.61001 14.0001 9.50001 14.0001ZM12.13 7.35006L10.74 11.7901L13.52 10.4001L12.13 7.35006Z" fill="black"/>
<path d="M13.5 15.4999C13.42 15.4999 13.34 15.4899 13.26 15.4599L5.76 12.9599C5.61942 12.9124 5.49601 12.8244 5.40527 12.707C5.31453 12.5896 5.26052 12.448 5.25 12.2999C5.23 11.9999 5.39 11.7099 5.66 11.5799L9.66 9.57994C10.03 9.39994 10.48 9.54994 10.67 9.91994C10.86 10.2899 10.71 10.7399 10.33 10.9299L7.95 12.1199L13.42 13.9399L16.14 12.4299L13.85 11.6699C13.6606 11.6073 13.5037 11.4722 13.4138 11.2941C13.3238 11.116 13.3081 10.9096 13.37 10.7199C13.5 10.3299 13.92 10.1099 14.32 10.2399L18.24 11.5299C18.3781 11.5763 18.4998 11.6616 18.5903 11.7757C18.6809 11.8898 18.7364 12.0277 18.7501 12.1727C18.7639 12.3177 18.7353 12.4636 18.6678 12.5927C18.6004 12.7217 18.4969 12.8285 18.37 12.8999L13.87 15.3999C13.7582 15.4666 13.6302 15.5012 13.5 15.4999Z" fill="black"/>
<path d="M12 19.0001C11.72 19.0001 11.47 18.8501 11.34 18.6001L8.84 13.9201C8.64 13.5501 8.78 13.1001 9.15 12.9001C9.52 12.7001 9.97 12.8401 10.17 13.2101L11.85 16.3501L12.3 15.0001C12.43 14.6101 12.86 14.4001 13.25 14.5301C13.64 14.6601 13.85 15.0901 13.72 15.4801L12.72 18.4801C12.63 18.7601 12.37 18.9601 12.07 18.9901C12.04 19.0001 12.02 19.0001 12 19.0001Z" fill="black"/>
<path d="M12 22.75C6.07 22.75 1.25 17.93 1.25 12C1.25 6.07 6.07 1.25 12 1.25C17.93 1.25 22.75 6.07 22.75 12C22.75 17.93 17.93 22.75 12 22.75ZM12 2.75C6.9 2.75 2.75 6.9 2.75 12C2.75 17.1 6.9 21.25 12 21.25C17.1 21.25 21.25 17.1 21.25 12C21.25 6.9 17.1 2.75 12 2.75Z" fill="black"/>
</svg>
