<svg width="24" height="24" viewBox="0 0 24 24" fill="none" xmlns="http://www.w3.org/2000/svg">
<path d="M19 7C19 7.18 18.99 7.35 18.97 7.52C18.855 8.92652 18.2415 10.2457 17.24 11.24C16.6852 11.7998 16.0247 12.2437 15.2968 12.5459C14.5689 12.848 13.7881 13.0024 13 13H9.87C9.37 13 8.95 13.37 8.88 13.86L8.12 19.14C8.06 19.53 7.78 19.85 7.41 19.95C7.32 19.99 7.23 20 7.13 20H5.18C5.03479 20.0008 4.89117 19.9698 4.75915 19.9094C4.62714 19.8489 4.5099 19.7603 4.41564 19.6499C4.32137 19.5394 4.25235 19.4097 4.21338 19.2699C4.1744 19.13 4.16643 18.9833 4.19 18.84L6.58 4.51C6.69552 3.80853 7.05664 3.17097 7.59886 2.71118C8.14108 2.2514 8.82908 1.99933 9.54 2H14C16.76 2 19 4.24 19 7Z" fill="black"/>
<path d="M21 10.9999C21 12.3799 20.44 13.6299 19.54 14.5399C18.63 15.4399 17.38 15.9999 16 15.9999H13.85C13.612 15.9992 13.3816 16.0834 13.2001 16.2374C13.0187 16.3914 12.8981 16.605 12.86 16.8399L12.14 21.1599C12.1019 21.3948 11.9813 21.6085 11.7999 21.7624C11.6184 21.9164 11.388 22.0006 11.15 21.9999H8.22C8.05221 22.003 7.88659 21.9616 7.74 21.8799C7.52 21.7599 7.66 21.4699 7.9 21.3699C8.8 21.0799 9.46 20.3099 9.6 19.3499L10.24 14.9299C10.28 14.6799 10.49 14.4999 10.73 14.4999H13C15.01 14.4999 16.9 13.7199 18.3 12.3099C19.13 11.4899 19.75 10.4799 20.11 9.38991C20.19 9.13991 20.52 9.08991 20.63 9.31991C20.87 9.83991 21 10.3999 21 10.9999Z" fill="black"/>
</svg>
