<svg width="24" height="24" viewBox="0 0 24 24" fill="none" xmlns="http://www.w3.org/2000/svg">
<path d="M19 7C19 7.18 18.99 7.35 18.97 7.52C18.855 8.92652 18.2415 10.2457 17.24 11.24C16.6852 11.7998 16.0247 12.2437 15.2968 12.5459C14.5689 12.848 13.7881 13.0024 13 13H9.87C9.37 13 8.95 13.37 8.88 13.86L8.12 19.14C8.06 19.53 7.78 19.85 7.41 19.95C7.32 19.99 7.23 20 7.13 20H5.18C5.03479 20.0008 4.89117 19.9698 4.75915 19.9094C4.62714 19.8489 4.5099 19.7603 4.41564 19.6499C4.32137 19.5394 4.25235 19.4097 4.21338 19.2699C4.1744 19.13 4.16643 18.9833 4.19 18.84L6.58 4.51C6.69552 3.80853 7.05664 3.17097 7.59886 2.71118C8.14108 2.2514 8.82908 1.99933 9.54 2H14C16.76 2 19 4.24 19 7Z" fill="black"/>
<path opacity="0.4" d="M21 11C21 12.38 20.44 13.63 19.54 14.54C18.63 15.44 17.38 16 16 16H13.85C13.612 15.9993 13.3816 16.0835 13.2001 16.2375C13.0187 16.3915 12.8981 16.6051 12.86 16.84L12.14 21.16C12.1019 21.3949 11.9813 21.6086 11.7999 21.7625C11.6184 21.9165 11.388 22.0007 11.15 22H8.22C7.59 22 7.12 21.42 7.24 20.8L7.41 19.95C7.78 19.85 8.06 19.53 8.12 19.14L8.88 13.86C8.95 13.37 9.37 13 9.87 13H13C14.66 13 16.16 12.33 17.24 11.24C18.21 10.28 18.85 8.97002 18.97 7.52002C20.18 8.21002 21 9.51002 21 11Z" fill="black"/>
</svg>
