<svg width="24" height="24" viewBox="0 0 24 24" fill="none" xmlns="http://www.w3.org/2000/svg">
<path d="M19 7V7.5C18.9 9 18.2 10.3 17.3 11.2C16.2 12.3 14.7 13 13 13H9.9C9.4 13 9 13.4 8.9 13.9L8.1 19.2C8 19.6 7.8 19.9 7.4 20H5.2C4.6 20 4.1 19.5 4.2 18.8L6.6 4.5C6.8 3.1 8.1 2 9.5 2H14C16.8 2 19 4.2 19 7Z" stroke="black" stroke-width="1.5" stroke-miterlimit="10"/>
<path d="M21 11C21 12.4 20.4 13.6 19.5 14.5C18.6 15.4 17.4 16 16 16H13.9C13.4 16 13 16.3 12.9 16.8L12.2 21.1C12.1 21.6 11.7 21.9 11.2 21.9H8.2C7.6 21.9 7.1 21.3 7.2 20.7L7.4 20C7.8 19.9 8.1 19.6 8.1 19.2L8.9 13.9C9 13.4 9.4 13 9.9 13H13C14.7 13 16.2 12.3 17.2 11.2C18.2 10.2 18.8 8.9 18.9 7.5C20.2 8.2 21 9.5 21 11Z" stroke="black" stroke-width="1.5" stroke-miterlimit="10"/>
</svg>
