<svg width="24" height="24" viewBox="0 0 24 24" fill="none" xmlns="http://www.w3.org/2000/svg">
<path d="M7.12999 20.75H5.17999C4.65999 20.75 4.17999 20.53 3.83999 20.13C3.50999 19.74 3.35999 19.22 3.44999 18.72L5.83999 4.39001C5.98267 3.51217 6.4335 2.71391 7.11159 2.13845C7.78967 1.56299 8.65064 1.248 9.53999 1.25001H14C17.17 1.25001 19.75 3.83001 19.75 7.00001C19.75 7.21001 19.74 7.41001 19.71 7.61001C19.5753 9.18733 18.8841 10.6654 17.76 11.78C17.136 12.4099 16.3928 12.9093 15.5739 13.2493C14.755 13.5892 13.8767 13.7628 12.99 13.76H9.85999C9.73999 13.76 9.62999 13.85 9.60999 13.98L8.84999 19.26C8.74999 19.93 8.27999 20.48 7.64999 20.67C7.44999 20.74 7.25999 20.75 7.12999 20.75ZM9.53999 2.75001C8.42999 2.75001 7.49999 3.54001 7.31999 4.63001L4.92999 18.96C4.90999 19.06 4.95999 19.13 4.98999 19.16C5.01999 19.19 5.07999 19.25 5.17999 19.25H7.12999C7.29999 19.2 7.35999 19.12 7.37999 19.03L8.13999 13.76C8.25999 12.9 9.00999 12.26 9.86999 12.26H13C14.41 12.26 15.72 11.71 16.71 10.72C17.59 9.85001 18.12 8.70001 18.23 7.47001C18.25 7.30001 18.26 7.16001 18.26 7.01001C18.2574 5.88365 17.8087 4.80418 17.0123 4.00772C16.2158 3.21127 15.1364 2.76265 14.01 2.76001H9.53999V2.75001Z" fill="black"/>
<path d="M11.15 22.7501H8.22C7.7 22.7501 7.21 22.5191 6.87 22.1091C6.53 21.6991 6.4 21.1691 6.5 20.6491L6.76 19.3391L7.21 19.2191C7.29 19.1991 7.36 19.1191 7.38 19.0191L8.14 13.7491C8.26 12.8891 9.01 12.2491 9.87 12.2491H13C14.41 12.2491 15.72 11.6991 16.71 10.7091C17.59 9.83906 18.12 8.68906 18.23 7.45906L18.33 6.28906L19.35 6.86906C20.84 7.71906 21.76 9.29906 21.76 10.9991C21.76 12.5291 21.16 13.9691 20.08 15.0691C19.5457 15.6034 18.9111 16.0268 18.2126 16.3151C17.5142 16.6035 16.7656 16.7509 16.01 16.7491H13.86C13.73 16.7491 13.63 16.8391 13.61 16.9591L12.89 21.2791C12.8194 21.6897 12.6062 22.0623 12.2879 22.3311C11.9696 22.6 11.5667 22.749 11.15 22.7501ZM8.07 20.4701L7.97 20.9501C7.95 21.0501 8 21.1301 8.03 21.1601C8.06 21.2001 8.12 21.2501 8.22 21.2501H11.15C11.28 21.2501 11.38 21.1601 11.4 21.0401L12.12 16.7201C12.26 15.8701 12.99 15.2501 13.85 15.2501H16C17.13 15.2501 18.2 14.8101 19.01 14.0101C19.81 13.2101 20.25 12.1301 20.25 11.0001C20.25 10.2201 19.97 9.48006 19.47 8.90006C19.16 9.98006 18.57 10.9801 17.76 11.7801C17.136 12.41 16.3929 12.9095 15.574 13.2494C14.755 13.5893 13.8767 13.7629 12.99 13.7601H9.86C9.74 13.7601 9.63 13.8501 9.61 13.9801L8.85 19.2601C8.78 19.7601 8.49 20.2001 8.07 20.4701Z" fill="black"/>
</svg>
