<svg width="24" height="24" viewBox="0 0 24 24" fill="none" xmlns="http://www.w3.org/2000/svg">
<path fill-rule="evenodd" clip-rule="evenodd" d="M20.5 2H5.04C4.71 2 4.39 2.17 4.21 2.45L2.67 4.75C2.5601 4.91245 2.50094 5.10387 2.5 5.3V18C2.5 18.55 2.95 19 3.5 19H5.5C6.05 19 6.5 19.45 6.5 20V21C6.5 21.55 6.95 22 7.5 22H8.96C9.29 22 9.61 21.83 9.79 21.55L11.2 19.44C11.39 19.16 11.7 18.99 12.03 18.99H16.08C16.35 18.99 16.6 18.88 16.79 18.7L21.2 14.29C21.2931 14.1969 21.3667 14.0861 21.4165 13.9642C21.4663 13.8423 21.4913 13.7117 21.49 13.58V3C21.5 2.45 21.05 2 20.5 2ZM10.79 12.86C10.79 13.18 10.53 13.43 10.22 13.43H9.08C8.92883 13.43 8.78385 13.3699 8.67695 13.2631C8.57005 13.1562 8.51 13.0112 8.51 12.86V7.15C8.51 6.83 8.77 6.58 9.08 6.58H10.22C10.54 6.58 10.79 6.84 10.79 7.15V12.86ZM16.5 12.86C16.5 13.18 16.24 13.43 15.93 13.43H14.79C14.7151 13.43 14.641 13.4153 14.5719 13.3866C14.5027 13.358 14.4399 13.316 14.3869 13.2631C14.334 13.2101 14.292 13.1473 14.2634 13.0781C14.2347 13.009 14.22 12.9349 14.22 12.86V7.15C14.22 6.83 14.48 6.58 14.79 6.58H15.93C16.25 6.58 16.5 6.84 16.5 7.15V12.86Z" fill="black"/>
</svg>
