<svg width="24" height="24" viewBox="0 0 24 24" fill="none" xmlns="http://www.w3.org/2000/svg">
<path opacity="0.4" fill-rule="evenodd" clip-rule="evenodd" d="M5.04 2.00007H20.5C21.05 2.00007 21.5 2.45007 21.5 3.00007V13.5901C21.5 13.8601 21.39 14.1101 21.21 14.3001L16.8 18.7101C16.7069 18.8032 16.5961 18.8768 16.4742 18.9266C16.3523 18.9764 16.2217 19.0014 16.09 19.0001H12.04C11.71 19.0001 11.39 19.1701 11.21 19.4501L9.8 21.5601C9.61 21.8401 9.3 22.0101 8.97 22.0101H7.51C6.96 22.0101 6.51 21.5601 6.51 21.0101V20.0101C6.51 19.4601 6.06 19.0101 5.51 19.0101H3.51C2.96 19.0101 2.51 18.5601 2.51 18.0101V5.31007C2.51 5.11007 2.57 4.92007 2.68 4.76007L4.22 2.46007C4.30426 2.31816 4.42441 2.20093 4.56835 2.12019C4.7123 2.03944 4.87497 1.99801 5.04 2.00007Z" fill="black"/>
<path fill-rule="evenodd" clip-rule="evenodd" d="M8.5 7.13982V12.8498C8.5 13.1698 8.76 13.4198 9.07 13.4198H10.21C10.53 13.4198 10.78 13.1598 10.78 12.8498V7.13982C10.78 7.06497 10.7653 6.99085 10.7366 6.92169C10.708 6.85254 10.666 6.7897 10.6131 6.73677C10.5601 6.68384 10.4973 6.64186 10.4281 6.61321C10.359 6.58457 10.2849 6.56982 10.21 6.56982H9.07C8.76 6.56982 8.5 6.82982 8.5 7.13982ZM14.21 7.13982V12.8498C14.21 13.1698 14.47 13.4198 14.78 13.4198H15.92C16.24 13.4198 16.49 13.1598 16.49 12.8498V7.13982C16.49 6.98865 16.4299 6.84367 16.3231 6.73677C16.2162 6.62988 16.0712 6.56982 15.92 6.56982H14.78C14.47 6.56982 14.21 6.82982 14.21 7.13982Z" fill="black"/>
</svg>
