<svg width="24" height="24" viewBox="0 0 24 24" fill="none" xmlns="http://www.w3.org/2000/svg">
<path opacity="0.4" d="M12 22C17.523 22 22 17.523 22 12C22 6.477 17.523 2 12 2C6.477 2 2 6.477 2 12C2 17.523 6.477 22 12 22Z" fill="black"/>
<path d="M15.5 11.2501H10.31L12.03 9.53014C12.32 9.24014 12.32 8.76014 12.03 8.47014C11.8889 8.33066 11.6984 8.25244 11.5 8.25244C11.3016 8.25244 11.1111 8.33066 10.97 8.47014L7.97 11.4701C7.68 11.7601 7.68 12.2401 7.97 12.5301L10.97 15.5301C11.12 15.6801 11.31 15.7501 11.5 15.7501C11.69 15.7501 11.88 15.6801 12.03 15.5301C12.32 15.2401 12.32 14.7601 12.03 14.4701L10.31 12.7501H15.5C15.91 12.7501 16.25 12.4101 16.25 12.0001C16.25 11.5901 15.91 11.2501 15.5 11.2501Z" fill="black"/>
</svg>
