<svg width="24" height="24" viewBox="0 0 24 24" fill="none" xmlns="http://www.w3.org/2000/svg">
<path d="M12 2C6.48 2 2 6.48 2 12C2 17.52 6.48 22 12 22C17.52 22 22 17.52 22 12C22 6.48 17.52 2 12 2ZM17.79 12.71L15.95 14.55C15.8575 14.6427 15.7476 14.7163 15.6266 14.7664C15.5057 14.8166 15.376 14.8424 15.245 14.8424C15.114 14.8424 14.9843 14.8166 14.8634 14.7664C14.7424 14.7163 14.6325 14.6427 14.54 14.55L12 12L9.46 14.54C9.36749 14.6327 9.2576 14.7063 9.13662 14.7564C9.01565 14.8066 8.88597 14.8324 8.755 14.8324C8.62403 14.8324 8.49435 14.8066 8.37338 14.7564C8.2524 14.7063 8.14251 14.6327 8.05 14.54L6.21 12.7C6.1173 12.6075 6.04375 12.4976 5.99357 12.3766C5.94339 12.2557 5.91756 12.126 5.91756 11.995C5.91756 11.864 5.94339 11.7343 5.99357 11.6134C6.04375 11.4924 6.1173 11.3825 6.21 11.29L8.05 9.45C8.14251 9.3573 8.2524 9.28375 8.37338 9.23357C8.49435 9.18339 8.62403 9.15756 8.755 9.15756C8.88597 9.15756 9.01565 9.18339 9.13662 9.23357C9.2576 9.28375 9.36749 9.3573 9.46 9.45L12 12L14.54 9.46C14.6325 9.3673 14.7424 9.29375 14.8634 9.24357C14.9843 9.19339 15.114 9.16756 15.245 9.16756C15.376 9.16756 15.5057 9.19339 15.6266 9.24357C15.7476 9.29375 15.8575 9.3673 15.95 9.46L17.79 11.3C18.18 11.68 18.18 12.32 17.79 12.71Z" fill="black"/>
</svg>
