<svg width="24" height="24" viewBox="0 0 24 24" fill="none" xmlns="http://www.w3.org/2000/svg">
<path opacity="0.4" d="M12 22C17.523 22 22 17.523 22 12C22 6.477 17.523 2 12 2C6.477 2 2 6.477 2 12C2 17.523 6.477 22 12 22Z" fill="black"/>
<path d="M12 11.9999L9.46 9.45992C9.36749 9.36722 9.2576 9.29367 9.13663 9.24349C9.01565 9.19331 8.88597 9.16748 8.755 9.16748C8.62403 9.16748 8.49435 9.19331 8.37338 9.24349C8.2524 9.29367 8.14251 9.36722 8.05 9.45992L6.21 11.2999C6.1173 11.3924 6.04375 11.5023 5.99357 11.6233C5.94339 11.7443 5.91756 11.874 5.91756 12.0049C5.91756 12.1359 5.94339 12.2656 5.99357 12.3865C6.04375 12.5075 6.1173 12.6174 6.21 12.7099L8.05 14.5499C8.44 14.9399 9.07 14.9399 9.46 14.5499L14.55 9.45992C14.6425 9.36722 14.7524 9.29367 14.8734 9.24349C14.9944 9.19331 15.124 9.16748 15.255 9.16748C15.386 9.16748 15.5157 9.19331 15.6366 9.24349C15.7576 9.29367 15.8675 9.36722 15.96 9.45992L17.8 11.2999C18.19 11.6899 18.19 12.3199 17.8 12.7099L15.96 14.5499C15.8675 14.6426 15.7576 14.7162 15.6366 14.7664C15.5157 14.8165 15.386 14.8424 15.255 14.8424C15.124 14.8424 14.9944 14.8165 14.8734 14.7664C14.7524 14.7162 14.6425 14.6426 14.55 14.5499L12 11.9999Z" fill="black"/>
</svg>
