<svg width="24" height="24" viewBox="0 0 24 24" fill="none" xmlns="http://www.w3.org/2000/svg">
<path d="M15.25 16.0009C15.06 16.0009 14.87 15.9309 14.72 15.7809L12 13.0609L9.28001 15.7809C8.99001 16.0709 8.51001 16.0709 8.22001 15.7809L4.97001 12.5309C4.83053 12.3898 4.7523 12.1993 4.7523 12.0009C4.7523 11.8025 4.83053 11.6121 4.97001 11.4709L8.22001 8.22092C8.51001 7.93092 8.99001 7.93092 9.28001 8.22092L12 10.9409L14.72 8.22092C15.01 7.93092 15.49 7.93092 15.78 8.22092L19.03 11.4709C19.32 11.7609 19.32 12.2409 19.03 12.5309L15.78 15.7809C15.63 15.9309 15.44 16.0009 15.25 16.0009ZM13.06 12.0009L15.25 14.1909L17.44 12.0009L15.25 9.81092L13.06 12.0009ZM6.56001 12.0009L8.75001 14.1909L10.94 12.0009L8.75001 9.81092L6.56001 12.0009Z" fill="black"/>
<path d="M12 22.75C6.07 22.75 1.25 17.93 1.25 12C1.25 6.07 6.07 1.25 12 1.25C17.93 1.25 22.75 6.07 22.75 12C22.75 17.93 17.93 22.75 12 22.75ZM12 2.75C6.9 2.75 2.75 6.9 2.75 12C2.75 17.1 6.9 21.25 12 21.25C17.1 21.25 21.25 17.1 21.25 12C21.25 6.9 17.1 2.75 12 2.75Z" fill="black"/>
</svg>
