<svg width="24" height="24" viewBox="0 0 24 24" fill="none" xmlns="http://www.w3.org/2000/svg">
<path d="M15.408 18.5919C15.008 18.5919 14.678 18.2619 14.678 17.8619C14.678 17.4619 15.008 17.1319 15.408 17.1319C18.228 17.1319 20.528 14.8319 20.528 12.0119C20.528 9.19188 18.228 6.89188 15.408 6.89188C14.0509 6.89452 12.7501 7.43479 11.7905 8.39441C10.8309 9.35402 10.2906 10.6548 10.288 12.0119C10.288 12.4119 9.958 12.7419 9.558 12.7419C9.158 12.7419 8.828 12.4119 8.828 12.0119C8.828 8.38188 11.778 5.42188 15.418 5.42188C19.058 5.42188 21.998 8.37187 21.998 12.0019C21.998 15.6319 19.048 18.5919 15.408 18.5919Z" fill="black"/>
<path d="M8.59 5.41016C8.99 5.41016 9.32 5.74016 9.32 6.14016C9.32 6.54016 8.99 6.87016 8.59 6.87016C7.2329 6.8728 5.93215 7.41308 4.97253 8.37269C4.01292 9.3323 3.47264 10.6331 3.47 11.9902C3.47 14.8102 5.77 17.1102 8.59 17.1102C11.41 17.1102 13.71 14.8102 13.71 11.9902C13.71 11.5902 14.04 11.2602 14.44 11.2602C14.84 11.2602 15.17 11.5902 15.17 11.9902C15.17 15.6202 12.22 18.5802 8.58 18.5802C4.94 18.5802 2 15.6302 2 12.0002C2 8.37016 4.95 5.41016 8.59 5.41016Z" fill="black"/>
</svg>
