<svg width="24" height="24" viewBox="0 0 24 24" fill="none" xmlns="http://www.w3.org/2000/svg">
<path d="M15.408 18.5919C15.008 18.5919 14.678 18.2619 14.678 17.8619C14.678 17.4619 15.008 17.1319 15.408 17.1319C18.228 17.1319 20.528 14.8319 20.528 12.0119C20.528 9.19188 18.228 6.89188 15.408 6.89188C14.0509 6.89452 12.7501 7.43479 11.7905 8.39441C10.8309 9.35402 10.2906 10.6548 10.288 12.0119C10.288 12.4119 9.958 12.7419 9.558 12.7419C9.158 12.7419 8.828 12.4119 8.828 12.0119C8.828 8.38188 11.778 5.42188 15.418 5.42188C19.058 5.42188 21.998 8.37187 21.998 12.0019C21.998 15.6319 19.048 18.5919 15.408 18.5919Z" fill="black"/>
<path opacity="0.4" d="M22 12.0002C22 13.7479 21.3057 15.4241 20.0698 16.66C18.834 17.8959 17.1578 18.5902 15.41 18.5902C14.16 18.5902 12.99 18.2402 12 17.6302C12.9686 17.0443 13.7695 16.2182 14.3249 15.2318C14.8803 14.2454 15.1714 13.1322 15.17 12.0002C15.1714 10.8681 14.8803 9.75496 14.3249 8.76855C13.7695 7.78215 12.9686 6.95598 12 6.37016C13 5.77016 14.17 5.41016 15.41 5.41016C17.1578 5.41016 18.834 6.10446 20.0698 7.34032C21.3057 8.57619 22 10.2524 22 12.0002Z" fill="black"/>
<path d="M8.59 5.41016C8.99 5.41016 9.32 5.74016 9.32 6.14016C9.32 6.54016 8.99 6.87016 8.59 6.87016C7.2329 6.8728 5.93215 7.41308 4.97253 8.37269C4.01292 9.3323 3.47264 10.6331 3.47 11.9902C3.47 14.8102 5.77 17.1102 8.59 17.1102C11.41 17.1102 13.71 14.8102 13.71 11.9902C13.71 11.5902 14.04 11.2602 14.44 11.2602C14.84 11.2602 15.17 11.5902 15.17 11.9902C15.17 15.6202 12.22 18.5802 8.58 18.5802C4.94 18.5802 2 15.6302 2 12.0002C2 8.37016 4.95 5.41016 8.59 5.41016Z" fill="black"/>
<path opacity="0.5" d="M15.17 12.0002C15.1714 13.1322 14.8803 14.2454 14.3249 15.2318C13.7695 16.2182 12.9686 17.0443 12 17.6302C11 18.2302 9.83 18.5902 8.59 18.5902C6.84222 18.5902 5.16603 17.8959 3.93017 16.66C2.6943 15.4241 2 13.7479 2 12.0002C2 10.2524 2.6943 8.57619 3.93017 7.34032C5.16603 6.10446 6.84222 5.41016 8.59 5.41016C9.83 5.41016 11 5.77016 12 6.37016C12.9686 6.95598 13.7695 7.78215 14.3249 8.76855C14.8803 9.75496 15.1714 10.8681 15.17 12.0002Z" fill="black"/>
</svg>
