<svg width="24" height="24" viewBox="0 0 24 24" fill="none" xmlns="http://www.w3.org/2000/svg">
<path d="M16.86 5H19.21C19.39 5 19.55 5.1 19.64 5.25L22.05 9.45C22.14 9.6 22.14 9.79 22.05 9.94L17.41 18.24C17.22 18.58 16.74 18.58 16.54 18.25L15.28 16.14C15.2358 16.0641 15.2125 15.9778 15.2125 15.89C15.2125 15.8022 15.2358 15.7159 15.28 15.64L18.54 9.94C18.63 9.79 18.63 9.6 18.54 9.44L16.41 5.74C16.24 5.42 16.48 5 16.86 5ZM9.86 5H12.21C12.39 5 12.55 5.1 12.64 5.25L15.05 9.45C15.14 9.6 15.14 9.79 15.05 9.94L10.41 18.24C10.22 18.58 9.74 18.58 9.54 18.25L8.28 16.14C8.23582 16.0641 8.21254 15.9778 8.21254 15.89C8.21254 15.8022 8.23582 15.7159 8.28 15.64L11.54 9.94C11.63 9.79 11.63 9.6 11.54 9.44L9.41 5.74C9.24 5.42 9.48 5 9.86 5ZM1.8 5H5.01C5.19 5 5.36 5.1 5.45 5.25L7.87 9.54C7.96 9.69 7.96 9.88 7.87 10.04L6.75 11.96C6.56 12.29 6.08 12.29 5.89 11.96L1.8 5Z" fill="black"/>
</svg>
