<svg width="24" height="24" viewBox="0 0 24 24" fill="none" xmlns="http://www.w3.org/2000/svg">
<path d="M17 19.7478C16.8702 19.7476 16.7428 19.7134 16.6305 19.6484C16.5182 19.5835 16.4249 19.4902 16.36 19.3778L14.51 16.2778C14.4422 16.163 14.4055 16.0325 14.4038 15.8991C14.402 15.7658 14.4352 15.6343 14.5 15.5178L17.84 9.68779L15.35 5.35779C15.2861 5.24315 15.2525 5.11406 15.2525 4.98279C15.2525 4.85153 15.2861 4.72244 15.35 4.60779C15.48 4.37779 15.73 4.23779 16 4.23779H19.5C19.77 4.23779 20.02 4.37779 20.15 4.61779L22.85 9.31779C22.98 9.54779 22.98 9.82779 22.85 10.0578L17.65 19.3578C17.52 19.5878 17.27 19.7378 17.01 19.7378C17.01 19.7478 17 19.7478 17 19.7478ZM16.02 15.8878L16.98 17.4978L21.34 9.69779L19.07 5.73779H17.3L19.35 9.31779C19.48 9.54779 19.48 9.83779 19.35 10.0678L16.02 15.8878Z" fill="black"/>
<path d="M10 19.7478C9.87025 19.7476 9.74282 19.7134 9.63049 19.6484C9.51816 19.5835 9.42487 19.4902 9.36 19.3778L7.51 16.2778C7.44216 16.163 7.40554 16.0325 7.40378 15.8991C7.40203 15.7658 7.4352 15.6343 7.5 15.5178L10.84 9.68779L8.35 5.35779C8.28607 5.24315 8.25251 5.11406 8.25251 4.98279C8.25251 4.85153 8.28607 4.72244 8.35 4.60779C8.48 4.37779 8.73 4.23779 9 4.23779H12.5C12.77 4.23779 13.02 4.37779 13.15 4.61779L15.85 9.31779C15.98 9.54779 15.98 9.82779 15.85 10.0578L10.65 19.3578C10.52 19.5878 10.27 19.7378 10.01 19.7378C10.01 19.7478 10 19.7478 10 19.7478ZM9.02 15.8878L9.98 17.4978L14.34 9.69779L12.07 5.73779H10.3L12.35 9.31779C12.48 9.54779 12.48 9.83779 12.35 10.0678L9.02 15.8878Z" fill="black"/>
<path d="M6.30001 13.45C6.03001 13.45 5.79001 13.31 5.65001 13.08L1.15001 5.38C1.08131 5.26698 1.04498 5.13726 1.04498 5.005C1.04498 4.87274 1.08131 4.74302 1.15001 4.63C1.28001 4.4 1.53001 4.25 1.80001 4.25H5.30001C5.57001 4.25 5.82001 4.4 5.95001 4.63L8.65001 9.43C8.78001 9.66 8.78001 9.95 8.64001 10.18L6.94001 13.08C6.81001 13.31 6.57001 13.45 6.30001 13.45ZM3.11001 5.75L6.30001 11.22L7.13001 9.8L4.86001 5.76H3.11001V5.75Z" fill="black"/>
</svg>
