<svg width="24" height="24" viewBox="0 0 24 24" fill="none" xmlns="http://www.w3.org/2000/svg">
<path d="M11.31 13.9402C12.2064 13.9402 13.0661 13.5841 13.7 12.9502C14.3339 12.3163 14.69 11.4566 14.69 10.5602C14.69 9.66374 14.3339 8.80403 13.7 8.17016C13.0661 7.53628 12.2064 7.18018 11.31 7.18018C10.4136 7.18018 9.55384 7.53628 8.91997 8.17016C8.2861 8.80403 7.92999 9.66374 7.92999 10.5602C7.92999 11.4566 8.2861 12.3163 8.91997 12.9502C9.55384 13.5841 10.4136 13.9402 11.31 13.9402Z" stroke="black" stroke-width="1.5" stroke-miterlimit="10"/>
<path d="M15.06 14.8091L12.06 17.8091" stroke="black" stroke-width="1.5" stroke-miterlimit="10" stroke-linecap="round" stroke-linejoin="round"/>
<path d="M4 6C2.75 7.67 2 9.75 2 12C2 17.52 6.48 22 12 22C17.52 22 22 17.52 22 12C22 6.48 17.52 2 12 2C10.57 2 9.2 2.3 7.97 2.85" stroke="black" stroke-width="1.5" stroke-linecap="round" stroke-linejoin="round"/>
</svg>
