<svg width="24" height="24" viewBox="0 0 24 24" fill="none" xmlns="http://www.w3.org/2000/svg">
<path opacity="0.4" d="M12 22C17.523 22 22 17.523 22 12C22 6.477 17.523 2 12 2C6.477 2 2 6.477 2 12C2 17.523 6.477 22 12 22Z" fill="black"/>
<path d="M11.31 13.9401C12.2064 13.9401 13.0661 13.584 13.7 12.9501C14.3339 12.3162 14.69 11.4565 14.69 10.5601C14.69 9.66365 14.3339 8.80393 13.7 8.17006C13.0661 7.53619 12.2064 7.18008 11.31 7.18008C10.4136 7.18008 9.55385 7.53619 8.91998 8.17006C8.28611 8.80393 7.93 9.66365 7.93 10.5601C7.93 11.4565 8.28611 12.3162 8.91998 12.9501C9.55385 13.584 10.4136 13.9401 11.31 13.9401ZM16.51 8.30908C15.96 8.30908 15.51 7.85908 15.51 7.30908C15.51 6.75908 15.95 6.30908 16.51 6.30908H16.52C17.07 6.30908 17.52 6.75908 17.52 7.30908C17.51 7.85908 17.06 8.30908 16.51 8.30908ZM12.06 18.5601C11.87 18.5601 11.68 18.4901 11.53 18.3401C11.3905 18.1989 11.3123 18.0085 11.3123 17.8101C11.3123 17.6117 11.3905 17.4212 11.53 17.2801L14.53 14.2801C14.82 13.9901 15.3 13.9901 15.59 14.2801C15.88 14.5701 15.88 15.0501 15.59 15.3401L12.59 18.3401C12.45 18.4901 12.25 18.5601 12.06 18.5601Z" fill="black"/>
</svg>
