<svg width="24" height="24" viewBox="0 0 24 24" fill="none" xmlns="http://www.w3.org/2000/svg">
<path d="M11.3 14.0002C12.2017 14.0002 13.0665 13.642 13.7042 13.0044C14.3418 12.3667 14.7 11.5019 14.7 10.6002C14.7 9.69846 14.3418 8.83366 13.7042 8.19603C13.0665 7.55841 12.2017 7.2002 11.3 7.2002C10.3983 7.2002 9.53345 7.55841 8.89583 8.19603C8.25821 8.83366 7.89999 9.69846 7.89999 10.6002C7.89999 11.5019 8.25821 12.3667 8.89583 13.0044C9.53345 13.642 10.3983 14.0002 11.3 14.0002Z" stroke="black" stroke-width="1.5" stroke-miterlimit="10"/>
<path d="M15.1 14.8L12.1 17.8M12 22C17.523 22 22 17.523 22 12C22 6.477 17.523 2 12 2C6.477 2 2 6.477 2 12C2 17.523 6.477 22 12 22Z" stroke="black" stroke-width="1.5" stroke-miterlimit="10" stroke-linecap="round" stroke-linejoin="round"/>
</svg>
