<svg width="24" height="24" viewBox="0 0 24 24" fill="none" xmlns="http://www.w3.org/2000/svg">
<path d="M11.31 14.6901C9.04 14.6901 7.19 12.8401 7.19 10.5701C7.19 8.30008 9.04 6.45008 11.31 6.45008C13.58 6.45008 15.43 8.30008 15.43 10.5701C15.43 11.1111 15.3234 11.6469 15.1164 12.1467C14.9093 12.6466 14.6059 13.1008 14.2233 13.4834C13.8407 13.8659 13.3865 14.1694 12.8867 14.3765C12.3868 14.5835 11.851 14.6901 11.31 14.6901ZM11.31 7.94008C9.86 7.94008 8.69 9.12008 8.69 10.5601C8.69 12.0001 9.87 13.1801 11.31 13.1801C12.75 13.1801 13.93 12.0001 13.93 10.5601C13.93 9.12008 12.76 7.94008 11.31 7.94008ZM16.51 8.30908C15.96 8.30908 15.51 7.85908 15.51 7.30908C15.51 6.75908 15.95 6.30908 16.51 6.30908H16.52C17.07 6.30908 17.52 6.75908 17.52 7.30908C17.52 7.85908 17.06 8.30908 16.51 8.30908ZM12.06 18.5601C11.87 18.5601 11.68 18.4901 11.53 18.3401C11.3905 18.1989 11.3123 18.0085 11.3123 17.8101C11.3123 17.6117 11.3905 17.4212 11.53 17.2801L14.53 14.2801C14.82 13.9901 15.3 13.9901 15.59 14.2801C15.88 14.5701 15.88 15.0501 15.59 15.3401L12.59 18.3401C12.45 18.4901 12.25 18.5601 12.06 18.5601Z" fill="black"/>
<path d="M12 22.75C6.07 22.75 1.25 17.93 1.25 12C1.25 6.07 6.07 1.25 12 1.25C17.93 1.25 22.75 6.07 22.75 12C22.75 17.93 17.93 22.75 12 22.75ZM12 2.75C6.9 2.75 2.75 6.9 2.75 12C2.75 17.1 6.9 21.25 12 21.25C17.1 21.25 21.25 17.1 21.25 12C21.25 6.9 17.1 2.75 12 2.75Z" fill="black"/>
</svg>
