<svg width="24" height="24" viewBox="0 0 24 24" fill="none" xmlns="http://www.w3.org/2000/svg">
<path d="M12 2C6.48 2 2 6.48 2 12C2 17.52 6.48 22 12 22C17.52 22 22 17.52 22 12C22 6.48 17.52 2 12 2ZM13.63 14.29C13.63 14.8 13.22 15.21 12.71 15.21L9.03 15.24C8.66449 15.2429 8.30202 15.1734 7.96351 15.0355C7.62501 14.8975 7.31717 14.6939 7.05778 14.4364C6.79839 14.1789 6.59257 13.8725 6.45221 13.535C6.31185 13.1975 6.23972 12.8355 6.24 12.47V9.67C6.24 9.16 6.65 8.75 7.16 8.75H10.85C11.5847 8.75 12.2892 9.04184 12.8087 9.56131C13.3282 10.0808 13.62 10.7854 13.62 11.52V14.29H13.63ZM17.75 14C17.75 14.43 17.27 14.69 16.91 14.45L14.99 13.17C14.9161 13.1204 14.8556 13.0535 14.8138 12.975C14.7719 12.8965 14.75 12.8089 14.75 12.72V11.3C14.75 11.12 14.84 10.95 14.99 10.85L16.91 9.57C17.27 9.33 17.75 9.59 17.75 10.02V14Z" fill="black"/>
</svg>
