<svg width="24" height="24" viewBox="0 0 24 24" fill="none" xmlns="http://www.w3.org/2000/svg">
<path opacity="0.4" d="M12 22C17.523 22 22 17.523 22 12C22 6.477 17.523 2 12 2C6.477 2 2 6.477 2 12C2 17.523 6.477 22 12 22Z" fill="black"/>
<path fill-rule="evenodd" clip-rule="evenodd" d="M6.25 9.68177V12.4818C6.25 14.0218 7.5 15.2618 9.04 15.2518L12.72 15.2218C13.23 15.2218 13.64 14.8018 13.64 14.3018V11.5318C13.64 10.7971 13.3482 10.0926 12.8287 9.57309C12.3092 9.05361 11.6046 8.76177 10.87 8.76177H7.18C7.05834 8.76045 6.93764 8.78327 6.82486 8.82891C6.71208 8.87455 6.60948 8.94211 6.52299 9.02767C6.4365 9.11324 6.36783 9.2151 6.32097 9.32738C6.27412 9.43966 6.24999 9.56011 6.25 9.68177ZM17.75 10.0218V14.0018C17.75 14.4318 17.27 14.6918 16.91 14.4518L14.99 13.1718C14.9161 13.1222 14.8556 13.0552 14.8138 12.9768C14.7719 12.8983 14.75 12.8107 14.75 12.7218V11.3018C14.75 11.1218 14.84 10.9518 14.99 10.8518L16.91 9.57177C17.27 9.33177 17.75 9.59177 17.75 10.0218Z" fill="black"/>
</svg>
