<svg width="24" height="24" viewBox="0 0 24 24" fill="none" xmlns="http://www.w3.org/2000/svg">
<path d="M6 9.6998V12.4998C6 13.9998 7.3 15.2998 8.8 15.2998H12.5C13 15.2998 13.4 14.8998 13.4 14.3998V11.5998C13.4 10.0998 12.2 8.7998 10.6 8.7998H6.9C6.4 8.7998 6 9.1998 6 9.6998Z" stroke="black" stroke-width="1.5" stroke-miterlimit="10"/>
<path d="M18 9.2002V14.8002L15.2 12.9002V11.1002L18 9.2002Z" stroke="black" stroke-width="1.5" stroke-miterlimit="10" stroke-linecap="round" stroke-linejoin="round"/>
<path d="M12 22C17.523 22 22 17.523 22 12C22 6.477 17.523 2 12 2C6.477 2 2 6.477 2 12C2 17.523 6.477 22 12 22Z" stroke="black" stroke-width="1.5" stroke-miterlimit="10"/>
</svg>
