<svg width="24" height="24" viewBox="0 0 24 24" fill="none" xmlns="http://www.w3.org/2000/svg">
<path d="M8.77 15.99C7.84 15.99 6.96 15.63 6.29 14.97C5.95939 14.6432 5.69716 14.2538 5.5186 13.8246C5.34005 13.3954 5.24874 12.9349 5.25 12.47V9.67C5.25 8.75 6 8 6.92 8H10.61C12.55 8 14.13 9.58 14.13 11.52V14.29C14.13 15.21 13.38 15.96 12.47 15.96L8.79 15.99H8.77ZM6.92 9.51C6.82 9.51 6.75 9.59 6.75 9.68V12.48C6.75 13.02 6.96 13.53 7.35 13.91C7.73 14.29 8.25 14.53 8.79 14.5L12.47 14.47C12.56 14.47 12.64 14.39 12.64 14.3V11.53C12.64 10.42 11.73 9.51 10.62 9.51H6.92ZM18 15.53C17.85 15.53 17.71 15.49 17.58 15.4L14.81 13.55C14.7078 13.4822 14.6241 13.39 14.5665 13.2818C14.5089 13.1735 14.4792 13.0526 14.48 12.93V11.08C14.48 10.83 14.61 10.59 14.81 10.46L17.58 8.61C17.6931 8.53526 17.8242 8.49214 17.9595 8.4851C18.0949 8.47807 18.2297 8.50738 18.35 8.57C18.59 8.7 18.75 8.95 18.75 9.23V14.77C18.75 15.05 18.6 15.3 18.35 15.43C18.24 15.5 18.12 15.53 18 15.53ZM15.98 12.53L17.25 13.38V10.64L15.98 11.49V12.53Z" fill="black"/>
<path d="M12 22.75C6.07 22.75 1.25 17.93 1.25 12C1.25 6.07 6.07 1.25 12 1.25C17.93 1.25 22.75 6.07 22.75 12C22.75 17.93 17.93 22.75 12 22.75ZM12 2.75C6.9 2.75 2.75 6.9 2.75 12C2.75 17.1 6.9 21.25 12 21.25C17.1 21.25 21.25 17.1 21.25 12C21.25 6.9 17.1 2.75 12 2.75Z" fill="black"/>
</svg>
