<svg width="24" height="24" viewBox="0 0 24 24" fill="none" xmlns="http://www.w3.org/2000/svg">
<path opacity="0.4" d="M6 9.68177V12.4818C6 14.0218 7.25 15.2618 8.79 15.2518L12.47 15.2218C12.98 15.2218 13.39 14.8018 13.39 14.3018V11.5318C13.39 11.168 13.3184 10.8078 13.1791 10.4717C13.0399 10.1357 12.8359 9.83031 12.5787 9.57309C12.3215 9.31587 12.0161 9.11183 11.68 8.97263C11.344 8.83342 10.9838 8.76177 10.62 8.76177H6.93C6.80834 8.76045 6.68764 8.78327 6.57486 8.82891C6.46208 8.87455 6.35948 8.94211 6.27299 9.02767C6.1865 9.11324 6.11783 9.2151 6.07097 9.32738C6.02412 9.43966 5.99999 9.56011 6 9.68177Z" stroke="black" stroke-width="1.5" stroke-miterlimit="10"/>
<path opacity="0.4" d="M18 9.23779V14.7778L15.23 12.9278V11.0878L18 9.23779Z" stroke="black" stroke-width="1.5" stroke-miterlimit="10" stroke-linecap="round" stroke-linejoin="round"/>
<path d="M12 22C17.523 22 22 17.523 22 12C22 6.477 17.523 2 12 2C6.477 2 2 6.477 2 12C2 17.523 6.477 22 12 22Z" stroke="black" stroke-width="1.5" stroke-miterlimit="10"/>
</svg>
