<svg width="24" height="24" viewBox="0 0 24 24" fill="none" xmlns="http://www.w3.org/2000/svg">
<path opacity="0.4" d="M16.19 2H7.81C4.17 2 2 4.17 2 7.81V16.18C2 19.83 4.17 22 7.81 22H16.18C19.82 22 21.99 19.83 21.99 16.19V7.81C22 4.17 19.83 2 16.19 2Z" fill="black"/>
<path d="M15.53 14.2101C15.34 14.2101 15.15 14.1401 15 13.9901L12 10.9901L9 13.9901C8.71 14.2801 8.23 14.2801 7.94 13.9901C7.80052 13.849 7.7223 13.6585 7.7223 13.4601C7.7223 13.2617 7.80052 13.0713 7.94 12.9301L11.47 9.40012C11.76 9.11012 12.24 9.11012 12.53 9.40012L16.06 12.9301C16.35 13.2201 16.35 13.7001 16.06 13.9901C15.91 14.1401 15.72 14.2101 15.53 14.2101Z" fill="black"/>
</svg>
