<svg width="24" height="24" viewBox="0 0 24 24" fill="none" xmlns="http://www.w3.org/2000/svg">
<path d="M19.72 14.898C19.0656 15.6366 18.2619 16.2279 17.3621 16.633C16.4623 17.0381 15.4868 17.2477 14.5 17.248H3.5M9.5 3.25H14.5C18.35 3.25 21.5 6.4 21.5 10.25M3.17 6.75H13.81C14.7878 6.75264 15.7249 7.14225 16.4163 7.83369C17.1077 8.52513 17.4974 9.46216 17.5 10.44C17.4974 11.4178 17.1077 12.3549 16.4163 13.0463C15.7249 13.7377 14.7878 14.1274 13.81 14.13H8M8.5 10.75H5.5M6.5 20.75H2.5" stroke="black" stroke-width="1.5" stroke-miterlimit="10" stroke-linecap="round" stroke-linejoin="round"/>
</svg>
