<svg width="24" height="24" viewBox="0 0 24 24" fill="none" xmlns="http://www.w3.org/2000/svg">
<path d="M14.5 18H3.5C3.09 18 2.75 17.66 2.75 17.25C2.75 16.84 3.09 16.5 3.5 16.5H14.5C17.95 16.5 20.75 13.7 20.75 10.25C20.75 6.8 17.95 4 14.5 4H9.5C9.09 4 8.75 3.66 8.75 3.25C8.75 2.84 9.09 2.5 9.5 2.5H14.5C18.77 2.5 22.25 5.98 22.25 10.25C22.25 14.52 18.77 18 14.5 18Z" fill="black"/>
<path d="M13.81 14.8922H8C7.59 14.8922 7.25 14.5522 7.25 14.1422C7.25 13.7322 7.59 13.3922 8 13.3922H13.81C15.43 13.3922 16.75 12.0722 16.75 10.4522C16.75 8.83221 15.43 7.51221 13.81 7.51221H3.17C2.76 7.51221 2.42 7.17221 2.42 6.76221C2.42 6.35221 2.76 6.01221 3.17 6.01221H13.81C16.26 6.01221 18.25 8.00221 18.25 10.4522C18.25 12.9022 16.26 14.8922 13.81 14.8922Z" fill="black"/>
<path d="M8.5 11.5H5.5C5.09 11.5 4.75 11.16 4.75 10.75C4.75 10.34 5.09 10 5.5 10H8.5C8.91 10 9.25 10.34 9.25 10.75C9.25 11.16 8.91 11.5 8.5 11.5ZM6.5 21.5H2.5C2.09 21.5 1.75 21.16 1.75 20.75C1.75 20.34 2.09 20 2.5 20H6.5C6.91 20 7.25 20.34 7.25 20.75C7.25 21.16 6.91 21.5 6.5 21.5Z" fill="black"/>
</svg>
