<svg width="24" height="24" viewBox="0 0 24 24" fill="none" xmlns="http://www.w3.org/2000/svg">
<path d="M16.01 12.619L17.24 11.999L12 9.37897L6.76 11.999L12 14.619L12.8 14.219M6.9 9.10097L11.67 6.98097C11.88 6.89097 12.12 6.89097 12.32 6.98097L17.09 9.10097C17.51 9.29097 17.9 8.78097 17.61 8.42097L12.61 2.31097C12.27 1.89097 11.71 1.89097 11.37 2.31097L6.37 8.42097C6.09 8.78097 6.48 9.29097 6.9 9.10097ZM6.9 14.9L11.68 17.02C11.89 17.11 12.13 17.11 12.33 17.02L17.11 14.9C17.53 14.71 17.92 15.22 17.63 15.58L12.63 21.69C12.29 22.11 11.73 22.11 11.39 21.69L6.39 15.58C6.09 15.22 6.47 14.71 6.9 14.9Z" stroke="black" stroke-width="1.5" stroke-miterlimit="10" stroke-linecap="round" stroke-linejoin="round"/>
</svg>
