<svg width="24" height="24" viewBox="0 0 24 24" fill="none" xmlns="http://www.w3.org/2000/svg">
<path opacity="0.4" d="M6.9 9.10097L11.67 6.98097C11.88 6.89097 12.12 6.89097 12.32 6.98097L17.1 9.10097C17.52 9.29097 17.91 8.78097 17.62 8.42097L12.62 2.31097C12.28 1.89097 11.72 1.89097 11.38 2.31097L6.38 8.42097C6.09 8.78097 6.48 9.29097 6.9 9.10097ZM6.9 14.9L11.68 17.02C11.89 17.11 12.13 17.11 12.33 17.02L17.11 14.9C17.53 14.71 17.92 15.22 17.63 15.58L12.63 21.69C12.29 22.11 11.73 22.11 11.39 21.69L6.39 15.58C6.09 15.22 6.47 14.71 6.9 14.9Z" fill="black"/>
<path d="M11.78 9.49004L7.65 11.55C7.28 11.73 7.28 12.26 7.65 12.44L11.78 14.5C11.92 14.57 12.09 14.57 12.23 14.5L16.36 12.44C16.73 12.26 16.73 11.73 16.36 11.55L12.23 9.49004C12.16 9.45548 12.083 9.4375 12.005 9.4375C11.927 9.4375 11.85 9.45548 11.78 9.49004Z" fill="black"/>
</svg>
