<svg width="24" height="24" viewBox="0 0 24 24" fill="none" xmlns="http://www.w3.org/2000/svg">
<path d="M6.90001 9.1L11.7 7C11.9 6.9 12.1 6.9 12.4 7L17.2 9.1C17.6 9.3 18 8.8 17.7 8.4L12.7 2.3C12.4 1.9 11.8 1.9 11.5 2.3L6.50001 8.4C6.10001 8.8 6.50001 9.3 6.90001 9.1ZM6.90001 14.9L11.7 17C11.9 17.1 12.1 17.1 12.4 17L17.2 14.9C17.6 14.7 18 15.2 17.7 15.6L12.7 21.7C12.4 22.1 11.8 22.1 11.5 21.7L6.50001 15.6C6.10001 15.2 6.50001 14.7 6.90001 14.9ZM12 9.4L6.80001 12L12 14.6L17.2 12L12 9.4Z" stroke="black" stroke-width="1.5" stroke-miterlimit="10" stroke-linecap="round" stroke-linejoin="round"/>
</svg>
