<svg width="24" height="24" viewBox="0 0 24 24" fill="none" xmlns="http://www.w3.org/2000/svg">
<path d="M17.28 9.89205C17.12 9.89205 16.95 9.86205 16.79 9.79205L12.02 7.67205L7.2 9.79205C6.7 10.0121 6.11 9.87205 5.77 9.43205C5.60439 9.22129 5.51688 8.95968 5.52235 8.69169C5.52782 8.4237 5.62593 8.16588 5.8 7.96205L10.8 1.85205C11.41 1.10205 12.59 1.10205 13.21 1.85205L18.21 7.96205C18.56 8.39205 18.57 8.99205 18.24 9.43205C17.99 9.72205 17.64 9.89205 17.28 9.89205ZM12 6.16205C12.21 6.16205 12.43 6.20205 12.63 6.29205L16.21 7.88205L12.04 2.79205L7.81 7.87205L11.37 6.29205C11.57 6.20205 11.78 6.16205 12 6.16205ZM12 22.7501C11.54 22.7501 11.1 22.5401 10.8 22.1601L5.8 16.05C5.62912 15.8436 5.53313 15.5854 5.52763 15.3175C5.52214 15.0496 5.60746 14.7877 5.76973 14.5744C5.932 14.3611 6.16166 14.2091 6.42135 14.1429C6.68103 14.0768 6.95547 14.1004 7.2 14.2101L11.98 16.3301L16.8 14.2101C17.0445 14.1004 17.319 14.0768 17.5786 14.1429C17.8383 14.2091 18.068 14.3611 18.2303 14.5744C18.3925 14.7877 18.4779 15.0496 18.4724 15.3175C18.4669 15.5854 18.3709 15.8436 18.2 16.05L13.2 22.1601C12.9 22.5401 12.46 22.7501 12 22.7501ZM7.79 16.1201L11.95 21.2101L16.18 16.13L12.63 17.7101C12.23 17.8901 11.77 17.8901 11.37 17.7101L7.79 16.1201Z" fill="black"/>
<path d="M12 15.371C11.8852 15.3707 11.7722 15.3433 11.67 15.291L6.42 12.671C6.29595 12.6078 6.19138 12.5121 6.11742 12.3941C6.04346 12.2761 6.00288 12.1403 6 12.001C6 11.721 6.16 11.461 6.42 11.331L11.67 8.71104C11.88 8.60104 12.13 8.60104 12.34 8.71104L17.59 11.331C17.84 11.461 18.01 11.721 18.01 12.001C18.01 12.281 17.85 12.541 17.59 12.671L12.34 15.291C12.23 15.351 12.12 15.371 12 15.371ZM8.43 12.001L12 13.781L15.57 12.001L12 10.221L8.43 12.001Z" fill="black"/>
</svg>
