<svg width="24" height="24" viewBox="0 0 24 24" fill="none" xmlns="http://www.w3.org/2000/svg">
<path d="M12 2C6.48 2 2 6.48 2 12C2 17.52 6.48 22 12 22C17.52 22 22 17.52 22 12C22 6.48 17.52 2 12 2ZM16.93 15.74C16.356 16.5043 15.6113 17.1239 14.7553 17.5492C13.8994 17.9746 12.9558 18.194 12 18.19C8.59 18.19 5.81 15.41 5.81 12C5.81 8.59 8.59 5.81 12 5.81C13.35 5.81 14.64 6.24 15.72 7.05C15.8791 7.16935 15.9843 7.34702 16.0125 7.54393C16.0406 7.74085 15.9893 7.94087 15.87 8.1C15.7507 8.25913 15.573 8.36433 15.3761 8.39246C15.1792 8.42059 14.9791 8.36935 14.82 8.25C14 7.63 13.03 7.31 12 7.31C9.42 7.31 7.31 9.41 7.31 12C7.30999 12.9827 7.61862 13.9405 8.19233 14.7383C8.76604 15.5361 9.57584 16.1335 10.5074 16.4462C11.439 16.759 12.4452 16.7712 13.3841 16.4812C14.323 16.1912 15.1471 15.6136 15.74 14.83C15.7998 14.7519 15.8743 14.6863 15.9594 14.6369C16.0445 14.5876 16.1385 14.5555 16.236 14.5425C16.3335 14.5295 16.4326 14.5359 16.5277 14.5612C16.6227 14.5865 16.7119 14.6302 16.79 14.69C16.8681 14.7498 16.9337 14.8243 16.9831 14.9094C17.0324 14.9945 17.0645 15.0885 17.0775 15.186C17.0905 15.2835 17.0841 15.3826 17.0588 15.4777C17.0335 15.5727 16.9898 15.6619 16.93 15.74ZM17.42 11.34C16.77 11.34 16.25 10.82 16.25 10.17C16.25 9.52 16.77 9 17.42 9C18.07 9 18.59 9.52 18.59 10.17C18.59 10.82 18.07 11.34 17.42 11.34Z" fill="black"/>
</svg>
