<svg width="24" height="24" viewBox="0 0 24 24" fill="none" xmlns="http://www.w3.org/2000/svg">
<path opacity="0.4" d="M12 22C17.523 22 22 17.523 22 12C22 6.477 17.523 2 12 2C6.477 2 2 6.477 2 12C2 17.523 6.477 22 12 22Z" fill="black"/>
<path d="M12 18.189C8.59 18.189 5.81 15.409 5.81 11.999C5.81 8.58902 8.59 5.80902 12 5.80902C13.35 5.80902 14.64 6.23902 15.72 7.04902C15.8791 7.16837 15.9843 7.34604 16.0125 7.54295C16.0406 7.73987 15.9893 7.93989 15.87 8.09902C15.7507 8.25815 15.573 8.36335 15.3761 8.39148C15.1792 8.41961 14.9791 8.36837 14.82 8.24902C14 7.63902 13.03 7.30902 12 7.30902C9.42 7.30902 7.31 9.40902 7.31 11.999C7.30999 12.9817 7.61862 13.9395 8.19233 14.7373C8.76604 15.5351 9.57584 16.1325 10.5074 16.4452C11.439 16.758 12.4452 16.7702 13.3841 16.4802C14.323 16.1902 15.1471 15.6126 15.74 14.829C15.7998 14.7509 15.8743 14.6853 15.9594 14.636C16.0445 14.5866 16.1385 14.5546 16.236 14.5416C16.3335 14.5286 16.4326 14.5349 16.5277 14.5602C16.6227 14.5855 16.7119 14.6293 16.79 14.689C16.8681 14.7488 16.9337 14.8233 16.9831 14.9084C17.0324 14.9935 17.0645 15.0875 17.0775 15.185C17.0905 15.2825 17.0841 15.3816 17.0588 15.4767C17.0335 15.5717 16.9898 15.6609 16.93 15.739C16.3544 16.5016 15.6094 17.12 14.7538 17.5452C13.8982 17.9704 12.9554 18.1908 12 18.189Z" fill="black"/>
<path d="M17.42 11.34C17.7303 11.34 18.0279 11.2167 18.2473 10.9973C18.4667 10.7779 18.59 10.4803 18.59 10.17C18.59 9.8597 18.4667 9.5621 18.2473 9.34268C18.0279 9.12327 17.7303 9 17.42 9C17.1097 9 16.8121 9.12327 16.5927 9.34268C16.3733 9.5621 16.25 9.8597 16.25 10.17C16.25 10.4803 16.3733 10.7779 16.5927 10.9973C16.8121 11.2167 17.1097 11.34 17.42 11.34Z" fill="black"/>
</svg>
