<svg width="24" height="24" viewBox="0 0 24 24" fill="none" xmlns="http://www.w3.org/2000/svg">
<path d="M16.3 15.3C15.3 16.6 13.7 17.5 12 17.5C9.00001 17.5 6.60001 15.1 6.60001 12.1C6.60001 9.09998 9.00001 6.59998 12 6.59998C13.2 6.59998 14.4 6.99998 15.3 7.69998M17.4 11.4C17.7183 11.4 18.0235 11.2735 18.2485 11.0485C18.4736 10.8235 18.6 10.5182 18.6 10.2C18.6 9.88172 18.4736 9.57649 18.2485 9.35145C18.0235 9.1264 17.7183 8.99998 17.4 8.99998C17.0817 8.99998 16.7765 9.1264 16.5515 9.35145C16.3264 9.57649 16.2 9.88172 16.2 10.2C16.2 10.5182 16.3264 10.8235 16.5515 11.0485C16.7765 11.2735 17.0817 11.4 17.4 11.4Z" stroke="black" stroke-width="1.5" stroke-miterlimit="10" stroke-linecap="round" stroke-linejoin="round"/>
<path d="M12 22C17.523 22 22 17.523 22 12C22 6.477 17.523 2 12 2C6.477 2 2 6.477 2 12C2 17.523 6.477 22 12 22Z" stroke="black" stroke-width="1.5" stroke-miterlimit="10" stroke-linecap="round" stroke-linejoin="round"/>
</svg>
