<svg width="24" height="24" viewBox="0 0 24 24" fill="none" xmlns="http://www.w3.org/2000/svg">
<path d="M12 18.189C8.59 18.189 5.81 15.409 5.81 11.999C5.81 8.58902 8.59 5.80902 12 5.80902C13.35 5.80902 14.64 6.23902 15.72 7.04902C15.8791 7.16837 15.9843 7.34604 16.0125 7.54295C16.0406 7.73987 15.9893 7.93989 15.87 8.09902C15.7506 8.25815 15.573 8.36335 15.3761 8.39148C15.1792 8.41961 14.9791 8.36837 14.82 8.24902C14 7.62902 13.03 7.30902 12 7.30902C9.42 7.30902 7.31 9.40902 7.31 11.999C7.30998 12.9817 7.61862 13.9395 8.19233 14.7373C8.76604 15.5351 9.57584 16.1325 10.5074 16.4452C11.439 16.758 12.4452 16.7702 13.3841 16.4802C14.323 16.1902 15.1471 15.6126 15.74 14.829C15.7997 14.7509 15.8743 14.6853 15.9594 14.636C16.0445 14.5866 16.1385 14.5546 16.236 14.5416C16.3335 14.5286 16.4326 14.5349 16.5277 14.5602C16.6227 14.5855 16.7119 14.6293 16.79 14.689C16.8681 14.7488 16.9337 14.8233 16.9831 14.9084C17.0324 14.9935 17.0645 15.0875 17.0775 15.185C17.0905 15.2825 17.0841 15.3816 17.0588 15.4767C17.0335 15.5717 16.9897 15.6609 16.93 15.739C16.3544 16.5016 15.6094 17.12 14.7538 17.5452C13.8982 17.9704 12.9554 18.1908 12 18.189Z" fill="black"/>
<path d="M17.42 12.09C17.1678 12.09 16.9181 12.0402 16.6851 11.9436C16.4521 11.8471 16.2404 11.7056 16.0621 11.5272C15.8839 11.3488 15.7425 11.137 15.646 10.904C15.5495 10.671 15.4999 10.4212 15.5 10.169C15.5001 9.91682 15.5498 9.6671 15.6464 9.43412C15.743 9.20114 15.8845 8.98946 16.0629 8.81117C16.2412 8.63288 16.453 8.49147 16.686 8.39502C16.919 8.29857 17.1688 8.24896 17.421 8.24902C17.9303 8.24916 18.4188 8.45162 18.7789 8.81188C19.1389 9.17214 19.3411 9.66068 19.341 10.17C19.3409 10.6794 19.1384 11.1678 18.7781 11.5279C18.4179 11.8879 17.9293 12.0902 17.42 12.09ZM17.42 9.75002C17.19 9.75002 17 9.94002 17 10.17C17 10.4 17.19 10.59 17.42 10.59C17.65 10.59 17.84 10.4 17.84 10.17C17.84 9.94002 17.65 9.75002 17.42 9.75002Z" fill="black"/>
<path d="M12 22.75C6.07 22.75 1.25 17.93 1.25 12C1.25 6.07 6.07 1.25 12 1.25C17.93 1.25 22.75 6.07 22.75 12C22.75 17.93 17.93 22.75 12 22.75ZM12 2.75C6.9 2.75 2.75 6.9 2.75 12C2.75 17.1 6.9 21.25 12 21.25C17.1 21.25 21.25 17.1 21.25 12C21.25 6.9 17.1 2.75 12 2.75Z" fill="black"/>
</svg>
