<svg width="24" height="24" viewBox="0 0 24 24" fill="none" xmlns="http://www.w3.org/2000/svg">
<path opacity="0.4" d="M16.33 15.28C15.6409 16.1861 14.6849 16.8532 13.5966 17.1873C12.5084 17.5214 11.3427 17.5057 10.2639 17.1424C9.18505 16.7791 8.24735 16.0865 7.58288 15.1622C6.91841 14.2379 6.56066 13.1284 6.56 11.99C6.56 8.97999 8.99 6.54999 12 6.54999C13.23 6.54999 14.36 6.95999 15.27 7.63999M17.42 11.34C17.7303 11.34 18.0279 11.2167 18.2473 10.9973C18.4667 10.7779 18.59 10.4803 18.59 10.17C18.59 9.85968 18.4667 9.56209 18.2473 9.34267C18.0279 9.12325 17.7303 8.99999 17.42 8.99999C17.1097 8.99999 16.8121 9.12325 16.5927 9.34267C16.3733 9.56209 16.25 9.85968 16.25 10.17C16.25 10.4803 16.3733 10.7779 16.5927 10.9973C16.8121 11.2167 17.1097 11.34 17.42 11.34Z" stroke="black" stroke-width="1.5" stroke-miterlimit="10" stroke-linecap="round" stroke-linejoin="round"/>
<path d="M12 22C17.523 22 22 17.523 22 12C22 6.477 17.523 2 12 2C6.477 2 2 6.477 2 12C2 17.523 6.477 22 12 22Z" stroke="black" stroke-width="1.5" stroke-miterlimit="10" stroke-linecap="round" stroke-linejoin="round"/>
</svg>
