<svg width="24" height="24" viewBox="0 0 24 24" fill="none" xmlns="http://www.w3.org/2000/svg">
<path opacity="0.4" d="M12 22C17.523 22 22 17.523 22 12C22 6.477 17.523 2 12 2C6.477 2 2 6.477 2 12C2 17.523 6.477 22 12 22Z" fill="black"/>
<path d="M16.747 7H11.917C11.507 7 11.167 7.34 11.167 7.75C11.167 8.16 11.507 8.5 11.917 8.5H14.937L7.217 16.22C6.927 16.51 6.927 16.99 7.217 17.28C7.367 17.43 7.557 17.5 7.747 17.5C7.937 17.5 8.127 17.43 8.277 17.28L15.997 9.56V12.58C15.997 12.99 16.337 13.33 16.747 13.33C17.157 13.33 17.497 12.99 17.497 12.58V7.75C17.497 7.34 17.157 7 16.747 7Z" fill="black"/>
</svg>
