<svg width="24" height="24" viewBox="0 0 24 24" fill="none" xmlns="http://www.w3.org/2000/svg">
<path d="M19 8C19.7956 8 20.5587 7.68393 21.1213 7.12132C21.6839 6.55871 22 5.79565 22 5C22 4.20435 21.6839 3.44129 21.1213 2.87868C20.5587 2.31607 19.7956 2 19 2C18.2044 2 17.4413 2.31607 16.8787 2.87868C16.3161 3.44129 16 4.20435 16 5C16 5.79565 16.3161 6.55871 16.8787 7.12132C17.4413 7.68393 18.2044 8 19 8Z" fill="black"/>
<path d="M17.79 9.34C17.0408 9.13628 16.3578 8.74027 15.8088 8.19125C15.2597 7.64222 14.8637 6.95924 14.66 6.21C14.4 5.25 14.46 4.33 14.75 3.51C14.7973 3.3776 14.8158 3.23665 14.8044 3.09652C14.793 2.95639 14.7519 2.8203 14.6837 2.69732C14.6156 2.57433 14.5221 2.46725 14.4094 2.38323C14.2966 2.2992 14.1673 2.24015 14.03 2.21C12.56 1.9 10.97 1.91 9.31 2.36C5.53 3.42 2.64 6.69 2.1 10.58C1.18 17.2 6.79 22.81 13.41 21.9C17.31 21.36 20.57 18.47 21.62 14.68C22.08 13.03 22.09 11.44 21.78 9.96C21.66 9.38 21.04 9.05 20.48 9.24C19.67 9.53 18.75 9.59 17.79 9.34Z" fill="black"/>
</svg>
