<svg width="24" height="24" viewBox="0 0 24 24" fill="none" xmlns="http://www.w3.org/2000/svg">
<path d="M3.02 16.402C3.84089 18.0837 5.11827 19.5007 6.70621 20.4909C8.29415 21.4812 10.1286 22.0048 12 22.002C17.52 22.002 22 17.522 22 12.002C22 11.322 21.93 10.652 21.8 10.012M14.02 2.2C13.36 2.07 12.69 2 12 2C6.48 2 2 6.48 2 12M19 2C17.34 2 16 3.34 16 5C16 6.66 17.34 8 19 8C20.66 8 22 6.66 22 5C22 4.64 21.94 4.3 21.82 3.99" stroke="black" stroke-width="1.5" stroke-linecap="round" stroke-linejoin="round"/>
</svg>
