<svg width="24" height="24" viewBox="0 0 24 24" fill="none" xmlns="http://www.w3.org/2000/svg">
<path d="M19 8C19.7956 8 20.5587 7.68393 21.1213 7.12132C21.6839 6.55871 22 5.79565 22 5C22 4.20435 21.6839 3.44129 21.1213 2.87868C20.5587 2.31607 19.7956 2 19 2C18.2044 2 17.4413 2.31607 16.8787 2.87868C16.3161 3.44129 16 4.20435 16 5C16 5.79565 16.3161 6.55871 16.8787 7.12132C17.4413 7.68393 18.2044 8 19 8Z" stroke="black" stroke-width="1.5" stroke-linecap="round" stroke-linejoin="round"/>
<path d="M14.02 2.2C13.36 2.07 12.69 2 12 2C6.48 2 2 6.48 2 12C2 17.52 6.48 22 12 22C17.52 22 22 17.52 22 12C22 11.32 21.93 10.65 21.8 10.01" stroke="black" stroke-width="1.5" stroke-linecap="round" stroke-linejoin="round"/>
</svg>
