<svg width="24" height="24" viewBox="0 0 24 24" fill="none" xmlns="http://www.w3.org/2000/svg">
<path d="M12.5 14.75H10C9.59 14.75 9.25 14.41 9.25 14C9.25 13.59 9.59 13.25 10 13.25H12.5C15.12 13.25 17.25 11.12 17.25 8.5C17.25 5.88 15.12 3.75 12.5 3.75H7.5C4.88 3.75 2.75 5.88 2.75 8.5C2.75 9.6 3.14 10.67 3.84 11.52C4.1 11.84 4.06 12.31 3.74 12.58C3.42 12.84 2.95 12.8 2.68 12.48C1.75775 11.3584 1.25244 9.95205 1.25 8.5C1.25 5.05 4.05 2.25 7.5 2.25H12.5C15.95 2.25 18.75 5.05 18.75 8.5C18.75 11.95 15.95 14.75 12.5 14.75Z" fill="black"/>
<path d="M16.5 21.75H11.5C8.05 21.75 5.25 18.95 5.25 15.5C5.25 12.05 8.05 9.25 11.5 9.25H14C14.41 9.25 14.75 9.59 14.75 10C14.75 10.41 14.41 10.75 14 10.75H11.5C8.88 10.75 6.75 12.88 6.75 15.5C6.75 18.12 8.88 20.25 11.5 20.25H16.5C19.12 20.25 21.25 18.12 21.25 15.5C21.25 14.4 20.86 13.33 20.16 12.48C20.034 12.3256 19.9738 12.1279 19.9926 11.9295C20.0113 11.7311 20.1074 11.5481 20.26 11.42C20.336 11.3566 20.4238 11.3089 20.5183 11.2796C20.6129 11.2503 20.7123 11.24 20.8108 11.2493C20.9094 11.2586 21.0051 11.2873 21.0925 11.3337C21.1799 11.3802 21.2572 11.4435 21.32 11.52C22.2493 12.6382 22.7587 14.046 22.76 15.5C22.75 18.95 19.95 21.75 16.5 21.75Z" fill="black"/>
</svg>
