<svg width="24" height="24" viewBox="0 0 24 24" fill="none" xmlns="http://www.w3.org/2000/svg">
<path d="M12.498 14.75H9.998C9.588 14.75 9.248 14.41 9.248 14C9.248 13.59 9.588 13.25 9.998 13.25H12.498C15.118 13.25 17.248 11.12 17.248 8.5C17.248 5.88 15.118 3.75 12.498 3.75H7.498C4.878 3.75 2.748 5.88 2.748 8.5C2.748 9.6 3.138 10.67 3.838 11.52C4.098 11.84 4.058 12.31 3.738 12.58C3.418 12.84 2.948 12.8 2.678 12.48C1.74869 11.3618 1.23934 9.95397 1.238 8.5C1.238 5.05 4.038 2.25 7.488 2.25H12.488C15.938 2.25 18.738 5.05 18.738 8.5C18.738 11.95 15.948 14.75 12.498 14.75Z" fill="black"/>
<path opacity="0.4" d="M16.5 21.75H11.5C8.05 21.75 5.25 18.95 5.25 15.5C5.25 12.05 8.05 9.25 11.5 9.25H14C14.41 9.25 14.75 9.59 14.75 10C14.75 10.41 14.41 10.75 14 10.75H11.5C8.88 10.75 6.75 12.88 6.75 15.5C6.75 18.12 8.88 20.25 11.5 20.25H16.5C19.12 20.25 21.25 18.12 21.25 15.5C21.25 14.4 20.86 13.33 20.16 12.48C20.034 12.3256 19.9738 12.1279 19.9926 11.9295C20.0113 11.7311 20.1074 11.5481 20.26 11.42C20.336 11.3566 20.4238 11.3089 20.5183 11.2796C20.6129 11.2503 20.7123 11.24 20.8108 11.2493C20.9094 11.2586 21.0051 11.2873 21.0925 11.3337C21.1799 11.3802 21.2572 11.4435 21.32 11.52C22.2493 12.6382 22.7587 14.046 22.76 15.5C22.75 18.95 19.95 21.75 16.5 21.75Z" fill="black"/>
</svg>
