<svg width="24" height="24" viewBox="0 0 24 24" fill="none" xmlns="http://www.w3.org/2000/svg">
<path d="M12.502 14.75H10.002C9.592 14.75 9.252 14.41 9.252 14C9.252 13.59 9.592 13.25 10.002 13.25H12.502C15.122 13.25 17.252 11.12 17.252 8.5C17.252 5.88 15.122 3.75 12.502 3.75H7.502C4.882 3.75 2.752 5.88 2.752 8.5C2.752 9.6 3.142 10.67 3.842 11.52C4.102 11.84 4.062 12.31 3.742 12.58C3.422 12.84 2.952 12.8 2.682 12.48C1.7527 11.3618 1.24334 9.95397 1.242 8.5C1.242 5.05 4.042 2.25 7.492 2.25H12.492C15.942 2.25 18.742 5.05 18.742 8.5C18.742 11.95 15.952 14.75 12.502 14.75Z" fill="black"/>
<path d="M16.5 21.75H11.5C8.05 21.75 5.25 18.95 5.25 15.5C5.25 12.05 8.05 9.25 11.5 9.25H14C14.41 9.25 14.75 9.59 14.75 10C14.75 10.41 14.41 10.75 14 10.75H11.5C8.88 10.75 6.75 12.88 6.75 15.5C6.75 18.12 8.88 20.25 11.5 20.25H16.5C19.12 20.25 21.25 18.12 21.25 15.5C21.25 14.4 20.86 13.33 20.16 12.48C20.034 12.3256 19.9738 12.1279 19.9926 11.9295C20.0113 11.7311 20.1074 11.5481 20.26 11.42C20.336 11.3566 20.4238 11.3089 20.5183 11.2796C20.6129 11.2503 20.7123 11.24 20.8108 11.2493C20.9094 11.2586 21.0051 11.2873 21.0925 11.3337C21.1799 11.3802 21.2572 11.4435 21.32 11.52C22.2493 12.6382 22.7587 14.046 22.76 15.5C22.75 18.95 19.95 21.75 16.5 21.75Z" fill="black"/>
</svg>
