<svg width="24" height="24" viewBox="0 0 24 24" fill="none" xmlns="http://www.w3.org/2000/svg">
<path d="M12 22.75C6.07 22.75 1.25 17.93 1.25 12C1.25 10.51 1.55 9.08 2.14 7.72C2.22114 7.53835 2.37026 7.39576 2.55536 7.32284C2.74046 7.24993 2.94677 7.2525 3.13 7.33C3.51 7.5 3.68 7.94 3.52 8.32C3.02 9.48 2.76 10.72 2.76 12C2.76 17.1 6.91 21.25 12.01 21.25C17.11 21.25 21.26 17.1 21.26 12C21.26 6.9 17.11 2.75 12.01 2.75C10.72 2.75 9.46 3.01 8.29 3.53C8.10915 3.606 7.90571 3.60811 7.72332 3.53589C7.54092 3.46366 7.39409 3.32285 7.31429 3.14364C7.2345 2.96442 7.22809 2.76108 7.29646 2.5772C7.36482 2.39333 7.50251 2.24356 7.68 2.16C9.05 1.56 10.5 1.25 12.01 1.25C17.94 1.25 22.76 6.07 22.76 12C22.76 17.93 17.93 22.75 12 22.75Z" fill="black"/>
<path d="M16 15.2501V12.0001C16 9.65009 14.1 7.75009 11.75 7.75009C9.4 7.75009 7.5 9.65009 7.5 12.0001C7.5 14.3501 9.4 16.2501 11.75 16.2501H15C15.55 16.2501 16 15.8001 16 15.2501ZM5 6.88109C5.24689 6.88109 5.49136 6.83247 5.71945 6.73799C5.94754 6.64351 6.15479 6.50503 6.32936 6.33045C6.50394 6.15588 6.64242 5.94863 6.7369 5.72054C6.83138 5.49245 6.88 5.24798 6.88 5.00109C6.88 4.75421 6.83138 4.50974 6.7369 4.28165C6.64242 4.05356 6.50394 3.84631 6.32936 3.67173C6.15479 3.49716 5.94754 3.35868 5.71945 3.2642C5.49136 3.16972 5.24689 3.12109 5 3.12109C4.5014 3.12109 4.02321 3.31916 3.67064 3.67173C3.31807 4.0243 3.12 4.50249 3.12 5.00109C3.12 5.4997 3.31807 5.97789 3.67064 6.33045C4.02321 6.68302 4.5014 6.88109 5 6.88109Z" fill="black"/>
</svg>
