<svg width="24" height="24" viewBox="0 0 24 24" fill="none" xmlns="http://www.w3.org/2000/svg">
<path opacity="0.4" d="M12 22.75C6.07 22.75 1.25 17.93 1.25 12C1.25 10.51 1.55 9.08 2.14 7.72C2.22114 7.53835 2.37026 7.39576 2.55536 7.32284C2.74046 7.24993 2.94677 7.2525 3.13 7.33C3.51 7.5 3.68 7.94 3.52 8.32C3.02 9.48 2.76 10.72 2.76 12C2.76 17.1 6.91 21.25 12.01 21.25C17.11 21.25 21.26 17.1 21.26 12C21.26 6.9 17.1 2.75 12 2.75C10.71 2.75 9.45 3.01 8.28 3.53C8.09915 3.606 7.89571 3.60811 7.71332 3.53589C7.53092 3.46366 7.38409 3.32285 7.30429 3.14364C7.2245 2.96442 7.21809 2.76108 7.28646 2.5772C7.35482 2.39333 7.49251 2.24356 7.67 2.16C9.04 1.56 10.49 1.25 12 1.25C17.93 1.25 22.75 6.07 22.75 12C22.75 17.93 17.93 22.75 12 22.75Z" fill="black"/>
<path d="M16 15.2501V12.0001C16 9.65009 14.1 7.75009 11.75 7.75009C9.4 7.75009 7.5 9.65009 7.5 12.0001C7.5 14.3501 9.4 16.2501 11.75 16.2501H15C15.55 16.2501 16 15.8001 16 15.2501ZM5 6.88109C5.24688 6.88109 5.49135 6.83247 5.71944 6.73799C5.94754 6.64351 6.15479 6.50503 6.32936 6.33045C6.50393 6.15588 6.64241 5.94863 6.73689 5.72054C6.83137 5.49245 6.88 5.24798 6.88 5.00109C6.88 4.75421 6.83137 4.50974 6.73689 4.28165C6.64241 4.05356 6.50393 3.84631 6.32936 3.67173C6.15479 3.49716 5.94754 3.35868 5.71944 3.2642C5.49135 3.16972 5.24688 3.12109 5 3.12109C4.50139 3.12109 4.02321 3.31916 3.67064 3.67173C3.31807 4.0243 3.12 4.50249 3.12 5.00109C3.12 5.4997 3.31807 5.97789 3.67064 6.33045C4.02321 6.68302 4.50139 6.88109 5 6.88109Z" fill="black"/>
</svg>
