<svg width="24" height="24" viewBox="0 0 24 24" fill="none" xmlns="http://www.w3.org/2000/svg">
<path d="M12 22.75C6.07 22.75 1.25 17.93 1.25 12C1.25 10.51 1.55 9.08 2.14 7.72C2.22114 7.53835 2.37026 7.39576 2.55536 7.32284C2.74046 7.24993 2.94677 7.2525 3.13 7.33C3.51 7.5 3.68 7.94 3.52 8.32C3.02 9.48 2.76 10.72 2.76 12C2.76 17.1 6.91 21.25 12.01 21.25C17.11 21.25 21.26 17.1 21.26 12C21.26 6.9 17.11 2.75 12.01 2.75C10.72 2.75 9.46 3.01 8.29 3.53C8.10915 3.606 7.90571 3.60811 7.72332 3.53589C7.54092 3.46366 7.39409 3.32285 7.31429 3.14364C7.2345 2.96442 7.22809 2.76108 7.29646 2.5772C7.36482 2.39333 7.50251 2.24356 7.68 2.16C9.05 1.56 10.5 1.25 12.01 1.25C17.94 1.25 22.76 6.07 22.76 12C22.76 17.93 17.93 22.75 12 22.75Z" fill="black"/>
<path d="M16 17H11.75C8.99 17 6.75 14.76 6.75 12C6.75 9.24 8.99 7 11.75 7C14.51 7 16.75 9.24 16.75 12V16.25C16.75 16.66 16.41 17 16 17ZM11.75 8.5C9.82 8.5 8.25 10.07 8.25 12C8.25 13.93 9.82 15.5 11.75 15.5H15.25V12C15.25 10.07 13.68 8.5 11.75 8.5ZM5 7.25C3.76 7.25 2.75 6.24 2.75 5C2.75 3.76 3.76 2.75 5 2.75C6.24 2.75 7.25 3.76 7.25 5C7.25 6.24 6.24 7.25 5 7.25ZM5 4.25C4.59 4.25 4.25 4.59 4.25 5C4.25 5.41 4.59 5.75 5 5.75C5.41 5.75 5.75 5.41 5.75 5C5.75 4.59 5.41 4.25 5 4.25Z" fill="black"/>
</svg>
