<svg width="24" height="24" viewBox="0 0 24 24" fill="none" xmlns="http://www.w3.org/2000/svg">
<path d="M7.97 2.84C9.2 2.3 10.56 2 12 2C17.52 2 22 6.48 22 12C22 17.52 17.52 22 12 22C6.48 22 2 17.52 2 12C2 10.59 2.29 9.24 2.82 8.02" stroke="black" stroke-width="1.5" stroke-miterlimit="10" stroke-linecap="round" stroke-linejoin="round"/>
<path opacity="0.4" d="M16 16.25V12C16 9.65 14.1 7.75 11.75 7.75C9.4 7.75 7.5 9.65 7.5 12C7.5 14.35 9.4 16.25 11.75 16.25H16ZM5 6.5C5.39782 6.5 5.77936 6.34196 6.06066 6.06066C6.34196 5.77936 6.5 5.39782 6.5 5C6.5 4.60218 6.34196 4.22064 6.06066 3.93934C5.77936 3.65804 5.39782 3.5 5 3.5C4.60218 3.5 4.22064 3.65804 3.93934 3.93934C3.65804 4.22064 3.5 4.60218 3.5 5C3.5 5.39782 3.65804 5.77936 3.93934 6.06066C4.22064 6.34196 4.60218 6.5 5 6.5Z" stroke="black" stroke-width="1.5" stroke-miterlimit="10" stroke-linecap="round" stroke-linejoin="round"/>
</svg>
