<svg width="24" height="24" viewBox="0 0 24 24" fill="none" xmlns="http://www.w3.org/2000/svg">
<path d="M12 2C6.48 2 2 6.48 2 12C2 17.52 6.48 22 12 22C17.52 22 22 17.52 22 12C22 6.48 17.52 2 12 2ZM15.42 16.58C15.3508 16.677 15.2592 16.7558 15.153 16.8097C15.0468 16.8637 14.9291 16.8912 14.81 16.89C14.66 16.89 14.51 16.84 14.37 16.75C13.6159 16.2099 12.7384 15.8674 11.8178 15.7539C10.8972 15.6403 9.96277 15.7593 9.1 16.1C8.91556 16.1714 8.71042 16.1674 8.52892 16.0888C8.34742 16.0102 8.20412 15.8634 8.13 15.68C8.05777 15.4956 8.06139 15.2902 8.14008 15.1084C8.21876 14.9267 8.36612 14.7835 8.55 14.71C10.79 13.82 13.29 14.13 15.24 15.53C15.59 15.78 15.66 16.25 15.42 16.58ZM16.52 13.79C16.4508 13.887 16.3592 13.9658 16.253 14.0197C16.1468 14.0737 16.0291 14.1012 15.91 14.1C15.76 14.1 15.61 14.05 15.47 13.96C14.4323 13.2133 13.223 12.7403 11.954 12.5847C10.6851 12.4292 9.39738 12.5961 8.21 13.07C8.02556 13.1414 7.82042 13.1374 7.63892 13.0588C7.45742 12.9802 7.31412 12.8334 7.24 12.65C7.16777 12.4656 7.1714 12.2602 7.25008 12.0784C7.32876 11.8967 7.47612 11.7535 7.66 11.68C9.0799 11.1132 10.6199 10.9141 12.1373 11.1011C13.6547 11.2882 15.1003 11.8553 16.34 12.75C16.68 12.99 16.76 13.46 16.52 13.79ZM18.09 11.11C18.0208 11.207 17.9292 11.2858 17.823 11.3397C17.7168 11.3937 17.5991 11.4212 17.48 11.42C17.33 11.42 17.18 11.37 17.04 11.28C14.06 9.14 10.24 8.67 6.84 10.03C6.65562 10.1022 6.45016 10.0986 6.26844 10.0199C6.08672 9.94124 5.94349 9.79388 5.87 9.61C5.72 9.23 5.91 8.79 6.29 8.64C10.17 7.1 14.52 7.63 17.92 10.07C18.26 10.3 18.34 10.77 18.09 11.11Z" fill="black"/>
</svg>
