<svg width="24" height="24" viewBox="0 0 24 24" fill="none" xmlns="http://www.w3.org/2000/svg">
<path d="M6.57001 9.32983C10.2 7.88983 14.31 8.39983 17.49 10.6698M7.94001 12.3778C9.2444 11.8614 10.6575 11.6805 12.0499 11.8517C13.4424 12.0229 14.7696 12.5408 15.91 13.3578M8.83001 15.4118C10.82 14.6218 13.07 14.9018 14.81 16.1418" stroke="black" stroke-width="1.5" stroke-miterlimit="10" stroke-linecap="round" stroke-linejoin="round"/>
<path d="M4 6C2.75 7.67 2 9.75 2 12C2 17.52 6.48 22 12 22C17.52 22 22 17.52 22 12C22 6.48 17.52 2 12 2C10.57 2 9.2 2.3 7.97 2.85" stroke="black" stroke-width="1.5" stroke-linecap="round" stroke-linejoin="round"/>
</svg>
