<svg width="24" height="24" viewBox="0 0 24 24" fill="none" xmlns="http://www.w3.org/2000/svg">
<path d="M12 22.75C6.07 22.75 1.25 17.93 1.25 12C1.25 6.07 6.07 1.25 12 1.25C17.93 1.25 22.75 6.07 22.75 12C22.75 17.93 17.93 22.75 12 22.75ZM12 2.75C6.9 2.75 2.75 6.9 2.75 12C2.75 17.1 6.9 21.25 12 21.25C17.1 21.25 21.25 17.1 21.25 12C21.25 6.9 17.1 2.75 12 2.75Z" fill="black"/>
<path d="M17.48 11.4211C17.33 11.4211 17.18 11.3711 17.04 11.2811C14.06 9.14113 10.24 8.67113 6.84001 10.0311C6.65563 10.1034 6.45016 10.0997 6.26844 10.0211C6.08672 9.94237 5.94349 9.79501 5.87001 9.61113C5.72001 9.23113 5.91001 8.79113 6.29001 8.64113C10.17 7.10113 14.52 7.63113 17.92 10.0711C18.26 10.3111 18.33 10.7811 18.09 11.1211C17.95 11.3111 17.72 11.4211 17.48 11.4211Z" fill="black"/>
<path d="M15.91 14.1101C15.76 14.1101 15.61 14.0601 15.47 13.9701C14.4323 13.2234 13.223 12.7504 11.954 12.5948C10.6851 12.4393 9.39737 12.6062 8.20999 13.0801C8.02555 13.1515 7.82042 13.1475 7.63891 13.0689C7.45741 12.9903 7.31412 12.8434 7.23999 12.6601C7.16777 12.4757 7.17139 12.2702 7.25007 12.0885C7.32875 11.9068 7.47611 11.7636 7.65999 11.6901C9.07989 11.1233 10.6199 10.9241 12.1373 11.1112C13.6547 11.2982 15.1003 11.8654 16.34 12.7601C16.68 13.0001 16.75 13.4701 16.51 13.8101C16.37 14.0001 16.14 14.1101 15.91 14.1101ZM14.81 16.9001C14.66 16.9001 14.51 16.8501 14.37 16.7601C13.6159 16.22 12.7384 15.8775 11.8178 15.7639C10.8972 15.6504 9.96276 15.7694 9.09999 16.1101C8.91555 16.1815 8.71042 16.1775 8.52891 16.0989C8.34741 16.0203 8.20412 15.8734 8.12999 15.6901C8.05777 15.5057 8.06139 15.3002 8.14007 15.1185C8.21875 14.9368 8.36611 14.7936 8.54999 14.7201C10.79 13.8301 13.29 14.1401 15.24 15.5401C15.58 15.7801 15.65 16.2501 15.41 16.5901C15.3436 16.6875 15.254 16.7669 15.1492 16.821C15.0445 16.8751 14.9279 16.9023 14.81 16.9001Z" fill="black"/>
</svg>
