<svg width="24" height="24" viewBox="0 0 24 24" fill="none" xmlns="http://www.w3.org/2000/svg">
<path d="M13.75 10C14.0152 10 14.2696 9.89464 14.4571 9.70711C14.6446 9.51957 14.75 9.26522 14.75 9C14.75 8.73478 14.6446 8.48043 14.4571 8.29289C14.2696 8.10536 14.0152 8 13.75 8C13.4848 8 13.2304 8.10536 13.0429 8.29289C12.8554 8.48043 12.75 8.73478 12.75 9C12.75 9.26522 12.8554 9.51957 13.0429 9.70711C13.2304 9.89464 13.4848 10 13.75 10Z" stroke="black" stroke-miterlimit="10"/>
<path d="M10.25 10C10.8 10 11.25 9.55 11.25 9C11.25 8.45 10.8 8 10.25 8" stroke="black" stroke-miterlimit="10" stroke-linecap="round" stroke-linejoin="round"/>
<path d="M15.5 13C15.7652 13 16.0196 12.8947 16.2071 12.7071C16.3946 12.5196 16.5 12.2652 16.5 12C16.5 11.7348 16.3946 11.4804 16.2071 11.2929C16.0196 11.1054 15.7652 11 15.5 11C15.2348 11 14.9804 11.1054 14.7929 11.2929C14.6054 11.4804 14.5 11.7348 14.5 12C14.5 12.2652 14.6054 12.5196 14.7929 12.7071C14.9804 12.8947 15.2348 13 15.5 13ZM17.15 9.75001C17.3489 9.75001 17.5397 9.67099 17.6803 9.53034C17.821 9.38969 17.9 9.19892 17.9 9.00001C17.9 8.8011 17.821 8.61033 17.6803 8.46968C17.5397 8.32903 17.3489 8.25001 17.15 8.25001C16.9511 8.25001 16.7603 8.32903 16.6197 8.46968C16.479 8.61033 16.4 8.8011 16.4 9.00001C16.4 9.19892 16.479 9.38969 16.6197 9.53034C16.7603 9.67099 16.9511 9.75001 17.15 9.75001ZM17.15 15.75C17.3489 15.75 17.5397 15.671 17.6803 15.5303C17.821 15.3897 17.9 15.1989 17.9 15C17.9 14.8011 17.821 14.6103 17.6803 14.4697C17.5397 14.329 17.3489 14.25 17.15 14.25C16.9511 14.25 16.7603 14.329 16.6197 14.4697C16.479 14.6103 16.4 14.8011 16.4 15C16.4 15.1989 16.479 15.3897 16.6197 15.5303C16.7603 15.671 16.9511 15.75 17.15 15.75ZM19.75 12.75C19.9489 12.75 20.1397 12.671 20.2803 12.5303C20.421 12.3897 20.5 12.1989 20.5 12C20.5 11.8011 20.421 11.6103 20.2803 11.4697C20.1397 11.329 19.9489 11.25 19.75 11.25C19.5511 11.25 19.3603 11.329 19.2197 11.4697C19.079 11.6103 19 11.8011 19 12C19 12.1989 19.079 12.3897 19.2197 12.5303C19.3603 12.671 19.5511 12.75 19.75 12.75ZM6.8 9.75001C6.99891 9.75001 7.18967 9.67099 7.33033 9.53034C7.47098 9.38969 7.55 9.19892 7.55 9.00001C7.55 8.8011 7.47098 8.61033 7.33033 8.46968C7.18967 8.32903 6.99891 8.25001 6.8 8.25001C6.60108 8.25001 6.41032 8.32903 6.26967 8.46968C6.12901 8.61033 6.05 8.8011 6.05 9.00001C6.05 9.19892 6.12901 9.38969 6.26967 9.53034C6.41032 9.67099 6.60108 9.75001 6.8 9.75001ZM6.8 15.75C6.99891 15.75 7.18967 15.671 7.33033 15.5303C7.47098 15.3897 7.55 15.1989 7.55 15C7.55 14.8011 7.47098 14.6103 7.33033 14.4697C7.18967 14.329 6.99891 14.25 6.8 14.25C6.60108 14.25 6.41032 14.329 6.26967 14.4697C6.12901 14.6103 6.05 14.8011 6.05 15C6.05 15.1989 6.12901 15.3897 6.26967 15.5303C6.41032 15.671 6.60108 15.75 6.8 15.75ZM4.2 12.75C4.39891 12.75 4.58967 12.671 4.73033 12.5303C4.87098 12.3897 4.95 12.1989 4.95 12C4.95 11.8011 4.87098 11.6103 4.73033 11.4697C4.58967 11.329 4.39891 11.25 4.2 11.25C4.00108 11.25 3.81032 11.329 3.66967 11.4697C3.52901 11.6103 3.45 11.8011 3.45 12C3.45 12.1989 3.52901 12.3897 3.66967 12.5303C3.81032 12.671 4.00108 12.75 4.2 12.75ZM15.9 5.95001C16.0989 5.95001 16.2897 5.87099 16.4303 5.73034C16.571 5.58969 16.65 5.39892 16.65 5.20001C16.65 5.0011 16.571 4.81033 16.4303 4.66968C16.2897 4.52903 16.0989 4.45001 15.9 4.45001C15.7011 4.45001 15.5103 4.52903 15.3697 4.66968C15.229 4.81033 15.15 5.0011 15.15 5.20001C15.15 5.39892 15.229 5.58969 15.3697 5.73034C15.5103 5.87099 15.7011 5.95001 15.9 5.95001ZM8.1 5.95001C8.29891 5.95001 8.48967 5.87099 8.63033 5.73034C8.77098 5.58969 8.85 5.39892 8.85 5.20001C8.85 5.0011 8.77098 4.81033 8.63033 4.66968C8.48967 4.52903 8.29891 4.45001 8.1 4.45001C7.90109 4.45001 7.71032 4.52903 7.56967 4.66968C7.42901 4.81033 7.35 5.0011 7.35 5.20001C7.35 5.39892 7.42901 5.58969 7.56967 5.73034C7.71032 5.87099 7.90109 5.95001 8.1 5.95001ZM12.05 6.75001C12.2489 6.75001 12.4397 6.67099 12.5803 6.53034C12.721 6.38969 12.8 6.19892 12.8 6.00001C12.8 5.8011 12.721 5.61033 12.5803 5.46968C12.4397 5.32903 12.2489 5.25001 12.05 5.25001C11.8511 5.25001 11.6603 5.32903 11.5197 5.46968C11.379 5.61033 11.3 5.8011 11.3 6.00001C11.3 6.19892 11.379 6.38969 11.5197 6.53034C11.6603 6.67099 11.8511 6.75001 12.05 6.75001ZM15.9 19.75C16.0989 19.75 16.2897 19.671 16.4303 19.5303C16.571 19.3897 16.65 19.1989 16.65 19C16.65 18.8011 16.571 18.6103 16.4303 18.4697C16.2897 18.329 16.0989 18.25 15.9 18.25C15.7011 18.25 15.5103 18.329 15.3697 18.4697C15.229 18.6103 15.15 18.8011 15.15 19C15.15 19.1989 15.229 19.3897 15.3697 19.5303C15.5103 19.671 15.7011 19.75 15.9 19.75Z" stroke="black" stroke-miterlimit="10"/>
<path d="M8.85 19C8.85 19.41 8.51 19.75 8.1 19.75C7.69 19.75 7.35 19.41 7.35 19" stroke="black" stroke-miterlimit="10" stroke-linecap="round" stroke-linejoin="round"/>
<path d="M12.05 18.95C12.2489 18.95 12.4397 18.871 12.5803 18.7303C12.721 18.5897 12.8 18.3989 12.8 18.2C12.8 18.0011 12.721 17.8103 12.5803 17.6697C12.4397 17.529 12.2489 17.45 12.05 17.45C11.8511 17.45 11.6603 17.529 11.5197 17.6697C11.379 17.8103 11.3 18.0011 11.3 18.2C11.3 18.3989 11.379 18.5897 11.5197 18.7303C11.6603 18.871 11.8511 18.95 12.05 18.95ZM8.5 13C8.76522 13 9.01957 12.8946 9.20711 12.7071C9.39464 12.5196 9.5 12.2652 9.5 12C9.5 11.7348 9.39464 11.4804 9.20711 11.2929C9.01957 11.1054 8.76522 11 8.5 11C8.23478 11 7.98043 11.1054 7.79289 11.2929C7.60536 11.4804 7.5 11.7348 7.5 12C7.5 12.2652 7.60536 12.5196 7.79289 12.7071C7.98043 12.8946 8.23478 13 8.5 13ZM10.25 16C10.5152 16 10.7696 15.8946 10.9571 15.7071C11.1446 15.5196 11.25 15.2652 11.25 15C11.25 14.7348 11.1446 14.4804 10.9571 14.2929C10.7696 14.1054 10.5152 14 10.25 14C9.98478 14 9.73043 14.1054 9.54289 14.2929C9.35536 14.4804 9.25 14.7348 9.25 15C9.25 15.2652 9.35536 15.5196 9.54289 15.7071C9.73043 15.8946 9.98478 16 10.25 16Z" stroke="black" stroke-miterlimit="10"/>
<path d="M14.75 15C14.75 14.45 14.3 14 13.75 14C13.2 14 12.75 14.45 12.75 15" stroke="black" stroke-miterlimit="10" stroke-linecap="round" stroke-linejoin="round"/>
</svg>
