<svg width="24" height="24" viewBox="0 0 24 24" fill="none" xmlns="http://www.w3.org/2000/svg">
<g opacity="0.6">
<path opacity="0.6" d="M17.148 10C17.4132 10 17.6676 9.89466 17.8551 9.70712C18.0426 9.51958 18.148 9.26523 18.148 9.00001C18.148 8.7348 18.0426 8.48044 17.8551 8.29291C17.6676 8.10537 17.4132 8.00001 17.148 8.00001C16.8828 8.00001 16.6284 8.10537 16.4409 8.29291C16.2534 8.48044 16.148 8.7348 16.148 9.00001C16.148 9.26523 16.2534 9.51958 16.4409 9.70712C16.6284 9.89466 16.8828 10 17.148 10ZM17.148 16C17.4132 16 17.6676 15.8947 17.8551 15.7071C18.0426 15.5196 18.148 15.2652 18.148 15C18.148 14.7348 18.0426 14.4804 17.8551 14.2929C17.6676 14.1054 17.4132 14 17.148 14C16.8828 14 16.6284 14.1054 16.4409 14.2929C16.2534 14.4804 16.148 14.7348 16.148 15C16.148 15.2652 16.2534 15.5196 16.4409 15.7071C16.6284 15.8947 16.8828 16 17.148 16ZM19.75 13C20.0152 13 20.2696 12.8947 20.4571 12.7071C20.6446 12.5196 20.75 12.2652 20.75 12C20.75 11.7348 20.6446 11.4804 20.4571 11.2929C20.2696 11.1054 20.0152 11 19.75 11C19.4848 11 19.2304 11.1054 19.0429 11.2929C18.8554 11.4804 18.75 11.7348 18.75 12C18.75 12.2652 18.8554 12.5196 19.0429 12.7071C19.2304 12.8947 19.4848 13 19.75 13ZM6.799 10C7.06422 10 7.31857 9.89466 7.50611 9.70712C7.69364 9.51958 7.799 9.26523 7.799 9.00001C7.799 8.7348 7.69364 8.48044 7.50611 8.29291C7.31857 8.10537 7.06422 8.00001 6.799 8.00001C6.53378 8.00001 6.27943 8.10537 6.09189 8.29291C5.90436 8.48044 5.799 8.7348 5.799 9.00001C5.799 9.26523 5.90436 9.51958 6.09189 9.70712C6.27943 9.89466 6.53378 10 6.799 10ZM6.799 16C7.06422 16 7.31857 15.8947 7.50611 15.7071C7.69364 15.5196 7.799 15.2652 7.799 15C7.799 14.7348 7.69364 14.4804 7.50611 14.2929C7.31857 14.1054 7.06422 14 6.799 14C6.53378 14 6.27943 14.1054 6.09189 14.2929C5.90436 14.4804 5.799 14.7348 5.799 15C5.799 15.2652 5.90436 15.5196 6.09189 15.7071C6.27943 15.8947 6.53378 16 6.799 16ZM4.2 13C4.46522 13 4.71957 12.8947 4.90711 12.7071C5.09464 12.5196 5.2 12.2652 5.2 12C5.2 11.7348 5.09464 11.4804 4.90711 11.2929C4.71957 11.1054 4.46522 11 4.2 11C3.93478 11 3.68043 11.1054 3.49289 11.2929C3.30536 11.4804 3.2 11.7348 3.2 12C3.2 12.2652 3.30536 12.5196 3.49289 12.7071C3.68043 12.8947 3.93478 13 4.2 13ZM15.898 6.20001C16.1632 6.20001 16.4176 6.09466 16.6051 5.90712C16.7926 5.71958 16.898 5.46523 16.898 5.20001C16.898 4.9348 16.7926 4.68044 16.6051 4.49291C16.4176 4.30537 16.1632 4.20001 15.898 4.20001C15.6328 4.20001 15.3784 4.30537 15.1909 4.49291C15.0034 4.68044 14.898 4.9348 14.898 5.20001C14.898 5.46523 15.0034 5.71958 15.1909 5.90712C15.3784 6.09466 15.6328 6.20001 15.898 6.20001ZM8.1 6.20001C8.36522 6.20001 8.61957 6.09466 8.80711 5.90712C8.99464 5.71958 9.1 5.46523 9.1 5.20001C9.1 4.9348 8.99464 4.68044 8.80711 4.49291C8.61957 4.30537 8.36522 4.20001 8.1 4.20001C7.83478 4.20001 7.58043 4.30537 7.39289 4.49291C7.20536 4.68044 7.1 4.9348 7.1 5.20001C7.1 5.46523 7.20536 5.71958 7.39289 5.90712C7.58043 6.09466 7.83478 6.20001 8.1 6.20001ZM12.049 7.00001C12.3142 7.00001 12.5686 6.89466 12.7561 6.70712C12.9436 6.51958 13.049 6.26523 13.049 6.00001C13.049 5.7348 12.9436 5.48044 12.7561 5.29291C12.5686 5.10537 12.3142 5.00001 12.049 5.00001C11.7838 5.00001 11.5294 5.10537 11.3419 5.29291C11.1544 5.48044 11.049 5.7348 11.049 6.00001C11.049 6.26523 11.1544 6.51958 11.3419 6.70712C11.5294 6.89466 11.7838 7.00001 12.049 7.00001ZM15.898 20C16.1632 20 16.4176 19.8947 16.6051 19.7071C16.7926 19.5196 16.898 19.2652 16.898 19C16.898 18.7348 16.7926 18.4804 16.6051 18.2929C16.4176 18.1054 16.1632 18 15.898 18C15.6328 18 15.3784 18.1054 15.1909 18.2929C15.0034 18.4804 14.898 18.7348 14.898 19C14.898 19.2652 15.0034 19.5196 15.1909 19.7071C15.3784 19.8947 15.6328 20 15.898 20ZM8.1 20C8.36522 20 8.61957 19.8947 8.80711 19.7071C8.99464 19.5196 9.1 19.2652 9.1 19C9.1 18.7348 8.99464 18.4804 8.80711 18.2929C8.61957 18.1054 8.36522 18 8.1 18C7.83478 18 7.58043 18.1054 7.39289 18.2929C7.20536 18.4804 7.1 18.7348 7.1 19C7.1 19.2652 7.20536 19.5196 7.39289 19.7071C7.58043 19.8947 7.83478 20 8.1 20ZM12.049 19.2C12.3142 19.2 12.5686 19.0947 12.7561 18.9071C12.9436 18.7196 13.049 18.4652 13.049 18.2C13.049 17.9348 12.9436 17.6804 12.7561 17.4929C12.5686 17.3054 12.3142 17.2 12.049 17.2C11.7838 17.2 11.5294 17.3054 11.3419 17.4929C11.1544 17.6804 11.049 17.9348 11.049 18.2C11.049 18.4652 11.1544 18.7196 11.3419 18.9071C11.5294 19.0947 11.7838 19.2 12.049 19.2Z" fill="black"/>
</g>
<path d="M13.75 10.25C14.0815 10.25 14.3995 10.1183 14.6339 9.88388C14.8683 9.64946 15 9.33152 15 9C15 8.66848 14.8683 8.35054 14.6339 8.11612C14.3995 7.8817 14.0815 7.75 13.75 7.75C13.4185 7.75 13.1005 7.8817 12.8661 8.11612C12.6317 8.35054 12.5 8.66848 12.5 9C12.5 9.33152 12.6317 9.64946 12.8661 9.88388C13.1005 10.1183 13.4185 10.25 13.75 10.25ZM10.25 10.25C10.5815 10.25 10.8995 10.1183 11.1339 9.88388C11.3683 9.64946 11.5 9.33152 11.5 9C11.5 8.66848 11.3683 8.35054 11.1339 8.11612C10.8995 7.8817 10.5815 7.75 10.25 7.75C9.91848 7.75 9.60054 7.8817 9.36612 8.11612C9.1317 8.35054 9 8.66848 9 9C9 9.33152 9.1317 9.64946 9.36612 9.88388C9.60054 10.1183 9.91848 10.25 10.25 10.25ZM15.5 13.25C15.8315 13.25 16.1495 13.1183 16.3839 12.8839C16.6183 12.6495 16.75 12.3315 16.75 12C16.75 11.6685 16.6183 11.3505 16.3839 11.1161C16.1495 10.8817 15.8315 10.75 15.5 10.75C15.1685 10.75 14.8505 10.8817 14.6161 11.1161C14.3817 11.3505 14.25 11.6685 14.25 12C14.25 12.3315 14.3817 12.6495 14.6161 12.8839C14.8505 13.1183 15.1685 13.25 15.5 13.25ZM8.5 13.25C8.83152 13.25 9.14946 13.1183 9.38388 12.8839C9.6183 12.6495 9.75 12.3315 9.75 12C9.75 11.6685 9.6183 11.3505 9.38388 11.1161C9.14946 10.8817 8.83152 10.75 8.5 10.75C8.16848 10.75 7.85054 10.8817 7.61612 11.1161C7.3817 11.3505 7.25 11.6685 7.25 12C7.25 12.3315 7.3817 12.6495 7.61612 12.8839C7.85054 13.1183 8.16848 13.25 8.5 13.25ZM10.25 16.25C10.5815 16.25 10.8995 16.1183 11.1339 15.8839C11.3683 15.6495 11.5 15.3315 11.5 15C11.5 14.6685 11.3683 14.3505 11.1339 14.1161C10.8995 13.8817 10.5815 13.75 10.25 13.75C9.91848 13.75 9.60054 13.8817 9.36612 14.1161C9.1317 14.3505 9 14.6685 9 15C9 15.3315 9.1317 15.6495 9.36612 15.8839C9.60054 16.1183 9.91848 16.25 10.25 16.25ZM13.75 16.25C14.0815 16.25 14.3995 16.1183 14.6339 15.8839C14.8683 15.6495 15 15.3315 15 15C15 14.6685 14.8683 14.3505 14.6339 14.1161C14.3995 13.8817 14.0815 13.75 13.75 13.75C13.4185 13.75 13.1005 13.8817 12.8661 14.1161C12.6317 14.3505 12.5 14.6685 12.5 15C12.5 15.3315 12.6317 15.6495 12.8661 15.8839C13.1005 16.1183 13.4185 16.25 13.75 16.25Z" fill="black"/>
<path opacity="0.4" d="M12 3.328C11.51 3.328 11.12 2.938 11.12 2.448C11.12 1.958 11.51 1.578 12 1.578C12.49 1.578 12.88 1.968 12.88 2.458C12.88 2.948 12.49 3.328 12 3.328ZM17.25 3.602C16.83 3.602 16.49 3.262 16.49 2.852C16.49 2.442 16.83 2.102 17.24 2.102C17.65 2.102 18 2.442 18 2.852C18 3.262 17.67 3.602 17.25 3.602ZM6.75 3.602C6.55109 3.602 6.36032 3.52299 6.21967 3.38233C6.07902 3.24168 6 3.05092 6 2.852C6 2.65309 6.07902 2.46233 6.21967 2.32167C6.36032 2.18102 6.55109 2.102 6.75 2.102H6.76C7.17 2.102 7.51 2.442 7.51 2.852C7.51 3.262 7.17 3.602 6.75 3.602ZM12 22.381C11.51 22.381 11.12 21.991 11.12 21.501C11.12 21.011 11.51 20.621 12 20.621C12.49 20.621 12.88 21.011 12.88 21.501C12.88 21.991 12.49 22.381 12 22.381ZM17.25 21.852C16.83 21.852 16.49 21.512 16.49 21.102C16.49 20.692 16.83 20.352 17.24 20.352C17.65 20.352 18 20.692 18 21.102C18 21.512 17.67 21.852 17.25 21.852ZM6.75 21.852C6.55109 21.852 6.36032 21.773 6.21967 21.6323C6.07902 21.4917 6 21.3009 6 21.102C6 20.9031 6.07902 20.7123 6.21967 20.5717C6.36032 20.431 6.55109 20.352 6.75 20.352H6.76C7.17 20.352 7.51 20.692 7.51 21.102C7.51 21.512 7.17 21.852 6.75 21.852ZM1.55 12.881C1.31833 12.881 1.096 12.7897 0.931255 12.6268C0.766508 12.4639 0.672633 12.2427 0.67 12.011V12.001C0.67 11.521 1.06 11.121 1.55 11.121C2.04 11.121 2.42 11.511 2.42 12.001C2.42 12.491 2.03 12.881 1.55 12.881ZM3.75 17.748C3.34 17.748 3 17.408 3 16.998V16.988C3 16.578 3.34 16.238 3.75 16.238C4.16 16.238 4.5 16.578 4.5 16.988C4.5 17.398 4.16 17.748 3.75 17.748ZM3.75 7.762C3.34 7.762 3 7.422 3 7.012C3 6.602 3.34 6.262 3.75 6.262C4.16 6.262 4.5 6.592 4.5 7.002V7.012C4.5 7.422 4.16 7.762 3.75 7.762ZM22.5 12.881C22.2683 12.881 22.046 12.7897 21.8813 12.6268C21.7165 12.4639 21.6226 12.2427 21.62 12.011V12.001C21.62 11.521 22.01 11.121 22.5 11.121C22.99 11.121 23.38 11.511 23.38 12.001C23.38 12.491 22.98 12.881 22.5 12.881ZM20.3 17.748C19.89 17.748 19.55 17.418 19.55 16.998V16.988C19.55 16.578 19.89 16.238 20.3 16.238C20.71 16.238 21.05 16.578 21.05 16.988C21.05 17.398 20.71 17.748 20.3 17.748ZM20.3 7.762C19.89 7.762 19.55 7.422 19.55 7.012C19.55 6.602 19.89 6.262 20.3 6.262C20.71 6.262 21.05 6.592 21.05 7.002V7.012C21.05 7.422 20.71 7.762 20.3 7.762Z" fill="black"/>
</svg>
