<svg width="24" height="24" viewBox="0 0 24 24" fill="none" xmlns="http://www.w3.org/2000/svg">
<path d="M13.75 10.5C12.92 10.5 12.25 9.83001 12.25 9.00001C12.25 8.17001 12.92 7.50001 13.75 7.50001C14.58 7.50001 15.25 8.17001 15.25 9.00001C15.25 9.83001 14.58 10.5 13.75 10.5ZM13.75 8.50001C13.47 8.50001 13.25 8.72001 13.25 9.00001C13.25 9.28001 13.47 9.50001 13.75 9.50001C14.03 9.50001 14.25 9.28001 14.25 9.00001C14.25 8.72001 14.03 8.50001 13.75 8.50001ZM10.25 10.5C9.42 10.5 8.75 9.83001 8.75 9.00001C8.75 8.17001 9.42 7.50001 10.25 7.50001C11.08 7.50001 11.75 8.17001 11.75 9.00001C11.75 9.83001 11.08 10.5 10.25 10.5ZM10.25 8.50001C9.97 8.50001 9.75 8.72001 9.75 9.00001C9.75 9.28001 9.97 9.50001 10.25 9.50001C10.53 9.50001 10.75 9.28001 10.75 9.00001C10.75 8.72001 10.53 8.50001 10.25 8.50001ZM15.5 13.5C14.67 13.5 14 12.83 14 12C14 11.17 14.67 10.5 15.5 10.5C16.33 10.5 17 11.17 17 12C17 12.83 16.33 13.5 15.5 13.5ZM15.5 11.5C15.22 11.5 15 11.72 15 12C15 12.28 15.22 12.5 15.5 12.5C15.78 12.5 16 12.28 16 12C16 11.72 15.78 11.5 15.5 11.5ZM17.15 10.25C16.9859 10.2499 16.8233 10.2175 16.6717 10.1547C16.5201 10.0918 16.3823 9.99966 16.2663 9.88354C16.1502 9.76742 16.0582 9.62959 15.9955 9.4779C15.9327 9.32622 15.9004 9.16367 15.9005 8.99951C15.9006 8.83536 15.933 8.67283 15.9958 8.5212C16.0587 8.36956 16.1509 8.2318 16.267 8.11578C16.3831 7.99975 16.5209 7.90773 16.6726 7.84497C16.8243 7.78221 16.9869 7.74995 17.151 7.75001C17.4825 7.75001 17.8005 7.88171 18.0349 8.11613C18.2693 8.35055 18.401 8.66849 18.401 9.00001C18.401 9.33153 18.2693 9.64948 18.0349 9.8839C17.8005 10.1183 17.4815 10.25 17.15 10.25ZM17.15 8.75001C17.01 8.75001 16.9 8.86001 16.9 9.00001C16.9 9.28001 17.4 9.28001 17.4 9.00001C17.4 8.86001 17.29 8.75001 17.15 8.75001ZM17.15 16.25C16.9859 16.2499 16.8233 16.2175 16.6717 16.1547C16.5201 16.0918 16.3823 15.9997 16.2663 15.8835C16.1502 15.7674 16.0582 15.6296 15.9955 15.4779C15.9327 15.3262 15.9004 15.1637 15.9005 14.9995C15.9006 14.8354 15.933 14.6728 15.9958 14.5212C16.0587 14.3696 16.1509 14.2318 16.267 14.1158C16.3831 13.9997 16.5209 13.9077 16.6726 13.845C16.8243 13.7822 16.9869 13.7499 17.151 13.75C17.4825 13.75 17.8005 13.8817 18.0349 14.1161C18.2693 14.3505 18.401 14.6685 18.401 15C18.401 15.3315 18.2693 15.6495 18.0349 15.8839C17.8005 16.1183 17.4815 16.25 17.15 16.25ZM17.15 14.75C17.01 14.75 16.9 14.86 16.9 15C16.9 15.28 17.4 15.28 17.4 15C17.4 14.86 17.29 14.75 17.15 14.75ZM19.75 13.25C19.4185 13.25 19.1005 13.1183 18.8661 12.8839C18.6317 12.6495 18.5 12.3315 18.5 12C18.5 11.6685 18.6317 11.3505 18.8661 11.1161C19.1005 10.8817 19.4185 10.75 19.75 10.75C20.0815 10.75 20.3995 10.8817 20.6339 11.1161C20.8683 11.3505 21 11.6685 21 12C21 12.3315 20.8683 12.6495 20.6339 12.8839C20.3995 13.1183 20.0815 13.25 19.75 13.25ZM19.75 11.75C19.61 11.75 19.5 11.86 19.5 12C19.5 12.28 20 12.28 20 12C20 11.86 19.89 11.75 19.75 11.75ZM6.8 10.25C6.63585 10.2499 6.47333 10.2174 6.32172 10.1545C6.17012 10.0915 6.03239 9.99936 5.91641 9.88319C5.80043 9.76702 5.70847 9.62915 5.64577 9.47744C5.58307 9.32574 5.55087 9.16316 5.551 8.99901C5.55113 8.83486 5.5836 8.67234 5.64654 8.52073C5.70948 8.36913 5.80166 8.2314 5.91783 8.11542C6.03399 7.99944 6.17187 7.90748 6.32357 7.84478C6.47528 7.78208 6.63785 7.74988 6.802 7.75001C7.13352 7.75015 7.45141 7.88197 7.68574 8.11648C7.92007 8.351 8.05164 8.66899 8.0515 9.00051C8.05137 9.33203 7.91955 9.64992 7.68503 9.88425C7.45052 10.1186 7.13152 10.2501 6.8 10.25ZM6.8 8.75001C6.66 8.75001 6.55 8.86001 6.55 9.00001C6.55 9.28001 7.05 9.28001 7.05 9.00001C7.05 8.86001 6.94 8.75001 6.8 8.75001ZM6.8 16.25C6.46848 16.2497 6.15065 16.1178 5.91641 15.8832C5.68218 15.6486 5.55074 15.3305 5.551 14.999C5.55127 14.6675 5.68322 14.3497 5.91783 14.1154C6.15243 13.8812 6.47048 13.7497 6.802 13.75C7.13352 13.7501 7.45141 13.882 7.68574 14.1165C7.92007 14.351 8.05164 14.669 8.0515 15.0005C8.05137 15.332 7.91955 15.6499 7.68503 15.8842C7.45052 16.1186 7.13152 16.2501 6.8 16.25ZM6.8 14.75C6.66 14.75 6.55 14.86 6.55 15C6.55 15.28 7.05 15.28 7.05 15C7.05 14.86 6.94 14.75 6.8 14.75ZM4.2 13.25C3.86848 13.25 3.55054 13.1183 3.31612 12.8839C3.0817 12.6495 2.95 12.3315 2.95 12C2.95 11.6685 3.0817 11.3505 3.31612 11.1161C3.55054 10.8817 3.86848 10.75 4.2 10.75C4.53152 10.75 4.84947 10.8817 5.08389 11.1161C5.31831 11.3505 5.45 11.6685 5.45 12C5.45 12.3315 5.31831 12.6495 5.08389 12.8839C4.84947 13.1183 4.53152 13.25 4.2 13.25ZM4.2 11.75C4.06 11.75 3.95 11.86 3.95 12C3.95 12.28 4.45 12.28 4.45 12C4.45 11.86 4.34 11.75 4.2 11.75ZM15.9 6.45001C15.5682 6.44988 15.2501 6.31795 15.0156 6.08325C14.781 5.84855 14.6494 5.5303 14.6495 5.19851C14.6496 4.86673 14.7816 4.54858 15.0163 4.31407C15.251 4.07955 15.5692 3.94788 15.901 3.94801C16.2327 3.94801 16.5507 4.07976 16.7852 4.31428C17.0198 4.54879 17.1515 4.86686 17.1515 5.19851C17.1515 5.53017 17.0198 5.84824 16.7852 6.08275C16.5507 6.31726 16.2327 6.44901 15.901 6.44901L15.9 6.45001ZM15.9 4.95001C15.76 4.95001 15.65 5.06001 15.65 5.20001C15.65 5.48001 16.15 5.48001 16.15 5.20001C16.15 5.06001 16.04 4.95001 15.9 4.95001ZM8.1 6.45001C7.76822 6.45001 7.45002 6.31821 7.21541 6.0836C6.9808 5.84899 6.849 5.5308 6.849 5.19901C6.849 4.86723 6.9808 4.54903 7.21541 4.31442C7.45002 4.07981 7.76822 3.94801 8.1 3.94801C8.43166 3.94801 8.74973 4.07976 8.98424 4.31428C9.21875 4.54879 9.3505 4.86686 9.3505 5.19851C9.3505 5.53017 9.21875 5.84824 8.98424 6.08275C8.74973 6.31726 8.43166 6.44901 8.1 6.44901V6.45001ZM8.1 4.95001C7.96 4.95001 7.85 5.06001 7.85 5.20001C7.85 5.48001 8.35 5.48001 8.35 5.20001C8.35 5.06001 8.24 4.95001 8.1 4.95001ZM12.05 7.25001C11.7185 7.24975 11.4006 7.1178 11.1664 6.88319C10.9322 6.64858 10.8007 6.33053 10.801 5.99901C10.8013 5.66749 10.9332 5.34965 11.1678 5.11542C11.4024 4.88119 11.7205 4.74975 12.052 4.75001C12.3835 4.75014 12.7014 4.88197 12.9357 5.11648C13.1701 5.351 13.3016 5.66899 13.3015 6.00051C13.3014 6.33203 13.1695 6.64992 12.935 6.88425C12.7005 7.11858 12.3815 7.25015 12.05 7.25001ZM12.05 5.75001C11.91 5.75001 11.8 5.86001 11.8 6.00001C11.8 6.28001 12.3 6.28001 12.3 6.00001C12.3 5.86001 12.19 5.75001 12.05 5.75001ZM15.9 20.25C15.7359 20.2499 15.5733 20.2175 15.4217 20.1547C15.2701 20.0918 15.1323 19.9997 15.0163 19.8835C14.9002 19.7674 14.8082 19.6296 14.7455 19.4779C14.6827 19.3262 14.6504 19.1637 14.6505 18.9995C14.6506 18.8354 14.683 18.6728 14.7458 18.5212C14.8087 18.3696 14.9009 18.2318 15.017 18.1158C15.1331 17.9997 15.2709 17.9077 15.4226 17.845C15.5743 17.7822 15.7369 17.7499 15.901 17.75C16.2325 17.75 16.5505 17.8817 16.7849 18.1161C17.0193 18.3505 17.151 18.6685 17.151 19C17.151 19.3315 17.0193 19.6495 16.7849 19.8839C16.5505 20.1183 16.2325 20.25 15.901 20.25H15.9ZM15.9 18.75C15.76 18.75 15.65 18.86 15.65 19C15.65 19.28 16.15 19.28 16.15 19C16.15 18.86 16.04 18.75 15.9 18.75ZM8.1 20.25C7.93585 20.25 7.77331 20.2177 7.62165 20.1549C7.46999 20.092 7.33219 20 7.21612 19.8839C7.10005 19.7678 7.00797 19.63 6.94515 19.4784C6.88233 19.3267 6.85 19.1642 6.85 19C6.85 18.8359 6.88233 18.6733 6.94515 18.5217C7.00797 18.37 7.10005 18.2322 7.21612 18.1161C7.33219 18.0001 7.46999 17.908 7.62165 17.8452C7.77331 17.7823 7.93585 17.75 8.1 17.75C8.43152 17.75 8.74947 17.8817 8.98389 18.1161C9.21831 18.3505 9.35 18.6685 9.35 19C9.35 19.3315 9.21831 19.6495 8.98389 19.8839C8.74947 20.1183 8.43152 20.25 8.1 20.25ZM8.1 18.75C7.96 18.75 7.85 18.86 7.85 19C7.85 19.28 8.35 19.28 8.35 19C8.35 18.86 8.24 18.75 8.1 18.75ZM12.05 19.45C11.7182 19.4497 11.4001 19.3177 11.1657 19.0829C10.9313 18.8481 10.7997 18.5298 10.8 18.198C10.8003 17.8662 10.9323 17.5481 11.1671 17.3137C11.4019 17.0793 11.7202 16.9477 12.052 16.948C12.2162 16.9481 12.3788 16.9805 12.5305 17.0434C12.6822 17.1063 12.82 17.1985 12.9361 17.3146C13.0522 17.4308 13.1442 17.5687 13.207 17.7204C13.2698 17.8722 13.3021 18.0348 13.302 18.199C13.3019 18.3632 13.2695 18.5258 13.2066 18.6775C13.1437 18.8292 13.0516 18.967 12.9354 19.0831C12.8192 19.1992 12.6813 19.2912 12.5296 19.354C12.3778 19.4168 12.2152 19.4491 12.051 19.449L12.05 19.45ZM12.05 17.95C11.91 17.95 11.8 18.06 11.8 18.2C11.8 18.48 12.3 18.48 12.3 18.2C12.3 18.06 12.19 17.95 12.05 17.95ZM8.5 13.5C7.67 13.5 7 12.83 7 12C7 11.17 7.67 10.5 8.5 10.5C9.33 10.5 10 11.17 10 12C10 12.83 9.33 13.5 8.5 13.5ZM8.5 11.5C8.22 11.5 8 11.72 8 12C8 12.28 8.22 12.5 8.5 12.5C8.78 12.5 9 12.28 9 12C9 11.72 8.78 11.5 8.5 11.5ZM10.25 16.5C9.42 16.5 8.75 15.83 8.75 15C8.75 14.17 9.42 13.5 10.25 13.5C11.08 13.5 11.75 14.17 11.75 15C11.75 15.83 11.08 16.5 10.25 16.5ZM10.25 14.5C9.97 14.5 9.75 14.72 9.75 15C9.75 15.28 9.97 15.5 10.25 15.5C10.53 15.5 10.75 15.28 10.75 15C10.75 14.72 10.53 14.5 10.25 14.5ZM13.75 16.5C12.92 16.5 12.25 15.83 12.25 15C12.25 14.17 12.92 13.5 13.75 13.5C14.58 13.5 15.25 14.17 15.25 15C15.25 15.83 14.58 16.5 13.75 16.5ZM13.75 14.5C13.47 14.5 13.25 14.72 13.25 15C13.25 15.28 13.47 15.5 13.75 15.5C14.03 15.5 14.25 15.28 14.25 15C14.25 14.72 14.03 14.5 13.75 14.5ZM12 3.45001C11.44 3.45001 10.99 3.00001 10.99 2.45001C10.99 1.90001 11.44 1.45001 11.99 1.45001C12.54 1.45001 12.99 1.90001 12.99 2.45001C12.99 3.00001 12.56 3.45001 12 3.45001ZM17.25 3.60201C16.83 3.60201 16.49 3.26201 16.49 2.85201C16.49 2.44201 16.83 2.10201 17.24 2.10201C17.65 2.10201 18 2.44201 18 2.85201C18 3.26201 17.67 3.60201 17.25 3.60201ZM6.75 3.60201C6.55109 3.60201 6.36032 3.52299 6.21967 3.38234C6.07902 3.24169 6 3.05092 6 2.85201C6 2.6531 6.07902 2.46233 6.21967 2.32168C6.36032 2.18103 6.55109 2.10201 6.75 2.10201H6.76C7.17 2.10201 7.51 2.44201 7.51 2.85201C7.51 3.26201 7.17 3.60201 6.75 3.60201ZM12 22.5C11.44 22.5 10.99 22.05 10.99 21.5C10.99 20.95 11.44 20.5 11.99 20.5C12.54 20.5 12.99 20.95 12.99 21.5C12.99 22.05 12.56 22.5 12 22.5ZM17.25 21.852C16.83 21.852 16.49 21.512 16.49 21.102C16.49 20.692 16.83 20.352 17.24 20.352C17.65 20.352 18 20.692 18 21.102C18 21.512 17.67 21.852 17.25 21.852ZM6.75 21.852C6.55109 21.852 6.36032 21.773 6.21967 21.6323C6.07902 21.4917 6 21.3009 6 21.102C6 20.9031 6.07902 20.7123 6.21967 20.5717C6.36032 20.431 6.55109 20.352 6.75 20.352H6.76C7.17 20.352 7.51 20.692 7.51 21.102C7.51 21.512 7.17 21.852 6.75 21.852ZM1.55 13C1 13 0.550003 12.56 0.550003 12C0.550003 11.45 1 11 1.55 11C2.1 11 2.55 11.45 2.55 12C2.55 12.55 2.1 13 1.55 13ZM3.75 17.748C3.34 17.748 3 17.418 3 16.998V16.988C3 16.578 3.34 16.238 3.75 16.238C4.16 16.238 4.5 16.578 4.5 16.988C4.5 17.398 4.16 17.748 3.75 17.748ZM3.75 7.76201C3.34 7.76201 3 7.42201 3 7.01201C3 6.60201 3.34 6.26201 3.75 6.26201C4.16 6.26201 4.5 6.59201 4.5 7.00201V7.01201C4.5 7.42201 4.16 7.76201 3.75 7.76201ZM22.5 13C21.95 13 21.5 12.56 21.5 12C21.5 11.45 21.95 11 22.5 11C23.05 11 23.5 11.45 23.5 12C23.5 12.55 23.05 13 22.5 13ZM20.3 17.748C19.89 17.748 19.55 17.418 19.55 16.998V16.988C19.55 16.578 19.89 16.238 20.3 16.238C20.71 16.238 21.05 16.578 21.05 16.988C21.05 17.398 20.71 17.748 20.3 17.748ZM20.3 7.76201C19.89 7.76201 19.55 7.42201 19.55 7.01201C19.55 6.60201 19.89 6.26201 20.3 6.26201C20.71 6.26201 21.05 6.59201 21.05 7.01201V7.02201C21.05 7.42201 20.71 7.76201 20.3 7.76201Z" fill="black"/>
</svg>
