<svg width="24" height="24" viewBox="0 0 24 24" fill="none" xmlns="http://www.w3.org/2000/svg">
<path d="M21.5 15.5C21.78 15.5 22 15.72 22 16V17C22 18.66 20.66 20 19 20C19 18.35 17.65 17 16 17C14.35 17 13 18.35 13 20H11C11 18.35 9.65 17 8 17C6.35 17 5 18.35 5 20C3.34 20 2 18.66 2 17V15C2 14.45 2.45 14 3 14H12.5C13.163 14 13.7989 13.7366 14.2678 13.2678C14.7366 12.7989 15 12.163 15 11.5V6C15 5.45 15.45 5 16 5H16.84C17.56 5 18.22 5.39 18.58 6.01L19.22 7.13C19.31 7.29 19.19 7.5 19 7.5C18.337 7.5 17.7011 7.76339 17.2322 8.23223C16.7634 8.70107 16.5 9.33696 16.5 10V13C16.5 13.663 16.7634 14.2989 17.2322 14.7678C17.7011 15.2366 18.337 15.5 19 15.5H21.5Z" fill="black"/>
<path d="M8 22C8.53043 22 9.03914 21.7893 9.41421 21.4142C9.78929 21.0391 10 20.5304 10 20C10 19.4696 9.78929 18.9609 9.41421 18.5858C9.03914 18.2107 8.53043 18 8 18C7.46957 18 6.96086 18.2107 6.58579 18.5858C6.21071 18.9609 6 19.4696 6 20C6 20.5304 6.21071 21.0391 6.58579 21.4142C6.96086 21.7893 7.46957 22 8 22ZM16 22C16.5304 22 17.0391 21.7893 17.4142 21.4142C17.7893 21.0391 18 20.5304 18 20C18 19.4696 17.7893 18.9609 17.4142 18.5858C17.0391 18.2107 16.5304 18 16 18C15.4696 18 14.9609 18.2107 14.5858 18.5858C14.2107 18.9609 14 19.4696 14 20C14 20.5304 14.2107 21.0391 14.5858 21.4142C14.9609 21.7893 15.4696 22 16 22ZM22 12.53V14H19C18.45 14 18 13.55 18 13V10C18 9.45 18.45 9 19 9H20.29L21.74 11.54C21.91 11.84 22 12.18 22 12.53ZM13.08 2H5.69C4.83475 2.00024 4.00614 2.29756 3.34584 2.84112C2.68554 3.38468 2.23456 4.14073 2.07 4.98H6.44C6.82 4.98 7.12 5.29 7.12 5.67C7.12 6.05 6.82 6.35 6.44 6.35H2V7.73H4.6C4.98 7.73 5.29 8.04 5.29 8.42C5.29 8.8 4.98 9.1 4.6 9.1H2V10.48H2.77C3.15 10.48 3.46 10.79 3.46 11.17C3.46 11.55 3.15 11.85 2.77 11.85H2V12.08C2 12.63 2.45 13.08 3 13.08H12.15C13.17 13.08 14 12.25 14 11.23V2.92C14 2.41 13.59 2 13.08 2ZM2.07 4.98H0.94C0.56 4.98 0.25 5.29 0.25 5.67C0.25 6.05 0.56 6.35 0.94 6.35H2V5.69C2 5.45 2.03 5.21 2.07 4.98ZM1.85 7.73H0.94C0.56 7.73 0.25 8.04 0.25 8.42C0.25 8.8 0.56 9.1 0.94 9.1H2V7.73H1.85ZM1.85 10.48H0.94C0.56 10.48 0.25 10.79 0.25 11.17C0.25 11.55 0.56 11.85 0.94 11.85H2V10.48H1.85Z" fill="black"/>
</svg>
