<svg width="24" height="24" viewBox="0 0 24 24" fill="none" xmlns="http://www.w3.org/2000/svg">
<path d="M5.65 7.65L2.85 4.85C2.78148 4.78011 2.73498 4.69166 2.71626 4.59559C2.69754 4.49952 2.70742 4.40008 2.74469 4.30958C2.78195 4.21907 2.84496 4.1415 2.92589 4.08647C3.00683 4.03144 3.10214 4.00137 3.2 4H6.79C6.92 4 7.05 4.05 7.14 4.15L12.14 9.15C12.2085 9.21989 12.255 9.30834 12.2737 9.40441C12.2925 9.50048 12.2826 9.59992 12.2453 9.69042C12.2081 9.78092 12.145 9.8585 12.0641 9.91353C11.9832 9.96856 11.8879 9.99863 11.79 10H8.5C6.57 10 5 11.57 5 13.5C5 15.43 6.57 17 8.5 17H10L12.15 19.15C12.2185 19.2199 12.265 19.3083 12.2837 19.4044C12.3025 19.5005 12.2926 19.5999 12.2553 19.6904C12.2181 19.7809 12.155 19.8585 12.0741 19.9135C11.9932 19.9686 11.8979 19.9986 11.8 20H8.51C7.05781 19.9998 5.64752 19.5132 4.50408 18.618C3.36065 17.7228 2.54993 16.4704 2.20124 15.0607C1.85256 13.651 1.98598 12.1651 2.58024 10.8401C3.17451 9.51506 4.19537 8.42719 5.48 7.75L5.65 7.65Z" fill="black"/>
<path d="M18.35 16.35L21.15 19.15C21.2185 19.2199 21.265 19.3083 21.2837 19.4044C21.3025 19.5005 21.2926 19.5999 21.2553 19.6904C21.2181 19.7809 21.155 19.8585 21.0741 19.9135C20.9932 19.9686 20.8979 19.9986 20.8 20H17.21C17.1444 20.0008 17.0794 19.9879 17.0191 19.962C16.9589 19.9362 16.9046 19.898 16.86 19.85L11.86 14.85C11.7915 14.7801 11.745 14.6917 11.7263 14.5956C11.7075 14.4995 11.7174 14.4001 11.7547 14.3096C11.792 14.2191 11.855 14.1415 11.9359 14.0865C12.0168 14.0314 12.1121 14.0014 12.21 14H15.5C17.43 14 19 12.43 19 10.5C19 8.57 17.43 7 15.5 7H14L11.85 4.85C11.7815 4.78011 11.735 4.69166 11.7163 4.59559C11.6975 4.49952 11.7074 4.40008 11.7447 4.30958C11.7819 4.21907 11.845 4.1415 11.9259 4.08647C12.0068 4.03144 12.1021 4.00137 12.2 4H15.49C16.9422 4.00024 18.3525 4.48678 19.4959 5.382C20.6394 6.27722 21.4501 7.52957 21.7988 8.93928C22.1474 10.349 22.014 11.8349 21.4198 13.1599C20.8255 14.4849 19.8046 15.5728 18.52 16.25L18.35 16.35Z" fill="black"/>
</svg>
