<svg width="24" height="24" viewBox="0 0 24 24" fill="none" xmlns="http://www.w3.org/2000/svg">
<path d="M3.82 8.99C4.3 8.49 4.85 8.07 5.47 7.75L5.66 7.65L2 4H7L13 10H8.5C6.57 10 5 11.57 5 13.5C5 15.43 6.57 17 8.5 17H10L13 20H8.5C6.77609 20 5.12279 19.3152 3.90381 18.0962C2.68482 16.8772 2 15.2239 2 13.5C2 13.17 2.02 12.85 2.07 12.54" stroke="black" stroke-width="1.5" stroke-miterlimit="10" stroke-linecap="round" stroke-linejoin="round"/>
<path d="M18.35 16.35L22 20H17L11 14H15.5C17.43 14 19 12.43 19 10.5C19 8.57 17.43 7 15.5 7H14L11 4H15.5C16.9522 4.00024 18.3625 4.48678 19.5059 5.382C20.6494 6.27722 21.4601 7.52957 21.8088 8.93928C22.1574 10.349 22.024 11.8349 21.4298 13.1599C20.8355 14.4849 19.8146 15.5728 18.53 16.25L18.35 16.35Z" stroke="black" stroke-width="1.5" stroke-miterlimit="10" stroke-linecap="round" stroke-linejoin="round"/>
</svg>
