<svg width="24" height="24" viewBox="0 0 24 24" fill="none" xmlns="http://www.w3.org/2000/svg">
<path d="M5.65 7.65001L2.85 4.85001C2.7809 4.77951 2.73421 4.69014 2.71582 4.59315C2.69743 4.49616 2.70815 4.3959 2.74665 4.305C2.78515 4.2141 2.8497 4.13663 2.93215 4.08236C3.01461 4.02808 3.11129 3.99943 3.21 4.00001H6.8C6.93 4.00001 7.06 4.05001 7.15 4.15001L12.15 9.15001C12.2185 9.21989 12.265 9.30835 12.2837 9.40442C12.3025 9.50048 12.2926 9.59993 12.2553 9.69043C12.218 9.78093 12.155 9.85851 12.0741 9.91354C11.9932 9.96857 11.8979 9.99863 11.8 10H8.51C6.58 10 5.01 11.57 5.01 13.5C5.01 15.43 6.58 17 8.51 17H10.01L12.16 19.15C12.2285 19.2199 12.275 19.3084 12.2937 19.4044C12.3125 19.5005 12.3026 19.5999 12.2653 19.6904C12.2281 19.7809 12.165 19.8585 12.0841 19.9135C12.0032 19.9686 11.9079 19.9986 11.81 20H8.52C7.06781 19.9998 5.65752 19.5132 4.51408 18.618C3.37065 17.7228 2.55993 16.4704 2.21124 15.0607C1.86255 13.651 1.99598 12.1651 2.59024 10.8401C3.1845 9.51507 4.20537 8.4272 5.49 7.75001L5.65 7.65001Z" fill="black"/>
<path opacity="0.4" d="M18.35 16.35L21.15 19.15C21.2185 19.2199 21.265 19.3084 21.2837 19.4044C21.3025 19.5005 21.2926 19.5999 21.2553 19.6904C21.2181 19.7809 21.155 19.8585 21.0741 19.9135C20.9932 19.9686 20.8979 19.9986 20.8 20H17.21C17.1444 20.0008 17.0794 19.9879 17.0191 19.962C16.9589 19.9362 16.9046 19.898 16.86 19.85L11.86 14.85C11.7915 14.7801 11.745 14.6917 11.7263 14.5956C11.7075 14.4995 11.7174 14.4001 11.7547 14.3096C11.7919 14.2191 11.855 14.1415 11.9359 14.0865C12.0168 14.0314 12.1121 14.0014 12.21 14H15.5C17.43 14 19 12.43 19 10.5C19 8.57001 17.43 7.00001 15.5 7.00001H14L11.85 4.85001C11.7809 4.77951 11.7342 4.69014 11.7158 4.59315C11.6974 4.49616 11.7082 4.3959 11.7467 4.305C11.7852 4.2141 11.8497 4.13663 11.9322 4.08236C12.0146 4.02808 12.1113 3.99943 12.21 4.00001H15.5C16.9522 4.00025 18.3625 4.48679 19.5059 5.38201C20.6494 6.27723 21.4601 7.52958 21.8088 8.93929C22.1574 10.349 22.024 11.8349 21.4298 13.1599C20.8355 14.4849 19.8146 15.5728 18.53 16.25L18.35 16.35Z" fill="black"/>
</svg>
