<svg width="24" height="24" viewBox="0 0 24 24" fill="none" xmlns="http://www.w3.org/2000/svg">
<path d="M13 20.75H8.5C4.5 20.75 1.25 17.5 1.25 13.5C1.25 11.07 2.45 8.84 4.44 7.5L1.47 4.53C1.36573 4.42493 1.29483 4.29139 1.26622 4.14615C1.23761 4.00091 1.25256 3.85046 1.30919 3.71369C1.36582 3.57692 1.46161 3.45994 1.58452 3.37744C1.70742 3.29494 1.85197 3.2506 2 3.25H7C7.2 3.25 7.39 3.33 7.53 3.47L13.53 9.47C13.6343 9.57507 13.7052 9.70861 13.7338 9.85385C13.7624 9.99909 13.7474 10.1495 13.6908 10.2863C13.6342 10.4231 13.5384 10.5401 13.4155 10.6226C13.2926 10.7051 13.148 10.7494 13 10.75H8.5C6.98 10.75 5.75 11.98 5.75 13.5C5.75 15.02 6.98 16.25 8.5 16.25H10C10.2 16.25 10.39 16.33 10.53 16.47L13.53 19.47C13.6343 19.5751 13.7052 19.7086 13.7338 19.8539C13.7624 19.9991 13.7474 20.1495 13.6908 20.2863C13.6342 20.4231 13.5384 20.5401 13.4155 20.6226C13.2926 20.7051 13.148 20.7494 13 20.75ZM3.81 4.75L6.18 7.12C6.35 7.29 6.43 7.53 6.39 7.77C6.37062 7.88644 6.32438 7.99677 6.25495 8.09224C6.18552 8.1877 6.09481 8.26569 5.99 8.32L5.8 8.42C4.87531 8.90735 4.10145 9.63823 3.56211 10.5336C3.02278 11.429 2.73849 12.4547 2.74 13.5C2.74 16.67 5.32 19.25 8.49 19.25H11.18L9.68 17.75H8.49C7.36364 17.7474 6.28417 17.2987 5.48771 16.5023C4.69126 15.7058 4.24264 14.6264 4.24 13.5C4.24264 12.3736 4.69126 11.2942 5.48771 10.4977C6.28417 9.70126 7.36364 9.25264 8.49 9.25H11.18L6.68 4.75H3.81Z" fill="black"/>
<path d="M22 20.75H17C16.8012 20.7498 16.6105 20.6707 16.47 20.53L10.47 14.53C10.3657 14.4249 10.2948 14.2914 10.2662 14.1461C10.2376 14.0009 10.2526 13.8505 10.3092 13.7137C10.3658 13.5769 10.4616 13.4599 10.5845 13.3774C10.7074 13.2949 10.852 13.2506 11 13.25H15.5C17.02 13.25 18.25 12.02 18.25 10.5C18.25 8.98 17.02 7.75 15.5 7.75H14C13.8012 7.74982 13.6105 7.67069 13.47 7.53L10.47 4.53C10.3657 4.42493 10.2948 4.29139 10.2662 4.14615C10.2376 4.00091 10.2526 3.85046 10.3092 3.71369C10.3658 3.57692 10.4616 3.45994 10.5845 3.37744C10.7074 3.29494 10.852 3.2506 11 3.25H15.5C19.5 3.25 22.75 6.5 22.75 10.5C22.75 12.93 21.55 15.16 19.56 16.5L22.53 19.47C22.6343 19.5751 22.7052 19.7086 22.7338 19.8539C22.7624 19.9991 22.7474 20.1495 22.6908 20.2863C22.6342 20.4231 22.5384 20.5401 22.4155 20.6226C22.2926 20.7051 22.148 20.7494 22 20.75ZM17.31 19.25H20.19L17.82 16.88C17.7356 16.7963 17.6725 16.6936 17.636 16.5805C17.5995 16.4674 17.5905 16.3472 17.61 16.23C17.6294 16.1136 17.6756 16.0032 17.745 15.9078C17.8145 15.8123 17.9052 15.7343 18.01 15.68L18.2 15.58C19.1247 15.0927 19.8986 14.3618 20.4379 13.4664C20.9772 12.571 21.2615 11.5453 21.26 10.5C21.26 7.33 18.68 4.75 15.51 4.75H12.82L14.32 6.25H15.51C16.6364 6.25264 17.7158 6.70126 18.5123 7.49771C19.3087 8.29417 19.7574 9.37364 19.76 10.5C19.7574 11.6264 19.3087 12.7058 18.5123 13.5023C17.7158 14.2987 16.6364 14.7474 15.51 14.75H12.82L17.31 19.25Z" fill="black"/>
</svg>
