<svg width="24" height="24" viewBox="0 0 24 24" fill="none" xmlns="http://www.w3.org/2000/svg">
<path d="M14.76 22.721C14.59 22.721 14.43 22.681 14.3 22.601C13.85 22.311 11.61 20.761 11.2 18.401C10.98 17.091 11.35 15.791 12.31 14.551C15.1 10.941 15.41 9.89103 15.42 9.85103C15.46 9.57103 15.65 9.37103 15.92 9.28103C16.19 9.19103 16.47 9.28103 16.68 9.48103C18.96 11.691 20 13.971 19.76 16.261C19.38 19.851 15.9 22.201 15.21 22.631C15.09 22.681 14.92 22.721 14.76 22.721ZM16.38 11.311C15.92 12.121 15.08 13.421 13.5 15.451C12.79 16.361 12.53 17.241 12.68 18.131C12.92 19.521 14.14 20.611 14.77 21.081C15.76 20.391 18 18.571 18.26 16.061C18.43 14.521 17.8 12.931 16.38 11.311Z" fill="black"/>
<path d="M10.28 22.7299C10.02 22.7299 9.76 22.6599 9.57 22.6099C7.36 21.9799 5.36 19.9599 4.58 17.5899C3.78 15.1599 4.27 12.6199 5.97 10.4299C9.07 6.36988 10.1 3.09988 10.34 2.19988C10.45 1.76988 10.77 1.43988 11.21 1.30988C11.66 1.18988 12.15 1.31988 12.49 1.65988C12.52 1.67988 12.54 1.70988 12.56 1.73988C13.5 2.99988 14.51 5.24988 14.51 7.78988C14.51 9.52988 13.29 11.1099 12.11 12.6299C10.86 14.2499 9.57 15.9199 9.71 17.7299C9.84 19.0699 10.42 20.0899 10.81 20.7699C11.14 21.3399 11.45 21.8799 11.06 22.3899C10.85 22.6499 10.57 22.7299 10.28 22.7299ZM11.65 3.05988C11.19 4.56988 9.99 7.62988 7.16 11.3499C5.39 13.6399 5.56 15.7599 6.01 17.1299C6.54 18.7399 7.74 20.1399 9.14 20.8399C8.76 20.0999 8.34 19.0999 8.22 17.8599C8.04 15.4599 9.57 13.4699 10.93 11.7099C12 10.3199 13.01 9.00988 13.01 7.77988C13.01 5.87988 12.33 4.13988 11.65 3.05988Z" fill="black"/>
</svg>
