<svg width="24" height="24" viewBox="0 0 24 24" fill="none" xmlns="http://www.w3.org/2000/svg">
<path opacity="0.4" d="M16.16 10C16.16 10 16.01 11 12.91 15C10 18.77 14.21 21.64 14.71 21.97C14.74 21.99 14.77 21.99 14.81 21.97C15.49 21.55 23.06 16.68 16.16 10Z" stroke="black" stroke-width="1.5" stroke-miterlimit="10" stroke-linecap="round" stroke-linejoin="round"/>
<path d="M13.76 7.79006C13.76 5.49006 12.86 3.39006 11.96 2.19006C11.66 1.89006 11.16 1.99006 11.06 2.39006C10.66 3.89006 9.46 7.09006 6.56 10.8901C2.86 15.6901 6.26 20.8901 9.76 21.8901C11.66 22.3901 9.26 20.8901 8.96 17.7901C8.66 13.8901 13.76 10.9901 13.76 7.79006Z" stroke="black" stroke-width="1.5" stroke-miterlimit="10" stroke-linecap="round" stroke-linejoin="round"/>
</svg>
