<svg width="24" height="24" viewBox="0 0 24 24" fill="none" xmlns="http://www.w3.org/2000/svg">
<path opacity="0.4" d="M14.9 2H9.1C8.42 2 7.46 2.4 6.98 2.88L2.88 6.98C2.4 7.46 2 8.42 2 9.1V14.9C2 15.58 2.4 16.54 2.88 17.02L6.98 21.12C7.46 21.6 8.42 22 9.1 22H14.9C15.58 22 16.54 21.6 17.02 21.12L21.12 17.02C21.6 16.54 22 15.58 22 14.9V9.1C22 8.42 21.6 7.46 21.12 6.98L17.02 2.88C16.54 2.4 15.58 2 14.9 2Z" fill="black"/>
<path d="M13.06 12.001L16.03 9.031C16.32 8.741 16.32 8.261 16.03 7.971C15.8889 7.83152 15.6984 7.7533 15.5 7.7533C15.3016 7.7533 15.1111 7.83152 14.97 7.971L12 10.941L9.03 7.971C8.88886 7.83152 8.69843 7.7533 8.5 7.7533C8.30157 7.7533 8.11114 7.83152 7.97 7.971C7.68 8.261 7.68 8.741 7.97 9.031L10.94 12.001L7.97 14.971C7.68 15.261 7.68 15.741 7.97 16.031C8.12 16.181 8.31 16.251 8.5 16.251C8.69 16.251 8.88 16.181 9.03 16.031L12 13.061L14.97 16.031C15.12 16.181 15.31 16.251 15.5 16.251C15.69 16.251 15.88 16.181 16.03 16.031C16.32 15.741 16.32 15.261 16.03 14.971L13.06 12.001Z" fill="black"/>
</svg>
