<svg width="24" height="24" viewBox="0 0 24 24" fill="none" xmlns="http://www.w3.org/2000/svg">
<path opacity="0.4" d="M16.192 2H7.822C4.182 2 2.012 4.17 2.012 7.81V16.18C2.012 19.82 4.182 21.99 7.822 21.99H16.192C19.832 21.99 22.002 19.82 22.002 16.18V7.81C22.002 4.17 19.832 2 16.192 2Z" fill="black"/>
<path d="M13.581 14.6919L11.261 17.0119C10.621 17.6619 9.571 17.6619 8.921 17.0119L6.991 15.0819C6.341 14.4319 6.341 13.3819 6.991 12.7419L9.311 10.4219L13.581 14.6919Z" fill="black"/>
<path opacity="0.6" d="M17.009 11.2614L13.579 14.6914L9.309 10.4214L12.739 6.99141C13.379 6.34141 14.429 6.34141 15.079 6.99141L17.009 8.92141C17.659 9.57141 17.659 10.6214 17.009 11.2614Z" fill="black"/>
</svg>
