<svg width="24" height="24" viewBox="0 0 24 24" fill="none" xmlns="http://www.w3.org/2000/svg">
<path d="M9 22H15C20 22 22 20 22 15V9C22 4 20 2 15 2H9C4 2 2 4 2 9V15C2 20 4 22 9 22Z" stroke="black" stroke-width="1.5" stroke-linecap="round" stroke-linejoin="round"/>
<path d="M9.31 10.4198L13.58 14.6898M6.99 15.0798L8.93 17.0198C9.57 17.6598 10.63 17.6598 11.27 17.0198L17.02 11.2698C17.66 10.6298 17.66 9.56977 17.02 8.92977L15.08 6.98977C14.44 6.34977 13.38 6.34977 12.74 6.98977L6.99 12.7398C6.34 13.3798 6.34 14.4298 6.99 15.0798Z" stroke="black" stroke-width="1.5" stroke-linecap="round" stroke-linejoin="round"/>
</svg>
