<svg width="24" height="24" viewBox="0 0 24 24" fill="none" xmlns="http://www.w3.org/2000/svg">
<path d="M15 22.75H9C3.57 22.75 1.25 20.43 1.25 15V9C1.25 3.57 3.57 1.25 9 1.25H15C20.43 1.25 22.75 3.57 22.75 9V15C22.75 20.43 20.43 22.75 15 22.75ZM9 2.75C4.39 2.75 2.75 4.39 2.75 9V15C2.75 19.61 4.39 21.25 9 21.25H15C19.61 21.25 21.25 19.61 21.25 15V9C21.25 4.39 19.61 2.75 15 2.75H9Z" fill="black"/>
<path d="M10.091 18.2489C9.471 18.2489 8.861 18.0189 8.391 17.5489L6.451 15.6089C5.511 14.6689 5.511 13.1489 6.451 12.2089L12.201 6.45891C13.141 5.51891 14.661 5.51891 15.601 6.45891L17.541 8.39891C18.481 9.33891 18.481 10.8589 17.541 11.7989L11.791 17.5489C11.321 18.0089 10.711 18.2489 10.091 18.2489ZM7.521 14.5489L9.461 16.4889C9.811 16.8389 10.391 16.8389 10.741 16.4889L16.491 10.7389C16.841 10.3889 16.841 9.80891 16.491 9.45891L14.551 7.51891C14.3805 7.3506 14.1506 7.25623 13.911 7.25623C13.6714 7.25623 13.4415 7.3506 13.271 7.51891L7.521 13.2689C7.171 13.6189 7.171 14.1889 7.521 14.5489Z" fill="black"/>
<path d="M13.582 15.4416C13.392 15.4416 13.202 15.3716 13.052 15.2216L8.772 10.9416C8.63276 10.8003 8.5547 10.6099 8.5547 10.4116C8.5547 10.2132 8.63276 10.0228 8.772 9.88156C9.062 9.59156 9.542 9.59156 9.832 9.88156L14.112 14.1616C14.402 14.4516 14.402 14.9316 14.112 15.2216C13.972 15.3716 13.772 15.4416 13.582 15.4416Z" fill="black"/>
</svg>
