<svg width="24" height="24" viewBox="0 0 24 24" fill="none" xmlns="http://www.w3.org/2000/svg">
<path d="M9 22H15C20 22 22 20 22 15V9C22 4 20 2 15 2H9C4 2 2 4 2 9V15C2 20 4 22 9 22Z" stroke="black" stroke-width="1.5" stroke-linecap="round" stroke-linejoin="round"/>
<g opacity="0.4">
<path d="M9.313 10.4217L13.583 14.6917M6.991 15.0817L8.931 17.0217C9.571 17.6617 10.631 17.6617 11.271 17.0217L17.021 11.2717C17.661 10.6317 17.661 9.57172 17.021 8.93172L15.081 6.99172C14.441 6.35172 13.381 6.35172 12.741 6.99172L6.991 12.7417C6.341 13.3817 6.341 14.4317 6.991 15.0817Z" stroke="black" stroke-width="1.5" stroke-linecap="round" stroke-linejoin="round"/>
</g>
</svg>
