<svg width="24" height="24" viewBox="0 0 24 24" fill="none" xmlns="http://www.w3.org/2000/svg">
<path d="M17 17C18.3261 17 19.5979 16.4732 20.5355 15.5355C21.4732 14.5979 22 13.3261 22 12C22 10.6739 21.4732 9.40215 20.5355 8.46447C19.5979 7.52678 18.3261 7 17 7C15.6739 7 14.4021 7.52678 13.4645 8.46447C12.5268 9.40215 12 10.6739 12 12C12 13.3261 12.5268 14.5979 13.4645 15.5355C14.4021 16.4732 15.6739 17 17 17Z" stroke="black" stroke-width="1.5" stroke-miterlimit="10" stroke-linecap="round" stroke-linejoin="round"/>
<path d="M12 12C13.3261 12 14.5979 12.5268 15.5355 13.4645C16.4732 14.4021 17 15.6739 17 17C17 18.3261 16.4732 19.5979 15.5355 20.5355C14.5979 21.4732 13.3261 22 12 22C10.6739 22 9.40215 21.4732 8.46447 20.5355C7.52678 19.5979 7 18.3261 7 17C7 15.6739 7.52678 14.4021 8.46447 13.4645C9.40215 12.5268 10.6739 12 12 12ZM12 12C13.3261 12 14.5979 11.4732 15.5355 10.5355C16.4732 9.59785 17 8.32608 17 7C17 5.67392 16.4732 4.40215 15.5355 3.46447C14.5979 2.52678 13.3261 2 12 2C10.6739 2 9.40215 2.52678 8.46447 3.46447C7.52678 4.40215 7 5.67392 7 7C7 8.32608 7.52678 9.59785 8.46447 10.5355C9.40215 11.4732 10.6739 12 12 12Z" stroke="black" stroke-width="1.5" stroke-miterlimit="10" stroke-linecap="round" stroke-linejoin="round"/>
<path d="M2.80999 9.27C2.31928 10.0248 2.04132 10.898 2.00543 11.7975C1.96953 12.6971 2.17703 13.5897 2.60605 14.3811C3.03506 15.1726 3.66969 15.8337 4.44302 16.2946C5.21635 16.7555 6.09972 16.9992 6.99999 17C9.75999 17 12 14.76 12 12C12 9.24 9.75999 7 6.99999 7C6.64999 7 6.31999 7.03 5.98999 7.1" stroke="black" stroke-width="1.5" stroke-miterlimit="10" stroke-linecap="round" stroke-linejoin="round"/>
</svg>
