<svg width="24" height="24" viewBox="0 0 24 24" fill="none" xmlns="http://www.w3.org/2000/svg">
<path d="M17 17.75C13.83 17.75 11.25 15.17 11.25 12C11.25 8.83 13.83 6.25 17 6.25C20.17 6.25 22.75 8.83 22.75 12C22.75 15.17 20.17 17.75 17 17.75ZM17 7.75C15.8736 7.75264 14.7942 8.20126 13.9977 8.99771C13.2013 9.79417 12.7526 10.8736 12.75 12C12.7526 13.1264 13.2013 14.2058 13.9977 15.0023C14.7942 15.7987 15.8736 16.2474 17 16.25C18.1264 16.2474 19.2058 15.7987 20.0023 15.0023C20.7987 14.2058 21.2474 13.1264 21.25 12C21.2474 10.8736 20.7987 9.79417 20.0023 8.99771C19.2058 8.20126 18.1264 7.75264 17 7.75Z" fill="black"/>
<path d="M12 22.75C8.83 22.75 6.25 20.17 6.25 17C6.25 13.83 8.83 11.25 12 11.25C15.17 11.25 17.75 13.83 17.75 17C17.75 20.17 15.17 22.75 12 22.75ZM12 12.75C10.8736 12.7526 9.79417 13.2013 8.99771 13.9977C8.20126 14.7942 7.75264 15.8736 7.75 17C7.75264 18.1264 8.20126 19.2058 8.99771 20.0023C9.79417 20.7987 10.8736 21.2474 12 21.25C13.1264 21.2474 14.2058 20.7987 15.0023 20.0023C15.7987 19.2058 16.2474 18.1264 16.25 17C16.2474 15.8736 15.7987 14.7942 15.0023 13.9977C14.2058 13.2013 13.1264 12.7526 12 12.75Z" fill="black"/>
<path d="M12 12.75C8.83 12.75 6.25 10.17 6.25 7C6.25 3.83 8.83 1.25 12 1.25C15.17 1.25 17.75 3.83 17.75 7C17.75 10.17 15.17 12.75 12 12.75ZM12 2.75C10.8736 2.75264 9.79417 3.20126 8.99771 3.99771C8.20126 4.79417 7.75264 5.87364 7.75 7C7.75264 8.12636 8.20126 9.20583 8.99771 10.0023C9.79417 10.7987 10.8736 11.2474 12 11.25C13.1264 11.2474 14.2058 10.7987 15.0023 10.0023C15.7987 9.20583 16.2474 8.12636 16.25 7C16.2474 5.87364 15.7987 4.79417 15.0023 3.99771C14.2058 3.20126 13.1264 2.75264 12 2.75Z" fill="black"/>
<path d="M7 17.75C3.83 17.75 1.25 15.17 1.25 12C1.25 8.83 3.83 6.25 7 6.25C10.17 6.25 12.75 8.83 12.75 12C12.75 15.17 10.17 17.75 7 17.75ZM7 7.75C5.87364 7.75264 4.79417 8.20126 3.99771 8.99771C3.20126 9.79417 2.75264 10.8736 2.75 12C2.75264 13.1264 3.20126 14.2058 3.99771 15.0023C4.79417 15.7987 5.87364 16.2474 7 16.25C8.12636 16.2474 9.20583 15.7987 10.0023 15.0023C10.7987 14.2058 11.2474 13.1264 11.25 12C11.2474 10.8736 10.7987 9.79417 10.0023 8.99771C9.20583 8.20126 8.12636 7.75264 7 7.75Z" fill="black"/>
</svg>
