<svg width="24" height="24" viewBox="0 0 24 24" fill="none" xmlns="http://www.w3.org/2000/svg">
<path opacity="0.4" d="M16.19 2H7.81C4.17 2 2 4.17 2 7.81V16.18C2 19.83 4.17 22 7.81 22H16.18C19.82 22 21.99 19.83 21.99 16.19V7.81C22 4.17 19.83 2 16.19 2Z" fill="black"/>
<path d="M2.75 9.97C2.34 9.97 2 9.64 2 9.22V6.91C2 4.2 4.2 2 6.91 2H9.22C9.31849 2 9.41602 2.0194 9.50701 2.05709C9.59801 2.09478 9.68069 2.15003 9.75033 2.21967C9.81997 2.28931 9.87522 2.37199 9.91291 2.46299C9.9506 2.55398 9.97 2.65151 9.97 2.75C9.97 2.84849 9.9506 2.94602 9.91291 3.03701C9.87522 3.12801 9.81997 3.21069 9.75033 3.28033C9.68069 3.34997 9.59801 3.40522 9.50701 3.44291C9.41602 3.4806 9.31849 3.5 9.22 3.5H6.91C5.03 3.5 3.5 5.03 3.5 6.91V9.22C3.5 9.64 3.16 9.97 2.75 9.97ZM21.25 9.97C20.84 9.97 20.5 9.63 20.5 9.22V6.91C20.5 5.03 18.97 3.5 17.09 3.5H14.78C14.6815 3.5 14.584 3.4806 14.493 3.44291C14.402 3.40522 14.3193 3.34997 14.2497 3.28033C14.18 3.21069 14.1248 3.12801 14.0871 3.03701C14.0494 2.94602 14.03 2.84849 14.03 2.75C14.03 2.65151 14.0494 2.55398 14.0871 2.46299C14.1248 2.37199 14.18 2.28931 14.2497 2.21967C14.3193 2.15003 14.402 2.09478 14.493 2.05709C14.584 2.0194 14.6815 2 14.78 2H17.09C19.8 2 22 4.2 22 6.91V9.22C22 9.64 21.66 9.97 21.25 9.97ZM17.09 22H15.7C15.29 22 14.95 21.66 14.95 21.25C14.95 20.84 15.29 20.5 15.7 20.5H17.09C18.97 20.5 20.5 18.97 20.5 17.09V15.7C20.5 15.29 20.84 14.95 21.25 14.95C21.66 14.95 22 15.29 22 15.7V17.09C22 19.8 19.8 22 17.09 22ZM9.22 22.001H6.91C4.2 22.001 2 19.801 2 17.091V14.781C2 14.371 2.34 14.031 2.75 14.031C3.16 14.031 3.5 14.371 3.5 14.781V17.091C3.5 18.971 5.03 20.501 6.91 20.501H9.22C9.41891 20.501 9.60968 20.58 9.75033 20.7207C9.89098 20.8613 9.97 21.0521 9.97 21.251C9.97 21.4499 9.89098 21.6407 9.75033 21.7813C9.60968 21.922 9.41891 22.001 9.22 22.001Z" fill="black"/>
</svg>
