<svg width="24" height="24" viewBox="0 0 24 24" fill="none" xmlns="http://www.w3.org/2000/svg">
<path d="M11 18V21C11 21.55 10.55 22 10 22C9.45 22 9 21.55 9 21V18M11 18H9M11 18H13M9 18H15M9 18C7.9 18 7 17.1 7 16V15.29M15 18V21C15 21.55 14.55 22 14 22C13.45 22 13 21.55 13 21V18M15 18H13M15 18C16.1 18 17 17.1 17 16V11C17 9.90001 16.1 9.00001 15 9.00001H9C7.9 9.00001 7 9.90001 7 11M5 11V15C5 15.55 4.55 16 4 16C3.45 16 3 15.55 3 15V11C3 10.45 3.45 10 4 10C4.55 10 5 10.45 5 11ZM21 11V15C21 15.55 20.55 16 20 16C19.45 16 19 15.55 19 15V11C19 10.45 19.45 10 20 10C20.55 10 21 10.45 21 11ZM9.6 6.99801H14.4C15.28 6.99801 16 6.27801 16 5.39801C16 3.18801 14.21 1.39801 12 1.39801C9.79 1.39801 8 3.18801 8 5.39801C8 6.27801 8.72 6.99801 9.6 6.99801Z" stroke="black" stroke-width="1.5" stroke-miterlimit="10" stroke-linecap="round" stroke-linejoin="round"/>
</svg>
