<svg width="24" height="24" viewBox="0 0 24 24" fill="none" xmlns="http://www.w3.org/2000/svg">
<path d="M9.28 20.3109C9.45 20.7909 8.93 21.2309 8.49 20.9709L5.34 19.1809C4.77 18.8509 4.42 18.0609 4.54 17.4209L5.48 12.7509C5.59 12.2009 6.35 12.1509 6.54 12.6709L9.28 20.3109ZM18.66 19.1789L15.5 20.9789C15.06 21.2289 14.54 20.7989 14.71 20.3189L17.46 12.6089C17.65 12.0889 18.41 12.1389 18.52 12.6889L19.47 17.4189C19.58 18.0589 19.23 18.8489 18.66 19.1789ZM17.08 7.31995C17.32 7.61995 17.39 8.01995 17.26 8.37995L12.52 21.6299C12.35 22.1199 11.66 22.1199 11.49 21.6299L6.75 8.38995C6.62 8.02995 6.69 7.62995 6.93 7.32995L10.75 2.62995C11.44 1.79995 12.58 1.79995 13.28 2.62995L17.08 7.31995Z" fill="black"/>
</svg>
