<svg width="24" height="24" viewBox="0 0 24 24" fill="none" xmlns="http://www.w3.org/2000/svg">
<path d="M16.98 8.08896L16.81 8.51896L12.09 21.749H11.91L7.18 8.49896L7.02 8.09896C7.08 7.94896 7.16 7.80896 7.24 7.70896L10.85 3.37896C11.48 2.61896 12.52 2.61896 13.15 3.37896L16.76 7.70896C16.84 7.79896 16.92 7.94896 16.98 8.08896Z" fill="black"/>
<path opacity="0.4" d="M11.91 21.752C11.67 21.742 11.44 21.682 11.26 21.572L5.94 18.542C5.42 18.242 5.1 17.522 5.21 16.942L6.93 8.37197C6.95 8.29197 6.98 8.20197 7.02 8.10197L7.18 8.50197L11.91 21.752ZM18.06 18.54L12.74 21.57C12.56 21.68 12.33 21.74 12.09 21.75L16.81 8.51997L16.98 8.08997C17.02 8.18997 17.05 8.28997 17.07 8.36997L18.79 16.94C18.9 17.52 18.58 18.24 18.06 18.54Z" fill="black"/>
</svg>
