<svg width="24" height="24" viewBox="0 0 24 24" fill="none" xmlns="http://www.w3.org/2000/svg">
<path d="M10.8 3.40005L7.20001 7.70005C7.10001 7.90005 7.00001 8.20005 6.90001 8.40005L5.20001 17C5.10001 17.6 5.40001 18.3 5.90001 18.6L11.2 21.6C11.6 21.8 12.3 21.8 12.7 21.6L18 18.6C18.5 18.3 18.8 17.6 18.7 17L17 8.40005C17 8.20005 16.8 7.90005 16.7 7.70005L13.1 3.40005C12.5 2.60005 11.5 2.60005 10.8 3.40005Z" stroke="black" stroke-width="1.5" stroke-miterlimit="10" stroke-linecap="round" stroke-linejoin="round"/>
<path d="M16.8 8.5L12.5 20.7C12.3 21.1 11.7 21.1 11.6 20.7L7.2 8.5" stroke="black" stroke-width="1.5" stroke-miterlimit="10" stroke-linecap="round" stroke-linejoin="round"/>
</svg>
