<svg width="24" height="24" viewBox="0 0 24 24" fill="none" xmlns="http://www.w3.org/2000/svg">
<path d="M12 22.5C11.6 22.5 11.2 22.41 10.88 22.23L5.56 19.19C4.76 18.73 4.29 17.7 4.47 16.79L6.18 8.22003C6.25 7.89003 6.44 7.48003 6.66 7.22003L10.26 2.90003C11.15 1.83003 12.83 1.83003 13.72 2.90003L17.32 7.22003C17.54 7.48003 17.73 7.89003 17.8 8.22003L19.51 16.79C19.69 17.7 19.22 18.73 18.42 19.18L13.1 22.22C12.8 22.41 12.4 22.5 12 22.5ZM12 3.56003C11.79 3.56003 11.59 3.67003 11.42 3.86003L7.82 8.18003C7.77 8.24003 7.68 8.43003 7.66 8.51003L5.95 17.08C5.9 17.35 6.08 17.74 6.31 17.88L11.63 20.92C11.81 21.02 12.2 21.02 12.37 20.92L17.69 17.88C17.93 17.74 18.11 17.35 18.05 17.08L16.34 8.51003C16.32 8.43003 16.23 8.24003 16.18 8.18003L12.58 3.86003C12.41 3.67003 12.21 3.56003 12 3.56003Z" fill="black"/>
<path d="M12 21.76C11.46 21.76 11 21.43 10.82 20.93L6.47 8.75005C6.43324 8.65675 6.41556 8.55703 6.41801 8.45678C6.42046 8.35654 6.44298 8.2578 6.48426 8.16641C6.52553 8.07502 6.58471 7.99283 6.6583 7.92471C6.73188 7.85659 6.81839 7.80392 6.91268 7.76982C7.00698 7.73571 7.10716 7.72086 7.2073 7.72614C7.30744 7.73142 7.4055 7.75673 7.49568 7.80057C7.58587 7.84441 7.66635 7.9059 7.73236 7.98138C7.79837 8.05687 7.84857 8.14482 7.88 8.24005L12 19.77L16.11 8.27005C16.1414 8.17482 16.1916 8.08687 16.2576 8.01138C16.3237 7.9359 16.4041 7.87441 16.4943 7.83057C16.5845 7.78673 16.6826 7.76142 16.7827 7.75614C16.8828 7.75086 16.983 7.76571 17.0773 7.79982C17.1716 7.83392 17.2581 7.88659 17.3317 7.95471C17.4053 8.02283 17.4645 8.10502 17.5057 8.19641C17.547 8.2878 17.5695 8.38654 17.572 8.48678C17.5744 8.58703 17.5568 8.68675 17.52 8.78005L13.18 20.94C13 21.44 12.54 21.76 12 21.76Z" fill="black"/>
</svg>
