<svg width="24" height="24" viewBox="0 0 24 24" fill="none" xmlns="http://www.w3.org/2000/svg">
<path d="M10.85 3.37896L7.25 7.69896C7.12 7.85896 6.97 8.15896 6.93 8.36896L5.22 16.939C5.1 17.519 5.43 18.239 5.95 18.539L11.27 21.579C11.68 21.809 12.35 21.809 12.76 21.579L18.08 18.539C18.6 18.239 18.92 17.529 18.81 16.939L17.1 8.36896C17.06 8.15896 16.92 7.85896 16.78 7.69896L13.18 3.37896C12.52 2.61896 11.48 2.61896 10.85 3.37896Z" stroke="black" stroke-width="1.5" stroke-miterlimit="10" stroke-linecap="round" stroke-linejoin="round"/>
<path opacity="0.4" d="M16.81 8.52L12.47 20.68C12.435 20.7765 12.3711 20.8599 12.287 20.9189C12.2029 20.9778 12.1027 21.0094 12 21.0094C11.8973 21.0094 11.7971 20.9778 11.713 20.9189C11.6289 20.8599 11.565 20.7765 11.53 20.68L7.18 8.5" stroke="black" stroke-width="1.5" stroke-miterlimit="10" stroke-linecap="round" stroke-linejoin="round"/>
</svg>
