<svg width="24" height="24" viewBox="0 0 24 24" fill="none" xmlns="http://www.w3.org/2000/svg">
<path fill-rule="evenodd" clip-rule="evenodd" d="M15.88 20.92C15.91 21.08 15.82 21.25 15.67 21.31C14.54 21.76 13.3 22 12.02 22C9.81 22 7.77 21.29 6.12 20.07C5.98 19.97 5.94 19.77 6.03 19.62C6.58 18.64 8.73 15.49 13.48 13.73C13.66 13.66 13.86 13.75 13.92 13.93C15.11 17.12 15.67 19.82 15.88 20.92ZM21.82 13.888C21.3614 16.3068 20.0171 18.4676 18.05 19.948C17.84 20.108 17.54 19.988 17.49 19.738C17.28 18.658 16.77 16.328 15.79 13.558C15.72 13.348 15.86 13.118 16.08 13.088C18.57 12.788 20.75 13.268 21.57 13.488C21.74 13.548 21.85 13.718 21.82 13.888ZM21.59 11.819C20.57 11.639 17.97 11.259 15.31 11.549C15.15 11.569 15.01 11.479 14.94 11.329C14.9 11.239 14.87 11.149 14.83 11.059C14.67 10.689 14.5 10.309 14.33 9.93896C14.24 9.75896 14.33 9.53896 14.51 9.45896C17.31 8.24896 18.87 6.68896 19.48 5.98896C19.63 5.81896 19.89 5.82896 20.03 6.00896C21.2102 7.57998 21.896 9.46678 22 11.429C22.01 11.679 21.81 11.859 21.59 11.819ZM18.44 4.79196C17.92 5.42196 16.46 6.92196 13.69 8.02196C13.6098 8.05434 13.5205 8.05591 13.4393 8.02636C13.3581 7.99682 13.2906 7.93826 13.25 7.86196C12.2587 6.08459 11.1669 4.36514 9.98 2.71196C9.83 2.50196 9.95 2.20196 10.2 2.16196C10.78 2.06196 11.39 2.01196 12.01 2.01196C14.43 2.01196 16.66 2.87196 18.39 4.31196C18.54 4.42196 18.56 4.64196 18.44 4.79196ZM11.02 8.83996C7.23 9.78996 3.88 9.91996 2.66 9.93996C2.43 9.93996 2.26 9.71996 2.32 9.49996C3.04 6.69996 4.96 4.35996 7.49 3.06996C7.64 2.98996 7.83 3.03996 7.93 3.17996C8.45 3.89996 9.86 5.92996 11.24 8.31996C11.35 8.51996 11.25 8.77996 11.02 8.83996ZM12.92 11.599C13.01 11.789 12.9 12.019 12.7 12.089C8.27 13.519 5.62 17.069 4.82 18.289C4.69 18.489 4.41 18.499 4.26 18.319C2.86 16.599 2.01 14.629 2.01 12.239V12.059C2.01 11.859 2.17 11.699 2.37 11.709C3.63 11.759 7.74 11.589 12.01 10.359C12.17 10.309 12.35 10.389 12.42 10.539C12.59 10.889 12.76 11.239 12.92 11.599Z" fill="black"/>
</svg>
