<svg width="24" height="24" viewBox="0 0 24 24" fill="none" xmlns="http://www.w3.org/2000/svg">
<path fill-rule="evenodd" clip-rule="evenodd" d="M15.88 20.92C15.91 21.08 15.82 21.25 15.67 21.31C14.53 21.76 13.3 22 12.01 22C9.88728 22.0058 7.8189 21.3292 6.11 20.07C5.97 19.97 5.93 19.77 6.02 19.62C6.57 18.64 8.72 15.49 13.47 13.73C13.65 13.66 13.85 13.75 13.91 13.93C15.11 17.12 15.67 19.82 15.88 20.92ZM21.82 13.888C21.3614 16.3068 20.0171 18.4676 18.05 19.948C17.84 20.108 17.54 19.988 17.49 19.738C17.28 18.658 16.77 16.328 15.79 13.558C15.72 13.348 15.86 13.118 16.08 13.088C18.57 12.788 20.75 13.268 21.57 13.488C21.74 13.548 21.85 13.718 21.82 13.888Z" fill="black"/>
<path opacity="0.4" fill-rule="evenodd" clip-rule="evenodd" d="M21.59 11.819C20.57 11.639 17.97 11.259 15.31 11.549C15.15 11.569 15.01 11.479 14.94 11.329C14.9 11.239 14.87 11.149 14.83 11.059C14.67 10.689 14.5 10.309 14.33 9.93904C14.24 9.75904 14.33 9.53904 14.51 9.45904C17.31 8.24904 18.87 6.68904 19.48 5.98904C19.63 5.81904 19.89 5.82904 20.03 6.00904C21.2102 7.58007 21.896 9.46686 22 11.429C22.01 11.679 21.81 11.859 21.59 11.819Z" fill="black"/>
<path fill-rule="evenodd" clip-rule="evenodd" d="M18.44 4.79C17.92 5.42 16.46 6.92 13.69 8.02C13.6098 8.05238 13.5205 8.05394 13.4393 8.0244C13.3581 7.99486 13.2906 7.9363 13.25 7.86C12.2587 6.08262 11.1669 4.36316 9.98 2.71C9.94499 2.66074 9.92302 2.60341 9.91615 2.54337C9.90927 2.48332 9.9177 2.42252 9.94066 2.36661C9.96362 2.31071 10.0004 2.26152 10.0475 2.22365C10.0946 2.18577 10.1505 2.16044 10.21 2.15C10.79 2.05 11.39 2 12.01 2C14.43 2 16.66 2.86 18.39 4.3C18.54 4.42 18.56 4.64 18.44 4.79ZM11.02 8.84C7.23 9.79 3.88 9.92 2.66 9.94C2.43 9.94 2.26 9.72 2.32 9.5C3.04 6.7 4.96 4.36 7.49 3.07C7.64 2.99 7.83 3.04 7.93 3.18C8.45 3.9 9.86 5.93 11.24 8.32C11.35 8.52 11.25 8.78 11.02 8.84Z" fill="black"/>
<path opacity="0.4" fill-rule="evenodd" clip-rule="evenodd" d="M12.92 11.6C13.01 11.79 12.9 12.02 12.7 12.09C8.27 13.52 5.62 17.07 4.82 18.29C4.69 18.49 4.41 18.5 4.26 18.32C2.85 16.6 2 14.63 2 12.23V12.05C2 11.85 2.16 11.69 2.36 11.7C3.62 11.75 7.73 11.58 12 10.35C12.16 10.3 12.34 10.38 12.41 10.53C12.59 10.89 12.76 11.24 12.92 11.6Z" fill="black"/>
</svg>
