<svg width="24" height="24" viewBox="0 0 24 24" fill="none" xmlns="http://www.w3.org/2000/svg">
<path d="M6.87 12.281C6.45 12.281 6.02 12.261 5.6 12.221L2.43 11.931C2.3315 11.9219 2.23576 11.8934 2.14827 11.8472C2.06078 11.801 1.98324 11.7381 1.92009 11.6619C1.85694 11.5858 1.80942 11.4979 1.78023 11.4034C1.75105 11.3089 1.74077 11.2095 1.75 11.111C1.79 10.701 2.14 10.391 2.57 10.431L5.74 10.721C10.64 11.171 15.4 8.69101 17.85 4.41101C18.06 4.05101 18.51 3.93101 18.87 4.13101C19.23 4.34101 19.35 4.79101 19.15 5.15101C16.63 9.58101 11.9 12.281 6.87 12.281ZM5.5 20.119C5.36927 20.118 5.24106 20.0829 5.12802 20.0173C5.01498 19.9516 4.92101 19.8576 4.85539 19.7445C4.78977 19.6314 4.75476 19.5032 4.75381 19.3725C4.75287 19.2417 4.78602 19.113 4.85 18.999C7.59 14.209 12.91 11.429 18.4 11.939L21.57 12.229C21.6685 12.2382 21.7642 12.2667 21.8517 12.3129C21.9392 12.3591 22.0167 12.422 22.0798 12.4982C22.143 12.5743 22.1905 12.6622 22.2197 12.7567C22.2489 12.8512 22.2592 12.9505 22.25 13.049C22.2408 13.1475 22.2123 13.2432 22.1661 13.3307C22.1199 13.4182 22.057 13.4957 21.9808 13.5588C21.9047 13.622 21.8169 13.6695 21.7223 13.6987C21.6278 13.7279 21.5285 13.7382 21.43 13.729L18.26 13.439C13.36 12.989 8.6 15.469 6.15 19.749C6.01 19.989 5.76 20.119 5.5 20.119Z" fill="black"/>
<path d="M12 22.75C6.07 22.75 1.25 17.93 1.25 12C1.25 6.07 6.07 1.25 12 1.25C17.93 1.25 22.75 6.07 22.75 12C22.75 17.93 17.93 22.75 12 22.75ZM12 2.75C6.9 2.75 2.75 6.9 2.75 12C2.75 17.1 6.9 21.25 12 21.25C17.1 21.25 21.25 17.1 21.25 12C21.25 6.9 17.1 2.75 12 2.75Z" fill="black"/>
<path d="M16.47 21.698C16.13 21.698 15.83 21.468 15.74 21.128L14.53 16.138C13.76 12.978 12.28 9.96804 10.23 7.42804L7.05001 3.47804C6.9841 3.40239 6.9341 3.31423 6.90301 3.21883C6.87192 3.12343 6.86036 3.02274 6.86904 2.92278C6.87771 2.82282 6.90644 2.72563 6.9535 2.63701C7.00056 2.54839 7.06499 2.47016 7.14294 2.40699C7.2209 2.34382 7.31078 2.297 7.40723 2.26933C7.50368 2.24165 7.60471 2.2337 7.7043 2.24593C7.80389 2.25816 7.9 2.29033 7.98688 2.34052C8.07377 2.39071 8.14965 2.45789 8.21001 2.53804L11.39 6.48804C13.5793 9.21284 15.1459 12.3836 15.98 15.778L17.19 20.768C17.29 21.168 17.04 21.578 16.64 21.678C16.59 21.688 16.53 21.698 16.47 21.698Z" fill="black"/>
</svg>
