<svg width="24" height="24" viewBox="0 0 24 24" fill="none" xmlns="http://www.w3.org/2000/svg">
<path d="M10.5 11.5V14.3L8 15.8L5.5 14.3V11.5L8 10L9.2 10.7L10.5 11.5ZM18.5 11.5V14.3L16 15.8L13.5 14.3V11.5L14.8 10.7L16 10L18.5 11.5Z" stroke="black" stroke-width="1.5" stroke-miterlimit="10" stroke-linejoin="round"/>
<path d="M14.8 9.2998V10.6998L13.5 11.4998V13.1998L12 14.0998L10.5 13.1998V11.4998L9.20001 10.6998V9.2998L12 7.7998L14.8 9.2998Z" stroke="black" stroke-width="1.5" stroke-miterlimit="10" stroke-linejoin="round"/>
<path d="M12 22C17.523 22 22 17.523 22 12C22 6.477 17.523 2 12 2C6.477 2 2 6.477 2 12C2 17.523 6.477 22 12 22Z" stroke="black" stroke-width="1.5" stroke-miterlimit="10" stroke-linejoin="round"/>
</svg>
