<svg width="24" height="24" viewBox="0 0 24 24" fill="none" xmlns="http://www.w3.org/2000/svg">
<path d="M8 16.4999C7.87 16.4999 7.74 16.4699 7.63 16.3999L5.13 14.9599C5.01512 14.8946 4.91951 14.8 4.85279 14.6859C4.78608 14.5718 4.75062 14.4421 4.75 14.3099V11.4599C4.75 11.1899 4.89 10.9399 5.13 10.8099L7.63 9.36995C7.74465 9.30602 7.87373 9.27246 8.005 9.27246C8.13627 9.27246 8.26535 9.30602 8.38 9.36995L10.88 10.8099C11.11 10.9399 11.26 11.1899 11.26 11.4599V14.3099C11.26 14.5799 11.12 14.8299 10.88 14.9599L8.38 16.3999C8.26 16.4699 8.13 16.4999 8 16.4999ZM6.25 13.8799L8 14.8899L9.75 13.8799V11.8899L8 10.8799L6.25 11.8899V13.8799ZM16 16.4999C15.87 16.4999 15.74 16.4699 15.63 16.3999L13.13 14.9599C13.0151 14.8946 12.9195 14.8 12.8528 14.6859C12.7861 14.5718 12.7506 14.4421 12.75 14.3099V11.4599C12.75 11.1899 12.89 10.9399 13.13 10.8099L15.63 9.36995C15.7446 9.30602 15.8737 9.27246 16.005 9.27246C16.1363 9.27246 16.2654 9.30602 16.38 9.36995L18.88 10.8099C19.11 10.9399 19.26 11.1899 19.26 11.4599V14.3099C19.26 14.5799 19.12 14.8299 18.88 14.9599L16.38 16.3999C16.26 16.4699 16.13 16.4999 16 16.4999ZM14.25 13.8799L16 14.8899L17.75 13.8799V11.8899L16 10.8799L14.25 11.8899V13.8799Z" fill="black"/>
<path d="M12 14.8002C11.87 14.8002 11.74 14.7702 11.63 14.7002L10.13 13.8402C10.0151 13.7748 9.91951 13.6803 9.85279 13.5661C9.78608 13.452 9.75062 13.3223 9.75 13.1902V11.8902L8.88 11.3902C8.76512 11.3248 8.66951 11.2303 8.60279 11.1161C8.53608 11.002 8.50062 10.8723 8.5 10.7402V9.32016C8.5 9.05016 8.64 8.80016 8.88 8.67016L11.63 7.09016C11.7446 7.02623 11.8737 6.99268 12.005 6.99268C12.1363 6.99268 12.2654 7.02623 12.38 7.09016L15.13 8.67016C15.36 8.80016 15.51 9.05016 15.51 9.32016V10.7402C15.51 11.0102 15.37 11.2602 15.13 11.3902L14.26 11.8902V13.1902C14.26 13.4602 14.12 13.7102 13.88 13.8402L12.38 14.7002C12.26 14.7702 12.13 14.8002 12 14.8002ZM11.25 12.7602L12 13.1902L12.75 12.7602V11.4602C12.75 11.1902 12.89 10.9402 13.13 10.8102L14 10.3102V9.76016L12 8.61016L10 9.76016V10.3102L10.87 10.8102C11.1 10.9402 11.25 11.1902 11.25 11.4602V12.7602Z" fill="black"/>
<path d="M12 22.75C6.07 22.75 1.25 17.93 1.25 12C1.25 6.07 6.07 1.25 12 1.25C17.93 1.25 22.75 6.07 22.75 12C22.75 17.93 17.93 22.75 12 22.75ZM12 2.75C6.9 2.75 2.75 6.9 2.75 12C2.75 17.1 6.9 21.25 12 21.25C17.1 21.25 21.25 17.1 21.25 12C21.25 6.9 17.1 2.75 12 2.75Z" fill="black"/>
</svg>
