<svg width="24" height="24" viewBox="0 0 24 24" fill="none" xmlns="http://www.w3.org/2000/svg">
<path opacity="0.13" d="M10.87 14L12.8 17.33L10.88 20.66H7L5.09 17.35L7.03 14H10.87Z" fill="black"/>
<path d="M10.54 14.0779H7.12C6.94 14.0779 6.78 14.1779 6.69 14.3279L4.98 17.2879C4.89 17.4379 4.89 17.6379 4.98 17.7879L6.69 20.7479C6.78 20.8979 6.94 20.9979 7.12 20.9979H10.54C10.72 20.9979 10.88 20.8979 10.97 20.7479L12.68 17.7879C12.77 17.6379 12.77 17.4379 12.68 17.2879L10.97 14.3279C10.9277 14.2512 10.8653 14.1875 10.7896 14.1435C10.7138 14.0994 10.6276 14.0768 10.54 14.0779Z" fill="black"/>
<path d="M22.24 11.738C22.33 11.898 22.33 12.098 22.24 12.258L17.31 20.788C17.2831 20.8353 17.2471 20.8768 17.2042 20.9102C17.1612 20.9436 17.1121 20.9682 17.0596 20.9826C17.0071 20.9969 16.9524 21.0009 16.8984 20.9941C16.8444 20.9873 16.7923 20.97 16.745 20.943C16.6977 20.9161 16.6562 20.8801 16.6228 20.8372C16.5895 20.7942 16.5649 20.7451 16.5505 20.6926C16.5361 20.6402 16.5322 20.5854 16.539 20.5314C16.5457 20.4774 16.5631 20.4253 16.59 20.378L19.88 14.678C19.97 14.518 19.97 14.318 19.88 14.158L15.48 6.53804C15.4349 6.45855 15.3695 6.39254 15.2904 6.34684C15.2113 6.30113 15.1214 6.27737 15.03 6.27804H6.22C6.03 6.27804 5.87 6.37804 5.77 6.53804L2.5 12.218C2.44033 12.3215 2.34201 12.397 2.22668 12.4279C2.11134 12.4589 1.98844 12.4427 1.885 12.383C1.78157 12.3234 1.70608 12.225 1.67513 12.1097C1.64419 11.9944 1.66033 11.8715 1.72 11.768L6.64 3.24804C6.72 3.08804 6.9 2.98804 7.09 2.98804H16.88C17.07 2.98804 17.23 3.08804 17.33 3.24804L22.24 11.738Z" fill="black"/>
<path d="M18.089 14.6821L14.589 20.7421C14.499 20.9021 14.329 21.0021 14.139 21.0021H13.539C13.4477 21.002 13.3581 20.9779 13.2791 20.9323C13.2001 20.8866 13.1345 20.8209 13.0889 20.7419C13.0433 20.6629 13.0193 20.5732 13.0193 20.482C13.0193 20.3907 13.0434 20.3011 13.089 20.2221L14.489 17.8021C14.579 17.6421 14.579 17.4421 14.489 17.2821L11.889 12.7821C11.8389 12.7027 11.7695 12.6372 11.6873 12.5918C11.6052 12.5463 11.5129 12.5223 11.419 12.5221H6.219C6.029 12.5221 5.869 12.6221 5.769 12.7821L4.369 15.2021C4.169 15.5521 3.669 15.5521 3.469 15.2021L3.169 14.6921C3.12468 14.6126 3.10143 14.5231 3.10143 14.4321C3.10143 14.341 3.12468 14.2515 3.169 14.1721L6.659 8.11205C6.749 7.95205 6.919 7.85205 7.109 7.85205H14.099C14.289 7.85205 14.449 7.95205 14.549 8.11205L18.049 14.1721C18.169 14.3221 18.169 14.5321 18.089 14.6821Z" fill="black"/>
</svg>
