<svg width="24" height="24" viewBox="0 0 24 24" fill="none" xmlns="http://www.w3.org/2000/svg">
<path d="M17.43 21.4101H6.56L1.13 12.0001L6.56 2.59009H17.43L22.86 12.0001L17.43 21.4101ZM7.43 19.9101H16.56L21.13 12.0001L16.56 4.09009H7.43L2.87 12.0001L7.43 19.9101Z" fill="black"/>
<path d="M11.31 21.41H6.60001L4.24001 17.33L6.60001 13.25H11.31L13.67 17.33L11.31 21.41ZM7.46001 19.91H10.44L11.93 17.33L10.44 14.75H7.46001L5.97001 17.33L7.46001 19.91Z" fill="black"/>
<path d="M14.78 21.41H6.59999L2.50999 14.33L6.59999 7.25H14.78L18.87 14.33L14.78 21.41ZM7.46999 19.91H13.91L17.13 14.33L13.91 8.75H7.46999L4.24999 14.33L7.46999 19.91Z" fill="black"/>
</svg>
