<svg width="24" height="24" viewBox="0 0 24 24" fill="none" xmlns="http://www.w3.org/2000/svg">
<path d="M21.25 5.77V9C21.25 11.115 20.543 11.899 18.631 12.007C18.5657 12.0097 18.5006 11.9991 18.4395 11.9758C18.3785 11.9524 18.3228 11.9169 18.276 11.8713C18.2292 11.8257 18.1922 11.771 18.1673 11.7106C18.1423 11.6502 18.13 11.5853 18.131 11.52V10.38C18.131 7.26 16.741 5.87 13.621 5.87H12.481C12.4157 5.87101 12.3508 5.85867 12.2904 5.83373C12.23 5.80879 12.1753 5.77178 12.1297 5.72497C12.0841 5.67816 12.0486 5.62253 12.0252 5.56149C12.0019 5.50045 11.9913 5.43529 11.994 5.37C12.101 3.458 12.886 2.75 15.001 2.75H18.231C20.521 2.75 21.25 3.48 21.25 5.77Z" fill="black"/>
<path d="M16.63 10.381V13.621C16.63 15.901 15.9 16.631 13.62 16.631H10.38C8.1 16.631 7.37 15.901 7.37 13.621V10.381C7.37 8.10097 8.1 7.37097 10.38 7.37097H13.62C15.9 7.37097 16.63 8.10097 16.63 10.381Z" fill="black"/>
<path d="M11.52 18.13C11.5854 18.129 11.6504 18.1413 11.7108 18.1663C11.7713 18.1913 11.826 18.2284 11.8716 18.2753C11.9173 18.3223 11.9528 18.378 11.9761 18.4392C11.9993 18.5003 12.0099 18.5656 12.007 18.631C11.899 20.543 11.115 21.251 9 21.251H5.77C3.48 21.251 2.75 20.521 2.75 18.231V15C2.75 12.885 3.458 12.1 5.37 11.993C5.43521 11.9902 5.50028 12.0008 5.56125 12.0241C5.62222 12.0474 5.6778 12.0829 5.7246 12.1284C5.7714 12.1738 5.80843 12.2284 5.83343 12.2887C5.85843 12.349 5.87087 12.4137 5.87 12.479V13.619C5.87 16.739 7.26 18.129 10.38 18.129L11.52 18.13Z" fill="black"/>
</svg>
