<svg width="24" height="24" viewBox="0 0 24 24" fill="none" xmlns="http://www.w3.org/2000/svg">
<path d="M13.621 18.13H10.391C7.261 18.13 5.871 16.74 5.871 13.61V10.38C5.871 7.24999 7.261 5.85999 10.391 5.85999H13.621C16.751 5.85999 18.141 7.24999 18.141 10.38V13.61C18.131 16.74 16.741 18.13 13.621 18.13ZM10.381 7.36999C8.091 7.36999 7.361 8.09999 7.361 10.39V13.62C7.361 15.91 8.091 16.64 10.381 16.64H13.611C15.901 16.64 16.631 15.91 16.631 13.62V10.39C16.631 8.09999 15.901 7.36999 13.611 7.36999H10.381Z" fill="black"/>
<path d="M18.23 13.52H17.38C16.97 13.52 16.63 13.18 16.63 12.77V10.39C16.63 8.1 15.9 7.37 13.61 7.37H11.23C10.82 7.37 10.48 7.03 10.48 6.62V5.77C10.48 2.64 11.87 1.25 15 1.25H18.23C21.36 1.25 22.75 2.64 22.75 5.77V9C22.75 12.13 21.36 13.52 18.23 13.52ZM18.13 12.02H18.23C20.52 12.02 21.25 11.29 21.25 9V5.77C21.25 3.48 20.52 2.75 18.23 2.75H15C12.71 2.75 11.98 3.48 11.98 5.77V5.87H13.61C16.74 5.87 18.13 7.26 18.13 10.39V12.02ZM9 22.75H5.77C2.64 22.75 1.25 21.36 1.25 18.23V15C1.25 11.87 2.64 10.48 5.77 10.48H6.62C7.03 10.48 7.37 10.82 7.37 11.23V13.61C7.37 15.9 8.1 16.63 10.39 16.63H12.77C13.18 16.63 13.52 16.97 13.52 17.38V18.23C13.52 21.36 12.13 22.75 9 22.75ZM5.77 11.98C3.48 11.98 2.75 12.71 2.75 15V18.23C2.75 20.52 3.48 21.25 5.77 21.25H9C11.29 21.25 12.02 20.52 12.02 18.23V18.13H10.39C7.26 18.13 5.87 16.74 5.87 13.61V11.98H5.77Z" fill="black"/>
</svg>
