<svg width="24" height="24" viewBox="0 0 24 24" fill="none" xmlns="http://www.w3.org/2000/svg">
<path d="M17.38 10.38V13.61C17.38 16.3 16.3 17.38 13.61 17.38H10.38C7.69 17.38 6.61 16.3 6.61 13.61V10.38C6.61 7.68999 7.69 6.60999 10.38 6.60999H13.61C16.31 6.61999 17.38 7.68999 17.38 10.38Z" stroke="black" stroke-width="1.5" stroke-linecap="round" stroke-linejoin="round"/>
<path opacity="0.4" d="M22 5.77V9C22 11.69 20.92 12.77 18.23 12.77H17.38V10.39C17.38 7.7 16.3 6.62 13.61 6.62H11.23V5.77C11.23 3.08 12.31 2 15 2H18.23C20.92 2 22 3.08 22 5.77ZM2 18.23V15C2 12.31 3.08 11.23 5.77 11.23H6.62V13.61C6.62 16.3 7.7 17.38 10.39 17.38H12.77V18.23C12.77 20.92 11.69 22 9 22H5.77C3.08 22 2 20.92 2 18.23Z" stroke="black" stroke-width="1.5" stroke-linecap="round" stroke-linejoin="round"/>
</svg>
