<svg width="24" height="24" viewBox="0 0 24 24" fill="none" xmlns="http://www.w3.org/2000/svg">
<path opacity="0.4" d="M7.81 2H16.18C19.83 2 22 4.17 22 7.81V16.18C22 19.82 19.83 21.99 16.19 21.99H7.81C4.17 22 2 19.83 2 16.19V7.81C2 4.17 4.17 2 7.81 2Z" fill="black"/>
<path d="M17.69 13.4802C17.6109 13.296 17.4642 13.1493 17.28 13.0702C17.1886 13.0302 17.0898 13.0098 16.99 13.0102H7C6.59 13.0102 6.25 13.3502 6.25 13.7602C6.25 14.1702 6.59 14.5102 7 14.5102H15.19L13.52 16.1802C13.23 16.4702 13.23 16.9502 13.52 17.2402C13.67 17.3902 13.86 17.4602 14.05 17.4602C14.24 17.4602 14.43 17.3902 14.58 17.2402L17.53 14.2902C17.6 14.2202 17.65 14.1402 17.69 14.0502C17.77 13.8602 17.77 13.6602 17.69 13.4802ZM6.31 10.5202C6.39 10.7002 6.53 10.8502 6.72 10.9302C6.81 10.9702 6.9 10.9902 7 10.9902H17C17.41 10.9902 17.75 10.6502 17.75 10.2402C17.75 9.83018 17.41 9.49018 17 9.49018H8.81L10.48 7.82018C10.77 7.53018 10.77 7.05018 10.48 6.76018C10.3389 6.6207 10.1484 6.54248 9.95 6.54248C9.75157 6.54248 9.56114 6.6207 9.42 6.76018L6.47 9.71018C6.4 9.78018 6.35 9.86018 6.31 9.95018C6.23 10.1402 6.23 10.3402 6.31 10.5202Z" fill="black"/>
</svg>
