<svg width="24" height="24" viewBox="0 0 24 24" fill="none" xmlns="http://www.w3.org/2000/svg">
<path d="M12 2C6.48 2 2 6.48 2 12C2 17.52 6.48 22 12 22C17.52 22 22 17.52 22 12C22 6.48 17.52 2 12 2ZM11.5 14.5C11.5 14.91 11.16 15.25 10.75 15.25C10.34 15.25 10 14.91 10 14.5V12.42L7.33 10.82V14.5C7.33 14.91 6.99 15.25 6.58 15.25C6.17 15.25 5.83 14.91 5.83 14.5V9.5C5.82961 9.36781 5.8644 9.23789 5.9308 9.12359C5.9972 9.00928 6.09282 8.9147 6.20785 8.84956C6.32287 8.78441 6.45316 8.75104 6.58534 8.75288C6.71752 8.75471 6.84683 8.79169 6.96 8.86L11.13 11.36C11.36 11.5 11.49 11.74 11.49 12V14.5H11.5ZM18.17 14.5C18.17 14.91 17.83 15.25 17.42 15.25C17.01 15.25 16.67 14.91 16.67 14.5V10.82L14 12.42V14.5C14 14.91 13.66 15.25 13.25 15.25C12.84 15.25 12.5 14.91 12.5 14.5V12C12.5 11.74 12.64 11.49 12.86 11.36L17.03 8.86C17.26 8.72 17.55 8.72 17.78 8.85C18.02 8.98 18.16 9.23 18.16 9.5V14.5H18.17Z" fill="black"/>
</svg>
