<svg width="24" height="24" viewBox="0 0 24 24" fill="none" xmlns="http://www.w3.org/2000/svg">
<path opacity="0.4" d="M12 22C17.523 22 22 17.523 22 12C22 6.477 17.523 2 12 2C6.477 2 2 6.477 2 12C2 17.523 6.477 22 12 22Z" fill="black"/>
<path d="M10.75 15.2499C10.34 15.2499 10 14.9099 10 14.4999V12.4199L7.33 10.8199V14.4999C7.33 14.9099 6.99 15.2499 6.58 15.2499C6.17 15.2499 5.83 14.9099 5.83 14.4999V9.49988C5.82961 9.36769 5.8644 9.23777 5.9308 9.12347C5.9972 9.00916 6.09282 8.91458 6.20785 8.84944C6.32287 8.78429 6.45316 8.75092 6.58534 8.75276C6.71752 8.75459 6.84683 8.79156 6.96 8.85988L11.13 11.3599C11.36 11.4999 11.49 11.7399 11.49 11.9999V14.4999C11.4913 14.5979 11.4732 14.6952 11.4366 14.7861C11.4 14.8771 11.3457 14.9598 11.2768 15.0296C11.208 15.0994 11.126 15.1548 11.0355 15.1926C10.9451 15.2304 10.848 15.2499 10.75 15.2499ZM17.42 15.2499C17.01 15.2499 16.67 14.9099 16.67 14.4999V10.8199L14 12.4199V14.4999C14 14.9099 13.66 15.2499 13.25 15.2499C12.84 15.2499 12.5 14.9099 12.5 14.4999V11.9999C12.5 11.7399 12.64 11.4899 12.86 11.3599L17.03 8.85988C17.26 8.71988 17.55 8.71988 17.78 8.84988C18.02 8.97988 18.16 9.22988 18.16 9.49988V14.4999C18.1613 14.5979 18.1432 14.6952 18.1066 14.7861C18.07 14.8771 18.0157 14.9598 17.9468 15.0296C17.878 15.0994 17.796 15.1548 17.7055 15.1926C17.6151 15.2304 17.518 15.2499 17.42 15.2499Z" fill="black"/>
</svg>
