<svg width="24" height="24" viewBox="0 0 24 24" fill="none" xmlns="http://www.w3.org/2000/svg">
<path d="M19.51 6.42196L13.01 2.60196C12.38 2.23196 11.61 2.23196 10.98 2.60196L4.48 6.42196C3.87 6.78196 3.49 7.44196 3.49 8.14196V15.852C3.49 16.562 3.87 17.212 4.48 17.572L10.98 21.392C11.61 21.762 12.38 21.762 13.01 21.392L19.51 17.572C20.12 17.212 20.5 16.552 20.5 15.852V8.14196C20.5 7.44196 20.12 6.78196 19.51 6.42196ZM17.39 15.642L12.39 18.642C12.27 18.712 12.14 18.752 12 18.752C11.86 18.752 11.73 18.712 11.61 18.642L6.61 15.642C6.52508 15.5916 6.45096 15.525 6.39189 15.4459C6.33282 15.3668 6.28997 15.2768 6.26581 15.181C6.24164 15.0853 6.23664 14.9858 6.25109 14.8881C6.26554 14.7904 6.29916 14.6966 6.35 14.612C6.56 14.252 7.02 14.142 7.38 14.352L11.99 17.122L15.53 14.992L13.67 13.872L13.02 14.522C12.87 14.672 12.68 14.742 12.49 14.742C12.3 14.742 12.11 14.672 11.96 14.522C11.8205 14.3808 11.7423 14.1904 11.7423 13.992C11.7423 13.7935 11.8205 13.6031 11.96 13.462L12.34 13.082L10.54 12.002L10.02 12.522C9.87 12.672 9.68 12.742 9.49 12.742C9.3 12.742 9.11 12.672 8.96 12.522C8.82052 12.3808 8.7423 12.1904 8.7423 11.992C8.7423 11.7935 8.82052 11.6031 8.96 11.462L9.22 11.202L6.61 9.63196C6.50059 9.56479 6.41023 9.47068 6.34754 9.35864C6.28485 9.2466 6.25194 9.12035 6.25194 8.99196C6.25194 8.86357 6.28485 8.73733 6.34754 8.62529C6.41023 8.51324 6.50059 8.41914 6.61 8.35196L11.61 5.35196C11.85 5.21196 12.15 5.21196 12.38 5.35196L17.38 8.35196C17.74 8.56196 17.85 9.02196 17.64 9.38196C17.43 9.73196 16.97 9.85196 16.61 9.64196L12 6.87196L8.46 9.00196L10.32 10.122L10.97 9.47196C11.26 9.18196 11.74 9.18196 12.03 9.47196C12.32 9.76196 12.32 10.242 12.03 10.532L11.65 10.912L13.45 11.992L13.97 11.472C14.26 11.182 14.74 11.182 15.03 11.472C15.32 11.762 15.32 12.242 15.03 12.532L14.77 12.792L17.38 14.362C17.61 14.502 17.74 14.742 17.74 15.002C17.74 15.262 17.61 15.512 17.39 15.642Z" fill="black"/>
</svg>
