<svg width="24" height="24" viewBox="0 0 24 24" fill="none" xmlns="http://www.w3.org/2000/svg">
<path d="M3.5 12.872V15.852C3.5 16.562 3.88 17.212 4.49 17.572L10.99 21.392C11.62 21.762 12.39 21.762 13.02 21.392L19.52 17.572C20.13 17.212 20.51 16.552 20.51 15.852V8.14196C20.51 7.43196 20.13 6.78196 19.52 6.42196L13.02 2.60196C12.39 2.23196 11.62 2.23196 10.99 2.60196L4.49 6.42196C3.88 6.78196 3.5 7.44196 3.5 8.14196" stroke="black" stroke-width="1.5" stroke-miterlimit="10" stroke-linecap="round" stroke-linejoin="round"/>
<path d="M17 9L12 6L7 9L17 15L12 18L7 15M11.5 10L9.5 12M14.5 12L12.5 14" stroke="black" stroke-width="1.5" stroke-miterlimit="10" stroke-linecap="round" stroke-linejoin="round"/>
</svg>
