<svg width="24" height="24" viewBox="0 0 24 24" fill="none" xmlns="http://www.w3.org/2000/svg">
<path opacity="0.4" d="M10.99 2.60196L4.49 6.42196C3.88 6.78196 3.5 7.44196 3.5 8.14196V15.852C3.5 16.562 3.88 17.212 4.49 17.572L10.99 21.392C11.62 21.762 12.39 21.762 13.02 21.392L19.52 17.572C20.13 17.212 20.51 16.552 20.51 15.852V8.14196C20.51 7.43196 20.13 6.78196 19.52 6.42196L13.02 2.60196C12.39 2.23196 11.61 2.23196 10.99 2.60196Z" fill="black"/>
<path d="M17.39 14.3609L14.78 12.7909L15.04 12.5309C15.33 12.2409 15.33 11.7609 15.04 11.4709C14.8989 11.3314 14.7084 11.2532 14.51 11.2532C14.3116 11.2532 14.1211 11.3314 13.98 11.4709L13.46 11.9909L11.66 10.9109L12.04 10.5309C12.33 10.2409 12.33 9.7609 12.04 9.4709C11.8989 9.33142 11.7084 9.2532 11.51 9.2532C11.3116 9.2532 11.1211 9.33142 10.98 9.4709L10.33 10.1209L8.46 9.0009L12 6.8709L16.61 9.6409C16.6947 9.69146 16.7885 9.72484 16.8861 9.73914C16.9837 9.75344 17.0832 9.74837 17.1788 9.72422C17.2745 9.70008 17.3644 9.65733 17.4436 9.59843C17.5227 9.53952 17.5894 9.46561 17.64 9.3809C17.6906 9.2962 17.7239 9.20237 17.7382 9.10477C17.7525 9.00716 17.7475 8.9077 17.7233 8.81206C17.6992 8.71641 17.6564 8.62646 17.5975 8.54733C17.5386 8.46821 17.4647 8.40146 17.38 8.3509L12.38 5.3509C12.2634 5.28212 12.1304 5.24585 11.995 5.24585C11.8596 5.24585 11.7266 5.28212 11.61 5.3509L6.61 8.3509C6.50059 8.41808 6.41022 8.51218 6.34754 8.62423C6.28485 8.73627 6.25194 8.86252 6.25194 8.9909C6.25194 9.11929 6.28485 9.24554 6.34754 9.35758C6.41022 9.46962 6.50059 9.56373 6.61 9.6309L9.22 11.2009L8.96 11.4609C8.67 11.7509 8.67 12.2309 8.96 12.5209C9.11 12.6709 9.3 12.7409 9.49 12.7409C9.68 12.7409 9.87 12.6709 10.02 12.5209L10.54 12.0009L12.34 13.0809L11.96 13.4609C11.67 13.7509 11.67 14.2309 11.96 14.5209C12.11 14.6709 12.3 14.7409 12.49 14.7409C12.68 14.7409 12.87 14.6709 13.02 14.5209L13.67 13.8709L15.53 14.9909L12 17.1309L7.39 14.3609C7.30537 14.3101 7.21153 14.2764 7.11387 14.262C7.01621 14.2475 6.91665 14.2525 6.82093 14.2767C6.72521 14.3009 6.63521 14.3437 6.5561 14.4028C6.477 14.4619 6.41035 14.536 6.36 14.6209C6.15 14.9809 6.26 15.4409 6.62 15.6509L11.62 18.6509C11.74 18.7209 11.87 18.7609 12.01 18.7609C12.15 18.7609 12.28 18.7209 12.4 18.6509L17.4 15.6509C17.63 15.5109 17.76 15.2709 17.76 15.0109C17.76 14.7509 17.61 14.4909 17.39 14.3609Z" fill="black"/>
</svg>
