<svg width="24" height="24" viewBox="0 0 24 24" fill="none" xmlns="http://www.w3.org/2000/svg">
<path d="M12 22.4299C11.52 22.4299 11.04 22.2999 10.61 22.0499L4.11 18.2299C3.27 17.7399 2.75 16.8299 2.75 15.8599V8.14989C2.75 7.17989 3.27 6.26989 4.11 5.77989L10.61 1.95989C11.47 1.44989 12.54 1.44989 13.4 1.95989L19.9 5.77989C20.74 6.26989 21.26 7.17989 21.26 8.14989V15.8599C21.26 16.8299 20.74 17.7399 19.9 18.2299L13.4 22.0499C12.96 22.2999 12.48 22.4299 12 22.4299ZM11.37 3.23989L4.87 7.05989C4.49 7.27989 4.25 7.69989 4.25 8.13989V15.8499C4.25 16.2899 4.49 16.6999 4.87 16.9299L11.37 20.7499C11.76 20.9799 12.25 20.9799 12.64 20.7499L19.14 16.9299C19.52 16.7099 19.76 16.2899 19.76 15.8499V8.13989C19.76 7.69989 19.52 7.28989 19.14 7.05989L12.64 3.23989C12.24 3.00989 11.76 3.00989 11.37 3.23989Z" fill="black"/>
<path d="M12 18.7511C11.87 18.7511 11.73 18.7111 11.61 18.6411L6.61 15.6411C6.52509 15.5907 6.45096 15.5241 6.39189 15.445C6.33282 15.3659 6.28997 15.2759 6.26581 15.1802C6.24165 15.0844 6.23665 14.9849 6.2511 14.8872C6.26554 14.7896 6.29916 14.6957 6.35 14.6111C6.56 14.2511 7.02 14.1411 7.38 14.3511L11.99 17.1211L15.53 14.9911L6.6 9.63109C6.49059 9.56392 6.40023 9.46982 6.33754 9.35777C6.27486 9.24573 6.24194 9.11948 6.24194 8.99109C6.24194 8.86271 6.27486 8.73646 6.33754 8.62442C6.40023 8.51237 6.49059 8.41827 6.6 8.35109L11.6 5.35109C11.84 5.21109 12.14 5.21109 12.37 5.35109L17.37 8.35109C17.73 8.56109 17.84 9.02109 17.63 9.38109C17.42 9.73109 16.96 9.85109 16.6 9.64109L11.99 6.87109L8.45 9.00109L17.38 14.3611C17.4894 14.4283 17.5798 14.5224 17.6425 14.6344C17.7052 14.7465 17.7381 14.8727 17.7381 15.0011C17.7381 15.1295 17.7052 15.2557 17.6425 15.3678C17.5798 15.4798 17.4894 15.5739 17.38 15.6411L12.38 18.6411C12.2659 18.712 12.1344 18.7501 12 18.7511Z" fill="black"/>
<path d="M9.50001 12.7509C9.31001 12.7509 9.12001 12.6809 8.97001 12.5309C8.83053 12.3898 8.7523 12.1993 8.7523 12.0009C8.7523 11.8025 8.83053 11.6121 8.97001 11.4709L10.97 9.47092C11.26 9.18092 11.74 9.18092 12.03 9.47092C12.32 9.76092 12.32 10.2409 12.03 10.5309L10.03 12.5309C9.88001 12.6809 9.69001 12.7509 9.50001 12.7509ZM12.5 14.7509C12.31 14.7509 12.12 14.6809 11.97 14.5309C11.8305 14.3898 11.7523 14.1993 11.7523 14.0009C11.7523 13.8025 11.8305 13.6121 11.97 13.4709L13.97 11.4709C14.26 11.1809 14.74 11.1809 15.03 11.4709C15.32 11.7609 15.32 12.2409 15.03 12.5309L13.03 14.5309C12.88 14.6809 12.69 14.7509 12.5 14.7509Z" fill="black"/>
</svg>
