<svg width="24" height="24" viewBox="0 0 24 24" fill="none" xmlns="http://www.w3.org/2000/svg">
<path d="M22 5.73804V18.258C22 20.318 20.32 21.998 18.26 21.998H17.74C15.68 21.998 14 20.318 14 18.258V11.878C14.35 11.838 14.69 11.788 15.01 11.718C17.05 11.348 18.6 10.648 19.72 9.93804C21.16 9.03804 22 7.43804 22 5.73804Z" fill="black"/>
<path d="M22 5.74C22 7.44 21.16 9.04 19.72 9.94C18.6 10.65 17.05 11.35 15.01 11.72C14.69 11.79 14.35 11.84 14 11.88V12.63C12.81 12.78 11.54 12.7 10.07 12.85L10 12.86V18.26C10 20.32 8.32 22 6.26 22H5.74C3.68 22 2 20.32 2 18.26C2 18.17 2 18.07 2.02 17.98C2.1 16.38 2.92 14.91 4.28 14.06C5.4 13.35 6.95 12.65 8.98 12.28C9.3 12.21 9.65 12.16 10 12.12V11.35C11.56 11.21 12.75 11.29 13.91 11.14L14 11.13V5.74C14 3.68 15.68 2 17.74 2H18.26C19.2513 2.00185 20.2016 2.39648 20.9025 3.09746C21.6035 3.79845 21.9981 4.74866 22 5.74Z" fill="black"/>
<path d="M10 5.74V12.12C9.65 12.16 9.3 12.21 8.98 12.28C6.95 12.65 5.4 13.35 4.28 14.06C2.92 14.91 2.1 16.38 2.02 17.98L2 18V5.74C2 3.68 3.68 2 5.74 2H6.26C8.32 2 10 3.68 10 5.74Z" fill="black"/>
</svg>
