<svg width="24" height="24" viewBox="0 0 24 24" fill="none" xmlns="http://www.w3.org/2000/svg">
<path d="M22 5.74C22 7.44 21.16 9.04 19.72 9.94C18.42 10.76 16.54 11.59 14 11.88V5.74C14 3.68 15.68 2 17.74 2H18.26C20.32 2 22 3.68 22 5.74Z" stroke="black" stroke-width="1.5" stroke-miterlimit="10"/>
<path d="M22 8V18.26C22 20.32 20.32 22 18.26 22H17.74C15.68 22 14 20.32 14 18.26V11.88C19.58 11.23 22 8 22 8ZM2 18.261C2 16.561 2.84 14.961 4.28 14.061C5.58 13.241 7.46 12.411 10 12.121V18.261C10 20.321 8.32 22.001 6.26 22.001H5.74C3.68 22.001 2 20.321 2 18.261Z" stroke="black" stroke-width="1.5" stroke-miterlimit="10"/>
<path d="M2 5.74C2 3.68 3.68 2 5.74 2H6.26C8.32 2 10 3.68 10 5.74V12.12C4.42 12.77 2 16 2 16V9.68" stroke="black" stroke-width="1.5" stroke-miterlimit="10" stroke-linecap="round" stroke-linejoin="round"/>
<path d="M10 12.0989C10.63 12.0389 11.29 11.9989 12 11.9989C12.71 11.9989 13.37 11.9589 14 11.8789" stroke="black" stroke-width="1.5" stroke-miterlimit="10"/>
<path d="M2 18V15.23" stroke="black" stroke-width="1.5" stroke-miterlimit="10" stroke-linecap="round" stroke-linejoin="round"/>
</svg>
