<svg width="24" height="24" viewBox="0 0 24 24" fill="none" xmlns="http://www.w3.org/2000/svg">
<path d="M22 5.7C22 7.4 21.2 9 19.7 9.9C18.4 10.7 16.5 11.5 14 11.8V5.7C14 3.7 15.7 2 17.7 2H18.2C20.3 2 22 3.7 22 5.7Z" stroke="black" stroke-width="1.5" stroke-miterlimit="10"/>
<path d="M22 8V18.3C22 20.4 20.3 22 18.3 22H17.8C15.7 22 14.1 20.3 14.1 18.3V11.9C19.6 11.2 22 8 22 8ZM2 18.3C2 16.6 2.8 15 4.3 14.1C5.6 13.3 7.5 12.5 10 12.2V18.3C10 20.4 8.3 22 6.3 22H5.7C3.7 22 2 20.3 2 18.3Z" stroke="black" stroke-width="1.5" stroke-miterlimit="10"/>
<path d="M10 12.1V5.7C10 3.7 8.3 2 6.2 2H5.7C3.7 2 2 3.7 2 5.7V16C2 16 4.4 12.8 10 12.1ZM10 12.1C10.6 12 11.3 12 12 12C12.7 12 13.4 12 14 11.9" stroke="black" stroke-width="1.5" stroke-miterlimit="10"/>
</svg>
