<svg width="24" height="24" viewBox="0 0 24 24" fill="none" xmlns="http://www.w3.org/2000/svg">
<path d="M13.25 12.72V5.74C13.25 4.54918 13.7231 3.40713 14.5651 2.56509C15.4071 1.72305 16.5492 1.25 17.74 1.25H18.26C19.4508 1.25 20.5929 1.72305 21.4349 2.56509C22.2769 3.40713 22.75 4.54918 22.75 5.74C22.75 7.73 21.77 9.54 20.12 10.57C18.37 11.67 16.34 12.36 14.09 12.62L13.25 12.72ZM17.74 2.75C16.09 2.75 14.75 4.09 14.75 5.74V11.01C16.45 10.72 17.98 10.14 19.32 9.3C20.51 8.55 21.25 7.19 21.25 5.74C21.25 4.09 19.91 2.75 18.26 2.75H17.74Z" fill="black"/>
<path d="M18.26 22.75H17.74C16.5492 22.75 15.4071 22.277 14.5651 21.4349C13.7231 20.5929 13.25 19.4508 13.25 18.26V11.21L13.91 11.13C19.07 10.53 21.38 7.57002 21.4 7.54002L22.75 5.77002V18.25C22.75 20.74 20.74 22.75 18.26 22.75ZM14.75 12.53V18.26C14.75 19.91 16.09 21.25 17.74 21.25H18.26C19.91 21.25 21.25 19.91 21.25 18.26V9.78002C20.01 10.77 17.89 12.04 14.75 12.53ZM6.26 22.751H5.74C4.54918 22.751 3.40713 22.278 2.56509 21.4359C1.72305 20.5939 1.25 19.4518 1.25 18.261C1.25 16.271 2.23 14.461 3.88 13.431C5.63 12.331 7.66 11.641 9.91 11.381L10.75 11.281V18.261C10.75 18.8507 10.6339 19.4345 10.4082 19.9793C10.1826 20.524 9.85184 21.019 9.43491 21.4359C9.01797 21.8529 8.523 22.1836 7.97825 22.4092C7.4335 22.6349 6.84964 22.751 6.26 22.751ZM9.25 12.991C7.55 13.281 6.02 13.861 4.68 14.701C3.49 15.451 2.75 16.811 2.75 18.261C2.75 19.911 4.09 21.251 5.74 21.251H6.26C7.91 21.251 9.25 19.911 9.25 18.261V12.991Z" fill="black"/>
<path d="M1.25 18.22V5.74C1.25 4.54918 1.72305 3.40713 2.56509 2.56509C3.40713 1.72305 4.54918 1.25 5.74 1.25H6.26C7.45082 1.25 8.59287 1.72305 9.43491 2.56509C10.2769 3.40713 10.75 4.54918 10.75 5.74V12.79L10.09 12.87C4.93 13.47 2.62 16.43 2.6 16.46L1.25 18.22ZM5.74 2.75C4.09 2.75 2.75 4.09 2.75 5.74V14.22C3.99 13.23 6.11 11.95 9.25 11.46V5.73C9.25 4.08 7.91 2.74 6.26 2.74H5.74V2.75Z" fill="black"/>
<path d="M10.07 12.8499L9.92999 11.3599C11.41 11.2199 12.71 11.2999 13.91 11.1399L14.1 12.6299C12.87 12.7799 11.58 12.6999 10.07 12.8499Z" fill="black"/>
</svg>
