<svg width="24" height="24" viewBox="0 0 24 24" fill="none" xmlns="http://www.w3.org/2000/svg">
<path d="M5 15C3.98 15 3.04 15.39 2.33 16.03C2.17 16.17 2.02 16.32 1.89 16.49C1.31246 17.1989 0.998005 18.0857 1 19C1 21.21 2.8 23 5 23C5.96 23 6.83 22.6601 7.52 22.1101C8.08 21.6401 8.52 21.03 8.76 20.33C8.92 19.92 9 19.47 9 19C9 16.8 7.21 15 5 15ZM7.4 18.23C7.4 18.51 7.18 18.72 6.91 18.72C6.64 18.72 6.42 18.51 6.42 18.23V18.13C6.42 18.02 6.34 17.93 6.23 17.93H4.23C4.27179 18.0042 4.29323 18.0881 4.29216 18.1732C4.29108 18.2584 4.26752 18.3417 4.22387 18.4148C4.18022 18.4879 4.11803 18.5481 4.04359 18.5895C3.96915 18.6308 3.88512 18.6517 3.8 18.65C3.68 18.65 3.55 18.6 3.46 18.51L2.74 17.79C2.69547 17.7426 2.65839 17.6886 2.63 17.63C2.58997 17.51 2.58997 17.3801 2.63 17.26C2.66 17.21 2.69 17.14 2.74 17.1L3.46 16.39C3.65 16.19 3.96 16.19 4.14 16.39C4.3 16.54 4.32 16.78 4.22 16.96H6.23C6.87 16.96 7.39 17.48 7.39 18.13V18.23H7.4ZM6.2 21.76C6.13508 21.7628 6.07033 21.7517 6.01 21.7275C5.94968 21.7034 5.89514 21.6668 5.85 21.6201C5.77553 21.5473 5.72728 21.4518 5.7128 21.3487C5.69833 21.2456 5.71844 21.1405 5.77 21.05H3.76C3.12 21.05 2.6 20.53 2.6 19.88V19.7801C2.6 19.5001 2.82 19.2901 3.09 19.2901C3.36 19.2901 3.58 19.5001 3.58 19.7801V19.88C3.58 19.99 3.66 20.08 3.77 20.08H5.78C5.68 19.89 5.7 19.66 5.86 19.5C6.05 19.31 6.36 19.31 6.54 19.5L7.26 20.22C7.3 20.26 7.34 20.32 7.37 20.38C7.41 20.5 7.41 20.63 7.37 20.75C7.34 20.8 7.3 20.86 7.26 20.9L6.54 21.6101C6.45 21.7101 6.32 21.76 6.2 21.76ZM14.85 3.95005V7.75005H13.35V3.95005C13.35 3.68005 13.11 3.55005 12.95 3.55005C12.9 3.55005 12.85 3.56005 12.8 3.58005L4.87 6.57005C4.34 6.77005 4 7.27005 4 7.84005V8.51005C3.09 9.19005 2.5 10.28 2.5 11.51V7.84005C2.5 6.65005 3.23 5.59005 4.34 5.17005L12.28 2.17005C12.5 2.09005 12.73 2.05005 12.95 2.05005C13.95 2.05005 14.85 2.86005 14.85 3.95005ZM21.5 14.5V15.5C21.5 15.6309 21.4487 15.7566 21.3571 15.8501C21.2655 15.9436 21.1409 15.9974 21.01 16H19.55C19.02 16 18.54 15.61 18.5 15.09C18.47 14.78 18.59 14.49 18.79 14.29C18.8805 14.1963 18.9894 14.1221 19.1098 14.0722C19.2303 14.0223 19.3597 13.9978 19.49 14H21C21.29 14.01 21.5 14.23 21.5 14.5Z" fill="black"/>
<path d="M19.48 12.95H20.5C21.05 12.95 21.5 12.5 21.5 11.95V11.51C21.5 9.44 19.81 7.75 17.74 7.75H6.26C5.41 7.75 4.63 8.03 4 8.51C3.09 9.19 2.5 10.28 2.5 11.51V13.29C2.5 13.67 2.9 13.91 3.26 13.79C3.82 13.6 4.41 13.5 5 13.5C8.03 13.5 10.5 15.97 10.5 19C10.5 19.72 10.31 20.51 10.01 21.21C9.85 21.57 10.1 22 10.49 22H17.74C19.81 22 21.5 20.31 21.5 18.24V18.05C21.5 17.5 21.05 17.05 20.5 17.05H19.63C18.67 17.05 17.75 16.46 17.5 15.53C17.3 14.77 17.54 14.03 18.04 13.55C18.41 13.17 18.92 12.95 19.48 12.95ZM14 12.75H9C8.59 12.75 8.25 12.41 8.25 12C8.25 11.59 8.59 11.25 9 11.25H14C14.41 11.25 14.75 11.59 14.75 12C14.75 12.41 14.41 12.75 14 12.75Z" fill="black"/>
</svg>
