<svg width="24" height="24" viewBox="0 0 24 24" fill="none" xmlns="http://www.w3.org/2000/svg">
<path opacity="0.4" d="M19.48 12.95H21.5V11.51C21.5 9.44 19.81 7.75 17.74 7.75H6.26C4.19 7.75 2.5 9.44 2.5 11.51V15.16C3.29 14.44 4.35 14 5.5 14C6.09095 14 6.67611 14.1164 7.22208 14.3425C7.76804 14.5687 8.26412 14.9002 8.68198 15.318C9.09984 15.7359 9.43131 16.232 9.65746 16.7779C9.8836 17.3239 10 17.9091 10 18.5C10 19.03 9.91 19.53 9.74 20C9.47 20.79 8.97 21.47 8.34 22H17.74C19.81 22 21.5 20.31 21.5 18.24V17.05H19.6C18.52 17.05 17.53 16.26 17.44 15.18C17.38 14.55 17.62 13.96 18.04 13.55C18.41 13.17 18.92 12.95 19.48 12.95Z" fill="black"/>
<path d="M5.5 14C4.35 14 3.29 14.44 2.5 15.16C2.02627 15.5776 1.64733 16.0917 1.38862 16.6678C1.1299 17.2438 0.997401 17.8686 0.999999 18.5C0.999999 19.6935 1.47411 20.8381 2.31802 21.682C3.16193 22.5259 4.30653 23 5.5 23C6.58 23 7.56 22.62 8.34 22C8.97 21.47 9.47 20.79 9.74 20C9.91 19.53 10 19.03 10 18.5C10 17.9091 9.8836 17.3239 9.65746 16.778C9.43131 16.232 9.09984 15.7359 8.68198 15.3181C8.26412 14.9002 7.76804 14.5687 7.22207 14.3426C6.67611 14.1164 6.09095 14 5.5 14ZM8.2 17.63C8.2 17.94 7.95 18.18 7.65 18.18C7.35 18.18 7.1 17.94 7.1 17.63V17.5201C7.1 17.4001 7.01 17.3 6.89 17.3H4.63C4.67569 17.3834 4.69888 17.4772 4.6973 17.5722C4.69571 17.6672 4.6694 17.7602 4.62095 17.8419C4.57251 17.9237 4.5036 17.9914 4.42102 18.0384C4.33844 18.0854 4.24503 18.1101 4.15 18.1101C4.01 18.1101 3.87 18.0501 3.77 17.9501L2.96 17.14C2.90882 17.0883 2.86808 17.0272 2.84 16.96C2.79002 16.8245 2.79002 16.6756 2.84 16.5401C2.87 16.4801 2.91 16.4101 2.96 16.3601L3.77 15.5601C3.98 15.3401 4.33 15.3401 4.54 15.5601C4.72 15.7301 4.74 16.0001 4.63 16.2001H6.89C7.61 16.2001 8.2 16.7901 8.2 17.5201V17.63ZM6.85 21.6C6.7 21.6 6.56 21.5501 6.46 21.4401C6.37682 21.358 6.32294 21.2509 6.30667 21.1353C6.29041 21.0196 6.31266 20.9018 6.37 20.8H4.11C3.39 20.8 2.8 20.21 2.8 19.48V19.3701C2.8 19.0601 3.05 18.82 3.35 18.82C3.65 18.82 3.9 19.0601 3.9 19.3701V19.48C3.9 19.6 3.99 19.7001 4.11 19.7001H6.37C6.31269 19.5965 6.29048 19.4772 6.30671 19.3601C6.32293 19.2429 6.37672 19.1341 6.46 19.05C6.56281 18.9493 6.70104 18.8928 6.845 18.8928C6.98896 18.8928 7.12719 18.9493 7.23 19.05L8.04 19.8601C8.09 19.9101 8.13 19.9701 8.16 20.0401C8.21 20.1701 8.21 20.32 8.16 20.46C8.13 20.52 8.09 20.59 8.04 20.64L7.23 21.4401C7.13 21.5501 6.99 21.6 6.85 21.6ZM14.85 3.95205V7.75205H6.26C4.19 7.75205 2.5 9.44205 2.5 11.512V7.84205C2.5 6.65205 3.23 5.59205 4.34 5.17205L12.28 2.17205C13.52 1.71205 14.85 2.62205 14.85 3.95205ZM22.559 13.97V16.0301C22.559 16.5801 22.119 17.03 21.559 17.05H19.599C18.519 17.05 17.529 16.26 17.439 15.18C17.379 14.55 17.619 13.96 18.039 13.55C18.409 13.17 18.919 12.95 19.479 12.95H21.559C22.119 12.97 22.559 13.42 22.559 13.97ZM14 12.75H7C6.59 12.75 6.25 12.41 6.25 12C6.25 11.59 6.59 11.25 7 11.25H14C14.41 11.25 14.75 11.59 14.75 12C14.75 12.41 14.41 12.75 14 12.75Z" fill="black"/>
</svg>
