<svg width="24" height="24" viewBox="0 0 24 24" fill="none" xmlns="http://www.w3.org/2000/svg">
<path d="M2.5 13.24V11.51C2.5 9.44 4.19 7.75 6.26 7.75H17.74C19.81 7.75 21.5 9.44 21.5 11.51V12.95H19.48C18.92 12.95 18.41 13.17 18.04 13.55C17.62 13.96 17.38 14.55 17.44 15.18C17.53 16.26 18.52 17.05 19.6 17.05H21.5V18.24C21.5 20.31 19.81 22 17.74 22H12.26" stroke="black" stroke-width="1.5" stroke-linecap="round" stroke-linejoin="round"/>
<path d="M2.5 12.41V7.84003C2.5 6.65003 3.23 5.59003 4.34 5.17003L12.28 2.17003C12.5677 2.06161 12.8774 2.02463 13.1825 2.06225C13.4876 2.09988 13.7791 2.21098 14.0318 2.38603C14.2846 2.56108 14.491 2.79484 14.6335 3.06725C14.7761 3.33966 14.8503 3.64259 14.85 3.95003V7.75003M7 12H14M22.559 13.97V16.03C22.559 16.58 22.119 17.03 21.559 17.05H19.599C18.519 17.05 17.529 16.26 17.439 15.18C17.379 14.55 17.619 13.96 18.039 13.55C18.409 13.17 18.919 12.95 19.479 12.95H21.559C22.119 12.97 22.559 13.42 22.559 13.97Z" stroke="black" stroke-width="1.5" stroke-linecap="round" stroke-linejoin="round"/>
<path d="M3 16.5H8.34C8.98 16.5 9.5 17.02 9.5 17.66V18.94" stroke="black" stroke-width="1.5" stroke-miterlimit="10" stroke-linecap="round" stroke-linejoin="round"/>
<path d="M4.22 15.28L3 16.5L4.22 17.72M9.5 21.78H4.16C3.52 21.78 3 21.26 3 20.62V19.34" stroke="black" stroke-width="1.5" stroke-miterlimit="10" stroke-linecap="round" stroke-linejoin="round"/>
<path d="M8.28101 23.0001L9.50101 21.7801L8.28101 20.5601" stroke="black" stroke-width="1.5" stroke-miterlimit="10" stroke-linecap="round" stroke-linejoin="round"/>
</svg>
