<svg width="24" height="24" viewBox="0 0 24 24" fill="none" xmlns="http://www.w3.org/2000/svg">
<path d="M17.742 22.75H12.262C11.852 22.75 11.512 22.41 11.512 22C11.512 21.59 11.852 21.25 12.262 21.25H17.742C19.402 21.25 20.752 19.9 20.752 18.24V17.8H19.602C18.092 17.8 16.812 16.68 16.692 15.24C16.612 14.41 16.912 13.6 17.512 13.01C18.022 12.49 18.722 12.2 19.472 12.2H20.742V11.51C20.742 9.85 19.392 8.5 17.732 8.5H6.252C4.592 8.5 3.242 9.85 3.242 11.51V13.24C3.242 13.65 2.902 13.99 2.492 13.99C2.082 13.99 1.742 13.65 1.742 13.24V11.51C1.742 9.02 3.762 7 6.252 7H17.732C20.222 7 22.242 9.02 22.242 11.51V12.95C22.242 13.36 21.902 13.7 21.492 13.7H19.472C19.122 13.7 18.802 13.83 18.572 14.07C18.282 14.35 18.142 14.73 18.182 15.11C18.242 15.77 18.872 16.3 19.592 16.3H21.492C21.902 16.3 22.242 16.64 22.242 17.05V18.24C22.2438 18.8319 22.1288 19.4184 21.9034 19.9658C21.678 20.5131 21.3468 21.0106 20.9287 21.4296C20.5106 21.8487 20.0139 22.181 19.467 22.4076C18.9202 22.6342 18.3339 22.7505 17.742 22.75Z" fill="black"/>
<path d="M2.5 13.16C2.09 13.16 1.75 12.82 1.75 12.41V7.84002C1.75 6.35002 2.69 5.00002 4.08 4.47002L12.02 1.47002C12.84 1.16002 13.75 1.27002 14.46 1.77002C15.18 2.27002 15.6 3.08002 15.6 3.95002V7.75002C15.6 8.16002 15.26 8.50002 14.85 8.50002C14.44 8.50002 14.1 8.16002 14.1 7.75002V3.95002C14.1 3.57002 13.92 3.22002 13.6 3.00002C13.28 2.78002 12.9 2.73002 12.54 2.87002L4.6 5.87002C3.79 6.18002 3.24 6.97002 3.24 7.84002V12.41C3.25 12.83 2.91 13.16 2.5 13.16ZM19.599 17.8C18.089 17.8 16.809 16.68 16.689 15.24C16.609 14.41 16.909 13.6 17.509 13.01C18.019 12.49 18.719 12.2 19.469 12.2H21.549C22.539 12.23 23.299 13.01 23.299 13.97V16.03C23.299 16.99 22.539 17.77 21.579 17.8H19.599ZM21.529 13.7H19.479C19.129 13.7 18.809 13.83 18.579 14.07C18.289 14.35 18.149 14.73 18.189 15.11C18.249 15.77 18.879 16.3 19.599 16.3H21.559C21.689 16.3 21.809 16.18 21.809 16.03V13.97C21.809 13.82 21.689 13.71 21.529 13.7Z" fill="black"/>
<path d="M14 12.75H7C6.59 12.75 6.25 12.41 6.25 12C6.25 11.59 6.59 11.25 7 11.25H14C14.41 11.25 14.75 11.59 14.75 12C14.75 12.41 14.41 12.75 14 12.75ZM9.5 19.69C9.09 19.69 8.75 19.35 8.75 18.94V17.66C8.75 17.44 8.57 17.25 8.34 17.25H3C2.59 17.25 2.25 16.91 2.25 16.5C2.25 16.09 2.59 15.75 3 15.75H8.34C9.39 15.75 10.25 16.61 10.25 17.66V18.94C10.25 19.35 9.91 19.69 9.5 19.69Z" fill="black"/>
<path d="M4.221 18.469C4.031 18.469 3.841 18.399 3.691 18.249L2.471 17.029C2.33176 16.8877 2.2537 16.6973 2.2537 16.499C2.2537 16.3006 2.33176 16.1103 2.471 15.969L3.691 14.749C3.981 14.459 4.461 14.459 4.751 14.749C5.041 15.039 5.041 15.519 4.751 15.809L4.061 16.499L4.751 17.189C5.041 17.479 5.041 17.959 4.751 18.249C4.601 18.399 4.411 18.469 4.221 18.469ZM9.5 22.53H4.16C3.11 22.53 2.25 21.67 2.25 20.62V19.34C2.25 18.93 2.59 18.59 3 18.59C3.41 18.59 3.75 18.93 3.75 19.34V20.62C3.75 20.84 3.93 21.03 4.16 21.03H9.5C9.91 21.03 10.25 21.37 10.25 21.78C10.25 22.19 9.91 22.53 9.5 22.53Z" fill="black"/>
<path d="M8.279 23.75C8.089 23.75 7.899 23.68 7.749 23.53C7.60976 23.3887 7.5317 23.1984 7.5317 23C7.5317 22.8016 7.60976 22.6113 7.749 22.47L8.439 21.78L7.749 21.09C7.60952 20.9489 7.5313 20.7584 7.5313 20.56C7.5313 20.3616 7.60952 20.1711 7.749 20.03C8.039 19.74 8.519 19.74 8.809 20.03L10.029 21.25C10.319 21.54 10.319 22.02 10.029 22.31L8.809 23.53C8.669 23.68 8.469 23.75 8.279 23.75Z" fill="black"/>
</svg>
