<svg width="24" height="24" viewBox="0 0 24 24" fill="none" xmlns="http://www.w3.org/2000/svg">
<path d="M15 2V12C15 13.1 14.1 14 13 14H2V7.62C2.73 8.49 3.85 9.03 5.09 9C6.1 8.98 7.01 8.59 7.69 7.94C8 7.68 8.26 7.35 8.46 6.99C8.82 6.38 9.02 5.66 9 4.91C8.97 3.74 8.45 2.71 7.64 2H15Z" stroke="black" stroke-width="1.5" stroke-linecap="round" stroke-linejoin="round"/>
<path d="M22 14V17C22 18.66 20.66 20 19 20H18C18 18.9 17.1 18 16 18C14.9 18 14 18.9 14 20H10C10 18.9 9.1 18 8 18C6.9 18 6 18.9 6 20H5C3.34 20 2 18.66 2 17V14H13C14.1 14 15 13.1 15 12V5H16.84C17.56 5 18.22 5.39 18.58 6.01L20.29 9H19C18.45 9 18 9.45 18 10V13C18 13.55 18.45 14 19 14H22Z" stroke="black" stroke-width="1.5" stroke-linecap="round" stroke-linejoin="round"/>
<path d="M8 22C8.53043 22 9.03914 21.7893 9.41421 21.4142C9.78929 21.0391 10 20.5304 10 20C10 19.4696 9.78929 18.9609 9.41421 18.5858C9.03914 18.2107 8.53043 18 8 18C7.46957 18 6.96086 18.2107 6.58579 18.5858C6.21071 18.9609 6 19.4696 6 20C6 20.5304 6.21071 21.0391 6.58579 21.4142C6.96086 21.7893 7.46957 22 8 22ZM16 22C16.5304 22 17.0391 21.7893 17.4142 21.4142C17.7893 21.0391 18 20.5304 18 20C18 19.4696 17.7893 18.9609 17.4142 18.5858C17.0391 18.2107 16.5304 18 16 18C15.4696 18 14.9609 18.2107 14.5858 18.5858C14.2107 18.9609 14 19.4696 14 20C14 20.5304 14.2107 21.0391 14.5858 21.4142C14.9609 21.7893 15.4696 22 16 22ZM22 12V14H19C18.45 14 18 13.55 18 13V10C18 9.45 18.45 9 19 9H20.29L22 12Z" stroke="black" stroke-width="1.5" stroke-linecap="round" stroke-linejoin="round"/>
<path d="M6.07001 6.04005L3.96001 3.93005M6.04001 3.96005L3.93001 6.07005M9.00001 5.00005C9.00001 5.75005 8.79001 6.46005 8.42001 7.06005C8.21001 7.42005 7.94001 7.74005 7.63001 8.00005C6.93001 8.63005 6.01001 9.00005 5.00001 9.00005C4.31057 9.00148 3.63265 8.82335 3.03297 8.48318C2.43329 8.14301 1.93254 7.65254 1.58001 7.06005C1.19935 6.44047 0.998531 5.72722 1.00001 5.00005C1.00001 3.74005 1.58001 2.61005 2.50001 1.88005C3.088 1.40877 3.79719 1.11322 4.54585 1.02745C5.2945 0.941686 6.05216 1.06919 6.7315 1.39528C7.41084 1.72136 7.98423 2.23276 8.38559 2.87053C8.78694 3.5083 8.99993 4.2465 9.00001 5.00005Z" stroke="black" stroke-width="1.5" stroke-miterlimit="10" stroke-linecap="round" stroke-linejoin="round"/>
</svg>
