<svg width="24" height="24" viewBox="0 0 24 24" fill="none" xmlns="http://www.w3.org/2000/svg">
<path d="M2 9.98V9C2 4 4 2 9 2H15C20 2 22 4 22 9V15C22 20 20 22 15 22H14" stroke="black" stroke-width="1.5" stroke-linecap="round" stroke-linejoin="round"/>
<path d="M13 11.0005L18.01 5.98047M18.01 5.98047H14M18.01 5.98047V9.99047M2 18.8505V16.1505C2 13.9005 2.9 13.0005 5.15 13.0005H7.85C10.1 13.0005 11 13.9005 11 16.1505V18.8505C11 21.1005 10.1 22.0005 7.85 22.0005H5.15" stroke="black" stroke-width="1.5" stroke-linecap="round" stroke-linejoin="round"/>
</svg>
