<svg width="24" height="24" viewBox="0 0 24 24" fill="none" xmlns="http://www.w3.org/2000/svg">
<path opacity="0.4" d="M16.48 2H8.52C5.07 2 3 4.06 3 7.52V15.47C3 18.94 5.07 21 8.52 21H16.47C19.93 21 21.99 18.94 21.99 15.48V7.52C22 4.06 19.93 2 16.48 2Z" fill="black"/>
<path d="M11 16.15V18.85C11 21.1 10.1 22 7.85 22H5.15C2.9 22 2 21.1 2 18.85V16.15C2 13.9 2.9 13 5.15 13H7.85C10.1 13 11 13.9 11 16.15ZM18.75 5.95C18.75 5.86 18.73 5.78 18.7 5.69C18.7 5.68 18.69 5.67 18.69 5.67C18.6585 5.59933 18.6145 5.53495 18.56 5.48C18.5426 5.46046 18.5224 5.44361 18.5 5.43C18.45 5.39 18.4 5.35 18.35 5.33C18.33 5.32 18.3 5.31 18.28 5.3C18.197 5.26807 18.1089 5.25114 18.02 5.25H14C13.59 5.25 13.25 5.59 13.25 6C13.25 6.41 13.58 6.72 14 6.72H16.21L12.47 10.47C12.18 10.76 12.18 11.24 12.47 11.53C12.62 11.68 12.81 11.75 13 11.75C13.19 11.75 13.38 11.68 13.53 11.53L17.26 7.79V9.99C17.26 10.4 17.6 10.74 18.01 10.74C18.42 10.74 18.76 10.4 18.76 9.99V5.97C18.76 5.96 18.76 5.96 18.75 5.95Z" fill="black"/>
</svg>
