<svg width="24" height="24" viewBox="0 0 24 24" fill="none" xmlns="http://www.w3.org/2000/svg">
<path d="M15 22.75H14C13.59 22.75 13.25 22.41 13.25 22C13.25 21.59 13.59 21.25 14 21.25H15C19.61 21.25 21.25 19.61 21.25 15V9C21.25 4.39 19.61 2.75 15 2.75H9C4.39 2.75 2.75 4.39 2.75 9V9.98C2.75 10.39 2.41 10.73 2 10.73C1.59 10.73 1.25 10.39 1.25 9.98V9C1.25 3.57 3.57 1.25 9 1.25H15C20.43 1.25 22.75 3.57 22.75 9V15C22.75 20.43 20.43 22.75 15 22.75Z" fill="black"/>
<path d="M13 11.7487C12.81 11.7487 12.62 11.6788 12.47 11.5288C12.3305 11.3876 12.2523 11.1972 12.2523 10.9987C12.2523 10.8003 12.3305 10.6099 12.47 10.4688L16.21 6.71875H14C13.8011 6.71875 13.6103 6.63973 13.4697 6.49908C13.329 6.35843 13.25 6.16766 13.25 5.96875C13.25 5.76984 13.329 5.57907 13.4697 5.43842C13.6103 5.29777 13.8011 5.21875 14 5.21875H18.01C18.31 5.21875 18.59 5.39875 18.7 5.67875C18.82 5.95875 18.75 6.27875 18.54 6.49875L13.53 11.5288C13.38 11.6788 13.19 11.7487 13 11.7487Z" fill="black"/>
<path d="M18.01 10.7388C17.6 10.7388 17.26 10.3988 17.26 9.98875V5.96875C17.26 5.55875 17.6 5.21875 18.01 5.21875C18.42 5.21875 18.76 5.55875 18.76 5.96875V9.97875C18.76 10.3988 18.42 10.7388 18.01 10.7388ZM7.85 22.7498H5.15C2.49 22.7498 1.25 21.5098 1.25 18.8498V16.1497C1.25 13.4897 2.49 12.2498 5.15 12.2498H7.85C10.51 12.2498 11.75 13.4897 11.75 16.1497V18.8498C11.75 21.5098 10.51 22.7498 7.85 22.7498ZM5.15 13.7498C3.31 13.7498 2.75 14.3097 2.75 16.1497V18.8498C2.75 20.6898 3.31 21.2498 5.15 21.2498H7.85C9.69 21.2498 10.25 20.6898 10.25 18.8498V16.1497C10.25 14.3097 9.69 13.7498 7.85 13.7498H5.15Z" fill="black"/>
</svg>
