<svg width="24" height="24" viewBox="0 0 24 24" fill="none" xmlns="http://www.w3.org/2000/svg">
<path d="M12 11.4878C10.68 11.4878 9.44001 10.9778 8.51001 10.0378L2.78001 4.30782C2.52842 4.05648 2.35702 3.73618 2.28748 3.38743C2.21793 3.03867 2.25337 2.67713 2.38931 2.34851C2.52526 2.0199 2.75559 1.73898 3.05119 1.54128C3.3468 1.34358 3.69439 1.23797 4.05001 1.23782H5.46001C6.50001 1.23782 7.48001 1.64782 8.21001 2.37782L11.79 5.95782C11.94 6.10782 12.06 6.10782 12.21 5.95782L15.79 2.37782C16.1498 2.01478 16.5782 1.727 17.0504 1.53127C17.5225 1.33555 18.0289 1.23579 18.54 1.23782H19.95C20.3056 1.23797 20.6532 1.34358 20.9488 1.54128C21.2444 1.73898 21.4748 2.0199 21.6107 2.34851C21.7466 2.67713 21.7821 3.03867 21.7125 3.38743C21.643 3.73618 21.4716 4.05648 21.22 4.30782L15.49 10.0378C14.56 10.9778 13.32 11.4878 12 11.4878ZM4.05001 2.74782C3.88001 2.74782 3.80001 2.86782 3.77001 2.92782C3.74001 2.98782 3.71001 3.12782 3.83001 3.24782L9.56001 8.97782C10.86 10.2778 13.13 10.2778 14.43 8.97782L20.16 3.24782C20.28 3.12782 20.25 2.98782 20.22 2.92782C20.1969 2.87312 20.1578 2.82667 20.1078 2.79456C20.0579 2.76244 19.9994 2.74615 19.94 2.74782H18.53C17.89 2.74782 17.29 2.99782 16.84 3.44782L13.26 7.02782C12.56 7.72782 11.42 7.72782 10.72 7.02782L7.14001 3.44782C6.69001 2.99782 6.09001 2.74782 5.45001 2.74782H4.05001ZM19.95 22.7188H18.54C17.5 22.7188 16.52 22.3088 15.79 21.5788L12.21 17.9988C12.06 17.8488 11.94 17.8488 11.79 17.9988L8.21001 21.5788C7.85024 21.9419 7.4218 22.2296 6.94965 22.4254C6.4775 22.6211 5.97111 22.7209 5.46001 22.7188H4.05001C3.69439 22.7187 3.3468 22.6131 3.05119 22.4154C2.75559 22.2177 2.52526 21.9367 2.38931 21.6081C2.25337 21.2795 2.21793 20.918 2.28748 20.5692C2.35702 20.2205 2.52842 19.9002 2.78001 19.6488L8.51001 13.9188C8.96711 13.4586 9.51089 13.0935 10.1099 12.8446C10.7089 12.5957 11.3513 12.468 12 12.4688C13.32 12.4688 14.56 12.9788 15.49 13.9188L21.22 19.6488C21.4716 19.9002 21.643 20.2205 21.7125 20.5692C21.7821 20.918 21.7466 21.2795 21.6107 21.6081C21.4748 21.9367 21.2444 22.2177 20.9488 22.4154C20.6532 22.6131 20.3056 22.7187 19.95 22.7188ZM12 16.4188C12.46 16.4188 12.92 16.5988 13.27 16.9488L16.85 20.5288C17.3 20.9788 17.9 21.2288 18.54 21.2288H19.95C20.12 21.2288 20.2 21.1088 20.23 21.0488C20.26 20.9888 20.29 20.8488 20.17 20.7288L14.44 14.9988C13.14 13.6988 10.87 13.6988 9.57001 14.9988L3.84001 20.7288C3.72001 20.8488 3.75001 20.9888 3.78001 21.0488C3.81001 21.1088 3.88001 21.2288 4.06001 21.2288H5.47001C6.11001 21.2288 6.71001 20.9788 7.16001 20.5288L10.74 16.9488C11.08 16.5888 11.54 16.4188 12 16.4188Z" fill="black"/>
</svg>
