<svg width="24" height="24" viewBox="0 0 24 24" fill="none" xmlns="http://www.w3.org/2000/svg">
<path d="M5.46 2H4.05C3.12 2 2.65 3.13 3.31 3.79L9.04 9.52C9.42909 9.90986 9.89125 10.2192 10.4 10.4302C10.9088 10.6412 11.4542 10.7499 12.005 10.7499C12.5558 10.7499 13.1012 10.6412 13.61 10.4302C14.1187 10.2192 14.5809 9.90986 14.97 9.52L20.7 3.79C21.36 3.13 20.89 2 19.96 2H18.55C17.72 2 16.92 2.33 16.33 2.92L12.75 6.5C12.34 6.91 11.68 6.91 11.27 6.5L7.69 2.92C7.09 2.33 6.29 2 5.46 2Z" stroke="black" stroke-width="1.5" stroke-miterlimit="10" stroke-linecap="round" stroke-linejoin="round"/>
<path opacity="0.4" d="M5.46 21.9691H4.05C3.12 21.9691 2.65 20.8391 3.31 20.1791L9.04 14.4491C9.42909 14.0592 9.89125 13.7499 10.4 13.5389C10.9088 13.3279 11.4542 13.2192 12.005 13.2192C12.5558 13.2192 13.1012 13.3279 13.61 13.5389C14.1187 13.7499 14.5809 14.0592 14.97 14.4491L20.7 20.1791C21.36 20.8391 20.89 21.9691 19.96 21.9691H18.55C17.72 21.9691 16.92 21.6391 16.33 21.0491L12.75 17.4691C12.34 17.0591 11.68 17.0591 11.27 17.4691L7.69 21.0491C7.09 21.6391 6.29 21.9691 5.46 21.9691Z" stroke="black" stroke-width="1.5" stroke-miterlimit="10" stroke-linecap="round" stroke-linejoin="round"/>
</svg>
