<svg width="24" height="24" viewBox="0 0 24 24" fill="none" xmlns="http://www.w3.org/2000/svg">
<path d="M19.402 10.53C19.922 10.43 20.282 11.02 19.962 11.44L13.012 20.29C12.662 20.74 11.942 20.45 12.002 19.89L12.702 12.29C12.722 12.04 12.912 11.83 13.162 11.78L19.402 10.53ZM21.64 7.69104C21.86 7.93104 21.74 8.32104 21.43 8.39104L12.99 10.081C12.44 10.191 12.08 9.52104 12.48 9.12104L17.5 4.10104C17.73 3.87104 18.1 3.88104 18.32 4.11104L21.64 7.69104ZM14.691 3.19104C15.161 3.25104 15.351 3.82104 15.021 4.16104L11.461 7.72104C11.251 7.93104 10.911 7.94104 10.681 7.74104L5.34099 2.99104C4.92099 2.62104 5.24099 1.93104 5.79099 2.00104L14.691 3.19104ZM10.72 10.073C10.99 10.313 11.12 10.663 11.1 11.013L10.24 21.473C10.19 22.073 9.35999 22.193 9.13999 21.633L2.28999 3.96304C2.06999 3.40304 2.74999 2.93304 3.19999 3.33304L10.72 10.073Z" fill="black"/>
</svg>
