<svg width="24" height="24" viewBox="0 0 24 24" fill="none" xmlns="http://www.w3.org/2000/svg">
<path d="M20.66 8.04004C20.66 8.27004 20.6 8.51004 20.45 8.70004L11.07 20.64C10.73 21.07 10.33 21.22 9.99 21.1L10 21L11 10L20.04 8.19004L20.66 8.04004Z" fill="black"/>
<path opacity="0.4" d="M20.66 8.0398L20.04 8.1898L11 9.9998L16.95 4.0498C17.07 4.0998 17.17 4.1698 17.24 4.2398L20.37 7.3698C20.55 7.5498 20.65 7.7898 20.66 8.0398Z" fill="black"/>
<path d="M16.95 4.05019L11 10.0002L3.01 2.90019L2.66 2.56019V2.55019C2.86 2.29019 3.22 2.16019 3.7 2.23019L16.66 3.96019C16.75 3.97019 16.85 4.00019 16.95 4.05019Z" fill="black"/>
<path opacity="0.4" d="M11 9.99908L10 20.9991L9.99 21.0991C9.74 21.0091 9.51 20.7691 9.36 20.3891L2.64 3.58908C2.47 3.16908 2.49 2.80908 2.66 2.55908L3.01 2.89908L11 9.99908Z" fill="black"/>
</svg>
