<svg width="24" height="24" viewBox="0 0 24 24" fill="none" xmlns="http://www.w3.org/2000/svg">
<path d="M10.23 21.8798C10.16 21.8798 10.09 21.8798 10.02 21.8598C9.43 21.7798 8.93 21.3398 8.66 20.6598L1.94 3.85977C1.67 3.18977 1.73 2.53977 2.09 2.06977C2.46 1.59977 3.07 1.37977 3.79 1.47977L16.76 3.20977C17.11 3.25977 17.52 3.45977 17.77 3.70977L20.9 6.83977C21.51 7.45977 21.58 8.46977 21.04 9.15977L11.66 21.0998C11.26 21.6098 10.75 21.8798 10.23 21.8798ZM3.46 2.95977C3.34 2.95977 3.28 2.98977 3.27 2.99977C3.27 3.00977 3.25 3.11977 3.33 3.30977L10.05 20.1098C10.13 20.3098 10.22 20.3798 10.23 20.3798C10.24 20.3798 10.34 20.3398 10.47 20.1698L19.85 8.22977C19.92 8.14977 19.91 7.96977 19.83 7.89977L16.7 4.76977C16.654 4.73862 16.6034 4.71499 16.55 4.69977L3.6 2.96977C3.55 2.95977 3.5 2.95977 3.46 2.95977Z" fill="black"/>
<path d="M10 21.7488H9.93001C9.73264 21.731 9.55035 21.6358 9.42293 21.484C9.29552 21.3323 9.23335 21.1362 9.25001 20.9388L10.22 10.3188L2.51001 3.46879C2.43603 3.4034 2.37575 3.324 2.33266 3.23518C2.28956 3.14636 2.26449 3.04987 2.25891 2.9513C2.25334 2.85273 2.26735 2.75403 2.30015 2.66091C2.33295 2.56779 2.38388 2.4821 2.45001 2.40879C2.73001 2.09879 3.20001 2.06879 3.51001 2.34879L11.5 9.44879C11.68 9.60879 11.77 9.83879 11.75 10.0788L10.75 21.0788C10.71 21.4588 10.38 21.7488 10 21.7488Z" fill="black"/>
<path d="M11 10.7509C10.73 10.7509 10.47 10.6009 10.34 10.3509C10.18 10.0609 10.24 9.70092 10.47 9.47092L16.47 3.47092C16.76 3.18092 17.24 3.18092 17.53 3.47092C17.82 3.76092 17.82 4.24092 17.53 4.53092L13.28 8.78092L19.89 7.46092C20.3 7.38092 20.69 7.64092 20.77 8.05092C20.85 8.46092 20.59 8.85092 20.18 8.93092L11.14 10.7409C11.1 10.7509 11.05 10.7509 11 10.7509Z" fill="black"/>
</svg>
