<svg width="24" height="24" viewBox="0 0 24 24" fill="none" xmlns="http://www.w3.org/2000/svg">
<path d="M11.4 2.35001L6.25 7.50001C6.05 7.70001 6.05 8.01001 6.25 8.21001L7.98 9.94001C8.18 10.14 8.49 10.14 8.69 9.94001L13.84 4.79001C14.04 4.59001 14.04 4.28001 13.84 4.08001L12.11 2.35001C12.0145 2.25845 11.8873 2.20734 11.755 2.20734C11.6227 2.20734 11.4955 2.25845 11.4 2.35001ZM15.3 6.26001L6.25 15.31C6.05 15.51 6.05 15.82 6.25 16.02L7.98 17.75C8.18 17.95 8.49 17.95 8.69 17.75L17.74 8.70001C17.94 8.50001 17.94 8.19001 17.74 7.99001L16.01 6.26001C15.82 6.06001 15.5 6.06001 15.3 6.26001ZM19.21 10.162L10.16 19.212C9.96 19.412 9.96 19.722 10.16 19.922L11.89 21.652C12.09 21.852 12.4 21.852 12.6 21.652L21.65 12.602C21.85 12.402 21.85 12.092 21.65 11.892L19.92 10.162C19.72 9.96201 19.4 9.96201 19.21 10.162ZM4.091 13.84L2.361 12.11C2.161 11.91 2.161 11.6 2.361 11.4L4.091 9.67001C4.291 9.47001 4.601 9.47001 4.801 9.67001L6.531 11.4C6.731 11.6 6.731 11.91 6.531 12.11L4.801 13.84C4.601 14.04 4.281 14.04 4.091 13.84Z" fill="black"/>
</svg>
