<svg width="24" height="24" viewBox="0 0 24 24" fill="none" xmlns="http://www.w3.org/2000/svg">
<path d="M11.4 2.35001L6.26 7.50001C6.06 7.70001 6.06 8.01001 6.26 8.21001L7.99 9.94001C8.19 10.14 8.5 10.14 8.7 9.94001L13.85 4.79001C14.05 4.59001 14.05 4.28001 13.85 4.08001L12.12 2.35001C12.0225 2.25847 11.8938 2.20752 11.76 2.20752C11.6262 2.20752 11.4975 2.25847 11.4 2.35001Z" fill="black"/>
<path opacity="0.4" d="M15.3 6.26001L6.26 15.3C6.06 15.5 6.06 15.81 6.26 16.01L7.99 17.74C8.19 17.94 8.5 17.94 8.7 17.74L17.75 8.69001C17.95 8.49001 17.95 8.18001 17.75 7.98001L16.02 6.25001C15.9224 6.15751 15.7925 6.10679 15.658 6.10866C15.5235 6.11053 15.395 6.16484 15.3 6.26001Z" fill="black"/>
<path d="M19.21 10.162L10.16 19.212C9.96 19.412 9.96 19.722 10.16 19.922L11.89 21.652C12.09 21.852 12.4 21.852 12.6 21.652L21.65 12.602C21.85 12.402 21.85 12.092 21.65 11.892L19.92 10.162C19.72 9.96199 19.4 9.96199 19.21 10.162Z" fill="black"/>
<path opacity="0.4" d="M4.09 13.84L2.36 12.11C2.16 11.91 2.16 11.6 2.36 11.4L4.09 9.66999C4.29 9.46999 4.6 9.46999 4.8 9.66999L6.53 11.4C6.73 11.6 6.73 11.91 6.53 12.11L4.8 13.84C4.6 14.04 4.28 14.04 4.09 13.84Z" fill="black"/>
</svg>
