<svg width="24" height="24" viewBox="0 0 24 24" fill="none" xmlns="http://www.w3.org/2000/svg">
<path d="M8.34 10.829C8.02 10.829 7.7 10.709 7.46 10.459L5.73 8.72901C5.61359 8.61289 5.52124 8.47495 5.45822 8.32309C5.39521 8.17123 5.36277 8.00842 5.36277 7.84401C5.36277 7.67959 5.39521 7.51679 5.45822 7.36492C5.52124 7.21306 5.61359 7.07512 5.73 6.95901L10.88 1.80901C10.9961 1.6926 11.1341 1.60024 11.2859 1.53723C11.4378 1.47421 11.6006 1.44177 11.765 1.44177C11.9294 1.44177 12.0922 1.47421 12.2441 1.53723C12.396 1.60024 12.5339 1.6926 12.65 1.80901L14.38 3.53901C14.87 4.02901 14.87 4.81901 14.38 5.30901L9.23 10.459C8.98 10.709 8.66 10.829 8.34 10.829ZM6.96 7.84901L8.34 9.22901L13.13 4.43901L11.75 3.05901L6.96 7.84901ZM8.34 18.64C8.02 18.64 7.7 18.52 7.46 18.27L5.73 16.54C5.61359 16.4239 5.52124 16.286 5.45822 16.1341C5.39521 15.9822 5.36277 15.8194 5.36277 15.655C5.36277 15.4906 5.39521 15.3278 5.45822 15.1759C5.52124 15.0241 5.61359 14.8861 5.73 14.77L14.78 5.72001C14.8961 5.6036 15.0341 5.51124 15.1859 5.44823C15.3378 5.38521 15.5006 5.35277 15.665 5.35277C15.8294 5.35277 15.9922 5.38521 16.1441 5.44823C16.296 5.51124 16.4339 5.6036 16.55 5.72001L18.28 7.45001C18.77 7.94001 18.77 8.73001 18.28 9.22001L9.23 18.27C8.98 18.52 8.66 18.64 8.34 18.64ZM6.96 15.66L8.34 17.04L17.04 8.34001L15.66 6.96001L6.96 15.66ZM12.24 22.541C11.92 22.541 11.6 22.421 11.36 22.171L9.63 20.441C9.51359 20.3249 9.42124 20.187 9.35822 20.0351C9.29521 19.8832 9.26277 19.7204 9.26277 19.556C9.26277 19.3916 9.29521 19.2288 9.35822 19.0769C9.42124 18.9251 9.51359 18.7871 9.63 18.671L18.68 9.62101C18.7961 9.5046 18.9341 9.41224 19.0859 9.34923C19.2378 9.28621 19.4006 9.25377 19.565 9.25377C19.7294 9.25377 19.8922 9.28621 20.0441 9.34923C20.196 9.41224 20.3339 9.5046 20.45 9.62101L22.18 11.351C22.67 11.841 22.67 12.631 22.18 13.121L13.13 22.171C12.88 22.421 12.56 22.541 12.24 22.541ZM10.87 19.561L12.25 20.941L20.95 12.241L19.57 10.861L10.87 19.561ZM4.44 14.739C4.12 14.739 3.8 14.619 3.56 14.379L1.83 12.649C1.71359 12.5329 1.62124 12.395 1.55822 12.2431C1.49521 12.0912 1.46277 11.9284 1.46277 11.764C1.46277 11.5996 1.49521 11.4368 1.55822 11.2849C1.62124 11.1331 1.71359 10.9951 1.83 10.879L3.56 9.14901C3.67612 9.0326 3.81406 8.94024 3.96592 8.87722C4.11778 8.81421 4.28058 8.78177 4.445 8.78177C4.60942 8.78177 4.77222 8.81421 4.92409 8.87722C5.07595 8.94024 5.21389 9.0326 5.33 9.14901L7.06 10.879C7.55 11.369 7.55 12.159 7.06 12.649L5.33 14.379C5.08 14.619 4.76 14.739 4.44 14.739ZM3.06 11.759L4.44 13.139L5.82 11.759L4.44 10.379L3.06 11.759Z" fill="black"/>
</svg>
