<svg width="24" height="24" viewBox="0 0 24 24" fill="none" xmlns="http://www.w3.org/2000/svg">
<path d="M11.7 22.7501H11.41C5.93 22.6001 1.48 17.8801 1.48 12.2401V5.21006C1.48 4.70006 1.78 4.25006 2.25 4.06006C2.72 3.87006 3.25 3.97006 3.61 4.33006L18.44 19.1601C18.5127 19.2333 18.5696 19.3206 18.6072 19.4167C18.6448 19.5128 18.6622 19.6156 18.6585 19.7187C18.6547 19.8218 18.6298 19.9231 18.5854 20.0162C18.5409 20.1093 18.4778 20.1923 18.4 20.2601C16.5394 21.8699 14.1603 22.7541 11.7 22.7501ZM2.98 5.81006V12.2401C2.98 17.0801 6.77999 21.1201 11.45 21.2501C13.38 21.2901 15.25 20.7301 16.78 19.6201L2.98 5.81006ZM21.27 19.9011C20.95 19.9011 20.63 19.7711 20.39 19.5311L5.69 4.83106C5.61729 4.75784 5.56039 4.67048 5.52281 4.57438C5.48524 4.47828 5.46778 4.3755 5.47153 4.27238C5.47528 4.16927 5.50016 4.06802 5.54461 3.97491C5.58907 3.8818 5.65217 3.7988 5.73 3.73106C7.64 2.06106 10.11 1.17106 12.67 1.25106C18.1 1.40106 22.52 6.08106 22.52 11.6811V18.6411C22.52 19.1511 22.22 19.6011 21.75 19.7911C21.6 19.8611 21.44 19.9011 21.27 19.9011ZM7.35 4.37106L21.03 18.0511V11.6911C21.03 6.90106 17.26 2.89106 12.63 2.76106C10.72 2.72106 8.87 3.27106 7.35 4.37106Z" fill="black"/>
</svg>
