<svg width="24" height="24" viewBox="0 0 24 24" fill="none" xmlns="http://www.w3.org/2000/svg">
<path d="M21.71 9.89986L19.31 5.07986C18.84 4.12986 17.59 3.35986 16.53 3.35986H7.47C6.41 3.35986 5.16 4.12986 4.69 5.07986L2.29 9.89986C1.71 11.0599 2.03 12.7099 2.98 13.5799L9.91 19.8699C11.06 20.9099 12.93 20.9099 14.08 19.8699L21.01 13.5799C21.97 12.7099 22.29 11.0499 21.71 9.89986ZM16 9.24986H12.75V14.4999C12.75 14.9099 12.41 15.2499 12 15.2499C11.59 15.2499 11.25 14.9099 11.25 14.4999V9.24986H8C7.59 9.24986 7.25 8.90986 7.25 8.49986C7.25 8.08986 7.59 7.74986 8 7.74986H16C16.41 7.74986 16.75 8.08986 16.75 8.49986C16.75 8.90986 16.41 9.24986 16 9.24986Z" fill="black"/>
</svg>
