<svg width="24" height="24" viewBox="0 0 24 24" fill="none" xmlns="http://www.w3.org/2000/svg">
<path opacity="0.4" d="M7.47 3.35205H16.53C17.59 3.35205 18.84 4.12205 19.31 5.07205L21.71 9.89205C22.29 11.0521 21.97 12.7021 21.02 13.5721L14.09 19.8621C12.94 20.9021 11.07 20.9021 9.92 19.8621L2.99 13.5721C2.03 12.7021 1.72 11.0521 2.3 9.89205L4.7 5.07205C5.16 4.12205 6.41 3.35205 7.47 3.35205Z" fill="black"/>
<path d="M16 7.75H8C7.59 7.75 7.25 8.09 7.25 8.5C7.25 8.91 7.59 9.25 8 9.25H11.25V14.5C11.25 14.91 11.59 15.25 12 15.25C12.41 15.25 12.75 14.91 12.75 14.5V9.25H16C16.41 9.25 16.75 8.91 16.75 8.5C16.75 8.09 16.41 7.75 16 7.75Z" fill="black"/>
</svg>
