<svg width="24" height="24" viewBox="0 0 24 24" fill="none" xmlns="http://www.w3.org/2000/svg">
<path d="M19 16.75H5C4.59 16.75 4.25 16.41 4.25 16V9C4.25 8.59 4.59 8.25 5 8.25H10.19L4.47 2.53C4.36573 2.42493 4.29483 2.29139 4.26622 2.14615C4.23761 2.00091 4.25256 1.85046 4.30919 1.71369C4.36582 1.57692 4.46161 1.45994 4.58452 1.37744C4.70742 1.29494 4.85197 1.2506 5 1.25H19C19.41 1.25 19.75 1.59 19.75 2V9C19.75 9.41 19.41 9.75 19 9.75H13.81L19.53 15.47C19.6343 15.5751 19.7052 15.7086 19.7338 15.8539C19.7624 15.9991 19.7474 16.1495 19.6908 16.2863C19.6342 16.4231 19.5384 16.5401 19.4155 16.6226C19.2926 16.7051 19.148 16.7494 19 16.75ZM5.75 15.25H17.19L11.69 9.75H5.75V15.25ZM12.31 8.25H18.25V2.75H6.81L12.31 8.25Z" fill="black"/>
<path d="M12 22.75C11.82 22.75 11.65 22.69 11.51 22.57L4.50999 16.57C4.39449 16.4695 4.31178 16.3367 4.27256 16.1888C4.23334 16.0408 4.23941 15.8845 4.28999 15.74C4.39999 15.45 4.67999 15.25 4.98999 15.25H11.99C12.4 15.25 12.74 15.59 12.74 16V22C12.74 22.29 12.57 22.56 12.3 22.68C12.21 22.73 12.11 22.75 12 22.75ZM7.02999 16.75L11.25 20.37V16.75H7.02999Z" fill="black"/>
</svg>
