<svg width="24" height="24" viewBox="0 0 24 24" fill="none" xmlns="http://www.w3.org/2000/svg">
<path d="M20.41 6.96092V8.79092C20.41 9.43092 20.11 10.0309 19.59 10.4009L8.59 18.4609C7.88 18.9809 6.91 18.9809 6.21 18.4509L4.77 17.3709C4.12 16.8809 3.59 15.8209 3.59 15.0109V6.96092C3.59 5.84092 4.45 4.60092 5.5 4.21092L10.97 2.16092C11.54 1.95092 12.46 1.95092 13.03 2.16092L18.5 4.21092C19.55 4.60092 20.41 5.84092 20.41 6.96092ZM18.822 12.3409C19.482 11.8609 20.412 12.3309 20.412 13.1509V15.0309C20.412 15.8409 19.882 16.8909 19.232 17.3809L13.762 21.4709C13.282 21.8209 12.642 22.0009 12.002 22.0009C11.362 22.0009 10.722 21.8209 10.242 21.4609L9.412 20.8409C9.2859 20.7476 9.18361 20.6258 9.11344 20.4855C9.04327 20.3452 9.00721 20.1903 9.00819 20.0334C9.00916 19.8765 9.04714 19.7221 9.11905 19.5826C9.19095 19.4432 9.29475 19.3227 9.422 19.2309L18.822 12.3409Z" fill="black"/>
</svg>
