<svg width="24" height="24" viewBox="0 0 24 24" fill="none" xmlns="http://www.w3.org/2000/svg">
<path opacity="0.4" d="M20.41 6.96092V9.80092L7.4 19.3409L4.77 17.3709C4.12 16.8809 3.59 15.8309 3.59 15.0209V6.96092C3.59 5.84092 4.45 4.60092 5.5 4.21092L10.97 2.16092C11.54 1.95092 12.46 1.95092 13.03 2.16092L18.5 4.21092C19.55 4.60092 20.41 5.84092 20.41 6.96092Z" fill="black"/>
<path d="M20.41 11.1719V15.0219C20.41 15.8319 19.88 16.8819 19.23 17.3719L13.76 21.4619C13.28 21.8219 12.64 22.0019 12 22.0019C11.36 22.0019 10.72 21.8219 10.24 21.4619L8.32 20.0319L20.41 11.1719Z" fill="black"/>
</svg>
