<svg width="24" height="24" viewBox="0 0 24 24" fill="none" xmlns="http://www.w3.org/2000/svg">
<path d="M11.998 22.7609C10.908 22.7609 9.82799 22.4409 8.97799 21.8109L4.67799 18.6009C3.53799 17.7509 2.64799 15.9709 2.64799 14.5609V7.12092C2.64799 5.58092 3.778 3.94092 5.228 3.40092L10.218 1.53092C11.208 1.16092 12.768 1.16092 13.758 1.53092L18.748 3.40092C20.198 3.94092 21.328 5.58092 21.328 7.12092V14.5509C21.328 15.9709 20.438 17.7409 19.298 18.5909L14.998 21.8009C14.168 22.4409 13.088 22.7609 11.998 22.7609ZM10.748 2.94092L5.75799 4.81092C4.90799 5.13092 4.15799 6.21092 4.15799 7.13092V14.5609C4.15799 15.5109 4.828 16.8409 5.578 17.4009L9.878 20.6109C11.028 21.4709 12.968 21.4709 14.128 20.6109L18.428 17.4009C19.188 16.8309 19.848 15.5109 19.848 14.5609V7.12092C19.848 6.21092 19.098 5.13092 18.248 4.80092L13.258 2.93092C12.578 2.69092 11.418 2.69092 10.748 2.94092Z" fill="black"/>
</svg>
