<svg width="24" height="24" viewBox="0 0 24 24" fill="none" xmlns="http://www.w3.org/2000/svg">
<path d="M17.82 8.69992C18.53 8.30992 19.4 8.81993 19.39 9.62993L19.35 15.0499C19.34 15.8699 18.45 16.3699 17.75 15.9499L13.07 13.1499C12.37 12.7299 12.39 11.7099 13.1 11.3199L17.82 8.69992ZM19.25 6.27993C19.4 6.65993 19.17 7.04993 18.81 7.24993L13.18 10.3599C12.38 10.7999 11.44 10.0899 11.64 9.20993L12.86 3.67993C13.01 2.97993 13.8 2.63993 14.42 2.98993L18.34 5.22993C18.77 5.47993 19.08 5.84993 19.25 6.27993Z" fill="black"/>
<path d="M12.01 2.67189L9.94 11.9719C9.91 12.1119 9.91 12.2619 9.94 12.4119L11.67 21.0919C11.79 21.6919 11.28 22.2619 10.78 21.8919L5.49 18.1219C4.93 17.7219 4.6 17.0819 4.6 16.4019V7.09189C4.6 6.33189 5 5.63189 5.67 5.25189L10.96 2.24189C11.11 2.15189 11.27 2.09189 11.43 2.04189C11.81 1.91189 12.09 2.29189 12.01 2.67189Z" fill="black"/>
<path d="M17.629 16.81C18.279 17.2 18.319 18.13 17.709 18.57L14.239 21.09C13.619 21.54 12.729 21.2 12.579 20.44L11.559 15.24C11.379 14.34 12.349 13.66 13.139 14.13L17.629 16.81Z" fill="black"/>
</svg>
