<svg width="24" height="24" viewBox="0 0 24 24" fill="none" xmlns="http://www.w3.org/2000/svg">
<path opacity="0.6" d="M19 7.16101V15.971C19 16.401 18.86 16.811 18.62 17.151L18.16 16.911L10 12.001L18.54 7.26101L18.99 7.03101C19 7.07101 19 7.12101 19 7.16101Z" fill="black"/>
<path d="M18.99 7.03007L18.54 7.26007L10 12.0001L12 3.00007L12.14 2.32007C12.43 2.34007 12.72 2.42007 12.99 2.57007L17.99 5.42007C18.58 5.76007 18.95 6.36007 18.99 7.03007Z" fill="black"/>
<path opacity="0.4" d="M12 3.00205L10 12.002L11.85 21.232L11.9 21.532C11.52 21.522 11.15 21.4021 10.84 21.1721L5.84 17.602C5.31 17.222 5 16.622 5 15.972V7.16205C5 6.44205 5.38 5.78205 6.01 5.42205L11.01 2.57205C11.36 2.37205 11.75 2.28205 12.14 2.32205L12 3.00205Z" fill="black"/>
<path d="M18.62 17.15C18.49 17.32 18.34 17.47 18.16 17.6L13.16 21.17C12.79 21.44 12.34 21.56 11.9 21.53L11.85 21.23L10 12L18.16 16.91L18.62 17.15Z" fill="black"/>
</svg>
