<svg width="24" height="24" viewBox="0 0 24 24" fill="none" xmlns="http://www.w3.org/2000/svg">
<path d="M12 22.2901C11.44 22.2901 10.88 22.1201 10.4 21.7801L5.4 18.21C5.04374 17.9553 4.7535 17.6191 4.55346 17.2295C4.35343 16.8398 4.24938 16.408 4.25 15.97V7.16005C4.25 6.18005 4.78 5.26005 5.64 4.77005L10.64 1.91005C11.48 1.43005 12.53 1.43005 13.37 1.91005L18.37 4.77005C19.22 5.26005 19.76 6.17005 19.76 7.16005V15.97C19.76 16.86 19.33 17.69 18.61 18.21L13.61 21.7801C13.12 22.1201 12.56 22.2901 12 22.2901ZM11.38 3.22005L6.38 6.08005C5.99 6.30005 5.75 6.72005 5.75 7.16005V15.97C5.75 16.37 5.95 16.75 6.27 16.99L11.27 20.56C11.71 20.87 12.29 20.87 12.72 20.56L17.72 16.99C18.05 16.76 18.24 16.38 18.24 15.97V7.16005C18.24 6.71005 18 6.30005 17.61 6.08005L12.61 3.22005C12.24 3.00005 11.76 3.00005 11.38 3.22005Z" fill="black"/>
<path d="M11.85 21.982C11.5 21.982 11.19 21.732 11.12 21.382L9.27 12.152C9.24999 12.0496 9.24999 11.9443 9.27 11.842L11.27 2.84198C11.36 2.44198 11.75 2.18198 12.17 2.27198C12.57 2.36198 12.83 2.76198 12.74 3.16198L10.77 12.012L12.59 21.092C12.67 21.502 12.41 21.892 12 21.972C11.94 21.982 11.89 21.982 11.85 21.982Z" fill="black"/>
<path d="M18.16 17.662C18.03 17.662 17.9 17.632 17.77 17.552L9.61 12.642C9.49658 12.5741 9.40338 12.4771 9.34008 12.361C9.27678 12.245 9.24568 12.1141 9.25 11.982C9.25 11.712 9.4 11.472 9.64 11.342L18.18 6.60196C18.54 6.40196 19 6.53196 19.2 6.89196C19.4 7.25196 19.27 7.71196 18.91 7.91196L11.5 12.022L18.55 16.262C18.9 16.472 19.02 16.932 18.81 17.292C18.66 17.532 18.42 17.662 18.16 17.662Z" fill="black"/>
</svg>
