<svg width="24" height="24" viewBox="0 0 24 24" fill="none" xmlns="http://www.w3.org/2000/svg">
<path d="M16.95 16.9498C18.2612 15.6361 18.9976 13.8559 18.9976 11.9998C18.9976 10.1437 18.2612 8.36349 16.95 7.0498M7.05001 7.0498C5.73881 8.36349 5.0024 10.1437 5.0024 11.9998C5.0024 13.8559 5.73881 15.6361 7.05001 16.9498" stroke="black" stroke-width="1.5" stroke-miterlimit="10" stroke-linecap="round" stroke-linejoin="round"/>
<path d="M9.67 13.6278C9.67 14.5278 10.37 15.2578 11.23 15.2578H12.99C13.74 15.2578 14.35 14.6178 14.35 13.8378C14.35 12.9878 13.98 12.6778 13.42 12.4878L10.61 11.5078C10.06 11.3178 9.68 11.0078 9.68 10.1578C9.68 9.3678 10.29 8.7378 11.04 8.7378H12.8C13.66 8.7378 14.36 9.4678 14.36 10.3678M12 7.7998V16.1998" stroke="black" stroke-width="1.5" stroke-linecap="round" stroke-linejoin="round"/>
<path d="M4 6C2.75 7.67 2 9.75 2 12C2 17.52 6.48 22 12 22C17.52 22 22 17.52 22 12C22 6.48 17.52 2 12 2C10.57 2 9.2 2.3 7.97 2.85" stroke="black" stroke-width="1.5" stroke-linecap="round" stroke-linejoin="round"/>
</svg>
