<svg width="24" height="24" viewBox="0 0 24 24" fill="none" xmlns="http://www.w3.org/2000/svg">
<path opacity="0.4" d="M12 22C17.523 22 22 17.523 22 12C22 6.477 17.523 2 12 2C6.477 2 2 6.477 2 12C2 17.523 6.477 22 12 22Z" fill="black"/>
<path d="M16.95 17.6978C16.76 17.6978 16.57 17.6278 16.42 17.4778C16.2805 17.3367 16.2023 17.1462 16.2023 16.9478C16.2023 16.7494 16.2805 16.5589 16.42 16.4178C17.0021 15.8386 17.4636 15.1498 17.7777 14.3911C18.0918 13.6324 18.2523 12.8189 18.25 11.9978C18.25 10.3278 17.6 8.75779 16.42 7.57779C16.2805 7.43666 16.2023 7.24622 16.2023 7.04779C16.2023 6.84936 16.2805 6.65893 16.42 6.51779C16.71 6.22779 17.19 6.22779 17.48 6.51779C18.2015 7.23608 18.7735 8.09016 19.1632 9.03073C19.5528 9.9713 19.7522 10.9797 19.75 11.9978C19.75 14.0678 18.94 16.0178 17.48 17.4778C17.33 17.6278 17.14 17.6978 16.95 17.6978ZM7.05 17.6978C6.86 17.6978 6.67 17.6278 6.52 17.4778C5.79852 16.7595 5.22646 15.9054 4.83684 14.9649C4.44723 14.0243 4.24778 13.0159 4.25 11.9978C4.25 9.92779 5.06 7.97779 6.52 6.51779C6.81 6.22779 7.29 6.22779 7.58 6.51779C7.87 6.80779 7.87 7.28779 7.58 7.57779C6.99789 8.15696 6.53642 8.84582 6.2223 9.60451C5.90819 10.3632 5.74765 11.1767 5.75 11.9978C5.75 13.6678 6.4 15.2378 7.58 16.4178C7.87 16.7078 7.87 17.1878 7.58 17.4778C7.43 17.6278 7.24 17.6978 7.05 17.6978ZM13.65 11.7798L12.75 11.4598V9.47979H12.78C13.22 9.47979 13.59 9.87979 13.59 10.3598C13.59 10.7698 13.93 11.1098 14.34 11.1098C14.75 11.1098 15.09 10.7698 15.09 10.3598C15.09 9.04979 14.06 7.97979 12.78 7.97979H12.75V7.79979C12.75 7.38979 12.41 7.04979 12 7.04979C11.59 7.04979 11.25 7.38979 11.25 7.79979V7.97979H11.02C9.86 7.97979 8.91 8.95979 8.91 10.1498C8.91 11.1998 9.38 11.8698 10.34 12.2098L11.24 12.5298V14.5098H11.21C10.77 14.5098 10.4 14.1098 10.4 13.6298C10.4 13.2198 10.06 12.8798 9.65 12.8798C9.24 12.8798 8.9 13.2198 8.9 13.6298C8.9 14.9398 9.93 16.0098 11.21 16.0098H11.24V16.1898C11.24 16.5998 11.58 16.9398 11.99 16.9398C12.4 16.9398 12.74 16.5998 12.74 16.1898V16.0098H12.97C14.13 16.0098 15.08 15.0298 15.08 13.8398C15.08 12.7898 14.62 12.1198 13.65 11.7798ZM10.84 10.7998C10.52 10.6898 10.41 10.6298 10.41 10.1598C10.41 9.78979 10.68 9.48979 11.02 9.48979H11.25V10.9498L10.84 10.7998ZM12.98 14.5198H12.75V13.0598L13.16 13.1998C13.48 13.3098 13.59 13.3698 13.59 13.8398C13.58 14.2098 13.31 14.5198 12.98 14.5198Z" fill="black"/>
</svg>
