<svg width="24" height="24" viewBox="0 0 24 24" fill="none" xmlns="http://www.w3.org/2000/svg">
<path d="M16.95 17.6978C16.76 17.6978 16.57 17.6278 16.42 17.4778C16.2805 17.3367 16.2023 17.1462 16.2023 16.9478C16.2023 16.7494 16.2805 16.5589 16.42 16.4178C17.0021 15.8386 17.4636 15.1498 17.7777 14.3911C18.0918 13.6324 18.2523 12.8189 18.25 11.9978C18.25 10.3278 17.6 8.75779 16.42 7.57779C16.2808 7.43653 16.2027 7.24614 16.2027 7.04779C16.2027 6.84944 16.2808 6.65906 16.42 6.51779C16.71 6.22779 17.19 6.22779 17.48 6.51779C18.2015 7.23608 18.7735 8.09016 19.1632 9.03073C19.5528 9.9713 19.7522 10.9797 19.75 11.9978C19.75 14.0678 18.94 16.0178 17.48 17.4778C17.33 17.6278 17.14 17.6978 16.95 17.6978ZM7.05 17.6978C6.86 17.6978 6.67 17.6278 6.52 17.4778C5.79852 16.7595 5.22646 15.9054 4.83685 14.9649C4.44723 14.0243 4.24778 13.0159 4.25 11.9978C4.25 9.92779 5.06 7.97779 6.52 6.51779C6.81 6.22779 7.29 6.22779 7.58 6.51779C7.87 6.80779 7.87 7.28779 7.58 7.57779C6.99789 8.15696 6.53643 8.84582 6.22231 9.60451C5.90819 10.3632 5.74766 11.1767 5.75 11.9978C5.75 13.6678 6.4 15.2378 7.58 16.4178C7.87 16.7078 7.87 17.1878 7.58 17.4778C7.43 17.6278 7.24 17.6978 7.05 17.6978ZM12.98 16.0198H11.22C9.95 16.0198 8.91 14.9498 8.91 13.6398C8.91 13.2298 9.25 12.8898 9.66 12.8898C10.07 12.8898 10.41 13.2298 10.41 13.6398C10.41 14.1298 10.77 14.5198 11.22 14.5198H12.98C13.31 14.5198 13.59 14.2198 13.59 13.8498C13.59 13.3798 13.48 13.3198 13.16 13.2098L10.35 12.2298C9.39 11.8898 8.92 11.2198 8.92 10.1698C8.92 8.96979 9.86 7.99979 11.03 7.99979H12.79C14.06 7.99979 15.1 9.06979 15.1 10.3798C15.1 10.7898 14.76 11.1298 14.35 11.1298C13.94 11.1298 13.6 10.7898 13.6 10.3798C13.6 9.88979 13.24 9.49979 12.79 9.49979H11.03C10.7 9.49979 10.42 9.79979 10.42 10.1698C10.42 10.6398 10.53 10.6998 10.85 10.8098L13.66 11.7898C14.62 12.1298 15.09 12.7998 15.09 13.8498C15.08 15.0398 14.14 16.0198 12.98 16.0198Z" fill="black"/>
<path d="M12 16.9498C11.59 16.9498 11.25 16.6098 11.25 16.1998V7.7998C11.25 7.3898 11.59 7.0498 12 7.0498C12.41 7.0498 12.75 7.3898 12.75 7.7998V16.1998C12.75 16.6098 12.41 16.9498 12 16.9498Z" fill="black"/>
<path d="M12 22.75C6.07 22.75 1.25 17.93 1.25 12C1.25 6.07 6.07 1.25 12 1.25C17.93 1.25 22.75 6.07 22.75 12C22.75 17.93 17.93 22.75 12 22.75ZM12 2.75C6.9 2.75 2.75 6.9 2.75 12C2.75 17.1 6.9 21.25 12 21.25C17.1 21.25 21.25 17.1 21.25 12C21.25 6.9 17.1 2.75 12 2.75Z" fill="black"/>
</svg>
