<svg width="24" height="24" viewBox="0 0 24 24" fill="none" xmlns="http://www.w3.org/2000/svg">
<path opacity="0.4" d="M16.95 16.9498C18.2612 15.6361 18.9976 13.8559 18.9976 11.9998C18.9976 10.1437 18.2612 8.36349 16.95 7.0498M7.05 7.0498C5.7388 8.36349 5.00239 10.1437 5.00239 11.9998C5.00239 13.8559 5.7388 15.6361 7.05 16.9498" stroke="black" stroke-width="1.5" stroke-miterlimit="10" stroke-linecap="round" stroke-linejoin="round"/>
<g opacity="0.4">
<path d="M9.67 13.6318C9.67 14.5318 10.37 15.2618 11.23 15.2618H12.99C13.74 15.2618 14.35 14.6218 14.35 13.8418C14.35 12.9918 13.98 12.6818 13.42 12.4918L10.61 11.5118C10.06 11.3218 9.68 11.0118 9.68 10.1618C9.68 9.3718 10.29 8.7418 11.04 8.7418H12.8C13.66 8.7418 14.36 9.4718 14.36 10.3718M12 7.7998V16.1998" stroke="black" stroke-width="1.5" stroke-linecap="round" stroke-linejoin="round"/>
</g>
<path d="M12 22C17.523 22 22 17.523 22 12C22 6.477 17.523 2 12 2C6.477 2 2 6.477 2 12C2 17.523 6.477 22 12 22Z" stroke="black" stroke-width="1.5" stroke-miterlimit="10" stroke-linecap="round" stroke-linejoin="round"/>
</svg>
