<svg width="24" height="24" viewBox="0 0 24 24" fill="none" xmlns="http://www.w3.org/2000/svg">
<path d="M12 22.75C6.07 22.75 1.25 17.93 1.25 12C1.25 6.07 6.07 1.25 12 1.25C12.41 1.25 12.75 1.59 12.75 2C12.75 2.41 12.41 2.75 12 2.75C6.9 2.75 2.75 6.9 2.75 12C2.75 17.1 6.9 21.25 12 21.25C17.1 21.25 21.25 17.1 21.25 12C21.25 11.59 21.59 11.25 22 11.25C22.41 11.25 22.75 11.59 22.75 12C22.75 17.93 17.93 22.75 12 22.75Z" fill="black"/>
<path d="M13.8 10.9504C13.61 10.9504 13.42 10.8804 13.27 10.7304C13.1305 10.5893 13.0523 10.3989 13.0523 10.2004C13.0523 10.002 13.1305 9.81157 13.27 9.67043L21.47 1.47043C21.76 1.18043 22.24 1.18043 22.53 1.47043C22.82 1.76043 22.82 2.24043 22.53 2.53043L14.33 10.7304C14.1895 10.8711 13.9988 10.9503 13.8 10.9504Z" fill="black"/>
<path d="M17.83 11.7499H13C12.59 11.7499 12.25 11.4099 12.25 10.9999V6.16992C12.25 5.75992 12.59 5.41992 13 5.41992C13.41 5.41992 13.75 5.75992 13.75 6.16992V10.2499H17.83C18.24 10.2499 18.58 10.5899 18.58 10.9999C18.58 11.4099 18.24 11.7499 17.83 11.7499Z" fill="black"/>
</svg>
