<svg width="24" height="24" viewBox="0 0 24 24" fill="none" xmlns="http://www.w3.org/2000/svg">
<path d="M15.02 2.22908C13.02 1.91908 10.98 1.91908 8.98 2.22908C8.16 2.35908 7.56 3.05908 7.56 3.87908V7.55908H3.88C3.06 7.55908 2.36 8.15908 2.23 8.97908C1.92 10.9791 1.92 13.0191 2.23 15.0191C2.36 15.8391 3.06 16.4391 3.88 16.4391H5.56C5.84 16.4391 6.06 16.2191 6.06 15.9391V14.2191C6.06 12.1691 7.73 10.4991 9.78 10.4991H14.22C14.62 10.4991 14.94 10.1791 14.94 9.77908V6.55908C14.94 6.27908 15.16 6.05908 15.44 6.05908H15.94C16.22 6.05908 16.44 5.83908 16.44 5.55908V3.87908C16.44 3.05908 15.84 2.35908 15.02 2.22908ZM10.33 5.57908C9.92 5.57908 9.53 5.18908 9.53 4.77908C9.53 4.35908 9.92 3.96908 10.33 3.96908C10.53 3.96908 10.75 4.05908 10.89 4.19908C11.04 4.33908 11.14 4.56908 11.14 4.77908C11.14 5.18908 10.75 5.57908 10.33 5.57908Z" fill="black"/>
<path d="M21.77 8.97908C21.64 8.15908 20.94 7.55908 20.12 7.55908H16.94C16.66 7.55908 16.44 7.77908 16.44 8.05908V9.77908C16.44 10.9991 15.45 11.9991 14.22 11.9991H9.78C8.55 11.9991 7.56 12.9891 7.56 14.2191V20.1191C7.56 20.9391 8.16 21.6391 8.98 21.7691C10.98 22.0791 13.02 22.0791 15.02 21.7691C15.84 21.6391 16.44 20.9391 16.44 20.1191V16.4391H20.12C20.94 16.4391 21.64 15.8391 21.77 15.0191C22.08 13.0191 22.08 10.9791 21.77 8.97908ZM13.67 20.0291C13.26 20.0291 12.86 19.6391 12.86 19.2191C12.86 18.7991 13.25 18.4091 13.67 18.4091C13.86 18.4091 14.09 18.4991 14.23 18.6291C14.38 18.7691 14.48 19.0091 14.48 19.2091C14.47 19.6391 14.08 20.0291 13.67 20.0291Z" fill="black"/>
</svg>
