<svg width="24" height="24" viewBox="0 0 24 24" fill="none" xmlns="http://www.w3.org/2000/svg">
<path d="M7.56 7.55982V3.88982C7.56 3.05982 8.17 2.36982 8.98 2.23982C10.98 1.92982 13.02 1.92982 15.02 2.23982C15.84 2.36982 16.44 3.06982 16.44 3.88982V9.77982C16.44 11.0098 15.45 11.9998 14.22 11.9998H9.78C8.55 11.9998 7.56 12.9898 7.56 14.2198V20.1098C7.56 20.9398 8.17 21.6298 8.98 21.7598C10.98 22.0698 13.02 22.0698 15.02 21.7598C15.84 21.6298 16.44 20.9298 16.44 20.1098V16.4398" stroke="black" stroke-width="1.5" stroke-linecap="round" stroke-linejoin="round"/>
<path d="M16.44 7.55924H20.11C20.94 7.55924 21.63 8.16924 21.76 8.97924C22.07 10.9792 22.07 13.0192 21.76 15.0192C21.63 15.8392 20.93 16.4392 20.11 16.4392H12M2.02 12.9802C2.05 13.6602 2.12 14.3402 2.23 15.0202C2.36 15.8402 3.06 16.4402 3.88 16.4402H7.55M12 7.55924H3.88C3.05 7.55924 2.36 8.16924 2.23 8.97924M10.39 4.77924C10.39 4.80924 10.37 4.83924 10.33 4.83924C10.29 4.83924 10.27 4.81924 10.27 4.77924C10.27 4.74924 10.29 4.71924 10.33 4.71924C10.34 4.71924 10.36 4.72924 10.37 4.73924C10.38 4.74924 10.39 4.75924 10.39 4.77924ZM13.72 19.2202C13.72 19.2502 13.7 19.2802 13.66 19.2802C13.63 19.2802 13.6 19.2602 13.6 19.2202C13.6 19.1902 13.62 19.1602 13.66 19.1602C13.67 19.1602 13.69 19.1702 13.7 19.1802C13.72 19.1902 13.72 19.2102 13.72 19.2202Z" stroke="black" stroke-width="1.5" stroke-linecap="round" stroke-linejoin="round"/>
</svg>
