<svg width="24" height="24" viewBox="0 0 24 24" fill="none" xmlns="http://www.w3.org/2000/svg">
<path d="M7.60001 7.6001V3.9001C7.60001 3.1001 8.20001 2.4001 9.00001 2.2001C11 1.9001 13 1.9001 15 2.2001C15.8 2.3001 16.4 3.0001 16.4 3.9001V9.8001C16.4 11.0001 15.4 12.0001 14.2 12.0001H9.80001C8.60001 12.0001 7.60001 13.0001 7.60001 14.2001V20.1001C7.60001 20.9001 8.20001 21.6001 9.00001 21.8001C11 22.1001 13 22.1001 15 21.8001C15.8 21.7001 16.4 21.0001 16.4 20.1001V16.4001" stroke="black" stroke-width="1.5" stroke-linecap="round" stroke-linejoin="round"/>
<path d="M16.4 7.6001H20.1C20.9 7.6001 21.6 8.2001 21.8 9.0001C22.1 11.0001 22.1 13.0001 21.8 15.0001C21.7 15.8001 21 16.4001 20.1 16.4001H12M12 7.6001H3.90001C3.10001 7.6001 2.40001 8.2001 2.20001 9.0001C1.90001 11.0001 1.90001 13.0001 2.20001 15.0001C2.30001 15.8001 3.00001 16.4001 3.90001 16.4001H7.60001" stroke="black" stroke-width="1.5" stroke-linecap="round" stroke-linejoin="round"/>
</svg>
