<svg width="24" height="24" viewBox="0 0 24 24" fill="none" xmlns="http://www.w3.org/2000/svg">
<path d="M12 22.75C10.95 22.75 9.899 22.67 8.859 22.51C8.28653 22.4239 7.7639 22.1354 7.38594 21.6969C7.00798 21.2584 6.79974 20.6989 6.799 20.12V14.22C6.799 13.4323 7.11191 12.6769 7.66889 12.1199C8.22588 11.5629 8.98131 11.25 9.769 11.25H14.209C15.019 11.25 15.679 10.59 15.679 9.78002V3.89002C15.679 3.43002 15.349 3.05002 14.889 2.98002C12.959 2.68002 11.009 2.68002 9.079 2.98002C8.629 3.05002 8.289 3.44002 8.289 3.90002V7.57002C8.289 7.98002 7.949 8.32002 7.539 8.32002C7.129 8.32002 6.789 7.98002 6.789 7.57002V3.90002C6.799 2.70002 7.659 1.69002 8.849 1.51002C10.929 1.19002 13.039 1.19002 15.119 1.51002C15.6915 1.59614 16.2141 1.88462 16.5921 2.32313C16.97 2.76164 17.1783 3.32111 17.179 3.90002V9.80002C17.179 10.5877 16.8661 11.3431 16.3091 11.9001C15.7521 12.4571 14.9967 12.77 14.209 12.77H9.769C8.959 12.77 8.299 13.43 8.299 14.24V20.13C8.299 20.59 8.629 20.97 9.089 21.04C11.019 21.34 12.969 21.34 14.899 21.04C15.349 20.97 15.689 20.58 15.689 20.12V16.45C15.689 16.04 16.029 15.7 16.439 15.7C16.849 15.7 17.189 16.04 17.189 16.45V20.12C17.1883 20.6989 16.98 21.2584 16.6021 21.6969C16.2241 22.1354 15.7015 22.4239 15.129 22.51C14.099 22.67 13.049 22.75 11.999 22.75H12Z" fill="black"/>
<path d="M12 17.1902C11.59 17.1902 11.25 16.8502 11.25 16.4402C11.25 16.0302 11.59 15.6902 12 15.6902H20.12C20.58 15.6902 20.96 15.3602 21.03 14.9002C21.33 12.9702 21.33 11.0202 21.03 9.09024C20.9995 8.87077 20.8905 8.66978 20.7232 8.52452C20.5559 8.37927 20.3416 8.29958 20.12 8.30024H16.45C16.04 8.30024 15.7 7.96024 15.7 7.55024C15.7 7.14024 16.04 6.80024 16.45 6.80024H20.12C21.32 6.81024 22.33 7.67024 22.51 8.86024C22.83 10.9402 22.83 13.0502 22.51 15.1302C22.4239 15.7027 22.1354 16.2253 21.6969 16.6033C21.2584 16.9813 20.6989 17.1895 20.12 17.1902H12ZM7.55999 17.1902H3.88999C3.31108 17.1895 2.75161 16.9813 2.31311 16.6033C1.8746 16.2253 1.58611 15.7027 1.49999 15.1302C1.17999 13.0502 1.17999 10.9402 1.49999 8.86024C1.58611 8.28777 1.8746 7.76513 2.31311 7.38717C2.75161 7.00921 3.31108 6.80097 3.88999 6.80024H12C12.41 6.80024 12.75 7.14024 12.75 7.55024C12.75 7.96024 12.41 8.30024 12 8.30024H3.87999C3.41999 8.30024 3.03999 8.63024 2.96999 9.09024C2.66999 11.0202 2.66999 12.9702 2.96999 14.9002C3.03999 15.3602 3.41999 15.6902 3.87999 15.6902H7.54999C7.95999 15.6902 8.29999 16.0302 8.29999 16.4402C8.29999 16.8502 7.96999 17.1902 7.55999 17.1902ZM10.33 5.57924C9.91999 5.57924 9.51999 5.18924 9.51999 4.76924C9.51999 4.34924 9.90999 3.96924 10.33 3.96924C10.52 3.96924 10.75 4.05924 10.89 4.18924C11.04 4.32924 11.14 4.56924 11.14 4.76924C11.14 5.18924 10.75 5.57924 10.33 5.57924ZM13.67 20.0302C13.26 20.0302 12.86 19.6402 12.86 19.2202C12.86 18.8002 13.25 18.4102 13.67 18.4102C13.86 18.4102 14.09 18.5002 14.23 18.6302C14.38 18.7702 14.48 19.0102 14.48 19.2102C14.47 19.6402 14.08 20.0302 13.67 20.0302Z" fill="black"/>
</svg>
