<svg width="24" height="24" viewBox="0 0 24 24" fill="none" xmlns="http://www.w3.org/2000/svg">
<path opacity="0.4" d="M7.56 7.55982V3.88982C7.56 3.05982 8.17 2.36982 8.98 2.23982C10.98 1.92982 13.02 1.92982 15.02 2.23982C15.84 2.36982 16.44 3.06982 16.44 3.88982V9.77982C16.44 11.0098 15.45 11.9998 14.22 11.9998H9.78C8.55 11.9998 7.56 12.9898 7.56 14.2198V20.1098C7.56 20.9398 8.17 21.6298 8.98 21.7598C10.98 22.0698 13.02 22.0698 15.02 21.7598C15.84 21.6298 16.44 20.9298 16.44 20.1098V16.4398" stroke="black" stroke-width="1.5" stroke-linecap="round" stroke-linejoin="round"/>
<path d="M16.44 7.55908H20.11C20.94 7.55908 21.63 8.16908 21.76 8.97908C22.07 10.9791 22.07 13.0191 21.76 15.0191C21.63 15.8391 20.93 16.4391 20.11 16.4391H12M12 7.55908H3.88C3.05 7.55908 2.36 8.16908 2.23 8.97908C1.92 10.9791 1.92 13.0191 2.23 15.0191C2.36 15.8391 3.06 16.4391 3.88 16.4391H7.55" stroke="black" stroke-width="1.5" stroke-linecap="round" stroke-linejoin="round"/>
</svg>
