<svg width="24" height="24" viewBox="0 0 24 24" fill="none" xmlns="http://www.w3.org/2000/svg">
<path d="M19.88 2.00001H4.11C3.51 2.00001 3.05 2.52001 3.12 3.11001L4.92 19.33C4.96 19.73 5.25 20.07 5.64 20.18L11.72 21.92C11.9 21.97 12.09 21.97 12.27 21.92L18.35 20.18C18.74 20.07 19.02 19.73 19.07 19.33L20.87 3.11001C20.8866 2.97038 20.8733 2.82882 20.8311 2.69471C20.7888 2.56059 20.7186 2.43698 20.625 2.33204C20.5314 2.22711 20.4166 2.14325 20.2882 2.08601C20.1597 2.02877 20.0206 1.99945 19.88 2.00001ZM11.37 15.99C11.37 16.23 11.26 16.45 11.07 16.59C10.9773 16.6607 10.8691 16.7085 10.7544 16.7293C10.6397 16.7502 10.5217 16.7436 10.41 16.71L7.29 15.81C7.19515 15.7829 7.10663 15.7372 7.02955 15.6757C6.95246 15.6142 6.88835 15.5379 6.84092 15.4514C6.79349 15.3649 6.76368 15.2699 6.75323 15.1718C6.74277 15.0737 6.75187 14.9746 6.78 14.88C6.89 14.48 7.31 14.26 7.71 14.37L9.87 14.99V7.01001C9.87 6.60001 10.21 6.26001 10.62 6.26001C11.03 6.26001 11.37 6.60001 11.37 7.01001V15.99ZM17.25 15.1C17.25 15.44 17.02 15.74 16.68 15.83L13.08 16.73C13.02 16.75 12.96 16.75 12.9 16.75C12.56 16.75 12.26 16.52 12.17 16.18C12.07 15.78 12.31 15.37 12.72 15.27L15.75 14.51V12.81L13.46 13.14C13.3529 13.156 13.2436 13.1481 13.1399 13.117C13.0362 13.0859 12.9406 13.0323 12.86 12.96C12.7789 12.8887 12.7138 12.8011 12.669 12.7028C12.6242 12.6046 12.6007 12.498 12.6 12.39V7.44001C12.6 7.07001 12.87 6.75001 13.24 6.70001L16.39 6.25001C16.8 6.19001 17.18 6.48001 17.24 6.89001C17.3 7.30001 17.01 7.68001 16.6 7.74001L14.09 8.10001V11.53L16.38 11.2C16.6 11.17 16.81 11.23 16.98 11.38C17.14 11.52 17.24 11.73 17.24 11.95V15.1H17.25Z" fill="black"/>
</svg>
