<svg width="24" height="24" viewBox="0 0 24 24" fill="none" xmlns="http://www.w3.org/2000/svg">
<path d="M10.62 7.012V15.992L7.5 15.092M16.5 7L13.35 7.45V12.4L16.5 11.95V15.1L12.9 16" stroke="black" stroke-width="1.5" stroke-miterlimit="10" stroke-linecap="round" stroke-linejoin="round"/>
<path d="M3.32001 4.91L3.12001 3.11C3.05001 2.52 3.52001 2 4.11001 2H19.88C20.48 2 20.94 2.52 20.87 3.11L19.07 19.33C19.03 19.73 18.74 20.07 18.35 20.18L12.27 21.92C12.09 21.97 11.9 21.97 11.72 21.92L5.64001 20.18C5.44987 20.1245 5.28025 20.0144 5.15223 19.8632C5.02421 19.7121 4.94346 19.5267 4.92001 19.33L3.82001 9.41" stroke="black" stroke-width="1.5" stroke-miterlimit="10" stroke-linecap="round" stroke-linejoin="round"/>
</svg>
