<svg width="24" height="24" viewBox="0 0 24 24" fill="none" xmlns="http://www.w3.org/2000/svg">
<path opacity="0.4" d="M4.12 2.00001H19.89C20.49 2.00001 20.95 2.52001 20.88 3.11001L19.08 19.33C19.04 19.73 18.75 20.07 18.36 20.18L12.28 21.92C12.1 21.97 11.91 21.97 11.73 21.92L5.65 20.18C5.45986 20.1245 5.29024 20.0144 5.16222 19.8632C5.0342 19.7121 4.95345 19.5267 4.93 19.33L3.13 3.11001C3.11343 2.97038 3.1267 2.82882 3.16894 2.69471C3.21118 2.56059 3.28142 2.43698 3.37501 2.33204C3.4686 2.22711 3.58341 2.14325 3.71184 2.08601C3.84027 2.02877 3.97939 1.99945 4.12 2.00001Z" fill="black"/>
<path d="M10.62 16.742C10.55 16.742 10.48 16.732 10.41 16.712L7.29 15.812C7.19516 15.7849 7.10663 15.7393 7.02955 15.6777C6.95247 15.6162 6.88836 15.5399 6.84093 15.4534C6.7935 15.367 6.76369 15.2719 6.75323 15.1738C6.74277 15.0757 6.75187 14.9766 6.78 14.882C6.89 14.482 7.31 14.262 7.71 14.372L9.87 14.992V7.01202C9.87 6.60202 10.21 6.26202 10.62 6.26202C11.03 6.26202 11.37 6.60202 11.37 7.01202V15.982C11.37 16.222 11.26 16.442 11.07 16.582C10.94 16.682 10.78 16.742 10.62 16.742ZM12.9 16.752C12.56 16.752 12.26 16.522 12.17 16.182C12.07 15.782 12.31 15.372 12.72 15.272L15.75 14.512V12.812L13.46 13.142C13.3529 13.158 13.2436 13.1501 13.1399 13.119C13.0362 13.0879 12.9406 13.0343 12.86 12.962C12.7789 12.8907 12.7138 12.8031 12.669 12.7049C12.6242 12.6066 12.6007 12.5 12.6 12.392V7.45202C12.6 7.08202 12.87 6.76202 13.24 6.71202L16.39 6.26202C16.8 6.20202 17.18 6.49202 17.24 6.90202C17.3 7.31202 17.01 7.69202 16.6 7.75202L14.1 8.10202V11.532L16.39 11.202C16.61 11.172 16.82 11.232 16.99 11.382C17.15 11.522 17.25 11.732 17.25 11.952V15.102C17.25 15.442 17.02 15.742 16.68 15.832L13.08 16.732C13.02 16.742 12.96 16.752 12.9 16.752Z" fill="black"/>
</svg>
