<svg width="24" height="24" viewBox="0 0 24 24" fill="none" xmlns="http://www.w3.org/2000/svg">
<path d="M12 22.71C11.84 22.71 11.68 22.69 11.52 22.64L5.44 20.9C4.75 20.7 4.26 20.12 4.18 19.41L2.38 3.19C2.35346 2.94561 2.37868 2.69838 2.45402 2.46438C2.52936 2.23038 2.65312 2.01487 2.81726 1.83187C2.98139 1.64887 3.18222 1.50248 3.40667 1.40223C3.63112 1.30198 3.87417 1.25011 4.12 1.25H19.89C20.39 1.25 20.86 1.46 21.19 1.83C21.52 2.2 21.68 2.7 21.63 3.19L19.83 19.41C19.75 20.12 19.26 20.7 18.57 20.9L12.49 22.64C12.32 22.69 12.16 22.71 12 22.71ZM4.12 2.75C4.02 2.75 3.96 2.8 3.93 2.83C3.90697 2.85553 3.8897 2.8857 3.87935 2.91848C3.869 2.95126 3.86581 2.98588 3.87 3.02L5.67 19.24C5.68 19.34 5.75 19.43 5.85 19.45L11.93 21.19C11.98 21.2 12.02 21.2 12.07 21.19L18.15 19.45C18.25 19.42 18.32 19.34 18.33 19.24L20.13 3.02C20.14 2.92 20.09 2.86 20.07 2.83C20.0455 2.80442 20.0159 2.78412 19.9833 2.77036C19.9506 2.75661 19.9154 2.74968 19.88 2.75H4.12Z" fill="black"/>
<path d="M10.62 16.7421C10.55 16.7421 10.48 16.7321 10.41 16.7121L7.29 15.8121C7.19515 15.7849 7.10663 15.7393 7.02955 15.6777C6.95246 15.6162 6.88835 15.54 6.84092 15.4535C6.79349 15.367 6.76369 15.272 6.75323 15.1739C6.74277 15.0758 6.75187 14.9766 6.78 14.8821C6.89 14.4821 7.31 14.2621 7.71 14.3721L9.87 14.9921V7.01205C9.87 6.60205 10.21 6.26205 10.62 6.26205C11.03 6.26205 11.37 6.60205 11.37 7.01205V15.9821C11.37 16.2221 11.26 16.4421 11.07 16.5821C10.94 16.6821 10.78 16.7421 10.62 16.7421ZM12.9 16.7501C12.56 16.7501 12.26 16.5201 12.17 16.1801C12.07 15.7801 12.31 15.3701 12.72 15.2701L15.75 14.5101V12.8101L13.46 13.1401C13.3529 13.156 13.2436 13.1482 13.1399 13.1171C13.0362 13.086 12.9406 13.0323 12.86 12.9601C12.7789 12.8888 12.7138 12.8011 12.669 12.7029C12.6242 12.6046 12.6007 12.498 12.6 12.3901V7.44005C12.6 7.07005 12.87 6.75005 13.24 6.70005L16.39 6.25005C16.8 6.19005 17.18 6.48005 17.24 6.89005C17.3 7.30005 17.01 7.68005 16.6 7.74005L14.09 8.10005V11.5301L16.38 11.2001C16.6 11.1701 16.81 11.2301 16.98 11.3801C17.14 11.5201 17.24 11.7301 17.24 11.9501V15.1001C17.24 15.4401 17.01 15.7401 16.67 15.8301L13.07 16.7301C13.0141 16.7422 12.9572 16.7489 12.9 16.7501Z" fill="black"/>
</svg>
