<svg width="24" height="24" viewBox="0 0 24 24" fill="none" xmlns="http://www.w3.org/2000/svg">
<path d="M20 3.5H5.50001C5.19001 3.5 4.89001 3.65 4.70001 3.9L3.20001 5.9C2.71001 6.56 3.18001 7.5 4.00001 7.5H18.5C18.81 7.5 19.11 7.35 19.3 7.1L20.8 5.1C21.29 4.44 20.82 3.5 20 3.5Z" stroke="black" stroke-width="1.5" stroke-miterlimit="10"/>
<path d="M6.94001 14H5.50001C5.19001 14 4.89001 13.85 4.70001 13.6L3.20001 11.6C2.71001 10.94 3.18001 10 4.00001 10H18.5C18.81 10 19.11 10.15 19.3 10.4L20.8 12.4C21.29 13.06 20.82 14 20 14H11.36" stroke="black" stroke-width="1.5" stroke-miterlimit="10" stroke-linecap="round" stroke-linejoin="round"/>
<path d="M20 16.5H5.50001C5.19001 16.5 4.89001 16.65 4.70001 16.9L3.20001 18.9C2.71001 19.56 3.18001 20.5 4.00001 20.5H18.5C18.81 20.5 19.11 20.35 19.3 20.1L20.8 18.1C21.29 17.44 20.82 16.5 20 16.5Z" stroke="black" stroke-width="1.5" stroke-miterlimit="10"/>
</svg>
