<svg width="24" height="24" viewBox="0 0 24 24" fill="none" xmlns="http://www.w3.org/2000/svg">
<path d="M20 3.5H5.5C5.2 3.5 4.9 3.6 4.7 3.9L3.2 5.9C3.08857 6.04857 3.02072 6.22523 3.00404 6.41019C2.98736 6.59516 3.02252 6.78111 3.10557 6.94721C3.18863 7.11332 3.31629 7.25302 3.47427 7.35065C3.63225 7.44829 3.81429 7.5 4 7.5H18.5C18.8 7.5 19.1 7.4 19.3 7.1L20.8 5.1C20.9114 4.95143 20.9793 4.77477 20.996 4.58981C21.0126 4.40484 20.9775 4.21889 20.8944 4.05279C20.8114 3.88668 20.6837 3.74698 20.5257 3.64935C20.3678 3.55171 20.1857 3.5 20 3.5ZM4 10H18.5C18.8 10 19.1 10.1 19.3 10.4L20.8 12.4C20.9114 12.5486 20.9793 12.7252 20.996 12.9102C21.0126 13.0952 20.9775 13.2811 20.8944 13.4472C20.8114 13.6133 20.6837 13.753 20.5257 13.8507C20.3678 13.9483 20.1857 14 20 14H5.5C5.2 14 4.9 13.9 4.7 13.6L3.2 11.6C3.08857 11.4514 3.02072 11.2748 3.00404 11.0898C2.98736 10.9048 3.02252 10.7189 3.10557 10.5528C3.18863 10.3867 3.31629 10.247 3.47427 10.1493C3.63225 10.0517 3.81429 10 4 10ZM20 16.5H5.5C5.2 16.5 4.9 16.6 4.7 16.9L3.2 18.9C3.08857 19.0486 3.02072 19.2252 3.00404 19.4102C2.98736 19.5952 3.02252 19.7811 3.10557 19.9472C3.18863 20.1133 3.31629 20.253 3.47427 20.3507C3.63225 20.4483 3.81429 20.5 4 20.5H18.5C18.8 20.5 19.1 20.4 19.3 20.1L20.8 18.1C20.9114 17.9514 20.9793 17.7748 20.996 17.5898C21.0126 17.4048 20.9775 17.2189 20.8944 17.0528C20.8114 16.8867 20.6837 16.747 20.5257 16.6493C20.3678 16.5517 20.1857 16.5 20 16.5Z" stroke="black" stroke-width="1.5" stroke-miterlimit="10"/>
</svg>
