<svg width="24" height="24" viewBox="0 0 24 24" fill="none" xmlns="http://www.w3.org/2000/svg">
<path d="M21.81 3.93814C20.5 7.20814 17.51 11.4781 14.66 14.2681C14.4574 13.0075 13.8555 11.8451 12.9428 10.9522C12.0301 10.0593 10.8548 9.483 9.59 9.30814C12.39 6.44814 16.69 3.41814 19.97 2.09814C20.55 1.87814 21.13 2.04814 21.49 2.40814C21.87 2.78814 22.05 3.35814 21.81 3.93814Z" fill="black"/>
<path d="M13.78 15.09C13.58 15.26 13.38 15.43 13.18 15.59L11.39 17.02C11.39 16.99 11.38 16.95 11.38 16.91C11.24 15.84 10.74 14.85 9.93 14.04C9.13567 13.2342 8.09282 12.7198 6.97 12.58C6.94 12.58 6.9 12.57 6.87 12.57L8.32 10.74C8.46 10.56 8.61 10.39 8.77 10.21L9.45 10.3C11.6 10.6 13.33 12.29 13.67 14.43L13.78 15.09Z" fill="black"/>
<path d="M10.43 17.6198C10.43 18.7198 10.01 19.7698 9.21 20.5598C8.6 21.1798 7.78 21.5998 6.78 21.7198L4.33 21.9898C2.99 22.1398 1.84 20.9898 1.99 19.6398L2.26 17.1798C2.5 14.9898 4.33 13.5898 6.27 13.5498C6.46 13.5398 6.67 13.5498 6.87 13.5698C7.72 13.6798 8.54 14.0698 9.23 14.7498C9.9 15.4198 10.28 16.2098 10.39 17.0398C10.41 17.2398 10.43 17.4298 10.43 17.6198Z" fill="black"/>
</svg>
