<svg width="24" height="24" viewBox="0 0 24 24" fill="none" xmlns="http://www.w3.org/2000/svg">
<path d="M18.02 3.01011C18.69 2.65011 19.35 2.34011 19.96 2.10011C20.55 1.88011 21.12 2.04011 21.48 2.41011C21.86 2.79011 22.04 3.36011 21.8 3.95011C20.26 7.79011 16.4 13.0101 13.17 15.6001L11.2 17.1801C10.95 17.3601 10.7 17.5201 10.42 17.6301C10.42 17.4501 10.41 17.2501 10.38 17.0601C10.27 16.2201 9.89 15.4401 9.22 14.7701C8.54 14.0901 7.71 13.6901 6.86 13.5801C6.66 13.5701 6.46 13.5501 6.26 13.5701C6.37 13.2601 6.54 12.9701 6.75 12.7301L8.31 10.7601C9.66 9.07011 11.75 7.20011 13.97 5.58011" stroke="black" stroke-width="1.5" stroke-linecap="round" stroke-linejoin="round"/>
<path d="M14.24 14.4678C14.24 11.8578 12.12 9.73779 9.51 9.73779M10.43 17.6188C10.43 18.7188 10.01 19.7688 9.22 20.5688C8.61 21.1788 7.78 21.5988 6.79 21.7288L4.33 21.9988C2.99 22.1488 1.84 21.0088 2 19.6488L2.27 17.1888C2.51 14.9988 4.34 13.5988 6.28 13.5588C6.48 13.5488 6.69 13.5588 6.88 13.5688C7.73 13.6788 8.56 14.0688 9.24 14.7588C9.91 15.4288 10.29 16.2088 10.4 17.0488C10.41 17.2388 10.43 17.4288 10.43 17.6188Z" stroke="black" stroke-width="1.5" stroke-linecap="round" stroke-linejoin="round"/>
</svg>
