<svg width="24" height="24" viewBox="0 0 24 24" fill="none" xmlns="http://www.w3.org/2000/svg">
<path d="M21.81 3.93814C20.5 7.20814 17.51 11.4781 14.66 14.2681C14.4574 13.0075 13.8555 11.8451 12.9428 10.9522C12.0301 10.0593 10.8548 9.483 9.59 9.30814C12.39 6.44814 16.69 3.41814 19.97 2.09814C20.55 1.87814 21.13 2.04814 21.49 2.40814C21.87 2.78814 22.05 3.35814 21.81 3.93814Z" fill="black"/>
<path opacity="0.4" d="M14.66 14.2691C14.16 14.7591 13.66 15.2091 13.18 15.5891L11.21 17.1691C10.96 17.3491 10.71 17.4991 10.43 17.6191C10.43 17.4291 10.41 17.2391 10.39 17.0391C10.28 16.2091 9.9 15.4191 9.23 14.7491C8.54 14.0691 7.72 13.6791 6.87 13.5691C6.67 13.5491 6.46 13.5391 6.27 13.5491C6.38 13.2391 6.55 12.9491 6.76 12.7091L8.32 10.7391C8.69 10.2691 9.12 9.78908 9.59 9.30908C12.19 9.66908 14.25 11.6891 14.66 14.2691Z" fill="black"/>
<path d="M10.43 17.6198C10.43 18.7198 10.01 19.7698 9.21 20.5598C8.6 21.1798 7.78 21.5998 6.78 21.7198L4.33 21.9898C2.99 22.1398 1.84 20.9898 1.99 19.6398L2.26 17.1798C2.5 14.9898 4.33 13.5898 6.27 13.5498C6.46 13.5398 6.67 13.5498 6.87 13.5698C7.72 13.6798 8.54 14.0698 9.23 14.7498C9.9 15.4198 10.28 16.2098 10.39 17.0398C10.41 17.2398 10.43 17.4298 10.43 17.6198Z" fill="black"/>
</svg>
