<svg width="24" height="24" viewBox="0 0 24 24" fill="none" xmlns="http://www.w3.org/2000/svg">
<path d="M21.81 3.93988C20.27 7.77988 16.41 12.9999 13.18 15.5899L11.21 17.1699C10.96 17.3499 10.71 17.5099 10.43 17.6199C10.43 17.4399 10.42 17.2399 10.39 17.0499C10.28 16.2099 9.9 15.4299 9.23 14.7599C8.55 14.0799 7.72 13.6799 6.87 13.5699C6.67 13.5599 6.47 13.5399 6.27 13.5599C6.38 13.2499 6.55 12.9599 6.76 12.7199L8.32 10.7499C10.9 7.51988 16.14 3.63988 19.97 2.10988C20.56 1.88988 21.13 2.04988 21.49 2.41988C21.87 2.78988 22.05 3.35988 21.81 3.93988Z" stroke="black" stroke-width="1.5" stroke-linecap="round" stroke-linejoin="round"/>
<path d="M14.24 14.4702C14.24 11.8602 12.12 9.74023 9.51 9.74023M10.43 17.6202C10.43 18.7202 10.01 19.7702 9.22 20.5702C8.61 21.1802 7.78 21.6002 6.79 21.7302L4.33 22.0002C2.99 22.1502 1.84 21.0102 2 19.6502L2.27 17.1902C2.51 15.0002 4.34 13.6002 6.28 13.5602C6.48 13.5502 6.69 13.5602 6.88 13.5702C7.73 13.6802 8.56 14.0702 9.24 14.7602C9.91 15.4302 10.29 16.2102 10.4 17.0502C10.41 17.2402 10.43 17.4302 10.43 17.6202Z" stroke="black" stroke-width="1.5" stroke-linecap="round" stroke-linejoin="round"/>
</svg>
