<svg width="24" height="24" viewBox="0 0 24 24" fill="none" xmlns="http://www.w3.org/2000/svg">
<path d="M10.43 18.3699C10.28 18.3699 10.14 18.3299 10.01 18.2399C9.90782 18.1721 9.82414 18.0799 9.76652 17.9716C9.70891 17.8634 9.67917 17.7425 9.68001 17.6199C9.68001 17.4699 9.67001 17.3099 9.65001 17.1499C9.56001 16.4399 9.24001 15.8199 8.70001 15.2799C8.16001 14.7399 7.49001 14.3999 6.77001 14.3099C6.65001 14.2999 6.48001 14.2899 6.32001 14.2999C6.06001 14.3199 5.82001 14.2099 5.67001 13.9999C5.59611 13.899 5.54754 13.7818 5.52839 13.6583C5.50925 13.5347 5.52009 13.4084 5.56001 13.2899C5.71001 12.8799 5.93001 12.5099 6.19001 12.2099L7.73001 10.2699C10.38 6.95987 15.75 2.97986 19.68 1.39986C20.072 1.24305 20.5012 1.20399 20.9151 1.28747C21.3289 1.37096 21.7095 1.57335 22.01 1.86986C22.64 2.49986 22.83 3.39986 22.5 4.21986C20.92 8.15986 16.95 13.5199 13.64 16.1699L11.67 17.7499C11.3 18.0199 11 18.1899 10.7 18.3099C10.62 18.3499 10.52 18.3699 10.43 18.3699ZM7.54001 12.9399C8.38001 13.1599 9.13001 13.5999 9.76001 14.2299C10.3674 14.8148 10.8032 15.5549 11.02 16.3699L12.71 15.0099C15.85 12.4999 19.62 7.40986 21.11 3.66986C21.1627 3.54832 21.1756 3.41322 21.1468 3.2839C21.1181 3.15458 21.0492 3.03766 20.95 2.94986C20.8558 2.85696 20.7362 2.79407 20.6062 2.76915C20.4763 2.74423 20.3419 2.7584 20.22 2.80986C16.5 4.30986 11.41 8.07986 8.89001 11.2199L7.54001 12.9399Z" fill="black"/>
<path d="M4.08 22.7498C3.33 22.7498 2.61 22.4498 2.07 21.9098C1.45 21.2898 1.15 20.4298 1.25 19.5498L1.52 17.0898C1.78 14.6498 3.78 12.8398 6.26 12.7898C6.45 12.7798 6.7 12.7898 6.93 12.8098C8.02 12.9498 8.99 13.4398 9.77 14.2198C10.54 14.9898 11 15.9098 11.14 16.9398C11.2463 17.6911 11.177 18.4569 10.9376 19.1769C10.6981 19.897 10.2951 20.5517 9.76 21.0898C8.99 21.8498 8 22.3198 6.88 22.4598L4.41 22.7298C4.3 22.7398 4.19 22.7498 4.08 22.7498ZM6.45 14.2998H6.32C4.81 14.3298 3.21 15.3598 3.01 17.2598L2.74 19.7198C2.69 20.1398 2.84 20.5498 3.13 20.8498C3.42 21.1398 3.83 21.2898 4.24 21.2398L6.7 20.9698C7.47 20.8698 8.16 20.5498 8.68 20.0298C9.32 19.3898 9.68 18.5298 9.68 17.6098C9.68 17.4598 9.67 17.2998 9.65 17.1398C9.56 16.4298 9.24 15.8098 8.7 15.2698C8.16 14.7298 7.49 14.3898 6.77 14.2998H6.45ZM14.24 15.2178C13.83 15.2178 13.49 14.8778 13.49 14.4678C13.49 12.2678 11.7 10.4878 9.51 10.4878C9.1 10.4878 8.76 10.1478 8.76 9.73779C8.76 9.32779 9.09 8.98779 9.5 8.98779C12.52 8.98779 14.98 11.4478 14.98 14.4678C14.99 14.8878 14.65 15.2178 14.24 15.2178Z" fill="black"/>
</svg>
