<svg width="24" height="24" viewBox="0 0 24 24" fill="none" xmlns="http://www.w3.org/2000/svg">
<path d="M16.24 9.52048L20.95 14.2305C21.23 14.5105 21.72 14.3605 21.8 13.9705C21.93 13.3305 22 12.6705 22 12.0005C22 9.71048 21.22 7.60048 19.93 5.92048C19.75 5.68048 19.39 5.67048 19.18 5.88048L16.24 8.82048C16.05 9.01048 16.05 9.33048 16.24 9.52048ZM14.48 10.5805L12.71 12.3505C12.51 12.5505 12.51 12.8605 12.71 13.0605L18.53 18.8805C18.73 19.0805 19.05 19.0805 19.24 18.8805C19.86 18.2305 20.39 17.5005 20.82 16.7105C20.92 16.5205 20.88 16.2705 20.73 16.1205L15.19 10.5805C15.0945 10.4889 14.9673 10.4378 14.835 10.4378C14.7027 10.4378 14.5755 10.4889 14.48 10.5805ZM10.94 14.1205L9.18 15.8805C8.98 16.0805 8.98 16.3905 9.18 16.5905L14.1 21.5205C14.1627 21.5839 14.2412 21.6293 14.3273 21.6522C14.4135 21.675 14.5042 21.6744 14.59 21.6505C15.52 21.4005 16.4 21.0205 17.2 20.5205C17.47 20.3505 17.51 19.9705 17.28 19.7405L11.65 14.1105C11.5521 14.0225 11.4246 13.9747 11.293 13.9765C11.1614 13.9784 11.0354 14.0298 10.94 14.1205ZM18.08 4.07048C16.003 2.46481 13.3752 1.74585 10.77 2.07048C6.26 2.61048 2.61 6.27048 2.07 10.7705C1.74 13.5305 2.54 16.0905 4.07 18.0805C4.25 18.3205 4.61 18.3305 4.82 18.1205L18.12 4.82048C18.33 4.61048 18.32 4.25048 18.08 4.07048ZM7.4 17.6705L5.88 19.1905C5.67 19.4005 5.68 19.7605 5.92 19.9405C7.47259 21.145 9.34935 21.8588 11.31 21.9905C11.74 22.0205 11.95 21.5105 11.64 21.2005L8.11 17.6705C7.92 17.4705 7.6 17.4705 7.4 17.6705Z" fill="black"/>
</svg>
