<svg width="24" height="24" viewBox="0 0 24 24" fill="none" xmlns="http://www.w3.org/2000/svg">
<path d="M2 12C2 14.76 3.12 17.26 4.93 19.07L19.07 4.93001C18.1426 3.99998 17.0407 3.26236 15.8274 2.75954C14.6141 2.25672 13.3134 1.99859 12 2.00001C8.07 2.00001 4.67 4.27001 3.03 7.57001" stroke="black" stroke-width="1.5" stroke-linecap="round" stroke-linejoin="round"/>
<path d="M7.76 16.2377L13.41 21.8977M11.29 12.7097L17.87 19.2797M14.83 9.17169L21.12 15.4717M22 11.9997C22 17.5197 17.52 21.9997 12 21.9997C9.24 21.9997 6.74 20.8797 4.93 19.0697L19.07 4.92969C20 5.85704 20.7376 6.95902 21.2405 8.17232C21.7433 9.38562 22.0014 10.6863 22 11.9997Z" stroke="black" stroke-width="1.5" stroke-linecap="round" stroke-linejoin="round"/>
</svg>
