<svg width="24" height="24" viewBox="0 0 24 24" fill="none" xmlns="http://www.w3.org/2000/svg">
<path opacity="0.4" d="M22 12C22 17.04 18.26 21.21 13.41 21.9C12.95 21.97 12.48 22 12 22C9.24 22 6.74 20.88 4.93 19.07C3.99997 18.1426 3.26236 17.0407 2.75953 15.8274C2.25671 14.6141 1.99859 13.3134 2 12C2 6.48 6.48 2 12 2C14.76 2 17.26 3.12 19.07 4.93C20 5.85735 20.7376 6.95934 21.2405 8.17264C21.7433 9.38594 22.0014 10.6866 22 12Z" fill="black"/>
<path d="M14.83 10.2319L12.35 12.7119L18.88 19.2419C18.52 19.5919 18.13 19.9119 17.72 20.2019L11.29 13.7719L8.82 16.2419L13.94 21.3719C14.05 21.4819 14.12 21.6219 14.15 21.7619V21.7719C13.91 21.8219 13.66 21.8719 13.41 21.9019C13.09 21.9519 12.77 21.9819 12.44 21.9919L7.76 17.3019L5.48 19.5819C5.28945 19.4198 5.10595 19.2497 4.93 19.0719C4.75221 18.8959 4.58205 18.7124 4.42 18.5219L18.52 4.42188C18.71 4.58187 18.89 4.75188 19.07 4.93188C19.25 5.11188 19.42 5.29187 19.58 5.48187L15.89 9.17188L21.58 14.8619C21.42 15.3919 21.22 15.8919 20.98 16.3819L14.83 10.2319Z" fill="black"/>
</svg>
