<svg width="24" height="24" viewBox="0 0 24 24" fill="none" xmlns="http://www.w3.org/2000/svg">
<path d="M19.07 4.93L4.93001 19.07C3.99998 18.1426 3.26236 17.0407 2.75954 15.8274C2.25672 14.6141 1.99859 13.3134 2.00001 12C2.00001 6.48 6.48001 2 12 2C14.76 2 17.26 3.12 19.07 4.93Z" stroke="black" stroke-width="1.5" stroke-linecap="round" stroke-linejoin="round"/>
<path d="M7.75999 16.2397L13.41 21.8997M11.29 12.7097L17.87 19.2797M14.83 9.16969L21.12 15.4697M22 11.9997C22 17.5197 17.52 21.9997 12 21.9997C9.23999 21.9997 6.73999 20.8797 4.92999 19.0697L19.07 4.92969C20 5.85704 20.7376 6.95902 21.2405 8.17232C21.7433 9.38562 22.0014 10.6863 22 11.9997Z" stroke="black" stroke-width="1.5" stroke-linecap="round" stroke-linejoin="round"/>
</svg>
