<svg width="24" height="24" viewBox="0 0 24 24" fill="none" xmlns="http://www.w3.org/2000/svg">
<path d="M4.93 19.82C4.73116 19.8198 4.54052 19.7407 4.4 19.6C3.39862 18.6043 2.60461 17.42 2.06392 16.1154C1.52323 14.8109 1.24659 13.4121 1.25 12C1.25 6.07 6.07 1.25 12 1.25C14.87 1.25 17.57 2.37 19.6 4.4C19.7405 4.54063 19.8193 4.73125 19.8193 4.93C19.8193 5.12875 19.7405 5.31937 19.6 5.46L5.46 19.6C5.31948 19.7407 5.12885 19.8198 4.93 19.82ZM12 2.75C6.9 2.75 2.75 6.9 2.75 12C2.74522 14.1952 3.52552 16.3197 4.95 17.99L17.99 4.95C16.3197 3.52552 14.1952 2.74522 12 2.75Z" fill="black"/>
<path d="M12 22.7511C9.13 22.7511 6.43 21.6311 4.4 19.6011C4.25955 19.4605 4.18066 19.2698 4.18066 19.0711C4.18066 18.8723 4.25955 18.6817 4.4 18.5411L18.54 4.40109C18.83 4.11109 19.31 4.11109 19.6 4.40109C21.63 6.43109 22.75 9.13109 22.75 12.0011C22.75 17.9311 17.93 22.7511 12 22.7511ZM6.01 19.0511C7.68025 20.4756 9.8048 21.2559 12 21.2511C17.1 21.2511 21.25 17.1011 21.25 12.0011C21.2548 9.8059 20.4745 7.68135 19.05 6.01109L6.01 19.0511Z" fill="black"/>
<path d="M13.41 22.6501C13.22 22.6501 13.03 22.5801 12.88 22.4301L7.22 16.7701C7.08052 16.629 7.0023 16.4385 7.0023 16.2401C7.0023 16.0417 7.08052 15.8512 7.22 15.7101C7.51 15.4201 7.99 15.4201 8.28 15.7101L13.94 21.3701C14.23 21.6601 14.23 22.1401 13.94 22.4301C13.8718 22.5016 13.7895 22.5581 13.6982 22.596C13.607 22.6339 13.5088 22.6523 13.41 22.6501ZM17.87 20.0301C17.68 20.0301 17.49 19.9601 17.34 19.8101L10.76 13.2301C10.6205 13.089 10.5423 12.8985 10.5423 12.7001C10.5423 12.5017 10.6205 12.3112 10.76 12.1701C11.05 11.8801 11.53 11.8801 11.82 12.1701L18.4 18.7501C18.69 19.0401 18.69 19.5201 18.4 19.8101C18.25 19.9601 18.06 20.0301 17.87 20.0301ZM21.12 16.2211C20.93 16.2211 20.74 16.1511 20.59 16.0011L14.3 9.71109C14.1605 9.56996 14.0823 9.37952 14.0823 9.18109C14.0823 8.98266 14.1605 8.79223 14.3 8.65109C14.59 8.36109 15.07 8.36109 15.36 8.65109L21.65 14.9411C21.7548 15.046 21.8261 15.1796 21.855 15.325C21.8838 15.4704 21.869 15.6211 21.8123 15.758C21.7556 15.895 21.6595 16.0121 21.5363 16.0945C21.4131 16.1769 21.2682 16.221 21.12 16.2211Z" fill="black"/>
</svg>
