<svg width="24" height="24" viewBox="0 0 24 24" fill="none" xmlns="http://www.w3.org/2000/svg">
<path d="M4.93 19.07C3.99997 18.1426 3.26236 17.0407 2.75953 15.8274C2.25671 14.6141 1.99859 13.3134 2 12C2 6.48 6.48 2 12 2C14.76 2 17.26 3.12 19.07 4.93" stroke="black" stroke-width="1.5" stroke-linecap="round" stroke-linejoin="round"/>
<path d="M19.07 4.92969C20 5.85704 20.7376 6.95902 21.2405 8.17232C21.7433 9.38562 22.0014 10.6863 22 11.9997C22 17.5197 17.52 21.9997 12 21.9997C9.24 21.9997 6.74 20.8797 4.93 19.0697" stroke="black" stroke-width="1.5" stroke-linecap="round" stroke-linejoin="round"/>
<g opacity="0.4">
<path d="M19.07 4.92969L4.93 19.0697M7.76 16.2377L13.41 21.8977M11.29 12.7097L17.87 19.2797M14.83 9.16769L21.12 15.4677" stroke="black" stroke-width="1.5" stroke-linecap="round" stroke-linejoin="round"/>
</g>
</svg>
