<svg width="24" height="24" viewBox="0 0 24 24" fill="none" xmlns="http://www.w3.org/2000/svg">
<path opacity="0.4" d="M16.19 22.0017H7.82C4.18 22.0017 2.01 19.8317 2.01 16.1917V7.82172C2.01 4.18172 4.18 2.01172 7.82 2.01172H16.19C19.83 2.01172 22 4.18172 22 7.82172V16.1917C22 19.8317 19.83 22.0017 16.19 22.0017Z" fill="black"/>
<path d="M16.41 9.82953C16.1136 10.6784 15.5609 11.4144 14.8282 11.9356C14.0956 12.4569 13.2192 12.7378 12.32 12.7395H12.3L10.24 12.7295H10.23C9.47 12.7295 8.81 13.2395 8.61 13.9695C9.5 14.2495 10.15 15.0795 10.15 16.0595C10.15 17.2695 9.16 18.2595 7.95 18.2595C6.74 18.2595 5.75 17.2695 5.75 16.0595C5.75 15.1695 6.29 14.3995 7.05 14.0595V9.71953C6.668 9.56937 6.33988 9.308 6.10811 8.96925C5.87633 8.6305 5.75158 8.22998 5.75 7.81953C5.75 6.68953 6.67 5.76953 7.8 5.76953C8.93 5.76953 9.85 6.68953 9.85 7.81953C9.85 8.68953 9.31 9.41953 8.55 9.71953V11.7395C9.04 11.4295 9.62 11.2495 10.23 11.2495H10.24L12.3 11.2595C13.48 11.2995 14.53 10.5395 14.95 9.43953C14.46 9.05953 14.14 8.47953 14.14 7.81953C14.14 6.68953 15.06 5.76953 16.19 5.76953C17.32 5.76953 18.24 6.68953 18.24 7.81953C18.25 8.85953 17.44 9.71953 16.41 9.82953Z" fill="black"/>
</svg>
