<svg width="24" height="24" viewBox="0 0 24 24" fill="none" xmlns="http://www.w3.org/2000/svg">
<path d="M7.8 14.5516C7.39 14.5516 7.05 14.2116 7.05 13.8016V9.60156C7.05 9.19156 7.39 8.85156 7.8 8.85156C8.21 8.85156 8.55 9.19156 8.55 9.60156V13.8016C8.55 14.2116 8.21 14.5516 7.8 14.5516Z" fill="black"/>
<path d="M7.95 18.752C6.46 18.752 5.25 17.542 5.25 16.052C5.25 14.562 6.46 13.352 7.95 13.352C9.44 13.352 10.65 14.562 10.65 16.052C10.65 17.542 9.44 18.752 7.95 18.752ZM7.95 14.852C7.29 14.852 6.75 15.392 6.75 16.052C6.75 16.712 7.29 17.252 7.95 17.252C8.61 17.252 9.15 16.712 9.15 16.052C9.15 15.392 8.61 14.852 7.95 14.852ZM7.8 10.35C6.39 10.35 5.25 9.21 5.25 7.8C5.25 6.39 6.39 5.25 7.8 5.25C9.21 5.25 10.35 6.39 10.35 7.8C10.35 9.21 9.21 10.35 7.8 10.35ZM7.8 6.75C7.66211 6.75 7.52557 6.77716 7.39818 6.82993C7.27079 6.88269 7.15504 6.96004 7.05754 7.05754C6.96004 7.15504 6.88269 7.27079 6.82993 7.39818C6.77716 7.52557 6.75 7.66211 6.75 7.8C6.75 7.93789 6.77716 8.07443 6.82993 8.20182C6.88269 8.32921 6.96004 8.44496 7.05754 8.54246C7.15504 8.63996 7.27079 8.71731 7.39818 8.77007C7.52557 8.82284 7.66211 8.85 7.8 8.85C8.07848 8.85 8.34555 8.73938 8.54246 8.54246C8.73938 8.34555 8.85 8.07848 8.85 7.8C8.85 7.52152 8.73938 7.25445 8.54246 7.05754C8.34555 6.86062 8.07848 6.75 7.8 6.75ZM16.2 10.35C14.79 10.35 13.65 9.21 13.65 7.8C13.65 6.39 14.79 5.25 16.2 5.25C17.61 5.25 18.75 6.39 18.75 7.8C18.75 9.21 17.61 10.35 16.2 10.35ZM16.2 6.75C16.0621 6.75 15.9256 6.77716 15.7982 6.82993C15.6708 6.88269 15.555 6.96004 15.4575 7.05754C15.36 7.15504 15.2827 7.27079 15.2299 7.39818C15.1772 7.52557 15.15 7.66211 15.15 7.8C15.15 7.93789 15.1772 8.07443 15.2299 8.20182C15.2827 8.32921 15.36 8.44496 15.4575 8.54246C15.555 8.63996 15.6708 8.71731 15.7982 8.77007C15.9256 8.82284 16.0621 8.85 16.2 8.85C16.4785 8.85 16.7455 8.73938 16.9425 8.54246C17.1394 8.34555 17.25 8.07848 17.25 7.8C17.25 7.52152 17.1394 7.25445 16.9425 7.05754C16.7455 6.86062 16.4785 6.75 16.2 6.75Z" fill="black"/>
<path d="M7.88001 14.5506C7.82001 14.5506 7.75 14.5406 7.69 14.5306C7.49798 14.4811 7.33336 14.3576 7.23217 14.187C7.13097 14.0165 7.10143 13.8128 7.15 13.6206C7.32537 12.9377 7.7235 12.3328 8.28138 11.9017C8.83925 11.4707 9.52499 11.238 10.23 11.2406H10.24L12.3 11.2506H12.31C13.52 11.2506 14.59 10.4906 14.99 9.35055C15.0228 9.25797 15.0736 9.17276 15.1393 9.09979C15.2051 9.02682 15.2846 8.96752 15.3733 8.92527C15.462 8.88301 15.5581 8.85865 15.6562 8.85355C15.7543 8.84845 15.8524 8.86272 15.945 8.89555C16.0376 8.92838 16.1228 8.97913 16.1958 9.04489C16.2687 9.11065 16.328 9.19014 16.3703 9.27882C16.4125 9.3675 16.4369 9.46363 16.442 9.56173C16.4471 9.65983 16.4328 9.75797 16.4 9.85055C16.1052 10.7044 15.5501 11.4444 14.8129 11.9664C14.0756 12.4884 13.1933 12.7661 12.29 12.7606L10.23 12.7506H10.22C9.45001 12.7506 8.78001 13.2706 8.59001 14.0106C8.52001 14.3306 8.21001 14.5506 7.88001 14.5506Z" fill="black"/>
<path d="M15 22.75H9C3.57 22.75 1.25 20.43 1.25 15V9C1.25 3.57 3.57 1.25 9 1.25H15C20.43 1.25 22.75 3.57 22.75 9V15C22.75 20.43 20.43 22.75 15 22.75ZM9 2.75C4.39 2.75 2.75 4.39 2.75 9V15C2.75 19.61 4.39 21.25 9 21.25H15C19.61 21.25 21.25 19.61 21.25 15V9C21.25 4.39 19.61 2.75 15 2.75H9Z" fill="black"/>
</svg>
