<svg width="24" height="24" viewBox="0 0 24 24" fill="none" xmlns="http://www.w3.org/2000/svg">
<g opacity="0.4">
<path d="M7.8 13.802V9.602M7.879 13.798C8.01368 13.2752 8.31893 12.8123 8.74642 12.4827C9.1739 12.153 9.69917 11.9754 10.239 11.978L12.299 11.988C13.869 11.998 15.209 10.988 15.699 9.578M7.95 18.002C8.20608 18.002 8.45965 17.9516 8.69623 17.8536C8.93282 17.7556 9.14778 17.6119 9.32886 17.4309C9.50993 17.2498 9.65357 17.0348 9.75156 16.7982C9.84956 16.5616 9.9 16.3081 9.9 16.052C9.9 15.7959 9.84956 15.5424 9.75156 15.3058C9.65357 15.0692 9.50993 14.8542 9.32886 14.6731C9.14778 14.4921 8.93282 14.3484 8.69623 14.2504C8.45965 14.1524 8.20608 14.102 7.95 14.102C7.43283 14.102 6.93684 14.3074 6.57114 14.6731C6.20545 15.0388 6 15.5348 6 16.052C6 16.5692 6.20545 17.0652 6.57114 17.4309C6.93684 17.7966 7.43283 18.002 7.95 18.002ZM7.8 9.6C8.03638 9.6 8.27044 9.55344 8.48883 9.46298C8.70722 9.37252 8.90565 9.23994 9.07279 9.07279C9.23994 8.90565 9.37252 8.70722 9.46298 8.48883C9.55344 8.27044 9.6 8.03638 9.6 7.8C9.6 7.56362 9.55344 7.32956 9.46298 7.11117C9.37252 6.89278 9.23994 6.69435 9.07279 6.52721C8.90565 6.36006 8.70722 6.22748 8.48883 6.13702C8.27044 6.04656 8.03638 6 7.8 6C7.32261 6 6.86477 6.18964 6.52721 6.52721C6.18964 6.86477 6 7.32261 6 7.8C6 8.27739 6.18964 8.73523 6.52721 9.07279C6.86477 9.41036 7.32261 9.6 7.8 9.6ZM16.2 9.6C16.4364 9.6 16.6704 9.55344 16.8888 9.46298C17.1072 9.37252 17.3056 9.23994 17.4728 9.07279C17.6399 8.90565 17.7725 8.70722 17.863 8.48883C17.9534 8.27044 18 8.03638 18 7.8C18 7.56362 17.9534 7.32956 17.863 7.11117C17.7725 6.89278 17.6399 6.69435 17.4728 6.52721C17.3056 6.36006 17.1072 6.22748 16.8888 6.13702C16.6704 6.04656 16.4364 6 16.2 6C15.7226 6 15.2648 6.18964 14.9272 6.52721C14.5896 6.86477 14.4 7.32261 14.4 7.8C14.4 8.27739 14.5896 8.73523 14.9272 9.07279C15.2648 9.41036 15.7226 9.6 16.2 9.6Z" stroke="black" stroke-width="1.5" stroke-linecap="round" stroke-linejoin="round"/>
</g>
<path d="M9 2H15C20 2 22 4 22 9V15C22 20 20 22 15 22H9C4 22 2 20 2 15V9C2 4 4 2 9 2Z" stroke="black" stroke-width="1.5" stroke-linecap="round" stroke-linejoin="round"/>
</svg>
