<svg width="24" height="24" viewBox="0 0 24 24" fill="none" xmlns="http://www.w3.org/2000/svg">
<path d="M20 6V6.24H14.87C11.9 6.24 10.52 7.62 10.52 10.59V15.7H9.75V19.25H10.52V20.75H4.95C4.54 20.75 4.2 20.41 4.2 20C4.2 19.59 4.54 19.25 4.95 19.25H8.25V15.7H6C2.87 15.7 2.03 14.93 2 11.9V6C2 2.8 2.8 2 6 2H16C19.2 2 20 2.8 20 6Z" fill="black"/>
<path d="M20 7.78779C19.75 7.75779 19.46 7.73779 19.15 7.73779H14.87C12.73 7.73779 12.02 8.44779 12.02 10.5878V19.2478C12.03 19.8678 12.1 20.3578 12.25 20.7478C12.6 21.6578 13.39 21.9978 14.87 21.9978H19.15C21.29 21.9978 22 21.2878 22 19.1478V10.5878C22 8.75779 21.48 7.97779 20 7.78779ZM17.01 10.0878C17.88 10.0878 18.58 10.7878 18.58 11.6578C18.58 12.5278 17.88 13.2278 17.01 13.2278C16.14 13.2278 15.44 12.5278 15.44 11.6578C15.44 10.7878 16.14 10.0878 17.01 10.0878ZM17.01 19.1478C15.83 19.1478 14.87 18.1878 14.87 17.0078C14.8706 16.5979 14.9887 16.1968 15.2104 15.8521C15.432 15.5074 15.748 15.2335 16.1207 15.0629C16.4933 14.8924 16.9071 14.8323 17.3129 14.8899C17.7187 14.9475 18.0995 15.1203 18.41 15.3878C18.86 15.7878 19.15 16.3678 19.15 17.0078C19.15 18.1878 18.19 19.1478 17.01 19.1478Z" fill="black"/>
<path d="M20 7.78779C19.75 7.75779 19.46 7.73779 19.15 7.73779H14.87C12.73 7.73779 12.02 8.44779 12.02 10.5878V19.2478C12.03 19.8678 12.1 20.3578 12.25 20.7478C12.6 21.6578 13.39 21.9978 14.87 21.9978H19.15C21.29 21.9978 22 21.2878 22 19.1478V10.5878C22 8.75779 21.48 7.97779 20 7.78779ZM17.01 10.0878C17.88 10.0878 18.58 10.7878 18.58 11.6578C18.58 12.5278 17.88 13.2278 17.01 13.2278C16.14 13.2278 15.44 12.5278 15.44 11.6578C15.44 10.7878 16.14 10.0878 17.01 10.0878ZM17.01 19.1478C15.83 19.1478 14.87 18.1878 14.87 17.0078C14.8706 16.5979 14.9887 16.1968 15.2104 15.8521C15.432 15.5074 15.748 15.2335 16.1207 15.0629C16.4933 14.8924 16.9071 14.8323 17.3129 14.8899C17.7187 14.9475 18.0995 15.1203 18.41 15.3878C18.86 15.7878 19.15 16.3678 19.15 17.0078C19.15 18.1878 18.19 19.1478 17.01 19.1478Z" fill="black"/>
</svg>
