<svg width="24" height="24" viewBox="0 0 24 24" fill="none" xmlns="http://www.w3.org/2000/svg">
<path d="M17.01 12.7298C17.2938 12.7298 17.5659 12.6171 17.7666 12.4164C17.9673 12.2158 18.08 11.9436 18.08 11.6598C18.08 11.3761 17.9673 11.1039 17.7666 10.9032C17.5659 10.7026 17.2938 10.5898 17.01 10.5898C16.7262 10.5898 16.4541 10.7026 16.2534 10.9032C16.0527 11.1039 15.94 11.3761 15.94 11.6598C15.94 11.9436 16.0527 12.2158 16.2534 12.4164C16.4541 12.6171 16.7262 12.7298 17.01 12.7298Z" stroke="black" stroke-width="1.5" stroke-linecap="round" stroke-linejoin="round"/>
<path d="M2 6C2 2.8 2.8 2 6 2H16C19.2 2 20 2.8 20 6V7.79C19.75 7.76 19.46 7.74 19.15 7.74H14.87C12.73 7.74 12.02 8.45 12.02 10.59V15.7H6C2.8 15.7 2 14.9 2 11.7V10.05M9 15.7V20M2 11.898H12M5.95 20H12" stroke="black" stroke-width="1.5" stroke-linecap="round" stroke-linejoin="round"/>
<path d="M17.01 12.7298C17.2938 12.7298 17.5659 12.6171 17.7666 12.4164C17.9673 12.2158 18.08 11.9436 18.08 11.6598C18.08 11.3761 17.9673 11.1039 17.7666 10.9032C17.5659 10.7026 17.2938 10.5898 17.01 10.5898C16.7262 10.5898 16.4541 10.7026 16.2534 10.9032C16.0527 11.1039 15.94 11.3761 15.94 11.6598C15.94 11.9436 16.0527 12.2158 16.2534 12.4164C16.4541 12.6171 16.7262 12.7298 17.01 12.7298Z" stroke="black" stroke-width="1.5" stroke-miterlimit="10" stroke-linecap="round" stroke-linejoin="round"/>
<path d="M20 7.78779C19.75 7.75779 19.46 7.73779 19.15 7.73779H14.87C12.73 7.73779 12.02 8.44779 12.02 10.5878V19.1478C12.02 21.2878 12.73 21.9978 14.87 21.9978H19.15C21.29 21.9978 22 21.2878 22 19.1478V10.5878C22 8.75779 21.48 7.97779 20 7.78779ZM17.01 10.5878C17.2858 10.5997 17.5463 10.7177 17.7372 10.917C17.9282 11.1164 18.0347 11.3818 18.0347 11.6578C18.0347 11.9338 17.9282 12.1992 17.7372 12.3986C17.5463 12.5979 17.2858 12.7159 17.01 12.7278C16.42 12.7278 15.94 12.2478 15.94 11.6578C15.94 11.0678 16.42 10.5878 17.01 10.5878ZM17.01 19.1478C15.83 19.1478 14.87 18.1878 14.87 17.0078C14.8706 16.5979 14.9887 16.1968 15.2104 15.8521C15.432 15.5074 15.748 15.2335 16.1207 15.0629C16.4933 14.8924 16.9071 14.8323 17.3129 14.8899C17.7187 14.9475 18.0995 15.1203 18.41 15.3878C18.86 15.7878 19.15 16.3678 19.15 17.0078C19.15 18.1878 18.19 19.1478 17.01 19.1478Z" stroke="black" stroke-width="1.5" stroke-miterlimit="10" stroke-linecap="round" stroke-linejoin="round"/>
<path d="M19.15 17.0068C19.15 18.1868 18.19 19.1468 17.01 19.1468C15.83 19.1468 14.87 18.1868 14.87 17.0068C14.8705 16.597 14.9887 16.1959 15.2104 15.8512C15.432 15.5064 15.748 15.2325 16.1207 15.062C16.4933 14.8914 16.9071 14.8314 17.3129 14.889C17.7187 14.9466 18.0995 15.1193 18.41 15.3868C18.86 15.7868 19.15 16.3668 19.15 17.0068ZM17.01 12.7298C17.2938 12.7298 17.5659 12.6171 17.7666 12.4164C17.9673 12.2158 18.08 11.9436 18.08 11.6598C18.08 11.3761 17.9673 11.1039 17.7666 10.9032C17.5659 10.7026 17.2938 10.5898 17.01 10.5898C16.7262 10.5898 16.4541 10.7026 16.2534 10.9032C16.0527 11.1039 15.94 11.3761 15.94 11.6598C15.94 11.9436 16.0527 12.2158 16.2534 12.4164C16.4541 12.6171 16.7262 12.7298 17.01 12.7298Z" stroke="black" stroke-width="1.5" stroke-miterlimit="10" stroke-linecap="round" stroke-linejoin="round"/>
</svg>
