<svg width="24" height="24" viewBox="0 0 24 24" fill="none" xmlns="http://www.w3.org/2000/svg">
<path opacity="0.4" d="M16 2H6C2.8 2 2 2.8 2 6V11.9C2.03 14.93 2.87 15.7 6 15.7H8.25V19.25H4.95C4.54 19.25 4.2 19.59 4.2 20C4.2 20.41 4.54 20.75 4.95 20.75H12.25C12.1 20.36 12.03 19.87 12.02 19.25H9.75V15.7H12.02V10.59C12.02 8.45 12.73 7.74 14.87 7.74H19.15C19.46 7.74 19.75 7.76 20 7.79V6C20 2.8 19.2 2 16 2Z" fill="black"/>
<path d="M20 7.78779C19.75 7.75779 19.46 7.73779 19.15 7.73779H14.87C12.73 7.73779 12.02 8.44779 12.02 10.5878V19.2478C12.03 19.8678 12.1 20.3578 12.25 20.7478C12.6 21.6578 13.39 21.9978 14.87 21.9978H19.15C21.29 21.9978 22 21.2878 22 19.1478V10.5878C22 8.75779 21.48 7.97779 20 7.78779ZM17.01 10.0878C17.88 10.0878 18.58 10.7878 18.58 11.6578C18.58 12.5278 17.88 13.2278 17.01 13.2278C16.14 13.2278 15.44 12.5278 15.44 11.6578C15.44 10.7878 16.14 10.0878 17.01 10.0878ZM17.01 19.1478C15.83 19.1478 14.87 18.1878 14.87 17.0078C14.8706 16.5979 14.9887 16.1968 15.2104 15.8521C15.432 15.5074 15.748 15.2335 16.1207 15.0629C16.4933 14.8924 16.9071 14.8323 17.3129 14.8899C17.7187 14.9475 18.0995 15.1203 18.41 15.3878C18.86 15.7878 19.15 16.3678 19.15 17.0078C19.15 18.1878 18.19 19.1478 17.01 19.1478Z" fill="black"/>
<path opacity="0.4" d="M19.15 17.0108C19.15 18.1908 18.19 19.1508 17.01 19.1508C15.83 19.1508 14.87 18.1908 14.87 17.0108C14.8706 16.601 14.9887 16.1999 15.2104 15.8552C15.432 15.5104 15.748 15.2365 16.1207 15.066C16.4933 14.8954 16.9071 14.8354 17.3129 14.893C17.7187 14.9506 18.0995 15.1233 18.41 15.3908C18.86 15.7908 19.15 16.3708 19.15 17.0108ZM17.01 13.2298C17.2162 13.2298 17.4203 13.1892 17.6108 13.1103C17.8013 13.0314 17.9744 12.9158 18.1202 12.77C18.2659 12.6242 18.3816 12.4511 18.4605 12.2607C18.5394 12.0702 18.58 11.866 18.58 11.6598C18.58 11.4537 18.5394 11.2495 18.4605 11.059C18.3816 10.8685 18.2659 10.6955 18.1202 10.5497C17.9744 10.4039 17.8013 10.2883 17.6108 10.2094C17.4203 10.1305 17.2162 10.0898 17.01 10.0898C16.5936 10.0898 16.1943 10.2553 15.8998 10.5497C15.6054 10.8441 15.44 11.2435 15.44 11.6598C15.44 12.0762 15.6054 12.4756 15.8998 12.77C16.1943 13.0644 16.5936 13.2298 17.01 13.2298Z" fill="black"/>
</svg>
