<svg width="24" height="24" viewBox="0 0 24 24" fill="none" xmlns="http://www.w3.org/2000/svg">
<path d="M17.01 12.7298C17.2938 12.7298 17.5659 12.6171 17.7666 12.4164C17.9673 12.2158 18.08 11.9436 18.08 11.6598C18.08 11.3761 17.9673 11.1039 17.7666 10.9032C17.5659 10.7026 17.2938 10.5898 17.01 10.5898C16.7262 10.5898 16.4541 10.7026 16.2534 10.9032C16.0527 11.1039 15.94 11.3761 15.94 11.6598C15.94 11.9436 16.0527 12.2158 16.2534 12.4164C16.4541 12.6171 16.7262 12.7298 17.01 12.7298Z" stroke="black" stroke-width="1.5" stroke-linecap="round" stroke-linejoin="round"/>
<path d="M9 15.7V20M2 11.9H12M5.95 20H12M20 6V7.79C19.75 7.76 19.46 7.74 19.15 7.74H14.87C12.73 7.74 12.02 8.45 12.02 10.59V15.7H6C2.8 15.7 2 14.9 2 11.7V6C2 2.8 2.8 2 6 2H16C19.2 2 20 2.8 20 6Z" stroke="black" stroke-width="1.5" stroke-linecap="round" stroke-linejoin="round"/>
<path d="M17.01 12.7298C17.2938 12.7298 17.5659 12.6171 17.7666 12.4164C17.9673 12.2158 18.08 11.9436 18.08 11.6598C18.08 11.3761 17.9673 11.1039 17.7666 10.9032C17.5659 10.7026 17.2938 10.5898 17.01 10.5898C16.7262 10.5898 16.4541 10.7026 16.2534 10.9032C16.0527 11.1039 15.94 11.3761 15.94 11.6598C15.94 11.9436 16.0527 12.2158 16.2534 12.4164C16.4541 12.6171 16.7262 12.7298 17.01 12.7298Z" stroke="black" stroke-width="1.5" stroke-miterlimit="10" stroke-linecap="round" stroke-linejoin="round"/>
<path d="M20 7.79023C19.75 7.76023 19.46 7.74023 19.15 7.74023H14.87C12.73 7.74023 12.02 8.45023 12.02 10.5902V19.1502C12.02 21.2902 12.73 22.0002 14.87 22.0002H19.15C21.29 22.0002 22 21.2902 22 19.1502V10.5902C22 8.76023 21.48 7.98023 20 7.79023ZM17.01 10.5902C17.2858 10.6022 17.5463 10.7201 17.7372 10.9195C17.9281 11.1188 18.0347 11.3842 18.0347 11.6602C18.0347 11.9363 17.9281 12.2016 17.7372 12.401C17.5463 12.6004 17.2858 12.7183 17.01 12.7302C16.7342 12.7183 16.4737 12.6004 16.2828 12.401C16.0918 12.2016 15.9853 11.9363 15.9853 11.6602C15.9853 11.3842 16.0918 11.1188 16.2828 10.9195C16.4737 10.7201 16.7342 10.6022 17.01 10.5902ZM17.01 19.1502C15.83 19.1502 14.87 18.1902 14.87 17.0102C14.8705 16.6004 14.9887 16.1993 15.2104 15.8546C15.432 15.5098 15.748 15.2359 16.1206 15.0654C16.4933 14.8948 16.9071 14.8348 17.3129 14.8924C17.7187 14.9499 18.0995 15.1227 18.41 15.3902C18.86 15.7902 19.15 16.3702 19.15 17.0102C19.15 18.1902 18.19 19.1502 17.01 19.1502Z" stroke="black" stroke-width="1.5" stroke-miterlimit="10" stroke-linecap="round" stroke-linejoin="round"/>
<path d="M19.15 17.0098C19.15 18.1898 18.19 19.1498 17.01 19.1498C15.83 19.1498 14.87 18.1898 14.87 17.0098C14.8705 16.6 14.9887 16.1989 15.2104 15.8542C15.432 15.5094 15.748 15.2355 16.1207 15.065C16.4933 14.8944 16.9071 14.8344 17.3129 14.892C17.7187 14.9496 18.0995 15.1223 18.41 15.3898C18.86 15.7898 19.15 16.3698 19.15 17.0098ZM17.01 12.7298C17.2938 12.7298 17.5659 12.6171 17.7666 12.4164C17.9673 12.2158 18.08 11.9436 18.08 11.6598C18.08 11.3761 17.9673 11.1039 17.7666 10.9032C17.5659 10.7026 17.2938 10.5898 17.01 10.5898C16.7262 10.5898 16.4541 10.7026 16.2534 10.9032C16.0527 11.1039 15.94 11.3761 15.94 11.6598C15.94 11.9436 16.0527 12.2158 16.2534 12.4164C16.4541 12.6171 16.7262 12.7298 17.01 12.7298Z" stroke="black" stroke-width="1.5" stroke-miterlimit="10" stroke-linecap="round" stroke-linejoin="round"/>
</svg>
