<svg width="24" height="24" viewBox="0 0 24 24" fill="none" xmlns="http://www.w3.org/2000/svg">
<path d="M17.01 13.4798C16.01 13.4798 15.19 12.6598 15.19 11.6598C15.19 10.6598 16.01 9.83984 17.01 9.83984C18.01 9.83984 18.83 10.6598 18.83 11.6598C18.83 12.6598 18.01 13.4798 17.01 13.4798ZM17.01 11.3398C16.83 11.3398 16.69 11.4798 16.69 11.6598C16.69 11.8398 16.83 11.9798 17.01 11.9798C17.19 11.9798 17.33 11.8398 17.33 11.6598C17.33 11.4798 17.19 11.3398 17.01 11.3398Z" fill="black"/>
<path d="M12.02 16.45H6C2.4 16.45 1.25 15.3 1.25 11.7V6C1.25 2.4 2.4 1.25 6 1.25H16C19.6 1.25 20.75 2.4 20.75 6V7.79C20.75 8 20.66 8.21 20.5 8.35C20.34 8.49 20.13 8.56 19.91 8.53C19.69 8.5 19.43 8.49 19.15 8.49H14.87C13.14 8.49 12.77 8.86 12.77 10.59V15.7C12.77 16.11 12.43 16.45 12.02 16.45ZM6 2.75C3.21 2.75 2.75 3.21 2.75 6V11.7C2.75 14.49 3.21 14.95 6 14.95H11.27V10.59C11.27 8.03 12.31 6.99 14.87 6.99H19.25V6C19.25 3.21 18.79 2.75 16 2.75H6Z" fill="black"/>
<path d="M9 20.7499C8.59 20.7499 8.25 20.4099 8.25 19.9999V15.6999C8.25 15.2899 8.59 14.9499 9 14.9499C9.41 14.9499 9.75 15.2899 9.75 15.6999V19.9999C9.75 20.4099 9.41 20.7499 9 20.7499ZM12 12.6479H2C1.59 12.6479 1.25 12.3079 1.25 11.8979C1.25 11.4879 1.59 11.1479 2 11.1479H12C12.41 11.1479 12.75 11.4879 12.75 11.8979C12.75 12.3079 12.41 12.6479 12 12.6479Z" fill="black"/>
<path d="M12 20.7498H5.95001C5.54001 20.7498 5.20001 20.4098 5.20001 19.9998C5.20001 19.5898 5.54001 19.2498 5.95001 19.2498H12C12.41 19.2498 12.75 19.5898 12.75 19.9998C12.75 20.4098 12.41 20.7498 12 20.7498ZM17.01 13.4798C16.01 13.4798 15.19 12.6598 15.19 11.6598C15.19 10.6598 16.01 9.83984 17.01 9.83984C18.01 9.83984 18.83 10.6598 18.83 11.6598C18.83 12.6598 18.01 13.4798 17.01 13.4798ZM17.01 11.3398C16.83 11.3398 16.69 11.4798 16.69 11.6598C16.69 11.8398 16.83 11.9798 17.01 11.9798C17.19 11.9798 17.33 11.8398 17.33 11.6598C17.33 11.4798 17.19 11.3398 17.01 11.3398Z" fill="black"/>
<path d="M20 7.78779C19.75 7.75779 19.46 7.73779 19.15 7.73779H14.87C12.73 7.73779 12.02 8.44779 12.02 10.5878V19.1478C12.02 21.2878 12.73 21.9978 14.87 21.9978H19.15C21.29 21.9978 22 21.2878 22 19.1478V10.5878C22 8.75779 21.48 7.97779 20 7.78779ZM17.01 10.5878C17.2858 10.5997 17.5463 10.7177 17.7372 10.917C17.9282 11.1164 18.0347 11.3818 18.0347 11.6578C18.0347 11.9338 17.9282 12.1992 17.7372 12.3986C17.5463 12.5979 17.2858 12.7159 17.01 12.7278C16.42 12.7278 15.94 12.2478 15.94 11.6578C15.94 11.0678 16.42 10.5878 17.01 10.5878ZM17.01 19.1478C15.83 19.1478 14.87 18.1878 14.87 17.0078C14.8706 16.5979 14.9887 16.1968 15.2104 15.8521C15.432 15.5074 15.748 15.2335 16.1207 15.0629C16.4933 14.8924 16.9071 14.8323 17.3129 14.8899C17.7187 14.9475 18.0995 15.1203 18.41 15.3878C18.86 15.7878 19.15 16.3678 19.15 17.0078C19.15 18.1878 18.19 19.1478 17.01 19.1478Z" stroke="black" stroke-width="1.5" stroke-miterlimit="10" stroke-linecap="round" stroke-linejoin="round"/>
<path d="M17.011 19.9008C15.421 19.9008 14.121 18.6008 14.121 17.0108C14.121 16.3708 14.341 15.7408 14.731 15.2408C15.0001 14.8923 15.3456 14.61 15.7408 14.4159C16.1361 14.2217 16.5706 14.1208 17.011 14.1208C17.701 14.1208 18.381 14.3708 18.901 14.8208C19.541 15.3908 19.901 16.1808 19.901 17.0108C19.901 18.6008 18.601 19.9008 17.011 19.9008ZM17.011 15.6208C16.581 15.6208 16.181 15.8208 15.911 16.1608C15.721 16.4008 15.621 16.7008 15.621 17.0108C15.621 17.7808 16.241 18.4008 17.011 18.4008C17.781 18.4008 18.401 17.7808 18.401 17.0108C18.401 16.6108 18.221 16.2308 17.911 15.9508C17.671 15.7408 17.341 15.6208 17.011 15.6208ZM17.01 13.4798C16.01 13.4798 15.19 12.6598 15.19 11.6598C15.19 10.6598 16.01 9.83984 17.01 9.83984C18.01 9.83984 18.83 10.6598 18.83 11.6598C18.83 12.6598 18.01 13.4798 17.01 13.4798ZM17.01 11.3398C16.83 11.3398 16.69 11.4798 16.69 11.6598C16.69 11.8398 16.83 11.9798 17.01 11.9798C17.19 11.9798 17.33 11.8398 17.33 11.6598C17.33 11.4798 17.19 11.3398 17.01 11.3398Z" fill="black"/>
</svg>
