<svg width="24" height="24" viewBox="0 0 24 24" fill="none" xmlns="http://www.w3.org/2000/svg">
<path d="M17.01 12.7298C17.2938 12.7298 17.5659 12.6171 17.7666 12.4164C17.9673 12.2158 18.08 11.9436 18.08 11.6598C18.08 11.3761 17.9673 11.1039 17.7666 10.9032C17.5659 10.7026 17.2938 10.5898 17.01 10.5898C16.7262 10.5898 16.4541 10.7026 16.2534 10.9032C16.0527 11.1039 15.94 11.3761 15.94 11.6598C15.94 11.9436 16.0527 12.2158 16.2534 12.4164C16.4541 12.6171 16.7262 12.7298 17.01 12.7298Z" stroke="black" stroke-width="1.5" stroke-linecap="round" stroke-linejoin="round"/>
<path d="M20 6V7.79C19.75 7.76 19.46 7.74 19.15 7.74H14.87C12.73 7.74 12.02 8.45 12.02 10.59V15.7H6C2.8 15.7 2 14.9 2 11.7V6C2 2.8 2.8 2 6 2H16C19.2 2 20 2.8 20 6Z" stroke="black" stroke-width="1.5" stroke-linecap="round" stroke-linejoin="round"/>
<path opacity="0.4" d="M2 11.8979H12" stroke="black" stroke-width="1.5" stroke-linecap="round" stroke-linejoin="round"/>
<g opacity="0.4">
<path d="M9 15.7002V20.0002M5.95 20.0002H12" stroke="black" stroke-width="1.5" stroke-linecap="round" stroke-linejoin="round"/>
</g>
<path d="M17.01 12.7298C17.2938 12.7298 17.5659 12.6171 17.7666 12.4164C17.9673 12.2158 18.08 11.9436 18.08 11.6598C18.08 11.3761 17.9673 11.1039 17.7666 10.9032C17.5659 10.7026 17.2938 10.5898 17.01 10.5898C16.7262 10.5898 16.4541 10.7026 16.2534 10.9032C16.0527 11.1039 15.94 11.3761 15.94 11.6598C15.94 11.9436 16.0527 12.2158 16.2534 12.4164C16.4541 12.6171 16.7262 12.7298 17.01 12.7298Z" stroke="black" stroke-width="1.5" stroke-miterlimit="10" stroke-linecap="round" stroke-linejoin="round"/>
<path d="M22 10.5878V19.1478C22 21.2878 21.29 21.9978 19.15 21.9978H14.87C12.73 21.9978 12.02 21.2878 12.02 19.1478V10.5878C12.02 8.44779 12.73 7.73779 14.87 7.73779H19.15C19.46 7.73779 19.75 7.75779 20 7.78779C21.48 7.97779 22 8.75779 22 10.5878Z" stroke="black" stroke-width="1.5" stroke-miterlimit="10" stroke-linecap="round" stroke-linejoin="round"/>
<path d="M19.15 17.0108C19.15 18.1908 18.19 19.1508 17.01 19.1508C15.83 19.1508 14.87 18.1908 14.87 17.0108C14.8706 16.601 14.9887 16.1999 15.2104 15.8552C15.432 15.5104 15.748 15.2365 16.1207 15.066C16.4933 14.8954 16.9071 14.8354 17.3129 14.893C17.7187 14.9506 18.0995 15.1233 18.41 15.3908C18.86 15.7908 19.15 16.3708 19.15 17.0108ZM17.01 12.7298C17.2938 12.7298 17.5659 12.6171 17.7666 12.4164C17.9673 12.2158 18.08 11.9436 18.08 11.6598C18.08 11.3761 17.9673 11.1039 17.7666 10.9032C17.5659 10.7026 17.2938 10.5898 17.01 10.5898C16.7262 10.5898 16.4541 10.7026 16.2534 10.9032C16.0527 11.1039 15.94 11.3761 15.94 11.6598C15.94 11.9436 16.0527 12.2158 16.2534 12.4164C16.4541 12.6171 16.7262 12.7298 17.01 12.7298Z" stroke="black" stroke-width="1.5" stroke-miterlimit="10" stroke-linecap="round" stroke-linejoin="round"/>
</svg>
