<svg width="24" height="24" viewBox="0 0 24 24" fill="none" xmlns="http://www.w3.org/2000/svg">
<path d="M16.77 4.32L16.14 3.25C16.0961 3.1747 16.0334 3.11208 15.958 3.06826C15.8826 3.02444 15.7972 3.00092 15.71 3H8.87C8.48 3 8.24 3.42 8.44 3.75L11.5 9H5.27C5.1 9 4.95 9.08 4.85 9.22L1.18 14.72C1.12623 14.8016 1.09758 14.8972 1.09758 14.995C1.09758 15.0928 1.12623 15.1884 1.18 15.27L4.55 20.33C4.59734 20.4008 4.662 20.4584 4.73785 20.4973C4.81369 20.5361 4.8982 20.5549 4.98336 20.5519C5.06851 20.5489 5.15149 20.5242 5.22441 20.4801C5.29733 20.436 5.35777 20.374 5.4 20.3L7.86 16.08C8.05 15.76 8.5 15.75 8.71 16.05L11.85 20.76C11.94 20.9 12.1 20.98 12.27 20.98H18.73C18.9 20.98 19.05 20.9 19.15 20.76L22.83 15.24C22.94 15.08 22.94 14.88 22.85 14.71L19.27 8.57L16.77 4.32ZM8.5 15L11.75 9.43L14.56 14.25C14.75 14.58 14.51 15 14.13 15H8.5Z" stroke="black" stroke-width="1.5" stroke-miterlimit="10" stroke-linecap="round"/>
</svg>
