<svg width="24" height="24" viewBox="0 0 24 24" fill="none" xmlns="http://www.w3.org/2000/svg">
<path opacity="0.4" d="M12 22C17.523 22 22 17.523 22 12C22 6.477 17.523 2 12 2C6.477 2 2 6.477 2 12C2 17.523 6.477 22 12 22Z" fill="black"/>
<path d="M16.5 9.15891V12.9889C16.5 13.7689 15.65 14.2489 14.99 13.8489L12.52 12.3689C12.2 12.1789 11.81 12.1789 11.49 12.3689L9.02 13.8489C8.8684 13.9403 8.69519 13.9895 8.51821 13.9917C8.34122 13.9939 8.16686 13.9489 8.01306 13.8613C7.85925 13.7737 7.73157 13.6467 7.64316 13.4933C7.55474 13.34 7.50877 13.1659 7.51 12.9889V9.15891C7.51 8.81891 7.69 8.49891 7.97 8.31891L11.47 6.09891C11.8 5.88891 12.21 5.88891 12.54 6.09891L16.04 8.31891C16.32 8.49891 16.5 8.81891 16.5 9.15891ZM12 18.0579C11.85 18.0579 11.71 18.0179 11.58 17.9279L9.33 16.4279C9.16525 16.317 9.05083 16.1457 9.01152 15.951C8.97222 15.7563 9.01119 15.554 9.12 15.3879C9.35 15.0379 9.82 14.9479 10.16 15.1779L11.99 16.3979L13.82 15.1779C14.16 14.9479 14.63 15.0379 14.86 15.3879C15.09 15.7279 15 16.1979 14.65 16.4279L12.4 17.9279C12.2859 18.0165 12.1444 18.0625 12 18.0579Z" fill="black"/>
</svg>
