<svg width="24" height="24" viewBox="0 0 24 24" fill="none" xmlns="http://www.w3.org/2000/svg">
<path d="M16.5 9.60002C16.37 9.60002 16.24 9.57002 16.11 9.49002L12 7.02002L7.89 9.49002C7.80529 9.54058 7.71146 9.57396 7.61386 9.58826C7.51626 9.60255 7.41679 9.59748 7.32115 9.57334C7.2255 9.5492 7.13555 9.50645 7.05643 9.44754C6.9773 9.38864 6.91055 9.31472 6.86 9.23002C6.80944 9.14532 6.77606 9.05149 6.76176 8.95388C6.74746 8.85628 6.75253 8.75682 6.77668 8.66117C6.80082 8.56553 6.84356 8.47558 6.90247 8.39645C6.96138 8.31733 7.03529 8.25058 7.12 8.20002L11.62 5.50002C11.86 5.36002 12.15 5.36002 12.39 5.50002L16.89 8.20002C17.25 8.41002 17.36 8.87002 17.15 9.23002C17.082 9.34185 16.9867 9.4345 16.8729 9.49924C16.7592 9.56398 16.6309 9.59866 16.5 9.60002Z" fill="black"/>
<path d="M16.5 15.9C16.37 15.9 16.23 15.86 16.11 15.79L12 13.32L7.89 15.79C7.66 15.93 7.37 15.93 7.13 15.8C7.01512 15.7346 6.91951 15.6401 6.85279 15.526C6.78608 15.4119 6.75062 15.2822 6.75 15.15V9C6.75 8.59 7.09 8.25 7.5 8.25C7.91 8.25 8.25 8.59 8.25 9V13.83L11.61 11.81C11.85 11.67 12.14 11.67 12.38 11.81L15.74 13.83V9C15.74 8.59 16.08 8.25 16.49 8.25C16.9 8.25 17.24 8.59 17.24 9V15.15C17.24 15.42 17.09 15.67 16.86 15.8C16.75 15.87 16.63 15.9 16.5 15.9Z" fill="black"/>
<path d="M12 18.4478C11.85 18.4478 11.71 18.4078 11.58 18.3178L9.33 16.8178C9.16525 16.7069 9.05083 16.5356 9.01152 16.3409C8.97221 16.1463 9.01119 15.944 9.12 15.7778C9.35 15.4278 9.82 15.3378 10.16 15.5678L11.99 16.7878L13.82 15.5678C14.16 15.3378 14.63 15.4278 14.86 15.7778C15.09 16.1178 15 16.5878 14.65 16.8178L12.4 18.3178C12.2859 18.4065 12.1444 18.4524 12 18.4478Z" fill="black"/>
<path d="M12 22.75C6.07 22.75 1.25 17.93 1.25 12C1.25 6.07 6.07 1.25 12 1.25C17.93 1.25 22.75 6.07 22.75 12C22.75 17.93 17.93 22.75 12 22.75ZM12 2.75C6.9 2.75 2.75 6.9 2.75 12C2.75 17.1 6.9 21.25 12 21.25C17.1 21.25 21.25 17.1 21.25 12C21.25 6.9 17.1 2.75 12 2.75Z" fill="black"/>
</svg>
