<svg width="24" height="24" viewBox="0 0 24 24" fill="none" xmlns="http://www.w3.org/2000/svg">
<path d="M22 2.75H2C1.59 2.75 1.25 2.41 1.25 2C1.25 1.59 1.59 1.25 2 1.25H22C22.41 1.25 22.75 1.59 22.75 2C22.75 2.41 22.41 2.75 22 2.75ZM16.67 22.34C16.54 22.6 16.27 22.75 16 22.75C15.89 22.75 15.77 22.72 15.67 22.67L12 20.84L8.33 22.67C8.23 22.72 8.11 22.75 8 22.75C7.73 22.75 7.46 22.6 7.33 22.34C7.28413 22.2517 7.25654 22.1551 7.24886 22.0559C7.24119 21.9567 7.25359 21.857 7.28533 21.7627C7.31707 21.6685 7.36749 21.5815 7.43359 21.5072C7.49968 21.4328 7.58009 21.3726 7.67 21.33L11.25 19.54V17H12.75V19.54L16.33 21.33C16.71 21.51 16.86 21.96 16.67 22.34Z" fill="black"/>
<path d="M3 2V14.1C3 16 4 17 5.9 17H18.1C20 17 21 16 21 14.1V2H3ZM16.98 8.58L13.83 11.21C13.54 11.45 13.17 11.55 12.82 11.49C12.46 11.43 12.15 11.21 11.96 10.89L10.91 9.14L7.98 11.58C7.84 11.7 7.67 11.75 7.5 11.75C7.34497 11.7509 7.19346 11.7038 7.06632 11.6151C6.93918 11.5264 6.84265 11.4004 6.79002 11.2546C6.73739 11.1088 6.73125 10.9502 6.77243 10.8008C6.81362 10.6513 6.90011 10.5183 7.02 10.42L10.17 7.79C10.46 7.55 10.83 7.45 11.18 7.51C11.54 7.57 11.85 7.79 12.04 8.11L13.09 9.86L16.02 7.42C16.096 7.35661 16.1838 7.30888 16.2783 7.27958C16.3729 7.25028 16.4723 7.23998 16.5708 7.24928C16.6694 7.25857 16.7651 7.28728 16.8525 7.33375C16.9399 7.38021 17.0172 7.44351 17.08 7.52C17.34 7.84 17.3 8.31 16.98 8.58Z" fill="black"/>
</svg>
