<svg width="24" height="24" viewBox="0 0 24 24" fill="none" xmlns="http://www.w3.org/2000/svg">
<path d="M18.1 17.75H5.9C3.58 17.75 2.25 16.42 2.25 14.1V2C2.25 1.59 2.59 1.25 3 1.25H21C21.41 1.25 21.75 1.59 21.75 2V14.1C21.75 16.42 20.42 17.75 18.1 17.75ZM3.75 2.75V14.1C3.75 15.59 4.41 16.25 5.9 16.25H18.09C19.58 16.25 20.24 15.59 20.24 14.1V2.75H3.75Z" fill="black"/>
<path d="M22 2.75H2C1.59 2.75 1.25 2.41 1.25 2C1.25 1.59 1.59 1.25 2 1.25H22C22.41 1.25 22.75 1.59 22.75 2C22.75 2.41 22.41 2.75 22 2.75ZM8 22.75C7.72 22.75 7.46 22.6 7.33 22.34C7.28484 22.2516 7.2578 22.155 7.25049 22.056C7.24317 21.957 7.25572 21.8575 7.2874 21.7634C7.31907 21.6693 7.36924 21.5825 7.43494 21.5081C7.50064 21.4337 7.58056 21.3731 7.67 21.33L11.25 19.54V17C11.25 16.59 11.59 16.25 12 16.25C12.41 16.25 12.75 16.59 12.75 17V20C12.75 20.28 12.59 20.54 12.33 20.67L8.33 22.67C8.23 22.72 8.11 22.75 8 22.75Z" fill="black"/>
<path d="M16 22.7482C15.89 22.7482 15.77 22.7182 15.67 22.6682L11.67 20.6682C11.4927 20.5775 11.358 20.4211 11.2945 20.2324C11.2309 20.0437 11.2437 19.8376 11.33 19.6582C11.52 19.2882 11.97 19.1382 12.34 19.3182L16.34 21.3182C16.71 21.5082 16.86 21.9582 16.68 22.3282C16.6159 22.4537 16.5187 22.5593 16.3988 22.6333C16.2789 22.7074 16.1409 22.7471 16 22.7482ZM7.5 11.7502C7.34497 11.7511 7.19346 11.704 7.06632 11.6153C6.93918 11.5266 6.84265 11.4006 6.79002 11.2548C6.73739 11.109 6.73125 10.9504 6.77243 10.801C6.81362 10.6515 6.90011 10.5185 7.02 10.4202L10.17 7.79018C10.46 7.55018 10.83 7.45018 11.18 7.51018C11.54 7.57018 11.85 7.79018 12.04 8.11018L13.09 9.86018L16.02 7.42018C16.34 7.16018 16.81 7.20018 17.08 7.52018C17.35 7.84018 17.3 8.31018 16.98 8.58018L13.83 11.2102C13.54 11.4502 13.17 11.5502 12.82 11.4902C12.46 11.4302 12.15 11.2102 11.96 10.8902L10.91 9.14018L7.98 11.5802C7.84 11.6902 7.67 11.7502 7.5 11.7502Z" fill="black"/>
</svg>
