<svg width="24" height="24" viewBox="0 0 24 24" fill="none" xmlns="http://www.w3.org/2000/svg">
<path opacity="0.4" d="M16.19 2H7.81C4.17 2 2 4.17 2 7.81V16.18C2 19.83 4.17 22 7.81 22H16.18C19.82 22 21.99 19.83 21.99 16.19V7.81C22 4.17 19.83 2 16.19 2Z" fill="black"/>
<path d="M13.26 16.2802C13.07 16.2802 12.88 16.2102 12.73 16.0602L9.2 12.5302C9.06052 12.389 8.9823 12.1986 8.9823 12.0002C8.9823 11.8017 9.06052 11.6113 9.2 11.4702L12.73 7.94016C13.02 7.65016 13.5 7.65016 13.79 7.94016C14.08 8.23016 14.08 8.71016 13.79 9.00016L10.79 12.0002L13.79 15.0002C14.08 15.2902 14.08 15.7702 13.79 16.0602C13.7218 16.1317 13.6395 16.1882 13.5482 16.2261C13.457 16.264 13.3588 16.2824 13.26 16.2802Z" fill="black"/>
</svg>
