<svg width="24" height="24" viewBox="0 0 24 24" fill="none" xmlns="http://www.w3.org/2000/svg">
<path d="M5.64 22.7488C5.06 22.7488 4.52 22.4688 4.16 21.9588C3.65 21.2388 3.71 20.3088 4.31 19.6688L11.64 11.7088L8.09 8.1188C7.66 7.6888 7.48 7.0688 7.6 6.4688C7.72 5.8688 8.13 5.3788 8.69 5.1388L17.63 1.3888C18.42 1.0588 19.29 1.2988 19.81 1.9788C20.32 2.6688 20.3 3.5688 19.76 4.2388L13.69 11.6488L17.27 15.2788C17.7 15.7088 17.88 16.3288 17.76 16.9288C17.64 17.5288 17.23 18.0188 16.67 18.2588L6.37 22.5988C6.13 22.6988 5.89 22.7488 5.64 22.7488ZM12.69 12.7888L5.42 20.6888C5.26 20.8588 5.34 21.0188 5.39 21.1088C5.45 21.1888 5.58 21.3188 5.79 21.2188L16.09 16.8788C16.23 16.8188 16.27 16.6988 16.29 16.6388C16.3 16.5788 16.31 16.4488 16.2 16.3388L12.69 12.7888ZM9.16 7.0688L12.63 10.5788L18.59 3.2988C18.73 3.1288 18.66 2.9688 18.6 2.8888C18.54 2.8088 18.42 2.6888 18.2 2.7788L9.26 6.5288C9.21078 6.55121 9.16724 6.58442 9.13261 6.62597C9.09799 6.66752 9.07317 6.71634 9.06001 6.7688C9.04001 6.8288 9.06 6.9588 9.16 7.0688Z" fill="black"/>
</svg>
