<svg width="24" height="24" viewBox="0 0 24 24" fill="none" xmlns="http://www.w3.org/2000/svg">
<path d="M20 9.07H4C3.59 9.07 3.25 8.73 3.25 8.32V4C3.25 2.48 4.48 1.25 6 1.25H18C19.52 1.25 20.75 2.48 20.75 4V8.32C20.75 8.73 20.41 9.07 20 9.07ZM4.75 7.57H19.25V4C19.25 3.31 18.69 2.75 18 2.75H6C5.31 2.75 4.75 3.31 4.75 4V7.57Z" fill="black"/>
<path d="M12.5 22.7491H11.5C9.98 22.7491 8.75 21.5191 8.75 19.9991V17.8991C8.75 17.4491 8.51 17.0291 8.11 16.8091L5.15 15.1391C4.56955 14.8132 4.08655 14.3383 3.75081 13.7635C3.41506 13.1887 3.23873 12.5348 3.24 11.8691V8.30908C3.24 7.89908 3.58 7.55908 3.99 7.55908H19.99C20.4 7.55908 20.74 7.89908 20.74 8.30908V11.8691C20.74 13.2191 20.01 14.4691 18.83 15.1391L15.87 16.8091C15.48 17.0291 15.23 17.4491 15.23 17.8991V19.9991C15.2341 20.3597 15.1665 20.7175 15.031 21.0517C14.8955 21.3859 14.6949 21.6898 14.4408 21.9457C14.1867 22.2016 13.8843 22.4044 13.5511 22.5424C13.2179 22.6803 12.8606 22.7506 12.5 22.7491ZM4.75 9.06908V11.8791C4.75 12.6891 5.19 13.4391 5.89 13.8391L8.85 15.5091C9.71 15.9991 10.25 16.9091 10.25 17.8991V19.9991C10.25 20.6891 10.81 21.2491 11.5 21.2491H12.5C13.19 21.2491 13.75 20.6891 13.75 19.9991V17.8991C13.75 16.9091 14.29 15.9891 15.15 15.5091L18.11 13.8391C18.82 13.4391 19.25 12.6891 19.25 11.8791V9.06908H4.75Z" fill="black"/>
</svg>
