<svg width="24" height="24" viewBox="0 0 24 24" fill="none" xmlns="http://www.w3.org/2000/svg">
<path opacity="0.4" d="M17 3H7C5.34 3 4 4.34 4 6V6.84C4 7.61 3.88 8.37 3.63 9.1C3.44508 9.65177 3.09197 10.1318 2.62025 10.4725C2.14854 10.8133 1.58193 10.9978 1 11V13C2.19 13 3.25 13.76 3.63 14.9C3.87 15.63 4 16.4 4 17.16V18C4 19.66 5.34 21 7 21H17C18.66 21 20 19.66 20 18V17.16C20 16.39 20.12 15.63 20.37 14.9C20.75 13.77 21.81 13 23 13V11C21.81 11 20.75 10.24 20.37 9.1C20.13 8.37 20 7.6 20 6.84V6C20 4.34 18.66 3 17 3Z" fill="black"/>
<path d="M12.67 16.92H9.75C9.34 16.92 9 16.58 9 16.17V7.84C9 7.43 9.34 7.09 9.75 7.09H12.67C14.23 7.09 15.5 8.36 15.5 9.92C15.5 10.74 15.15 11.49 14.58 12C15.14 12.52 15.5 13.26 15.5 14.08C15.5 15.65 14.23 16.92 12.67 16.92ZM10.5 15.42H12.67C13.0227 15.42 13.361 15.2799 13.6105 15.0304C13.8599 14.781 14 14.4427 14 14.09C14 13.7373 13.8599 13.399 13.6105 13.1495C13.361 12.9001 13.0227 12.76 12.67 12.76H10.5V15.42ZM10.5 11.25H12.67C13.0227 11.25 13.361 11.1099 13.6105 10.8604C13.8599 10.611 14 10.2727 14 9.92C14 9.56726 13.8599 9.22897 13.6105 8.97954C13.361 8.73012 13.0227 8.59 12.67 8.59H10.5V11.25Z" fill="black"/>
</svg>
