<svg width="24" height="24" viewBox="0 0 24 24" fill="none" xmlns="http://www.w3.org/2000/svg">
<path d="M17 21.75H7C4.93 21.75 3.25 20.07 3.25 18V17.16C3.25 16.47 3.14 15.79 2.92 15.13C2.78539 14.7275 2.52749 14.3776 2.18287 14.1299C1.83825 13.8822 1.4244 13.7493 1 13.75C0.59 13.75 0.25 13.41 0.25 13V11C0.25 10.59 0.59 10.25 1 10.25C1.87 10.25 2.65 9.69 2.92 8.87C3.14 8.21 3.25 7.53 3.25 6.84V6C3.25 3.93 4.93 2.25 7 2.25H17C19.07 2.25 20.75 3.93 20.75 6V6.84C20.75 7.53 20.86 8.21 21.08 8.87C21.36 9.7 22.13 10.25 23 10.25C23.41 10.25 23.75 10.59 23.75 11V13C23.75 13.41 23.41 13.75 23 13.75C22.13 13.75 21.35 14.31 21.08 15.13C20.86 15.79 20.75 16.47 20.75 17.16V18C20.75 20.07 19.07 21.75 17 21.75ZM1.75 12.33C2.34717 12.4593 2.90023 12.7423 3.35448 13.151C3.80873 13.5596 4.14844 14.0798 4.34 14.66C4.61 15.47 4.75 16.31 4.75 17.16V18C4.75 19.24 5.76 20.25 7 20.25H17C18.24 20.25 19.25 19.24 19.25 18V17.16C19.25 16.31 19.39 15.47 19.66 14.66C20.06 13.46 21.06 12.59 22.25 12.33V11.67C21.6528 11.5407 21.0998 11.2577 20.6455 10.849C20.1913 10.4404 19.8516 9.92021 19.66 9.34C19.3896 8.53419 19.2511 7.68998 19.25 6.84V6C19.25 4.76 18.24 3.75 17 3.75H7C5.76 3.75 4.75 4.76 4.75 6V6.84C4.75 7.69 4.61 8.53 4.34 9.34C3.94 10.54 2.94 11.41 1.75 11.67V12.33Z" fill="black"/>
<path d="M12.67 16.92H9.75C9.34 16.92 9 16.58 9 16.17V7.84C9 7.43 9.34 7.09 9.75 7.09H12.67C14.23 7.09 15.5 8.36 15.5 9.92C15.5 10.74 15.15 11.49 14.58 12C15.14 12.52 15.5 13.26 15.5 14.08C15.5 15.65 14.23 16.92 12.67 16.92ZM10.5 15.42H12.67C13.0227 15.42 13.361 15.2799 13.6105 15.0304C13.8599 14.781 14 14.4427 14 14.09C14 13.7373 13.8599 13.399 13.6105 13.1495C13.361 12.9001 13.0227 12.76 12.67 12.76H10.5V15.42ZM10.5 11.25H12.67C13.0227 11.25 13.361 11.1099 13.6105 10.8604C13.8599 10.611 14 10.2727 14 9.92C14 9.56726 13.8599 9.22897 13.6105 8.97954C13.361 8.73012 13.0227 8.59 12.67 8.59H10.5V11.25Z" fill="black"/>
</svg>
