<svg width="24" height="24" viewBox="0 0 24 24" fill="none" xmlns="http://www.w3.org/2000/svg">
<path d="M17 3H7C5.34 3 4 4.34 4 6V6.84C4 7.61 3.88 8.37 3.63 9.1C3.44508 9.65177 3.09197 10.1318 2.62025 10.4725C2.14854 10.8133 1.58193 10.9978 1 11V13C2.19 13 3.25 13.76 3.63 14.9C3.87 15.63 4 16.4 4 17.16V18C4 19.66 5.34 21 7 21H17C18.66 21 20 19.66 20 18V17.16C20 16.39 20.12 15.63 20.37 14.9C20.75 13.77 21.81 13 23 13V11C21.81 11 20.75 10.24 20.37 9.1C20.13 8.37 20 7.6 20 6.84V6C20 4.34 18.66 3 17 3Z" stroke="black" stroke-width="1.5" stroke-miterlimit="10" stroke-linejoin="round"/>
<path opacity="0.4" d="M9.75 11.998H12.67C13.82 11.998 14.75 12.928 14.75 14.078C14.75 15.228 13.82 16.158 12.67 16.158H9.75V7.828H12.67C13.82 7.828 14.75 8.758 14.75 9.908C14.75 11.058 13.82 11.988 12.67 11.988H9.75" stroke="black" stroke-width="1.5" stroke-miterlimit="10" stroke-linecap="round" stroke-linejoin="round"/>
</svg>
