<svg width="24" height="24" viewBox="0 0 24 24" fill="none" xmlns="http://www.w3.org/2000/svg">
<path d="M7.31 5.67001L3 9.98001C1.66 11.32 1.66 12.65 3 13.99L7.01 18C8.35 19.34 9.68 19.34 11.02 18L17.04 11.98C17.41 11.61 17.41 11.01 17.04 10.64L9.69 3.29001L8.35 1.95001M2.07 11.922L17.19 11.262M3 22H10M13 22H16" stroke="black" stroke-width="1.5" stroke-miterlimit="10" stroke-linecap="round" stroke-linejoin="round"/>
<path d="M18.85 15C18.85 15 17 17.01 17 18.24C17 19.26 17.83 20.09 18.85 20.09C19.87 20.09 20.7 19.26 20.7 18.24C20.7 17.01 18.85 15 18.85 15Z" stroke="black" stroke-width="1.5" stroke-linecap="round" stroke-linejoin="round"/>
</svg>
