<svg width="24" height="24" viewBox="0 0 24 24" fill="none" xmlns="http://www.w3.org/2000/svg">
<path d="M9.02 19.751C8.16 19.751 7.3 19.341 6.48 18.521L2.47 14.511C1.66 13.701 1.25 12.851 1.25 11.971C1.25 11.101 1.66 10.241 2.47 9.43099L9.15 2.75099C9.29062 2.61054 9.48125 2.53165 9.68 2.53165C9.87875 2.53165 10.0694 2.61054 10.21 2.75099L17.56 10.101C17.88 10.421 18.06 10.841 18.06 11.301C18.06 11.751 17.88 12.181 17.56 12.501L11.54 18.521C10.74 19.341 9.88 19.751 9.02 19.751ZM9.69 4.35099L3.54 10.501C3.02 11.021 2.76 11.521 2.76 11.981C2.76 12.441 3.02 12.941 3.54 13.451L7.55 17.461C8.6 18.511 9.45 18.511 10.5 17.461L16.52 11.441C16.58 11.381 16.59 11.231 16.52 11.161L9.69 4.35099Z" fill="black"/>
<path d="M9.69 4.04001C9.5 4.04001 9.31 3.97001 9.16 3.82001L7.82 2.48001C7.68052 2.33888 7.6023 2.14845 7.6023 1.95001C7.6023 1.75158 7.68052 1.56115 7.82 1.42001C8.11 1.13001 8.59 1.13001 8.88 1.42001L10.22 2.76001C10.51 3.05001 10.51 3.53001 10.22 3.82001C10.07 3.97001 9.88 4.04001 9.69 4.04001ZM2.071 12.669C1.87209 12.673 1.67974 12.5978 1.53627 12.46C1.39281 12.3221 1.30998 12.1329 1.306 11.934C1.30202 11.7351 1.37722 11.5428 1.51506 11.3993C1.6529 11.2558 1.84208 11.173 2.041 11.169L17.171 10.509C17.581 10.489 17.931 10.809 17.951 11.229C17.971 11.639 17.651 11.989 17.231 12.009L2.101 12.669H2.071ZM16 22.75H3C2.59 22.75 2.25 22.41 2.25 22C2.25 21.59 2.59 21.25 3 21.25H16C16.41 21.25 16.75 21.59 16.75 22C16.75 22.41 16.41 22.75 16 22.75ZM18.85 20.829C17.42 20.829 16.25 19.659 16.25 18.229C16.25 16.779 17.96 14.859 18.3 14.479C18.58 14.169 19.12 14.169 19.4 14.479C19.74 14.849 21.45 16.769 21.45 18.219C21.45 19.669 20.28 20.829 18.85 20.829ZM18.85 16.169C18.3 16.889 17.75 17.769 17.75 18.239C17.75 18.849 18.24 19.339 18.85 19.339C19.46 19.339 19.95 18.849 19.95 18.239C19.95 17.759 19.4 16.879 18.85 16.169Z" fill="black"/>
</svg>
