<svg width="24" height="24" viewBox="0 0 24 24" fill="none" xmlns="http://www.w3.org/2000/svg">
<path d="M12 2C6.48 2 2 6.48 2 12C2 17.52 6.48 22 12 22C17.52 22 22 17.52 22 12C22 6.48 17.52 2 12 2ZM8.33 10.66L10.83 5.66C10.8937 5.53712 10.9898 5.43399 11.1079 5.36173C11.226 5.28947 11.3616 5.25084 11.5 5.25H12.5C12.78 5.25 13.04 5.41 13.17 5.66L15.67 10.66C15.86 11.03 15.71 11.48 15.33 11.67C15.227 11.72 15.1145 11.7473 15 11.75C14.73 11.75 14.46 11.6 14.33 11.34L12.04 6.75H11.97L9.68 11.34C9.63893 11.4345 9.579 11.5196 9.5039 11.5901C9.4288 11.6606 9.3401 11.715 9.24324 11.75C9.14637 11.7851 9.04337 11.7999 8.94055 11.7938C8.83773 11.7876 8.73724 11.7606 8.64524 11.7142C8.55325 11.6679 8.47168 11.6033 8.40553 11.5243C8.33937 11.4453 8.29003 11.3537 8.26052 11.255C8.23101 11.1563 8.22195 11.0527 8.2339 10.9503C8.24584 10.848 8.27854 10.7492 8.33 10.66ZM17.39 15.64L12.39 18.64C12.27 18.71 12.14 18.75 12 18.75C11.86 18.75 11.73 18.71 11.61 18.64L6.61 15.64C6.44761 15.5427 6.32769 15.388 6.27398 15.2065C6.22027 15.025 6.23669 14.83 6.32 14.66L7.32 12.66C7.51 12.29 7.96 12.14 8.33 12.32C8.7 12.51 8.85 12.96 8.67 13.33L7.98 14.71L12 17.12L16.02 14.71L15.33 13.33C15.2848 13.2416 15.2578 13.145 15.2505 13.046C15.2432 12.947 15.2557 12.8475 15.2874 12.7534C15.3191 12.6593 15.3692 12.5725 15.4349 12.4981C15.5006 12.4237 15.5806 12.3631 15.67 12.32C16.04 12.14 16.49 12.28 16.68 12.66L17.68 14.66C17.85 15.01 17.72 15.44 17.39 15.64Z" fill="black"/>
</svg>
