<svg width="24" height="24" viewBox="0 0 24 24" fill="none" xmlns="http://www.w3.org/2000/svg">
<path opacity="0.4" d="M12 22C17.523 22 22 17.523 22 12C22 6.477 17.523 2 12 2C6.477 2 2 6.477 2 12C2 17.523 6.477 22 12 22Z" fill="black"/>
<path d="M15 11.752C14.73 11.752 14.46 11.602 14.33 11.342L12.04 6.752H11.97L9.68 11.342C9.5 11.712 9.05 11.862 8.67 11.682C8.49275 11.5913 8.35798 11.4349 8.29445 11.2462C8.23093 11.0575 8.24368 10.8514 8.33 10.672L10.83 5.672C10.8937 5.54912 10.9898 5.44599 11.1079 5.37373C11.226 5.30148 11.3616 5.26284 11.5 5.262H12.5C12.78 5.262 13.04 5.422 13.17 5.672L15.67 10.672C15.86 11.042 15.71 11.492 15.33 11.682C15.23 11.722 15.11 11.752 15 11.752ZM12 18.75C11.87 18.75 11.73 18.71 11.61 18.64L6.61 15.64C6.44762 15.5427 6.32769 15.388 6.27398 15.2065C6.22027 15.025 6.23669 14.83 6.32 14.66L7.32 12.66C7.51 12.29 7.96 12.14 8.33 12.32C8.7 12.51 8.85 12.96 8.67 13.33L7.98 14.71L12 17.12L16.02 14.71L15.33 13.33C15.2848 13.2416 15.2578 13.145 15.2505 13.046C15.2432 12.947 15.2557 12.8475 15.2874 12.7534C15.3191 12.6593 15.3692 12.5725 15.4349 12.4981C15.5006 12.4237 15.5806 12.3631 15.67 12.32C16.04 12.14 16.49 12.28 16.68 12.66L17.68 14.66C17.86 15.01 17.73 15.44 17.39 15.64L12.39 18.64C12.27 18.71 12.13 18.75 12 18.75Z" fill="black"/>
</svg>
