<svg width="24" height="24" viewBox="0 0 24 24" fill="none" xmlns="http://www.w3.org/2000/svg">
<path d="M12 2H8.7C6.8 2 5.3 3.5 5.3 5.3C5.3 7.1 6.8 8.6 8.6 8.6H12M12 2V8.6M12 2H15.3C17.1 2 18.6 3.5 18.6 5.3C18.6 7.1 17.1 8.6 15.3 8.6H12M8.7 15.3C6.9 15.3 5.4 13.8 5.4 12C5.4 10.2 6.9 8.7 8.7 8.7H12V15.3M8.7 15.3H12M8.7 15.3C6.9 15.3 5.4 16.8 5.4 18.6C5.4 20.4 6.9 21.9 8.7 21.9C10.5 21.9 12 20.4 12 18.6V15.3M15.3 8.7C17.1 8.7 18.6 10.2 18.6 12C18.6 13.8 17.1 15.3 15.3 15.3C13.5 15.3 12 13.8 12 12C12 10.2 13.5 8.7 15.3 8.7Z" stroke="black" stroke-width="1.5" stroke-miterlimit="10"/>
</svg>
