<svg width="24" height="24" viewBox="0 0 24 24" fill="none" xmlns="http://www.w3.org/2000/svg">
<path d="M12.75 9.42196H8.67C6.42 9.42196 4.59 7.59196 4.59 5.34196C4.59 3.09196 6.42 1.26196 8.67 1.26196H12.75V9.42196ZM8.67 2.75196C7.25 2.75196 6.09 3.91196 6.09 5.33196C6.09 6.75196 7.25 7.91196 8.67 7.91196H11.25V2.74196H8.67V2.75196Z" fill="black"/>
<path d="M12.75 16.082H8.67C6.42 16.082 4.59 14.252 4.59 12.002C4.59 9.752 6.42 7.922 8.67 7.922H12.75V16.082ZM8.67 9.422C7.25 9.422 6.09 10.582 6.09 12.002C6.09 13.422 7.25 14.582 8.67 14.582H11.25V9.412H8.67V9.422Z" fill="black"/>
<path d="M8.67 22.75C6.42 22.75 4.59 20.92 4.59 18.67C4.59 16.42 6.42 14.59 8.67 14.59H12.75V18.67C12.75 20.92 10.92 22.75 8.67 22.75ZM8.67 16.08C7.25 16.08 6.09 17.24 6.09 18.66C6.09 20.08 7.25 21.24 8.67 21.24C10.09 21.24 11.25 20.08 11.25 18.66V16.08H8.67ZM15.33 9.42H11.25V1.25H15.33C17.58 1.25 19.41 3.08 19.41 5.33C19.42 7.58 17.58 9.42 15.33 9.42ZM12.75 7.92H15.33C16.75 7.92 17.91 6.76 17.91 5.34C17.91 3.92 16.75 2.76 15.33 2.76H12.75V7.92Z" fill="black"/>
<path d="M15.33 16.082C13.08 16.082 11.25 14.252 11.25 12.002C11.25 9.752 13.08 7.922 15.33 7.922C17.58 7.922 19.41 9.752 19.41 12.002C19.41 14.252 17.58 16.082 15.33 16.082ZM15.33 9.422C13.91 9.422 12.75 10.582 12.75 12.002C12.75 13.422 13.91 14.582 15.33 14.582C16.0143 14.582 16.6705 14.3102 17.1543 13.8263C17.6382 13.3425 17.91 12.6863 17.91 12.002C17.91 11.3177 17.6382 10.6615 17.1543 10.1777C16.6705 9.69382 16.0143 9.422 15.33 9.422Z" fill="black"/>
</svg>
