<svg width="24" height="24" viewBox="0 0 24 24" fill="none" xmlns="http://www.w3.org/2000/svg">
<path opacity="0.4" d="M16.19 2H7.81C4.17 2 2 4.17 2 7.81V16.18C2 19.83 4.17 22 7.81 22H16.18C19.82 22 21.99 19.83 21.99 16.19V7.81C22 4.17 19.83 2 16.19 2Z" fill="black"/>
<path d="M12 14.9098C11.81 14.9098 11.62 14.8398 11.47 14.6898L7.94 11.1598C7.80052 11.0187 7.7223 10.8283 7.7223 10.6298C7.7223 10.4314 7.80052 10.241 7.94 10.0998C8.23 9.80982 8.71 9.80982 9 10.0998L12 13.0998L15 10.0998C15.29 9.80982 15.77 9.80982 16.06 10.0998C16.35 10.3898 16.35 10.8698 16.06 11.1598L12.53 14.6898C12.38 14.8398 12.19 14.9098 12 14.9098Z" fill="black"/>
</svg>
