<svg width="24" height="24" viewBox="0 0 24 24" fill="none" xmlns="http://www.w3.org/2000/svg">
<path d="M15.72 9.68988C15.2321 9.20018 14.6524 8.81163 14.014 8.5465C13.3757 8.28138 12.6912 8.1449 12 8.1449C11.3088 8.1449 10.6243 8.28138 9.98597 8.5465C9.3476 8.81163 8.76786 9.20018 8.28 9.68988C7.79019 10.1777 7.40153 10.7574 7.13632 11.3958C6.87112 12.0341 6.73461 12.7186 6.73461 13.4099C6.73461 14.1011 6.87112 14.7856 7.13632 15.424C7.40153 16.0624 7.79019 16.6421 8.28 17.1299C8.76786 17.6196 9.3476 18.0081 9.98597 18.2733C10.6243 18.5384 11.3088 18.6749 12 18.6749C12.6912 18.6749 13.3757 18.5384 14.014 18.2733C14.6524 18.0081 15.2321 17.6196 15.72 17.1299C16.2098 16.6421 16.5985 16.0624 16.8637 15.424C17.1289 14.7856 17.2654 14.1011 17.2654 13.4099C17.2654 12.7186 17.1289 12.0341 16.8637 11.3958C16.5985 10.7574 16.2098 10.1777 15.72 9.68988ZM12.53 13.9399L10.94 15.5299C10.79 15.6799 10.6 15.7499 10.41 15.7499C10.22 15.7499 10.02 15.6799 9.88 15.5299C9.74061 15.3867 9.66261 15.1947 9.66261 14.9949C9.66261 14.795 9.74061 14.6031 9.88 14.4599L11.47 12.8699C11.76 12.5799 12.24 12.5799 12.54 12.8699C12.83 13.1699 12.83 13.6499 12.53 13.9399ZM19.598 5.80888C19.378 5.58888 19.098 5.46888 18.788 5.46888C18.5614 5.46732 18.3395 5.53333 18.1505 5.65849C17.9616 5.78364 17.8143 5.96226 17.7274 6.17154C17.6404 6.38082 17.6179 6.61125 17.6625 6.83342C17.7071 7.0556 17.817 7.25942 17.978 7.41888C18.198 7.63888 18.478 7.75888 18.788 7.75888C19.098 7.75888 19.378 7.63888 19.598 7.42888C19.818 7.20888 19.938 6.92888 19.938 6.61888C19.938 6.30888 19.818 6.01888 19.598 5.80888ZM6.019 19.3899C5.799 19.1699 5.519 19.0499 5.209 19.0499C4.899 19.0499 4.619 19.1699 4.399 19.3799C4.179 19.5999 4.059 19.8799 4.059 20.1899C4.059 20.4999 4.179 20.7799 4.399 20.9999C4.61572 21.2123 4.90761 21.3304 5.21106 21.3286C5.51451 21.3267 5.80492 21.2049 6.019 20.9899C6.459 20.5599 6.459 19.8299 6.019 19.3899ZM22.41 12.6019C22.2 12.3819 21.91 12.2719 21.6 12.2619C21.29 12.2619 21.01 12.3819 20.79 12.6019C20.629 12.7613 20.5191 12.9652 20.4745 13.1873C20.4299 13.4095 20.4524 13.6399 20.5394 13.8492C20.6263 14.0585 20.7736 14.2371 20.9625 14.3623C21.1515 14.4874 21.3734 14.5534 21.6 14.5519C21.8266 14.5534 22.0485 14.4874 22.2375 14.3623C22.4264 14.2371 22.5737 14.0585 22.6606 13.8492C22.7476 13.6399 22.7701 13.4095 22.7255 13.1873C22.6809 12.9652 22.571 12.7613 22.41 12.6019ZM3.211 12.5999C2.9956 12.3861 2.70445 12.2662 2.401 12.2662C2.09755 12.2662 1.80641 12.3861 1.591 12.5999C1.42998 12.7593 1.32014 12.9632 1.2755 13.1853C1.23086 13.4075 1.25344 13.6379 1.34037 13.8472C1.4273 14.0565 1.57463 14.2351 1.76355 14.3603C1.95246 14.4854 2.17439 14.5514 2.401 14.5499C2.691 14.5499 2.991 14.4399 3.211 14.2199C3.651 13.7699 3.651 13.0399 3.211 12.5999ZM19.598 19.3879C19.492 19.2808 19.3658 19.1959 19.2268 19.1379C19.0878 19.0799 18.9386 19.0501 18.788 19.0501C18.6374 19.0501 18.4882 19.0799 18.3492 19.1379C18.2102 19.1959 18.084 19.2808 17.978 19.3879C17.817 19.5473 17.7071 19.7512 17.6625 19.9733C17.6179 20.1955 17.6404 20.4259 17.7274 20.6352C17.8143 20.8445 17.9616 21.0231 18.1505 21.1483C18.3395 21.2734 18.5614 21.3394 18.788 21.3379C18.9384 21.3387 19.0875 21.3098 19.2267 21.2529C19.3659 21.196 19.4926 21.1122 19.5994 21.0063C19.7062 20.9005 19.7911 20.7746 19.8492 20.6358C19.9073 20.4971 19.9375 20.3483 19.938 20.1979C19.938 19.8879 19.818 19.5979 19.598 19.3879ZM6.019 5.80888C5.799 5.58888 5.519 5.46888 5.209 5.46888C4.899 5.46888 4.619 5.58888 4.399 5.79888C4.179 6.01888 4.059 6.29888 4.059 6.60888C4.059 6.91888 4.179 7.20888 4.399 7.41888C4.619 7.63888 4.899 7.75888 5.209 7.75888C5.519 7.75888 5.799 7.63888 6.019 7.42888C6.459 6.97888 6.459 6.24888 6.019 5.80888ZM12.812 3.00188C12.812 2.99188 12.812 2.99188 12.812 3.00188C12.706 2.89485 12.5798 2.80988 12.4408 2.7519C12.3018 2.69392 12.1526 2.66406 12.002 2.66406C11.8514 2.66406 11.7022 2.69392 11.5632 2.7519C11.4242 2.80988 11.298 2.89485 11.192 3.00188C11.0848 3.10749 10.9995 3.23321 10.9409 3.37185C10.8824 3.51049 10.8518 3.65932 10.8509 3.8098C10.8499 3.96029 10.8787 4.10948 10.9355 4.24883C10.9923 4.38818 11.0761 4.51495 11.182 4.62188C11.402 4.84188 11.682 4.96188 11.992 4.96188C12.302 4.96188 12.582 4.84188 12.802 4.62188C13.262 4.17188 13.262 3.44188 12.812 3.00188Z" fill="black"/>
</svg>
