<svg width="24" height="24" viewBox="0 0 24 24" fill="none" xmlns="http://www.w3.org/2000/svg">
<path d="M15.72 9.69C15.2321 9.2003 14.6524 8.81175 14.014 8.54662C13.3757 8.2815 12.6912 8.14502 12 8.14502C11.3088 8.14502 10.6243 8.2815 9.98596 8.54662C9.3476 8.81175 8.76785 9.2003 8.28 9.69C7.79018 10.1778 7.40152 10.7575 7.13632 11.3959C6.87112 12.0343 6.7346 12.7187 6.7346 13.41C6.7346 14.1013 6.87112 14.7857 7.13632 15.4241C7.40152 16.0625 7.79018 16.6422 8.28 17.13C8.76785 17.6197 9.3476 18.0082 9.98596 18.2734C10.6243 18.5385 11.3088 18.675 12 18.675C12.6912 18.675 13.3757 18.5385 14.014 18.2734C14.6524 18.0082 15.2321 17.6197 15.72 17.13C16.2097 16.6424 16.598 16.0626 16.8623 15.4241C17.1266 14.7856 17.2618 14.1011 17.26 13.41M12 13.41L10.41 15" stroke="black" stroke-width="1.509" stroke-linecap="round" stroke-linejoin="round"/>
<path d="M19.07 6.33924C19.22 6.48924 19.22 6.73924 19.07 6.89924C18.92 7.04924 18.67 7.04924 18.51 6.89924C18.35 6.74924 18.36 6.49924 18.51 6.33924C18.66 6.17924 18.92 6.17924 19.07 6.33924Z" stroke="black" stroke-miterlimit="10"/>
<path d="M19.07 6.33924C19.22 6.48924 19.22 6.73924 19.07 6.89924C18.92 7.04924 18.67 7.04924 18.51 6.89924C18.35 6.74924 18.36 6.49924 18.51 6.33924C18.66 6.17924 18.92 6.17924 19.07 6.33924Z" stroke="black" stroke-width="1.5" stroke-linecap="round" stroke-linejoin="round"/>
<path d="M5.489 19.9198C5.639 20.0698 5.639 20.3198 5.489 20.4798C5.339 20.6398 5.089 20.6298 4.929 20.4798C4.85688 20.4044 4.81662 20.3041 4.81662 20.1998C4.81662 20.0955 4.85688 19.9952 4.929 19.9198C5.079 19.7598 5.339 19.7598 5.489 19.9198Z" stroke="black" stroke-miterlimit="10"/>
<path d="M5.489 19.9198C5.639 20.0698 5.639 20.3198 5.489 20.4798C5.339 20.6398 5.089 20.6298 4.929 20.4798C4.85688 20.4044 4.81662 20.3041 4.81662 20.1998C4.81662 20.0955 4.85688 19.9952 4.929 19.9198C5.079 19.7598 5.339 19.7598 5.489 19.9198Z" stroke="black" stroke-width="1.5" stroke-linecap="round" stroke-linejoin="round"/>
<path d="M21.88 13.1322C22.03 13.2822 22.03 13.5322 21.88 13.6922C21.73 13.8422 21.48 13.8422 21.32 13.6922C21.16 13.5422 21.17 13.2922 21.32 13.1322C21.47 12.9722 21.73 12.9722 21.88 13.1322Z" stroke="black" stroke-miterlimit="10"/>
<path d="M21.88 13.1322C22.03 13.2822 22.03 13.5322 21.88 13.6922C21.73 13.8422 21.48 13.8422 21.32 13.6922C21.16 13.5422 21.17 13.2922 21.32 13.1322C21.47 12.9722 21.73 12.9722 21.88 13.1322Z" stroke="black" stroke-width="1.5" stroke-linecap="round" stroke-linejoin="round"/>
<path d="M2.66899 13.1322C2.81899 13.2822 2.81899 13.5322 2.66899 13.6922C2.51899 13.8522 2.26899 13.8422 2.10899 13.6922C2.03687 13.6168 1.99661 13.5165 1.99661 13.4122C1.99661 13.3079 2.03687 13.2076 2.10899 13.1322C2.26899 12.9722 2.51899 12.9722 2.66899 13.1322Z" stroke="black" stroke-miterlimit="10"/>
<path d="M2.66899 13.1322C2.81899 13.2822 2.81899 13.5322 2.66899 13.6922C2.51899 13.8522 2.26899 13.8422 2.10899 13.6922C2.03687 13.6168 1.99661 13.5165 1.99661 13.4122C1.99661 13.3079 2.03687 13.2076 2.10899 13.1322C2.26899 12.9722 2.51899 12.9722 2.66899 13.1322Z" stroke="black" stroke-width="1.5" stroke-linecap="round" stroke-linejoin="round"/>
<path d="M19.07 19.9198C19.22 20.0698 19.22 20.3198 19.07 20.4798C18.92 20.6298 18.67 20.6298 18.51 20.4798C18.35 20.3298 18.36 20.0798 18.51 19.9198C18.67 19.7598 18.92 19.7598 19.07 19.9198Z" stroke="black" stroke-miterlimit="10"/>
<path d="M19.07 19.9198C19.22 20.0698 19.22 20.3198 19.07 20.4798C18.92 20.6298 18.67 20.6298 18.51 20.4798C18.35 20.3298 18.36 20.0798 18.51 19.9198C18.67 19.7598 18.92 19.7598 19.07 19.9198Z" stroke="black" stroke-width="1.5" stroke-linecap="round" stroke-linejoin="round"/>
<path d="M5.489 6.33924C5.639 6.48924 5.639 6.73924 5.489 6.89924C5.339 7.05924 5.089 7.04924 4.929 6.89924C4.85688 6.82386 4.81662 6.72356 4.81662 6.61924C4.81662 6.51491 4.85688 6.41461 4.929 6.33924C5.079 6.17924 5.339 6.17924 5.489 6.33924Z" stroke="black" stroke-miterlimit="10"/>
<path d="M5.489 6.33924C5.639 6.48924 5.639 6.73924 5.489 6.89924C5.339 7.05924 5.089 7.04924 4.929 6.89924C4.85688 6.82386 4.81662 6.72356 4.81662 6.61924C4.81662 6.51491 4.85688 6.41461 4.929 6.33924C5.079 6.17924 5.339 6.17924 5.489 6.33924Z" stroke="black" stroke-width="1.5" stroke-linecap="round" stroke-linejoin="round"/>
<path d="M12.282 3.51911C12.432 3.66911 12.432 3.91911 12.282 4.07911C12.132 4.23911 11.882 4.22911 11.722 4.07911C11.562 3.92911 11.572 3.67911 11.722 3.51911C11.872 3.35911 12.132 3.36911 12.282 3.51911Z" stroke="black" stroke-miterlimit="10"/>
<path d="M12.282 3.51911C12.432 3.66911 12.432 3.91911 12.282 4.07911C12.132 4.23911 11.882 4.22911 11.722 4.07911C11.562 3.92911 11.572 3.67911 11.722 3.51911C11.872 3.35911 12.132 3.36911 12.282 3.51911Z" stroke="black" stroke-width="1.5" stroke-linecap="round" stroke-linejoin="round"/>
</svg>
