<svg width="24" height="24" viewBox="0 0 24 24" fill="none" xmlns="http://www.w3.org/2000/svg">
<path d="M12 13.41L10.41 15M15.72 9.69C16.2098 10.1778 16.5985 10.7575 16.8637 11.3959C17.1289 12.0343 17.2654 12.7187 17.2654 13.41C17.2654 14.1013 17.1289 14.7857 16.8637 15.4241C16.5985 16.0625 16.2098 16.6422 15.72 17.13C15.2321 17.6197 14.6524 18.0082 14.014 18.2734C13.3757 18.5385 12.6912 18.675 12 18.675C11.3088 18.675 10.6243 18.5385 9.98596 18.2734C9.3476 18.0082 8.76785 17.6197 8.28 17.13C7.79018 16.6422 7.40152 16.0625 7.13632 15.4241C6.87112 14.7857 6.7346 14.1013 6.7346 13.41C6.7346 12.7187 6.87112 12.0343 7.13632 11.3959C7.40152 10.7575 7.79018 10.1778 8.28 9.69C8.76785 9.2003 9.3476 8.81175 9.98596 8.54662C10.6243 8.2815 11.3088 8.14502 12 8.14502C12.6912 8.14502 13.3757 8.2815 14.014 8.54662C14.6524 8.81175 15.2321 9.2003 15.72 9.69Z" stroke="black" stroke-width="1.509" stroke-linecap="round" stroke-linejoin="round"/>
<path d="M19.07 6.34021C19.22 6.49021 19.22 6.74021 19.07 6.90021C18.92 7.05021 18.67 7.05021 18.51 6.90021C18.35 6.75021 18.36 6.50021 18.51 6.34021C18.66 6.18021 18.92 6.18021 19.07 6.34021Z" stroke="black" stroke-miterlimit="10"/>
<path d="M19.07 6.34021C19.22 6.49021 19.22 6.74021 19.07 6.90021C18.92 7.05021 18.67 7.05021 18.51 6.90021C18.35 6.75021 18.36 6.50021 18.51 6.34021C18.66 6.18021 18.92 6.18021 19.07 6.34021Z" stroke="black" stroke-width="1.5" stroke-linecap="round" stroke-linejoin="round"/>
<path d="M5.48999 19.9198C5.63999 20.0698 5.63999 20.3198 5.48999 20.4798C5.33999 20.6398 5.08999 20.6298 4.92999 20.4798C4.85787 20.4044 4.81761 20.3041 4.81761 20.1998C4.81761 20.0955 4.85787 19.9952 4.92999 19.9198C5.07999 19.7598 5.33999 19.7598 5.48999 19.9198Z" stroke="black" stroke-miterlimit="10"/>
<path d="M5.48999 19.9198C5.63999 20.0698 5.63999 20.3198 5.48999 20.4798C5.33999 20.6398 5.08999 20.6298 4.92999 20.4798C4.85787 20.4044 4.81761 20.3041 4.81761 20.1998C4.81761 20.0955 4.85787 19.9952 4.92999 19.9198C5.07999 19.7598 5.33999 19.7598 5.48999 19.9198Z" stroke="black" stroke-width="1.5" stroke-linecap="round" stroke-linejoin="round"/>
<path d="M21.88 13.1298C22.03 13.2798 22.03 13.5298 21.88 13.6898C21.73 13.8398 21.48 13.8398 21.32 13.6898C21.16 13.5398 21.17 13.2898 21.32 13.1298C21.47 12.9698 21.73 12.9698 21.88 13.1298Z" stroke="black" stroke-miterlimit="10"/>
<path d="M21.88 13.1298C22.03 13.2798 22.03 13.5298 21.88 13.6898C21.73 13.8398 21.48 13.8398 21.32 13.6898C21.16 13.5398 21.17 13.2898 21.32 13.1298C21.47 12.9698 21.73 12.9698 21.88 13.1298Z" stroke="black" stroke-width="1.5" stroke-linecap="round" stroke-linejoin="round"/>
<path d="M2.67 13.1298C2.82 13.2798 2.82 13.5298 2.67 13.6898C2.52 13.8498 2.27 13.8398 2.11 13.6898C2.03788 13.6144 1.99762 13.5141 1.99762 13.4098C1.99762 13.3054 2.03788 13.2051 2.11 13.1298C2.27 12.9698 2.52 12.9698 2.67 13.1298Z" stroke="black" stroke-miterlimit="10"/>
<path d="M2.67 13.1298C2.82 13.2798 2.82 13.5298 2.67 13.6898C2.52 13.8498 2.27 13.8398 2.11 13.6898C2.03788 13.6144 1.99762 13.5141 1.99762 13.4098C1.99762 13.3054 2.03788 13.2051 2.11 13.1298C2.27 12.9698 2.52 12.9698 2.67 13.1298Z" stroke="black" stroke-width="1.5" stroke-linecap="round" stroke-linejoin="round"/>
<path d="M19.07 19.9198C19.22 20.0698 19.22 20.3198 19.07 20.4798C18.92 20.6298 18.67 20.6298 18.51 20.4798C18.35 20.3298 18.36 20.0798 18.51 19.9198C18.67 19.7598 18.92 19.7598 19.07 19.9198Z" stroke="black" stroke-miterlimit="10"/>
<path d="M19.07 19.9198C19.22 20.0698 19.22 20.3198 19.07 20.4798C18.92 20.6298 18.67 20.6298 18.51 20.4798C18.35 20.3298 18.36 20.0798 18.51 19.9198C18.67 19.7598 18.92 19.7598 19.07 19.9198Z" stroke="black" stroke-width="1.5" stroke-linecap="round" stroke-linejoin="round"/>
<path d="M5.48999 6.34021C5.63999 6.49021 5.63999 6.74021 5.48999 6.90021C5.33999 7.06021 5.08999 7.05021 4.92999 6.90021C4.85787 6.82484 4.81761 6.72454 4.81761 6.62021C4.81761 6.51589 4.85787 6.41559 4.92999 6.34021C5.07999 6.18021 5.33999 6.18021 5.48999 6.34021Z" stroke="black" stroke-miterlimit="10"/>
<path d="M5.48999 6.34021C5.63999 6.49021 5.63999 6.74021 5.48999 6.90021C5.33999 7.06021 5.08999 7.05021 4.92999 6.90021C4.85787 6.82484 4.81761 6.72454 4.81761 6.62021C4.81761 6.51589 4.85787 6.41559 4.92999 6.34021C5.07999 6.18021 5.33999 6.18021 5.48999 6.34021Z" stroke="black" stroke-width="1.5" stroke-linecap="round" stroke-linejoin="round"/>
<path d="M12.28 3.52009C12.43 3.67009 12.43 3.92009 12.28 4.08009C12.13 4.24009 11.88 4.23009 11.72 4.08009C11.56 3.93009 11.57 3.68009 11.72 3.52009C11.87 3.36009 12.13 3.37009 12.28 3.52009Z" stroke="black" stroke-miterlimit="10"/>
<path d="M12.28 3.52009C12.43 3.67009 12.43 3.92009 12.28 4.08009C12.13 4.24009 11.88 4.23009 11.72 4.08009C11.56 3.93009 11.57 3.68009 11.72 3.52009C11.87 3.36009 12.13 3.37009 12.28 3.52009Z" stroke="black" stroke-width="1.5" stroke-linecap="round" stroke-linejoin="round"/>
</svg>
