<svg width="24" height="24" viewBox="0 0 24 24" fill="none" xmlns="http://www.w3.org/2000/svg">
<path d="M12 19.4202C10.8107 19.4189 9.64842 19.0652 8.66 18.4038C7.67158 17.7424 6.90135 16.8029 6.44658 15.7039C5.99181 14.605 5.87291 13.396 6.1049 12.2295C6.33689 11.063 6.90936 9.99146 7.75 9.15016C8.30675 8.59023 8.96908 8.14635 9.69862 7.84424C10.4282 7.54212 11.2104 7.38778 12 7.39016C13.5684 7.43061 15.059 8.08208 16.154 9.20571C17.2491 10.3293 17.8619 11.8362 17.8619 13.4052C17.8619 14.9741 17.2491 16.481 16.154 17.6046C15.059 18.7282 13.5684 19.3797 12 19.4202ZM12 8.90016C10.8 8.90016 9.66 9.37016 8.81 10.2202C7.96486 11.0667 7.49017 12.214 7.49017 13.4102C7.49017 14.6063 7.96486 15.7536 8.81 16.6002C10.57 18.3602 13.43 18.3502 15.19 16.6002C16.0351 15.7536 16.5098 14.6063 16.5098 13.4102C16.5098 12.214 16.0351 11.0667 15.19 10.2202C14.7715 9.80072 14.2743 9.46816 13.7268 9.24162C13.1793 9.01509 12.5925 8.89904 12 8.90016Z" fill="black"/>
<path d="M10.412 15.75C10.222 15.75 10.022 15.68 9.88199 15.53C9.7426 15.3868 9.6646 15.1948 9.6646 14.995C9.6646 14.7951 9.7426 14.6032 9.88199 14.46L11.472 12.87C11.762 12.58 12.242 12.58 12.542 12.87C12.832 13.16 12.832 13.64 12.542 13.94L10.952 15.53C10.792 15.68 10.602 15.75 10.412 15.75ZM18.79 7.50998C18.55 7.50998 18.33 7.41998 18.16 7.24998C18.0768 7.16751 18.0107 7.06938 17.9657 6.96125C17.9206 6.85312 17.8974 6.73713 17.8974 6.61998C17.8974 6.50283 17.9206 6.38684 17.9657 6.27871C18.0107 6.17058 18.0768 6.07245 18.16 5.98998C18.33 5.81998 18.55 5.72998 18.79 5.72998C19.03 5.72998 19.25 5.81998 19.42 5.98998C19.59 6.15998 19.68 6.37998 19.68 6.61998C19.68 6.85998 19.59 7.07998 19.42 7.24998C19.3382 7.33396 19.2402 7.40034 19.1318 7.44505C19.0235 7.48976 18.9072 7.51186 18.79 7.50998ZM18.72 6.53998V6.68998C18.74 6.70998 18.77 6.71998 18.8 6.71998C18.92 6.64998 18.92 6.57998 18.87 6.53998H18.72Z" fill="black"/>
<path d="M18.788 7.75924C18.478 7.75924 18.198 7.63924 17.978 7.41924C17.7667 7.20258 17.6484 6.9119 17.6484 6.60924C17.6484 6.30657 17.7667 6.01589 17.978 5.79924C18.198 5.57924 18.478 5.46924 18.788 5.46924C19.098 5.46924 19.378 5.58924 19.598 5.80924C19.818 6.02924 19.928 6.30924 19.928 6.61924C19.928 6.92924 19.808 7.20924 19.588 7.42924C19.388 7.63924 19.098 7.75924 18.788 7.75924ZM18.538 6.86924C18.608 6.93924 18.698 6.96924 18.788 6.96924C18.878 6.96924 18.968 6.92924 19.038 6.86924C19.0713 6.83665 19.0977 6.79775 19.1157 6.75483C19.1338 6.7119 19.143 6.6658 19.143 6.61924C19.143 6.57267 19.1338 6.52658 19.1157 6.48365C19.0977 6.44072 19.0713 6.40183 19.038 6.36924C18.9698 6.3067 18.8806 6.272 18.788 6.272C18.6954 6.272 18.6062 6.3067 18.538 6.36924C18.478 6.42924 18.438 6.51924 18.438 6.61924C18.438 6.70924 18.468 6.79924 18.538 6.86924ZM5.21 21.0892C4.98 21.0892 4.75 20.9992 4.58 20.8292C4.41365 20.6618 4.3203 20.4353 4.3203 20.1992C4.3203 19.9632 4.41365 19.7367 4.58 19.5692C4.75 19.3992 4.97 19.3092 5.21 19.3092C5.45 19.3092 5.67 19.3992 5.84 19.5692C6.19 19.9192 6.19 20.4892 5.84 20.8292C5.67 20.9992 5.44 21.0892 5.21 21.0892ZM5.19 20.0992C5.17 20.0992 5.15 20.1092 5.13 20.1292C5.09 20.1692 5.09 20.2392 5.13 20.2792C5.15 20.2992 5.18 20.3092 5.2 20.3092L5.3 20.2092C5.27 20.1192 5.23 20.0992 5.19 20.0992Z" fill="black"/>
<path d="M5.20901 21.3392C5.05861 21.34 4.90953 21.3111 4.7703 21.2542C4.63107 21.1973 4.50442 21.1136 4.39761 21.0077C4.29079 20.9018 4.20591 20.7759 4.14781 20.6372C4.08971 20.4984 4.05953 20.3496 4.05901 20.1992C4.05927 20.0487 4.08926 19.8998 4.14727 19.7609C4.20528 19.6221 4.29016 19.4961 4.39702 19.3901C4.50389 19.2842 4.63064 19.2004 4.76999 19.1436C4.90933 19.0868 5.05853 19.0582 5.20901 19.0592C5.51901 19.0592 5.79901 19.1792 6.01901 19.3992C6.46901 19.8492 6.46901 20.5692 6.01901 21.0192C5.79901 21.2292 5.49901 21.3392 5.20901 21.3392ZM5.20901 19.8392C5.15081 19.8384 5.09334 19.8522 5.0418 19.8792C4.99025 19.9062 4.94626 19.9456 4.91379 19.9939C4.88133 20.0422 4.86142 20.0979 4.85588 20.1558C4.85033 20.2137 4.85931 20.2721 4.88202 20.3257C4.90472 20.3793 4.94043 20.4264 4.98591 20.4627C5.03139 20.499 5.08521 20.5234 5.1425 20.5337C5.19978 20.544 5.25872 20.5398 5.31399 20.5215C5.36925 20.5033 5.41909 20.4716 5.45901 20.4292C5.51901 20.3692 5.55901 20.2792 5.55901 20.1792C5.55901 20.0892 5.51901 19.9892 5.45901 19.9292C5.38672 19.8746 5.29954 19.8432 5.20901 19.8392ZM21.6 14.3022C21.4226 14.3025 21.2491 14.2501 21.1015 14.1515C20.954 14.0529 20.8392 13.9127 20.7716 13.7486C20.7041 13.5845 20.6869 13.4041 20.7222 13.2302C20.7575 13.0563 20.8438 12.8969 20.97 12.7722C21.14 12.6022 21.37 12.5622 21.6 12.5122C21.84 12.5122 22.06 12.6022 22.23 12.7722C22.3562 12.8969 22.4425 13.0563 22.4778 13.2302C22.5132 13.4041 22.4959 13.5845 22.4284 13.7486C22.3608 13.9127 22.246 14.0529 22.0985 14.1515C21.9509 14.2501 21.7774 14.3025 21.6 14.3022ZM21.53 13.4822C21.55 13.5022 21.58 13.5122 21.61 13.5122C21.72 13.4422 21.72 13.3722 21.68 13.3322C21.6598 13.313 21.6329 13.3023 21.605 13.3023C21.5771 13.3023 21.5503 13.313 21.53 13.3322C21.49 13.3722 21.49 13.4422 21.53 13.4822Z" fill="black"/>
<path d="M21.6 14.5522C21.3734 14.5538 21.1515 14.4878 20.9626 14.3626C20.7736 14.2374 20.6263 14.0588 20.5394 13.8495C20.4524 13.6403 20.4299 13.4098 20.4745 13.1877C20.5191 12.9655 20.629 12.7617 20.79 12.6022C21.01 12.3822 21.29 12.2622 21.6 12.2622C21.91 12.2622 22.19 12.3822 22.41 12.6022C22.571 12.7617 22.6809 12.9655 22.7255 13.1877C22.7702 13.4098 22.7476 13.6403 22.6606 13.8495C22.5737 14.0588 22.4264 14.2374 22.2375 14.3626C22.0485 14.4878 21.8266 14.5538 21.6 14.5522ZM21.35 13.6622C21.42 13.7322 21.51 13.7622 21.6 13.7622C21.69 13.7622 21.78 13.7222 21.85 13.6622C21.8833 13.6296 21.9097 13.5907 21.9277 13.5478C21.9458 13.5049 21.9551 13.4588 21.9551 13.4122C21.9551 13.3656 21.9458 13.3195 21.9277 13.2766C21.9097 13.2337 21.8833 13.1948 21.85 13.1622C21.8174 13.1289 21.7785 13.1025 21.7356 13.0845C21.6927 13.0664 21.6466 13.0572 21.6 13.0572C21.5534 13.0572 21.5073 13.0664 21.4644 13.0845C21.4215 13.1025 21.3826 13.1289 21.35 13.1622C21.2852 13.2293 21.249 13.3189 21.249 13.4122C21.249 13.5055 21.2852 13.5951 21.35 13.6622ZM2.40001 14.3002C2.22258 14.3005 2.04906 14.2481 1.90155 14.1495C1.75403 14.0509 1.63918 13.9107 1.57163 13.7466C1.50407 13.5825 1.48686 13.4021 1.52219 13.2282C1.55752 13.0543 1.64378 12.8949 1.77001 12.7702C1.93867 12.6023 2.16699 12.508 2.40501 12.508C2.64302 12.508 2.87134 12.6023 3.04001 12.7702C3.20794 12.9389 3.30222 13.1672 3.30222 13.4052C3.30222 13.6432 3.20794 13.8715 3.04001 14.0402C2.85001 14.2102 2.62001 14.3002 2.40001 14.3002ZM2.32001 13.4802C2.36001 13.5202 2.43001 13.5202 2.47001 13.4802C2.51001 13.4402 2.51001 13.3702 2.47001 13.3302C2.44976 13.311 2.42291 13.3003 2.39501 13.3003C2.3671 13.3003 2.34026 13.311 2.32001 13.3302C2.28001 13.3702 2.28001 13.4402 2.32001 13.4802Z" fill="black"/>
<path d="M2.401 14.5498C2.17439 14.5513 1.95246 14.4853 1.76355 14.3602C1.57463 14.235 1.4273 14.0564 1.34037 13.8471C1.25344 13.6378 1.23086 13.4074 1.2755 13.1852C1.32014 12.9631 1.42998 12.7592 1.591 12.5998C1.80641 12.386 2.09755 12.2661 2.401 12.2661C2.70445 12.2661 2.9956 12.386 3.211 12.5998C3.661 13.0498 3.661 13.7698 3.211 14.2198C2.981 14.4398 2.691 14.5498 2.401 14.5498ZM2.141 13.6598C2.281 13.7998 2.501 13.7998 2.641 13.6598C2.67426 13.6272 2.70068 13.5883 2.71872 13.5454C2.73676 13.5024 2.74605 13.4563 2.74605 13.4098C2.74605 13.3632 2.73676 13.3171 2.71872 13.2742C2.70068 13.2313 2.67426 13.1924 2.641 13.1598C2.60841 13.1265 2.56952 13.1001 2.52659 13.0821C2.48366 13.064 2.43757 13.0547 2.391 13.0547C2.34444 13.0547 2.29834 13.064 2.25541 13.0821C2.21249 13.1001 2.17359 13.1265 2.141 13.1598C2.07846 13.228 2.04377 13.3172 2.04377 13.4098C2.04377 13.5023 2.07846 13.5915 2.141 13.6598ZM18.79 21.0898C18.6126 21.0901 18.4391 21.0377 18.2915 20.9391C18.144 20.8405 18.0292 20.7002 17.9616 20.5362C17.8941 20.3721 17.8769 20.1917 17.9122 20.0178C17.9475 19.8439 18.0338 19.6845 18.16 19.5598C18.3287 19.3918 18.557 19.2976 18.795 19.2976C19.033 19.2976 19.2613 19.3918 19.43 19.5598C19.6 19.7298 19.69 19.9498 19.69 20.1898C19.69 20.4298 19.6 20.6498 19.43 20.8198C19.25 20.9998 19.02 21.0898 18.79 21.0898ZM18.79 20.0898C18.7769 20.0894 18.7638 20.0918 18.7517 20.097C18.7396 20.1022 18.7288 20.11 18.72 20.1198V20.2698C18.76 20.3098 18.83 20.3098 18.87 20.2698C18.91 20.2298 18.91 20.1598 18.87 20.1198C18.84 20.0998 18.82 20.0898 18.79 20.0898Z" fill="black"/>
<path d="M18.788 21.338C18.5614 21.3395 18.3395 21.2735 18.1505 21.1484C17.9616 21.0232 17.8143 20.8446 17.7274 20.6353C17.6404 20.426 17.6179 20.1956 17.6625 19.9734C17.7071 19.7513 17.817 19.5474 17.978 19.388C18.084 19.2809 18.2102 19.196 18.3492 19.138C18.4882 19.08 18.6374 19.0502 18.788 19.0502C18.9386 19.0502 19.0878 19.08 19.2268 19.138C19.3658 19.196 19.492 19.2809 19.598 19.388C19.818 19.608 19.938 19.888 19.938 20.198C19.938 20.508 19.818 20.788 19.598 21.008C19.378 21.228 19.078 21.338 18.788 21.338ZM18.538 20.448C18.678 20.588 18.898 20.588 19.038 20.448C19.0713 20.4154 19.0977 20.3765 19.1157 20.3336C19.1338 20.2906 19.1431 20.2445 19.1431 20.198C19.1431 20.1514 19.1338 20.1053 19.1157 20.0624C19.0977 20.0195 19.0713 19.9806 19.038 19.948C18.989 19.898 18.9262 19.8638 18.8577 19.8499C18.7891 19.836 18.7179 19.8429 18.6533 19.8698C18.5888 19.8967 18.5337 19.9424 18.4953 20.0009C18.457 20.0594 18.437 20.128 18.438 20.198C18.438 20.288 18.468 20.378 18.538 20.448ZM5.21 7.50998C4.97 7.50998 4.75 7.41998 4.58 7.24998C4.49682 7.16763 4.43095 7.06947 4.3863 6.96127C4.34165 6.85307 4.31911 6.73703 4.32 6.61998C4.32 6.37998 4.41 6.15998 4.58 5.98998C4.75 5.81998 4.97 5.72998 5.21 5.72998C5.45 5.72998 5.67 5.81998 5.84 5.98998C6.00793 6.15865 6.10221 6.38697 6.10221 6.62498C6.10221 6.86299 6.00793 7.09131 5.84 7.25998C5.67003 7.42133 5.44436 7.51088 5.21 7.50998ZM5.13 6.68998C5.15 6.70998 5.18 6.71998 5.2 6.71998L5.3 6.61998L5.2 6.51998C5.09 6.57998 5.09 6.64998 5.13 6.68998Z" fill="black"/>
<path d="M5.21 7.75918C5.05953 7.75892 4.91059 7.72892 4.77174 7.67092C4.63289 7.61291 4.50688 7.52803 4.40094 7.42116C4.295 7.3143 4.21123 7.18755 4.15444 7.0482C4.09764 6.90885 4.06895 6.75965 4.07 6.60918C4.07026 6.4587 4.10026 6.30976 4.15827 6.17091C4.21628 6.03207 4.30115 5.90605 4.40802 5.80012C4.51489 5.69418 4.64164 5.61041 4.78099 5.55361C4.92033 5.49682 5.06953 5.46813 5.22 5.46918C5.53 5.46918 5.81 5.58918 6.03 5.80918C6.47 6.25918 6.47 6.97918 6.03 7.42918C5.8 7.63918 5.52 7.75918 5.21 7.75918ZM4.96 6.86918C5.03 6.93918 5.12 6.97918 5.21 6.97918C5.3 6.97918 5.39 6.93918 5.46 6.87918C5.53 6.81918 5.56 6.71918 5.56 6.62918C5.55995 6.58217 5.55015 6.53568 5.53121 6.49265C5.51228 6.44962 5.48463 6.41098 5.45 6.37918C5.33 6.24918 5.08 6.24918 4.95 6.37918C4.82 6.49918 4.82 6.72918 4.96 6.86918ZM12 4.70018C11.76 4.70018 11.54 4.61018 11.37 4.44018C11.2868 4.35783 11.221 4.25967 11.1763 4.15147C11.1316 4.04327 11.1091 3.92723 11.11 3.81018C11.11 3.57018 11.2 3.35018 11.37 3.18018C11.5387 3.01225 11.767 2.91797 12.005 2.91797C12.243 2.91797 12.4713 3.01225 12.64 3.18018C12.99 3.53018 12.99 4.10018 12.64 4.44018C12.47 4.60018 12.24 4.70018 12 4.70018ZM12.07 3.73018L11.92 3.88018C11.96 3.92018 12.03 3.92018 12.07 3.88018V3.73018ZM11.93 3.73018C11.89 3.77018 11.89 3.84018 11.93 3.88018L12.08 3.73018H11.93Z" fill="black"/>
<path d="M12 4.95016C11.8495 4.9499 11.7006 4.9199 11.5617 4.8619C11.4229 4.80389 11.2969 4.71901 11.1909 4.61214C11.085 4.50528 11.0012 4.37853 10.9444 4.23918C10.8876 4.09983 10.8589 3.95063 10.86 3.80016C10.86 3.49016 10.98 3.21016 11.2 2.99016C11.306 2.88313 11.4322 2.79817 11.5712 2.74018C11.7102 2.6822 11.8594 2.65234 12.01 2.65234C12.1606 2.65234 12.3098 2.6822 12.4488 2.74018C12.5878 2.79817 12.714 2.88313 12.82 2.99016C13.26 3.44016 13.26 4.16016 12.82 4.61016C12.6 4.83016 12.31 4.95016 12 4.95016ZM12.25 3.55016L11.75 4.05016C11.799 4.10014 11.8618 4.1343 11.9303 4.14824C11.9989 4.16217 12.0701 4.15523 12.1347 4.12832C12.1992 4.10142 12.2543 4.05577 12.2927 3.99727C12.331 3.93878 12.351 3.87012 12.35 3.80016C12.35 3.71016 12.32 3.62016 12.25 3.55016ZM12 3.45016C11.953 3.45021 11.9065 3.46002 11.8635 3.47895C11.8204 3.49789 11.7818 3.52554 11.75 3.56016C11.7167 3.59275 11.6903 3.63164 11.6723 3.67457C11.6542 3.7175 11.6449 3.7636 11.6449 3.81016C11.6449 3.85672 11.6542 3.90282 11.6723 3.94575C11.6903 3.98867 11.7167 4.02757 11.75 4.06016L12.25 3.56016C12.2188 3.52478 12.1803 3.49662 12.1371 3.47762C12.0939 3.45863 12.0472 3.44926 12 3.45016Z" fill="black"/>
</svg>
