<svg width="24" height="24" viewBox="0 0 24 24" fill="none" xmlns="http://www.w3.org/2000/svg">
<path d="M15.72 9.69C16.2098 10.1778 16.5985 10.7575 16.8637 11.3959C17.1289 12.0343 17.2654 12.7187 17.2654 13.41C17.2654 14.1013 17.1289 14.7857 16.8637 15.4241C16.5985 16.0625 16.2098 16.6422 15.72 17.13C15.2321 17.6197 14.6524 18.0082 14.014 18.2734C13.3757 18.5385 12.6912 18.675 12 18.675C11.3088 18.675 10.6243 18.5385 9.98597 18.2734C9.3476 18.0082 8.76786 17.6197 8.28 17.13C7.79018 16.6422 7.40152 16.0625 7.13632 15.4241C6.87112 14.7857 6.73461 14.1013 6.73461 13.41C6.73461 12.7187 6.87112 12.0343 7.13632 11.3959C7.40152 10.7575 7.79018 10.1778 8.28 9.69C8.76786 9.2003 9.3476 8.81175 9.98597 8.54662C10.6243 8.2815 11.3088 8.14502 12 8.14502C12.6912 8.14502 13.3757 8.2815 14.014 8.54662C14.6524 8.81175 15.2321 9.2003 15.72 9.69Z" stroke="black" stroke-width="1.509" stroke-linecap="round" stroke-linejoin="round"/>
<path opacity="0.4" d="M12 13.4102L10.41 15.0002" stroke="black" stroke-width="1.509" stroke-linecap="round" stroke-linejoin="round"/>
<path opacity="0.4" d="M19.07 6.33911C19.22 6.48911 19.22 6.73911 19.07 6.89911C18.92 7.04911 18.67 7.04911 18.51 6.89911C18.35 6.74911 18.36 6.49911 18.51 6.33911C18.66 6.17911 18.92 6.17911 19.07 6.33911ZM5.489 19.9201C5.639 20.0701 5.639 20.3201 5.489 20.4801C5.339 20.6401 5.089 20.6301 4.929 20.4801C4.85687 20.4047 4.81662 20.3044 4.81662 20.2001C4.81662 20.0958 4.85687 19.9955 4.929 19.9201C5.079 19.7601 5.339 19.7601 5.489 19.9201ZM21.88 13.1321C22.03 13.2821 22.03 13.5321 21.88 13.6921C21.73 13.8421 21.48 13.8421 21.32 13.6921C21.16 13.5421 21.17 13.2921 21.32 13.1321C21.47 12.9721 21.73 12.9721 21.88 13.1321ZM2.669 13.1321C2.819 13.2821 2.819 13.5321 2.669 13.6921C2.519 13.8521 2.269 13.8421 2.109 13.6921C2.03687 13.6167 1.99662 13.5164 1.99662 13.4121C1.99662 13.3078 2.03687 13.2075 2.109 13.1321C2.269 12.9721 2.519 12.9721 2.669 13.1321ZM19.07 19.9201C19.22 20.0701 19.22 20.3201 19.07 20.4801C18.92 20.6301 18.67 20.6301 18.51 20.4801C18.35 20.3301 18.36 20.0801 18.51 19.9201C18.67 19.7601 18.92 19.7601 19.07 19.9201ZM5.489 6.33911C5.639 6.48911 5.639 6.73911 5.489 6.89911C5.339 7.05911 5.089 7.04911 4.929 6.89911C4.85687 6.82374 4.81662 6.72344 4.81662 6.61911C4.81662 6.51479 4.85687 6.41449 4.929 6.33911C5.079 6.17911 5.339 6.17911 5.489 6.33911ZM12.282 3.51911C12.432 3.66911 12.432 3.91911 12.282 4.07911C12.132 4.23911 11.882 4.22911 11.722 4.07911C11.562 3.92911 11.572 3.67911 11.722 3.51911C11.872 3.35911 12.132 3.36911 12.282 3.51911Z" stroke="black" stroke-width="1.5" stroke-linecap="round" stroke-linejoin="round"/>
</svg>
