<svg width="24" height="24" viewBox="0 0 24 24" fill="none" xmlns="http://www.w3.org/2000/svg">
<path d="M19.071 14.2416C18.781 14.5316 18.321 14.5316 18.041 14.2416C17.9721 14.1746 17.9174 14.0946 17.88 14.0061C17.8426 13.9177 17.8233 13.8226 17.8233 13.7266C17.8233 13.6305 17.8426 13.5355 17.88 13.447C17.9174 13.3585 17.9721 13.2785 18.041 13.2116C20.041 11.2116 20.041 7.96156 18.041 5.97156C16.041 3.98156 12.791 3.97156 10.801 5.97156C8.811 7.97156 8.801 11.2216 10.801 13.2116C11.091 13.5016 11.091 13.9616 10.801 14.2416C10.511 14.5316 10.051 14.5316 9.771 14.2416C7.201 11.6716 7.201 7.49156 9.771 4.93156C12.341 2.37156 16.521 2.36156 19.081 4.93156C20.3116 6.16887 21.0016 7.84354 20.9997 9.58863C20.9978 11.3337 20.3043 13.0069 19.071 14.2416Z" fill="black"/>
<path d="M4.929 9.76047C5.219 9.47047 5.679 9.47047 5.959 9.76047C6.249 10.0505 6.249 10.5105 5.959 10.7905C3.959 12.7905 3.959 16.0405 5.959 18.0305C7.959 20.0205 11.209 20.0305 13.199 18.0305C15.189 16.0305 15.199 12.7805 13.199 10.7905C13.1301 10.7235 13.0754 10.6435 13.038 10.555C13.0006 10.4666 12.9813 10.3715 12.9813 10.2755C12.9813 10.1794 13.0006 10.0844 13.038 9.99591C13.0754 9.90745 13.1301 9.82739 13.199 9.76047C13.489 9.47047 13.949 9.47047 14.229 9.76047C16.799 12.3305 16.799 16.5105 14.229 19.0705C11.659 21.6305 7.479 21.6405 4.919 19.0705C3.68839 17.8332 2.99843 16.1585 3.00031 14.4134C3.00218 12.6683 3.69574 10.9951 4.929 9.76047Z" fill="black"/>
</svg>
