<svg width="24" height="24" viewBox="0 0 24 24" fill="none" xmlns="http://www.w3.org/2000/svg">
<path d="M13.06 10.9409C13.5949 11.4741 14.0192 12.1077 14.3088 12.8052C14.5984 13.5028 14.7474 14.2506 14.7474 15.0059C14.7474 15.7611 14.5984 16.509 14.3088 17.2065C14.0192 17.9041 13.5949 18.5376 13.06 19.0709C10.81 21.3109 7.17 21.3209 4.93 19.0709C2.69 16.8209 2.68 13.1809 4.93 10.9409M14.969 3.17188C16.459 3.20187 17.939 3.79188 19.069 4.93188C21.409 7.27188 21.409 11.0719 19.069 13.4219" stroke="black" stroke-width="1.5" stroke-linecap="round" stroke-linejoin="round"/>
<path d="M10.59 13.4119C8.25 11.0719 8.25 7.27187 10.59 4.92188" stroke="black" stroke-width="1.5" stroke-linecap="round" stroke-linejoin="round"/>
</svg>
