<svg width="24" height="24" viewBox="0 0 24 24" fill="none" xmlns="http://www.w3.org/2000/svg">
<path d="M19.071 14.2416C18.781 14.5316 18.321 14.5316 18.041 14.2416C17.9721 14.1746 17.9174 14.0946 17.88 14.0061C17.8426 13.9177 17.8233 13.8226 17.8233 13.7266C17.8233 13.6305 17.8426 13.5355 17.88 13.447C17.9174 13.3585 17.9721 13.2785 18.041 13.2116C20.041 11.2116 20.041 7.96156 18.041 5.97156C16.041 3.98156 12.791 3.97156 10.801 5.97156C8.811 7.97156 8.801 11.2216 10.801 13.2116C11.091 13.5016 11.091 13.9616 10.801 14.2416C10.511 14.5316 10.051 14.5316 9.771 14.2416C7.201 11.6716 7.201 7.49156 9.771 4.93156C12.341 2.37156 16.521 2.36156 19.081 4.93156C20.3116 6.16887 21.0016 7.84354 20.9997 9.58863C20.9978 11.3337 20.3043 13.0069 19.071 14.2416Z" fill="black"/>
<path opacity="0.4" d="M19.07 4.93131C19.8953 5.75726 20.4861 6.7878 20.782 7.91731C21.0778 9.04681 21.068 10.2347 20.7536 11.3591C20.4391 12.4836 19.8313 13.5043 18.9925 14.3165C18.1537 15.1287 17.114 15.7033 15.98 15.9813C16.51 13.8213 15.93 11.4513 14.24 9.76131C13.4412 8.9597 12.4487 8.37823 11.3588 8.07335C10.269 7.76848 9.11882 7.75055 8.02 8.02131C8.3 6.89131 8.87 5.81131 9.76 4.93131C10.9948 3.69718 12.6692 3.00391 14.415 3.00391C16.1608 3.00391 17.8352 3.69718 19.07 4.93131Z" fill="black"/>
<path d="M4.929 9.76047C5.219 9.47047 5.679 9.47047 5.959 9.76047C6.249 10.0505 6.249 10.5105 5.959 10.7905C3.959 12.7905 3.959 16.0405 5.959 18.0305C7.959 20.0205 11.209 20.0305 13.199 18.0305C15.189 16.0305 15.199 12.7805 13.199 10.7905C13.1301 10.7235 13.0754 10.6435 13.038 10.555C13.0006 10.4666 12.9813 10.3715 12.9813 10.2755C12.9813 10.1794 13.0006 10.0844 13.038 9.99591C13.0754 9.90745 13.1301 9.82739 13.199 9.76047C13.489 9.47047 13.949 9.47047 14.229 9.76047C16.799 12.3305 16.799 16.5105 14.229 19.0705C11.659 21.6305 7.479 21.6405 4.919 19.0705C3.68839 17.8332 2.99844 16.1585 3.00031 14.4134C3.00218 12.6683 3.69574 10.9951 4.929 9.76047Z" fill="black"/>
<path opacity="0.5" d="M14.241 9.76183C15.0427 10.5606 15.6242 11.5531 15.9291 12.643C16.234 13.7328 16.2519 14.883 15.981 15.9818C15.7029 17.1158 15.1284 18.1555 14.3162 18.9944C13.5039 19.8332 12.4833 20.4409 11.3588 20.7554C10.2344 21.0698 9.0465 21.0796 7.917 20.7838C6.78749 20.488 5.75695 19.8971 4.931 19.0718C3.69687 17.837 3.0036 16.1626 3.0036 14.4168C3.0036 12.671 3.69687 10.9966 4.931 9.76183C5.811 8.87183 6.891 8.30183 8.021 8.02183C10.181 7.49183 12.551 8.07183 14.241 9.76183Z" fill="black"/>
</svg>
