<svg width="24" height="24" viewBox="0 0 24 24" fill="none" xmlns="http://www.w3.org/2000/svg">
<path d="M13.06 10.9404C13.5949 11.4737 14.0192 12.1072 14.3088 12.8048C14.5984 13.5023 14.7474 14.2502 14.7474 15.0054C14.7474 15.7607 14.5984 16.5085 14.3088 17.2061C14.0192 17.9036 13.5949 18.5372 13.06 19.0704C10.81 21.3104 7.17 21.3204 4.93 19.0704C2.69 16.8204 2.68 13.1804 4.93 10.9404" stroke="black" stroke-width="1.5" stroke-linecap="round" stroke-linejoin="round"/>
<path d="M10.59 13.4099C8.25001 11.0699 8.25001 7.26988 10.59 4.91988C12.93 2.56988 16.73 2.57988 19.08 4.91988C21.43 7.25988 21.42 11.0599 19.08 13.4099" stroke="black" stroke-width="1.5" stroke-linecap="round" stroke-linejoin="round"/>
</svg>
