<svg width="24" height="24" viewBox="0 0 24 24" fill="none" xmlns="http://www.w3.org/2000/svg">
<path d="M8.98999 21.5011C7.32999 21.5011 5.65999 20.8711 4.38999 19.6011C1.85999 17.0611 1.85999 12.9411 4.38999 10.4111C4.67999 10.1211 5.15999 10.1211 5.44999 10.4111C5.73999 10.7011 5.73999 11.1811 5.44999 11.4711C4.51337 12.4091 3.9873 13.6805 3.9873 15.0061C3.9873 16.3317 4.51337 17.6031 5.44999 18.5411C6.38802 19.4777 7.65942 20.0038 8.98499 20.0038C10.3106 20.0038 11.582 19.4777 12.52 18.5411C13.46 17.6011 13.98 16.3411 13.98 15.0011C13.98 13.6711 13.46 12.4111 12.52 11.4611C12.3805 11.32 12.3023 11.1295 12.3023 10.9311C12.3023 10.7327 12.3805 10.5422 12.52 10.4011C12.81 10.1111 13.29 10.1111 13.58 10.4011C14.1856 11.0038 14.6654 11.7208 14.9915 12.5105C15.3177 13.3001 15.4837 14.1467 15.48 15.0011C15.48 16.7411 14.8 18.3711 13.58 19.6011C12.9791 20.2063 12.2638 20.6859 11.4758 21.0121C10.6878 21.3383 9.84283 21.5045 8.98999 21.5011Z" fill="black"/>
<path d="M19.068 14.1583C18.878 14.1583 18.688 14.0883 18.538 13.9383C18.3985 13.7971 18.3203 13.6067 18.3203 13.4083C18.3203 13.2099 18.3985 13.0194 18.538 12.8783C20.588 10.8283 20.588 7.49828 18.538 5.45828C16.488 3.40828 13.158 3.40828 11.118 5.45828C10.629 5.94433 10.2412 6.52244 9.97684 7.15922C9.71252 7.79599 9.57696 8.47883 9.578 9.16828C9.578 10.5683 10.128 11.8883 11.118 12.8783C11.408 13.1683 11.408 13.6483 11.118 13.9383C10.828 14.2283 10.348 14.2283 10.058 13.9383C9.42965 13.3131 8.9312 12.5698 8.59138 11.7511C8.25156 10.9325 8.07709 10.0547 8.078 9.16828C8.078 7.36828 8.778 5.66828 10.058 4.39828C12.688 1.76828 16.968 1.76828 19.608 4.39828C22.238 7.02828 22.238 11.3183 19.608 13.9483C19.458 14.0883 19.258 14.1583 19.068 14.1583Z" fill="black"/>
</svg>
