<svg width="24" height="24" viewBox="0 0 24 24" fill="none" xmlns="http://www.w3.org/2000/svg">
<path d="M13.06 10.9414C13.5949 11.4746 14.0192 12.1082 14.3088 12.8057C14.5984 13.5033 14.7474 14.2511 14.7474 15.0064C14.7474 15.7617 14.5984 16.5095 14.3088 17.2071C14.0192 17.9046 13.5949 18.5382 13.06 19.0714C10.81 21.3114 7.17 21.3214 4.93 19.0714C2.69 16.8214 2.68 13.1814 4.93 10.9414" stroke="black" stroke-width="1.5" stroke-linecap="round" stroke-linejoin="round"/>
<path opacity="0.4" d="M10.59 13.4089C8.25 11.0689 8.25 7.26891 10.59 4.91891C12.93 2.56891 16.73 2.57891 19.08 4.91891C21.43 7.25891 21.42 11.0589 19.08 13.4089" stroke="black" stroke-width="1.5" stroke-linecap="round" stroke-linejoin="round"/>
</svg>
