<svg width="24" height="24" viewBox="0 0 24 24" fill="none" xmlns="http://www.w3.org/2000/svg">
<path opacity="0.4" d="M12 22C17.523 22 22 17.523 22 12C22 6.477 17.523 2 12 2C6.477 2 2 6.477 2 12C2 17.523 6.477 22 12 22Z" fill="black"/>
<path fill-rule="evenodd" clip-rule="evenodd" d="M17.31 15.3091C17.02 15.4691 16.78 15.5391 16.58 15.5891C16.41 15.6291 16.27 15.6691 16.15 15.7491C16.02 15.8291 16.01 15.9591 15.99 16.0791C15.97 16.1891 15.96 16.2791 15.88 16.3391C15.79 16.3991 15.62 16.4091 15.39 16.4191C15.09 16.4391 14.71 16.4491 14.25 16.5891C14.03 16.6691 13.83 16.7891 13.63 16.9091C13.23 17.1591 12.78 17.4291 11.99 17.4291C11.21 17.4291 10.76 17.1591 10.36 16.9091C10.16 16.7791 9.96 16.6591 9.73 16.5791C9.35981 16.4694 8.97608 16.4122 8.59 16.4091C8.36 16.3991 8.2 16.3891 8.1 16.3291C8.02 16.2791 8.01 16.1791 7.99 16.0691C7.97 15.9491 7.96 15.8191 7.83 15.7391C7.71 15.6591 7.56 15.6191 7.4 15.5691C7.2 15.5191 6.96 15.4591 6.67 15.2991C6.33 15.1091 6.53 14.9991 6.64 14.9391C8.57 14.0091 8.87 12.5691 8.88 12.4591V12.4391C8.9 12.3191 8.91 12.2191 8.77 12.0891C8.68 11.9991 8.37 11.7991 8.12 11.6391C8.01 11.5591 7.91 11.4991 7.85 11.4691C7.57 11.2691 7.45 11.0791 7.54 10.8291C7.6 10.6591 7.76 10.5991 7.92 10.5991C7.97 10.5991 8.03 10.6091 8.07 10.6191C8.25 10.6591 8.43 10.7291 8.59 10.7891C8.7 10.8391 8.79 10.8691 8.86 10.8891C8.88 10.8991 8.91 10.8991 8.92 10.8991C9.02 10.8991 9.05 10.8491 9.04 10.7491C9.04 10.7191 9.04 10.6891 9.03 10.6591C9.01 10.3091 8.98 9.69908 9.02 9.13908C9.1 8.29908 9.37 7.86908 9.69 7.50908C9.85 7.32908 10.58 6.55908 11.97 6.55908C13.36 6.55908 14.09 7.32908 14.25 7.49908C14.57 7.86908 14.84 8.28908 14.92 9.13908C14.97 9.72908 14.93 10.3591 14.9 10.7091V10.7391C14.89 10.8491 14.92 10.8891 15.02 10.8891C15.04 10.8891 15.06 10.8891 15.08 10.8791C15.15 10.8591 15.24 10.8291 15.35 10.7891C15.5 10.7291 15.68 10.6591 15.87 10.6191C15.92 10.5991 15.97 10.5991 16.02 10.5991C16.19 10.5991 16.34 10.6691 16.4 10.8391C16.49 11.0791 16.37 11.2691 16.09 11.4691C16.04 11.5091 15.94 11.5791 15.82 11.6391C15.58 11.7991 15.26 11.9991 15.17 12.0891C15.03 12.2191 15.04 12.3191 15.06 12.4391V12.4591C15.08 12.5691 15.38 14.0091 17.3 14.9391C17.45 14.9991 17.65 15.1191 17.31 15.3091Z" fill="black"/>
</svg>
