<svg width="24" height="24" viewBox="0 0 24 24" fill="none" xmlns="http://www.w3.org/2000/svg">
<path d="M17.3 15.3002C17 15.5002 16.8 15.5002 16.6 15.6002C16.4 15.6002 16.3 15.7002 16.2 15.8002C16 15.8002 16 16.0002 16 16.1002C16 16.2002 16 16.3002 15.9 16.4002C15.8 16.5002 15.6 16.5002 15.4 16.5002C15.1 16.5002 14.7 16.5002 14.3 16.7002L13.7 17.0002C13.3 17.3002 12.9 17.5002 12.1 17.5002C11.3 17.5002 10.9 17.2002 10.5 17.0002C10.3 16.9002 10.1 16.7002 9.9 16.7002C9.5 16.6002 9.1 16.5002 8.8 16.5002C8.6 16.5002 8.4 16.5002 8.3 16.4002C8 16.3002 8 16.2002 8 16.1002C8 16.0002 8 15.8002 7.8 15.8002C7.7 15.7002 7.5 15.7002 7.4 15.6002C7.2 15.5002 7 15.5002 6.7 15.3002C6.4 15.1002 6.6 15.0002 6.7 14.9002C8.6 14.0002 8.9 12.5002 8.9 12.4002C8.9 12.3002 8.9 12.2002 8.8 12.1002C8.7 12.0002 8.4 11.8002 8.1 11.7002C8 11.6002 7.9 11.6002 7.8 11.5002C7.5 11.3002 7.4 11.1002 7.5 10.9002C7.6 10.7002 7.7 10.7002 7.9 10.7002H8.1C8.3 10.7002 8.5 10.8002 8.6 10.9002C8.7 10.9002 8.8 11.0002 8.9 11.0002H9C9.1 11.0002 9.1 11.0002 9.1 10.8002V10.7002C9.1 10.4002 9 9.7002 9.1 9.2002C9.2 8.4002 9.4 7.9002 9.8 7.6002C10 7.4002 10.7 6.7002 12.1 6.7002C13.5 6.7002 14.2 7.5002 14.4 7.6002C14.7 8.0002 15 8.4002 15.1 9.2002C15.2 9.8002 15.1 10.4002 15.1 10.8002C15.1 10.9002 15.1 11.0002 15.2 11.0002H15.3C15.4 11.0002 15.5 10.9002 15.6 10.9002C15.8 10.8002 15.9 10.8002 16.1 10.7002H16.3C16.5 10.7002 16.6 10.8002 16.7 10.9002C16.8 11.1002 16.7 11.3002 16.4 11.5002C16.3 11.5002 16.2 11.6002 16.1 11.7002C15.9 11.9002 15.5 12.1002 15.4 12.1002C15.3 12.2002 15.3 12.3002 15.3 12.4002C15.3 12.5002 15.6 13.9002 17.5 14.9002C17.5 15.0002 17.7 15.1002 17.3 15.3002Z" stroke="black" stroke-width="1.5" stroke-miterlimit="10" stroke-linejoin="round"/>
<path d="M12 22C17.523 22 22 17.523 22 12C22 6.477 17.523 2 12 2C6.477 2 2 6.477 2 12C2 17.523 6.477 22 12 22Z" stroke="black" stroke-width="1.5" stroke-miterlimit="10" stroke-linejoin="round"/>
</svg>
