<svg width="24" height="24" viewBox="0 0 24 24" fill="none" xmlns="http://www.w3.org/2000/svg">
<path d="M12 18.1798C10.98 18.1798 10.37 17.7998 9.97 17.5498C9.78 17.4298 9.64 17.3498 9.5 17.2998C9.17 17.1898 8.86 17.1798 8.59 17.1598C8.28 17.1498 7.97 17.1398 7.7 16.9598C7.48443 16.8088 7.33711 16.5788 7.29 16.3198C7.27 16.3098 7.25 16.3098 7.23 16.2998C6.97 16.2298 6.68 16.1498 6.33 15.9598C5.81 15.6698 5.75 15.2798 5.75 15.0698C5.76 14.8698 5.84 14.4898 6.34 14.2598C7.55 13.6798 7.97 12.8698 8.1 12.5198C7.99 12.4498 7.86 12.3698 7.74 12.2898L7.43 12.0898C6.61 11.5198 6.75 10.8398 6.85 10.5798C7.01 10.1398 7.42 9.86982 7.93 9.86982C8.03 9.86982 8.12 9.87982 8.21 9.89982C8.23 9.89982 8.24 9.90982 8.26 9.90982C8.26 9.59982 8.26 9.32982 8.28 9.08982C8.38 8.01982 8.76 7.44982 9.13 7.02982C9.45 6.66982 10.36 5.81982 11.98 5.81982C13.09 5.81982 14.13 6.24982 14.82 6.99982C15.22 7.46982 15.59 8.02982 15.68 9.07982C15.7 9.35982 15.71 9.63982 15.71 9.89982H15.73C15.77 9.87982 15.9 9.85982 16.03 9.85982C16.54 9.85982 16.95 10.1398 17.11 10.5898C17.21 10.8398 17.35 11.5098 16.53 12.0898C16.47 12.1298 16.36 12.2098 16.22 12.2898C16.09 12.3698 15.97 12.4498 15.87 12.5198C16.01 12.8798 16.44 13.6798 17.64 14.2698C18.12 14.5298 18.22 14.8598 18.22 15.0998C18.22 15.3498 18.12 15.6998 17.64 15.9598C17.29 16.1498 16.99 16.2398 16.74 16.3098C16.72 16.3098 16.7 16.3198 16.67 16.3298C16.62 16.5398 16.53 16.7798 16.28 16.9498C15.99 17.1398 15.69 17.1498 15.39 17.1598C15.0717 17.1623 14.7552 17.2094 14.45 17.2998C14.33 17.3398 14.19 17.4298 14.02 17.5298C13.6 17.8098 13.01 18.1798 12 18.1798ZM8.69 15.6698C9.03 15.6898 9.47 15.7198 9.97 15.8798C10.27 15.9798 10.51 16.1198 10.77 16.2798C11.1 16.4898 11.41 16.6798 12 16.6798C12.58 16.6798 12.89 16.4898 13.24 16.2698C13.49 16.1198 13.73 15.9798 14.02 15.8798C14.56 15.7098 15.01 15.6798 15.32 15.6698C15.38 15.4798 15.51 15.2798 15.75 15.1198C15.83 15.0698 15.9 15.0298 15.99 14.9898C14.57 13.9098 14.37 12.6398 14.36 12.5698V12.5298C14.33 12.3398 14.3 11.9398 14.68 11.5698C14.5808 11.5257 14.4922 11.4609 14.42 11.3798C14.3 11.2598 14.17 11.0398 14.2 10.6898C14.22 10.2698 14.26 9.70982 14.22 9.20982C14.16 8.53982 13.96 8.25982 13.73 7.98982C13.51 7.74982 12.97 7.30982 12.02 7.30982C10.99 7.30982 10.44 7.83982 10.3 7.99982C10.08 8.24982 9.88 8.53982 9.82 9.19982C9.79 9.56982 9.79 10.0498 9.83 10.5998C9.84 10.6498 9.84 10.7098 9.84 10.7398C9.86 11.0298 9.73 11.2498 9.61 11.3698C9.53657 11.4495 9.44824 11.5141 9.35 11.5598C9.74 11.9298 9.7 12.3398 9.67 12.5298V12.5698C9.66 12.6298 9.46 13.8998 8.05 14.9798C8.13 15.0198 8.22 15.0598 8.3 15.1198C8.51 15.2798 8.63 15.4898 8.69 15.6698ZM17.31 15.3098L16.96 14.6498C16.96 14.6498 16.95 14.6498 16.95 14.6598L17.31 15.3098Z" fill="black"/>
<path d="M12 22.75C6.07 22.75 1.25 17.93 1.25 12C1.25 6.07 6.07 1.25 12 1.25C17.93 1.25 22.75 6.07 22.75 12C22.75 17.93 17.93 22.75 12 22.75ZM12 2.75C6.9 2.75 2.75 6.9 2.75 12C2.75 17.1 6.9 21.25 12 21.25C17.1 21.25 21.25 17.1 21.25 12C21.25 6.9 17.1 2.75 12 2.75Z" fill="black"/>
</svg>
