<svg width="24" height="24" viewBox="0 0 24 24" fill="none" xmlns="http://www.w3.org/2000/svg">
<path d="M16.19 2H7.81999C4.17999 2 2.00999 4.17 2.00999 7.81V16.18C2.00999 19.82 4.17999 21.99 7.81999 21.99H16.19C19.83 21.99 22 19.82 22 16.18V7.81C22 4.17 19.83 2 16.19 2ZM10.77 16.49C10.77 17.16 10.22 17.71 9.54999 17.71H7.09999C6.42999 17.71 5.87999 17.16 5.87999 16.49V7.51C5.87999 6.84 6.42999 6.29 7.09999 6.29H9.54999C10.22 6.29 10.77 6.84 10.77 7.51V16.49ZM18.12 12.65C18.12 13.19 17.68 13.63 17.14 13.63H14.2C13.66 13.63 13.22 13.19 13.22 12.65V7.26C13.22 6.72 13.66 6.28 14.2 6.28H17.14C17.68 6.28 18.12 6.72 18.12 7.26V12.65Z" fill="black"/>
</svg>
