<svg width="24" height="24" viewBox="0 0 24 24" fill="none" xmlns="http://www.w3.org/2000/svg">
<path opacity="0.4" d="M16.19 2H7.82C4.18 2 2.01 4.17 2.01 7.81V16.18C2.01 19.82 4.18 21.99 7.82 21.99H16.19C19.83 21.99 22 19.82 22 16.18V7.81C22 4.17 19.83 2 16.19 2Z" fill="black"/>
<path d="M9.55 17.7198H7.1C6.43 17.7198 5.88 17.1698 5.88 16.4998V7.51976C5.88 6.84976 6.43 6.29976 7.1 6.29976H9.55C10.22 6.29976 10.77 6.84976 10.77 7.51976V16.4998C10.77 17.1698 10.22 17.7198 9.55 17.7198ZM17.14 13.6308H14.2C13.66 13.6308 13.22 13.1908 13.22 12.6508V7.26076C13.22 6.72076 13.66 6.28076 14.2 6.28076H17.14C17.68 6.28076 18.12 6.72076 18.12 7.26076V12.6508C18.12 13.1908 17.68 13.6308 17.14 13.6308Z" fill="black"/>
</svg>
