<svg width="24" height="24" viewBox="0 0 24 24" fill="none" xmlns="http://www.w3.org/2000/svg">
<path d="M15 22H9C4 22 2 20 2 15V9C2 4 4 2 9 2H15C20 2 22 4 22 9V15C22 20 20 22 15 22Z" stroke="black" stroke-width="1.5" stroke-linecap="round" stroke-linejoin="round"/>
<path d="M9.55 17.72H7.1C6.43 17.72 5.88 17.17 5.88 16.5V7.51004C5.88 6.84004 6.43 6.29004 7.1 6.29004H9.55C10.22 6.29004 10.77 6.84004 10.77 7.51004V16.49C10.77 17.17 10.22 17.72 9.55 17.72ZM17.14 13.63H14.2C13.66 13.63 13.22 13.19 13.22 12.65V7.27004C13.22 6.73004 13.66 6.29004 14.2 6.29004H17.14C17.68 6.29004 18.12 6.73004 18.12 7.27004V12.66C18.13 13.19 17.68 13.63 17.14 13.63Z" stroke="black" stroke-width="1.5" stroke-miterlimit="10"/>
</svg>
