<svg width="24" height="24" viewBox="0 0 24 24" fill="none" xmlns="http://www.w3.org/2000/svg">
<path d="M15 22.75H9C3.57 22.75 1.25 20.43 1.25 15V9C1.25 3.57 3.57 1.25 9 1.25H15C20.43 1.25 22.75 3.57 22.75 9V15C22.75 20.43 20.43 22.75 15 22.75ZM9 2.75C4.39 2.75 2.75 4.39 2.75 9V15C2.75 19.61 4.39 21.25 9 21.25H15C19.61 21.25 21.25 19.61 21.25 15V9C21.25 4.39 19.61 2.75 15 2.75H9Z" fill="black"/>
<path d="M9.55 18.4708H7.1C6.01 18.4708 5.13 17.5808 5.13 16.4908V7.51076C5.13 6.42076 6.02 5.53076 7.1 5.53076H9.55C10.64 5.53076 11.53 6.42076 11.53 7.51076V16.4908C11.53 17.5808 10.64 18.4708 9.55 18.4708ZM7.1 7.03076C6.84 7.03076 6.63 7.25076 6.63 7.51076V16.4908C6.63 16.7508 6.85 16.9708 7.1 16.9708H9.55C9.81 16.9708 10.03 16.7508 10.03 16.4908V7.51076C10.03 7.25076 9.81 7.03076 9.55 7.03076H7.1ZM17.14 14.3808H14.2C13.24 14.3808 12.47 13.6008 12.47 12.6508V7.26076C12.47 6.30076 13.25 5.53076 14.2 5.53076H17.14C18.1 5.53076 18.87 6.31076 18.87 7.26076V12.6508C18.88 13.6108 18.1 14.3808 17.14 14.3808ZM14.21 7.03076C14.08 7.03076 13.98 7.14076 13.98 7.26076V12.6508C13.98 12.7808 14.09 12.8808 14.21 12.8808H17.15C17.28 12.8808 17.38 12.7708 17.38 12.6508V7.26076C17.38 7.13076 17.27 7.03076 17.15 7.03076H14.21Z" fill="black"/>
</svg>
