<svg width="24" height="24" viewBox="0 0 24 24" fill="none" xmlns="http://www.w3.org/2000/svg">
<path opacity="0.4" d="M12 22C17.523 22 22 17.523 22 12C22 6.477 17.523 2 12 2C6.477 2 2 6.477 2 12C2 17.523 6.477 22 12 22Z" fill="black"/>
<path d="M15.53 11.97C15.3889 11.8305 15.1984 11.7523 15 11.7523C14.8016 11.7523 14.6111 11.8305 14.47 11.97L12.75 13.69V8.5C12.75 8.09 12.41 7.75 12 7.75C11.59 7.75 11.25 8.09 11.25 8.5V13.69L9.53 11.97C9.38886 11.8305 9.19843 11.7523 9 11.7523C8.80157 11.7523 8.61114 11.8305 8.47 11.97C8.18 12.26 8.18 12.74 8.47 13.03L11.47 16.03C11.62 16.18 11.81 16.25 12 16.25C12.19 16.25 12.38 16.18 12.53 16.03L15.53 13.03C15.82 12.74 15.82 12.26 15.53 11.97Z" fill="black"/>
</svg>
