<svg width="24" height="24" viewBox="0 0 24 24" fill="none" xmlns="http://www.w3.org/2000/svg">
<path d="M21.14 9.89828H12.68V13.5683L14.25 11.9983C14.54 11.7083 15.02 11.7083 15.31 11.9983C15.6 12.2883 15.6 12.7683 15.31 13.0583L12.46 15.8983C12.17 16.1883 11.69 16.1883 11.4 15.8983L8.55 13.0583C8.47998 12.989 8.42446 12.9064 8.38669 12.8154C8.34892 12.7244 8.32965 12.6268 8.33 12.5283C8.33 12.3383 8.41 12.1483 8.56 11.9983C8.85 11.7083 9.33 11.7083 9.62 11.9983L11.18 13.5583V9.89828H2.86C2.38 9.89828 2 10.2783 2 10.7583C2 16.6483 6.11 20.7583 12 20.7583C17.89 20.7583 22 16.6483 22 10.7583C22 10.2783 21.62 9.89828 21.14 9.89828ZM12.68 3.98828C12.68 3.57828 12.34 3.23828 11.93 3.23828C11.52 3.23828 11.18 3.57828 11.18 3.98828V9.88828H12.68V3.98828Z" fill="black"/>
</svg>
