<svg width="24" height="24" viewBox="0 0 24 24" fill="none" xmlns="http://www.w3.org/2000/svg">
<path opacity="0.4" d="M22 10.7604C22 10.5323 21.9094 10.3136 21.7481 10.1523C21.5868 9.991 21.3681 9.90039 21.14 9.90039H2.86C2.38 9.90039 2 10.2804 2 10.7604C2 16.6504 6.11 20.7604 12 20.7604C17.89 20.7604 22 16.6404 22 10.7604Z" fill="black"/>
<path d="M12.46 15.9002L15.31 13.0602C15.6 12.7702 15.6 12.2902 15.31 12.0002C15.1689 11.8608 14.9784 11.7825 14.78 11.7825C14.5816 11.7825 14.3911 11.8608 14.25 12.0002L12.69 13.5602V3.99023C12.69 3.58023 12.35 3.24023 11.94 3.24023C11.53 3.24023 11.19 3.58023 11.19 3.99023V13.5602L9.62 12.0002C9.47886 11.8608 9.28843 11.7825 9.09 11.7825C8.89157 11.7825 8.70114 11.8608 8.56 12.0002C8.41 12.1502 8.34 12.3402 8.34 12.5302C8.34 12.7202 8.41 12.9102 8.56 13.0602L11.41 15.9002C11.7 16.2002 12.17 16.2002 12.46 15.9002Z" fill="black"/>
</svg>
