<svg width="24" height="24" viewBox="0 0 24 24" fill="none" xmlns="http://www.w3.org/2000/svg">
<path opacity="0.4" d="M16.19 2H7.82C4.18 2 2.01 4.17 2.01 7.81V16.18C2.01 19.82 4.18 21.99 7.82 21.99H16.19C19.83 21.99 22 19.82 22 16.18V7.81C22 4.17 19.83 2 16.19 2Z" fill="black"/>
<path d="M17.96 7.71901C17.55 7.71901 17.21 8.05901 17.21 8.46901V11.249H16.19C14.8 11.249 13.67 12.379 13.67 13.769C13.67 15.159 14.8 16.289 16.19 16.289H17.96C18.37 16.289 18.71 15.949 18.71 15.539V8.47901C18.71 8.04901 18.37 7.71901 17.96 7.71901ZM17.21 14.779H16.19C15.63 14.779 15.17 14.319 15.17 13.759C15.17 13.199 15.63 12.739 16.19 12.739H17.21V14.779ZM12.16 7.88001C12.0837 7.81775 11.9957 7.7714 11.9012 7.74369C11.8067 7.71597 11.7076 7.70746 11.6097 7.71864C11.5118 7.72982 11.4172 7.76048 11.3314 7.8088C11.2456 7.85713 11.1703 7.92214 11.11 8.00001L8.87 10.8L6.63 8.00001C6.50362 7.85446 6.32593 7.76332 6.13398 7.74559C5.94204 7.72787 5.75066 7.78493 5.59976 7.90487C5.44886 8.02482 5.3501 8.19839 5.32406 8.38938C5.29802 8.58038 5.34672 8.77405 5.46 8.93001L7.91 11.99L5.46 15.05C5.2 15.37 5.25 15.85 5.58 16.1C5.72 16.21 5.88 16.26 6.05 16.26C6.27 16.26 6.49 16.16 6.64 15.98L8.88 13.18L11.12 15.98C11.246 16.1345 11.4274 16.2336 11.6255 16.256C11.8236 16.2785 12.0227 16.2225 12.18 16.1C12.5 15.84 12.56 15.37 12.3 15.05L9.85 11.99L12.3 8.93001C12.4179 8.77119 12.4692 8.57266 12.4431 8.3766C12.4169 8.18054 12.3154 8.0024 12.16 7.88001Z" fill="black"/>
</svg>
