<svg width="24" height="24" viewBox="0 0 24 24" fill="none" xmlns="http://www.w3.org/2000/svg">
<path d="M15 22.75H9C3.57 22.75 1.25 20.43 1.25 15V9C1.25 3.57 3.57 1.25 9 1.25H15C20.43 1.25 22.75 3.57 22.75 9V15C22.75 20.43 20.43 22.75 15 22.75ZM9 2.75C4.39 2.75 2.75 4.39 2.75 9V15C2.75 19.61 4.39 21.25 9 21.25H15C19.61 21.25 21.25 19.61 21.25 15V9C21.25 4.39 19.61 2.75 15 2.75H9Z" fill="black"/>
<path d="M17.96 16.28H16.19C14.8 16.28 13.67 15.151 13.67 13.761C13.67 12.371 14.8 11.241 16.19 11.241H17.21V8.45996C17.21 8.04996 17.55 7.70996 17.96 7.70996C18.37 7.70996 18.71 8.04996 18.71 8.45996V15.52C18.71 15.95 18.37 16.28 17.96 16.28ZM16.19 12.75C15.63 12.75 15.17 13.21 15.17 13.77C15.17 14.33 15.63 14.791 16.19 14.791H17.21V12.761H16.19V12.751V12.75ZM11.689 16.279C11.469 16.279 11.249 16.179 11.099 15.999L5.449 8.93896C5.189 8.61896 5.239 8.13896 5.569 7.88896C5.889 7.62896 6.369 7.67896 6.619 8.00896L12.269 15.069C12.529 15.389 12.479 15.869 12.149 16.119C12.019 16.229 11.859 16.279 11.689 16.279Z" fill="black"/>
<path d="M6.04001 16.28C5.88001 16.28 5.71001 16.23 5.57001 16.12C5.41502 15.9966 5.31533 15.8167 5.29283 15.6198C5.27034 15.423 5.32686 15.2253 5.45001 15.07L11.1 8.01003C11.2264 7.86448 11.4041 7.77334 11.596 7.75561C11.788 7.73789 11.9793 7.79495 12.1302 7.91489C12.2811 8.03484 12.3799 8.2084 12.4059 8.3994C12.432 8.59039 12.3833 8.78407 12.27 8.94003L6.62001 16C6.55068 16.0874 6.4625 16.1579 6.36207 16.2064C6.26163 16.2549 6.15153 16.2801 6.04001 16.28Z" fill="black"/>
</svg>
