<svg width="24" height="24" viewBox="0 0 24 24" fill="none" xmlns="http://www.w3.org/2000/svg">
<path d="M7.5 16V8H9.5C10.6 8 11.5 8.9 11.5 10C11.5 11.1 10.6 12 9.5 12H7.5M16.5 11H15.25C14.9185 11 14.6005 11.1317 14.3661 11.3661C14.1317 11.6005 14 11.9185 14 12.25C14 12.5815 14.1317 12.8995 14.3661 13.1339C14.6005 13.3683 14.9185 13.5 15.25 13.5C15.5815 13.5 15.8995 13.6317 16.1339 13.8661C16.3683 14.1005 16.5 14.4185 16.5 14.75C16.5 15.0815 16.3683 15.3995 16.1339 15.6339C15.8995 15.8683 15.5815 16 15.25 16H14" stroke="black" stroke-width="1.5" stroke-miterlimit="10" stroke-linecap="round" stroke-linejoin="round"/>
<path d="M2 12.83V15C2 20 4 22 9 22H15C20 22 22 20 22 15V9C22 4 20 2 15 2H9C4 2 2 4 2 9" stroke="black" stroke-width="1.5" stroke-linecap="round" stroke-linejoin="round"/>
</svg>
