<svg width="24" height="24" viewBox="0 0 24 24" fill="none" xmlns="http://www.w3.org/2000/svg">
<path d="M8.78 7.672H14.2C15.4 7.672 16.37 8.752 16.37 9.842C16.37 11.042 15.4 12.012 14.2 12.012H8.78V7.672Z" stroke="black" stroke-width="1.5" stroke-miterlimit="10" stroke-linecap="round" stroke-linejoin="round"/>
<path d="M12.57 16.328V18.498M9.87 16.328V18.498M12.57 5.5V7.67M9.87 5.5V7.67M10.84 7.672H7.05M10.84 16.328H7.05M8.78 12H14.97C16.34 12 17.45 12.97 17.45 14.17C17.45 15.37 16.34 16.34 14.97 16.34H8.78V12Z" stroke="black" stroke-width="1.5" stroke-miterlimit="10" stroke-linecap="round" stroke-linejoin="round"/>
<path d="M4 6C2.75 7.67 2 9.75 2 12C2 17.52 6.48 22 12 22C17.52 22 22 17.52 22 12C22 6.48 17.52 2 12 2C10.57 2 9.2 2.3 7.97 2.85" stroke="black" stroke-width="1.5" stroke-linecap="round" stroke-linejoin="round"/>
</svg>
