<svg width="24" height="24" viewBox="0 0 24 24" fill="none" xmlns="http://www.w3.org/2000/svg">
<path d="M9 8.38H13.685C14.723 8.38 15.565 9.315 15.565 10.262C15.565 11.3 14.723 12.142 13.685 12.142H9V8.38Z" stroke="black" stroke-width="1.5" stroke-miterlimit="10" stroke-linecap="round" stroke-linejoin="round"/>
<path d="M12.277 15.88V17.762M9.935 15.88V17.762M12.277 6.5V8.38M9.935 6.5V8.38M10.777 8.38H7.5M10.777 15.88H7.5M9 12.13H14.354C15.542 12.13 16.5 12.973 16.5 14.012C16.5 15.05 15.542 15.892 14.354 15.892H9V12.13Z" stroke="black" stroke-width="1.5" stroke-miterlimit="10" stroke-linecap="round" stroke-linejoin="round"/>
<path d="M12 22C17.523 22 22 17.523 22 12C22 6.477 17.523 2 12 2C6.477 2 2 6.477 2 12C2 17.523 6.477 22 12 22Z" stroke="black" stroke-width="1.5" stroke-miterlimit="10"/>
</svg>
