<svg width="24" height="24" viewBox="0 0 24 24" fill="none" xmlns="http://www.w3.org/2000/svg">
<path d="M12 22.75C6.07 22.75 1.25 17.93 1.25 12C1.25 6.07 6.07 1.25 12 1.25C17.93 1.25 22.75 6.07 22.75 12C22.75 17.93 17.93 22.75 12 22.75ZM12 2.75C6.9 2.75 2.75 6.9 2.75 12C2.75 17.1 6.9 21.25 12 21.25C17.1 21.25 21.25 17.1 21.25 12C21.25 6.9 17.1 2.75 12 2.75Z" fill="black"/>
<path d="M14.2 12.752H8.78C8.37 12.752 8.03 12.412 8.03 12.002V7.672C8.03 7.262 8.37 6.922 8.78 6.922H14.2C15.75 6.922 17.12 8.282 17.12 9.842C17.12 11.442 15.81 12.752 14.2 12.752ZM9.53 11.252H14.2C14.98 11.252 15.62 10.612 15.62 9.832C15.62 9.172 15 8.412 14.2 8.412H9.53V11.252Z" fill="black"/>
<path d="M14.97 17.08H8.78C8.37 17.08 8.03 16.74 8.03 16.33V12C8.03 11.59 8.37 11.25 8.78 11.25H14.97C16.75 11.25 18.2 12.56 18.2 14.17C18.2 15.78 16.75 17.08 14.97 17.08ZM9.53 15.58H14.97C15.92 15.58 16.7 14.94 16.7 14.16C16.7 13.38 15.93 12.74 14.97 12.74H9.53V15.58Z" fill="black"/>
<path d="M12.57 19.248C12.16 19.248 11.82 18.908 11.82 18.498V16.328C11.82 15.918 12.16 15.578 12.57 15.578C12.98 15.578 13.32 15.918 13.32 16.328V18.498C13.32 18.908 12.99 19.248 12.57 19.248ZM9.87 19.248C9.46 19.248 9.12 18.908 9.12 18.498V16.328C9.12 15.918 9.46 15.578 9.87 15.578C10.28 15.578 10.62 15.918 10.62 16.328V18.498C10.62 18.908 10.28 19.248 9.87 19.248ZM12.57 8.42C12.16 8.42 11.82 8.08 11.82 7.67V5.5C11.82 5.09 12.16 4.75 12.57 4.75C12.98 4.75 13.32 5.09 13.32 5.5V7.67C13.32 8.08 12.99 8.42 12.57 8.42ZM9.87 8.42C9.46 8.42 9.12 8.08 9.12 7.67V5.5C9.12 5.09 9.46 4.75 9.87 4.75C10.28 4.75 10.62 5.09 10.62 5.5V7.67C10.62 8.08 10.28 8.42 9.87 8.42Z" fill="black"/>
<path d="M10.84 8.422H7.05C6.64 8.422 6.3 8.082 6.3 7.672C6.3 7.262 6.64 6.922 7.05 6.922H10.84C11.0389 6.922 11.2297 7.00101 11.3703 7.14167C11.511 7.28232 11.59 7.47308 11.59 7.672C11.59 7.87091 11.511 8.06167 11.3703 8.20233C11.2297 8.34298 11.0389 8.422 10.84 8.422ZM10.84 17.078H7.05C6.64 17.078 6.3 16.738 6.3 16.328C6.3 15.918 6.64 15.578 7.05 15.578H10.84C11.0389 15.578 11.2297 15.657 11.3703 15.7977C11.511 15.9383 11.59 16.1291 11.59 16.328C11.59 16.5269 11.511 16.7177 11.3703 16.8583C11.2297 16.999 11.0389 17.078 10.84 17.078Z" fill="black"/>
</svg>
