<svg width="24" height="24" viewBox="0 0 24 24" fill="none" xmlns="http://www.w3.org/2000/svg">
<path opacity="0.4" d="M7.81 2H16.18C19.83 2 22 4.17 22 7.81V16.18C22 19.82 19.83 21.99 16.19 21.99H7.81C4.17 22 2 19.83 2 16.19V7.81C2 4.17 4.17 2 7.81 2Z" fill="black"/>
<path d="M10.24 6.25C9.82 6.25 9.49 6.59 9.49 7V15.19L7.82 13.52C7.67886 13.3805 7.48843 13.3023 7.29 13.3023C7.09157 13.3023 6.90114 13.3805 6.76 13.52C6.47 13.81 6.47 14.29 6.76 14.58L9.71 17.53C9.85207 17.6684 10.0417 17.7471 10.24 17.75C10.34 17.75 10.43 17.73 10.53 17.69C10.71 17.61 10.86 17.47 10.94 17.28C10.98 17.19 11 17.09 11 16.99V7C10.9948 6.80099 10.9128 6.61171 10.7711 6.47187C10.6294 6.33204 10.4391 6.25252 10.24 6.25ZM17.24 9.42L14.29 6.47C14.2207 6.40214 14.1393 6.34787 14.05 6.31C13.9602 6.27044 13.8631 6.25001 13.765 6.25001C13.6669 6.25001 13.5698 6.27044 13.48 6.31C13.3 6.39 13.15 6.53 13.07 6.72C13.03 6.81 13.01 6.9 13.01 7V17C13.01 17.41 13.35 17.75 13.76 17.75C14.17 17.75 14.51 17.41 14.51 17V8.81L16.18 10.48C16.33 10.63 16.52 10.7 16.71 10.7C16.9 10.7 17.09 10.63 17.24 10.48C17.53 10.19 17.53 9.71 17.24 9.42Z" fill="black"/>
</svg>
