<svg width="24" height="24" viewBox="0 0 24 24" fill="none" xmlns="http://www.w3.org/2000/svg">
<path d="M9.01001 21.2502C8.82001 21.2502 8.63001 21.1802 8.48001 21.0302L3.47001 16.0202C3.33053 15.879 3.2523 15.6886 3.2523 15.4902C3.2523 15.2917 3.33053 15.1013 3.47001 14.9602C3.76001 14.6702 4.24001 14.6702 4.53001 14.9602L9.54001 19.9702C9.83001 20.2602 9.83001 20.7402 9.54001 21.0302C9.39001 21.1702 9.20001 21.2502 9.01001 21.2502Z" fill="black"/>
<path d="M9.01 21.25C8.6 21.25 8.26 20.91 8.26 20.5V3.5C8.26 3.09 8.6 2.75 9.01 2.75C9.42 2.75 9.76 3.09 9.76 3.5V20.5C9.76 20.91 9.42 21.25 9.01 21.25ZM20.01 9.26C19.82 9.26 19.63 9.19 19.48 9.04L14.47 4.03C14.3305 3.88886 14.2523 3.69843 14.2523 3.5C14.2523 3.30157 14.3305 3.11114 14.47 2.97C14.76 2.68 15.24 2.68 15.53 2.97L20.54 7.98C20.83 8.27 20.83 8.75 20.54 9.04C20.39 9.19 20.2 9.26 20.01 9.26Z" fill="black"/>
<path d="M14.99 21.25C14.58 21.25 14.24 20.91 14.24 20.5V3.5C14.24 3.09 14.58 2.75 14.99 2.75C15.4 2.75 15.74 3.09 15.74 3.5V20.5C15.74 20.91 15.41 21.25 14.99 21.25Z" fill="black"/>
</svg>
