<svg width="24" height="24" viewBox="0 0 24 24" fill="none" xmlns="http://www.w3.org/2000/svg">
<path d="M19.88 2.00001H4.11C3.51 2.00001 3.05 2.52001 3.12 3.11001L4.92 19.33C4.96 19.73 5.25 20.07 5.64 20.18L11.72 21.92C11.9 21.97 12.09 21.97 12.27 21.92L18.35 20.18C18.74 20.07 19.02 19.73 19.07 19.33L20.87 3.11001C20.8866 2.97038 20.8733 2.82882 20.8311 2.69471C20.7888 2.56059 20.7186 2.43698 20.625 2.33204C20.5314 2.22711 20.4166 2.14325 20.2882 2.08601C20.1597 2.02877 20.0206 1.99945 19.88 2.00001ZM16.25 7.50001H8.59L8.92 10.5H15.75C15.96 10.5 16.16 10.59 16.31 10.75C16.45 10.91 16.52 11.12 16.5 11.33L16 16.33C15.97 16.64 15.76 16.89 15.46 16.98L11.96 17.98C11.8228 18.0194 11.6772 18.0194 11.54 17.98L8.04 16.98C7.88421 16.9346 7.74737 16.8398 7.65 16.71C7.55263 16.5802 7.5 16.4223 7.5 16.26V14.26C7.5 13.85 7.84 13.51 8.25 13.51C8.66 13.51 9 13.85 9 14.26V15.69L11.75 16.48L14.55 15.68L14.92 12.01H8.25C7.87 12.01 7.55 11.72 7.5 11.34L7 6.84001C6.98 6.63001 7.04 6.42001 7.19 6.26001C7.26046 6.18123 7.34677 6.11824 7.44328 6.07515C7.53979 6.03207 7.64431 6.00987 7.75 6.01001H16.25C16.66 6.01001 17 6.35001 17 6.76001C17 7.17001 16.66 7.50001 16.25 7.50001Z" fill="black"/>
</svg>
