<svg width="24" height="24" viewBox="0 0 24 24" fill="none" xmlns="http://www.w3.org/2000/svg">
<path d="M3.32 4.91L3.12 3.11C3.05 2.52 3.52 2 4.11 2H19.88C20.48 2 20.94 2.52 20.87 3.11L19.07 19.33C19.03 19.73 18.74 20.07 18.35 20.18L12.27 21.92C12.09 21.97 11.9 21.97 11.72 21.92L5.64 20.18C5.44986 20.1245 5.28024 20.0144 5.15222 19.8632C5.0242 19.7121 4.94345 19.5267 4.92 19.33L3.82 9.41" stroke="black" stroke-width="1.5" stroke-miterlimit="10" stroke-linecap="round" stroke-linejoin="round"/>
<path d="M16.25 6.75H7.75L8.25 11.25H15.75L15.25 16.25L11.75 17.25L8.25 16.25V14.25" stroke="black" stroke-width="1.5" stroke-miterlimit="10" stroke-linecap="round" stroke-linejoin="round"/>
</svg>
