<svg width="24" height="24" viewBox="0 0 24 24" fill="none" xmlns="http://www.w3.org/2000/svg">
<path opacity="0.4" d="M4.12 2.00001H19.89C20.49 2.00001 20.95 2.52001 20.88 3.11001L19.08 19.33C19.04 19.73 18.75 20.07 18.36 20.18L12.28 21.92C12.1 21.97 11.91 21.97 11.73 21.92L5.65 20.18C5.45987 20.1245 5.29024 20.0144 5.16222 19.8632C5.0342 19.7121 4.95345 19.5267 4.93 19.33L3.13 3.11001C3.11343 2.97038 3.12671 2.82882 3.16894 2.69471C3.21118 2.56059 3.28142 2.43698 3.37501 2.33204C3.4686 2.22711 3.58341 2.14325 3.71184 2.08601C3.84027 2.02877 3.97939 1.99945 4.12 2.00001Z" fill="black"/>
<path d="M11.75 18C11.68 18 11.61 17.99 11.54 17.97L8.04 16.97C7.88421 16.9246 7.74737 16.8298 7.65 16.7C7.55263 16.5702 7.5 16.4123 7.5 16.25V14.25C7.5 13.84 7.84 13.5 8.25 13.5C8.66 13.5 9 13.84 9 14.25V15.68L11.75 16.47L14.55 15.67L14.92 12H8.25C7.87 12 7.55 11.71 7.5 11.33L7 6.83C6.98 6.62 7.04 6.41 7.19 6.25C7.26046 6.17123 7.34677 6.10823 7.44328 6.06515C7.53979 6.02206 7.64431 5.99986 7.75 6H16.25C16.66 6 17 6.34 17 6.75C17 7.16 16.66 7.5 16.25 7.5H8.59L8.92 10.5H15.75C15.96 10.5 16.16 10.59 16.31 10.75C16.45 10.91 16.52 11.12 16.5 11.33L16 16.33C15.97 16.64 15.76 16.89 15.46 16.98L11.96 17.98C11.89 17.99 11.82 18 11.75 18Z" fill="black"/>
</svg>
