<svg width="24" height="24" viewBox="0 0 24 24" fill="none" xmlns="http://www.w3.org/2000/svg">
<path d="M12 22.71C11.84 22.71 11.68 22.69 11.52 22.64L5.44 20.9C4.75 20.7 4.26 20.12 4.18 19.41L2.38 3.19C2.35346 2.94561 2.37868 2.69838 2.45402 2.46438C2.52936 2.23038 2.65312 2.01487 2.81726 1.83187C2.98139 1.64887 3.18222 1.50248 3.40667 1.40223C3.63112 1.30198 3.87417 1.25011 4.12 1.25H19.89C20.39 1.25 20.86 1.46 21.19 1.83C21.52 2.2 21.68 2.7 21.63 3.19L19.83 19.41C19.75 20.12 19.26 20.7 18.57 20.9L12.49 22.64C12.32 22.69 12.16 22.71 12 22.71ZM4.12 2.75C4.02 2.75 3.96 2.8 3.93 2.83C3.90697 2.85553 3.8897 2.8857 3.87935 2.91848C3.869 2.95126 3.86581 2.98588 3.87 3.02L5.67 19.24C5.68 19.34 5.75 19.43 5.85 19.45L11.93 21.19C11.97 21.2 12.02 21.2 12.07 21.19L18.15 19.45C18.25 19.42 18.32 19.34 18.33 19.24L20.13 3.02C20.14 2.92 20.09 2.86 20.07 2.83C20.0455 2.80442 20.0159 2.78412 19.9833 2.77036C19.9506 2.75661 19.9154 2.74968 19.88 2.75H4.12Z" fill="black"/>
<path d="M11.75 18C11.68 18 11.61 17.99 11.54 17.97L8.04 16.97C7.88421 16.9246 7.74737 16.8298 7.65 16.7C7.55263 16.5702 7.5 16.4123 7.5 16.25V14.25C7.5 13.84 7.84 13.5 8.25 13.5C8.66 13.5 9 13.84 9 14.25V15.68L11.75 16.47L14.55 15.67L14.92 12H8.25C7.87 12 7.55 11.71 7.5 11.33L7 6.83C6.98 6.62 7.04 6.41 7.19 6.25C7.26046 6.17123 7.34677 6.10823 7.44328 6.06515C7.53979 6.02206 7.64431 5.99986 7.75 6H16.25C16.66 6 17 6.34 17 6.75C17 7.16 16.66 7.5 16.25 7.5H8.59L8.92 10.5H15.75C15.96 10.5 16.16 10.59 16.31 10.75C16.45 10.91 16.52 11.12 16.5 11.33L16 16.33C15.97 16.64 15.76 16.89 15.46 16.98L11.96 17.98C11.89 17.99 11.82 18 11.75 18Z" fill="black"/>
</svg>
