<svg width="24" height="24" viewBox="0 0 24 24" fill="none" xmlns="http://www.w3.org/2000/svg">
<path d="M13.5 21.25H3.94C3.71 21.25 3.49 21.14 3.35 20.96C3.21 20.78 3.16 20.54 3.21 20.32L4.27 16.07C4.3103 15.907 4.40415 15.7622 4.53651 15.6589C4.66886 15.5555 4.83208 15.4996 5 15.5H12.44C15.34 15.5 17 13.84 17 10.94V10.75C17 9.15 16.35 8.5 14.75 8.5H6.06C5.94628 8.49952 5.83415 8.47333 5.73198 8.42338C5.62982 8.37343 5.54028 8.30102 5.47007 8.21156C5.39985 8.12211 5.35078 8.01794 5.32652 7.90683C5.30227 7.79573 5.30346 7.68058 5.33 7.57L6.39 3.32C6.4303 3.15698 6.52415 3.01221 6.65651 2.90886C6.78886 2.80551 6.95208 2.74957 7.12 2.75H16C20.16 2.75 22.75 5.34 22.75 9.5V12C22.75 17.71 19.21 21.25 13.5 21.25ZM4.9 19.75H13.5C18.35 19.75 21.25 16.85 21.25 12V9.5C21.25 6.16 19.34 4.25 16 4.25H7.71L7.02 7H14.75C17.17 7 18.5 8.33 18.5 10.75V10.94C18.5 14.68 16.18 17 12.44 17H5.59L4.9 19.75Z" fill="black"/>
<path d="M9.19 14.252H2C1.77 14.252 1.55 14.142 1.41 13.962C1.27 13.782 1.22 13.542 1.27 13.322L1.64 11.842C1.78782 11.2464 2.13132 10.7176 2.61545 10.3404C3.09958 9.9633 3.69631 9.75959 4.31 9.76198H11.5C11.73 9.76198 11.95 9.87198 12.09 10.052C12.23 10.232 12.28 10.472 12.23 10.692L11.86 12.172C11.709 12.7659 11.3647 13.2927 10.8812 13.6693C10.3978 14.0459 9.80281 14.2509 9.19 14.252ZM2.96 12.752H9.19C9.76 12.752 10.26 12.362 10.4 11.802L10.54 11.252H4.31C3.74 11.252 3.24 11.642 3.1 12.202L2.96 12.752Z" fill="black"/>
</svg>
