<svg width="24" height="24" viewBox="0 0 24 24" fill="none" xmlns="http://www.w3.org/2000/svg">
<path d="M12.75 15.9199H13.4C14.05 15.9199 14.59 15.3399 14.59 14.6399C14.59 13.7699 14.28 13.5999 13.77 13.4199L12.76 13.0699V15.9199H12.75Z" fill="black"/>
<path d="M11.97 1.89797C6.45 1.91797 1.98 6.40797 2 11.928C2.02 17.448 6.51 21.918 12.03 21.898C17.55 21.878 22.02 17.388 22 11.868C21.98 6.34797 17.49 1.88797 11.97 1.89797ZM14.26 11.998C15.04 12.268 16.09 12.848 16.09 14.638C16.09 16.178 14.88 17.418 13.4 17.418H12.75V17.998C12.75 18.408 12.41 18.748 12 18.748C11.59 18.748 11.25 18.408 11.25 17.998V17.418H10.89C9.25 17.418 7.92 16.038 7.92 14.338C7.92 13.928 8.26 13.588 8.67 13.588C9.08 13.588 9.42 13.928 9.42 14.338C9.42 15.208 10.08 15.918 10.89 15.918H11.25V12.538L9.74 11.998C8.96 11.728 7.91 11.148 7.91 9.35797C7.91 7.81797 9.12 6.57797 10.6 6.57797H11.25V5.99797C11.25 5.58797 11.59 5.24797 12 5.24797C12.41 5.24797 12.75 5.58797 12.75 5.99797V6.57797H13.11C14.75 6.57797 16.08 7.95797 16.08 9.65797C16.08 10.068 15.74 10.408 15.33 10.408C14.92 10.408 14.58 10.068 14.58 9.65797C14.58 8.78797 13.92 8.07797 13.11 8.07797H12.75V11.458L14.26 11.998Z" fill="black"/>
<path d="M9.422 9.368C9.422 10.238 9.732 10.408 10.242 10.588L11.252 10.938V8.078H10.602C9.952 8.078 9.422 8.658 9.422 9.368Z" fill="black"/>
</svg>
