<svg width="24" height="24" viewBox="0 0 24 24" fill="none" xmlns="http://www.w3.org/2000/svg">
<path d="M13.4 17.418H10.89C9.25 17.418 7.92 16.038 7.92 14.338C7.92 13.928 8.26 13.588 8.67 13.588C9.08 13.588 9.42 13.928 9.42 14.338C9.42 15.208 10.08 15.918 10.89 15.918H13.4C14.05 15.918 14.59 15.338 14.59 14.638C14.59 13.768 14.28 13.598 13.77 13.418L9.74 11.998C8.96 11.728 7.91 11.148 7.91 9.358C7.91 7.818 9.12 6.578 10.6 6.578H13.11C14.75 6.578 16.08 7.958 16.08 9.658C16.08 10.068 15.74 10.408 15.33 10.408C14.92 10.408 14.58 10.068 14.58 9.658C14.58 8.788 13.92 8.078 13.11 8.078H10.6C9.95 8.078 9.41 8.658 9.41 9.358C9.41 10.228 9.72 10.398 10.23 10.578L14.26 11.998C15.04 12.268 16.09 12.848 16.09 14.638C16.08 16.168 14.88 17.418 13.4 17.418Z" fill="black"/>
<path d="M12 18.75C11.59 18.75 11.25 18.41 11.25 18V6C11.25 5.59 11.59 5.25 12 5.25C12.41 5.25 12.75 5.59 12.75 6V18C12.75 18.41 12.41 18.75 12 18.75Z" fill="black"/>
<path d="M12 22.75C6.07 22.75 1.25 17.93 1.25 12C1.25 6.07 6.07 1.25 12 1.25C17.93 1.25 22.75 6.07 22.75 12C22.75 17.93 17.93 22.75 12 22.75ZM12 2.75C6.9 2.75 2.75 6.9 2.75 12C2.75 17.1 6.9 21.25 12 21.25C17.1 21.25 21.25 17.1 21.25 12C21.25 6.9 17.1 2.75 12 2.75Z" fill="black"/>
</svg>
