<svg width="24" height="24" viewBox="0 0 24 24" fill="none" xmlns="http://www.w3.org/2000/svg">
<path d="M12 22.75C6.07 22.75 1.25 17.93 1.25 12C1.25 6.07 6.07 1.25 12 1.25C17.93 1.25 22.75 6.07 22.75 12C22.75 17.93 17.93 22.75 12 22.75ZM12 2.75C6.9 2.75 2.75 6.9 2.75 12C2.75 17.1 6.9 21.25 12 21.25C17.1 21.25 21.25 17.1 21.25 12C21.25 6.9 17.1 2.75 12 2.75Z" fill="black"/>
<path d="M10.74 16.2802C10.55 16.2802 10.36 16.2102 10.21 16.0602C10.0705 15.919 9.99229 15.7286 9.99229 15.5302C9.99229 15.3317 10.0705 15.1413 10.21 15.0002L13.21 12.0002L10.21 9.00016C10.0705 8.85902 9.99229 8.66859 9.99229 8.47016C9.99229 8.27173 10.0705 8.08129 10.21 7.94016C10.5 7.65016 10.98 7.65016 11.27 7.94016L14.8 11.4702C15.09 11.7602 15.09 12.2402 14.8 12.5302L11.27 16.0602C11.12 16.2102 10.93 16.2802 10.74 16.2802Z" fill="black"/>
</svg>
