<svg width="24" height="24" viewBox="0 0 24 24" fill="none" xmlns="http://www.w3.org/2000/svg">
<path opacity="0.4" d="M16.19 2H7.81C4.17 2 2 4.17 2 7.81V16.18C2 19.83 4.17 22 7.81 22H16.18C19.82 22 21.99 19.83 21.99 16.19V7.81C22 4.17 19.83 2 16.19 2Z" fill="black"/>
<path d="M18.69 5.71C18.6109 5.52584 18.4642 5.37908 18.28 5.3C18.1901 5.26805 18.0954 5.25116 18 5.25H14C13.59 5.25 13.25 5.59 13.25 6C13.25 6.41 13.59 6.75 14 6.75H16.19L12.47 10.47C12.18 10.76 12.18 11.24 12.47 11.53C12.62 11.68 12.81 11.75 13 11.75C13.19 11.75 13.38 11.68 13.53 11.53L17.25 7.81V10C17.25 10.41 17.59 10.75 18 10.75C18.41 10.75 18.75 10.41 18.75 10V6C18.75 5.9 18.73 5.81 18.69 5.71ZM11.53 12.471C11.3889 12.3315 11.1984 12.2533 11 12.2533C10.8016 12.2533 10.6111 12.3315 10.47 12.471L6.75 16.191V14.001C6.75 13.591 6.41 13.251 6 13.251C5.59 13.251 5.25 13.591 5.25 14.001V18.001C5.25 18.101 5.27 18.191 5.31 18.291C5.39 18.471 5.53 18.621 5.72 18.701C5.8 18.731 5.9 18.751 6 18.751H10C10.41 18.751 10.75 18.411 10.75 18.001C10.75 17.591 10.41 17.251 10 17.251H7.81L11.53 13.531C11.82 13.241 11.82 12.761 11.53 12.471Z" fill="black"/>
</svg>
