<svg width="24" height="24" viewBox="0 0 24 24" fill="none" xmlns="http://www.w3.org/2000/svg">
<path d="M21 9.75C20.59 9.75 20.25 9.41 20.25 9V3.75H15C14.59 3.75 14.25 3.41 14.25 3C14.25 2.59 14.59 2.25 15 2.25H21C21.41 2.25 21.75 2.59 21.75 3V9C21.75 9.41 21.41 9.75 21 9.75ZM9 21.75H3C2.59 21.75 2.25 21.41 2.25 21V15C2.25 14.59 2.59 14.25 3 14.25C3.41 14.25 3.75 14.59 3.75 15V20.25H9C9.41 20.25 9.75 20.59 9.75 21C9.75 21.41 9.41 21.75 9 21.75Z" fill="black"/>
<path d="M13.5 11.2514C13.31 11.2514 13.12 11.1814 12.97 11.0314C12.8305 10.8903 12.7523 10.6998 12.7523 10.5014C12.7523 10.303 12.8305 10.1125 12.97 9.97141L20.47 2.47141C20.76 2.18141 21.24 2.18141 21.53 2.47141C21.82 2.76141 21.82 3.24141 21.53 3.53141L14.03 11.0314C13.88 11.1814 13.69 11.2514 13.5 11.2514ZM3 21.7514C2.81 21.7514 2.62 21.6814 2.47 21.5314C2.33052 21.3903 2.2523 21.1998 2.2523 21.0014C2.2523 20.803 2.33052 20.6125 2.47 20.4714L9.97 12.9714C10.26 12.6814 10.74 12.6814 11.03 12.9714C11.32 13.2614 11.32 13.7414 11.03 14.0314L3.53 21.5314C3.38 21.6814 3.19 21.7514 3 21.7514Z" fill="black"/>
</svg>
