<svg width="24" height="24" viewBox="0 0 24 24" fill="none" xmlns="http://www.w3.org/2000/svg">
<path opacity="0.4" d="M16.19 2H7.81C4.17 2 2 4.17 2 7.81V16.18C2 19.83 4.17 22 7.81 22H16.18C19.82 22 21.99 19.83 21.99 16.19V7.81C22 4.17 19.83 2 16.19 2Z" fill="black"/>
<path d="M16.747 7H11.917C11.507 7 11.167 7.34 11.167 7.75C11.167 8.16 11.507 8.5 11.917 8.5H14.937L7.217 16.22C6.927 16.51 6.927 16.99 7.217 17.28C7.367 17.43 7.557 17.5 7.747 17.5C7.937 17.5 8.127 17.43 8.277 17.28L15.997 9.56V12.58C15.997 12.99 16.337 13.33 16.747 13.33C17.157 13.33 17.497 12.99 17.497 12.58V7.75C17.497 7.34 17.157 7 16.747 7Z" fill="black"/>
</svg>
