<svg width="24" height="24" viewBox="0 0 24 24" fill="none" xmlns="http://www.w3.org/2000/svg">
<path d="M12.64 8.46899C13.44 8.67899 14.09 9.32899 14.29 10.129C14.57 11.229 14.08 12.249 13.24 12.769V14.749C13.24 15.0805 13.1083 15.3985 12.8739 15.6329C12.6395 15.8673 12.3215 15.999 11.99 15.999C11.6585 15.999 11.3405 15.8673 11.1061 15.6329C10.8717 15.3985 10.74 15.0805 10.74 14.749V12.769C10.3949 12.5568 10.1098 12.2597 9.91202 11.9061C9.71422 11.5525 9.61024 11.1542 9.61 10.749" stroke="black" stroke-width="1.5" stroke-miterlimit="10" stroke-linecap="round" stroke-linejoin="round"/>
<path d="M21.55 9.03C20.28 4.96 16.49 2 12 2C7.89 2 4.36 4.48 2.82 8.02C2.27551 9.27605 1.99634 10.631 2 12C2 17.52 6.48 22 12 22C16.47 22 20.26 19.06 21.54 15.01" stroke="black" stroke-width="1.5" stroke-miterlimit="10" stroke-linecap="round" stroke-linejoin="round"/>
</svg>
