<svg width="24" height="24" viewBox="0 0 24 24" fill="none" xmlns="http://www.w3.org/2000/svg">
<path d="M14.3 10.129C14.58 11.229 14.09 12.249 13.25 12.769V14.749C13.25 15.0805 13.1183 15.3985 12.8839 15.6329C12.6495 15.8673 12.3315 15.999 12 15.999C11.6685 15.999 11.3505 15.8673 11.1161 15.6329C10.8817 15.3985 10.75 15.0805 10.75 14.749V12.769C10.4049 12.5568 10.1198 12.2597 9.92202 11.9061C9.72421 11.5525 9.62024 11.1542 9.62 10.749C9.62 9.22902 11.06 8.04902 12.64 8.46902C13.44 8.67902 14.09 9.32902 14.3 10.129Z" fill="black"/>
<path opacity="0.4" d="M12 22.75C6.07 22.75 1.25 17.93 1.25 12C1.25 6.07 6.07 1.25 12 1.25C16.74 1.25 20.86 4.29 22.27 8.8C22.39 9.2 22.17 9.62 21.78 9.74C21.38 9.86 20.96 9.64 20.84 9.25C20.2598 7.36288 19.0883 5.71228 17.4984 4.54188C15.9084 3.37147 13.9843 2.74326 12.01 2.75C6.91 2.75 2.76 6.9 2.76 12C2.76 17.1 6.91 21.25 12.01 21.25C13.979 21.2574 15.8984 20.6328 17.486 19.4682C19.0736 18.3036 20.2457 16.6603 20.83 14.78C20.95 14.38 21.37 14.17 21.77 14.29C22.17 14.41 22.38 14.84 22.26 15.23C20.84 19.73 16.72 22.75 12 22.75Z" fill="black"/>
</svg>
