<svg width="24" height="24" viewBox="0 0 24 24" fill="none" xmlns="http://www.w3.org/2000/svg">
<path d="M12 16.75C10.9 16.75 10 15.85 10 14.75V13.15C9.63907 12.8519 9.35007 12.4761 9.15451 12.0508C8.95896 11.6254 8.86189 11.1614 8.87054 10.6933C8.87919 10.2252 8.99334 9.76516 9.20448 9.34731C9.41561 8.92947 9.7183 8.56465 10.09 8.28003C10.87 7.68003 11.87 7.48003 12.84 7.74003C13.9 8.02003 14.76 8.88003 15.03 9.94003C15.34 11.15 14.93 12.39 14 13.15V14.75C14 15.85 13.1 16.75 12 16.75ZM12 9.13003C11.5708 9.13161 11.1597 9.3028 10.8562 9.60626C10.5528 9.90973 10.3816 10.3209 10.38 10.75C10.38 11.32 10.67 11.83 11.15 12.13L11.51 12.35V14.75C11.51 15.03 11.73 15.25 12.01 15.25C12.29 15.25 12.51 15.03 12.51 14.75V12.35L12.87 12.13C13.49 11.75 13.77 11.03 13.59 10.31C13.5148 10.0431 13.3723 9.79992 13.1762 9.60382C12.9801 9.40771 12.7369 9.26523 12.47 9.19003C12.3 9.15003 12.15 9.13003 12 9.13003Z" fill="black"/>
<path d="M12 22.75C6.07 22.75 1.25 17.93 1.25 12C1.25 6.07 6.07 1.25 12 1.25C16.74 1.25 20.86 4.29 22.27 8.8C22.39 9.2 22.17 9.62 21.78 9.74C21.38 9.86 20.96 9.64 20.84 9.25C20.2598 7.36288 19.0883 5.71228 17.4984 4.54188C15.9084 3.37147 13.9843 2.74326 12.01 2.75C6.91 2.75 2.76 6.9 2.76 12C2.76 17.1 6.91 21.25 12.01 21.25C13.979 21.2574 15.8984 20.6328 17.486 19.4682C19.0736 18.3036 20.2457 16.6603 20.83 14.78C20.95 14.38 21.37 14.17 21.77 14.29C22.17 14.41 22.38 14.84 22.26 15.23C20.84 19.73 16.72 22.75 12 22.75Z" fill="black"/>
</svg>
