<svg width="24" height="24" viewBox="0 0 24 24" fill="none" xmlns="http://www.w3.org/2000/svg">
<path opacity="0.4" d="M14.3 10.129C14.58 11.229 14.09 12.249 13.25 12.769V14.749C13.25 15.0805 13.1183 15.3985 12.8839 15.6329C12.6495 15.8673 12.3315 15.999 12 15.999C11.6685 15.999 11.3505 15.8673 11.1161 15.6329C10.8817 15.3985 10.75 15.0805 10.75 14.749V12.769C10.4049 12.5568 10.1198 12.2597 9.92202 11.9061C9.72421 11.5525 9.62024 11.1542 9.62 10.749C9.62 9.22902 11.06 8.04902 12.64 8.46902C13.44 8.67902 14.09 9.32902 14.3 10.129Z" stroke="black" stroke-width="1.5" stroke-miterlimit="10"/>
<path d="M21.55 9.03C20.28 4.96 16.49 2 12 2C6.48 2 2 6.48 2 12C2 17.52 6.48 22 12 22C16.47 22 20.26 19.06 21.54 15.01" stroke="black" stroke-width="1.5" stroke-miterlimit="10" stroke-linecap="round" stroke-linejoin="round"/>
</svg>
