<svg width="24" height="24" viewBox="0 0 24 24" fill="none" xmlns="http://www.w3.org/2000/svg">
<path d="M12 2C6.48 2 2 6.48 2 12C2 17.52 6.48 22 12 22C17.52 22 22 17.52 22 12C22 6.48 17.52 2 12 2ZM10.72 15.41C10.39 15.94 9.81 16.26 9.18 16.26H6.44C6.36024 16.2606 6.28177 16.2399 6.21261 16.2002C6.14346 16.1605 6.0861 16.1031 6.04642 16.0339C6.00674 15.9647 5.98616 15.8862 5.98679 15.8065C5.98742 15.7267 6.00923 15.6486 6.05 15.58L11.66 5.97C11.82 5.69 12.22 5.67 12.41 5.93L13.97 8.02C14.42 8.62 14.45 9.43 14.06 10.07L10.72 15.41ZM17.55 16.26H13.71C13.36 16.26 13.14 15.88 13.32 15.57L15.24 12.37C15.42 12.08 15.84 12.08 16.02 12.37L17.94 15.57C18.12 15.87 17.9 16.26 17.55 16.26Z" fill="black"/>
</svg>
