<svg width="24" height="24" viewBox="0 0 24 24" fill="none" xmlns="http://www.w3.org/2000/svg">
<path d="M6.1 15.6L11.7 6C11.9 5.7 12.3 5.7 12.5 6L14 8C14.4 8.6 14.5 9.4 14.1 10L10.8 15.3C10.5 15.8 9.9 16.2 9.3 16.2H6.4C6.1 16.3 5.9 15.9 6.1 15.6ZM15.2 12.4L13.3 15.6C13.1 15.9 13.3 16.3 13.7 16.3H17.5C17.9 16.3 18.1 15.9 17.9 15.6L16 12.4C15.8 12.1 15.4 12.1 15.2 12.4Z" stroke="black" stroke-width="1.5" stroke-miterlimit="10" stroke-linecap="round" stroke-linejoin="round"/>
<path d="M12 22C17.523 22 22 17.523 22 12C22 6.477 17.523 2 12 2C6.477 2 2 6.477 2 12C2 17.523 6.477 22 12 22Z" stroke="black" stroke-width="1.5" stroke-miterlimit="10"/>
</svg>
