<svg width="24" height="24" viewBox="0 0 24 24" fill="none" xmlns="http://www.w3.org/2000/svg">
<path d="M9.19 17.011H6.45C6.02 17.011 5.62 16.781 5.41 16.411C5.30666 16.2261 5.2524 16.0178 5.2524 15.806C5.2524 15.5942 5.30666 15.3859 5.41 15.201L11.01 5.591C11.21 5.241 11.58 5.021 11.98 4.991C12.38 4.961 12.77 5.151 13.01 5.471L14.58 7.561C15.21 8.401 15.26 9.561 14.7 10.461L11.36 15.811C10.89 16.561 10.08 17.011 9.19 17.011ZM6.96 15.511H9.18C9.55 15.511 9.89 15.321 10.08 15.011L13.42 9.661C13.65 9.291 13.63 8.811 13.37 8.461L12.07 6.731L6.96 15.511ZM17.55 17.009H13.71C13.28 17.009 12.88 16.779 12.66 16.399C12.45 16.019 12.45 15.559 12.67 15.189L14.59 11.989C15.03 11.259 16.21 11.259 16.65 11.989L18.57 15.189C18.79 15.559 18.8 16.029 18.58 16.399C18.39 16.769 17.98 17.009 17.55 17.009ZM14.24 15.509H17.03L15.63 13.179L14.24 15.509Z" fill="black"/>
<path d="M12 22.75C6.07 22.75 1.25 17.93 1.25 12C1.25 6.07 6.07 1.25 12 1.25C17.93 1.25 22.75 6.07 22.75 12C22.75 17.93 17.93 22.75 12 22.75ZM12 2.75C6.9 2.75 2.75 6.9 2.75 12C2.75 17.1 6.9 21.25 12 21.25C17.1 21.25 21.25 17.1 21.25 12C21.25 6.9 17.1 2.75 12 2.75Z" fill="black"/>
</svg>
