<svg width="24" height="24" viewBox="0 0 24 24" fill="none" xmlns="http://www.w3.org/2000/svg">
<path d="M7.93 5.48104L11.06 8.61104C11.58 9.13104 12.43 9.13104 12.95 8.61104L16.08 5.48104C16.92 4.64104 16.33 3.19104 15.13 3.19104H8.87C7.68 3.19104 7.08 4.64104 7.93 5.48104ZM7.93 18.52L11.06 15.39C11.3111 15.1403 11.6508 15.0001 12.005 15.0001C12.3592 15.0001 12.6989 15.1403 12.95 15.39L16.08 18.52C16.92 19.36 16.33 20.81 15.13 20.81H8.87C7.68 20.81 7.08 19.36 7.93 18.52ZM2.16 11.43L4.45 7.83004C4.81 7.26004 5.61 7.17004 6.09 7.65004L9.69 11.25C10.1 11.66 10.1 12.33 9.69 12.74L6.09 16.34C5.61 16.82 4.82 16.73 4.45 16.16L2.16 12.56C1.95 12.22 1.95 11.78 2.16 11.43ZM21.84 11.43L19.55 7.83004C19.19 7.26004 18.39 7.17004 17.91 7.65004L14.31 11.25C13.9 11.66 13.9 12.33 14.31 12.74L17.91 16.34C18.39 16.82 19.18 16.73 19.55 16.16L21.84 12.56C22.05 12.22 22.05 11.78 21.84 11.43Z" fill="black"/>
</svg>
