<svg width="24" height="24" viewBox="0 0 24 24" fill="none" xmlns="http://www.w3.org/2000/svg">
<path d="M8.50001 5.09998L11.2 7.79998C11.6 8.19998 12.4 8.19998 12.8 7.79998L15.5 5.09998C16.2 4.39998 15.7 3.09998 14.7 3.09998H9.30001C8.30001 3.19998 7.80001 4.39998 8.50001 5.09998ZM8.50001 18.9L11.2 16.2C11.6 15.8 12.4 15.8 12.8 16.2L15.5 18.9C16.2 19.6 15.7 20.9 14.7 20.9H9.30001C8.30001 20.8 7.80001 19.6 8.50001 18.9ZM2.20001 11.5L4.40001 7.99998C4.70001 7.39998 5.50001 7.29998 6.00001 7.79998L9.50001 11.3C9.90001 11.7 9.90001 12.3 9.50001 12.7L6.00001 16.2C5.50001 16.7 4.80001 16.6 4.40001 16L2.20001 12.5C1.90001 12.2 1.90001 11.8 2.20001 11.5ZM21.8 11.5L19.6 7.99998C19.3 7.49998 18.5 7.39998 18 7.79998L14.5 11.3C14.1 11.7 14.1 12.3 14.5 12.7L18 16.2C18.5 16.7 19.2 16.6 19.6 16L21.8 12.5C22.1 12.2 22.1 11.8 21.8 11.5Z" stroke="black" stroke-width="1.5" stroke-miterlimit="10" stroke-linecap="round" stroke-linejoin="round"/>
</svg>
