<svg width="24" height="24" viewBox="0 0 24 24" fill="none" xmlns="http://www.w3.org/2000/svg">
<path d="M12 8.90995C11.51 8.90995 11.03 8.72995 10.66 8.35995L7.98999 5.68995C7.72356 5.4248 7.54223 5.08623 7.4692 4.7175C7.39617 4.34877 7.43474 3.96664 7.57999 3.61995C7.86999 2.90995 8.55999 2.44995 9.32999 2.44995H14.68C15.45 2.44995 16.14 2.90995 16.43 3.61995C16.72 4.32995 16.56 5.13995 16.02 5.68995L13.35 8.35995C12.97 8.71995 12.49 8.90995 12 8.90995ZM9.04999 4.61995L11.72 7.28995C11.87 7.43995 12.12 7.43995 12.28 7.28995L14.95 4.61995C15.0087 4.567 15.0483 4.49621 15.0628 4.41849C15.0772 4.34078 15.0657 4.26047 15.03 4.18995C14.99 4.11995 14.9 3.94995 14.67 3.94995H9.31999C9.07999 3.94995 8.98999 4.11995 8.95999 4.18995C8.92999 4.25995 8.87999 4.44995 9.04999 4.61995ZM14.67 21.5599H9.31999C8.54999 21.5599 7.85999 21.0999 7.56999 20.3899C7.27999 19.6799 7.43999 18.87 7.97999 18.32L10.65 15.65C11.37 14.93 12.61 14.93 13.33 15.65L16 18.32C16.54 18.86 16.71 19.6799 16.41 20.3899C16.2712 20.7373 16.031 21.0348 15.7206 21.2435C15.4102 21.4522 15.044 21.5625 14.67 21.5599ZM9.04999 19.3799C8.9913 19.4329 8.95166 19.5037 8.9372 19.5814C8.92275 19.6591 8.93427 19.7394 8.96999 19.8099C9.00999 19.8799 9.09999 20.0499 9.32999 20.0499H14.68C14.92 20.0499 15.01 19.8799 15.04 19.8099C15.07 19.7399 15.12 19.5499 14.96 19.3799L12.29 16.71C12.2146 16.6378 12.1143 16.5976 12.01 16.5976C11.9057 16.5976 11.8054 16.6378 11.73 16.71L9.04999 19.3799ZM5.22999 17.25C5.16999 17.25 5.09999 17.25 5.02999 17.24C4.48999 17.18 4.01999 16.89 3.72999 16.43L1.51999 12.95C1.14999 12.37 1.14999 11.63 1.51999 11.05L3.72999 7.56995C3.87124 7.34574 4.06129 7.15632 4.28597 7.01582C4.51065 6.87532 4.76416 6.78737 5.02757 6.75853C5.29099 6.72969 5.55752 6.7607 5.80728 6.84925C6.05704 6.93781 6.28358 7.08162 6.46999 7.26995L9.94999 10.75C10.28 11.08 10.47 11.53 10.47 12C10.47 12.47 10.29 12.92 9.94999 13.25L6.47999 16.73C6.14999 17.06 5.69999 17.25 5.22999 17.25ZM2.78999 11.86C2.72999 11.95 2.72999 12.06 2.78999 12.15L4.99999 15.63C5.05999 15.72 5.14999 15.75 5.19999 15.75C5.24999 15.75 5.33999 15.75 5.41999 15.67L8.89999 12.19C8.92503 12.165 8.94489 12.1354 8.95845 12.1028C8.97201 12.0702 8.97899 12.0353 8.97899 12C8.97899 11.9646 8.97201 11.9297 8.95845 11.8971C8.94489 11.8645 8.92503 11.8349 8.89999 11.81L5.41999 8.32995C5.33999 8.24995 5.24999 8.24995 5.19999 8.24995C5.14999 8.25995 5.05999 8.27995 4.99999 8.36995L2.78999 11.86ZM18.77 17.25C18.3 17.25 17.86 17.07 17.52 16.73L14.04 13.25C13.71 12.92 13.52 12.47 13.52 12C13.52 11.53 13.7 11.08 14.04 10.75L17.51 7.26995C17.6964 7.08162 17.9229 6.93781 18.1727 6.84925C18.4225 6.7607 18.689 6.72969 18.9524 6.75853C19.2158 6.78737 19.4693 6.87532 19.694 7.01582C19.9187 7.15632 20.1087 7.34574 20.25 7.56995L22.46 11.05C22.83 11.63 22.83 12.37 22.46 12.95L20.25 16.43C19.96 16.89 19.49 17.18 18.95 17.24C18.9 17.24 18.83 17.25 18.77 17.25ZM18.77 8.25995C18.72 8.25995 18.65 8.26995 18.58 8.33995L15.1 11.82C15.03 11.89 15.02 11.97 15.02 12.01C15.02 12.05 15.03 12.13 15.1 12.2L18.58 15.68C18.66 15.76 18.75 15.76 18.8 15.76C18.85 15.75 18.94 15.73 19 15.64L21.21 12.16C21.27 12.07 21.27 11.96 21.21 11.87L19 8.38995C18.9784 8.35565 18.9491 8.32691 18.9143 8.30606C18.8796 8.28521 18.8404 8.27284 18.8 8.26995C18.79 8.25995 18.78 8.25995 18.77 8.25995Z" fill="black"/>
</svg>
