<svg width="24" height="24" viewBox="0 0 24 24" fill="none" xmlns="http://www.w3.org/2000/svg">
<path d="M8.52 5.15001L11.19 7.82001C11.64 8.27001 12.36 8.27001 12.81 7.82001L15.48 5.15001C16.2 4.43001 15.69 3.20001 14.67 3.20001H9.32C8.31 3.19001 7.8 4.43001 8.52 5.15001ZM8.52 18.851L11.19 16.181C11.296 16.074 11.4222 15.989 11.5612 15.931C11.7002 15.8731 11.8494 15.8432 12 15.8432C12.1506 15.8432 12.2998 15.8731 12.4388 15.931C12.5778 15.989 12.704 16.074 12.81 16.181L15.48 18.851C16.2 19.571 15.69 20.801 14.67 20.801H9.32C8.31 20.811 7.8 19.571 8.52 18.851Z" stroke="black" stroke-width="1.5" stroke-miterlimit="10" stroke-linecap="round" stroke-linejoin="round"/>
<path opacity="0.4" d="M2.16 11.45L4.37 7.97002C4.72 7.42002 5.49 7.34002 5.95 7.80002L9.43 11.28C9.83 11.68 9.83 12.32 9.43 12.72L5.95 16.2C5.49 16.66 4.72 16.58 4.37 16.03L2.16 12.55C2.05717 12.385 2.00267 12.1945 2.00267 12C2.00267 11.8056 2.05717 11.615 2.16 11.45ZM21.84 11.45L19.63 7.97002C19.28 7.42002 18.51 7.34002 18.05 7.80002L14.57 11.28C14.17 11.68 14.17 12.32 14.57 12.72L18.05 16.2C18.51 16.66 19.28 16.58 19.63 16.03L21.84 12.55C22.05 12.21 22.05 11.79 21.84 11.45Z" stroke="black" stroke-width="1.5" stroke-miterlimit="10" stroke-linecap="round" stroke-linejoin="round"/>
</svg>
