<svg width="24" height="24" viewBox="0 0 24 24" fill="none" xmlns="http://www.w3.org/2000/svg">
<path d="M18.65 4.5913C16.8312 2.9368 14.4587 2.02348 12 2.0313C6.5 2.0313 2.03 6.5013 2.03 12.0013C2.03 17.5013 6.5 21.9713 12 21.9713C14.56 21.9713 16.89 21.0113 18.65 19.4113C19.6962 18.4814 20.5332 17.3401 21.1055 16.0627C21.6778 14.7853 21.9725 13.401 21.97 12.0013C21.97 9.0613 20.69 6.4013 18.65 4.5913ZM11.97 16.3913C11.95 18.0413 10.72 18.4413 9.57 17.9813C8.37633 17.5021 7.35355 16.6763 6.63349 15.6105C5.91343 14.5446 5.52908 13.2876 5.53 12.0013C5.53 9.2913 7.2 6.9713 9.57 6.0113C10.72 5.5513 11.95 5.9613 11.97 7.6013V16.3913Z" fill="black"/>
</svg>
