<svg width="24" height="24" viewBox="0 0 24 24" fill="none" xmlns="http://www.w3.org/2000/svg">
<path d="M11.97 11.8583V16.3883C11.95 18.0383 10.72 18.4383 9.57 17.9783C8.37633 17.4991 7.35355 16.6733 6.63349 15.6075C5.91343 14.5416 5.52908 13.2846 5.53 11.9983C5.53 9.28829 7.2 6.96829 9.57 6.00829C10.72 5.54829 11.95 5.95829 11.97 7.59829" stroke="black" stroke-width="1.5" stroke-linecap="round" stroke-linejoin="round"/>
<path d="M4 6C2.75 7.67 2 9.75 2 12C2 17.52 6.48 22 12 22C17.52 22 22 17.52 22 12C22 6.48 17.52 2 12 2C10.57 2 9.2 2.3 7.97 2.85" stroke="black" stroke-width="1.5" stroke-linecap="round" stroke-linejoin="round"/>
</svg>
