<svg width="24" height="24" viewBox="0 0 24 24" fill="none" xmlns="http://www.w3.org/2000/svg">
<path d="M21.97 12.0003C21.97 14.9403 20.69 17.6003 18.65 19.4103C16.8312 21.0648 14.4587 21.9781 12 21.9703C6.5 21.9703 2.03 17.5003 2.03 12.0003C2.03 6.50027 6.5 2.03027 12 2.03027C14.56 2.03027 16.89 2.99027 18.65 4.59027C19.6962 5.52012 20.5332 6.66147 21.1055 7.93885C21.6778 9.21623 21.9725 10.6005 21.97 12.0003Z" stroke="black" stroke-width="1.5" stroke-linecap="round" stroke-linejoin="round"/>
<path d="M11.97 16.3902C11.95 18.0402 10.72 18.4402 9.57 17.9802C8.37633 17.501 7.35355 16.6753 6.63349 15.6094C5.91343 14.5436 5.52908 13.2865 5.53 12.0002C5.53 9.29024 7.2 6.97024 9.57 6.01024C10.72 5.55024 11.95 5.96024 11.97 7.60024V16.3902Z" stroke="black" stroke-width="1.5" stroke-linecap="round" stroke-linejoin="round"/>
</svg>
