<svg width="24" height="24" viewBox="0 0 24 24" fill="none" xmlns="http://www.w3.org/2000/svg">
<path d="M12 22.7213C6.09 22.7213 1.28 17.9113 1.28 12.0013C1.28 6.09125 6.09 1.28125 12 1.28125C14.65 1.28125 17.19 2.26125 19.15 4.03125C20.2745 5.03197 21.1741 6.2597 21.7895 7.6335C22.4049 9.00729 22.722 10.4959 22.72 12.0013C22.72 15.0513 21.42 17.9613 19.14 19.9813C17.1839 21.7512 14.638 22.7282 12 22.7213ZM12 2.78125C6.91 2.78125 2.78 6.92125 2.78 12.0013C2.78 17.0813 6.92 21.2213 12 21.2213C14.28 21.2213 16.46 20.3812 18.15 18.8512C19.1196 17.9908 19.8954 16.9344 20.4264 15.7519C20.9573 14.5693 21.2312 13.2875 21.23 11.9913C21.23 9.36125 20.11 6.87125 18.16 5.14125C16.468 3.62182 14.2741 2.78131 12 2.78125Z" fill="black"/>
<path d="M10.44 18.9104C10.07 18.9104 9.68 18.8304 9.3 18.6804C7.9642 18.1477 6.81915 17.2262 6.01323 16.0351C5.20731 14.8441 4.77768 13.4385 4.78 12.0004C4.78 9.05038 6.55 6.42038 9.3 5.32038C10.17 4.97038 11.05 5.02038 11.71 5.46038C12.35 5.89038 12.71 6.65038 12.73 7.60038V16.4004C12.72 17.3504 12.36 18.1204 11.71 18.5404C11.34 18.7904 10.9 18.9104 10.44 18.9104ZM10.44 6.59038C10.26 6.59038 10.06 6.63038 9.86 6.71038C8.80053 7.12989 7.89216 7.8591 7.25351 8.80282C6.61485 9.74653 6.27559 10.8609 6.28 12.0004C6.28 14.3404 7.68 16.4204 9.86 17.2904C10.26 17.4504 10.64 17.4504 10.88 17.3004C11.16 17.1104 11.22 16.7004 11.23 16.3904V7.61038C11.23 7.31038 11.16 6.89038 10.88 6.70038C10.7456 6.62545 10.5938 6.5875 10.44 6.59038Z" fill="black"/>
</svg>
