<svg width="24" height="24" viewBox="0 0 24 24" fill="none" xmlns="http://www.w3.org/2000/svg">
<path d="M21.97 12.0013C21.97 14.9413 20.69 17.6012 18.65 19.4112C16.8312 21.0657 14.4587 21.9791 12 21.9713C6.5 21.9713 2.03 17.5013 2.03 12.0013C2.03 6.50125 6.5 2.03125 12 2.03125C14.56 2.03125 16.89 2.99125 18.65 4.59125C19.6962 5.5211 20.5332 6.66244 21.1055 7.93982C21.6778 9.2172 21.9725 10.6015 21.97 12.0013Z" stroke="black" stroke-width="1.5" stroke-linecap="round" stroke-linejoin="round"/>
<path opacity="0.4" d="M11.97 16.3883C11.95 18.0383 10.72 18.4383 9.57 17.9783C8.37633 17.4991 7.35355 16.6733 6.63349 15.6075C5.91343 14.5416 5.52908 13.2846 5.53 11.9983C5.53 9.28829 7.2 6.96829 9.57 6.00829C10.72 5.54829 11.95 5.95829 11.97 7.59829V16.3883Z" stroke="black" stroke-width="1.5" stroke-linecap="round" stroke-linejoin="round"/>
</svg>
