<svg width="24" height="24" viewBox="0 0 24 24" fill="none" xmlns="http://www.w3.org/2000/svg">
<path d="M12 2C6.48 2 2 6.15 2 11.26C2 14.16 3.44 16.74 5.68 18.44V20.29C5.68 21.06 6.5 21.54 7.17 21.16L9.03 20.11C9.97 20.38 10.96 20.52 11.99 20.52C17.51 20.52 21.99 16.37 21.99 11.26C22 6.15 17.52 2 12 2ZM15.51 10.44L13.01 13.43C12.85 13.62 12.59 13.66 12.38 13.54L11.37 12.95C11.257 12.8884 11.1253 12.8706 11 12.9L8.99 13.39C8.88755 13.4139 8.78018 13.4051 8.68304 13.3647C8.58591 13.3243 8.50392 13.2544 8.44866 13.1648C8.3934 13.0753 8.36766 12.9707 8.37508 12.8658C8.3825 12.7608 8.4227 12.6609 8.49 12.58L11.03 9.56C11.18 9.38 11.44 9.33 11.65 9.44L12.83 10.06C12.9408 10.1179 13.0692 10.1321 13.19 10.1L15.01 9.63C15.47 9.51 15.82 10.07 15.51 10.44Z" fill="black"/>
</svg>
