<svg width="24" height="24" viewBox="0 0 24 24" fill="none" xmlns="http://www.w3.org/2000/svg">
<path opacity="0.4" d="M5.68 18.44V20.29C5.68 21.06 6.5 21.54 7.17 21.16L9.03 20.11C9.97 20.38 10.96 20.52 11.99 20.52C17.51 20.52 21.99 16.37 21.99 11.26C21.99 6.15 17.51 2 11.99 2C6.47 2 1.99 6.15 1.99 11.26C2 14.15 3.44 16.74 5.68 18.44Z" fill="black"/>
<path d="M11.02 9.55792L8.48 12.5779C8.17 12.9479 8.51 13.4979 8.98 13.3879L10.99 12.8979C11.12 12.8679 11.25 12.8879 11.36 12.9479L12.37 13.5379C12.58 13.6579 12.85 13.6179 13 13.4279L15.5 10.4379C15.81 10.0679 15.46 9.50792 14.99 9.63792L13.17 10.1079C13.0492 10.14 12.9208 10.1258 12.81 10.0679L11.63 9.44792C11.5318 9.39079 11.4165 9.37049 11.3048 9.39065C11.193 9.4108 11.092 9.4701 11.02 9.55792Z" fill="black"/>
</svg>
