<svg width="24" height="24" viewBox="0 0 24 24" fill="none" xmlns="http://www.w3.org/2000/svg">
<path d="M5.68 22.75C5.58125 22.7509 5.4833 22.7322 5.39189 22.6948C5.30047 22.6575 5.21742 22.6022 5.14759 22.5324C5.07776 22.4626 5.02255 22.3795 4.98519 22.2881C4.94783 22.1967 4.92906 22.0988 4.93 22V18.8C2.58 16.89 1.25 14.17 1.25 11.26C1.25 5.74 6.07 1.25 12 1.25C17.93 1.25 22.75 5.74 22.75 11.26C22.75 16.78 17.93 21.27 12 21.27C11.03 21.27 10.07 21.15 9.14 20.91L6.05 22.65C5.94 22.72 5.81 22.75 5.68 22.75ZM12 2.75C6.9 2.75 2.75 6.57 2.75 11.26C2.75 13.82 3.98 16.22 6.14 17.84C6.33 17.98 6.44 18.2 6.44 18.44V20.72L8.68 19.46C8.85 19.36 9.06 19.34 9.25 19.39C10.14 19.64 11.07 19.77 12 19.77C17.1 19.77 21.25 15.95 21.25 11.26C21.25 6.57 17.1 2.75 12 2.75Z" fill="black"/>
<path d="M7.50001 14.4999C7.25001 14.4999 7.00001 14.3699 6.86001 14.1499C6.77606 14.0156 6.73667 13.8582 6.74744 13.7002C6.75821 13.5422 6.81861 13.3916 6.92001 13.2699L10.7 8.76995C10.93 8.49995 11.31 8.41995 11.62 8.58995L13.07 9.35995L16.3 8.52995C16.4537 8.49177 16.6156 8.5031 16.7625 8.56233C16.9094 8.62157 17.0338 8.72567 17.1181 8.8598C17.2023 8.99393 17.2421 9.15123 17.2316 9.30928C17.2212 9.46733 17.1611 9.61805 17.06 9.73995L13.3 14.2399C13.07 14.5199 12.66 14.5899 12.35 14.4099L11.06 13.6599L7.66001 14.4899C7.62001 14.4899 7.56001 14.4999 7.50001 14.4999ZM11.19 12.0999C11.32 12.0999 11.45 12.1299 11.57 12.1999L12.57 12.7799L14.43 10.5499L13.17 10.8699C12.9886 10.9153 12.797 10.894 12.63 10.8099L11.46 10.1899L9.54001 12.4699L11 12.1099C11.07 12.1099 11.13 12.0999 11.19 12.0999Z" fill="black"/>
</svg>
