<svg width="24" height="24" viewBox="0 0 24 24" fill="none" xmlns="http://www.w3.org/2000/svg">
<path d="M15.26 22.2503H8.74C3.83 22.2503 1.73 20.1503 1.73 15.2403V15.1103C1.73 10.6703 3.48 8.53027 7.4 8.16027C7.8 8.13027 8.18 8.43027 8.22 8.84027C8.26 9.25027 7.96 9.62027 7.54 9.66027C4.4 9.95027 3.23 11.4303 3.23 15.1203V15.2503C3.23 19.3203 4.67 20.7603 8.74 20.7603H15.26C19.33 20.7603 20.77 19.3203 20.77 15.2503V15.1203C20.77 11.4103 19.58 9.93027 16.38 9.66027C16.1826 9.64248 16.0003 9.5473 15.8729 9.39553C15.7455 9.24376 15.6833 9.04773 15.7 8.85027C15.74 8.44027 16.09 8.13027 16.51 8.17027C20.49 8.51027 22.27 10.6603 22.27 15.1303V15.2603C22.27 20.1503 20.17 22.2503 15.26 22.2503Z" fill="black"/>
<path d="M12 15.63C11.59 15.63 11.25 15.29 11.25 14.88V2C11.25 1.59 11.59 1.25 12 1.25C12.41 1.25 12.75 1.59 12.75 2V14.88C12.75 15.3 12.41 15.63 12 15.63Z" fill="black"/>
<path d="M12 16.7498C11.81 16.7498 11.62 16.6798 11.47 16.5298L8.12 13.1798C7.98052 13.0387 7.9023 12.8483 7.9023 12.6498C7.9023 12.4514 7.98052 12.261 8.12 12.1198C8.41 11.8298 8.89 11.8298 9.18 12.1198L12 14.9398L14.82 12.1198C15.11 11.8298 15.59 11.8298 15.88 12.1198C16.17 12.4098 16.17 12.8898 15.88 13.1798L12.53 16.5298C12.38 16.6798 12.19 16.7498 12 16.7498Z" fill="black"/>
</svg>
