<svg width="24" height="24" viewBox="0 0 24 24" fill="none" xmlns="http://www.w3.org/2000/svg">
<path d="M3.5 5C3.5 3 4.84 2 6.5 2H14.5C16.16 2 17.5 3 17.5 5V22H3.5V9M2 22H19" stroke="black" stroke-width="1.5" stroke-linecap="round" stroke-linejoin="round"/>
<path d="M6.5 13H9.5M17.5 16.01L22 16V10L20 9.00004M8.39 9.99804H12.62C13.66 9.99804 14.51 9.49804 14.51 8.10804V6.87804C14.51 5.48804 13.66 4.98804 12.62 4.98804H8.39C7.35 4.98804 6.5 5.48804 6.5 6.87804V8.10804C6.5 9.49804 7.35 9.99804 8.39 9.99804Z" stroke="black" stroke-width="1.5" stroke-linecap="round" stroke-linejoin="round"/>
</svg>
