<svg width="24" height="24" viewBox="0 0 24 24" fill="none" xmlns="http://www.w3.org/2000/svg">
<path opacity="0.4" d="M3.5 22V5C3.5 3 4.84 2 6.5 2H14.5C16.16 2 17.5 3 17.5 5V22H3.5Z" fill="black"/>
<path d="M19 22.75H2C1.59 22.75 1.25 22.41 1.25 22C1.25 21.59 1.59 21.25 2 21.25H19C19.41 21.25 19.75 21.59 19.75 22C19.75 22.41 19.41 22.75 19 22.75ZM7.89 10H13.12C14.16 10 15.01 9.5 15.01 8.11V6.88C15 5.5 14.15 5 13.11 5H7.88C6.85 5 6 5.5 6 6.89V8.12C6 9.5 6.85 10 7.89 10ZM9.5 13.75H6.5C6.09 13.75 5.75 13.41 5.75 13C5.75 12.59 6.09 12.25 6.5 12.25H9.5C9.91 12.25 10.25 12.59 10.25 13C10.25 13.41 9.91 13.75 9.5 13.75ZM22.75 9.998V15.998C22.75 16.408 22.42 16.748 22 16.748L17.5 16.758V15.258L21.25 15.248V10.458L19.66 9.668C19.5714 9.624 19.4925 9.5628 19.4278 9.48797C19.3631 9.41314 19.314 9.32619 19.2833 9.23217C19.2526 9.13816 19.2409 9.03897 19.2489 8.94039C19.2569 8.84181 19.2845 8.74581 19.33 8.658C19.51 8.288 19.97 8.148 20.34 8.328L22.34 9.328C22.59 9.458 22.75 9.718 22.75 9.998Z" fill="black"/>
</svg>
