<svg width="24" height="24" viewBox="0 0 24 24" fill="none" xmlns="http://www.w3.org/2000/svg">
<path d="M17.5 22.75H3.5C3.09 22.75 2.75 22.41 2.75 22V5C2.75 2.76 4.26 1.25 6.5 1.25H14.5C16.74 1.25 18.25 2.76 18.25 5V22C18.25 22.41 17.91 22.75 17.5 22.75ZM4.25 21.25H16.75V5C16.75 3.59 15.91 2.75 14.5 2.75H6.5C5.09 2.75 4.25 3.59 4.25 5V21.25Z" fill="black"/>
<path d="M19 22.75H2C1.59 22.75 1.25 22.41 1.25 22C1.25 21.59 1.59 21.25 2 21.25H19C19.41 21.25 19.75 21.59 19.75 22C19.75 22.41 19.41 22.75 19 22.75ZM12.612 10.748H8.382C6.752 10.748 5.742 9.73804 5.742 8.10804V6.87804C5.742 5.24804 6.752 4.23804 8.382 4.23804H12.612C14.242 4.23804 15.252 5.24804 15.252 6.87804V8.10804C15.252 9.73804 14.242 10.748 12.612 10.748ZM8.392 5.74804C7.582 5.74804 7.252 6.07804 7.252 6.88804V8.11804C7.252 8.92804 7.582 9.25804 8.392 9.25804H12.622C13.432 9.25804 13.762 8.92804 13.762 8.11804V6.88804C13.762 6.07804 13.432 5.74804 12.622 5.74804H8.392ZM9.5 13.75H6.5C6.09 13.75 5.75 13.41 5.75 13C5.75 12.59 6.09 12.25 6.5 12.25H9.5C9.91 12.25 10.25 12.59 10.25 13C10.25 13.41 9.91 13.75 9.5 13.75ZM17.5 16.758C17.3011 16.758 17.1103 16.679 16.9697 16.5384C16.829 16.3977 16.75 16.2069 16.75 16.008C16.75 15.8091 16.829 15.6184 16.9697 15.4777C17.1103 15.3371 17.3011 15.258 17.5 15.258L21.25 15.248V10.458L19.66 9.66804C19.4827 9.57733 19.348 9.42094 19.2845 9.23223C19.2209 9.04353 19.2337 8.83747 19.32 8.65804C19.51 8.28804 19.96 8.13804 20.33 8.31804L22.33 9.31804C22.58 9.44804 22.74 9.70804 22.74 9.98804V15.988C22.74 16.398 22.41 16.738 21.99 16.738L17.5 16.758Z" fill="black"/>
</svg>
