<svg width="24" height="24" viewBox="0 0 24 24" fill="none" xmlns="http://www.w3.org/2000/svg">
<path d="M22 3.78076H2C1.59 3.78076 1.25 3.44076 1.25 3.03076C1.25 2.62076 1.59 2.28076 2 2.28076H22C22.41 2.28076 22.75 2.62076 22.75 3.03076C22.75 3.44076 22.41 3.78076 22 3.78076ZM12 21.7198C11.36 21.7198 10.78 21.3998 10.43 20.8698L2.47 8.47976C2.1 7.90976 2.08 7.17976 2.4 6.57976C2.73 5.97976 3.35 5.60976 4.03 5.60976H19.96C20.64 5.60976 21.27 5.97976 21.59 6.57976C21.92 7.17976 21.89 7.90976 21.52 8.47976L13.56 20.8698C13.22 21.3998 12.64 21.7198 12 21.7198ZM4.04 7.10976C3.85 7.10976 3.75 7.23976 3.72 7.29976C3.69 7.35976 3.63 7.50976 3.73 7.66976L11.69 20.0598C11.78 20.1998 11.92 20.2298 11.99 20.2298C12.06 20.2298 12.2 20.2098 12.29 20.0598L20.25 7.66976C20.35 7.50976 20.29 7.35976 20.26 7.29976C20.2305 7.24074 20.1847 7.19144 20.1279 7.15775C20.0712 7.12406 20.0059 7.10741 19.94 7.10976H4.04Z" fill="black"/>
</svg>
