<svg width="24" height="24" viewBox="0 0 24 24" fill="none" xmlns="http://www.w3.org/2000/svg">
<path d="M12 2C6.48 2 2 6.48 2 12C2 17.52 6.48 22 12 22C17.52 22 22 17.52 22 12C22 6.48 17.52 2 12 2ZM15.38 12.43L16.84 13.27C17.47 13.63 17.68 14.44 17.32 15.07C16.96 15.7 16.15 15.91 15.52 15.55L14.06 14.71C13.9841 14.6669 13.8983 14.6443 13.811 14.6444C13.7237 14.6446 13.638 14.6675 13.5623 14.7109C13.4866 14.7544 13.4235 14.8168 13.3792 14.892C13.335 14.9672 13.3111 15.0527 13.31 15.14V16.82C13.31 17.54 12.72 18.14 11.99 18.14C11.26 18.14 10.67 17.55 10.67 16.82V15.14C10.67 14.76 10.25 14.51 9.92 14.71L8.46 15.55C7.83 15.91 7.02 15.7 6.66 15.07C6.48569 14.7675 6.43834 14.4082 6.5283 14.0709C6.61826 13.7335 6.83821 13.4456 7.14 13.27L8.6 12.43C8.93 12.24 8.93 11.76 8.6 11.56L7.14 10.72C6.83821 10.5444 6.61826 10.2565 6.5283 9.91912C6.43834 9.58177 6.48569 9.22252 6.66 8.92C6.83556 8.61821 7.12353 8.39826 7.46088 8.3083C7.79823 8.21834 8.15748 8.26569 8.46 8.44L9.92 9.28C10.25 9.47 10.67 9.23 10.67 8.85V7.17C10.67 6.45 11.26 5.85 11.99 5.85C12.72 5.85 13.31 6.44 13.31 7.17V8.85C13.31 9.23 13.73 9.48 14.06 9.28L15.52 8.44C15.8225 8.26569 16.1818 8.21834 16.5191 8.3083C16.8565 8.39826 17.1444 8.61821 17.32 8.92C17.68 9.55 17.47 10.36 16.84 10.72L15.38 11.56C15.05 11.76 15.05 12.24 15.38 12.43Z" fill="black"/>
</svg>
