<svg width="24" height="24" viewBox="0 0 24 24" fill="none" xmlns="http://www.w3.org/2000/svg">
<path d="M12 18.152C11.28 18.152 10.68 17.562 10.68 16.832V7.17199C10.68 6.45199 11.27 5.85199 12 5.85199C12.72 5.85199 13.32 6.44199 13.32 7.17199V16.832C13.32 17.562 12.72 18.152 12 18.152Z" stroke="black" stroke-width="1.5" stroke-miterlimit="10"/>
<path d="M6.68 8.92898C6.85556 8.62719 7.14353 8.40724 7.48088 8.31728C7.81823 8.22732 8.17748 8.27467 8.48 8.44898L16.85 13.279C17.48 13.639 17.69 14.449 17.33 15.079C16.97 15.709 16.16 15.919 15.53 15.559L7.16 10.729C6.53 10.359 6.31 9.54898 6.68 8.92898Z" stroke="black" stroke-width="1.5" stroke-miterlimit="10"/>
<path d="M6.68 15.071C6.50569 14.7685 6.45834 14.4093 6.5483 14.0719C6.63826 13.7346 6.85821 13.4466 7.16 13.271L15.53 8.44105C15.8325 8.26674 16.1918 8.21938 16.5291 8.30934C16.8665 8.3993 17.1544 8.61925 17.33 8.92105C17.69 9.55105 17.48 10.361 16.85 10.721L8.48 15.551C7.85 15.921 7.04 15.701 6.68 15.071Z" stroke="black" stroke-width="1.5" stroke-miterlimit="10"/>
<path d="M4 6C2.75 7.67 2 9.75 2 12C2 17.52 6.48 22 12 22C17.52 22 22 17.52 22 12C22 6.48 17.52 2 12 2C10.57 2 9.2 2.3 7.97 2.85" stroke="black" stroke-width="1.5" stroke-linecap="round" stroke-linejoin="round"/>
</svg>
