<svg width="24" height="24" viewBox="0 0 24 24" fill="none" xmlns="http://www.w3.org/2000/svg">
<path opacity="0.4" d="M12 22C17.523 22 22 17.523 22 12C22 6.477 17.523 2 12 2C6.477 2 2 6.477 2 12C2 17.523 6.477 22 12 22Z" fill="black"/>
<path d="M16.84 13.2721L15.38 12.4321C15.3046 12.3872 15.2421 12.3236 15.1987 12.2473C15.1553 12.171 15.1325 12.0848 15.1325 11.9971C15.1325 11.9093 15.1553 11.8231 15.1987 11.7468C15.2421 11.6705 15.3046 11.6069 15.38 11.5621L16.84 10.7221C17.47 10.3621 17.68 9.55205 17.32 8.92205C17.1444 8.62026 16.8565 8.40031 16.5191 8.31035C16.1818 8.22039 15.8225 8.26774 15.52 8.44205L14.06 9.28205C13.9841 9.32518 13.8983 9.34778 13.811 9.34761C13.7237 9.34745 13.638 9.32452 13.5623 9.28111C13.4866 9.2377 13.4235 9.17529 13.3792 9.10005C13.335 9.0248 13.3111 8.93933 13.31 8.85205V7.17205C13.31 6.45205 12.72 5.85205 11.99 5.85205C11.26 5.85205 10.67 6.44205 10.67 7.17205V8.85205C10.67 9.23205 10.25 9.48205 9.92 9.28205L8.46 8.44205C8.15748 8.26774 7.79823 8.22039 7.46088 8.31035C7.12353 8.40031 6.83556 8.62026 6.66 8.92205C6.3 9.55205 6.51 10.3621 7.14 10.7221L8.6 11.5621C8.93 11.7521 8.93 12.2321 8.6 12.4321L7.14 13.2721C6.83821 13.4476 6.61826 13.7356 6.5283 14.0729C6.43834 14.4103 6.48569 14.7695 6.66 15.0721C7.02 15.7021 7.83 15.9121 8.46 15.5521L9.92 14.7121C10.25 14.5221 10.67 14.7621 10.67 15.1421V16.8221C10.67 17.5421 11.26 18.1421 11.99 18.1421C12.72 18.1421 13.31 17.5521 13.31 16.8221V15.1421C13.31 14.7621 13.73 14.5121 14.06 14.7121L15.52 15.5521C16.15 15.9121 16.96 15.7021 17.32 15.0721C17.69 14.4521 17.47 13.6421 16.84 13.2721Z" fill="black"/>
</svg>
