<svg width="24" height="24" viewBox="0 0 24 24" fill="none" xmlns="http://www.w3.org/2000/svg">
<path d="M12 18.1C11.3 18.1 10.7 17.5 10.7 16.8V7.20002C10.7 6.50002 11.3 5.90002 12 5.90002C12.7 5.90002 13.3 6.50002 13.3 7.20002V16.9C13.3 17.6 12.7 18.1 12 18.1Z" stroke="black" stroke-width="1.5" stroke-miterlimit="10"/>
<path d="M6.70001 8.89998C7.00001 8.29998 7.80001 8.09998 8.50001 8.39998L16.9 13.2C17.5 13.6 17.7 14.4 17.4 15C17 15.6 16.2 15.8 15.6 15.5L7.20001 10.7C6.50001 10.4 6.30001 9.59998 6.70001 8.89998Z" stroke="black" stroke-width="1.5" stroke-miterlimit="10"/>
<path d="M6.7 15.1C6.3 14.5 6.6 13.7 7.2 13.3L15.6 8.5C16.2 8.1 17 8.4 17.4 9C17.8 9.6 17.5 10.4 16.9 10.8L8.5 15.6C7.8 15.9 7 15.7 6.7 15.1Z" stroke="black" stroke-width="1.5" stroke-miterlimit="10"/>
<path d="M12 22C17.523 22 22 17.523 22 12C22 6.477 17.523 2 12 2C6.477 2 2 6.477 2 12C2 17.523 6.477 22 12 22Z" stroke="black" stroke-width="1.5" stroke-miterlimit="10"/>
</svg>
