<svg width="24" height="24" viewBox="0 0 24 24" fill="none" xmlns="http://www.w3.org/2000/svg">
<path d="M12 18.902C10.86 18.902 9.93 17.972 9.93 16.832V7.17199C9.93 6.03199 10.86 5.10199 12 5.10199C13.14 5.10199 14.07 6.03199 14.07 7.17199V16.832C14.07 17.972 13.14 18.902 12 18.902ZM12 6.60199C11.9251 6.60199 11.851 6.61673 11.7819 6.64538C11.7127 6.67402 11.6499 6.71601 11.5969 6.76894C11.544 6.82187 11.502 6.8847 11.4734 6.95386C11.4447 7.02302 11.43 7.09714 11.43 7.17199V16.832C11.43 17.142 11.68 17.402 12 17.402C12.32 17.402 12.57 17.152 12.57 16.832V7.17199C12.57 6.86199 12.31 6.60199 12 6.60199Z" fill="black"/>
<path d="M16.18 16.48C15.83 16.48 15.47 16.39 15.15 16.2L6.78 11.37C6.3 11.09 5.96 10.65 5.82 10.11C5.68 9.58001 5.75 9.02001 6.03 8.54001C6.6 7.55001 7.87 7.21001 8.85 7.78001L17.22 12.61C18.21 13.18 18.55 14.45 17.98 15.43C17.59 16.11 16.89 16.48 16.18 16.48ZM7.82 9.02001C7.77 9.02001 7.72 9.03001 7.67 9.04001C7.52 9.08001 7.4 9.17001 7.32 9.30001C7.25 9.43001 7.23 9.58001 7.26 9.73001C7.3 9.88001 7.39 10 7.52 10.08L15.89 14.91C16.16 15.06 16.51 14.97 16.67 14.7C16.83 14.43 16.73 14.08 16.46 13.92L8.09 9.09001C8.00857 9.04128 7.91485 9.01698 7.82 9.02001Z" fill="black"/>
<path d="M7.82 16.48C7.36587 16.4798 6.92449 16.3298 6.56431 16.0532C6.20413 15.7766 5.94528 15.3888 5.82792 14.9501C5.71055 14.5114 5.74122 14.0463 5.91517 13.6268C6.08912 13.2073 6.39663 12.8569 6.79 12.63L15.16 7.79997C16.15 7.22997 17.41 7.56997 17.98 8.55997C18.26 9.03997 18.33 9.58997 18.19 10.13C18.05 10.66 17.71 11.11 17.23 11.39L8.86 16.22C8.53 16.39 8.17 16.48 7.82 16.48ZM7.32 14.7C7.47 14.97 7.83 15.06 8.1 14.91L16.47 10.08C16.5984 10.0017 16.6912 9.87632 16.7286 9.73063C16.7659 9.58493 16.7449 9.4304 16.67 9.29997C16.5917 9.17155 16.4664 9.07877 16.3207 9.04142C16.175 9.00406 16.0204 9.02507 15.89 9.09997L7.52 13.93C7.26 14.08 7.17 14.43 7.32 14.7Z" fill="black"/>
<path d="M12 22.75C6.07 22.75 1.25 17.93 1.25 12C1.25 6.07 6.07 1.25 12 1.25C17.93 1.25 22.75 6.07 22.75 12C22.75 17.93 17.93 22.75 12 22.75ZM12 2.75C6.9 2.75 2.75 6.9 2.75 12C2.75 17.1 6.9 21.25 12 21.25C17.1 21.25 21.25 17.1 21.25 12C21.25 6.9 17.1 2.75 12 2.75Z" fill="black"/>
</svg>
