<svg width="24" height="24" viewBox="0 0 24 24" fill="none" xmlns="http://www.w3.org/2000/svg">
<g opacity="0.4">
<path d="M12 18.1521C11.28 18.1521 10.68 17.5621 10.68 16.8321V7.17205C10.68 6.45205 11.27 5.85205 12 5.85205C12.72 5.85205 13.32 6.44205 13.32 7.17205V16.8321C13.32 17.5621 12.72 18.1521 12 18.1521Z" stroke="black" stroke-width="1.5" stroke-miterlimit="10"/>
<path d="M6.68 8.93301C6.85556 8.63122 7.14353 8.41127 7.48088 8.32131C7.81823 8.23135 8.17748 8.2787 8.48 8.45301L16.85 13.283C17.48 13.643 17.69 14.453 17.33 15.083C16.97 15.713 16.16 15.923 15.53 15.563L7.16 10.733C6.53 10.363 6.31 9.55301 6.68 8.93301Z" stroke="black" stroke-width="1.5" stroke-miterlimit="10"/>
<path d="M6.68 15.071C6.50569 14.7685 6.45834 14.4093 6.5483 14.0719C6.63826 13.7346 6.85821 13.4466 7.16 13.271L15.53 8.44105C15.8325 8.26674 16.1918 8.21938 16.5291 8.30934C16.8665 8.3993 17.1544 8.61925 17.33 8.92105C17.69 9.55105 17.48 10.361 16.85 10.721L8.48 15.551C7.85 15.921 7.04 15.701 6.68 15.071Z" stroke="black" stroke-width="1.5" stroke-miterlimit="10"/>
</g>
<path d="M12 22C17.523 22 22 17.523 22 12C22 6.477 17.523 2 12 2C6.477 2 2 6.477 2 12C2 17.523 6.477 22 12 22Z" stroke="black" stroke-width="1.5" stroke-miterlimit="10"/>
</svg>
