<svg width="24" height="24" viewBox="0 0 24 24" fill="none" xmlns="http://www.w3.org/2000/svg">
<path d="M12 6.00103L6.44 10.001L3.19 7.80103C3.05584 7.71123 2.94554 7.59013 2.86863 7.44819C2.79171 7.30625 2.75049 7.14772 2.74852 6.98629C2.74656 6.82486 2.7839 6.66538 2.85733 6.5216C2.93075 6.37782 3.03807 6.25407 3.17 6.16103L7 3.40103C7.34 3.16103 7.8 3.15103 8.14 3.38103L12 6.00103ZM20.81 7.79903L17.56 9.99903L12 5.99903L15.86 3.38903C16.21 3.15903 16.66 3.15903 17 3.40903L20.83 6.16903C21.4 6.56903 21.39 7.40903 20.81 7.79903ZM12 14L7.56 17L5 15.16L3.16 13.84C2.6 13.43 2.61 12.59 3.18 12.2L6.43 10L12 14Z" fill="black"/>
<path d="M20.81 12.2C21.39 12.59 21.4 13.43 20.83 13.84L18.99 15.16L16.43 17L11.99 14L17.55 10L20.81 12.2Z" fill="black"/>
<path d="M18.68 17.338C18.81 17.238 19 17.338 19 17.498V18.228C19 18.618 18.77 18.968 18.42 19.138L12.42 21.908C12.15 22.028 11.85 22.028 11.58 21.908L5.58 19.138C5.23 18.968 5 18.618 5 18.228V17.498C5 17.4609 5.01034 17.4245 5.02987 17.3929C5.0494 17.3613 5.07734 17.3357 5.11056 17.3191C5.14378 17.3025 5.18097 17.2955 5.21796 17.2988C5.25495 17.3021 5.29029 17.3157 5.32 17.338L7.25 18.728C7.42 18.848 7.65 18.858 7.82 18.738L11.72 16.098C11.89 15.988 12.11 15.988 12.28 16.098L16.18 18.738C16.35 18.858 16.58 18.848 16.75 18.728L18.68 17.338Z" fill="black"/>
</svg>
