<svg width="24" height="24" viewBox="0 0 24 24" fill="none" xmlns="http://www.w3.org/2000/svg">
<path opacity="0.4" d="M12 6.00103L6.44 10.001L3.19 7.80103C3.05584 7.71123 2.94554 7.59013 2.86863 7.44819C2.79171 7.30625 2.75049 7.14772 2.74853 6.98629C2.74656 6.82486 2.7839 6.66538 2.85733 6.5216C2.93076 6.37782 3.03807 6.25407 3.17 6.16103L7 3.40103C7.34 3.16103 7.8 3.15103 8.14 3.38103L12 6.00103ZM20.81 7.79903L17.56 9.99903L12 5.99903L15.86 3.38903C16.21 3.15903 16.66 3.15903 17 3.40903L20.83 6.16903C21.4 6.56903 21.39 7.40903 20.81 7.79903ZM12 14L7.56 17L5 15.16L3.16 13.84C2.6 13.43 2.61 12.59 3.18 12.2L6.43 10L12 14ZM20.81 12.2C21.39 12.59 21.4 13.43 20.83 13.84L19 15.16L16.44 17L12 14L17.56 10L20.81 12.2Z" fill="black"/>
<path d="M19 15.16V18.13C19 18.52 18.77 18.87 18.42 19.04L12.42 21.81C12.15 21.93 11.85 21.93 11.58 21.81L5.58 19.04C5.23 18.88 5 18.52 5 18.13V15.16L7.56 17L12 14L16.44 17L19 15.16Z" fill="black"/>
</svg>
