<svg width="24" height="24" viewBox="0 0 24 24" fill="none" xmlns="http://www.w3.org/2000/svg">
<path d="M6.44 9.74998C6.29 9.74998 6.15 9.70998 6.02 9.61998L1.58 6.61998C1.48054 6.55178 1.39874 6.46089 1.34136 6.35482C1.28398 6.24875 1.25266 6.13055 1.25 6.00998C1.25 5.75998 1.36 5.52998 1.56 5.38998L7.12 1.38998C7.38 1.20998 7.72 1.19998 7.98 1.37998L12.42 4.37998C12.62 4.51998 12.75 4.74998 12.75 4.98998C12.75 5.23998 12.64 5.46998 12.44 5.60998L6.88 9.60998C6.75 9.69998 6.6 9.74998 6.44 9.74998ZM3.31 5.97998L6.43 8.08998L10.69 5.01998L7.57 2.90998L3.31 5.97998Z" fill="black"/>
<path d="M17.56 9.74994C17.41 9.74994 17.25 9.69994 17.12 9.60994L11.56 5.60994C11.4611 5.54026 11.3811 5.44715 11.327 5.33896C11.2729 5.23077 11.2464 5.11085 11.25 4.98994C11.25 4.73994 11.38 4.51994 11.58 4.37994L16.02 1.37994C16.28 1.20994 16.62 1.20994 16.88 1.38994L22.44 5.38994C22.64 5.52994 22.76 5.76994 22.75 6.00994C22.75 6.25994 22.62 6.47994 22.42 6.61994L17.98 9.61994C17.8564 9.70482 17.7099 9.75016 17.56 9.74994ZM13.31 5.01994L17.57 8.08994L20.69 5.97994L16.43 2.90994L13.31 5.01994ZM7.56 17.7499C7.41 17.7499 7.25 17.6999 7.12 17.6099L1.56 13.6099C1.46112 13.5403 1.38106 13.4472 1.32696 13.339C1.27286 13.2308 1.24642 13.1109 1.25 12.9899C1.25 12.7399 1.38 12.5199 1.58 12.3799L6.02 9.37994C6.28 9.20994 6.62 9.20994 6.88 9.38994L12.44 13.3899C12.64 13.5299 12.76 13.7699 12.75 14.0099C12.75 14.2599 12.62 14.4799 12.42 14.6199L7.98 17.6199C7.8564 17.7048 7.70994 17.7502 7.56 17.7499ZM3.31 13.0199L7.57 16.0899L10.69 13.9799L6.43 10.9099L3.31 13.0199Z" fill="black"/>
<path d="M16.44 17.75C16.29 17.75 16.15 17.71 16.02 17.62L11.58 14.62C11.4805 14.5518 11.3987 14.4609 11.3414 14.3548C11.284 14.2488 11.2527 14.1305 11.25 14.01C11.25 13.76 11.36 13.53 11.56 13.39L17.12 9.38998C17.37 9.20998 17.72 9.19998 17.98 9.37998L22.42 12.38C22.62 12.52 22.75 12.75 22.75 12.99C22.75 13.24 22.64 13.47 22.44 13.61L16.88 17.61C16.75 17.7 16.6 17.75 16.44 17.75ZM13.31 13.98L16.43 16.09L20.69 13.02L17.57 10.91L13.31 13.98Z" fill="black"/>
<path d="M12 22.65C11.75 22.65 11.5 22.6 11.27 22.49L4.69 19.45C4.55889 19.3912 4.44759 19.2957 4.36952 19.175C4.29145 19.0544 4.24994 18.9137 4.25 18.77V15.5C4.25 15.09 4.59 14.75 5 14.75C5.41 14.75 5.75 15.09 5.75 15.5V18.29L11.9 21.13C11.97 21.16 12.04 21.16 12.11 21.13L18.26 18.29V15.5C18.26 15.09 18.6 14.75 19.01 14.75C19.42 14.75 19.76 15.09 19.76 15.5V18.77C19.76 19.06 19.59 19.33 19.32 19.45L12.74 22.49C12.5 22.6 12.25 22.65 12 22.65Z" fill="black"/>
</svg>
