<svg width="24" height="24" viewBox="0 0 24 24" fill="none" xmlns="http://www.w3.org/2000/svg">
<path d="M9 22C10.8565 22 12.637 21.2625 13.9497 19.9497C15.2625 18.637 16 16.8565 16 15C16 13.1435 15.2625 11.363 13.9497 10.0503C12.637 8.7375 10.8565 8 9 8C7.14348 8 5.36301 8.7375 4.05025 10.0503C2.7375 11.363 2 13.1435 2 15C2 16.8565 2.7375 18.637 4.05025 19.9497C5.36301 21.2625 7.14348 22 9 22Z" fill="black"/>
<path d="M22 9.00001C22.0023 10.2979 21.6422 11.5706 20.9602 12.6748C20.2782 13.779 19.3015 14.6709 18.14 15.25C17.83 15.41 17.48 15.16 17.45 14.82C17.2908 12.6794 16.3684 10.6672 14.8506 9.14938C13.3328 7.63159 11.3206 6.70918 9.18 6.55001C8.83 6.52001 8.59 6.17001 8.75 5.86001C9.32909 4.69852 10.221 3.72179 11.3252 3.03981C12.4294 2.35784 13.7022 1.99772 15 2.00001C18.87 2.00001 22 5.13001 22 9.00001Z" fill="black"/>
</svg>
