<svg width="24" height="24" viewBox="0 0 24 24" fill="none" xmlns="http://www.w3.org/2000/svg">
<path d="M15 16C16.8565 16 18.637 15.2625 19.9497 13.9497C21.2625 12.637 22 10.8565 22 9C22 7.14348 21.2625 5.36301 19.9497 4.05025C18.637 2.7375 16.8565 2 15 2C13.1435 2 11.363 2.7375 10.0503 4.05025C8.7375 5.36301 8 7.14348 8 9C8 10.8565 8.7375 12.637 10.0503 13.9497C11.363 15.2625 13.1435 16 15 16Z" stroke="black" stroke-width="1.5" stroke-miterlimit="10"/>
<path d="M5.09 9.2C6.21 8.45 7.55 8 9 8C12.87 8 16 11.13 16 15C16 18.87 12.87 22 9 22C5.13 22 2 18.87 2 15C2 14.29 2.1 13.61 2.3 12.97" stroke="black" stroke-width="1.5" stroke-miterlimit="10" stroke-linecap="round" stroke-linejoin="round"/>
</svg>
