<svg width="24" height="24" viewBox="0 0 24 24" fill="none" xmlns="http://www.w3.org/2000/svg">
<path opacity="0.4" d="M15 16C16.8565 16 18.637 15.2625 19.9497 13.9497C21.2625 12.637 22 10.8565 22 9C22 7.14348 21.2625 5.36301 19.9497 4.05025C18.637 2.7375 16.8565 2 15 2C13.1435 2 11.363 2.7375 10.0503 4.05025C8.7375 5.36301 8 7.14348 8 9C8 10.8565 8.7375 12.637 10.0503 13.9497C11.363 15.2625 13.1435 16 15 16Z" stroke="black" stroke-width="1.5" stroke-miterlimit="10"/>
<path d="M9 22C10.8565 22 12.637 21.2625 13.9497 19.9497C15.2625 18.637 16 16.8565 16 15C16 13.1435 15.2625 11.363 13.9497 10.0503C12.637 8.7375 10.8565 8 9 8C7.14348 8 5.36301 8.7375 4.05025 10.0503C2.7375 11.363 2 13.1435 2 15C2 16.8565 2.7375 18.637 4.05025 19.9497C5.36301 21.2625 7.14348 22 9 22Z" stroke="black" stroke-width="1.5" stroke-miterlimit="10"/>
</svg>
