<svg width="24" height="24" viewBox="0 0 24 24" fill="none" xmlns="http://www.w3.org/2000/svg">
<path opacity="0.4" d="M19.5 9.96924V18.9992C19.5 20.9992 19 21.9992 16.5 21.9992H7.5C5 21.9992 4.5 20.9992 4.5 18.9992V9.96924C4.66 9.98924 4.83 9.99924 5 9.99924H19C19.17 9.99924 19.34 9.98924 19.5 9.96924Z" fill="black"/>
<path d="M22 5V7C22 8.83 21.17 9.82 19.5 9.97C19.34 9.99 19.17 10 19 10H5C4.83 10 4.66 9.99 4.5 9.97C2.83 9.82 2 8.83 2 7V5C2 3 3 2 5 2H19C21 2 22 3 22 5ZM13.82 14.75H10.18C9.77 14.75 9.43 14.41 9.43 14C9.43 13.59 9.77 13.25 10.18 13.25H13.82C14.23 13.25 14.57 13.59 14.57 14C14.57 14.41 14.23 14.75 13.82 14.75Z" fill="black"/>
</svg>
