<svg width="24" height="24" viewBox="0 0 24 24" fill="none" xmlns="http://www.w3.org/2000/svg">
<path d="M16.5 22.7492H7.5C4.2 22.7492 3.75 20.9492 3.75 18.9992V10.2192C3.75 9.80924 4.09 9.46924 4.5 9.46924C4.91 9.46924 5.25 9.80924 5.25 10.2192V18.9992C5.25 20.7392 5.55 21.2492 7.5 21.2492H16.5C18.45 21.2492 18.75 20.7392 18.75 18.9992V10.2192C18.75 9.80924 19.09 9.46924 19.5 9.46924C19.91 9.46924 20.25 9.80924 20.25 10.2192V18.9992C20.25 20.9492 19.8 22.7492 16.5 22.7492Z" fill="black"/>
<path d="M19 10.75H5C2.58 10.75 1.25 9.42 1.25 7V5C1.25 2.58 2.58 1.25 5 1.25H19C21.42 1.25 22.75 2.58 22.75 5V7C22.75 9.42 21.42 10.75 19 10.75ZM5 2.75C3.42 2.75 2.75 3.42 2.75 5V7C2.75 8.58 3.42 9.25 5 9.25H19C20.58 9.25 21.25 8.58 21.25 7V5C21.25 3.42 20.58 2.75 19 2.75H5ZM13.82 14.75H10.18C9.77 14.75 9.43 14.41 9.43 14C9.43 13.59 9.77 13.25 10.18 13.25H13.82C14.23 13.25 14.57 13.59 14.57 14C14.57 14.41 14.23 14.75 13.82 14.75Z" fill="black"/>
</svg>
