<svg width="24" height="24" viewBox="0 0 24 24" fill="none" xmlns="http://www.w3.org/2000/svg">
<path d="M5.25 22C4.38805 22 3.5614 21.6576 2.9519 21.0481C2.34241 20.4386 2 19.612 2 18.75C2 17.888 2.34241 17.0614 2.9519 16.4519C3.5614 15.8424 4.38805 15.5 5.25 15.5C6.11195 15.5 6.9386 15.8424 7.5481 16.4519C8.15759 17.0614 8.5 17.888 8.5 18.75C8.5 19.612 8.15759 20.4386 7.5481 21.0481C6.9386 21.6576 6.11195 22 5.25 22ZM5 8C4.20435 8 3.44129 7.68393 2.87868 7.12132C2.31607 6.55871 2 5.79565 2 5C2 4.20435 2.31607 3.44129 2.87868 2.87868C3.44129 2.31607 4.20435 2 5 2C5.79565 2 6.55871 2.31607 7.12132 2.87868C7.68393 3.44129 8 4.20435 8 5C8 5.79565 7.68393 6.55871 7.12132 7.12132C6.55871 7.68393 5.79565 8 5 8ZM19 8C18.2044 8 17.4413 7.68393 16.8787 7.12132C16.3161 6.55871 16 5.79565 16 5C16 4.20435 16.3161 3.44129 16.8787 2.87868C17.4413 2.31607 18.2044 2 19 2C19.7956 2 20.5587 2.31607 21.1213 2.87868C21.6839 3.44129 22 4.20435 22 5C22 5.79565 21.6839 6.55871 21.1213 7.12132C20.5587 7.68393 19.7956 8 19 8Z" fill="black"/>
<path d="M18.9568 8.0768C18.4827 9.46018 17.5969 10.6594 16.4222 11.5082C15.2475 12.3571 13.842 12.8135 12.4006 12.8143H12.3706L8.83187 12.8041C7.30813 12.7837 5.94478 13.8331 5.53377 15.3409V17.2257C5.53377 17.6536 5.19293 18 4.76187 18C4.34084 18 4 17.6536 4 17.2257V5.77429C4 5.56894 4.08027 5.37199 4.22315 5.22679C4.36603 5.08158 4.55981 5 4.76187 5C5.18291 5 5.53377 5.3464 5.53377 5.77429V12.5188C6.43801 11.6959 7.60808 11.2391 8.82185 11.2351H8.8419L12.3806 11.2453H12.4006C14.6963 11.2453 16.7513 9.76803 17.5032 7.55721C17.5591 7.40555 17.659 7.27469 17.7897 7.18193C17.9203 7.08916 18.0756 7.03885 18.235 7.03762C18.3152 7.03762 18.4054 7.05799 18.4856 7.07837C18.6781 7.1476 18.8358 7.29155 18.9241 7.47868C19.0124 7.66581 19.0241 7.88089 18.9568 8.0768Z" fill="black"/>
</svg>
