<svg width="24" height="24" viewBox="0 0 24 24" fill="none" xmlns="http://www.w3.org/2000/svg">
<path d="M5.25 22C4.38805 22 3.5614 21.6576 2.9519 21.0481C2.34241 20.4386 2 19.612 2 18.75C2 17.888 2.34241 17.0614 2.9519 16.4519C3.5614 15.8424 4.38805 15.5 5.25 15.5C6.11195 15.5 6.9386 15.8424 7.5481 16.4519C8.15759 17.0614 8.5 17.888 8.5 18.75C8.5 19.612 8.15759 20.4386 7.5481 21.0481C6.9386 21.6576 6.11195 22 5.25 22ZM5 8C4.20435 8 3.44129 7.68393 2.87868 7.12132C2.31607 6.55871 2 5.79565 2 5C2 4.20435 2.31607 3.44129 2.87868 2.87868C3.44129 2.31607 4.20435 2 5 2C5.79565 2 6.55871 2.31607 7.12132 2.87868C7.68393 3.44129 8 4.20435 8 5C8 5.79565 7.68393 6.55871 7.12132 7.12132C6.55871 7.68393 5.79565 8 5 8ZM19 8C18.2044 8 17.4413 7.68393 16.8787 7.12132C16.3161 6.55871 16 5.79565 16 5C16 4.20435 16.3161 3.44129 16.8787 2.87868C17.4413 2.31607 18.2044 2 19 2C19.7956 2 20.5587 2.31607 21.1213 2.87868C21.6839 3.44129 22 4.20435 22 5C22 5.79565 21.6839 6.55871 21.1213 7.12132C20.5587 7.68393 19.7956 8 19 8Z" fill="black"/>
<path opacity="0.4" d="M18.9566 8.06122C18.4822 9.44677 17.5958 10.6479 16.4203 11.4981C15.2448 12.3482 13.8385 12.8054 12.3961 12.8061H12.3661L8.82503 12.7959C7.30028 12.7755 5.93603 13.8265 5.52475 15.3367V17.2245C5.52475 17.4302 5.44443 17.6274 5.30145 17.7729C5.15848 17.9183 4.96457 18 4.76237 18C4.56018 18 4.36627 17.9183 4.22329 17.7729C4.08032 17.6274 4 17.4302 4 17.2245V5.77551C4 5.56983 4.08032 5.37258 4.22329 5.22714C4.36627 5.08171 4.56018 5 4.76237 5C4.96457 5 5.15848 5.08171 5.30145 5.22714C5.44443 5.37258 5.52475 5.56983 5.52475 5.77551V12.5306C6.42959 11.7064 7.60043 11.2489 8.815 11.2449H8.83506L12.3761 11.2551H12.3961C14.6933 11.2551 16.7497 9.77551 17.502 7.56122C17.5542 7.40882 17.6519 7.27677 17.7813 7.18349C17.9108 7.0902 18.0656 7.04033 18.2243 7.04082C18.3045 7.04082 18.3948 7.05102 18.4751 7.08163C18.8864 7.20408 19.097 7.65306 18.9566 8.06122Z" fill="black"/>
</svg>
