<svg width="24" height="24" viewBox="0 0 24 24" fill="none" xmlns="http://www.w3.org/2000/svg">
<path d="M5 15V8M5 8C5.79565 8 6.55871 7.68393 7.12132 7.12132C7.68393 6.55871 8 5.79565 8 5C8 4.20435 7.68393 3.44129 7.12132 2.87868C6.55871 2.31607 5.79565 2 5 2C4.20435 2 3.44129 2.31607 2.87868 2.87868C2.31607 3.44129 2 4.20435 2 5C2 5.79565 2.31607 6.55871 2.87868 7.12132C3.44129 7.68393 4.20435 8 5 8ZM5.13 15C5.35603 14.1278 5.86593 13.3556 6.57931 12.8052C7.29269 12.2547 8.16896 11.9574 9.07 11.96L12.5 11.97C15.12 11.98 17.35 10.3 18.17 7.96M5.25 22C6.11195 22 6.9386 21.6576 7.5481 21.0481C8.15759 20.4386 8.5 19.612 8.5 18.75C8.5 17.888 8.15759 17.0614 7.5481 16.4519C6.9386 15.8424 6.11195 15.5 5.25 15.5C4.38805 15.5 3.5614 15.8424 2.9519 16.4519C2.34241 17.0614 2 17.888 2 18.75C2 19.612 2.34241 20.4386 2.9519 21.0481C3.5614 21.6576 4.38805 22 5.25 22ZM19 8C19.7956 8 20.5587 7.68393 21.1213 7.12132C21.6839 6.55871 22 5.79565 22 5C22 4.20435 21.6839 3.44129 21.1213 2.87868C20.5587 2.31607 19.7956 2 19 2C18.2044 2 17.4413 2.31607 16.8787 2.87868C16.3161 3.44129 16 4.20435 16 5C16 5.79565 16.3161 6.55871 16.8787 7.12132C17.4413 7.68393 18.2044 8 19 8Z" stroke="black" stroke-width="1.5" stroke-linecap="round" stroke-linejoin="round"/>
</svg>
