<svg width="24" height="24" viewBox="0 0 24 24" fill="none" xmlns="http://www.w3.org/2000/svg">
<path d="M5 15.75C4.59 15.75 4.25 15.41 4.25 15V8C4.25 7.59 4.59 7.25 5 7.25C5.41 7.25 5.75 7.59 5.75 8V15C5.75 15.41 5.41 15.75 5 15.75Z" fill="black"/>
<path d="M5.25 22.75C3.04 22.75 1.25 20.96 1.25 18.75C1.25 16.54 3.04 14.75 5.25 14.75C7.46 14.75 9.25 16.54 9.25 18.75C9.25 20.96 7.46 22.75 5.25 22.75ZM5.25 16.25C4.58696 16.25 3.95107 16.5134 3.48223 16.9822C3.01339 17.4511 2.75 18.087 2.75 18.75C2.75 19.413 3.01339 20.0489 3.48223 20.5178C3.95107 20.9866 4.58696 21.25 5.25 21.25C5.91304 21.25 6.54893 20.9866 7.01777 20.5178C7.48661 20.0489 7.75 19.413 7.75 18.75C7.75 18.087 7.48661 17.4511 7.01777 16.9822C6.54893 16.5134 5.91304 16.25 5.25 16.25ZM5 8.75C2.93 8.75 1.25 7.07 1.25 5C1.25 2.93 2.93 1.25 5 1.25C7.07 1.25 8.75 2.93 8.75 5C8.75 7.07 7.07 8.75 5 8.75ZM5 2.75C3.76 2.75 2.75 3.76 2.75 5C2.75 6.24 3.76 7.25 5 7.25C6.24 7.25 7.25 6.24 7.25 5C7.25 3.76 6.24 2.75 5 2.75ZM19 8.75C16.93 8.75 15.25 7.07 15.25 5C15.25 2.93 16.93 1.25 19 1.25C21.07 1.25 22.75 2.93 22.75 5C22.75 7.07 21.07 8.75 19 8.75ZM19 2.75C17.76 2.75 16.75 3.76 16.75 5C16.75 6.24 17.76 7.25 19 7.25C20.24 7.25 21.25 6.24 21.25 5C21.25 3.76 20.24 2.75 19 2.75Z" fill="black"/>
<path d="M5.13001 15.7483C5.07001 15.7483 5.01 15.7383 4.94 15.7283C4.74798 15.6788 4.58336 15.5553 4.48217 15.3848C4.38097 15.2142 4.35143 15.0106 4.4 14.8183C4.95 12.6983 6.86 11.2183 9.05 11.2183H9.07L12.5 11.2283H12.52C14.74 11.2283 16.73 9.81831 17.46 7.71831C17.6 7.32831 18.02 7.11831 18.41 7.25831C18.8 7.39831 19.01 7.81831 18.87 8.20831C17.93 10.9183 15.34 12.6983 12.49 12.7283L9.06001 12.7183H9.05C7.54 12.7183 6.23 13.7383 5.85 15.1983C5.77 15.5283 5.46001 15.7483 5.13001 15.7483Z" fill="black"/>
</svg>
