<svg width="24" height="24" viewBox="0 0 24 24" fill="none" xmlns="http://www.w3.org/2000/svg">
<path d="M21.75 17.98C21.75 17.96 21.74 17.94 21.74 17.92C21.73 17.84 21.72 17.76 21.69 17.69C21.6519 17.6062 21.6013 17.5286 21.54 17.46C21.54 17.46 21.54 17.45 21.53 17.45C21.3879 17.3116 21.1983 17.2329 21 17.23L16.33 17.25H16.32C15.72 17.25 15.14 16.97 14.78 16.49L13.56 14.92C13.5004 14.8413 13.4257 14.7755 13.3403 14.7262C13.2548 14.677 13.1603 14.6453 13.0625 14.6332C12.9646 14.6211 12.8652 14.6287 12.7704 14.6557C12.6755 14.6826 12.5869 14.7282 12.51 14.79C12.4316 14.8497 12.3659 14.9245 12.3169 15.0099C12.2678 15.0954 12.2362 15.1898 12.2241 15.2876C12.212 15.3854 12.2196 15.4847 12.2463 15.5795C12.2731 15.6744 12.3185 15.7629 12.38 15.84L13.6 17.41C14.25 18.25 15.27 18.75 16.33 18.75H16.34L19.19 18.74L18.48 19.45C18.19 19.74 18.19 20.22 18.48 20.51C18.63 20.66 18.82 20.73 19.01 20.73C19.2 20.73 19.39 20.66 19.54 20.51L21.54 18.51C21.61 18.44 21.66 18.36 21.7 18.27C21.73 18.17 21.75 18.07 21.75 17.98ZM8.42 6.69195C8.09995 6.24882 7.67918 5.88808 7.19236 5.63946C6.70555 5.39083 6.16663 5.26145 5.62 5.26195H5.6L3 5.27195C2.59 5.27195 2.25 5.61195 2.25 6.02195C2.25 6.43195 2.59 6.77195 3 6.77195L5.61 6.76195H5.62C6.25 6.76195 6.84 7.06195 7.2 7.57195L8.28 9.07195C8.43 9.27195 8.66 9.38195 8.89 9.38195C9.04 9.38195 9.2 9.33195 9.33 9.24195C9.67 8.99195 9.74 8.52195 9.5 8.19195L8.42 6.69195ZM21.74 6.07895C21.74 6.05895 21.75 6.03895 21.75 6.02895C21.7471 5.83066 21.6684 5.64102 21.53 5.49895L19.53 3.49895C19.3889 3.35947 19.1984 3.28125 19 3.28125C18.8016 3.28125 18.6111 3.35947 18.47 3.49895C18.18 3.78895 18.18 4.26895 18.47 4.55895L19.18 5.26895L16.45 5.25895H16.43C15.28 5.25895 14.2 5.82895 13.56 6.79895L7.17 16.379C6.81 16.919 6.2 17.249 5.55 17.249H5.54L3 17.229C2.80109 17.229 2.61032 17.308 2.46967 17.4486C2.32902 17.5893 2.25 17.78 2.25 17.979C2.25 18.1779 2.32902 18.3686 2.46967 18.5093C2.61032 18.6499 2.80109 18.729 3 18.729L5.55 18.739H5.57C6.73 18.739 7.8 18.169 8.44 17.199L14.83 7.61895C15.19 7.07895 15.8 6.74895 16.45 6.74895H16.46L21 6.76895C21.1988 6.76845 21.3893 6.68937 21.53 6.54895C21.53 6.54895 21.53 6.53895 21.54 6.53895C21.6609 6.41537 21.7321 6.25164 21.74 6.07895Z" fill="black"/>
</svg>
