<svg width="24" height="24" viewBox="0 0 24 24" fill="none" xmlns="http://www.w3.org/2000/svg">
<path opacity="0.4" d="M21.75 17.9802C21.75 17.9602 21.74 17.9402 21.74 17.9202C21.73 17.8402 21.72 17.7602 21.69 17.6902C21.6519 17.6064 21.6013 17.5289 21.54 17.4602C21.54 17.4602 21.54 17.4502 21.53 17.4502C21.3879 17.3118 21.1983 17.2331 21 17.2302L16.33 17.2502H16.32C15.72 17.2502 15.14 16.9702 14.78 16.4902L13.56 14.9202C13.5004 14.8416 13.4257 14.7757 13.3403 14.7265C13.2548 14.6772 13.1603 14.6456 13.0625 14.6335C12.9646 14.6214 12.8652 14.629 12.7704 14.6559C12.6755 14.6828 12.5869 14.7285 12.51 14.7902C12.4316 14.8499 12.3659 14.9247 12.3169 15.0102C12.2678 15.0957 12.2362 15.1901 12.2241 15.2879C12.212 15.3857 12.2196 15.4849 12.2463 15.5798C12.2731 15.6746 12.3185 15.7632 12.38 15.8402L13.6 17.4102C14.25 18.2502 15.27 18.7502 16.33 18.7502H16.34L19.19 18.7402L18.48 19.4502C18.19 19.7402 18.19 20.2202 18.48 20.5102C18.63 20.6602 18.82 20.7302 19.01 20.7302C19.2 20.7302 19.39 20.6602 19.54 20.5102L21.54 18.5102C21.61 18.4402 21.66 18.3602 21.7 18.2702C21.73 18.1702 21.75 18.0702 21.75 17.9802ZM8.418 6.69221C8.09795 6.24908 7.67718 5.88834 7.19036 5.63971C6.70355 5.39109 6.16463 5.2617 5.618 5.26221H5.598L2.988 5.27221C2.578 5.27221 2.238 5.61221 2.238 6.02221C2.238 6.43221 2.578 6.77221 2.988 6.77221L5.598 6.76221H5.608C6.238 6.76221 6.828 7.06221 7.188 7.57221L8.268 9.07221C8.418 9.27221 8.648 9.38221 8.878 9.38221C9.028 9.38221 9.188 9.33221 9.318 9.24221C9.658 9.00221 9.728 8.53221 9.488 8.19221L8.418 6.69221Z" fill="black"/>
<path d="M21.738 6.07895C21.738 6.05895 21.748 6.03895 21.748 6.02895C21.7451 5.83066 21.6664 5.64102 21.528 5.49895L19.528 3.49895C19.3869 3.35947 19.1964 3.28125 18.998 3.28125C18.7996 3.28125 18.6091 3.35947 18.468 3.49895C18.178 3.78895 18.178 4.26895 18.468 4.55895L19.178 5.26895L16.448 5.25895H16.428C15.278 5.25895 14.198 5.82895 13.558 6.79895L7.168 16.379C6.808 16.919 6.198 17.249 5.548 17.249H5.538L2.988 17.239C2.78909 17.239 2.59832 17.318 2.45767 17.4586C2.31702 17.5993 2.238 17.79 2.238 17.989C2.238 18.1879 2.31702 18.3786 2.45767 18.5193C2.59832 18.6599 2.78909 18.739 2.988 18.739L5.538 18.749H5.558C6.718 18.749 7.788 18.179 8.428 17.209L14.818 7.62895C15.178 7.08895 15.788 6.75895 16.438 6.75895H16.448L20.998 6.77895C21.1968 6.77845 21.3873 6.69937 21.528 6.55895C21.528 6.55895 21.528 6.54895 21.538 6.54895C21.598 6.47895 21.658 6.40895 21.688 6.31895C21.718 6.23895 21.728 6.15895 21.738 6.07895Z" fill="black"/>
</svg>
