<svg width="24" height="24" viewBox="0 0 24 24" fill="none" xmlns="http://www.w3.org/2000/svg">
<path d="M3 17.98L5.55 17.99C6.46 17.99 7.31 17.54 7.81 16.79L14.2 7.21002C14.4474 6.83807 14.7836 6.53359 15.1782 6.32409C15.5727 6.11459 16.0133 6.00665 16.46 6.01002L21.01 6.03002M19 19.98L21 17.98M8.89 8.62002L7.81 7.12002C7.56022 6.77035 7.22987 6.48601 6.84693 6.29106C6.46398 6.0961 6.0397 5.99627 5.61 6.00002L3 6.01002M12.97 15.38L14.19 16.95C14.7 17.61 15.5 18 16.34 18L21.01 17.98M21 6.02002L19 4.02002" stroke="black" stroke-width="1.5" stroke-linecap="round" stroke-linejoin="round"/>
</svg>
