<svg width="24" height="24" viewBox="0 0 24 24" fill="none" xmlns="http://www.w3.org/2000/svg">
<path d="M5.562 18.74H5.542L2.992 18.73C2.582 18.73 2.242 18.39 2.242 17.98C2.242 17.57 2.582 17.23 2.992 17.23L5.542 17.24H5.552C6.202 17.24 6.812 16.92 7.172 16.37L13.562 6.79C14.202 5.83 15.272 5.25 16.432 5.25H16.452L21.002 5.27C21.412 5.27 21.752 5.61 21.752 6.02C21.752 6.43 21.412 6.77 21.002 6.77L16.452 6.75H16.442C15.792 6.75 15.182 7.07 14.822 7.62L8.432 17.2C8.11938 17.6751 7.69323 18.0647 7.1921 18.3336C6.69098 18.6025 6.13071 18.7422 5.562 18.74ZM19.001 20.732C18.811 20.732 18.621 20.662 18.471 20.512C18.3315 20.3709 18.2533 20.1804 18.2533 19.982C18.2533 19.7836 18.3315 19.5931 18.471 19.452L20.471 17.452C20.761 17.162 21.241 17.162 21.531 17.452C21.821 17.742 21.821 18.222 21.531 18.512L19.531 20.512C19.381 20.662 19.191 20.732 19.001 20.732ZM8.89 9.382C8.66 9.382 8.43 9.272 8.28 9.072L7.2 7.572C7.01631 7.32254 6.77692 7.11942 6.50088 6.97879C6.22485 6.83817 5.91979 6.76394 5.61 6.762L3 6.772C2.54 6.762 2.25 6.442 2.25 6.022C2.25 5.612 2.58 5.272 3 5.272L5.61 5.262H5.63C6.74 5.262 7.78 5.802 8.43 6.692L9.51 8.192C9.75 8.532 9.68 8.992 9.34 9.242C9.2 9.332 9.05 9.382 8.89 9.382Z" fill="black"/>
<path d="M16.32 18.7509C15.26 18.7509 14.24 18.2509 13.59 17.4109L12.37 15.8409C12.12 15.5109 12.18 15.0409 12.5 14.7909C12.83 14.5409 13.3 14.6009 13.55 14.9209L14.77 16.4909C15.14 16.9709 15.73 17.2109 16.32 17.2509L20.99 17.2309C21.1889 17.2309 21.3797 17.31 21.5203 17.4506C21.661 17.5913 21.74 17.782 21.74 17.9809C21.74 18.1799 21.661 18.3706 21.5203 18.5113C21.3797 18.6519 21.1889 18.7309 20.99 18.7309L16.32 18.7509ZM21.001 6.77094C20.811 6.77094 20.621 6.70094 20.471 6.55094L18.471 4.55094C18.3315 4.4098 18.2533 4.21937 18.2533 4.02094C18.2533 3.82251 18.3315 3.63208 18.471 3.49094C18.761 3.20094 19.241 3.20094 19.531 3.49094L21.531 5.49094C21.821 5.78094 21.821 6.26094 21.531 6.55094C21.381 6.70094 21.191 6.77094 21.001 6.77094Z" fill="black"/>
</svg>
