<svg width="24" height="24" viewBox="0 0 24 24" fill="none" xmlns="http://www.w3.org/2000/svg">
<path d="M16.588 7.41L6.309 17.69C5.829 18.17 5.009 18.06 4.719 17.45C4.18035 16.344 3.89996 15.1302 3.899 13.9C3.879 8.38 9.479 3.66 11.379 2.21C11.749 1.93 12.249 1.93 12.609 2.21C13.479 2.87 15.109 4.24 16.639 6.04C16.979 6.44 16.959 7.04 16.589 7.41H16.588ZM20.1 13.91C20.1 18.37 16.47 22 12 22C10.2686 22.0036 8.58201 21.4496 7.19 20.42C6.7 20.06 6.66 19.34 7.09 18.91L17.16 8.84C17.63 8.37 18.42 8.47 18.74 9.05C19.56 10.56 20.11 12.2 20.1 13.91Z" fill="black"/>
</svg>
