<svg width="24" height="24" viewBox="0 0 24 24" fill="none" xmlns="http://www.w3.org/2000/svg">
<path d="M11.999 22.75C7.119 22.75 3.149 18.78 3.149 13.9C3.119 8.17003 8.579 3.40004 10.929 1.61004C11.2368 1.37645 11.6126 1.25 11.999 1.25C12.3854 1.25 12.7612 1.37645 13.069 1.61004C15.419 3.43004 20.879 8.26004 20.849 13.91C20.849 18.78 16.879 22.75 11.999 22.75ZM11.999 2.75004C11.949 2.75004 11.889 2.77004 11.839 2.81004C10.149 4.10004 4.629 8.71003 4.659 13.9C4.659 17.96 7.959 21.25 12.009 21.25C16.059 21.25 19.359 17.96 19.359 13.91C19.389 8.79004 13.859 4.12004 12.159 2.81004C12.1129 2.77442 12.0572 2.75351 11.999 2.75004Z" fill="black"/>
</svg>
