<svg width="24" height="24" viewBox="0 0 24 24" fill="none" xmlns="http://www.w3.org/2000/svg">
<path d="M16.19 2H7.81C4.17 2 2 4.17 2 7.81V16.18C2 19.83 4.17 22 7.81 22H16.18C19.82 22 21.99 19.83 21.99 16.19V7.81C22 4.17 19.83 2 16.19 2ZM18.53 12.53L14.24 16.82C14.09 16.97 13.9 17.04 13.71 17.04C13.52 17.04 13.33 16.97 13.18 16.82C13.0405 16.6789 12.9623 16.4884 12.9623 16.29C12.9623 16.0916 13.0405 15.9011 13.18 15.76L16.19 12.75H6C5.59 12.75 5.25 12.41 5.25 12C5.25 11.59 5.59 11.25 6 11.25H16.19L13.18 8.24C13.0405 8.09886 12.9623 7.90843 12.9623 7.71C12.9623 7.51157 13.0405 7.32114 13.18 7.18C13.47 6.89 13.95 6.89 14.24 7.18L18.53 11.47C18.6705 11.6106 18.7493 11.8012 18.7493 12C18.7493 12.1988 18.6705 12.3894 18.53 12.53Z" fill="black"/>
</svg>
