<svg width="24" height="24" viewBox="0 0 24 24" fill="none" xmlns="http://www.w3.org/2000/svg">
<path opacity="0.4" d="M16.19 2H7.81C4.17 2 2 4.17 2 7.81V16.18C2 19.83 4.17 22 7.81 22H16.18C19.82 22 21.99 19.83 21.99 16.19V7.81C22 4.17 19.83 2 16.19 2Z" fill="black"/>
<path d="M18.53 11.4701L14.24 7.1801C14.0989 7.04062 13.9084 6.9624 13.71 6.9624C13.5116 6.9624 13.3211 7.04062 13.18 7.1801C12.89 7.4701 12.89 7.9501 13.18 8.2401L16.19 11.2501H6C5.59 11.2501 5.25 11.5901 5.25 12.0001C5.25 12.4101 5.59 12.7501 6 12.7501H16.19L13.18 15.7601C12.89 16.0501 12.89 16.5301 13.18 16.8201C13.33 16.9701 13.52 17.0401 13.71 17.0401C13.9 17.0401 14.09 16.9701 14.24 16.8201L18.53 12.5301C18.6705 12.3895 18.7493 12.1989 18.7493 12.0001C18.7493 11.8014 18.6705 11.6107 18.53 11.4701Z" fill="black"/>
</svg>
