<svg width="24" height="24" viewBox="0 0 24 24" fill="none" xmlns="http://www.w3.org/2000/svg">
<path d="M8.91 20.67C8.72 20.67 8.53 20.6 8.38 20.45C8.24052 20.3089 8.1623 20.1184 8.1623 19.92C8.1623 19.7216 8.24052 19.5312 8.38 19.39L14.9 12.87C15.38 12.39 15.38 11.61 14.9 11.13L8.38 4.61002C8.24052 4.46888 8.1623 4.27845 8.1623 4.08002C8.1623 3.88159 8.24052 3.69116 8.38 3.55002C8.67 3.26002 9.15 3.26002 9.44 3.55002L15.96 10.07C16.47 10.58 16.76 11.27 16.76 12C16.76 12.73 16.48 13.42 15.96 13.93L9.44 20.45C9.29 20.59 9.1 20.67 8.91 20.67Z" fill="black"/>
</svg>
