<svg width="24" height="24" viewBox="0 0 24 24" fill="none" xmlns="http://www.w3.org/2000/svg">
<path opacity="0.4" fill-rule="evenodd" clip-rule="evenodd" d="M22 14.25C22.1989 14.25 22.3897 14.329 22.5303 14.4697C22.671 14.6103 22.75 14.8011 22.75 15C22.7507 16.0179 22.5506 17.026 22.1614 17.9666C21.7722 18.9071 21.2013 19.7618 20.4815 20.4815C19.7618 21.2013 18.9071 21.7722 17.9666 22.1614C17.026 22.5506 16.0179 22.7507 15 22.75C14.8673 22.75 14.7369 22.7148 14.6223 22.6479C14.5076 22.581 14.4127 22.485 14.3473 22.3694C14.282 22.2539 14.2484 22.1231 14.2501 21.9904C14.2518 21.8577 14.2887 21.7278 14.357 21.614L15.407 19.864C15.4572 19.7785 15.5238 19.7038 15.603 19.6443C15.6822 19.5847 15.7724 19.5414 15.8685 19.5169C15.9645 19.4924 16.0645 19.4872 16.1625 19.5016C16.2606 19.5159 16.3549 19.5496 16.4398 19.6006C16.5248 19.6516 16.5988 19.719 16.6576 19.7988C16.7164 19.8786 16.7588 19.9692 16.7824 20.0655C16.8059 20.1618 16.8101 20.2618 16.7948 20.3597C16.7794 20.4576 16.7449 20.5515 16.693 20.636L16.422 21.088C17.7961 20.7677 19.0212 19.9916 19.8979 18.8861C20.7746 17.7806 21.2511 16.4109 21.25 15C21.25 14.8011 21.329 14.6103 21.4697 14.4697C21.6103 14.329 21.8011 14.25 22 14.25ZM7.578 2.912C6.20393 3.23231 4.97879 4.00841 4.10211 5.11388C3.22543 6.21936 2.74885 7.5891 2.75 9C2.75 9.19891 2.67098 9.38968 2.53033 9.53033C2.38968 9.67098 2.19891 9.75 2 9.75C1.80109 9.75 1.61032 9.67098 1.46967 9.53033C1.32902 9.38968 1.25 9.19891 1.25 9C1.24934 7.98207 1.44935 6.974 1.83859 6.03343C2.22784 5.09286 2.79867 4.23824 3.51846 3.51846C4.23824 2.79867 5.09286 2.22784 6.03343 1.8386C6.974 1.44936 7.98207 1.24934 9 1.25C9.13273 1.25001 9.26308 1.28524 9.37775 1.3521C9.49241 1.41896 9.58727 1.51505 9.65265 1.63056C9.71804 1.74607 9.75159 1.87687 9.7499 2.00959C9.7482 2.14231 9.71131 2.2722 9.643 2.386L8.593 4.136C8.48961 4.30443 8.32392 4.42524 8.13195 4.47218C7.93998 4.51912 7.73724 4.48839 7.5678 4.38667C7.39836 4.28496 7.27591 4.12047 7.22708 3.92897C7.17824 3.73748 7.20696 3.53444 7.307 3.364L7.578 2.912Z" fill="black"/>
<path opacity="0.4" d="M12 15.7V16.31H2V15.7C2 13.94 2.44 13.5 4.22 13.5H9.78C11.56 13.5 12 13.94 12 15.7Z" fill="black"/>
<path d="M2 16.309V19.799C2 21.559 2.44 21.999 4.22 21.999H9.78C11.56 21.999 12 21.559 12 19.799V16.309H2Z" fill="black"/>
<path opacity="0.4" d="M22 4.2V4.81H12V4.2C12 2.44 12.44 2 14.22 2H19.78C21.56 2 22 2.44 22 4.2Z" fill="black"/>
<path d="M12 4.80902V8.29902C12 10.059 12.44 10.499 14.22 10.499H19.78C21.56 10.499 22 10.059 22 8.29902V4.80902H12Z" fill="black"/>
</svg>
