<svg width="24" height="24" viewBox="0 0 24 24" fill="none" xmlns="http://www.w3.org/2000/svg">
<path d="M22 6.30902H12C11.59 6.30902 11.25 5.96902 11.25 5.55902C11.25 5.14902 11.59 4.80902 12 4.80902H22C22.0985 4.80902 22.196 4.82842 22.287 4.86611C22.378 4.9038 22.4607 4.95905 22.5303 5.02869C22.6 5.09833 22.6552 5.18101 22.6929 5.27201C22.7306 5.363 22.75 5.46053 22.75 5.55902C22.75 5.65751 22.7306 5.75504 22.6929 5.84603C22.6552 5.93703 22.6 6.01971 22.5303 6.08935C22.4607 6.159 22.378 6.21424 22.287 6.25193C22.196 6.28962 22.0985 6.30902 22 6.30902Z" fill="black"/>
<path d="M19.778 11.25H14.228C12.038 11.25 11.258 10.48 11.258 8.3V4.2C11.258 2.02 12.038 1.25 14.228 1.25H19.778C21.968 1.25 22.748 2.02 22.748 4.2V8.31C22.748 10.48 21.968 11.25 19.778 11.25ZM14.218 2.75C12.858 2.75 12.748 2.86 12.748 4.2V8.31C12.748 9.65 12.858 9.76 14.218 9.76H19.768C21.128 9.76 21.238 9.65 21.238 8.31V4.2C21.238 2.86 21.128 2.75 19.768 2.75H14.218ZM12 17.809H2C1.59 17.809 1.25 17.469 1.25 17.059C1.25 16.649 1.59 16.309 2 16.309H12C12.1989 16.309 12.3897 16.388 12.5303 16.5287C12.671 16.6693 12.75 16.8601 12.75 17.059C12.75 17.2579 12.671 17.4487 12.5303 17.5893C12.3897 17.73 12.1989 17.809 12 17.809Z" fill="black"/>
<path d="M9.778 22.75H4.228C2.038 22.75 1.258 21.98 1.258 19.8V15.7C1.258 13.52 2.038 12.75 4.228 12.75H9.778C11.968 12.75 12.748 13.52 12.748 15.7V19.81C12.748 21.98 11.968 22.75 9.778 22.75ZM4.218 14.25C2.858 14.25 2.748 14.36 2.748 15.7V19.81C2.748 21.15 2.858 21.26 4.218 21.26H9.768C11.128 21.26 11.238 21.15 11.238 19.81V15.7C11.238 14.36 11.128 14.25 9.768 14.25H4.218ZM15 22.748C14.8672 22.7473 14.7369 22.7114 14.6225 22.6439C14.508 22.5765 14.4135 22.48 14.3484 22.3641C14.2834 22.2483 14.2502 22.1173 14.2523 21.9845C14.2543 21.8517 14.2915 21.7218 14.36 21.608L15.41 19.858C15.62 19.508 16.08 19.388 16.44 19.598C16.8 19.808 16.91 20.268 16.7 20.628L16.43 21.078C19.19 20.428 21.26 17.948 21.26 14.988C21.26 14.578 21.6 14.238 22.01 14.238C22.42 14.238 22.76 14.578 22.76 14.988C22.75 19.268 19.27 22.748 15 22.748ZM2 9.75C1.59 9.75 1.25 9.41 1.25 9C1.25 4.73 4.73 1.25 9 1.25C9.13283 1.25074 9.2631 1.28664 9.37754 1.35407C9.49199 1.42149 9.58654 1.51803 9.65156 1.63386C9.71659 1.74969 9.74978 1.88067 9.74775 2.01349C9.74571 2.14631 9.70854 2.27622 9.64 2.39L8.59 4.14C8.38 4.49 7.92 4.61 7.56 4.4C7.47508 4.34965 7.40096 4.283 7.34189 4.2039C7.28282 4.12479 7.23997 4.03479 7.21581 3.93907C7.19164 3.84335 7.18664 3.74379 7.20109 3.64613C7.21554 3.54847 7.24915 3.45462 7.3 3.37L7.57 2.92C4.81 3.57 2.74 6.05 2.74 9.01C2.75 9.41 2.41 9.75 2 9.75Z" fill="black"/>
</svg>
