<svg width="24" height="24" viewBox="0 0 24 24" fill="none" xmlns="http://www.w3.org/2000/svg">
<path d="M6.9 20.6C8.4 21.5 10.2 22 12 22C17.5 22 22 17.5 22 12C22 6.5 17.5 2 12 2C6.5 2 2 6.5 2 12C2 13.8 2.5 15.5 3.3 17L2.44 20.306C2.39563 20.4767 2.39718 20.656 2.4445 20.8259C2.49181 20.9958 2.58321 21.1501 2.70941 21.2733C2.83562 21.3965 2.99215 21.4841 3.16313 21.5272C3.33411 21.5704 3.51347 21.5675 3.683 21.519L6.9 20.6Z" stroke="black" stroke-width="1.5" stroke-miterlimit="10" stroke-linecap="round" stroke-linejoin="round"/>
<path d="M16.5 14.848C16.5 15.01 16.464 15.177 16.387 15.339C16.3084 15.5064 16.2053 15.6611 16.081 15.798C15.86 16.041 15.617 16.216 15.341 16.329C15.071 16.442 14.778 16.5 14.463 16.5C14.003 16.5 13.512 16.392 12.993 16.172C12.4443 15.9341 11.9243 15.6349 11.443 15.28C10.9195 14.8976 10.4254 14.4764 9.965 14.02C9.50946 13.5621 9.08926 13.0704 8.708 12.549C8.35762 12.0719 8.06115 11.5574 7.824 11.015C7.608 10.5 7.5 10.01 7.5 9.543C7.5 9.237 7.554 8.945 7.662 8.675C7.77 8.4 7.942 8.148 8.181 7.923C8.469 7.639 8.784 7.5 9.118 7.5C9.244 7.5 9.37 7.527 9.483 7.581C9.6 7.635 9.703 7.716 9.785 7.833L10.831 9.305C10.911 9.417 10.971 9.521 11.011 9.62C11.051 9.714 11.074 9.809 11.074 9.894C11.0727 10.0074 11.0398 10.1182 10.979 10.214C10.9096 10.3311 10.8248 10.4383 10.727 10.533L10.384 10.889C10.3601 10.9123 10.3414 10.9404 10.329 10.9714C10.3166 11.0024 10.3108 11.0356 10.312 11.069C10.312 11.104 10.317 11.136 10.326 11.172C10.339 11.208 10.353 11.235 10.362 11.262C10.442 11.411 10.582 11.604 10.781 11.838C10.984 12.072 11.2 12.311 11.434 12.549C11.678 12.788 11.912 13.008 12.151 13.211C12.385 13.408 12.579 13.543 12.732 13.624L12.814 13.661C12.8499 13.6738 12.8879 13.6799 12.926 13.679C12.9605 13.6797 12.9948 13.6733 13.0266 13.66C13.0585 13.6468 13.0872 13.627 13.111 13.602L13.453 13.264C13.566 13.152 13.674 13.067 13.778 13.012C13.8736 12.9511 13.9846 12.9185 14.098 12.918C14.1927 12.9194 14.2861 12.9394 14.373 12.977C14.472 13.017 14.576 13.075 14.688 13.152L16.18 14.21C16.2881 14.2803 16.3741 14.3798 16.428 14.497C16.4747 14.6082 16.4992 14.7274 16.5 14.848Z" stroke="black" stroke-width="1.5" stroke-miterlimit="10"/>
</svg>
