<svg width="24" height="24" viewBox="0 0 24 24" fill="none" xmlns="http://www.w3.org/2000/svg">
<path d="M2 22.7478C1.88451 22.7469 1.77074 22.7197 1.66733 22.6683C1.56393 22.6168 1.47361 22.5425 1.40323 22.4509C1.33286 22.3593 1.28429 22.2529 1.2612 22.1397C1.23812 22.0266 1.24113 21.9096 1.27 21.7978L2.53 17.0878C1.69 15.5278 1.25 13.7678 1.25 11.9878C1.25 6.05779 6.07 1.23779 12 1.23779C17.93 1.23779 22.75 6.05779 22.75 11.9878C22.75 17.9178 17.93 22.7378 12 22.7378C10.19 22.7378 8.42 22.2878 6.84 21.4278L2.2 22.7178C2.13 22.7378 2.07 22.7478 2 22.7478ZM6.94 19.8778C7.07 19.8778 7.2 19.9178 7.32 19.9778C8.73 20.8078 10.35 21.2478 12 21.2478C17.1 21.2478 21.25 17.0978 21.25 11.9978C21.25 6.89779 17.1 2.74779 12 2.74779C6.9 2.74779 2.75 6.89779 2.75 11.9978C2.75 13.6278 3.18 15.2178 3.99 16.6178C4.09 16.7878 4.12 16.9978 4.07 17.1878L3.07 20.9278L6.75 19.9078C6.81 19.8878 6.88 19.8778 6.94 19.8778Z" fill="black"/>
<path d="M14.74 17.7598C14.12 17.7598 13.48 17.6198 12.81 17.3298C12.18 17.0598 11.55 16.6998 10.94 16.2498C10.34 15.8098 9.75001 15.3098 9.21001 14.7698C8.67001 14.2198 8.17001 13.6398 7.73001 13.0398C7.28001 12.4098 6.92001 11.7898 6.66001 11.1798C6.38001 10.5198 6.24001 9.86981 6.24001 9.24981C6.24001 8.80981 6.32001 8.38981 6.47001 7.99981C6.63001 7.58981 6.89001 7.21981 7.23001 6.89981C7.87001 6.26981 8.79001 6.03981 9.52001 6.38981C9.77001 6.49981 9.98001 6.67981 10.14 6.91981L11.3 8.54981C11.42 8.70981 11.51 8.87981 11.58 9.04981C11.66 9.24981 11.71 9.44981 11.71 9.63981C11.71 9.89981 11.64 10.1598 11.5 10.3898C11.41 10.5398 11.28 10.7198 11.11 10.8898L10.98 11.0298C11.04 11.1098 11.11 11.2098 11.22 11.3298C11.43 11.5698 11.66 11.8298 11.91 12.0798C12.16 12.3198 12.41 12.5598 12.66 12.7698C12.78 12.8698 12.88 12.9498 12.96 12.9998L13.1 12.8598C13.28 12.6798 13.46 12.5398 13.64 12.4498C13.97 12.2398 14.48 12.1898 14.93 12.3798C15.09 12.4398 15.25 12.5298 15.42 12.6498L17.09 13.8298C17.32 13.9898 17.5 14.2098 17.62 14.4598C17.72 14.7098 17.76 14.9298 17.76 15.1598C17.76 15.4598 17.69 15.7498 17.56 16.0298C17.43 16.2898 17.28 16.5198 17.1 16.7298C16.78 17.0798 16.41 17.3398 16.01 17.5098C15.61 17.6798 15.18 17.7598 14.74 17.7598ZM8.79001 7.73981C8.73001 7.73981 8.53001 7.73981 8.28001 7.98981C8.09001 8.16981 7.96001 8.35981 7.87001 8.56981C7.78001 8.77981 7.74001 9.01981 7.74001 9.25981C7.74001 9.67981 7.84001 10.1298 8.04001 10.6098C8.25001 11.1098 8.56001 11.6398 8.94001 12.1698C9.33001 12.6998 9.77001 13.2298 10.26 13.7198C10.75 14.1998 11.27 14.6498 11.81 15.0498C12.33 15.4298 12.86 15.7298 13.39 15.9598C14.15 16.2898 14.85 16.3698 15.42 16.1298C15.62 16.0498 15.8 15.9098 15.98 15.7298C16.07 15.6298 16.14 15.5298 16.2 15.3998C16.23 15.3298 16.25 15.2498 16.25 15.1798C16.25 15.1598 16.25 15.1298 16.22 15.0698L14.55 13.9098C14.4889 13.8639 14.4215 13.8268 14.35 13.7998C14.31 13.8198 14.25 13.8498 14.14 13.9598L13.76 14.3398C13.47 14.6298 13.01 14.7098 12.64 14.5798L12.46 14.4998C12.23 14.3798 11.97 14.1998 11.68 13.9498C11.4 13.7098 11.13 13.4598 10.84 13.1798C10.56 12.8898 10.31 12.6198 10.07 12.3398C9.86131 12.0999 9.67394 11.8423 9.51001 11.5698L9.40001 11.3098C9.37198 11.2089 9.35851 11.1045 9.36001 10.9998C9.36001 10.7198 9.46001 10.4698 9.65001 10.2698L10.03 9.87981C10.14 9.76981 10.18 9.70981 10.2 9.66981C10.1675 9.59893 10.1272 9.53186 10.08 9.46981L8.91001 7.81981L8.79001 7.73981Z" fill="black"/>
</svg>
