<svg width="24" height="24" viewBox="0 0 24 24" fill="none" xmlns="http://www.w3.org/2000/svg">
<path d="M18.54 4.17014L13.04 2.11014C12.47 1.90014 11.54 1.90014 10.97 2.11014L5.47 4.17014C4.41 4.57014 3.55 5.81014 3.55 6.94014V15.0401C3.55 15.8501 4.08 16.9201 4.73 17.4001L10.23 21.5101C11.2 22.2401 12.79 22.2401 13.76 21.5101L19.26 17.4001C19.91 16.9101 20.44 15.8501 20.44 15.0401V6.94014C20.45 5.81014 19.59 4.57014 18.54 4.17014ZM12.75 12.8701V15.5001C12.75 15.9101 12.41 16.2501 12 16.2501C11.59 16.2501 11.25 15.9101 11.25 15.5001V12.8701C10.7447 12.7117 10.3028 12.3967 9.98824 11.9707C9.67367 11.5447 9.50269 11.0297 9.5 10.5001C9.5 9.8371 9.76339 9.20121 10.2322 8.73237C10.7011 8.26353 11.337 8.00014 12 8.00014C12.663 8.00014 13.2989 8.26353 13.7678 8.73237C14.2366 9.20121 14.5 9.8371 14.5 10.5001C14.5 11.6201 13.76 12.5501 12.75 12.8701Z" fill="black"/>
</svg>
