<svg width="24" height="24" viewBox="0 0 24 24" fill="none" xmlns="http://www.w3.org/2000/svg">
<path opacity="0.4" d="M10.96 2.10989L5.46 4.16989C4.41 4.56989 3.55 5.80989 3.55 6.93989V15.0399C3.55 15.8499 4.08 16.9199 4.73 17.3999L10.23 21.5099C11.2 22.2399 12.79 22.2399 13.76 21.5099L19.26 17.3999C19.91 16.9099 20.44 15.8499 20.44 15.0399V6.93989C20.44 5.81989 19.58 4.56988 18.53 4.17988L13.03 2.11989C12.47 1.89989 11.53 1.89989 10.96 2.10989Z" fill="black"/>
<path d="M14.5 10.5C14.5 9.83696 14.2366 9.20107 13.7678 8.73223C13.2989 8.26339 12.663 8 12 8C11.337 8 10.7011 8.26339 10.2322 8.73223C9.76339 9.20107 9.5 9.83696 9.5 10.5C9.5 11.62 10.24 12.55 11.25 12.87V15.5C11.25 15.91 11.59 16.25 12 16.25C12.41 16.25 12.75 15.91 12.75 15.5V12.87C13.2561 12.7128 13.6987 12.3982 14.0135 11.9719C14.3283 11.5456 14.4987 11.0299 14.5 10.5Z" fill="black"/>
</svg>
