<svg width="24" height="24" viewBox="0 0 24 24" fill="none" xmlns="http://www.w3.org/2000/svg">
<path d="M11.998 22.7609C10.908 22.7609 9.82799 22.4409 8.97799 21.8109L4.67799 18.6009C3.53799 17.7509 2.64799 15.9809 2.64799 14.5609V7.12092C2.64799 5.58092 3.778 3.94092 5.228 3.40092L10.218 1.53092C11.208 1.16092 12.768 1.16092 13.758 1.53092L18.758 3.40092C20.208 3.94092 21.338 5.58092 21.338 7.12092V14.5509C21.338 15.9709 20.448 17.7409 19.308 18.5909L15.008 21.8009C14.168 22.4409 13.088 22.7609 11.998 22.7609ZM10.748 2.94092L5.75799 4.81092C4.89799 5.13092 4.14799 6.21092 4.14799 7.13092V14.5609C4.14799 15.5109 4.81799 16.8409 5.56799 17.4009L9.868 20.6109C11.018 21.4709 12.968 21.4709 14.118 20.6109L18.418 17.4009C19.178 16.8309 19.838 15.5009 19.838 14.5609V7.12092C19.838 6.21092 19.088 5.13092 18.228 4.80092L13.238 2.93092C12.578 2.69092 11.418 2.69092 10.748 2.94092Z" fill="black"/>
<path d="M12 13.25C10.48 13.25 9.25 12.02 9.25 10.5C9.25 8.98 10.48 7.75 12 7.75C13.52 7.75 14.75 8.98 14.75 10.5C14.75 12.02 13.52 13.25 12 13.25ZM12 9.25C11.6685 9.25 11.3505 9.3817 11.1161 9.61612C10.8817 9.85054 10.75 10.1685 10.75 10.5C10.75 10.8315 10.8817 11.1495 11.1161 11.3839C11.3505 11.6183 11.6685 11.75 12 11.75C12.3315 11.75 12.6495 11.6183 12.8839 11.3839C13.1183 11.1495 13.25 10.8315 13.25 10.5C13.25 10.1685 13.1183 9.85054 12.8839 9.61612C12.6495 9.3817 12.3315 9.25 12 9.25Z" fill="black"/>
<path d="M12 16.25C11.59 16.25 11.25 15.91 11.25 15.5V12.5C11.25 12.09 11.59 11.75 12 11.75C12.41 11.75 12.75 12.09 12.75 12.5V15.5C12.75 15.91 12.41 16.25 12 16.25Z" fill="black"/>
</svg>
