<svg width="24" height="24" viewBox="0 0 24 24" fill="none" xmlns="http://www.w3.org/2000/svg">
<path d="M10.49 2.22908L5.5 4.10908C4.35 4.53908 3.41 5.89908 3.41 7.11908V14.5491C3.41 15.7291 4.19 17.2791 5.14 17.9891L9.44 21.1991C10.85 22.2591 13.17 22.2591 14.58 21.1991L18.88 17.9891C19.83 17.2791 20.61 15.7291 20.61 14.5491V7.11908C20.61 5.88908 19.67 4.52908 18.52 4.09908L13.53 2.22908C12.68 1.91908 11.32 1.91908 10.49 2.22908Z" stroke="black" stroke-width="1.5" stroke-linecap="round" stroke-linejoin="round"/>
<g opacity="0.4">
<path d="M12 12.5C12.5304 12.5 13.0391 12.2893 13.4142 11.9142C13.7893 11.5391 14 11.0304 14 10.5C14 9.96957 13.7893 9.46086 13.4142 9.08579C13.0391 8.71071 12.5304 8.5 12 8.5C11.4696 8.5 10.9609 8.71071 10.5858 9.08579C10.2107 9.46086 10 9.96957 10 10.5C10 11.0304 10.2107 11.5391 10.5858 11.9142C10.9609 12.2893 11.4696 12.5 12 12.5ZM12 12.5V15.5" stroke="black" stroke-width="1.5" stroke-miterlimit="10" stroke-linecap="round" stroke-linejoin="round"/>
</g>
</svg>
