<svg width="24" height="24" viewBox="0 0 24 24" fill="none" xmlns="http://www.w3.org/2000/svg">
<path d="M12 22.43C11.52 22.43 11.05 22.32 10.66 22.11L3.66 18.22C2.85 17.77 2.25 16.74 2.25 15.82V8.18001C2.25 7.26001 2.86 6.22001 3.67 5.78001L10.67 1.89001C11.43 1.47001 12.58 1.47001 13.34 1.89001L20.34 5.78001C21.15 6.23001 21.75 7.26001 21.75 8.18001V15.83C21.75 16.75 21.14 17.79 20.33 18.23L13.33 22.12C12.96 22.33 12.48 22.43 12 22.43ZM12 3.07001C11.77 3.07001 11.55 3.11001 11.39 3.20001L4.39 7.09001C4.06 7.27001 3.75 7.80001 3.75 8.18001V15.83C3.75 16.21 4.06 16.74 4.39 16.92L11.39 20.81C11.7 20.98 12.3 20.98 12.6 20.81L19.6 16.92C19.93 16.74 20.24 16.21 20.24 15.83V8.18001C20.24 7.80001 19.93 7.27001 19.6 7.09001L12.6 3.20001C12.45 3.11001 12.23 3.07001 12 3.07001Z" fill="black"/>
</svg>
