<svg width="24" height="24" viewBox="0 0 24 24" fill="none" xmlns="http://www.w3.org/2000/svg">
<path d="M16.19 2H7.81C4.17 2 2 4.17 2 7.81V16.18C2 19.83 4.17 22 7.81 22H16.18C19.82 22 21.99 19.83 21.99 16.19V7.81C22 4.17 19.83 2 16.19 2ZM16.82 14.24L12.53 18.53C12.3894 18.6705 12.1988 18.7493 12 18.7493C11.8012 18.7493 11.6106 18.6705 11.47 18.53L7.18 14.24C7.04052 14.0989 6.9623 13.9084 6.9623 13.71C6.9623 13.5116 7.04052 13.3211 7.18 13.18C7.47 12.89 7.95 12.89 8.24 13.18L11.25 16.19V6C11.25 5.59 11.59 5.25 12 5.25C12.41 5.25 12.75 5.59 12.75 6V16.19L15.76 13.18C16.05 12.89 16.53 12.89 16.82 13.18C16.97 13.33 17.04 13.52 17.04 13.71C17.04 13.9 16.96 14.1 16.82 14.24Z" fill="black"/>
</svg>
