<svg width="24" height="24" viewBox="0 0 24 24" fill="none" xmlns="http://www.w3.org/2000/svg">
<path d="M9.032 14.002C8.642 13.432 8.422 12.742 8.422 12.002C8.422 10.022 10.022 8.422 12.002 8.422C13.982 8.422 15.582 10.022 15.582 12.002C15.582 13.982 13.982 15.582 12.002 15.582" stroke="black" stroke-width="1.5" stroke-linecap="round" stroke-linejoin="round"/>
<path d="M17.56 5.57998C15.87 4.37998 13.97 3.72998 12 3.72998C8.47 3.72998 5.18 5.80998 2.89 9.40998C1.99 10.82 1.99 13.19 2.89 14.6C5.18 18.2 8.47 20.28 12 20.28C15.53 20.28 18.82 18.2 21.11 14.6C22.01 13.19 22.01 10.82 21.11 9.40998" stroke="black" stroke-width="1.5" stroke-linecap="round" stroke-linejoin="round"/>
</svg>
