<svg width="24" height="24" viewBox="0 0 24 24" fill="none" xmlns="http://www.w3.org/2000/svg">
<path opacity="0.4" d="M21.25 9.15005C18.94 5.52005 15.56 3.43005 12 3.43005C10.22 3.43005 8.49 3.95005 6.91 4.92005C5.33 5.90005 3.91 7.33005 2.75 9.15005C1.75 10.7201 1.75 13.2701 2.75 14.8401C5.06 18.4801 8.44 20.5601 12 20.5601C13.78 20.5601 15.51 20.0401 17.09 19.0701C18.67 18.0901 20.09 16.6601 21.25 14.8401C22.25 13.2801 22.25 10.7201 21.25 9.15005ZM12 16.0401C9.76 16.0401 7.96 14.2301 7.96 12.0001C7.96 9.77005 9.76 7.96005 12 7.96005C14.24 7.96005 16.04 9.77005 16.04 12.0001C16.04 14.2301 14.24 16.0401 12 16.0401Z" fill="black"/>
<path d="M11.998 9.14001C11.2408 9.14001 10.5146 9.44081 9.97921 9.97622C9.44379 10.5116 9.143 11.2378 9.143 11.995C9.143 12.7522 9.44379 13.4784 9.97921 14.0138C10.5146 14.5492 11.2408 14.85 11.998 14.85C13.568 14.85 14.858 13.57 14.858 12C14.858 10.43 13.568 9.14001 11.998 9.14001Z" fill="black"/>
</svg>
