<svg width="24" height="24" viewBox="0 0 24 24" fill="none" xmlns="http://www.w3.org/2000/svg">
<path opacity="0.4" d="M15.582 12.002C15.582 13.982 13.982 15.582 12.002 15.582C10.022 15.582 8.422 13.982 8.422 12.002C8.422 10.022 10.022 8.422 12.002 8.422C13.982 8.422 15.582 10.022 15.582 12.002Z" stroke="black" stroke-width="1.5" stroke-linecap="round" stroke-linejoin="round"/>
<path d="M12 20.269C15.53 20.269 18.82 18.189 21.11 14.589C22.01 13.179 22.01 10.809 21.11 9.39899C18.82 5.79899 15.53 3.71899 12 3.71899C8.47 3.71899 5.18 5.79899 2.89 9.39899C1.99 10.809 1.99 13.179 2.89 14.589C5.18 18.189 8.47 20.269 12 20.269Z" stroke="black" stroke-width="1.5" stroke-linecap="round" stroke-linejoin="round"/>
</svg>
