<svg width="24" height="24" viewBox="0 0 24 24" fill="none" xmlns="http://www.w3.org/2000/svg">
<path d="M5 15C4.06 15 3.19 15.33 2.5 15.88C2.03061 16.2531 1.6518 16.7276 1.39201 17.2679C1.13222 17.8083 0.998201 18.4005 1 19C1 21.21 2.79 23 5 23C5.97229 22.9987 6.91079 22.6432 7.64 22C8.47 21.27 9 20.2 9 19C9 16.79 7.21 15 5 15ZM6 19.25C6 19.51 5.86 19.76 5.64 19.89L4.39 20.64C4.27 20.72 4.13 20.75 4 20.75C3.75 20.75 3.5 20.62 3.36 20.39C3.15 20.03 3.26 19.5701 3.62 19.3601L4.51 18.83V17.75C4.50868 17.652 4.52684 17.5547 4.56344 17.4638C4.60003 17.3729 4.65433 17.2901 4.72318 17.2203C4.79202 17.1505 4.87405 17.0951 4.96449 17.0573C5.05493 17.0195 5.15198 17 5.25 17C5.66 17 6 17.34 6 17.75V19.25ZM14.85 3.95005V7.75005H13.35V3.95005C13.35 3.68005 13.11 3.55005 12.95 3.55005C12.9 3.55005 12.85 3.56005 12.8 3.58005L4.87 6.57005C4.34 6.77005 4 7.27005 4 7.84005V8.51005C3.09 9.19005 2.5 10.28 2.5 11.51V7.84005C2.5 6.65005 3.23 5.59005 4.34 5.17005L12.28 2.17005C12.5 2.09005 12.73 2.05005 12.95 2.05005C13.95 2.05005 14.85 2.86005 14.85 3.95005ZM21.5 14.5V15.5C21.5 15.6309 21.4487 15.7566 21.3571 15.8501C21.2655 15.9436 21.1409 15.9974 21.01 16H19.55C19.02 16 18.54 15.61 18.5 15.09C18.47 14.78 18.59 14.49 18.79 14.29C18.8805 14.1963 18.9894 14.1221 19.1098 14.0722C19.2303 14.0223 19.3597 13.9978 19.49 14H21C21.29 14.01 21.5 14.23 21.5 14.5Z" fill="black"/>
<path d="M19.48 12.95H20.5C21.05 12.95 21.5 12.5 21.5 11.95V11.51C21.5 9.44 19.81 7.75 17.74 7.75H6.26C5.41 7.75 4.63 8.03 4 8.51C3.09 9.19 2.5 10.28 2.5 11.51V13.29C2.5 13.67 2.9 13.91 3.26 13.79C3.82 13.6 4.41 13.5 5 13.5C8.03 13.5 10.5 15.97 10.5 19C10.5 19.72 10.31 20.51 10.01 21.21C9.85 21.57 10.1 22 10.49 22H17.74C19.81 22 21.5 20.31 21.5 18.24V18.05C21.5 17.5 21.05 17.05 20.5 17.05H19.63C18.67 17.05 17.75 16.46 17.5 15.53C17.3 14.77 17.54 14.03 18.04 13.55C18.41 13.17 18.92 12.95 19.48 12.95ZM14 12.75H9C8.59 12.75 8.25 12.41 8.25 12C8.25 11.59 8.59 11.25 9 11.25H14C14.41 11.25 14.75 11.59 14.75 12C14.75 12.41 14.41 12.75 14 12.75Z" fill="black"/>
</svg>
