<svg width="24" height="24" viewBox="0 0 24 24" fill="none" xmlns="http://www.w3.org/2000/svg">
<path d="M5 15C4.06 15 3.19 15.33 2.5 15.88C2.0306 16.253 1.6518 16.7275 1.39201 17.2679C1.13222 17.8083 0.998197 18.4004 0.999999 19C0.999999 21.21 2.79 23 5 23C5.97229 22.9986 6.91078 22.6431 7.64 22C8.47 21.27 9 20.2 9 19C9 16.79 7.21 15 5 15ZM6 19.25C6 19.51 5.86 19.76 5.64 19.89L4.39 20.64C4.27 20.71 4.14 20.75 4 20.75C3.75 20.75 3.5 20.62 3.36 20.39C3.15 20.03 3.26 19.57 3.62 19.36L4.51 18.83V17.75C4.51 17.34 4.85 17 5.26 17C5.67 17 6.01 17.34 6.01 17.75V19.25H6Z" fill="black"/>
<path opacity="0.4" d="M19.48 12.95H21.5V11.51C21.5 9.44 19.81 7.75 17.74 7.75H6.26C4.19 7.75 2.5 9.44 2.5 11.51V15.88C3.088 15.4087 3.79718 15.1132 4.54584 15.0274C5.29449 14.9416 6.05215 15.0691 6.73149 15.3952C7.41084 15.7213 7.98422 16.2327 8.38558 16.8705C8.78693 17.5083 8.99992 18.2464 9 19C9 19.75 8.79 20.46 8.42 21.06C8.21 21.42 7.94 21.74 7.63 22H17.74C19.81 22 21.5 20.31 21.5 18.24V17.05H19.6C18.52 17.05 17.53 16.26 17.44 15.18C17.38 14.55 17.62 13.96 18.04 13.55C18.41 13.17 18.92 12.95 19.48 12.95Z" fill="black"/>
<path d="M14.85 3.95205V7.75205H6.26C4.19 7.75205 2.5 9.44205 2.5 11.512V7.84205C2.5 6.65205 3.23 5.59205 4.34 5.17205L12.28 2.17205C13.52 1.71205 14.85 2.62205 14.85 3.95205ZM22.559 13.97V16.0301C22.559 16.5801 22.119 17.03 21.559 17.05H19.599C18.519 17.05 17.529 16.26 17.439 15.18C17.379 14.55 17.619 13.96 18.039 13.55C18.409 13.17 18.919 12.95 19.479 12.95H21.559C22.119 12.97 22.559 13.42 22.559 13.97ZM14 12.75H7C6.59 12.75 6.25 12.41 6.25 12C6.25 11.59 6.59 11.25 7 11.25H14C14.41 11.25 14.75 11.59 14.75 12C14.75 12.41 14.41 12.75 14 12.75Z" fill="black"/>
</svg>
