<svg width="24" height="24" viewBox="0 0 24 24" fill="none" xmlns="http://www.w3.org/2000/svg">
<path d="M18.04 13.55C17.62 13.96 17.38 14.55 17.44 15.18C17.53 16.26 18.52 17.05 19.6 17.05H21.5V18.24C21.5 20.31 19.81 22 17.74 22H7.64C8.47 21.27 9 20.2 9 19C8.99992 18.2464 8.78693 17.5083 8.38558 16.8705C7.98422 16.2327 7.41084 15.7213 6.73149 15.3952C6.05215 15.0691 5.29449 14.9416 4.54584 15.0274C3.79718 15.1132 3.088 15.4087 2.5 15.88V11.51C2.5 9.44 4.19 7.75 6.26 7.75H17.74C19.81 7.75 21.5 9.44 21.5 11.51V12.95H19.48C18.92 12.95 18.41 13.17 18.04 13.55Z" stroke="black" stroke-width="1.5" stroke-linecap="round" stroke-linejoin="round"/>
<path d="M2.5 11.51V7.83997C2.5 6.64997 3.23 5.58997 4.34 5.16997L12.28 2.16997C13.52 1.70997 14.85 2.61997 14.85 3.94997V7.74997M7 12H14M22.559 13.97V16.03C22.559 16.58 22.119 17.03 21.559 17.05H19.599C18.519 17.05 17.529 16.26 17.439 15.18C17.379 14.55 17.619 13.96 18.039 13.55C18.409 13.17 18.919 12.95 19.479 12.95H21.559C22.119 12.97 22.559 13.42 22.559 13.97Z" stroke="black" stroke-width="1.5" stroke-linecap="round" stroke-linejoin="round"/>
<path d="M9 19.0001C9 20.2001 8.47 21.2701 7.64 22.0001C6.91078 22.6432 5.97229 22.9987 5 23.0001C2.79 23.0001 1 21.2101 1 19.0001C1 17.7401 1.58 16.6101 2.5 15.8801C3.088 15.4088 3.79718 15.1132 4.54584 15.0275C5.29449 14.9417 6.05215 15.0692 6.73149 15.3953C7.41084 15.7214 7.98422 16.2328 8.38558 16.8705C8.78693 17.5083 8.99992 18.2465 9 19.0001Z" stroke="black" stroke-width="1.5" stroke-miterlimit="10" stroke-linecap="round" stroke-linejoin="round"/>
<path d="M5.25 17.75V19.25L4 20" stroke="black" stroke-width="1.5" stroke-miterlimit="10" stroke-linecap="round" stroke-linejoin="round"/>
</svg>
