<svg width="24" height="24" viewBox="0 0 24 24" fill="none" xmlns="http://www.w3.org/2000/svg">
<path d="M17.74 22.748H7.64C7.33 22.748 7.05 22.558 6.94 22.258C6.83 21.958 6.91 21.638 7.15 21.428C7.85 20.808 8.26 19.918 8.26 18.988C8.26 17.198 6.8 15.738 5.01 15.738C4.27 15.738 3.57 15.988 2.98 16.458C2.86998 16.5465 2.73708 16.6018 2.59682 16.6175C2.45656 16.6332 2.31471 16.6087 2.18785 16.5468C2.06099 16.485 1.95433 16.3883 1.88035 16.2681C1.80636 16.1479 1.76809 16.0092 1.77 15.868V11.498C1.77 9.00804 3.79 6.98804 6.28 6.98804H17.76C20.25 6.98804 22.27 9.00804 22.27 11.498V12.938C22.27 13.348 21.93 13.688 21.52 13.688H19.5C19.15 13.688 18.83 13.818 18.6 14.058L18.59 14.068C18.31 14.338 18.18 14.708 18.21 15.088C18.27 15.748 18.9 16.278 19.62 16.278H21.52C21.93 16.278 22.27 16.618 22.27 17.028V18.218C22.25 20.728 20.23 22.748 17.74 22.748ZM9.18 21.248H17.74C19.4 21.248 20.75 19.898 20.75 18.238V17.798H19.6C18.09 17.798 16.81 16.678 16.69 15.238C16.61 14.418 16.91 13.608 17.51 13.018C18.03 12.488 18.73 12.198 19.48 12.198H20.75V11.508C20.75 9.84804 19.4 8.49804 17.74 8.49804H6.26C4.6 8.49804 3.25 9.84804 3.25 11.508V14.588C3.80685 14.366 4.4005 14.2506 5 14.248C7.62 14.248 9.75 16.378 9.75 18.998C9.75 19.788 9.55 20.568 9.18 21.248Z" fill="black"/>
<path d="M2.5 12.2599C2.09 12.2599 1.75 11.9199 1.75 11.5099V7.83995C1.75 6.34995 2.68 4.98995 4.07 4.46995L12.01 1.46995C12.83 1.16995 13.75 1.27995 14.46 1.77995C15.17 2.27995 15.6 3.08995 15.6 3.94995V7.74995C15.6 8.15995 15.26 8.49995 14.85 8.49995C14.44 8.49995 14.1 8.15995 14.1 7.74995V3.94995C14.1 3.56995 13.92 3.22995 13.61 3.00995C13.29 2.78995 12.9 2.73995 12.54 2.86995L4.6 5.86995C3.78 6.17995 3.25 6.94995 3.25 7.83995V11.5099C3.25 11.9199 2.91 12.2599 2.5 12.2599ZM19.599 17.7999C18.089 17.7999 16.809 16.6799 16.689 15.2399C16.609 14.4099 16.909 13.5999 17.509 13.0099C18.019 12.4899 18.719 12.1999 19.469 12.1999H21.549C22.539 12.2299 23.299 13.0099 23.299 13.9699V16.0299C23.299 16.9899 22.539 17.7699 21.579 17.7999H19.599ZM21.529 13.6999H19.479C19.129 13.6999 18.809 13.8299 18.579 14.0699C18.289 14.3499 18.149 14.7299 18.189 15.1099C18.249 15.7699 18.879 16.2999 19.599 16.2999H21.559C21.689 16.2999 21.809 16.1799 21.809 16.0299V13.9699C21.809 13.8199 21.689 13.7099 21.529 13.6999ZM14 12.7499H7C6.59 12.7499 6.25 12.4099 6.25 11.9999C6.25 11.5899 6.59 11.2499 7 11.2499H14C14.41 11.2499 14.75 11.5899 14.75 11.9999C14.75 12.4099 14.41 12.7499 14 12.7499ZM5 23.7499C2.38 23.7499 0.25 21.6199 0.25 18.9999C0.25 17.5399 0.9 16.1899 2.03 15.2899C2.87 14.6199 3.93 14.2499 5 14.2499C7.62 14.2499 9.75 16.3799 9.75 18.9999C9.74788 20.2591 9.24676 21.466 8.35642 22.3564C7.46608 23.2467 6.25913 23.7478 5 23.7499ZM5 15.7499C4.26 15.7499 3.56 15.9999 2.97 16.4699C2.2 17.0799 1.75 18.0099 1.75 18.9999C1.75 20.7899 3.21 22.2499 5 22.2499C5.78 22.2499 6.54 21.9599 7.15 21.4399C7.85 20.8199 8.25 19.9399 8.25 18.9999C8.25 17.2099 6.79 15.7499 5 15.7499Z" fill="black"/>
<path d="M4 20.75C3.75 20.75 3.5 20.62 3.36 20.39C3.15 20.03 3.26 19.57 3.62 19.36L4.51 18.83V17.75C4.51 17.34 4.85 17 5.26 17C5.67 17 6.01 17.34 6.01 17.75V19.25C6.01 19.51 5.87 19.76 5.65 19.89L4.4 20.64C4.27 20.72 4.13 20.75 4 20.75Z" fill="black"/>
</svg>
