<svg width="24" height="24" viewBox="0 0 24 24" fill="none" xmlns="http://www.w3.org/2000/svg">
<path d="M8 21.75H7.95C7.76013 21.7366 7.58239 21.6518 7.45251 21.5127C7.32264 21.3735 7.25029 21.1903 7.25 21C7.25 20.43 7.32 19.9 7.47 19.41L9.26 6.89C9.32 6.48 9.7 6.2 10.11 6.25C10.52 6.31 10.81 6.69 10.75 7.1L9.33 17.01C10.57 16.26 11.92 16.25 12 16.25C15.72 16.25 18.75 13.22 18.75 9.5C18.75 5.78 15.72 2.75 12 2.75C8.28 2.75 5.25 5.78 5.25 9.5C5.25 10.6 5.52 11.69 6.03 12.65C6.22 13.02 6.08 13.47 5.72 13.66C5.35 13.85 4.9 13.71 4.71 13.35C4.08718 12.1622 3.76122 10.8412 3.76 9.5C3.76 4.95 7.46 1.25 12.01 1.25C16.56 1.25 20.26 4.95 20.26 9.5C20.26 14.05 16.56 17.75 12.01 17.75C11.92 17.75 9.8 17.79 9.04 19.5C9.01 19.58 8.97 19.66 8.95 19.74L8.76 21.1C8.72955 21.2802 8.63678 21.444 8.49788 21.5628C8.35897 21.6816 8.18276 21.7479 8 21.75Z" fill="black"/>
<path opacity="0.4" d="M14 21.9989C13.74 21.9989 13.48 21.8889 13.29 21.7089C13.11 21.5189 13 21.2589 13 20.9989C13 20.8689 13.03 20.7389 13.08 20.6189C13.13 20.4889 13.2 20.3889 13.29 20.2889C13.57 20.0089 14.01 19.9189 14.38 20.0789C14.51 20.1289 14.61 20.1989 14.71 20.2889C14.8 20.3889 14.87 20.4889 14.92 20.6189C14.97 20.7389 15 20.8689 15 20.9989C15 21.2589 14.89 21.5189 14.71 21.7089C14.61 21.7989 14.51 21.8689 14.38 21.9189C14.26 21.9689 14.13 21.9989 14 21.9989Z" fill="black"/>
</svg>
