<svg width="24" height="24" viewBox="0 0 24 24" fill="none" xmlns="http://www.w3.org/2000/svg">
<path d="M7.99999 21.75H7.94999C7.76013 21.7366 7.58238 21.6518 7.45251 21.5127C7.32264 21.3735 7.25028 21.1903 7.24999 21C7.24999 20.43 7.31999 19.9 7.46999 19.41L9.25999 6.89C9.31999 6.48 9.69999 6.2 10.11 6.25C10.52 6.31 10.81 6.69 10.75 7.1L9.32999 17.01C10.57 16.26 11.92 16.25 12 16.25C15.72 16.25 18.75 13.22 18.75 9.5C18.75 5.78 15.72 2.75 12 2.75C8.27999 2.75 5.24999 5.78 5.24999 9.5C5.24999 10.6 5.51999 11.69 6.02999 12.65C6.21999 13.02 6.07999 13.47 5.71999 13.66C5.34999 13.85 4.89999 13.71 4.70999 13.35C4.08717 12.1622 3.76122 10.8412 3.75999 9.5C3.75999 4.95 7.45999 1.25 12.01 1.25C16.56 1.25 20.26 4.95 20.26 9.5C20.26 14.05 16.56 17.75 12.01 17.75C11.92 17.75 9.79999 17.79 9.03999 19.5C9.00999 19.58 8.96999 19.66 8.94999 19.74L8.75999 21.1C8.72954 21.2802 8.63677 21.444 8.49787 21.5628C8.35897 21.6816 8.18276 21.7479 7.99999 21.75ZM14 21.999C13.74 21.999 13.48 21.889 13.29 21.709C13.11 21.519 13 21.259 13 20.999C13 20.869 13.03 20.739 13.08 20.619C13.13 20.489 13.2 20.389 13.29 20.289C13.57 20.009 14.01 19.919 14.38 20.079C14.51 20.129 14.61 20.199 14.71 20.289C14.8 20.389 14.87 20.489 14.92 20.619C14.97 20.739 15 20.869 15 20.999C15 21.259 14.89 21.519 14.71 21.709C14.61 21.799 14.51 21.869 14.38 21.919C14.26 21.969 14.13 21.999 14 21.999Z" fill="black"/>
</svg>
