<svg width="24" height="24" viewBox="0 0 24 24" fill="none" xmlns="http://www.w3.org/2000/svg">
<path d="M12.16 10.8702C12.06 10.8602 11.94 10.8602 11.83 10.8702C10.6822 10.8313 9.59464 10.3471 8.79763 9.52019C8.00062 8.69332 7.55674 7.58869 7.56 6.44023C7.56 3.99023 9.54 2.00023 12 2.00023C12.5824 1.98973 13.1612 2.09404 13.7033 2.30721C14.2454 2.52039 14.7402 2.83825 15.1595 3.24265C15.5787 3.64705 15.9142 4.13006 16.1468 4.66412C16.3794 5.19818 16.5045 5.77282 16.515 6.35523C16.5255 6.93765 16.4212 7.51642 16.208 8.05852C15.9948 8.60062 15.677 9.09543 15.2726 9.51468C14.8682 9.93394 14.3852 10.2694 13.8511 10.502C13.3171 10.7346 12.7424 10.8597 12.16 10.8702ZM7.16 14.5602C4.74 16.1802 4.74 18.8202 7.16 20.4302C9.91 22.2702 14.42 22.2702 17.17 20.4302C19.59 18.8102 19.59 16.1702 17.17 14.5602C14.43 12.7302 9.92 12.7302 7.16 14.5602Z" stroke="black" stroke-width="1.5" stroke-linecap="round" stroke-linejoin="round"/>
</svg>
