<svg width="24" height="24" viewBox="0 0 24 24" fill="none" xmlns="http://www.w3.org/2000/svg">
<path opacity="0.4" d="M12.159 10.8702C12.059 10.8602 11.939 10.8602 11.829 10.8702C10.6812 10.8313 9.59364 10.3471 8.79663 9.52019C7.99962 8.69332 7.55574 7.58869 7.559 6.44023C7.559 3.99023 9.539 2.00023 11.999 2.00023C13.1752 1.97902 14.3117 2.42593 15.1585 3.24265C16.0052 4.05937 16.4928 5.179 16.514 6.35523C16.5352 7.53147 16.0883 8.66796 15.2716 9.51468C14.4549 10.3614 13.3352 10.849 12.159 10.8702Z" stroke="black" stroke-width="1.5" stroke-linecap="round" stroke-linejoin="round"/>
<path d="M7.159 14.56C4.739 16.18 4.739 18.82 7.159 20.43C9.909 22.27 14.419 22.27 17.169 20.43C19.589 18.81 19.589 16.17 17.169 14.56C14.429 12.73 9.919 12.73 7.159 14.56Z" stroke="black" stroke-width="1.5" stroke-linecap="round" stroke-linejoin="round"/>
</svg>
