<svg width="24" height="24" viewBox="0 0 24 24" fill="none" xmlns="http://www.w3.org/2000/svg">
<path d="M14.54 1.87909C13.31 1.87909 12.31 2.87909 12.31 4.10909V8.74909C12.31 9.97909 13.31 10.9791 14.54 10.9791C15.77 10.9791 16.77 9.97909 16.77 8.74909V4.10909C16.77 2.88909 15.77 1.87909 14.54 1.87909ZM20.18 7.11009C19.11 7.11009 18.24 7.98009 18.24 9.05009V10.6201C18.24 10.8301 18.41 11.0001 18.62 11.0001H20.19C21.26 11.0001 22.13 10.1301 22.13 9.06009C22.13 7.99009 21.25 7.11009 20.18 7.11009ZM8.5 6.98809H3.86C2.63 6.98809 1.63 7.98809 1.63 9.21809C1.63 10.4481 2.63 11.4481 3.86 11.4481H8.5C9.73 11.4481 10.73 10.4481 10.73 9.21809C10.73 7.98809 9.73 6.98809 8.5 6.98809ZM8.79 1.62109C7.72 1.62109 6.85 2.49109 6.85 3.56109C6.85 4.63109 7.72 5.50109 8.79 5.50109H10.36C10.57 5.50109 10.74 5.33109 10.74 5.12109V3.55109C10.7316 3.03838 10.5229 2.5493 10.1584 2.18858C9.79397 1.82786 9.30277 1.62416 8.79 1.62109ZM9.43 13.0311C8.2 13.0311 7.2 14.0311 7.2 15.2611V19.9011C7.2 21.1311 8.2 22.1311 9.43 22.1311C10.66 22.1311 11.66 21.1311 11.66 19.9011V15.2611C11.66 14.0311 10.66 13.0311 9.43 13.0311ZM5.36 13.0311H3.79C2.72 13.0311 1.85 13.9011 1.85 14.9711C1.85 16.0411 2.72 16.9111 3.79 16.9111C4.86 16.9111 5.73 16.0411 5.73 14.9711V13.4011C5.73 13.2011 5.56 13.0311 5.36 13.0311ZM20.11 12.5701H15.47C14.24 12.5701 13.24 13.5701 13.24 14.8001C13.24 16.0301 14.24 17.0301 15.47 17.0301H20.11C21.34 17.0301 22.34 16.0301 22.34 14.8001C22.34 13.5701 21.34 12.5701 20.11 12.5701ZM15.18 18.4691H13.61C13.5092 18.4691 13.4126 18.5091 13.3413 18.5804C13.27 18.6517 13.23 18.7483 13.23 18.8491V20.4191C13.23 21.4891 14.1 22.3591 15.17 22.3591C16.24 22.3591 17.11 21.4891 17.11 20.4191C17.1126 20.164 17.0647 19.9108 16.9689 19.6744C16.8731 19.4379 16.7313 19.2228 16.5518 19.0414C16.3724 18.8601 16.1587 18.7161 15.9232 18.6179C15.6878 18.5197 15.4351 18.4691 15.18 18.4691Z" fill="black"/>
</svg>
