<svg width="24" height="24" viewBox="0 0 24 24" fill="none" xmlns="http://www.w3.org/2000/svg">
<path d="M3.86 7.37079C2.83 7.37079 2 8.20079 2 9.23079C2 10.2608 2.83 11.0908 3.86 11.0908H8.5C9.53 11.0908 10.36 10.2608 10.36 9.23079C10.36 8.20079 9.53 7.37079 8.5 7.37079H7.75M14.54 2.26179C13.51 2.26179 12.68 3.09179 12.68 4.12179V8.76179C12.68 9.79179 13.51 10.6218 14.54 10.6218C15.57 10.6218 16.4 9.79179 16.4 8.76179V4.12179C16.4 3.09179 15.57 2.26179 14.54 2.26179ZM18.62 10.6198H20.19C21.06 10.6198 21.76 9.91979 21.76 9.04979C21.76 8.17979 21.06 7.47979 20.19 7.47979C19.32 7.47979 18.62 8.17979 18.62 9.04979V10.6198ZM10.36 5.12779V3.55779C10.36 2.68779 9.66 1.98779 8.79 1.98779C7.92 1.98779 7.22 2.68779 7.22 3.55779C7.22 4.42779 7.92 5.12779 8.79 5.12779H10.36ZM9.43 21.7698C10.46 21.7698 11.29 20.9398 11.29 19.9098V15.2698C11.29 14.2398 10.46 13.4098 9.43 13.4098C8.4 13.4098 7.57 14.2398 7.57 15.2698V19.9098C7.57 20.9298 8.4 21.7698 9.43 21.7698ZM5.36 13.4098H3.79C2.92 13.4098 2.22 14.1098 2.22 14.9798C2.22 15.8498 2.92 16.5498 3.79 16.5498C4.66 16.5498 5.36 15.8498 5.36 14.9798V13.4098ZM21.97 14.8008C21.97 13.7708 21.14 12.9408 20.11 12.9408H15.47C14.44 12.9408 13.61 13.7708 13.61 14.8008C13.61 15.8308 14.44 16.6608 15.47 16.6608H20.11C21.14 16.6608 21.97 15.8308 21.97 14.8008ZM13.61 18.8398V20.4098C13.61 21.2798 14.31 21.9798 15.18 21.9798C16.05 21.9798 16.75 21.2798 16.75 20.4098C16.75 19.5398 16.05 18.8398 15.18 18.8398H13.61Z" stroke="black" stroke-width="1.5" stroke-miterlimit="10" stroke-linecap="round" stroke-linejoin="round"/>
</svg>
