<svg width="24" height="24" viewBox="0 0 24 24" fill="none" xmlns="http://www.w3.org/2000/svg">
<path d="M14.54 1.87891C13.31 1.87891 12.31 2.87891 12.31 4.10891V8.74891C12.31 9.97891 13.31 10.9789 14.54 10.9789C15.77 10.9789 16.77 9.97891 16.77 8.74891V4.10891C16.77 2.88891 15.77 1.87891 14.54 1.87891Z" fill="black"/>
<path opacity="0.4" d="M20.18 7.10986C19.11 7.10986 18.24 7.97986 18.24 9.04986V10.6199C18.24 10.8299 18.41 10.9999 18.62 10.9999H20.19C21.26 10.9999 22.13 10.1299 22.13 9.05986C22.13 7.98986 21.25 7.10986 20.18 7.10986Z" fill="black"/>
<path d="M8.5 6.98779H3.86C2.63 6.98779 1.63 7.98779 1.63 9.21779C1.63 10.4478 2.63 11.4478 3.86 11.4478H8.5C9.73 11.4478 10.73 10.4478 10.73 9.21779C10.73 7.98779 9.73 6.98779 8.5 6.98779Z" fill="black"/>
<path opacity="0.4" d="M8.79 1.62109C7.72 1.62109 6.85 2.49109 6.85 3.56109C6.85 4.63109 7.72 5.50109 8.79 5.50109H10.36C10.57 5.50109 10.74 5.33109 10.74 5.12109V3.55109C10.7316 3.03838 10.5229 2.5493 10.1584 2.18858C9.79397 1.82786 9.30278 1.62416 8.79 1.62109Z" fill="black"/>
<path d="M9.43 13.0308C8.2 13.0308 7.2 14.0308 7.2 15.2608V19.9008C7.2 21.1308 8.2 22.1308 9.43 22.1308C10.66 22.1308 11.66 21.1308 11.66 19.9008V15.2608C11.66 14.0308 10.66 13.0308 9.43 13.0308Z" fill="black"/>
<path opacity="0.4" d="M5.36 13.0308H3.79C2.72 13.0308 1.85 13.9008 1.85 14.9708C1.85 16.0408 2.72 16.9108 3.79 16.9108C4.86 16.9108 5.73 16.0408 5.73 14.9708V13.4008C5.73 13.2008 5.56 13.0308 5.36 13.0308Z" fill="black"/>
<path d="M20.11 12.5698H15.47C14.24 12.5698 13.24 13.5698 13.24 14.7998C13.24 16.0298 14.24 17.0298 15.47 17.0298H20.11C21.34 17.0298 22.34 16.0298 22.34 14.7998C22.34 13.5698 21.34 12.5698 20.11 12.5698Z" fill="black"/>
<path opacity="0.4" d="M15.18 18.4692H13.61C13.5092 18.4692 13.4126 18.5093 13.3413 18.5805C13.27 18.6518 13.23 18.7485 13.23 18.8492V20.4192C13.23 21.4892 14.1 22.3592 15.17 22.3592C16.24 22.3592 17.11 21.4892 17.11 20.4192C17.1126 20.1641 17.0647 19.911 16.9689 19.6745C16.8731 19.438 16.7313 19.2229 16.5518 19.0416C16.3724 18.8602 16.1587 18.7163 15.9232 18.618C15.6878 18.5198 15.4351 18.4692 15.18 18.4692Z" fill="black"/>
</svg>
