<svg width="24" height="24" viewBox="0 0 24 24" fill="none" xmlns="http://www.w3.org/2000/svg">
<path d="M14.54 11.3718C13.1 11.3718 11.93 10.2018 11.93 8.76179V4.12179C11.93 2.68179 13.1 1.51179 14.54 1.51179C15.98 1.51179 17.15 2.68179 17.15 4.12179V8.76179C17.15 10.2018 15.98 11.3718 14.54 11.3718ZM14.54 3.01179C13.93 3.01179 13.43 3.51179 13.43 4.12179V8.76179C13.43 9.37179 13.93 9.87179 14.54 9.87179C15.15 9.87179 15.65 9.37179 15.65 8.76179V4.12179C15.65 3.51179 15.15 3.01179 14.54 3.01179ZM20.18 11.3698H18.61C18.2 11.3698 17.86 11.0298 17.86 10.6198V9.04979C17.86 7.76979 18.9 6.72979 20.18 6.72979C21.46 6.72979 22.5 7.76979 22.5 9.04979C22.5 10.3298 21.46 11.3698 20.18 11.3698ZM19.37 9.86979H20.19C20.64 9.86979 21.01 9.49979 21.01 9.04979C21.01 8.59979 20.64 8.22979 20.19 8.22979C19.74 8.22979 19.37 8.59979 19.37 9.04979V9.86979ZM8.5 11.8298H3.86C2.42 11.8298 1.25 10.6598 1.25 9.21979C1.25 7.77979 2.42 6.60979 3.86 6.60979H8.5C9.94 6.60979 11.11 7.77979 11.11 9.21979C11.11 10.6598 9.94 11.8298 8.5 11.8298ZM3.86 8.11979C3.25 8.11979 2.75 8.61979 2.75 9.22979C2.75 9.83979 3.25 10.3398 3.86 10.3398H8.5C9.11 10.3398 9.61 9.83979 9.61 9.22979C9.61 8.61979 9.11 8.11979 8.5 8.11979H3.86ZM10.36 5.87779H8.79C7.51 5.87779 6.47 4.83779 6.47 3.55779C6.47 2.27779 7.51 1.23779 8.79 1.23779C10.07 1.23779 11.11 2.27779 11.11 3.55779V5.12779C11.11 5.54779 10.77 5.87779 10.36 5.87779ZM8.79 2.74779C8.34 2.74779 7.97 3.11779 7.97 3.56779C7.97 4.01779 8.34 4.38779 8.79 4.38779H9.61V3.56779C9.61 3.11779 9.24 2.74779 8.79 2.74779ZM9.43 22.5198C7.99 22.5198 6.82 21.3498 6.82 19.9098V15.2698C6.82 13.8298 7.99 12.6598 9.43 12.6598C10.87 12.6598 12.04 13.8298 12.04 15.2698V19.9098C12.04 21.3498 10.87 22.5198 9.43 22.5198ZM9.43 14.1598C8.82 14.1598 8.32 14.6598 8.32 15.2698V19.9098C8.32 20.5198 8.82 21.0198 9.43 21.0198C10.04 21.0198 10.54 20.5198 10.54 19.9098V15.2698C10.54 14.6498 10.04 14.1598 9.43 14.1598ZM3.79 17.2878C2.51 17.2878 1.47 16.2478 1.47 14.9678C1.47 13.6878 2.51 12.6478 3.79 12.6478H5.36C5.77 12.6478 6.11 12.9878 6.11 13.3978V14.9678C6.11 16.2478 5.07 17.2878 3.79 17.2878ZM3.79 14.1578C3.34 14.1578 2.97 14.5278 2.97 14.9778C2.97 15.4278 3.34 15.7978 3.79 15.7978C4.24 15.7978 4.61 15.4278 4.61 14.9778V14.1578H3.79ZM20.11 17.4108H15.47C14.03 17.4108 12.86 16.2408 12.86 14.8008C12.86 13.3608 14.03 12.1908 15.47 12.1908H20.11C21.55 12.1908 22.72 13.3608 22.72 14.8008C22.72 16.2408 21.55 17.4108 20.11 17.4108ZM15.47 13.6908C14.86 13.6908 14.36 14.1908 14.36 14.8008C14.36 15.4108 14.86 15.9108 15.47 15.9108H20.11C20.72 15.9108 21.22 15.4108 21.22 14.8008C21.22 14.1908 20.72 13.6908 20.11 13.6908H15.47ZM15.18 22.7298C13.9 22.7298 12.86 21.6898 12.86 20.4098V18.8398C12.86 18.4298 13.2 18.0898 13.61 18.0898H15.18C16.46 18.0898 17.5 19.1298 17.5 20.4098C17.5 21.6898 16.45 22.7298 15.18 22.7298ZM14.36 19.5898V20.4098C14.36 20.8598 14.73 21.2298 15.18 21.2298C15.63 21.2298 16 20.8598 16 20.4098C16 19.9598 15.63 19.5898 15.18 19.5898H14.36Z" fill="black"/>
</svg>
