<svg width="24" height="24" viewBox="0 0 24 24" fill="none" xmlns="http://www.w3.org/2000/svg">
<path d="M14.54 2.26221C13.51 2.26221 12.68 3.09221 12.68 4.12221V8.76221C12.68 9.79221 13.51 10.6222 14.54 10.6222C15.57 10.6222 16.4 9.79221 16.4 8.76221V4.12221C16.4 3.09221 15.57 2.26221 14.54 2.26221Z" stroke="black" stroke-width="1.5" stroke-miterlimit="10" stroke-linecap="round" stroke-linejoin="round"/>
<path opacity="0.4" d="M18.62 10.62H20.19C21.06 10.62 21.76 9.91998 21.76 9.04998C21.76 8.17998 21.06 7.47998 20.19 7.47998C19.32 7.47998 18.62 8.17998 18.62 9.04998V10.62Z" stroke="black" stroke-width="1.5" stroke-miterlimit="10" stroke-linecap="round" stroke-linejoin="round"/>
<path d="M2 9.23109C2 10.2611 2.83 11.0911 3.86 11.0911H8.5C9.53 11.0911 10.36 10.2611 10.36 9.23109C10.36 8.20109 9.53 7.37109 8.5 7.37109H3.86C2.83 7.37109 2 8.20109 2 9.23109Z" stroke="black" stroke-width="1.5" stroke-miterlimit="10" stroke-linecap="round" stroke-linejoin="round"/>
<path opacity="0.4" d="M10.36 5.12779V3.55779C10.36 2.68779 9.66 1.98779 8.79 1.98779C7.92 1.98779 7.22 2.68779 7.22 3.55779C7.22 4.42779 7.92 5.12779 8.79 5.12779H10.36Z" stroke="black" stroke-width="1.5" stroke-miterlimit="10" stroke-linecap="round" stroke-linejoin="round"/>
<path d="M9.43 21.7702C10.46 21.7702 11.29 20.9402 11.29 19.9102V15.2702C11.29 14.2402 10.46 13.4102 9.43 13.4102C8.4 13.4102 7.57 14.2402 7.57 15.2702V19.9102C7.57 20.9302 8.4 21.7702 9.43 21.7702Z" stroke="black" stroke-width="1.5" stroke-miterlimit="10" stroke-linecap="round" stroke-linejoin="round"/>
<path opacity="0.4" d="M5.36 13.4102H3.79C2.92 13.4102 2.22 14.1102 2.22 14.9802C2.22 15.8502 2.92 16.5502 3.79 16.5502C4.66 16.5502 5.36 15.8502 5.36 14.9802V13.4102Z" stroke="black" stroke-width="1.5" stroke-miterlimit="10" stroke-linecap="round" stroke-linejoin="round"/>
<path d="M21.97 14.8009C21.97 13.7709 21.14 12.9409 20.11 12.9409H15.47C14.44 12.9409 13.61 13.7709 13.61 14.8009C13.61 15.8309 14.44 16.6609 15.47 16.6609H20.11C21.14 16.6609 21.97 15.8309 21.97 14.8009Z" stroke="black" stroke-width="1.5" stroke-miterlimit="10" stroke-linecap="round" stroke-linejoin="round"/>
<path opacity="0.4" d="M13.61 18.8398V20.4098C13.61 21.2798 14.31 21.9798 15.18 21.9798C16.05 21.9798 16.75 21.2798 16.75 20.4098C16.75 19.5398 16.05 18.8398 15.18 18.8398H13.61Z" stroke="black" stroke-width="1.5" stroke-miterlimit="10" stroke-linecap="round" stroke-linejoin="round"/>
</svg>
