<svg width="24" height="24" viewBox="0 0 24 24" fill="none" xmlns="http://www.w3.org/2000/svg">
<path d="M5 8C5.79565 8 6.55871 7.68393 7.12132 7.12132C7.68393 6.55871 8 5.79565 8 5C8 4.20435 7.68393 3.44129 7.12132 2.87868C6.55871 2.31607 5.79565 2 5 2C4.20435 2 3.44129 2.31607 2.87868 2.87868C2.31607 3.44129 2 4.20435 2 5C2 5.79565 2.31607 6.55871 2.87868 7.12132C3.44129 7.68393 4.20435 8 5 8ZM5 8C5 11 6.8 12 9 12H11.17M5 8V16M5 16C5.79565 16 6.55871 16.3161 7.12132 16.8787C7.68393 17.4413 8 18.2044 8 19C8 19.7956 7.68393 20.5587 7.12132 21.1213C6.55871 21.6839 5.79565 22 5 22C4.20435 22 3.44129 21.6839 2.87868 21.1213C2.31607 20.5587 2 19.7956 2 19C2 18.2044 2.31607 17.4413 2.87868 16.8787C3.44129 16.3161 4.20435 16 5 16ZM19 15C19.7956 15 20.5587 14.6839 21.1213 14.1213C21.6839 13.5587 22 12.7956 22 12C22 11.2044 21.6839 10.4413 21.1213 9.87868C20.5587 9.31607 19.7956 9 19 9C18.2044 9 17.4413 9.31607 16.8787 9.87868C16.3161 10.4413 16 11.2044 16 12C16 12.7956 16.3161 13.5587 16.8787 14.1213C17.4413 14.6839 18.2044 15 19 15Z" stroke="black" stroke-width="1.5" stroke-linecap="round" stroke-linejoin="round"/>
</svg>
