<svg width="24" height="24" viewBox="0 0 24 24" fill="none" xmlns="http://www.w3.org/2000/svg">
<path d="M5 8C5.79565 8 6.55871 7.68393 7.12132 7.12132C7.68393 6.55871 8 5.79565 8 5C8 4.20435 7.68393 3.44129 7.12132 2.87868C6.55871 2.31607 5.79565 2 5 2C4.20435 2 3.44129 2.31607 2.87868 2.87868C2.31607 3.44129 2 4.20435 2 5C2 5.79565 2.31607 6.55871 2.87868 7.12132C3.44129 7.68393 4.20435 8 5 8ZM19 15C19.7956 15 20.5587 14.6839 21.1213 14.1213C21.6839 13.5587 22 12.7956 22 12C22 11.2044 21.6839 10.4413 21.1213 9.87868C20.5587 9.31607 19.7956 9 19 9C18.2044 9 17.4413 9.31607 16.8787 9.87868C16.3161 10.4413 16 11.2044 16 12C16 12.7956 16.3161 13.5587 16.8787 14.1213C17.4413 14.6839 18.2044 15 19 15ZM5 22C5.79565 22 6.55871 21.6839 7.12132 21.1213C7.68393 20.5587 8 19.7956 8 19C8 18.2044 7.68393 17.4413 7.12132 16.8787C6.55871 16.3161 5.79565 16 5 16C4.20435 16 3.44129 16.3161 2.87868 16.8787C2.31607 17.4413 2 18.2044 2 19C2 19.7956 2.31607 20.5587 2.87868 21.1213C3.44129 21.6839 4.20435 22 5 22Z" stroke="black" stroke-width="1.5" stroke-linecap="round" stroke-linejoin="round"/>
<path opacity="0.4" d="M16 12H9C6.8 12 5 11 5 8V16" stroke="black" stroke-width="1.5" stroke-linecap="round" stroke-linejoin="round"/>
</svg>
