<svg width="24" height="24" viewBox="0 0 24 24" fill="none" xmlns="http://www.w3.org/2000/svg">
<path d="M15.25 16.75H13.5C12.837 16.75 12.2011 16.4866 11.7322 16.0178C11.2634 15.5489 11 14.913 11 14.25C11 13.84 11.34 13.5 11.75 13.5C12.16 13.5 12.5 13.84 12.5 14.25C12.5 14.8 12.95 15.25 13.5 15.25H15.25C15.8 15.25 16.25 14.8 16.25 14.25C16.25 13.7 15.8 13.25 15.25 13.25H13.5C12.837 13.25 12.2011 12.9866 11.7322 12.5178C11.2634 12.0489 11 11.413 11 10.75C11 10.087 11.2634 9.45107 11.7322 8.98223C12.2011 8.51339 12.837 8.25 13.5 8.25H15.25C15.913 8.25 16.5489 8.51339 17.0178 8.98223C17.4866 9.45107 17.75 10.087 17.75 10.75C17.75 11.16 17.41 11.5 17 11.5C16.59 11.5 16.25 11.16 16.25 10.75C16.25 10.2 15.8 9.75 15.25 9.75H13.5C12.95 9.75 12.5 10.2 12.5 10.75C12.5 11.3 12.95 11.75 13.5 11.75H15.25C15.913 11.75 16.5489 12.0134 17.0178 12.4822C17.4866 12.9511 17.75 13.587 17.75 14.25C17.75 14.913 17.4866 15.5489 17.0178 16.0178C16.5489 16.4866 15.913 16.75 15.25 16.75Z" fill="black"/>
<path d="M12 22.61C11.71 22.61 11.42 22.54 11.15 22.39L9.67 21.68C9.5766 21.6404 9.49222 21.5822 9.42197 21.5089C9.35172 21.4357 9.29706 21.349 9.26129 21.2541C9.22552 21.1591 9.20939 21.0579 9.21388 20.9565C9.21836 20.8551 9.24337 20.7557 9.28739 20.6643C9.33141 20.5729 9.39352 20.4914 9.46997 20.4246C9.54641 20.3579 9.6356 20.3074 9.73214 20.2761C9.82867 20.2449 9.93055 20.2336 10.0316 20.2428C10.1326 20.2521 10.2308 20.2817 10.32 20.33L11.83 21.06C11.94 21.12 12.04 21.12 12.11 21.08L20.11 16.64C20.19 16.6 20.24 16.51 20.24 16.42V7.60002C20.2391 7.55526 20.2267 7.51149 20.2039 7.47295C20.1811 7.4344 20.1488 7.4024 20.11 7.38002L12.11 2.94002C12.0731 2.92032 12.0319 2.91002 11.99 2.91002C11.9481 2.91002 11.9069 2.92032 11.87 2.94002L3.87 7.38002C3.79 7.42002 3.74 7.51002 3.74 7.60002V16.42C3.74 16.51 3.79 16.59 3.87 16.64L6.38 18.03C6.77 18.25 7.23 18.24 7.62 18.01C8.01 17.78 8.24 17.38 8.24 16.93L8.25 9.00002C8.25 8.59002 8.59 8.25002 9 8.25002C9.41 8.25002 9.75 8.59002 9.75 9.00002L9.74 16.93C9.74 17.91 9.23 18.8 8.38 19.3C7.53 19.8 6.51 19.81 5.65 19.33L3.14 17.94C2.58 17.63 2.24 17.04 2.24 16.41V7.59002C2.24 6.96002 2.58 6.37002 3.14 6.06002L11.14 1.62002C11.67 1.32002 12.31 1.32002 12.84 1.62002L20.84 6.06002C21.4 6.37002 21.74 6.96002 21.74 7.59002V16.41C21.74 17.04 21.4 17.63 20.84 17.94L12.84 22.38C12.58 22.53 12.29 22.61 12 22.61Z" fill="black"/>
</svg>
