<svg width="24" height="24" viewBox="0 0 24 24" fill="none" xmlns="http://www.w3.org/2000/svg">
<path d="M11.51 2.26788C11.81 2.09788 12.18 2.09788 12.48 2.26788L20.48 6.70788C20.8 6.88788 20.99 7.21788 20.99 7.57788V16.3979C20.9897 16.5751 20.9423 16.749 20.8527 16.9019C20.7631 17.0547 20.6345 17.1811 20.48 17.2679L12.48 21.7079C12.18 21.8779 11.81 21.8779 11.51 21.7079L10 20.9979M9 9.00188L8.99 16.9319C8.99 18.4519 7.35 19.4219 6.02 18.6819L3.51 17.2919C3.35497 17.2057 3.22589 17.0795 3.1362 16.9265C3.0465 16.7735 2.99947 16.5992 3 16.4219V7.60188C3 7.24188 3.2 6.90188 3.51 6.73188L7.21 4.67188" stroke="black" stroke-width="1.5" stroke-miterlimit="10" stroke-linecap="round" stroke-linejoin="round"/>
<path d="M17 10.75C17 9.78 16.22 9 15.25 9H13.5C12.53 9 11.75 9.78 11.75 10.75C11.75 11.72 12.53 12.5 13.5 12.5H15.25C16.22 12.5 17 13.28 17 14.25C17 15.22 16.22 16 15.25 16H13.5C12.53 16 11.75 15.22 11.75 14.25" stroke="black" stroke-width="1.5" stroke-miterlimit="10" stroke-linecap="round" stroke-linejoin="round"/>
</svg>
