<svg width="24" height="24" viewBox="0 0 24 24" fill="none" xmlns="http://www.w3.org/2000/svg">
<path d="M9 9.00205L8.99 16.932C8.99 18.452 7.35 19.4221 6.02 18.6821L3.51 17.2921C3.35498 17.2059 3.2259 17.0797 3.1362 16.9267C3.0465 16.7737 2.99947 16.5994 3 16.4221V7.60205C3 7.24205 3.2 6.90205 3.51 6.73205L11.51 2.29205C11.81 2.12205 12.18 2.12205 12.48 2.29205L20.48 6.73205C20.8 6.91205 20.99 7.24205 20.99 7.60205V16.4221C20.9897 16.5992 20.9423 16.7732 20.8527 16.926C20.7631 17.0789 20.6345 17.2052 20.48 17.2921L12.48 21.7321C12.18 21.9021 11.81 21.9021 11.51 21.7321L10 21.0021" stroke="black" stroke-width="1.5" stroke-miterlimit="10" stroke-linecap="round" stroke-linejoin="round"/>
<path opacity="0.4" d="M17 10.75C17 9.78 16.22 9 15.25 9H13.5C12.53 9 11.75 9.78 11.75 10.75C11.75 11.72 12.53 12.5 13.5 12.5H15.25C16.22 12.5 17 13.28 17 14.25C17 15.22 16.22 16 15.25 16H13.5C12.53 16 11.75 15.22 11.75 14.25" stroke="black" stroke-width="1.5" stroke-miterlimit="10" stroke-linecap="round" stroke-linejoin="round"/>
</svg>
