<svg width="24" height="24" viewBox="0 0 24 24" fill="none" xmlns="http://www.w3.org/2000/svg">
<path d="M8.68 12.72H10.42V16.77C10.42 17.37 11.16 17.65 11.56 17.2L15.82 12.36C15.9029 12.266 15.9569 12.15 15.9754 12.0261C15.9939 11.9022 15.9763 11.7755 15.9245 11.6614C15.8727 11.5473 15.789 11.4505 15.6836 11.3829C15.5781 11.3152 15.4553 11.2795 15.33 11.28H13.59V7.22995C13.59 6.62995 12.85 6.34995 12.45 6.79995L8.19 11.64C8.10709 11.7339 8.05313 11.8499 8.03459 11.9738C8.01605 12.0977 8.03373 12.2244 8.08551 12.3385C8.13729 12.4526 8.22095 12.5494 8.32642 12.617C8.43189 12.6847 8.55468 12.7204 8.68 12.72Z" stroke="black" stroke-width="1.5" stroke-miterlimit="10" stroke-linecap="round" stroke-linejoin="round"/>
<path d="M4 6C2.75 7.67 2 9.75 2 12C2 17.52 6.48 22 12 22C17.52 22 22 17.52 22 12C22 6.48 17.52 2 12 2C10.57 2 9.2 2.3 7.97 2.85" stroke="black" stroke-width="1.5" stroke-linecap="round" stroke-linejoin="round"/>
</svg>
