<svg width="24" height="24" viewBox="0 0 24 24" fill="none" xmlns="http://www.w3.org/2000/svg">
<path opacity="0.4" d="M11.97 22C17.494 22 21.97 17.523 21.97 12C21.97 6.477 17.494 2 11.97 2C6.448 2 1.97 6.477 1.97 12C1.97 17.523 6.448 22 11.97 22Z" fill="black"/>
<path d="M15.25 11.3001H13.55V7.34005C13.55 6.42005 13.05 6.23005 12.44 6.92005L12 7.42005L8.28 11.6501C7.77 12.2301 7.98 12.7001 8.75 12.7001H10.45V16.6601C10.45 17.5801 10.95 17.7701 11.56 17.0801L12 16.5801L15.72 12.3501C16.23 11.7701 16.02 11.3001 15.25 11.3001Z" fill="black"/>
</svg>
