<svg width="24" height="24" viewBox="0 0 24 24" fill="none" xmlns="http://www.w3.org/2000/svg">
<path fill-rule="evenodd" clip-rule="evenodd" d="M20.8 2.24095L12.8 3.84095C12.33 3.93095 12 4.34095 12 4.82095V10.001C12 10.551 12.45 11.001 13 11.001H21C21.55 11.001 22 10.551 22 10.001V3.22095C22 2.59095 21.42 2.12095 20.8 2.24095ZM20.8 21.76L12.8 20.16C12.33 20.07 12 19.66 12 19.18V14C12 13.45 12.45 13 13 13H21C21.55 13 22 13.45 22 14V20.78C22 21.41 21.42 21.88 20.8 21.76ZM8.79 4.55995L2.79 5.82995C2.33 5.92995 2 6.33995 2 6.80995V9.99995C2 10.55 2.45 11 3 11H9C9.55 11 10 10.55 10 9.99995V5.52995C10 4.89995 9.41 4.41995 8.79 4.55995ZM8.79 19.44L2.79 18.17C2.33 18.07 2 17.66 2 17.19V14C2 13.45 2.45 13 3 13H9C9.55 13 10 13.45 10 14V18.47C10 19.1 9.41 19.58 8.79 19.44Z" fill="black"/>
</svg>
