<svg width="24" height="24" viewBox="0 0 24 24" fill="none" xmlns="http://www.w3.org/2000/svg">
<path opacity="0.4" fill-rule="evenodd" clip-rule="evenodd" d="M20.8 2.24095L12.8 3.84095C12.33 3.93095 12 4.34095 12 4.82095V10.001C12 10.551 12.45 11.001 13 11.001H21C21.55 11.001 22 10.551 22 10.001V3.22095C22 2.59095 21.42 2.12095 20.8 2.24095Z" fill="black"/>
<path fill-rule="evenodd" clip-rule="evenodd" d="M20.8 21.7601L12.8 20.1601C12.33 20.0701 12 19.6601 12 19.1801V14.0001C12 13.4501 12.45 13.0001 13 13.0001H21C21.55 13.0001 22 13.4501 22 14.0001V20.7801C22 21.4101 21.42 21.8801 20.8 21.7601ZM8.79 4.56008L2.79 5.84008C2.33 5.94008 2 6.35008 2 6.82008V10.0001C2 10.5501 2.45 11.0001 3 11.0001H9C9.55 11.0001 10 10.5501 10 10.0001V5.53008C10 4.90008 9.41 4.42008 8.79 4.56008Z" fill="black"/>
<path opacity="0.4" fill-rule="evenodd" clip-rule="evenodd" d="M8.79 19.44L2.79 18.16C2.33 18.06 2 17.65 2 17.18V14C2 13.45 2.45 13 3 13H9C9.55 13 10 13.45 10 14V18.47C10 19.1 9.41 19.58 8.79 19.44Z" fill="black"/>
</svg>
