<svg width="24" height="24" viewBox="0 0 24 24" fill="none" xmlns="http://www.w3.org/2000/svg">
<path d="M22 11.7498H12C11.59 11.7498 11.25 11.4098 11.25 10.9998V3.99981C11.25 3.63981 11.5 3.32981 11.85 3.25981L21.85 1.25981C22.07 1.21981 22.3 1.26981 22.47 1.41981C22.64 1.55981 22.74 1.77981 22.74 1.99981V10.9998C22.7413 11.0978 22.7232 11.1951 22.6866 11.2861C22.65 11.377 22.5957 11.4598 22.5268 11.5295C22.458 11.5993 22.376 11.6547 22.2855 11.6925C22.1951 11.7303 22.098 11.7498 22 11.7498ZM12.75 10.2498H21.25V2.91981L12.75 4.61981V10.2498ZM22 22.7498C21.95 22.7498 21.9 22.7498 21.85 22.7398L11.85 20.7398C11.6798 20.7051 11.5269 20.6123 11.4174 20.4773C11.308 20.3423 11.2488 20.1736 11.25 19.9998V12.9998C11.25 12.5898 11.59 12.2498 12 12.2498H22C22.41 12.2498 22.75 12.5898 22.75 12.9998V21.9998C22.75 22.2198 22.65 22.4398 22.48 22.5798C22.34 22.6898 22.17 22.7498 22 22.7498ZM12.75 19.3798L21.25 21.0798V13.7498H12.75V19.3798ZM10 11.7478H2C1.59 11.7478 1.25 11.4078 1.25 10.9978V5.99781C1.25 5.64781 1.5 5.33781 1.84 5.26781L9.84 3.56781C10.06 3.51781 10.29 3.57781 10.47 3.71781C10.65 3.85781 10.75 4.07781 10.75 4.29781V10.9978C10.75 11.4078 10.41 11.7478 10 11.7478ZM2.75 10.2478H9.25V5.22781L2.75 6.60781V10.2478ZM10 20.4498C9.95 20.4498 9.9 20.4398 9.84 20.4298L1.84 18.7298C1.67242 18.6951 1.52203 18.6034 1.41446 18.4703C1.30688 18.3372 1.24876 18.1709 1.25 17.9998V12.9998C1.25 12.5898 1.59 12.2498 2 12.2498H10C10.41 12.2498 10.75 12.5898 10.75 12.9998V19.6998C10.75 19.9298 10.65 20.1398 10.47 20.2798C10.34 20.3898 10.17 20.4498 10 20.4498ZM2.75 17.3898L9.25 18.7698V13.7498H2.75V17.3898Z" fill="black"/>
</svg>
