<svg width="24" height="24" viewBox="0 0 24 24" fill="none" xmlns="http://www.w3.org/2000/svg">
<path opacity="0.4" d="M16.19 2H7.82C4.18 2 2.01 4.17 2.01 7.81V16.18C2.01 19.82 4.18 21.99 7.82 21.99H16.19C19.83 21.99 22 19.82 22 16.18V7.81C22 4.17 19.83 2 16.19 2Z" fill="black"/>
<path d="M8.55 14.5498V10.2598C9.39 9.94981 10 9.14981 10 8.19981C10 6.98981 9.01 5.99981 7.8 5.99981C6.59 5.99981 5.6 6.98981 5.6 8.19981C5.6 9.14981 6.21 9.94981 7.05 10.2598V14.5498C6.29 14.8498 5.75 15.5898 5.75 16.4498C5.75 17.5798 6.67 18.4998 7.8 18.4998C8.93 18.4998 9.85 17.5798 9.85 16.4498C9.85 15.5898 9.31 14.8498 8.55 14.5498ZM17.499 14.5498V8.74981C17.499 7.78981 16.709 6.99981 15.749 6.99981H14.619L14.829 6.82981C15.149 6.55981 15.189 6.08981 14.929 5.76981C14.8009 5.61717 14.6179 5.52109 14.4195 5.50238C14.2211 5.48366 14.0234 5.54381 13.869 5.66981L12.069 7.16981C11.9849 7.24125 11.9173 7.33013 11.871 7.43028C11.8247 7.53043 11.8007 7.63946 11.8007 7.74981C11.8007 7.86017 11.8247 7.96919 11.871 8.06935C11.9173 8.1695 11.9849 8.25837 12.069 8.32981L13.869 9.82981C14.009 9.94981 14.179 9.99981 14.349 9.99981C14.504 10.0007 14.6555 9.95362 14.7827 9.8649C14.9098 9.77619 15.0063 9.65026 15.059 9.50443C15.1116 9.35861 15.1178 9.20005 15.0766 9.05059C15.0354 8.90113 14.9489 8.7681 14.829 8.66981L14.619 8.49981H15.749C15.889 8.49981 15.999 8.60981 15.999 8.74981V14.5498C15.239 14.8498 14.699 15.5898 14.699 16.4498C14.699 17.5798 15.619 18.4998 16.749 18.4998C17.879 18.4998 18.799 17.5798 18.799 16.4498C18.799 15.5898 18.259 14.8498 17.499 14.5498Z" fill="black"/>
</svg>
