<svg width="24" height="24" viewBox="0 0 24 24" fill="none" xmlns="http://www.w3.org/2000/svg">
<path d="M16.45 14.4V8.5C16.45 7.95 16 7.5 15.45 7.5H12.55" stroke="black" stroke-width="1.5" stroke-linecap="round" stroke-linejoin="round"/>
<path d="M14.05 6L12.25 7.5L14.05 9M7.55 10.2V14.4M7.55 14.4C8.02739 14.4 8.48523 14.5896 8.82279 14.9272C9.16036 15.2648 9.35 15.7226 9.35 16.2C9.35 16.6774 9.16036 17.1352 8.82279 17.4728C8.48523 17.8104 8.02739 18 7.55 18C7.07261 18 6.61477 17.8104 6.27721 17.4728C5.93964 17.1352 5.75 16.6774 5.75 16.2C5.75 15.7226 5.93964 15.2648 6.27721 14.9272C6.61477 14.5896 7.07261 14.4 7.55 14.4ZM7.7 9.9C8.21717 9.9 8.71316 9.69455 9.07886 9.32886C9.44455 8.96316 9.65 8.46717 9.65 7.95C9.65 7.43283 9.44455 6.93684 9.07886 6.57114C8.71316 6.20545 8.21717 6 7.7 6C7.18283 6 6.68684 6.20545 6.32114 6.57114C5.95545 6.93684 5.75 7.43283 5.75 7.95C5.75 8.46717 5.95545 8.96316 6.32114 9.32886C6.68684 9.69455 7.18283 9.9 7.7 9.9ZM16.45 18C16.9274 18 17.3852 17.8104 17.7228 17.4728C18.0604 17.1352 18.25 16.6774 18.25 16.2C18.25 15.7226 18.0604 15.2648 17.7228 14.9272C17.3852 14.5896 16.9274 14.4 16.45 14.4C15.9726 14.4 15.5148 14.5896 15.1772 14.9272C14.8396 15.2648 14.65 15.7226 14.65 16.2C14.65 16.6774 14.8396 17.1352 15.1772 17.4728C15.5148 17.8104 15.9726 18 16.45 18Z" stroke="black" stroke-width="1.5" stroke-linecap="round" stroke-linejoin="round"/>
<path d="M9 22H15C20 22 22 20 22 15V9C22 4 20 2 15 2H9C4 2 2 4 2 9V15C2 20 4 22 9 22Z" stroke="black" stroke-width="1.5" stroke-linecap="round" stroke-linejoin="round"/>
</svg>
