<svg width="24" height="24" viewBox="0 0 24 24" fill="none" xmlns="http://www.w3.org/2000/svg">
<path d="M16.45 15.15C16.04 15.15 15.7 14.81 15.7 14.4V8.5C15.7 8.36 15.59 8.25 15.45 8.25H12.55C12.14 8.25 11.8 7.91 11.8 7.5C11.8 7.09 12.14 6.75 12.55 6.75H15.45C16.41 6.75 17.2 7.54 17.2 8.5V14.4C17.2 14.81 16.86 15.15 16.45 15.15Z" fill="black"/>
<path d="M14.05 9.74969C13.88 9.74969 13.71 9.68969 13.57 9.57969L11.77 8.07969C11.6859 8.00825 11.6183 7.91937 11.572 7.81922C11.5257 7.71907 11.5017 7.61004 11.5017 7.49969C11.5017 7.38934 11.5257 7.28031 11.572 7.18016C11.6183 7.08 11.6859 6.99113 11.77 6.91969L13.57 5.41969C13.89 5.15969 14.36 5.19969 14.63 5.51969C14.9 5.83969 14.85 6.30969 14.53 6.57969L13.42 7.49969L14.53 8.41969C14.85 8.68969 14.89 9.15969 14.63 9.47969C14.48 9.65969 14.26 9.74969 14.05 9.74969ZM7.55 15.1497C7.14 15.1497 6.8 14.8097 6.8 14.3997V10.1997C6.8 9.78969 7.14 9.44969 7.55 9.44969C7.96 9.44969 8.3 9.78969 8.3 10.1997V14.3997C8.3 14.8097 7.96 15.1497 7.55 15.1497Z" fill="black"/>
<path d="M7.7 10.65C6.21 10.65 5 9.44 5 7.95C5 6.46 6.21 5.25 7.7 5.25C9.19 5.25 10.4 6.46 10.4 7.95C10.4 9.44 9.19 10.65 7.7 10.65ZM7.7 6.75C7.04 6.75 6.5 7.29 6.5 7.95C6.5 8.61 7.04 9.15 7.7 9.15C8.36 9.15 8.9 8.61 8.9 7.95C8.9 7.29 8.36 6.75 7.7 6.75ZM7.55 18.748C6.14 18.748 5 17.608 5 16.198C5 14.788 6.14 13.648 7.55 13.648C8.96 13.648 10.1 14.788 10.1 16.198C10.1 17.608 8.96 18.748 7.55 18.748ZM7.55 15.148C7.41211 15.148 7.27557 15.1752 7.14818 15.2279C7.02079 15.2807 6.90504 15.358 6.80754 15.4555C6.71004 15.553 6.63269 15.6688 6.57993 15.7962C6.52716 15.9236 6.5 16.0601 6.5 16.198C6.5 16.3359 6.52716 16.4724 6.57993 16.5998C6.63269 16.7272 6.71004 16.843 6.80754 16.9405C6.90504 17.038 7.02079 17.1153 7.14818 17.1681C7.27557 17.2208 7.41211 17.248 7.55 17.248C7.82848 17.248 8.09555 17.1374 8.29246 16.9405C8.48938 16.7435 8.6 16.4765 8.6 16.198C8.6 15.9195 8.48938 15.6525 8.29246 15.4555C8.09555 15.2586 7.82848 15.148 7.55 15.148ZM16.45 18.748C15.04 18.748 13.9 17.608 13.9 16.198C13.9 14.788 15.04 13.648 16.45 13.648C17.86 13.648 19 14.788 19 16.198C19 17.608 17.86 18.748 16.45 18.748ZM16.45 15.148C16.3121 15.148 16.1756 15.1752 16.0482 15.2279C15.9208 15.2807 15.805 15.358 15.7075 15.4555C15.61 15.553 15.5327 15.6688 15.4799 15.7962C15.4272 15.9236 15.4 16.0601 15.4 16.198C15.4 16.3359 15.4272 16.4724 15.4799 16.5998C15.5327 16.7272 15.61 16.843 15.7075 16.9405C15.805 17.038 15.9208 17.1153 16.0482 17.1681C16.1756 17.2208 16.3121 17.248 16.45 17.248C16.7285 17.248 16.9955 17.1374 17.1925 16.9405C17.3894 16.7435 17.5 16.4765 17.5 16.198C17.5 15.9195 17.3894 15.6525 17.1925 15.4555C16.9955 15.2586 16.7285 15.148 16.45 15.148Z" fill="black"/>
<path d="M15 22.75H9C3.57 22.75 1.25 20.43 1.25 15V9C1.25 3.57 3.57 1.25 9 1.25H15C20.43 1.25 22.75 3.57 22.75 9V15C22.75 20.43 20.43 22.75 15 22.75ZM9 2.75C4.39 2.75 2.75 4.39 2.75 9V15C2.75 19.61 4.39 21.25 9 21.25H15C19.61 21.25 21.25 19.61 21.25 15V9C21.25 4.39 19.61 2.75 15 2.75H9Z" fill="black"/>
</svg>
