<svg width="24" height="24" viewBox="0 0 24 24" fill="none" xmlns="http://www.w3.org/2000/svg">
<g opacity="0.4">
<path d="M16.45 14.4V8.5C16.45 7.95 16 7.5 15.45 7.5H12.55" stroke="black" stroke-width="1.5" stroke-linecap="round" stroke-linejoin="round"/>
<path d="M14.05 6L12.25 7.5L14.05 9M7.55 10.2V14.4M7.7 9.9C8.21717 9.9 8.71316 9.69455 9.07886 9.32886C9.44455 8.96316 9.65 8.46717 9.65 7.95C9.65 7.43283 9.44455 6.93684 9.07886 6.57114C8.71316 6.20545 8.21717 6 7.7 6C7.18283 6 6.68684 6.20545 6.32114 6.57114C5.95545 6.93684 5.75 7.43283 5.75 7.95C5.75 8.46717 5.95545 8.96316 6.32114 9.32886C6.68684 9.69455 7.18283 9.9 7.7 9.9ZM7.55 17.998C8.02739 17.998 8.48523 17.8084 8.82279 17.4708C9.16036 17.1332 9.35 16.6754 9.35 16.198C9.35 15.7206 9.16036 15.2628 8.82279 14.9252C8.48523 14.5876 8.02739 14.398 7.55 14.398C7.07261 14.398 6.61477 14.5876 6.27721 14.9252C5.93964 15.2628 5.75 15.7206 5.75 16.198C5.75 16.6754 5.93964 17.1332 6.27721 17.4708C6.61477 17.8084 7.07261 17.998 7.55 17.998ZM16.45 17.998C16.9274 17.998 17.3852 17.8084 17.7228 17.4708C18.0604 17.1332 18.25 16.6754 18.25 16.198C18.25 15.7206 18.0604 15.2628 17.7228 14.9252C17.3852 14.5876 16.9274 14.398 16.45 14.398C15.9726 14.398 15.5148 14.5876 15.1772 14.9252C14.8396 15.2628 14.65 15.7206 14.65 16.198C14.65 16.6754 14.8396 17.1332 15.1772 17.4708C15.5148 17.8084 15.9726 17.998 16.45 17.998Z" stroke="black" stroke-width="1.5" stroke-linecap="round" stroke-linejoin="round"/>
</g>
<path d="M9 22H15C20 22 22 20 22 15V9C22 4 20 2 15 2H9C4 2 2 4 2 9V15C2 20 4 22 9 22Z" stroke="black" stroke-width="1.5" stroke-linecap="round" stroke-linejoin="round"/>
</svg>
