<svg width="24" height="24" viewBox="0 0 24 24" fill="none" xmlns="http://www.w3.org/2000/svg">
<path d="M21.38 11.448L16.88 8.84802C16.7654 8.78409 16.6363 8.75054 16.505 8.75054C16.3737 8.75054 16.2446 8.78409 16.13 8.84802L11.63 11.448C11.63 11.448 11.63 11.458 11.62 11.458L7.5 13.838L3.75 11.668V7.32802L7.5 5.15802L11.25 7.32802V8.46802C11.25 8.87802 11.59 9.21802 12 9.21802C12.41 9.21802 12.75 8.87802 12.75 8.46802V6.89802C12.75 6.62802 12.61 6.37802 12.37 6.24802L7.87 3.64802C7.75535 3.58409 7.62627 3.55054 7.495 3.55054C7.36374 3.55054 7.23465 3.58409 7.12 3.64802L2.62 6.24802C2.39 6.37802 2.24 6.62802 2.24 6.89802V12.098C2.24 12.368 2.38 12.618 2.62 12.748L7.12 15.348C7.24 15.418 7.37 15.448 7.5 15.448C7.63 15.448 7.76 15.418 7.88 15.348L12.38 12.748C12.38 12.748 12.38 12.738 12.39 12.738L16.51 10.358L20.26 12.528V16.858L16.51 19.028L12.76 16.858V15.638C12.76 15.228 12.42 14.888 12.01 14.888C11.6 14.888 11.26 15.228 11.26 15.638V17.288C11.26 17.558 11.4 17.808 11.64 17.938L16.14 20.538C16.26 20.608 16.39 20.638 16.52 20.638C16.65 20.638 16.78 20.608 16.9 20.538L21.4 17.938C21.63 17.808 21.78 17.558 21.78 17.288V12.088C21.7679 11.9575 21.7254 11.8317 21.6559 11.7206C21.5865 11.6094 21.492 11.5161 21.38 11.448Z" fill="black"/>
<path opacity="0.4" d="M4.5 8.34989V10.6599C4.5 11.0199 4.69 11.3499 5 11.5299L7 12.6799C7.31 12.8599 7.69 12.8599 8 12.6799L10 11.5299C10.31 11.3499 10.5 11.0199 10.5 10.6599V8.34989C10.5 7.98989 10.31 7.65989 10 7.47989L8 6.32989C7.84822 6.24143 7.67568 6.19482 7.5 6.19482C7.32432 6.19482 7.15178 6.24143 7 6.32989L5 7.47989C4.69 7.65989 4.5 7.98989 4.5 8.34989ZM13.5 13.5499V15.8599C13.5 16.2199 13.69 16.5499 14 16.7299L16 17.8799C16.31 18.0599 16.69 18.0599 17 17.8799L19 16.7299C19.31 16.5499 19.5 16.2199 19.5 15.8599V13.5499C19.5 13.1899 19.31 12.8599 19 12.6799L17 11.5299C16.8482 11.4414 16.6757 11.3948 16.5 11.3948C16.3243 11.3948 16.1518 11.4414 16 11.5299L14 12.6799C13.69 12.8599 13.5 13.1899 13.5 13.5499Z" fill="black"/>
</svg>
