<svg width="24" height="24" viewBox="0 0 24 24" fill="none" xmlns="http://www.w3.org/2000/svg">
<path d="M7.50001 15.4478C7.37001 15.4478 7.24001 15.4178 7.12001 15.3478L2.62001 12.7478C2.50513 12.6824 2.40951 12.5879 2.3428 12.4738C2.27608 12.3596 2.24063 12.23 2.24001 12.0978V6.89778C2.24001 6.62778 2.38001 6.37778 2.62001 6.24778L7.12001 3.64778C7.23465 3.58385 7.36374 3.55029 7.49501 3.55029C7.62627 3.55029 7.75536 3.58385 7.87001 3.64778L12.37 6.24778C12.6 6.37778 12.75 6.62778 12.75 6.89778V8.46778C12.75 8.87778 12.41 9.21778 12 9.21778C11.59 9.21778 11.25 8.87778 11.25 8.46778V7.32778L7.50001 5.15778L3.75001 7.32778V11.6578L7.50001 13.8278L11.62 11.4478C11.7911 11.3483 11.9946 11.3209 12.1859 11.3715C12.3772 11.4222 12.5405 11.5467 12.64 11.7178C12.7395 11.8888 12.7669 12.0924 12.7163 12.2837C12.6656 12.475 12.5411 12.6383 12.37 12.7378L7.87001 15.3378C7.76001 15.4078 7.63001 15.4478 7.50001 15.4478Z" fill="black"/>
<path d="M16.5 20.6409C16.37 20.6409 16.24 20.6109 16.12 20.5409L11.62 17.9409C11.5051 17.8755 11.4095 17.781 11.3428 17.6669C11.2761 17.5528 11.2406 17.4231 11.24 17.2909V15.6409C11.24 15.2309 11.58 14.8909 11.99 14.8909C12.4 14.8909 12.74 15.2309 12.74 15.6409V16.8609L16.49 19.0309L20.24 16.8609V12.5309L16.49 10.3609L12.37 12.7409C12.1989 12.8404 11.9954 12.8678 11.8041 12.8172C11.6128 12.7665 11.4495 12.642 11.35 12.4709C11.2505 12.2998 11.2231 12.0963 11.2738 11.905C11.3244 11.7137 11.4489 11.5504 11.62 11.4509L16.12 8.8509C16.2347 8.78698 16.3637 8.75342 16.495 8.75342C16.6263 8.75342 16.7554 8.78698 16.87 8.8509L21.37 11.4509C21.6 11.5809 21.75 11.8309 21.75 12.1009V17.3009C21.75 17.5709 21.61 17.8209 21.37 17.9509L16.87 20.5509C16.76 20.6109 16.63 20.6409 16.5 20.6409Z" fill="black"/>
</svg>
