<svg width="24" height="24" viewBox="0 0 24 24" fill="none" xmlns="http://www.w3.org/2000/svg">
<path d="M2 13.01V15C2 20 4 22 9 22H15C20 22 22 20 22 15V9C22 4 20 2 15 2H9C4 2 2 4 2 9" stroke="black" stroke-width="1.5" stroke-linecap="round" stroke-linejoin="round"/>
<path d="M17.5 11.57V16.5C17.5 17.0304 17.2893 17.5391 16.9142 17.9142C16.5391 18.2893 16.0304 18.5 15.5 18.5C14.9696 18.5 14.4609 18.2893 14.0858 17.9142C13.7107 17.5391 13.5 17.0304 13.5 16.5V7.5C13.5 6.4 14.4 5.5 15.5 5.5C16.6 5.5 17.5 6.4 17.5 7.5M8.5 18.5C9.6 18.5 10.5 17.6 10.5 16.5V13C10.5 11.9 9.6 11 8.5 11C7.4 11 6.5 11.9 6.5 13V16.5C6.5 17.0304 6.71071 17.5391 7.08579 17.9142C7.46086 18.2893 7.96957 18.5 8.5 18.5Z" stroke="black" stroke-width="1.5" stroke-linecap="round" stroke-linejoin="round"/>
</svg>
