<svg width="24" height="24" viewBox="0 0 24 24" fill="none" xmlns="http://www.w3.org/2000/svg">
<path opacity="0.4" d="M16.19 2H7.81C4.17 2 2 4.17 2 7.81V16.18C2 19.83 4.17 22 7.81 22H16.18C19.82 22 21.99 19.83 21.99 16.19V7.81C22 4.17 19.83 2 16.19 2Z" fill="black"/>
<path d="M16.42 7.80795V16.1879C16.42 16.8279 15.9 17.3479 15.26 17.3479C14.61 17.3479 14.09 16.8279 14.09 16.1879V7.80795C14.09 7.16795 14.61 6.64795 15.26 6.64795C15.9 6.64795 16.42 7.16795 16.42 7.80795ZM9.91 12.9299V16.1899C9.91 16.8299 9.39 17.3499 8.74 17.3499C8.1 17.3499 7.58 16.8299 7.58 16.1899V12.9299C7.58 12.2899 8.1 11.7699 8.74 11.7699C9.39 11.7699 9.91 12.2899 9.91 12.9299Z" fill="black"/>
</svg>
