<svg width="24" height="24" viewBox="0 0 24 24" fill="none" xmlns="http://www.w3.org/2000/svg">
<path d="M15 22.75H9C3.57 22.75 1.25 20.43 1.25 15V9C1.25 3.57 3.57 1.25 9 1.25H15C20.43 1.25 22.75 3.57 22.75 9V15C22.75 20.43 20.43 22.75 15 22.75ZM9 2.75C4.39 2.75 2.75 4.39 2.75 9V15C2.75 19.61 4.39 21.25 9 21.25H15C19.61 21.25 21.25 19.61 21.25 15V9C21.25 4.39 19.61 2.75 15 2.75H9Z" fill="black"/>
<path d="M15.5 19.25C13.98 19.25 12.75 18.02 12.75 16.5V7.5C12.75 5.98 13.98 4.75 15.5 4.75C17.02 4.75 18.25 5.98 18.25 7.5V16.5C18.25 18.02 17.02 19.25 15.5 19.25ZM15.5 6.25C14.81 6.25 14.25 6.81 14.25 7.5V16.5C14.25 16.8315 14.3817 17.1495 14.6161 17.3839C14.8505 17.6183 15.1685 17.75 15.5 17.75C15.8315 17.75 16.1495 17.6183 16.3839 17.3839C16.6183 17.1495 16.75 16.8315 16.75 16.5V7.5C16.75 6.81 16.19 6.25 15.5 6.25ZM8.5 19.25C6.98 19.25 5.75 18.02 5.75 16.5V13C5.75 11.48 6.98 10.25 8.5 10.25C10.02 10.25 11.25 11.48 11.25 13V16.5C11.25 18.02 10.02 19.25 8.5 19.25ZM8.5 11.75C7.81 11.75 7.25 12.31 7.25 13V16.5C7.25 16.8315 7.3817 17.1495 7.61612 17.3839C7.85054 17.6183 8.16848 17.75 8.5 17.75C8.83152 17.75 9.14946 17.6183 9.38388 17.3839C9.6183 17.1495 9.75 16.8315 9.75 16.5V13C9.75 12.31 9.19 11.75 8.5 11.75Z" fill="black"/>
</svg>
