<svg width="24" height="24" viewBox="0 0 24 24" fill="none" xmlns="http://www.w3.org/2000/svg">
<path d="M11.65 2.35001L6.36 7.64001C6.16 7.84001 6.16 8.15001 6.36 8.35001L7.65 9.64001C7.85 9.84001 8.16 9.84001 8.36 9.64001L11.65 6.35001C11.85 6.15001 12.16 6.15001 12.36 6.35001L15.65 9.64001C15.85 9.84001 16.16 9.84001 16.36 9.64001L17.65 8.35001C17.85 8.15001 17.85 7.84001 17.65 7.64001L12.36 2.35001C12.2645 2.25845 12.1373 2.20734 12.005 2.20734C11.8727 2.20734 11.7455 2.25845 11.65 2.35001ZM11.65 21.65L6.36 16.36C6.16 16.16 6.16 15.85 6.36 15.65L7.65 14.36C7.85 14.16 8.16 14.16 8.36 14.36L11.65 17.65C11.85 17.85 12.16 17.85 12.36 17.65L15.65 14.36C15.85 14.16 16.16 14.16 16.36 14.36L17.65 15.65C17.85 15.85 17.85 16.16 17.65 16.36L12.36 21.65C12.16 21.84 11.84 21.84 11.65 21.65ZM20.1 10.1L21.64 11.64C21.84 11.84 21.84 12.15 21.64 12.35L20.1 13.89C19.9 14.09 19.59 14.09 19.39 13.89L17.85 12.35C17.65 12.15 17.65 11.84 17.85 11.64L19.39 10.1C19.59 9.91001 19.91 9.91001 20.1 10.1ZM4.6 10.1L6.14 11.64C6.34 11.84 6.34 12.15 6.14 12.35L4.6 13.89C4.4 14.09 4.09 14.09 3.89 13.89L2.35 12.35C2.15 12.15 2.15 11.84 2.35 11.64L3.89 10.1C4.09 9.91001 4.41 9.91001 4.6 10.1Z" fill="black"/>
<path d="M12.35 9.88L14.12 11.65C14.32 11.85 14.32 12.16 14.12 12.36L12.35 14.13C12.15 14.33 11.84 14.33 11.64 14.13L9.87 12.36C9.67 12.16 9.67 11.85 9.87 11.65L11.64 9.88C11.84 9.68 12.16 9.68 12.35 9.88Z" fill="black"/>
</svg>
