<svg width="24" height="24" viewBox="0 0 24 24" fill="none" xmlns="http://www.w3.org/2000/svg">
<path d="M9.05 4.95L6 8L8 10L12 6L16 10L18 8L12 2M12 22L6 16L8 14L12 18L16 14L18 16L12 22ZM19.749 9.751L17.5 12L19.749 14.249L21.997 12L19.749 9.751ZM4.249 9.751L2 12L4.249 14.249L6.497 12L4.249 9.751Z" stroke="black" stroke-width="1.5" stroke-miterlimit="10" stroke-linecap="round" stroke-linejoin="round"/>
<path d="M11.998 9.52499L9.523 12L11.998 14.475L14.473 12L11.998 9.52499Z" stroke="black" stroke-width="1.5" stroke-miterlimit="10" stroke-linecap="round" stroke-linejoin="round"/>
</svg>
