<svg width="24" height="24" viewBox="0 0 24 24" fill="none" xmlns="http://www.w3.org/2000/svg">
<path d="M11.65 2.348L6.35 7.648C6.15 7.848 6.15 8.158 6.35 8.358L7.64 9.648C7.84 9.848 8.15 9.848 8.35 9.648L11.64 6.358C11.84 6.158 12.15 6.158 12.35 6.358L15.64 9.648C15.84 9.848 16.15 9.848 16.35 9.648L17.64 8.358C17.84 8.158 17.84 7.848 17.64 7.648L12.35 2.358C12.16 2.158 11.84 2.158 11.65 2.348ZM11.65 21.65L6.36 16.36C6.16 16.16 6.16 15.85 6.36 15.65L7.65 14.36C7.85 14.16 8.16 14.16 8.36 14.36L11.65 17.65C11.85 17.85 12.16 17.85 12.36 17.65L15.65 14.36C15.85 14.16 16.16 14.16 16.36 14.36L17.65 15.65C17.85 15.85 17.85 16.16 17.65 16.36L12.36 21.65C12.16 21.84 11.84 21.84 11.65 21.65Z" fill="black"/>
<path opacity="0.4" d="M20.1 10.098L21.64 11.638C21.84 11.838 21.84 12.148 21.64 12.348L20.1 13.898C19.9 14.098 19.59 14.098 19.39 13.898L17.85 12.358C17.65 12.158 17.65 11.848 17.85 11.648L19.39 10.108C19.59 9.908 19.91 9.908 20.1 10.098ZM4.6 10.1L6.14 11.64C6.34 11.84 6.34 12.15 6.14 12.35L4.6 13.9C4.4 14.1 4.09 14.1 3.89 13.9L2.35 12.36C2.15 12.16 2.15 11.85 2.35 11.65L3.9 10.1C4.09 9.91 4.41 9.91 4.6 10.1ZM12.35 9.88L14.12 11.65C14.32 11.85 14.32 12.16 14.12 12.36L12.35 14.13C12.15 14.33 11.84 14.33 11.64 14.13L9.87 12.36C9.67 12.16 9.67 11.85 9.87 11.65L11.64 9.88C11.84 9.68 12.16 9.68 12.35 9.88Z" fill="black"/>
</svg>
