<svg width="24" height="24" viewBox="0 0 24 24" fill="none" xmlns="http://www.w3.org/2000/svg">
<path d="M12 2L6 8L8 10L12 6L16 10L18 8L12 2ZM12 22L6 16L8 14L12 18L16 14L18 16L12 22ZM19.785 9.702L17.523 11.965L19.785 14.227L22.048 11.965L19.785 9.702ZM4.285 9.702L2.022 11.965L4.285 14.227L6.548 11.965L4.285 9.702Z" stroke="black" stroke-width="1.5" stroke-miterlimit="10" stroke-linecap="round" stroke-linejoin="round"/>
<path d="M11.93 9.52499L9.453 12L11.928 14.475L14.404 12L11.929 9.52499H11.93Z" stroke="black" stroke-width="1.5" stroke-miterlimit="10" stroke-linecap="round" stroke-linejoin="round"/>
</svg>
