<svg width="24" height="24" viewBox="0 0 24 24" fill="none" xmlns="http://www.w3.org/2000/svg">
<path d="M16 10.751C15.81 10.751 15.62 10.681 15.47 10.531L12 7.06099L8.53 10.531C8.24 10.821 7.76 10.821 7.47 10.531L5.47 8.53099C5.33052 8.38986 5.2523 8.19943 5.2523 8.00099C5.2523 7.80256 5.33052 7.61213 5.47 7.47099L11.47 1.47099C11.76 1.18099 12.24 1.18099 12.53 1.47099L18.53 7.47099C18.82 7.76099 18.82 8.24099 18.53 8.53099L16.53 10.531C16.38 10.681 16.19 10.751 16 10.751ZM12 5.25099C12.19 5.25099 12.38 5.32099 12.53 5.47099L16 8.94099L16.94 8.00099L12 3.06099L7.06 8.00099L8 8.94099L11.47 5.47099C11.62 5.32099 11.81 5.25099 12 5.25099ZM12 22.751C11.81 22.751 11.62 22.681 11.47 22.531L5.47 16.531C5.33052 16.3899 5.2523 16.1994 5.2523 16.001C5.2523 15.8026 5.33052 15.6121 5.47 15.471L7.47 13.471C7.76 13.181 8.24 13.181 8.53 13.471L12 16.941L15.47 13.471C15.76 13.181 16.24 13.181 16.53 13.471L18.53 15.471C18.82 15.761 18.82 16.241 18.53 16.531L12.53 22.531C12.38 22.681 12.19 22.751 12 22.751ZM7.06 16.001L12 20.941L16.94 16.001L16 15.061L12.53 18.531C12.24 18.821 11.76 18.821 11.47 18.531L8 15.061L7.06 16.001ZM19.75 15.001C19.56 15.001 19.37 14.931 19.22 14.781L16.97 12.531C16.8305 12.3899 16.7523 12.1994 16.7523 12.001C16.7523 11.8026 16.8305 11.6121 16.97 11.471L19.22 9.22099C19.51 8.93099 19.99 8.93099 20.28 9.22099L22.53 11.471C22.82 11.761 22.82 12.241 22.53 12.531L20.28 14.781C20.13 14.931 19.94 15.001 19.75 15.001ZM18.56 12.001L19.75 13.191L20.94 12.001L19.75 10.811L18.56 12.001ZM4.25 15.001C4.06 15.001 3.87 14.931 3.72 14.781L1.47 12.531C1.33052 12.3899 1.2523 12.1994 1.2523 12.001C1.2523 11.8026 1.33052 11.6121 1.47 11.471L3.72 9.22099C4.01 8.93099 4.49 8.93099 4.78 9.22099L7.03 11.471C7.32 11.761 7.32 12.241 7.03 12.531L4.78 14.781C4.63 14.931 4.44 15.001 4.25 15.001ZM3.06 12.001L4.25 13.191L5.44 12.001L4.25 10.811L3.06 12.001Z" fill="black"/>
<path d="M12 15.23C11.81 15.23 11.62 15.16 11.47 15.01L8.99 12.53C8.85052 12.3889 8.7723 12.1984 8.7723 12C8.7723 11.8016 8.85052 11.6111 8.99 11.47L11.47 8.99001C11.76 8.70001 12.24 8.70001 12.53 8.99001L15.01 11.47C15.3 11.76 15.3 12.24 15.01 12.53L12.53 15.01C12.38 15.15 12.19 15.23 12 15.23ZM10.58 12L12 13.42L13.42 12L12 10.58L10.58 12Z" fill="black"/>
</svg>
