<svg width="24" height="24" viewBox="0 0 24 24" fill="none" xmlns="http://www.w3.org/2000/svg">
<path d="M9.5 19.5V18H4.5C3.95 18 3.45 17.78 3.09 17.41C2.72 17.05 2.5 16.55 2.5 16C2.5 14.97 3.3 14.11 4.31 14.01C4.37 14 4.43 14 4.5 14H19.5C19.57 14 19.63 14 19.69 14.01C20.17 14.05 20.59 14.26 20.91 14.59C21.32 14.99 21.54 15.56 21.49 16.18C21.4 17.23 20.45 18 19.39 18H14.5V19.5C14.5 20.163 14.2366 20.7989 13.7678 21.2678C13.2989 21.7366 12.663 22 12 22C11.337 22 10.7011 21.7366 10.2322 21.2678C9.76339 20.7989 9.5 20.163 9.5 19.5Z" stroke="black" stroke-width="1.5" stroke-linecap="round" stroke-linejoin="round"/>
<path d="M19.8 12L19.69 14.01C19.63 14 19.57 14 19.5 14H4.5C4.43 14 4.37 14 4.31 14.01L3.83 5.3C3.78748 4.88313 3.83288 4.46197 3.96327 4.06374C4.09366 3.66551 4.30614 3.29906 4.58698 2.98806C4.86782 2.67706 5.21078 2.42844 5.59369 2.25824C5.97661 2.08805 6.39097 2.00008 6.81 2H17.19C18.96 2 20.35 3.53 20.17 5.3L20.02 8.01M7.99 2V7M12 2V4" stroke="black" stroke-width="1.5" stroke-linecap="round" stroke-linejoin="round"/>
</svg>
