<svg width="24" height="24" viewBox="0 0 24 24" fill="none" xmlns="http://www.w3.org/2000/svg">
<path d="M20.98 3.0199C20.5588 2.59421 20.0334 2.28622 19.4562 2.12657C18.879 1.96692 18.2701 1.96117 17.69 2.1099L7.89 4.5599C7.08447 4.75941 6.34866 5.17496 5.76185 5.76176C5.17505 6.34857 4.7595 7.08438 4.56 7.8899L2.11 17.6999C1.81 18.8899 2.15 20.1199 3.02 20.9899C3.68 21.6399 4.55 21.9999 5.45 21.9999C5.73 21.9999 6.02 21.9699 6.3 21.8899L16.11 19.4399C16.9155 19.2404 17.6513 18.8249 18.2381 18.238C18.8249 17.6512 19.2405 16.9154 19.44 16.1099L21.89 6.29991C22.19 5.10991 21.85 3.8799 20.98 3.0199ZM12 15.8799C9.86 15.8799 8.12 14.1399 8.12 11.9999C8.12 9.8599 9.86 8.1199 12 8.1199C14.14 8.1199 15.88 9.8599 15.88 11.9999C15.88 14.1399 14.14 15.8799 12 15.8799Z" fill="black"/>
</svg>
