<svg width="24" height="24" viewBox="0 0 24 24" fill="none" xmlns="http://www.w3.org/2000/svg">
<path opacity="0.4" d="M16.19 2H7.81C4.17 2 2 4.17 2 7.81V16.18C2 19.83 4.17 22 7.81 22H16.18C19.82 22 21.99 19.83 21.99 16.19V7.81C22 4.17 19.83 2 16.19 2Z" fill="black"/>
<path d="M10.74 16.28C10.55 16.28 10.36 16.21 10.21 16.06C10.0705 15.9189 9.9923 15.7284 9.9923 15.53C9.9923 15.3316 10.0705 15.1411 10.21 15L13.21 12L10.21 9C10.0705 8.85886 9.9923 8.66843 9.9923 8.47C9.9923 8.27157 10.0705 8.08114 10.21 7.94C10.5 7.65 10.98 7.65 11.27 7.94L14.8 11.47C15.09 11.76 15.09 12.24 14.8 12.53L11.27 16.06C11.12 16.21 10.93 16.28 10.74 16.28Z" fill="black"/>
</svg>
