<svg width="24" height="24" viewBox="0 0 24 24" fill="none" xmlns="http://www.w3.org/2000/svg">
<path d="M15 22.75H9C3.57 22.75 1.25 20.43 1.25 15V9C1.25 3.57 3.57 1.25 9 1.25H15C20.43 1.25 22.75 3.57 22.75 9V15C22.75 20.43 20.43 22.75 15 22.75ZM9 2.75C4.39 2.75 2.75 4.39 2.75 9V15C2.75 19.61 4.39 21.25 9 21.25H15C19.61 21.25 21.25 19.61 21.25 15V9C21.25 4.39 19.61 2.75 15 2.75H9Z" fill="black"/>
<path d="M10.74 16.28C10.55 16.28 10.36 16.21 10.21 16.06C10.0705 15.9189 9.9923 15.7284 9.9923 15.53C9.9923 15.3316 10.0705 15.1411 10.21 15L13.21 12L10.21 9C10.0705 8.85886 9.9923 8.66843 9.9923 8.47C9.9923 8.27157 10.0705 8.08114 10.21 7.94C10.5 7.65 10.98 7.65 11.27 7.94L14.8 11.47C15.09 11.76 15.09 12.24 14.8 12.53L11.27 16.06C11.12 16.21 10.93 16.28 10.74 16.28Z" fill="black"/>
</svg>
