<svg width="24" height="24" viewBox="0 0 24 24" fill="none" xmlns="http://www.w3.org/2000/svg">
<path opacity="0.4" d="M12 22C17.523 22 22 17.523 22 12C22 6.477 17.523 2 12 2C6.477 2 2 6.477 2 12C2 17.523 6.477 22 12 22Z" fill="black"/>
<path d="M16.03 11.4701L13.03 8.47014C12.8889 8.33066 12.6984 8.25244 12.5 8.25244C12.3016 8.25244 12.1111 8.33066 11.97 8.47014C11.68 8.76014 11.68 9.24014 11.97 9.53014L13.69 11.2501H8.5C8.09 11.2501 7.75 11.5901 7.75 12.0001C7.75 12.4101 8.09 12.7501 8.5 12.7501H13.69L11.97 14.4701C11.68 14.7601 11.68 15.2401 11.97 15.5301C12.12 15.6801 12.31 15.7501 12.5 15.7501C12.69 15.7501 12.88 15.6801 13.03 15.5301L16.03 12.5301C16.32 12.2401 16.32 11.7601 16.03 11.4701Z" fill="black"/>
</svg>
