<svg width="24" height="24" viewBox="0 0 24 24" fill="none" xmlns="http://www.w3.org/2000/svg">
<path d="M22.66 4.64001C22.46 4.28001 22 4.14001 21.64 4.34001L4.7 13.66C4.58 13.12 4.5 12.56 4.5 12C4.50084 10.663 4.85891 9.35059 5.53716 8.19844C6.2154 7.04629 7.18919 6.09629 8.35776 5.44675C9.52634 4.7972 10.8472 4.4717 12.1838 4.50392C13.5204 4.53614 14.8241 4.92491 15.96 5.63001C16.0434 5.68188 16.1362 5.71682 16.2331 5.73283C16.33 5.74885 16.4291 5.74562 16.5247 5.72333C16.6204 5.70105 16.7107 5.66014 16.7905 5.60295C16.8703 5.54576 16.9381 5.4734 16.99 5.39001C17.0419 5.30662 17.0768 5.21383 17.0928 5.11694C17.1088 5.02005 17.1056 4.92095 17.0833 4.82531C17.061 4.72966 17.0201 4.63934 16.9629 4.55951C16.9057 4.47967 16.8334 4.41188 16.75 4.36001C15.3262 3.46871 13.6798 2.99731 12 3.00001C7.04 3.00001 3 7.04001 3 12C3 12.81 3.11 13.61 3.32 14.39C3.32 14.4 3.33 14.4 3.33 14.41L1.64 15.34C1.28 15.54 1.14 16 1.34 16.36C1.48 16.61 1.73 16.75 2 16.75C2.12 16.75 2.25 16.72 2.36 16.66L22.36 5.66001C22.72 5.46001 22.86 5.00001 22.66 4.64001Z" fill="black"/>
<path opacity="0.4" d="M22.66 8.14204C22.46 7.78204 22 7.64204 21.64 7.84204L19.53 9.00204C19.5 9.02204 19.46 9.03204 19.43 9.06204L1.64 18.842C1.28 19.042 1.14 19.502 1.34 19.862C1.48 20.112 1.73 20.252 2 20.252C2.12 20.252 2.25 20.222 2.36 20.162L19.39 10.792C19.45 11.192 19.5 11.592 19.5 12.002C19.4996 13.3412 19.1408 14.6559 18.4608 15.8096C17.7808 16.9632 16.8044 17.9139 15.633 18.5629C14.4616 19.2119 13.1378 19.5355 11.7991 19.5002C10.4604 19.4648 9.15557 19.0719 8.02 18.362C7.93664 18.3101 7.84385 18.275 7.74694 18.259C7.65002 18.2429 7.55089 18.2461 7.45522 18.2684C7.35954 18.2907 7.26921 18.3316 7.18938 18.3889C7.10955 18.4461 7.0418 18.5186 6.99 18.602C6.77 18.952 6.87 19.412 7.23 19.632C8.66 20.532 10.31 21.002 12.01 21.002C16.97 21.002 21.01 16.962 21.01 12.002C21.01 11.332 20.91 10.682 20.77 10.042L22.37 9.16204C22.72 8.96204 22.86 8.50204 22.66 8.14204Z" fill="black"/>
</svg>
