<svg width="24" height="24" viewBox="0 0 24 24" fill="none" xmlns="http://www.w3.org/2000/svg">
<path d="M4.04 14.94C3.71 14.94 3.41 14.72 3.32 14.39C3.11 13.61 3 12.81 3 12C3 7.04 7.04 3 12 3C13.69 3 15.33 3.47 16.75 4.36C16.8334 4.41187 16.9057 4.47966 16.9629 4.5595C17.0201 4.63933 17.061 4.72965 17.0833 4.82529C17.1056 4.92094 17.1088 5.02004 17.0928 5.11693C17.0768 5.21382 17.0419 5.30661 16.99 5.39C16.9381 5.47339 16.8703 5.54575 16.7905 5.60294C16.7107 5.66013 16.6204 5.70103 16.5247 5.72332C16.4291 5.74561 16.33 5.74884 16.2331 5.73282C16.1362 5.71681 16.0434 5.68187 15.96 5.63C14.6786 4.83548 13.1876 4.44543 11.6813 4.51069C10.175 4.57596 8.72334 5.09352 7.5155 5.99589C6.30765 6.89827 5.39968 8.1436 4.90995 9.56956C4.42022 10.9955 4.37145 12.5359 4.77 13.99C4.88 14.39 4.64 14.8 4.24 14.91C4.18 14.93 4.11 14.94 4.04 14.94ZM12 20.999C10.3 20.999 8.65 20.519 7.22 19.629C7.13661 19.5771 7.06425 19.5093 7.00706 19.4295C6.94987 19.3497 6.90897 19.2594 6.88668 19.1637C6.86439 19.0681 6.86116 18.969 6.87718 18.8721C6.89319 18.7752 6.92813 18.6824 6.98 18.599C7.08476 18.4306 7.25213 18.3107 7.44529 18.2657C7.54094 18.2434 7.64004 18.2402 7.73693 18.2562C7.83382 18.2722 7.92661 18.3071 8.01 18.359C9.2 19.109 10.58 19.499 11.99 19.499C16.13 19.499 19.49 16.139 19.49 11.999C19.49 11.269 19.38 10.539 19.18 9.849C19.1363 9.66355 19.165 9.4684 19.2603 9.30339C19.3555 9.13838 19.5102 9.01595 19.6927 8.96109C19.8751 8.90622 20.0716 8.92305 20.2421 9.00815C20.4126 9.09325 20.5442 9.24019 20.61 9.419C20.86 10.249 20.99 11.119 20.99 11.999C21 16.959 16.96 20.999 12 20.999Z" fill="black"/>
<path d="M2 16.7502C1.86529 16.7495 1.73319 16.713 1.61722 16.6445C1.50125 16.576 1.40558 16.4778 1.34 16.3602C1.14 16.0002 1.27 15.5402 1.64 15.3402L21.64 4.34017C22 4.14017 22.46 4.27016 22.66 4.64016C22.86 5.00016 22.73 5.46016 22.36 5.66016L2.36 16.6602C2.25 16.7202 2.12 16.7502 2 16.7502ZM2 20.2502C1.86529 20.2495 1.73319 20.213 1.61722 20.1445C1.50125 20.076 1.40558 19.9778 1.34 19.8602C1.14 19.5002 1.27 19.0402 1.64 18.8402L21.64 7.84017C22 7.64017 22.46 7.77017 22.66 8.14017C22.86 8.50017 22.73 8.96016 22.36 9.16016L2.36 20.1602C2.25 20.2202 2.12 20.2502 2 20.2502Z" fill="black"/>
</svg>
