<svg width="24" height="24" viewBox="0 0 24 24" fill="none" xmlns="http://www.w3.org/2000/svg">
<path d="M3.27 7.50804C2.59 8.86804 2.2 10.388 2.2 11.998C2.2 13.608 2.59 15.128 3.27 16.488L3.28 16.478V16.488C4.10767 18.1448 5.38082 19.5381 6.95649 20.5114C8.53216 21.4848 10.348 21.9995 12.2 21.998C14.9 21.998 17.17 21.108 18.82 19.578C20.71 17.838 21.8 15.268 21.8 12.218C21.8 11.398 21.73 10.798 21.59 10.178H12.2V13.888H17.71C17.6 14.808 17 16.198 15.67 17.128C14.83 17.718 13.69 18.128 12.2 18.128C9.56 18.128 7.31 16.388 6.51 13.968C6.3 13.348 6.18 12.678 6.18 11.988C6.18 11.298 6.3 10.628 6.5 10.008C6.56 9.82804 6.63 9.63804 6.71 9.46804C7.66 7.33804 9.76 5.85804 12.2 5.85804C14.08 5.85804 15.34 6.66804 16.07 7.34804L18.89 4.58804C17.16 2.97804 14.9 1.98804 12.2 1.98804C10.05 1.98804 8.06 2.66804 6.43 3.81804" stroke="black" stroke-width="1.5" stroke-miterlimit="10" stroke-linecap="round" stroke-linejoin="round"/>
</svg>
