<svg width="24" height="24" viewBox="0 0 24 24" fill="none" xmlns="http://www.w3.org/2000/svg">
<path d="M21.59 10.178H12.2V13.888H17.71C17.6 14.808 17 16.198 15.67 17.128C14.83 17.718 13.69 18.128 12.2 18.128C9.56 18.128 7.31 16.388 6.51 13.968C6.3 13.348 6.18 12.678 6.18 11.988C6.18 11.298 6.3 10.628 6.5 10.008C6.56 9.82804 6.63 9.63804 6.71 9.46804C7.66 7.33804 9.76 5.85804 12.2 5.85804C14.08 5.85804 15.34 6.66804 16.07 7.34804L18.89 4.58804C17.16 2.97804 14.9 1.98804 12.2 1.98804C8.29 1.98804 4.91 4.22804 3.27 7.49804C2.59 8.85804 2.2 10.378 2.2 11.988C2.2 13.598 2.59 15.118 3.27 16.478L3.28 16.468V16.478C4.10767 18.1348 5.38082 19.5281 6.95649 20.5014C8.53216 21.4748 10.348 21.9896 12.2 21.988C14.9 21.988 17.17 21.098 18.82 19.568C20.71 17.828 21.8 15.258 21.8 12.208C21.8 11.398 21.73 10.798 21.59 10.178Z" stroke="black" stroke-width="1.5" stroke-miterlimit="10" stroke-linecap="round" stroke-linejoin="round"/>
</svg>
