<svg width="24" height="24" viewBox="0 0 24 24" fill="none" xmlns="http://www.w3.org/2000/svg">
<path opacity="0.4" d="M20.2 3.80005H20.3M3.7 20.2001H3.8" stroke="black" stroke-width="3" stroke-miterlimit="10" stroke-linecap="round" stroke-linejoin="round"/>
<path d="M15.6 5.99991C14.2577 5.19214 12.6832 4.85832 11.1286 5.05193C9.57407 5.24554 8.1295 5.95539 7.02639 7.06772C5.92328 8.18005 5.22549 9.63048 5.04482 11.1866C4.86416 12.7427 5.21108 14.3144 6.03 15.6499M17.97 8.35192C18.6444 9.44984 19.001 10.7134 19 12.0019C19 13.2419 18.68 14.4019 18.11 15.4119M8.34 17.9689C9.32566 18.5707 10.4445 18.9202 11.5974 18.9865C12.7504 19.0527 13.9019 18.8338 14.95 18.3489" stroke="black" stroke-width="1.5" stroke-miterlimit="10" stroke-linecap="round" stroke-linejoin="round"/>
</svg>
