<svg width="24" height="24" viewBox="0 0 24 24" fill="none" xmlns="http://www.w3.org/2000/svg">
<path d="M20.26 5.25C19.43 5.25 18.76 4.58 18.76 3.75C18.76 2.92 19.43 2.25 20.26 2.25H20.27C21.1 2.25 21.77 2.92 21.77 3.75C21.77 4.58 21.09 5.25 20.26 5.25ZM3.75999 21.75C2.92999 21.75 2.25999 21.08 2.25999 20.25C2.25999 19.42 2.92999 18.75 3.75999 18.75H3.76999C4.59999 18.75 5.26999 19.42 5.26999 20.25C5.26999 21.08 4.58999 21.75 3.75999 21.75ZM6.02999 16.4C5.77999 16.4 5.52999 16.27 5.38999 16.04C4.64577 14.8238 4.25131 13.4259 4.24999 12C4.24999 7.73 7.72999 4.25 12 4.25C13.41 4.25 14.79 4.63 15.99 5.35C16.34 5.56 16.46 6.02 16.25 6.38C16.04 6.73 15.58 6.85 15.22 6.64C14.25 6.05887 13.1407 5.75131 12.01 5.75C8.55999 5.75 5.75999 8.55 5.75999 12C5.75999 13.15 6.07999 14.28 6.67999 15.26C6.89999 15.61 6.78999 16.07 6.42999 16.29C6.29999 16.37 6.15999 16.4 6.02999 16.4ZM12 19.75C10.56 19.75 9.15999 19.35 7.94999 18.61C7.7824 18.5047 7.6625 18.3381 7.61582 18.1458C7.56913 17.9534 7.59933 17.7504 7.69999 17.58C7.80531 17.4124 7.97187 17.2925 8.16422 17.2458C8.35658 17.1991 8.55956 17.2293 8.72999 17.33C9.67754 17.911 10.7628 18.2289 11.8741 18.2509C12.9854 18.2729 14.0824 17.9983 15.0522 17.4553C16.022 16.9123 16.8296 16.1206 17.3917 15.1617C17.9537 14.2029 18.25 13.1115 18.25 12C18.25 10.85 17.93 9.72 17.33 8.74C17.2778 8.65624 17.2428 8.5629 17.2271 8.46545C17.2114 8.368 17.2153 8.2684 17.2386 8.17248C17.2619 8.07656 17.3041 7.98625 17.3627 7.90684C17.4213 7.82743 17.4952 7.76051 17.58 7.71C17.7498 7.60671 17.9536 7.57502 18.1467 7.62189C18.3398 7.66877 18.5065 7.79037 18.61 7.96C19.3543 9.17986 19.7487 10.581 19.75 12.01C19.75 16.27 16.27 19.75 12 19.75Z" fill="black"/>
</svg>
