<svg width="24" height="24" viewBox="0 0 24 24" fill="none" xmlns="http://www.w3.org/2000/svg">
<path d="M15.6 5.99991C14.2577 5.19214 12.6832 4.85832 11.1286 5.05193C9.57408 5.24554 8.12951 5.95539 7.0264 7.06772C5.92329 8.18005 5.22549 9.63048 5.04483 11.1866C4.86416 12.7427 5.21108 14.3144 6.03 15.6499M8.34 17.9719C9.41 18.6219 10.66 19.0019 12 19.0019C13.2439 19.003 14.4656 18.6723 15.5392 18.0439C16.6127 17.4156 17.4993 16.5124 18.1076 15.4273C18.7158 14.3423 19.0237 13.1146 18.9995 11.8709C18.9754 10.6273 18.62 9.41252 17.97 8.35192" stroke="black" stroke-width="1.5" stroke-miterlimit="10" stroke-linecap="round" stroke-linejoin="round"/>
<path opacity="0.4" d="M20.2 3.80005H20.3M3.7 20.2001H3.8" stroke="black" stroke-width="3" stroke-miterlimit="10" stroke-linecap="round" stroke-linejoin="round"/>
</svg>
