<svg width="24" height="24" viewBox="0 0 24 24" fill="none" xmlns="http://www.w3.org/2000/svg">
<path d="M21.691 2.71C21.6119 2.52584 21.4652 2.37908 21.281 2.3C21.1911 2.26805 21.0964 2.25116 21.001 2.25H17.001C16.591 2.25 16.251 2.59 16.251 3C16.251 3.41 16.591 3.75 17.001 3.75H19.191L14.471 8.47C14.181 8.76 14.181 9.24 14.471 9.53C14.621 9.68 14.811 9.75 15.001 9.75C15.191 9.75 15.381 9.68 15.531 9.53L20.251 4.81V7C20.251 7.41 20.591 7.75 21.001 7.75C21.411 7.75 21.751 7.41 21.751 7V3C21.751 2.9 21.731 2.81 21.691 2.71ZM8.47 14.471L3.75 19.191V17.001C3.75 16.591 3.41 16.251 3 16.251C2.59 16.251 2.25 16.591 2.25 17.001V21.001C2.25 21.101 2.27 21.191 2.31 21.291C2.39 21.471 2.53 21.621 2.72 21.701C2.8 21.731 2.9 21.751 3 21.751H7C7.41 21.751 7.75 21.411 7.75 21.001C7.75 20.591 7.41 20.251 7 20.251H4.81L9.53 15.531C9.82 15.241 9.82 14.761 9.53 14.471C9.38886 14.3315 9.19843 14.2533 9 14.2533C8.80157 14.2533 8.61114 14.3315 8.47 14.471ZM2.2 14.75C1.85 14.75 1.54 14.5 1.47 14.15C1.33 13.45 1.25 12.72 1.25 12C1.25 6.07 6.07 1.25 12 1.25C12.73 1.25 13.46 1.32 14.17 1.47C14.58 1.55 14.84 1.95 14.76 2.35C14.68 2.76 14.27 3.01 13.88 2.94C13.25 2.81 12.63 2.75 12 2.75C6.9 2.75 2.75 6.9 2.75 12C2.75 12.62 2.81 13.25 2.94 13.85C3.02 14.26 2.76 14.65 2.35 14.73C2.3 14.75 2.25 14.75 2.2 14.75ZM12.001 22.748C11.271 22.748 10.541 22.678 9.831 22.528C9.63618 22.4893 9.46464 22.375 9.35403 22.21C9.24342 22.045 9.20277 21.8429 9.241 21.648C9.321 21.238 9.731 20.988 10.121 21.058C10.731 21.178 11.361 21.248 11.991 21.248C17.091 21.248 21.241 17.098 21.241 11.998C21.241 11.378 21.181 10.758 21.061 10.148C20.981 9.738 21.241 9.348 21.651 9.268C22.061 9.188 22.451 9.448 22.531 9.858C22.671 10.558 22.741 11.278 22.741 11.998C22.751 17.928 17.931 22.748 12.001 22.748Z" fill="black"/>
</svg>
