<svg width="24" height="24" viewBox="0 0 24 24" fill="none" xmlns="http://www.w3.org/2000/svg">
<path d="M21.69 2.70804C21.6108 2.52395 21.4641 2.37721 21.28 2.29804C21.1886 2.25808 21.0898 2.23764 20.99 2.23804H16.99C16.58 2.23804 16.24 2.57804 16.24 2.98804C16.24 3.39804 16.58 3.73804 16.99 3.73804H19.18L14.46 8.45804C14.17 8.74804 14.17 9.22804 14.46 9.51804C14.61 9.66804 14.8 9.73804 14.99 9.73804C15.18 9.73804 15.37 9.66804 15.52 9.51804L20.24 4.79804V6.99804C20.24 7.40804 20.58 7.74804 20.99 7.74804C21.4 7.74804 21.74 7.40804 21.74 6.99804V2.99804C21.75 2.89804 21.73 2.80804 21.69 2.70804ZM8.47 14.466L3.75 19.186V16.996C3.75 16.586 3.41 16.246 3 16.246C2.59 16.246 2.25 16.586 2.25 16.996V20.996C2.25 21.096 2.27 21.186 2.31 21.286C2.39 21.466 2.53 21.616 2.72 21.696C2.81 21.736 2.91 21.756 3.01 21.756H7.01C7.42 21.756 7.76 21.416 7.76 21.006C7.76 20.596 7.42 20.256 7.01 20.256H4.82L9.54 15.536C9.83 15.246 9.83 14.766 9.54 14.476C9.39811 14.3353 9.20688 14.2555 9.00703 14.2536C8.80718 14.2518 8.6145 14.328 8.47 14.466Z" fill="black"/>
<path opacity="0.4" d="M2.2 14.75C1.85 14.75 1.54 14.5 1.47 14.15C1.33 13.45 1.25 12.72 1.25 12C1.25 6.07 6.07 1.25 12 1.25C12.73 1.25 13.46 1.32 14.17 1.47C14.58 1.55 14.84 1.95 14.76 2.35C14.68 2.76 14.27 3.01 13.88 2.94C13.27 2.82 12.64 2.75 12.01 2.75C6.91 2.75 2.76 6.9 2.76 12C2.76 12.62 2.82 13.25 2.95 13.85C3.03 14.26 2.77 14.65 2.36 14.73C2.3 14.75 2.25 14.75 2.2 14.75ZM12.001 22.748C11.271 22.748 10.541 22.678 9.831 22.528C9.63618 22.4893 9.46464 22.375 9.35403 22.21C9.24342 22.045 9.20277 21.8429 9.241 21.648C9.321 21.238 9.731 20.988 10.121 21.058C10.731 21.178 11.361 21.248 11.991 21.248C17.091 21.248 21.241 17.098 21.241 11.998C21.241 11.378 21.181 10.758 21.061 10.148C20.981 9.738 21.241 9.348 21.651 9.268C22.061 9.188 22.451 9.448 22.531 9.858C22.671 10.558 22.741 11.278 22.741 11.998C22.751 17.928 17.931 22.748 12.001 22.748Z" fill="black"/>
</svg>
