<svg width="24" height="24" viewBox="0 0 24 24" fill="none" xmlns="http://www.w3.org/2000/svg">
<path d="M21 7.75C20.59 7.75 20.25 7.41 20.25 7V3.75H17C16.59 3.75 16.25 3.41 16.25 3C16.25 2.59 16.59 2.25 17 2.25H21C21.41 2.25 21.75 2.59 21.75 3V7C21.75 7.41 21.41 7.75 21 7.75Z" fill="black"/>
<path d="M15.001 9.75092C14.811 9.75092 14.621 9.68092 14.471 9.53092C14.3318 9.38965 14.2537 9.19927 14.2537 9.00092C14.2537 8.80257 14.3318 8.61218 14.471 8.47092L20.471 2.47092C20.761 2.18092 21.241 2.18092 21.531 2.47092C21.821 2.76092 21.821 3.24092 21.531 3.53092L15.531 9.53092C15.381 9.68092 15.191 9.75092 15.001 9.75092ZM7 21.7499H3C2.59 21.7499 2.25 21.4099 2.25 20.9999V16.9999C2.25 16.5899 2.59 16.2499 3 16.2499C3.41 16.2499 3.75 16.5899 3.75 16.9999V20.2499H7C7.41 20.2499 7.75 20.5899 7.75 20.9999C7.75 21.4099 7.41 21.7499 7 21.7499Z" fill="black"/>
<path d="M3.001 21.751C2.811 21.751 2.621 21.681 2.471 21.531C2.33176 21.3897 2.2537 21.1994 2.2537 21.001C2.2537 20.8026 2.33176 20.6123 2.471 20.471L8.471 14.471C8.761 14.181 9.241 14.181 9.531 14.471C9.821 14.761 9.821 15.241 9.531 15.531L3.531 21.531C3.381 21.681 3.191 21.751 3.001 21.751ZM2.2 14.75C1.85 14.75 1.54 14.5 1.47 14.15C1.33 13.45 1.25 12.72 1.25 12C1.25 6.07 6.07 1.25 12 1.25C12.73 1.25 13.46 1.32 14.17 1.47C14.58 1.55 14.84 1.95 14.76 2.35C14.68 2.76 14.27 3.01 13.88 2.94C13.27 2.82 12.64 2.75 12.01 2.75C6.91 2.75 2.76 6.9 2.76 12C2.76 12.62 2.82 13.25 2.95 13.85C3.03 14.26 2.77 14.65 2.36 14.73C2.3 14.75 2.25 14.75 2.2 14.75ZM12.001 22.748C11.271 22.748 10.541 22.678 9.831 22.528C9.63618 22.4893 9.46464 22.375 9.35403 22.21C9.24342 22.045 9.20277 21.8429 9.241 21.648C9.321 21.238 9.731 20.988 10.121 21.058C10.731 21.178 11.361 21.248 11.991 21.248C17.091 21.248 21.241 17.098 21.241 11.998C21.241 11.378 21.181 10.758 21.061 10.148C21.0367 10.0495 21.0326 9.94706 21.049 9.84693C21.0655 9.7468 21.102 9.65105 21.1565 9.56546C21.211 9.47987 21.2823 9.40623 21.3661 9.349C21.4499 9.29177 21.5444 9.25213 21.644 9.2325C21.7435 9.21286 21.846 9.21362 21.9453 9.23475C22.0445 9.25587 22.1385 9.29691 22.2214 9.35539C22.3043 9.41386 22.3745 9.48856 22.4277 9.57495C22.4809 9.66134 22.5161 9.75764 22.531 9.858C22.671 10.558 22.741 11.278 22.741 11.998C22.751 17.928 17.931 22.748 12.001 22.748Z" fill="black"/>
</svg>
