<svg width="24" height="24" viewBox="0 0 24 24" fill="none" xmlns="http://www.w3.org/2000/svg">
<g opacity="0.4">
<path fill-rule="evenodd" clip-rule="evenodd" d="M16.25 3C16.25 2.80109 16.329 2.61032 16.4697 2.46967C16.6103 2.32902 16.8011 2.25 17 2.25H21C21.1989 2.25 21.3897 2.32902 21.5303 2.46967C21.671 2.61032 21.75 2.80109 21.75 3V7C21.75 7.19891 21.671 7.38968 21.5303 7.53033C21.3897 7.67098 21.1989 7.75 21 7.75C20.8011 7.75 20.6103 7.67098 20.4697 7.53033C20.329 7.38968 20.25 7.19891 20.25 7V3.75H17C16.8011 3.75 16.6103 3.67098 16.4697 3.53033C16.329 3.38968 16.25 3.19891 16.25 3Z" fill="black"/>
<path fill-rule="evenodd" clip-rule="evenodd" d="M21.53 2.47007C21.6705 2.6107 21.7493 2.80132 21.7493 3.00007C21.7493 3.19882 21.6705 3.38945 21.53 3.53007L15.53 9.53007C15.4613 9.60376 15.3785 9.66286 15.2865 9.70385C15.1945 9.74485 15.0952 9.76689 14.9945 9.76866C14.8938 9.77044 14.7938 9.75192 14.7004 9.7142C14.607 9.67647 14.5222 9.62033 14.451 9.54911C14.3797 9.47789 14.3236 9.39306 14.2859 9.29967C14.2482 9.20628 14.2296 9.10625 14.2314 9.00555C14.2332 8.90485 14.2552 8.80553 14.2962 8.71353C14.3372 8.62153 14.3963 8.53873 14.47 8.47007L20.47 2.47007C20.6106 2.32962 20.8012 2.25073 21 2.25073C21.1988 2.25073 21.3894 2.32962 21.53 2.47007ZM3 16.2501C3.19891 16.2501 3.38968 16.3291 3.53033 16.4697C3.67098 16.6104 3.75 16.8012 3.75 17.0001V20.2501H7C7.19891 20.2501 7.38968 20.3291 7.53033 20.4697C7.67098 20.6104 7.75 20.8012 7.75 21.0001C7.75 21.199 7.67098 21.3898 7.53033 21.5304C7.38968 21.6711 7.19891 21.7501 7 21.7501H3C2.80109 21.7501 2.61032 21.6711 2.46967 21.5304C2.32902 21.3898 2.25 21.199 2.25 21.0001V17.0001C2.25 16.8012 2.32902 16.6104 2.46967 16.4697C2.61032 16.3291 2.80109 16.2501 3 16.2501Z" fill="black"/>
<path fill-rule="evenodd" clip-rule="evenodd" d="M9.53 14.4701C9.67045 14.6107 9.74934 14.8013 9.74934 15.0001C9.74934 15.1988 9.67045 15.3894 9.53 15.5301L3.53 21.5301C3.38782 21.6626 3.19978 21.7347 3.00548 21.7312C2.81118 21.7278 2.62579 21.6491 2.48838 21.5117C2.35096 21.3743 2.27225 21.1889 2.26882 20.9946C2.2654 20.8003 2.33752 20.6122 2.47 20.4701L8.47 14.4701C8.61062 14.3296 8.80125 14.2507 9 14.2507C9.19875 14.2507 9.38937 14.3296 9.53 14.4701Z" fill="black"/>
</g>
<path fill-rule="evenodd" clip-rule="evenodd" d="M1.25 12C1.25 6.066 6.066 1.25 12 1.25C12.74 1.25 13.47 1.325 14.167 1.465C14.2663 1.48133 14.3614 1.5175 14.4464 1.57133C14.5315 1.62517 14.6048 1.69558 14.6621 1.77836C14.7194 1.86114 14.7594 1.95461 14.7798 2.05319C14.8002 2.15177 14.8005 2.25344 14.7807 2.35215C14.761 2.45086 14.7216 2.54458 14.6649 2.62774C14.6081 2.71089 14.5352 2.78178 14.4505 2.83617C14.3658 2.89055 14.271 2.92733 14.1718 2.94431C14.0726 2.96129 13.971 2.95813 13.873 2.935C13.2563 2.81199 12.6289 2.75002 12 2.75C6.894 2.75 2.75 6.894 2.75 12C2.75 12.64 2.815 13.26 2.935 13.85C2.97478 14.0449 2.9355 14.2477 2.82579 14.4137C2.71608 14.5796 2.54493 14.6952 2.35 14.735C2.15507 14.7748 1.95231 14.7355 1.78634 14.6258C1.62037 14.5161 1.50478 14.3449 1.465 14.15C1.32164 13.4423 1.24962 12.7221 1.25 12ZM21.654 9.265C21.8489 9.22614 22.0513 9.26623 22.2167 9.37648C22.3821 9.48674 22.4969 9.65812 22.536 9.853C22.676 10.549 22.751 11.269 22.751 12C22.751 17.934 17.935 22.75 12.001 22.75C11.261 22.75 10.531 22.675 9.834 22.536C9.63893 22.497 9.46734 22.3821 9.35698 22.2166C9.24661 22.0511 9.20651 21.8486 9.2455 21.6535C9.28449 21.4584 9.39937 21.2868 9.56487 21.1765C9.73037 21.0661 9.93293 21.026 10.128 21.065C10.73 21.185 11.361 21.25 12.001 21.25C17.106 21.25 21.251 17.106 21.251 12C21.251 11.372 21.186 10.75 21.065 10.147C21.0261 9.95208 21.0662 9.7497 21.1765 9.58432C21.2867 9.41895 21.4591 9.3041 21.654 9.265Z" fill="black"/>
</svg>
