<svg width="24" height="24" viewBox="0 0 24 24" fill="none" xmlns="http://www.w3.org/2000/svg">
<path d="M16.8 9H12.75V15.25C12.75 15.66 12.41 16 12 16C11.59 16 11.25 15.66 11.25 15.25V9H7.2C4 9 2 11 2 14.2V16.79C2 20 4 22 7.2 22H16.79C19.99 22 21.99 20 21.99 16.8V14.2C22 11 20 9 16.8 9Z" fill="black"/>
<path d="M12.75 4.56063L14.82 6.63063C14.97 6.78063 15.16 6.85063 15.35 6.85063C15.54 6.85063 15.73 6.78063 15.88 6.63063C16.17 6.34063 16.17 5.86063 15.88 5.57063L12.53 2.22063C12.3889 2.08115 12.1984 2.00293 12 2.00293C11.8016 2.00293 11.6111 2.08115 11.47 2.22063L8.12 5.57063C7.83 5.86063 7.83 6.34063 8.12 6.63063C8.41 6.92063 8.89 6.92063 9.18 6.63063L11.25 4.56063V9.00063H12.75V4.56063Z" fill="black"/>
</svg>
