<svg width="24" height="24" viewBox="0 0 24 24" fill="none" xmlns="http://www.w3.org/2000/svg">
<path opacity="0.4" d="M16.8 9H7.2C4 9 2 11 2 14.2V16.79C2 20 4 22 7.2 22H16.79C19.99 22 21.99 20 21.99 16.8V14.2C22 11 20 9 16.8 9Z" fill="black"/>
<path d="M15.88 5.56965L12.53 2.21965C12.3889 2.08017 12.1984 2.00195 12 2.00195C11.8016 2.00195 11.6111 2.08017 11.47 2.21965L8.12 5.56965C7.83 5.85965 7.83 6.33965 8.12 6.62965C8.41 6.91965 8.89 6.91965 9.18 6.62965L11.25 4.55965V15.2497C11.25 15.6597 11.59 15.9997 12 15.9997C12.41 15.9997 12.75 15.6597 12.75 15.2497V4.55965L14.82 6.62965C14.97 6.77965 15.16 6.84965 15.35 6.84965C15.54 6.84965 15.73 6.77965 15.88 6.62965C16.18 6.33965 16.18 5.86965 15.88 5.56965Z" fill="black"/>
</svg>
