<svg width="24" height="24" viewBox="0 0 24 24" fill="none" xmlns="http://www.w3.org/2000/svg">
<path d="M15.26 22.2503H8.74C3.83 22.2503 1.73 20.1503 1.73 15.2403V15.1103C1.73 10.6703 3.48 8.53027 7.4 8.16027C7.8 8.13027 8.18 8.43027 8.22 8.84027C8.26 9.25027 7.96 9.62027 7.54 9.66027C4.4 9.95027 3.23 11.4303 3.23 15.1203V15.2503C3.23 19.3203 4.67 20.7603 8.74 20.7603H15.26C19.33 20.7603 20.77 19.3203 20.77 15.2503V15.1203C20.77 11.4103 19.58 9.93027 16.38 9.66027C16.1826 9.64248 16.0003 9.5473 15.8729 9.39553C15.7455 9.24376 15.6833 9.04773 15.7 8.85027C15.74 8.44027 16.09 8.13027 16.51 8.17027C20.49 8.51027 22.27 10.6603 22.27 15.1303V15.2603C22.27 20.1503 20.17 22.2503 15.26 22.2503Z" fill="black"/>
<path d="M12 15.7501C11.59 15.7501 11.25 15.4101 11.25 15.0001V3.62012C11.25 3.21012 11.59 2.87012 12 2.87012C12.41 2.87012 12.75 3.21012 12.75 3.62012V15.0001C12.75 15.4101 12.41 15.7501 12 15.7501Z" fill="black"/>
<path d="M15.35 6.60043C15.16 6.60043 14.97 6.53043 14.82 6.38043L12 3.56043L9.18 6.38043C8.89 6.67043 8.41 6.67043 8.12 6.38043C7.98052 6.23929 7.9023 6.04886 7.9023 5.85043C7.9023 5.652 7.98052 5.46157 8.12 5.32043L11.47 1.97043C11.76 1.68043 12.24 1.68043 12.53 1.97043L15.88 5.32043C16.17 5.61043 16.17 6.09043 15.88 6.38043C15.74 6.53043 15.54 6.60043 15.35 6.60043Z" fill="black"/>
</svg>
