<svg width="24" height="24" viewBox="0 0 24 24" fill="none" xmlns="http://www.w3.org/2000/svg">
<path d="M16.19 2H7.81C4.17 2 2 4.17 2 7.81V16.18C2 19.82 4.17 21.99 7.81 21.99H16.18C19.82 21.99 21.99 19.82 21.99 16.18V7.81C22 4.17 19.83 2 16.19 2ZM13.06 16.68C12.8717 16.7435 12.6659 16.7297 12.4878 16.6416C12.3096 16.5534 12.1738 16.3982 12.11 16.21L11.4 14.08H8.32L7.34 16.28C7.17 16.66 6.73 16.83 6.35 16.66C5.97 16.49 5.8 16.05 5.97 15.67L9.5 7.74C9.63 7.46 9.9 7.27 10.22 7.3C10.53 7.31 10.8 7.52 10.9 7.81L13.54 15.74C13.5973 15.9283 13.5793 16.1316 13.4898 16.3069C13.4003 16.4822 13.2462 16.616 13.06 16.68ZM17.1 15.97C17.1 16.38 16.76 16.72 16.35 16.72C15.94 16.72 15.6 16.38 15.6 15.97V10.68C15.6 10.27 15.94 9.93 16.35 9.93C16.76 9.93 17.1 10.27 17.1 10.68V15.97ZM17.27 8.42C17.22 8.54 17.15 8.65 17.05 8.74C16.96 8.83 16.85 8.91 16.73 8.96C16.61 9.01 16.48 9.03 16.35 9.03C16.1524 9.02986 15.9592 8.97208 15.794 8.86372C15.6288 8.75536 15.4988 8.60115 15.42 8.42C15.37 8.29 15.35 8.17 15.35 8.03C15.35 7.9 15.37 7.77 15.42 7.65C15.48 7.53 15.55 7.42 15.64 7.33C15.73 7.23 15.84 7.16 15.96 7.11C16.33 6.96 16.78 7.05 17.05 7.33C17.1435 7.42126 17.2181 7.53006 17.2696 7.65016C17.3211 7.77027 17.3484 7.89934 17.35 8.03C17.35 8.17 17.32 8.3 17.27 8.42Z" fill="black"/>
<path d="M8.98 12.5701H10.9L10.08 10.1101L8.98 12.5701Z" fill="black"/>
</svg>
