<svg width="24" height="24" viewBox="0 0 24 24" fill="none" xmlns="http://www.w3.org/2000/svg">
<path opacity="0.4" d="M16.19 2H7.81C4.17 2 2 4.17 2 7.81V16.18C2 19.82 4.17 21.99 7.81 21.99H16.18C19.82 21.99 21.99 19.82 21.99 16.18V7.81C22 4.17 19.83 2 16.19 2Z" fill="black"/>
<path d="M10.89 7.79998C10.79 7.50998 10.52 7.29998 10.21 7.28998C9.89 7.26998 9.61 7.44998 9.49 7.72998L5.96 15.66C5.79 16.04 5.96 16.48 6.34 16.65C6.72 16.82 7.16 16.65 7.33 16.27L8.31 14.07H11.39L12.1 16.2C12.1638 16.3882 12.2996 16.5434 12.4778 16.6315C12.6559 16.7197 12.8617 16.7335 13.05 16.67C13.44 16.54 13.65 16.11 13.52 15.72L10.89 7.79998ZM8.98 12.57L10.08 10.1L10.9 12.57H8.98ZM16.35 9.92998C15.94 9.92998 15.6 10.27 15.6 10.68V15.97C15.6 16.38 15.94 16.72 16.35 16.72C16.76 16.72 17.1 16.38 17.1 15.97V10.68C17.1 10.26 16.76 9.92998 16.35 9.92998ZM17.27 7.65098C17.2216 7.52918 17.1464 7.41982 17.05 7.33098C16.78 7.05098 16.33 6.96098 15.96 7.11098C15.84 7.16098 15.73 7.23098 15.64 7.33098C15.55 7.42098 15.48 7.53098 15.42 7.65098C15.37 7.77098 15.35 7.90098 15.35 8.03098C15.35 8.17098 15.37 8.29098 15.42 8.42098C15.525 8.66386 15.7207 8.85618 15.9653 8.95703C16.21 9.05787 16.4843 9.05929 16.73 8.96098C16.85 8.91098 16.96 8.83098 17.05 8.74098C17.15 8.65098 17.22 8.54098 17.27 8.42098C17.32 8.30098 17.35 8.17098 17.35 8.03098C17.35 7.90098 17.32 7.77098 17.27 7.65098Z" fill="black"/>
</svg>
