<svg width="24" height="24" viewBox="0 0 24 24" fill="none" xmlns="http://www.w3.org/2000/svg">
<path d="M12.82 16.72C12.6632 16.7199 12.5104 16.6706 12.383 16.5791C12.2557 16.4876 12.1602 16.3585 12.11 16.21L10.08 10.11L7.34 16.28C7.17 16.66 6.73 16.83 6.35 16.66C5.97 16.49 5.8 16.05 5.97 15.67L9.5 7.73999C9.63 7.45999 9.9 7.26999 10.22 7.29999C10.53 7.30999 10.8 7.51999 10.9 7.80999L13.54 15.74C13.67 16.13 13.46 16.56 13.07 16.69C12.98 16.7 12.9 16.72 12.82 16.72Z" fill="black"/>
<path d="M11.94 12.57H7.53V14.07H11.94V12.57ZM16.35 16.72C15.94 16.72 15.6 16.38 15.6 15.97V10.68C15.6 10.27 15.94 9.92998 16.35 9.92998C16.76 9.92998 17.1 10.27 17.1 10.68V15.97C17.1 16.38 16.76 16.72 16.35 16.72ZM16.35 9.03098C16.1524 9.03084 15.9592 8.97306 15.794 8.8647C15.6288 8.75634 15.4988 8.60213 15.42 8.42098C15.37 8.29098 15.35 8.17098 15.35 8.03098C15.35 7.90098 15.37 7.77098 15.42 7.65098C15.48 7.53098 15.55 7.42098 15.64 7.33098C15.73 7.23098 15.84 7.16098 15.96 7.11098C16.33 6.96098 16.78 7.05098 17.05 7.33098C17.1435 7.42224 17.2181 7.53104 17.2696 7.65114C17.3211 7.77125 17.3484 7.90032 17.35 8.03098C17.35 8.17098 17.32 8.30098 17.27 8.42098C17.22 8.54098 17.15 8.65098 17.05 8.74098C16.96 8.83098 16.85 8.91098 16.73 8.96098C16.61 9.01098 16.48 9.03098 16.35 9.03098Z" fill="black"/>
<path d="M15 22.75H9C3.57 22.75 1.25 20.43 1.25 15V9C1.25 3.57 3.57 1.25 9 1.25H15C20.43 1.25 22.75 3.57 22.75 9V15C22.75 20.43 20.43 22.75 15 22.75ZM9 2.75C4.39 2.75 2.75 4.39 2.75 9V15C2.75 19.61 4.39 21.25 9 21.25H15C19.61 21.25 21.25 19.61 21.25 15V9C21.25 4.39 19.61 2.75 15 2.75H9Z" fill="black"/>
</svg>
