<svg width="24" height="24" viewBox="0 0 24 24" fill="none" xmlns="http://www.w3.org/2000/svg">
<path d="M12 4.74995C11.9 4.74995 11.8 4.73995 11.71 4.71995C11.61 4.69995 11.52 4.66995 11.43 4.63995C11.34 4.59995 11.25 4.54995 11.17 4.49995C10.9633 4.36344 10.7937 4.1778 10.6763 3.95966C10.559 3.74151 10.4975 3.49766 10.4975 3.24995C10.4975 3.00224 10.559 2.7584 10.6763 2.54025C10.7937 2.3221 10.9633 2.13646 11.17 1.99995C11.25 1.94995 11.34 1.89995 11.43 1.86995C11.52 1.82995 11.61 1.79995 11.71 1.77995C11.9151 1.73975 12.1263 1.74287 12.3301 1.78913C12.534 1.83539 12.7258 1.92376 12.8935 2.04856C13.0611 2.17336 13.2008 2.33184 13.3036 2.51382C13.4064 2.69581 13.47 2.89727 13.4903 3.10528C13.5106 3.31329 13.4872 3.52325 13.4215 3.72167C13.3559 3.9201 13.2495 4.10261 13.1092 4.25748C12.9688 4.41236 12.7977 4.53618 12.6067 4.62099C12.4156 4.7058 12.209 4.74973 12 4.74995ZM12 9.24995C11.9 9.24995 11.8 9.23995 11.71 9.21995C11.61 9.19995 11.52 9.16995 11.43 9.13995C11.34 9.09995 11.25 9.04995 11.17 8.99995C11.09 8.93995 11.01 8.87995 10.94 8.80995C10.7827 8.65301 10.6623 8.46308 10.5875 8.25389C10.5127 8.0447 10.4852 7.82149 10.5073 7.60042C10.5293 7.37934 10.6001 7.16592 10.7148 6.97559C10.8294 6.78527 10.9849 6.6228 11.17 6.49995C11.25 6.44995 11.34 6.39995 11.43 6.36995C11.6097 6.29101 11.8038 6.25025 12 6.25025C12.1962 6.25025 12.3903 6.29101 12.57 6.36995C12.66 6.39995 12.75 6.44995 12.83 6.49995C13.0151 6.6228 13.1706 6.78527 13.2852 6.97559C13.3998 7.16592 13.4707 7.37934 13.4927 7.60042C13.5147 7.82149 13.4873 8.0447 13.4125 8.25389C13.3377 8.46308 13.2173 8.65301 13.06 8.80995C12.99 8.87995 12.91 8.93995 12.83 8.99995C12.75 9.04995 12.66 9.09995 12.57 9.13995C12.48 9.16995 12.39 9.19995 12.29 9.21995C12.2 9.23995 12.1 9.24995 12 9.24995ZM12 13.25C11.9 13.25 11.8 13.24 11.71 13.22C11.61 13.2 11.52 13.17 11.43 13.14C11.34 13.1 11.25 13.05 11.17 13C11.09 12.94 11.01 12.88 10.94 12.81C10.7277 12.6013 10.5846 12.3325 10.53 12.04C10.4823 11.7986 10.4947 11.5491 10.5662 11.3137C10.6377 11.0783 10.7661 10.864 10.94 10.69C11.01 10.62 11.09 10.56 11.17 10.5C11.25 10.45 11.34 10.4 11.43 10.36C11.52 10.33 11.61 10.3 11.71 10.28C11.9513 10.2325 12.2006 10.2452 12.4359 10.3168C12.6712 10.3885 12.8852 10.5169 13.0591 10.6908C13.233 10.8648 13.3615 11.0788 13.4331 11.3141C13.5048 11.5493 13.5174 11.7986 13.47 12.04C13.45 12.14 13.42 12.23 13.38 12.32C13.3131 12.5061 13.2035 12.6739 13.06 12.81C12.99 12.88 12.91 12.94 12.83 13C12.75 13.05 12.66 13.1 12.57 13.14C12.48 13.17 12.39 13.2 12.29 13.22C12.2 13.24 12.1 13.25 12 13.25ZM12 16.751C11.74 16.751 11.48 16.641 11.29 16.461C11.11 16.271 11 16.011 11 15.751C11 15.491 11.11 15.231 11.29 15.041C11.52 14.811 11.87 14.711 12.19 14.771C12.26 14.781 12.32 14.801 12.38 14.831C12.44 14.851 12.5 14.881 12.55 14.921C12.61 14.961 12.66 15.001 12.71 15.041C12.89 15.231 13 15.491 13 15.751C13 16.011 12.89 16.271 12.71 16.461C12.66 16.501 12.61 16.541 12.55 16.581C12.5 16.621 12.44 16.651 12.38 16.671C12.32 16.701 12.26 16.721 12.19 16.731C12.13 16.741 12.06 16.751 12 16.751ZM12 20C11.8017 19.997 11.6121 19.9183 11.47 19.78C11.3989 19.7133 11.3442 19.6312 11.31 19.54C11.2477 19.3914 11.2349 19.2267 11.2735 19.0703C11.3121 18.9138 11.4 18.774 11.5243 18.6715C11.6486 18.5689 11.8026 18.5091 11.9635 18.5009C12.1244 18.4927 12.2836 18.5365 12.4177 18.6259C12.5517 18.7153 12.6535 18.8454 12.7078 18.9971C12.7621 19.1488 12.7661 19.3139 12.7192 19.4681C12.6724 19.6222 12.5771 19.7572 12.4476 19.853C12.3181 19.9488 12.1611 20.0003 12 20ZM12 22.07C11.9344 22.0708 11.8694 22.0578 11.8091 22.032C11.7488 22.0062 11.6946 21.968 11.65 21.92C11.602 21.8753 11.5638 21.8211 11.538 21.7608C11.5121 21.7005 11.4992 21.6355 11.5 21.57C11.508 21.4428 11.5642 21.3235 11.6571 21.2363C11.75 21.1491 11.8726 21.1006 12 21.1006C12.1274 21.1006 12.25 21.1491 12.3429 21.2363C12.4358 21.3235 12.492 21.4428 12.5 21.57C12.5 21.7 12.45 21.83 12.35 21.92C12.3054 21.968 12.2511 22.0062 12.1909 22.032C12.1306 22.0578 12.0656 22.0708 12 22.07ZM3.5 9.24995C3.2033 9.25017 2.91322 9.16234 2.66648 8.99758C2.41974 8.83282 2.22744 8.59854 2.11393 8.32442C2.00043 8.05029 1.97082 7.74865 2.02887 7.45769C2.08691 7.16673 2.23 6.89954 2.44 6.68995C2.99 6.12995 4 6.12995 4.56 6.68995C4.71725 6.84689 4.83766 7.03683 4.9125 7.24602C4.98734 7.4552 5.01475 7.67841 4.99274 7.89949C4.97072 8.12057 4.89984 8.33399 4.78522 8.52431C4.6706 8.71464 4.51511 8.8771 4.33 8.99995C4.25 9.04995 4.16 9.09995 4.07 9.12995C3.89092 9.21074 3.69644 9.25168 3.5 9.24995ZM20.5 9.24995C20.11 9.24995 19.72 9.08995 19.44 8.80995C19.16 8.52995 19 8.13995 19 7.74995C19 7.64995 19.01 7.54995 19.03 7.45995C19.05 7.35995 19.08 7.26995 19.11 7.17995C19.15 7.08995 19.2 6.99995 19.25 6.91995C19.31 6.83995 19.37 6.75995 19.44 6.68995C19.51 6.61995 19.59 6.55995 19.67 6.49995C19.75 6.44995 19.84 6.39995 19.93 6.36995C20.1097 6.29101 20.3038 6.25025 20.5 6.25025C20.6962 6.25025 20.8903 6.29101 21.07 6.36995C21.16 6.39995 21.25 6.44995 21.33 6.49995C21.41 6.55995 21.49 6.61995 21.56 6.68995C21.63 6.75995 21.69 6.83995 21.75 6.91995C21.8 6.99995 21.85 7.08995 21.88 7.17995C21.9608 7.35903 22.0017 7.55351 22 7.74995C22.0002 7.99742 21.9391 8.24109 21.8222 8.4592C21.7053 8.67732 21.5362 8.86309 21.33 8.99995C21.25 9.04995 21.16 9.09995 21.07 9.13995C20.98 9.16995 20.89 9.19995 20.79 9.21995C20.69 9.23995 20.6 9.24995 20.5 9.24995ZM20.5 12.749C20.44 12.749 20.37 12.739 20.31 12.729C20.2438 12.7196 20.1796 12.6993 20.12 12.669C20.0563 12.6471 19.9957 12.6168 19.94 12.579C19.89 12.549 19.84 12.499 19.79 12.459C19.75 12.409 19.7 12.359 19.67 12.309C19.6321 12.2532 19.6019 12.1927 19.58 12.129C19.5511 12.0723 19.5309 12.0116 19.52 11.949C19.51 11.879 19.5 11.819 19.5 11.749C19.5 11.489 19.61 11.229 19.79 11.039L19.94 10.919C20 10.879 20.06 10.849 20.12 10.829C20.18 10.799 20.24 10.779 20.31 10.769C20.43 10.739 20.56 10.739 20.69 10.769C20.76 10.779 20.82 10.799 20.88 10.829C20.94 10.849 21 10.879 21.05 10.919C21.11 10.959 21.16 10.999 21.21 11.039C21.39 11.229 21.5 11.489 21.5 11.749C21.5 11.819 21.49 11.879 21.48 11.949C21.47 12.009 21.45 12.069 21.42 12.129C21.4 12.189 21.37 12.249 21.33 12.309L21.21 12.459C21.16 12.499 21.11 12.549 21.05 12.579C21 12.619 20.94 12.649 20.88 12.669C20.82 12.699 20.76 12.719 20.69 12.729C20.63 12.739 20.56 12.749 20.5 12.749ZM3.5 12.749C3.24 12.749 2.98 12.639 2.79 12.459C2.61 12.269 2.5 12.009 2.5 11.749C2.5 11.489 2.61 11.229 2.79 11.039C3.07 10.759 3.51 10.669 3.88 10.829C4.01 10.879 4.11 10.949 4.21 11.039C4.39 11.229 4.5 11.489 4.5 11.749C4.5 12.009 4.39 12.269 4.21 12.459C4.02 12.639 3.76 12.749 3.5 12.749ZM20.5 15.498C20.3984 15.5032 20.2968 15.4877 20.2013 15.4525C20.1059 15.4172 20.0186 15.3629 19.9448 15.2928C19.871 15.2227 19.8123 15.1384 19.7721 15.0449C19.732 14.9514 19.7113 14.8507 19.7113 14.749C19.7113 14.6472 19.732 14.5465 19.7721 14.453C19.8123 14.3595 19.871 14.2752 19.9448 14.2051C20.0186 14.135 20.1059 14.0807 20.2013 14.0454C20.2968 14.0102 20.3984 13.9947 20.5 14C20.6919 14.0099 20.8728 14.0931 21.0051 14.2325C21.1375 14.3719 21.2113 14.5567 21.2113 14.749C21.2113 14.9412 21.1375 15.126 21.0051 15.2654C20.8728 15.4048 20.6919 15.488 20.5 15.498ZM3.5 15.502C3.37653 15.5017 3.25503 15.4709 3.1463 15.4124C3.03757 15.3539 2.94496 15.2695 2.8767 15.1666C2.80844 15.0637 2.76663 14.9456 2.755 14.8226C2.74336 14.6997 2.76225 14.5758 2.81 14.462C2.84 14.372 2.9 14.292 2.97 14.222C3.24 13.942 3.75 13.942 4.03 14.222C4.16836 14.364 4.24708 14.5537 4.25 14.752C4.24708 14.9502 4.16836 15.1399 4.03 15.282C3.88948 15.4226 3.69884 15.5018 3.5 15.502ZM20.5 18C20.43 18 20.37 17.99 20.31 17.96C20.2475 17.9389 20.1921 17.9008 20.15 17.85C20.102 17.8053 20.0638 17.7511 20.038 17.6908C20.0121 17.6305 19.9992 17.5655 20 17.5C20.008 17.3728 20.0642 17.2535 20.1571 17.1663C20.25 17.0791 20.3726 17.0306 20.5 17.0306C20.6274 17.0306 20.75 17.0791 20.8429 17.1663C20.9358 17.2535 20.992 17.3728 21 17.5C21 17.63 20.95 17.76 20.85 17.85C20.8054 17.898 20.7511 17.9362 20.6909 17.962C20.6306 17.9878 20.5656 18.0008 20.5 18ZM3.5 18C3.37 18 3.24 17.95 3.15 17.85C3.10196 17.8053 3.0638 17.7511 3.03796 17.6908C3.01213 17.6305 2.9992 17.5655 3 17.5C3.00804 17.3728 3.06422 17.2535 3.1571 17.1663C3.24999 17.0791 3.3726 17.0306 3.5 17.0306C3.62739 17.0306 3.75001 17.0791 3.84289 17.1663C3.93577 17.2535 3.99195 17.3728 4 17.5C4 17.63 3.95 17.76 3.85 17.85C3.76 17.95 3.63 18 3.5 18ZM7.75 6.99995C7.55355 7.00168 7.35907 6.96074 7.18 6.87995C7.08 6.84995 7 6.79995 6.92 6.74995C6.71487 6.61201 6.54659 6.426 6.42981 6.20813C6.31303 5.99026 6.2513 5.74714 6.25 5.49995C6.25 5.10995 6.41 4.71995 6.69 4.43995C7.25 3.87995 8.25 3.87995 8.81 4.43995C8.96725 4.59689 9.08766 4.78683 9.1625 4.99602C9.23734 5.2052 9.26475 5.42841 9.24274 5.64949C9.22072 5.87057 9.14984 6.08399 9.03522 6.27431C8.9206 6.46464 8.76511 6.6271 8.58 6.74995C8.5 6.79995 8.41 6.84995 8.32 6.87995C8.14092 6.96074 7.94644 7.00168 7.75 6.99995ZM16.25 6.99995C16.0536 7.00165 15.8591 6.96071 15.68 6.87995C15.59 6.84995 15.5 6.79995 15.42 6.74995C15.3389 6.69212 15.2621 6.62863 15.19 6.55995C15.12 6.48995 15.06 6.40995 15 6.32995C14.95 6.24995 14.9 6.15995 14.86 6.06995C14.83 5.97995 14.8 5.88995 14.78 5.78995C14.76 5.69995 14.75 5.59995 14.75 5.49995C14.7513 5.25276 14.813 5.00964 14.9298 4.79177C15.0466 4.5739 15.2149 4.38789 15.42 4.24995C15.5 4.19995 15.59 4.14995 15.68 4.11995C15.8597 4.04101 16.0538 4.00025 16.25 4.00025C16.4462 4.00025 16.6403 4.04101 16.82 4.11995C16.91 4.14995 17 4.19995 17.08 4.24995C17.2851 4.38789 17.4534 4.5739 17.5702 4.79177C17.687 5.00964 17.7487 5.25276 17.75 5.49995C17.75 5.59995 17.74 5.69995 17.72 5.78995C17.7 5.88995 17.67 5.97995 17.64 6.06995C17.6 6.15995 17.55 6.24995 17.5 6.32995C17.44 6.40995 17.38 6.48995 17.31 6.55995C17.24 6.62995 17.16 6.68995 17.08 6.74995C17 6.79995 16.91 6.84995 16.82 6.87995C16.6409 6.96071 16.4464 7.00165 16.25 6.99995ZM7.75 11.25C7.65 11.25 7.55 11.24 7.46 11.22C7.36 11.2 7.27 11.17 7.18 11.14C6.9958 11.0646 6.82903 10.9523 6.69 10.81C6.55079 10.6708 6.44036 10.5055 6.36502 10.3236C6.28968 10.1417 6.2509 9.94681 6.2509 9.74995C6.2509 9.55309 6.28968 9.35815 6.36502 9.17628C6.44036 8.9944 6.55079 8.82915 6.69 8.68995C7.25 8.12995 8.25 8.12995 8.81 8.68995C9.02 8.89954 9.16308 9.16673 9.22113 9.45769C9.27917 9.74865 9.24957 10.0503 9.13606 10.3244C9.02256 10.5985 8.83026 10.8328 8.58352 10.9976C8.33678 11.1623 8.04669 11.2502 7.75 11.25ZM16.25 11.25C16.0536 11.2517 15.8591 11.2107 15.68 11.13C15.59 11.1 15.5 11.05 15.42 11C15.34 10.94 15.26 10.88 15.19 10.81C15.12 10.74 15.06 10.66 15 10.58C14.95 10.5 14.9 10.41 14.86 10.32C14.83 10.23 14.8 10.14 14.78 10.04C14.76 9.94995 14.75 9.84995 14.75 9.74995C14.75 9.35995 14.91 8.96995 15.19 8.68995C15.26 8.61995 15.34 8.55995 15.42 8.49995C15.5 8.44995 15.59 8.39995 15.68 8.36995C15.8597 8.29101 16.0538 8.25025 16.25 8.25025C16.4462 8.25025 16.6403 8.29101 16.82 8.36995C16.91 8.39995 17 8.44995 17.08 8.49995C17.2851 8.63789 17.4534 8.8239 17.5702 9.04177C17.687 9.25964 17.7487 9.50276 17.75 9.74995C17.75 9.84995 17.74 9.94995 17.72 10.04C17.7 10.14 17.67 10.23 17.64 10.32C17.6 10.41 17.55 10.5 17.5 10.58C17.44 10.66 17.38 10.74 17.31 10.81C17.24 10.88 17.16 10.94 17.08 11C17 11.05 16.91 11.1 16.82 11.13C16.6409 11.2107 16.4464 11.2517 16.25 11.25ZM7.75 14.75C7.62 14.75 7.49 14.72 7.37 14.67C7.24639 14.6241 7.13392 14.5525 7.04 14.46C6.95 14.36 6.88 14.25 6.83 14.13C6.77863 14.0098 6.75145 13.8806 6.75 13.75C6.75 13.49 6.86 13.23 7.04 13.04C7.41 12.67 8.09 12.67 8.46 13.04C8.64 13.23 8.75 13.49 8.75 13.75C8.75 13.88 8.72 14.01 8.67 14.13C8.62 14.25 8.55 14.36 8.46 14.46C8.27 14.64 8.01 14.75 7.75 14.75ZM16.25 14.75C15.99 14.75 15.73 14.64 15.54 14.46C15.36 14.27 15.25 14.01 15.25 13.75C15.25 13.49 15.36 13.23 15.54 13.04C15.91 12.67 16.58 12.67 16.96 13.04C17.14 13.23 17.25 13.49 17.25 13.75C17.25 13.82 17.24 13.88 17.23 13.95C17.22 14.01 17.2 14.07 17.17 14.13C17.15 14.19 17.12 14.25 17.08 14.3C17.04 14.36 17 14.41 16.96 14.46C16.77 14.64 16.51 14.75 16.25 14.75ZM7.75 17.75C7.64927 17.7536 7.54883 17.737 7.45468 17.701C7.36054 17.665 7.27462 17.6103 7.20206 17.5404C7.12949 17.4704 7.07178 17.3865 7.03235 17.2938C6.99293 17.201 6.97262 17.1012 6.97262 17.0005C6.97262 16.8997 6.99293 16.7999 7.03235 16.7071C7.07178 16.6144 7.12949 16.5305 7.20206 16.4605C7.27462 16.3906 7.36054 16.336 7.45468 16.2999C7.54883 16.2639 7.64927 16.2473 7.75 16.251C7.94404 16.258 8.12777 16.3401 8.26254 16.4799C8.39731 16.6197 8.47261 16.8063 8.47261 17.0005C8.47261 17.1946 8.39731 17.3812 8.26254 17.521C8.12777 17.6608 7.94404 17.7429 7.75 17.75ZM16.25 17.75C16.0517 17.747 15.8621 17.6683 15.72 17.53C15.6489 17.4633 15.5942 17.3812 15.56 17.29C15.5196 17.1986 15.4987 17.0998 15.4987 17C15.4987 16.9001 15.5196 16.8013 15.56 16.71C15.6 16.62 15.65 16.54 15.72 16.47C15.79 16.4 15.87 16.35 15.96 16.31C16.0515 16.2703 16.1502 16.2499 16.25 16.2499C16.3498 16.2499 16.4485 16.2703 16.54 16.31C16.63 16.35 16.71 16.4 16.78 16.47C16.9184 16.612 16.9971 16.8017 17 17C16.9971 17.1982 16.9184 17.3879 16.78 17.53C16.6395 17.6706 16.4488 17.7498 16.25 17.75ZM7.75 20C7.62 20 7.49 19.95 7.4 19.85C7.35196 19.8053 7.3138 19.7511 7.28796 19.6908C7.26213 19.6305 7.2492 19.5655 7.25 19.5C7.25804 19.3728 7.31422 19.2535 7.4071 19.1663C7.49999 19.0791 7.6226 19.0306 7.75 19.0306C7.87739 19.0306 8 19.0791 8.09289 19.1663C8.18577 19.2535 8.24195 19.3728 8.25 19.5C8.25 19.63 8.2 19.76 8.1 19.85C8.01 19.95 7.88 20 7.75 20ZM16.25 20C16.18 20 16.12 19.99 16.06 19.96C15.9975 19.9389 15.9421 19.9008 15.9 19.85C15.8492 19.8079 15.8111 19.7525 15.79 19.69C15.7615 19.6308 15.7478 19.5656 15.75 19.5C15.758 19.3728 15.8142 19.2535 15.9071 19.1663C16 19.0791 16.1226 19.0306 16.25 19.0306C16.3774 19.0306 16.5 19.0791 16.5929 19.1663C16.6858 19.2535 16.742 19.3728 16.75 19.5C16.75 19.57 16.74 19.63 16.71 19.69C16.69 19.75 16.65 19.81 16.6 19.85C16.5554 19.898 16.5011 19.9362 16.4409 19.962C16.3806 19.9878 16.3156 20.0008 16.25 20Z" fill="black"/>
</svg>
