<svg width="24" height="24" viewBox="0 0 24 24" fill="none" xmlns="http://www.w3.org/2000/svg">
<path d="M12 4.74995C11.9 4.74995 11.8 4.73995 11.71 4.71995C11.61 4.69995 11.52 4.66995 11.43 4.63995C11.34 4.59995 11.25 4.54995 11.17 4.49995C11.09 4.43995 11.01 4.37995 10.94 4.30995C10.7827 4.15301 10.6623 3.96308 10.5875 3.75389C10.5127 3.5447 10.4852 3.32149 10.5073 3.10042C10.5293 2.87934 10.6002 2.66591 10.7148 2.47559C10.8294 2.28527 10.9849 2.1228 11.17 1.99995C11.25 1.94995 11.34 1.89995 11.43 1.86995C11.52 1.82995 11.61 1.79995 11.71 1.77995C11.9151 1.73975 12.1263 1.74287 12.3301 1.78913C12.534 1.83539 12.7258 1.92376 12.8935 2.04856C13.0611 2.17336 13.2008 2.33184 13.3036 2.51382C13.4064 2.69581 13.47 2.89727 13.4903 3.10528C13.5106 3.31329 13.4872 3.52325 13.4215 3.72167C13.3559 3.9201 13.2495 4.10261 13.1092 4.25748C12.9688 4.41236 12.7977 4.53618 12.6067 4.62099C12.4156 4.7058 12.209 4.74973 12 4.74995ZM12 9.24995C11.9 9.24995 11.8 9.23995 11.71 9.21995C11.61 9.19995 11.52 9.16995 11.43 9.13995C11.34 9.09995 11.25 9.04995 11.17 8.99995C11.09 8.93995 11.01 8.87995 10.94 8.80995C10.7827 8.65301 10.6623 8.46308 10.5875 8.25389C10.5127 8.0447 10.4852 7.82149 10.5073 7.60042C10.5293 7.37934 10.6002 7.16592 10.7148 6.97559C10.8294 6.78527 10.9849 6.6228 11.17 6.49995C11.25 6.44995 11.34 6.39995 11.43 6.36995C11.6097 6.29101 11.8038 6.25025 12 6.25025C12.1962 6.25025 12.3903 6.29101 12.57 6.36995C12.66 6.39995 12.75 6.44995 12.83 6.49995C13.0151 6.6228 13.1706 6.78527 13.2852 6.97559C13.3998 7.16592 13.4707 7.37934 13.4927 7.60042C13.5148 7.82149 13.4873 8.0447 13.4125 8.25389C13.3377 8.46308 13.2173 8.65301 13.06 8.80995C12.99 8.87995 12.91 8.93995 12.83 8.99995C12.75 9.04995 12.66 9.09995 12.57 9.13995C12.48 9.16995 12.39 9.19995 12.29 9.21995C12.2 9.23995 12.1 9.24995 12 9.24995ZM12 13.25C11.9 13.25 11.8 13.24 11.71 13.22C11.61 13.2 11.52 13.17 11.43 13.14C11.34 13.1 11.25 13.05 11.17 13C11.09 12.94 11.01 12.88 10.94 12.81C10.7277 12.6013 10.5846 12.3325 10.53 12.04C10.4823 11.7986 10.4947 11.5491 10.5662 11.3137C10.6377 11.0783 10.7661 10.864 10.94 10.69C11.01 10.62 11.09 10.56 11.17 10.5C11.25 10.45 11.34 10.4 11.43 10.36C11.52 10.33 11.61 10.3 11.71 10.28C11.9513 10.2325 12.2006 10.2452 12.4359 10.3168C12.6712 10.3885 12.8852 10.5169 13.0591 10.6908C13.233 10.8648 13.3615 11.0788 13.4331 11.3141C13.5048 11.5493 13.5174 11.7986 13.47 12.04C13.45 12.14 13.42 12.23 13.38 12.32C13.3131 12.5061 13.2035 12.6739 13.06 12.81C12.99 12.88 12.91 12.94 12.83 13C12.75 13.05 12.66 13.1 12.57 13.14C12.48 13.17 12.39 13.2 12.29 13.22C12.2 13.24 12.1 13.25 12 13.25Z" fill="black"/>
<path opacity="0.6" d="M12 16.751C11.74 16.751 11.48 16.641 11.29 16.461C11.11 16.271 11 16.011 11 15.751C11 15.491 11.11 15.231 11.29 15.041C11.52 14.811 11.87 14.711 12.19 14.771C12.26 14.781 12.32 14.801 12.38 14.831C12.44 14.851 12.5 14.881 12.55 14.921C12.61 14.961 12.66 15.001 12.71 15.041C12.89 15.231 13 15.491 13 15.751C13 16.011 12.89 16.271 12.71 16.461C12.66 16.501 12.61 16.541 12.55 16.581C12.5 16.621 12.44 16.651 12.38 16.671C12.32 16.701 12.26 16.721 12.19 16.731C12.13 16.741 12.06 16.751 12 16.751Z" fill="black"/>
<path opacity="0.4" d="M12 20C11.8017 19.9971 11.6121 19.9184 11.47 19.78C11.3989 19.7134 11.3442 19.6312 11.31 19.54C11.2477 19.3914 11.2349 19.2267 11.2735 19.0703C11.3121 18.9139 11.4001 18.7741 11.5243 18.6715C11.6486 18.569 11.8026 18.5092 11.9635 18.501C12.1244 18.4928 12.2836 18.5366 12.4177 18.626C12.5517 18.7153 12.6535 18.8455 12.7078 18.9972C12.7621 19.1489 12.7661 19.314 12.7192 19.4681C12.6724 19.6223 12.5771 19.7572 12.4476 19.853C12.3181 19.9488 12.1611 20.0004 12 20Z" fill="black"/>
<path opacity="0.2" d="M12 22.0699C11.9344 22.0707 11.8694 22.0578 11.8091 22.032C11.7489 22.0061 11.6946 21.968 11.65 21.9199C11.602 21.8753 11.5638 21.8211 11.538 21.7608C11.5121 21.7005 11.4992 21.6355 11.5 21.5699C11.508 21.4428 11.5642 21.3235 11.6571 21.2363C11.75 21.1491 11.8726 21.1006 12 21.1006C12.1274 21.1006 12.25 21.1491 12.3429 21.2363C12.4358 21.3235 12.492 21.4428 12.5 21.5699C12.5 21.6999 12.45 21.8299 12.35 21.9199C12.3054 21.968 12.2511 22.0061 12.1909 22.032C12.1306 22.0578 12.0656 22.0707 12 22.0699Z" fill="black"/>
<path d="M3.5 9.24994C3.20331 9.25016 2.91322 9.16233 2.66648 8.99757C2.41974 8.83281 2.22744 8.59853 2.11393 8.32441C2.00043 8.05028 1.97083 7.74864 2.02887 7.45768C2.08692 7.16672 2.23 6.89953 2.44 6.68994C2.99 6.12994 4 6.12994 4.56 6.68994C4.71726 6.84688 4.83766 7.03682 4.9125 7.24601C4.98735 7.45519 5.01475 7.6784 4.99274 7.89948C4.97073 8.12056 4.89985 8.33398 4.78523 8.5243C4.67061 8.71463 4.51512 8.87709 4.33 8.99994C4.25 9.04994 4.16 9.09994 4.07 9.12994C3.89093 9.21073 3.69645 9.25167 3.5 9.24994ZM20.5 9.24994C20.11 9.24994 19.72 9.08994 19.44 8.80994C19.16 8.52994 19 8.13994 19 7.74994C19 7.64994 19.01 7.54994 19.03 7.45994C19.05 7.35994 19.08 7.26994 19.11 7.17994C19.15 7.08994 19.2 6.99994 19.25 6.91994C19.31 6.83994 19.37 6.75994 19.44 6.68994C19.51 6.61994 19.59 6.55994 19.67 6.49994C19.75 6.44994 19.84 6.39994 19.93 6.36994C20.1097 6.291 20.3038 6.25024 20.5 6.25024C20.6962 6.25024 20.8903 6.291 21.07 6.36994C21.16 6.39994 21.25 6.44994 21.33 6.49994C21.41 6.55994 21.49 6.61994 21.56 6.68994C21.63 6.75994 21.69 6.83994 21.75 6.91994C21.8 6.99994 21.85 7.08994 21.88 7.17994C21.9608 7.35903 22.0017 7.5535 22 7.74994C22.0002 7.99741 21.9391 8.24108 21.8222 8.45919C21.7053 8.67731 21.5362 8.86308 21.33 8.99994C21.25 9.04994 21.16 9.09994 21.07 9.13994C20.98 9.16994 20.89 9.19994 20.79 9.21994C20.69 9.23994 20.6 9.24994 20.5 9.24994Z" fill="black"/>
<path opacity="0.6" d="M20.5 12.7491C20.44 12.7491 20.37 12.7391 20.31 12.7291C20.2438 12.7198 20.1796 12.6995 20.12 12.6691C20.0563 12.6472 19.9957 12.617 19.94 12.5791C19.89 12.5491 19.84 12.4991 19.79 12.4591C19.75 12.4091 19.7 12.3591 19.67 12.3091C19.6321 12.2534 19.6019 12.1928 19.58 12.1291C19.5511 12.0724 19.5309 12.0117 19.52 11.9491C19.51 11.8791 19.5 11.8191 19.5 11.7491C19.5 11.4891 19.61 11.2291 19.79 11.0391L19.94 10.9191C20 10.8791 20.06 10.8491 20.12 10.8291C20.18 10.7991 20.24 10.7791 20.31 10.7691C20.43 10.7391 20.56 10.7391 20.69 10.7691C20.76 10.7791 20.82 10.7991 20.88 10.8291C20.94 10.8491 21 10.8791 21.05 10.9191C21.11 10.9591 21.16 10.9991 21.21 11.0391C21.39 11.2291 21.5 11.4891 21.5 11.7491C21.5 11.8191 21.49 11.8791 21.48 11.9491C21.47 12.0091 21.45 12.0691 21.42 12.1291C21.4 12.1891 21.37 12.2491 21.33 12.3091L21.21 12.4591C21.16 12.4991 21.11 12.5491 21.05 12.5791C21 12.6191 20.94 12.6491 20.88 12.6691C20.82 12.6991 20.76 12.7191 20.69 12.7291C20.63 12.7391 20.56 12.7491 20.5 12.7491ZM3.5 12.7491C3.24 12.7491 2.98 12.6391 2.79 12.4591C2.61 12.2691 2.5 12.0091 2.5 11.7491C2.5 11.4891 2.61 11.2291 2.79 11.0391C3.07 10.7591 3.51 10.6691 3.88 10.8291C4.01 10.8791 4.11 10.9491 4.21 11.0391C4.39 11.2291 4.5 11.4891 4.5 11.7491C4.5 12.0091 4.39 12.2691 4.21 12.4591C4.02 12.6391 3.76 12.7491 3.5 12.7491Z" fill="black"/>
<path opacity="0.4" d="M20.5 15.498C20.3984 15.5033 20.2968 15.4878 20.2013 15.4525C20.1059 15.4173 20.0186 15.3629 19.9448 15.2929C19.871 15.2228 19.8123 15.1385 19.7721 15.045C19.732 14.9515 19.7113 14.8508 19.7113 14.749C19.7113 14.6473 19.732 14.5466 19.7721 14.4531C19.8123 14.3596 19.871 14.2752 19.9448 14.2052C20.0186 14.1351 20.1059 14.0808 20.2013 14.0455C20.2968 14.0103 20.3984 13.9948 20.5 14C20.692 14.0099 20.8728 14.0932 21.0051 14.2326C21.1375 14.3719 21.2113 14.5568 21.2113 14.749C21.2113 14.9412 21.1375 15.1261 21.0051 15.2655C20.8728 15.4049 20.692 15.4881 20.5 15.498ZM3.5 15.502C3.37653 15.5017 3.25503 15.471 3.1463 15.4125C3.03757 15.354 2.94496 15.2695 2.8767 15.1667C2.80844 15.0638 2.76664 14.9456 2.755 14.8227C2.74337 14.6998 2.76226 14.5759 2.81 14.462C2.84 14.372 2.9 14.292 2.97 14.222C3.24 13.942 3.75 13.942 4.03 14.222C4.16836 14.3641 4.24708 14.5537 4.25 14.752C4.24708 14.9503 4.16836 15.14 4.03 15.282C3.88948 15.4227 3.69884 15.5018 3.5 15.502Z" fill="black"/>
<path opacity="0.2" d="M20.5 17.9999C20.43 17.9999 20.37 17.9899 20.31 17.9599C20.2475 17.9388 20.1921 17.9007 20.15 17.8499C20.102 17.8052 20.0638 17.751 20.038 17.6908C20.0121 17.6305 19.9992 17.5655 20 17.4999C20.008 17.3727 20.0642 17.2534 20.1571 17.1662C20.25 17.0791 20.3726 17.0305 20.5 17.0305C20.6274 17.0305 20.75 17.0791 20.8429 17.1662C20.9358 17.2534 20.992 17.3727 21 17.4999C21 17.6299 20.95 17.7599 20.85 17.8499C20.8054 17.8979 20.7512 17.9361 20.6909 17.9619C20.6306 17.9877 20.5656 18.0007 20.5 17.9999ZM3.5 17.9999C3.37 17.9999 3.24 17.9499 3.15 17.8499C3.10196 17.8052 3.0638 17.751 3.03797 17.6908C3.01213 17.6305 2.9992 17.5655 3 17.4999C3.00805 17.3727 3.06422 17.2534 3.15711 17.1662C3.24999 17.0791 3.3726 17.0305 3.5 17.0305C3.6274 17.0305 3.75001 17.0791 3.84289 17.1662C3.93578 17.2534 3.99196 17.3727 4 17.4999C4 17.6299 3.95 17.7599 3.85 17.8499C3.76 17.9499 3.63 17.9999 3.5 17.9999Z" fill="black"/>
<path d="M7.75 6.99994C7.55355 7.00167 7.35907 6.96073 7.18 6.87994C7.08 6.84994 7 6.79994 6.92 6.74994C6.71487 6.612 6.54659 6.42599 6.42981 6.20812C6.31304 5.99025 6.25131 5.74713 6.25 5.49994C6.25 5.10994 6.41 4.71994 6.69 4.43994C7.25 3.87994 8.25 3.87994 8.81 4.43994C8.96726 4.59688 9.08766 4.78682 9.1625 4.99601C9.23735 5.20519 9.26475 5.4284 9.24274 5.64948C9.22073 5.87056 9.14985 6.08398 9.03523 6.2743C8.92061 6.46463 8.76512 6.62709 8.58 6.74994C8.5 6.79994 8.41 6.84994 8.32 6.87994C8.14093 6.96073 7.94645 7.00167 7.75 6.99994ZM16.25 6.99994C16.0536 7.00164 15.8591 6.9607 15.68 6.87994C15.59 6.84994 15.5 6.79994 15.42 6.74994C15.3389 6.69212 15.2621 6.62862 15.19 6.55994C15.12 6.48994 15.06 6.40994 15 6.32994C14.95 6.24994 14.9 6.15994 14.86 6.06994C14.83 5.97994 14.8 5.88994 14.78 5.78994C14.76 5.69994 14.75 5.59994 14.75 5.49994C14.7513 5.25275 14.813 5.00963 14.9298 4.79176C15.0466 4.57389 15.2149 4.38789 15.42 4.24994C15.5 4.19994 15.59 4.14994 15.68 4.11994C15.8597 4.041 16.0538 4.00024 16.25 4.00024C16.4462 4.00024 16.6403 4.041 16.82 4.11994C16.91 4.14994 17 4.19994 17.08 4.24994C17.2851 4.38789 17.4534 4.57389 17.5702 4.79176C17.687 5.00963 17.7487 5.25275 17.75 5.49994C17.75 5.59994 17.74 5.69994 17.72 5.78994C17.7 5.88994 17.67 5.97994 17.64 6.06994C17.6 6.15994 17.55 6.24994 17.5 6.32994C17.44 6.40994 17.38 6.48994 17.31 6.55994C17.24 6.62994 17.16 6.68994 17.08 6.74994C17 6.79994 16.91 6.84994 16.82 6.87994C16.6409 6.9607 16.4464 7.00164 16.25 6.99994ZM7.75 11.2499C7.65 11.2499 7.55 11.2399 7.46 11.2199C7.36 11.1999 7.27 11.1699 7.18 11.1399C6.99581 11.0646 6.82903 10.9523 6.69 10.8099C6.55079 10.6707 6.44036 10.5055 6.36502 10.3236C6.28968 10.1417 6.25091 9.94681 6.25091 9.74994C6.25091 9.55308 6.28968 9.35815 6.36502 9.17627C6.44036 8.99439 6.55079 8.82914 6.69 8.68994C7.25 8.12994 8.25 8.12994 8.81 8.68994C9.02 8.89953 9.16308 9.16672 9.22113 9.45768C9.27917 9.74864 9.24957 10.0503 9.13606 10.3244C9.02256 10.5985 8.83026 10.8328 8.58352 10.9976C8.33678 11.1623 8.04669 11.2502 7.75 11.2499ZM16.25 11.2499C16.0536 11.2516 15.8591 11.2107 15.68 11.1299C15.59 11.0999 15.5 11.0499 15.42 10.9999C15.34 10.9399 15.26 10.8799 15.19 10.8099C15.12 10.7399 15.06 10.6599 15 10.5799C14.95 10.4999 14.9 10.4099 14.86 10.3199C14.83 10.2299 14.8 10.1399 14.78 10.0399C14.76 9.94994 14.75 9.84994 14.75 9.74994C14.75 9.35994 14.91 8.96994 15.19 8.68994C15.26 8.61994 15.34 8.55994 15.42 8.49994C15.5 8.44994 15.59 8.39994 15.68 8.36994C15.8597 8.291 16.0538 8.25024 16.25 8.25024C16.4462 8.25024 16.6403 8.291 16.82 8.36994C16.91 8.39994 17 8.44994 17.08 8.49994C17.2851 8.63789 17.4534 8.82389 17.5702 9.04176C17.687 9.25963 17.7487 9.50275 17.75 9.74994C17.75 9.84994 17.74 9.94994 17.72 10.0399C17.7 10.1399 17.67 10.2299 17.64 10.3199C17.6 10.4099 17.55 10.4999 17.5 10.5799C17.44 10.6599 17.38 10.7399 17.31 10.8099C17.24 10.8799 17.16 10.9399 17.08 10.9999C17 11.0499 16.91 11.0999 16.82 11.1299C16.6409 11.2107 16.4464 11.2516 16.25 11.2499Z" fill="black"/>
<path opacity="0.6" d="M7.75 14.75C7.62 14.75 7.49 14.72 7.37 14.67C7.2464 14.6241 7.13393 14.5525 7.04 14.46C6.95 14.36 6.88 14.25 6.83 14.13C6.77863 14.0098 6.75145 13.8806 6.75 13.75C6.75 13.49 6.86 13.23 7.04 13.04C7.41 12.67 8.09 12.67 8.46 13.04C8.64 13.23 8.75 13.49 8.75 13.75C8.75 13.88 8.72 14.01 8.67 14.13C8.62 14.25 8.55 14.36 8.46 14.46C8.27 14.64 8.01 14.75 7.75 14.75ZM16.25 14.75C15.99 14.75 15.73 14.64 15.54 14.46C15.36 14.27 15.25 14.01 15.25 13.75C15.25 13.49 15.36 13.23 15.54 13.04C15.91 12.67 16.58 12.67 16.96 13.04C17.14 13.23 17.25 13.49 17.25 13.75C17.25 13.82 17.24 13.88 17.23 13.95C17.22 14.01 17.2 14.07 17.17 14.13C17.15 14.19 17.12 14.25 17.08 14.3C17.04 14.36 17 14.41 16.96 14.46C16.77 14.64 16.51 14.75 16.25 14.75Z" fill="black"/>
<path opacity="0.4" d="M7.75 17.7501C7.64927 17.7538 7.54883 17.7371 7.45469 17.7011C7.36054 17.6651 7.27462 17.6105 7.20206 17.5405C7.1295 17.4705 7.07178 17.3867 7.03236 17.2939C6.99294 17.2011 6.97262 17.1014 6.97262 17.0006C6.97262 16.8998 6.99294 16.8 7.03236 16.7072C7.07178 16.6145 7.1295 16.5306 7.20206 16.4606C7.27462 16.3907 7.36054 16.3361 7.45469 16.3001C7.54883 16.2641 7.64927 16.2474 7.75 16.2511C7.94404 16.2582 8.12777 16.3402 8.26254 16.48C8.39731 16.6198 8.47262 16.8064 8.47262 17.0006C8.47262 17.1947 8.39731 17.3813 8.26254 17.5211C8.12777 17.6609 7.94404 17.743 7.75 17.7501ZM16.25 17.7501C16.0517 17.7472 15.8621 17.6684 15.72 17.5301C15.6489 17.4635 15.5942 17.3813 15.56 17.2901C15.5196 17.1987 15.4987 17.1 15.4987 17.0001C15.4987 16.9002 15.5196 16.8014 15.56 16.7101C15.6 16.6201 15.65 16.5401 15.72 16.4701C15.79 16.4001 15.87 16.3501 15.96 16.3101C16.0515 16.2704 16.1502 16.25 16.25 16.25C16.3498 16.25 16.4485 16.2704 16.54 16.3101C16.63 16.3501 16.71 16.4001 16.78 16.4701C16.9184 16.6121 16.9971 16.8018 17 17.0001C16.9971 17.1984 16.9184 17.388 16.78 17.5301C16.6395 17.6708 16.4488 17.7499 16.25 17.7501Z" fill="black"/>
<path opacity="0.2" d="M7.75 19.9999C7.62 19.9999 7.49 19.9499 7.4 19.8499C7.35196 19.8052 7.3138 19.751 7.28797 19.6908C7.26213 19.6305 7.2492 19.5655 7.25 19.4999C7.25805 19.3727 7.31422 19.2534 7.40711 19.1662C7.49999 19.0791 7.6226 19.0305 7.75 19.0305C7.8774 19.0305 8.00001 19.0791 8.09289 19.1662C8.18578 19.2534 8.24195 19.3727 8.25 19.4999C8.25 19.6299 8.2 19.7599 8.1 19.8499C8.01 19.9499 7.88 19.9999 7.75 19.9999ZM16.25 19.9999C16.18 19.9999 16.12 19.9899 16.06 19.9599C15.9975 19.9388 15.9421 19.9007 15.9 19.8499C15.8492 19.8078 15.8111 19.7524 15.79 19.6899C15.7615 19.6307 15.7478 19.5655 15.75 19.4999C15.758 19.3727 15.8142 19.2534 15.9071 19.1662C16 19.0791 16.1226 19.0305 16.25 19.0305C16.3774 19.0305 16.5 19.0791 16.5929 19.1662C16.6858 19.2534 16.742 19.3727 16.75 19.4999C16.75 19.5699 16.74 19.6299 16.71 19.6899C16.69 19.7499 16.65 19.8099 16.6 19.8499C16.5554 19.8979 16.5012 19.9361 16.4409 19.9619C16.3806 19.9877 16.3156 20.0007 16.25 19.9999Z" fill="black"/>
</svg>
