<svg width="24" height="24" viewBox="0 0 24 24" fill="none" xmlns="http://www.w3.org/2000/svg">
<path d="M3.18 15.029C2.83 15.029 2.58 15.379 2.71 15.699C4.18 19.399 7.79 21.999 12 21.999C16.22 21.999 19.83 19.379 21.3 15.669C21.43 15.349 21.17 14.999 20.83 14.999H17.5C17.22 14.999 17 14.779 17 14.499V11.759C17 10.839 15.85 10.409 15.25 11.109L12.38 14.539C12.18 14.779 11.81 14.779 11.61 14.539L8.74 11.109C8.15 10.409 7 10.839 7 11.759V14.499C7 14.779 6.78 14.999 6.5 14.999L3.18 15.029Z" fill="black"/>
<path d="M22 12.14C22 12.45 21.98 12.76 21.94 13.06C21.91 13.31 21.69 13.5 21.43 13.5H19C18.72 13.5 18.5 13.28 18.5 13V11.9C18.5 10.89 17.96 9.90997 17.04 9.48997C16.01 9.01997 14.84 9.27997 14.1 10.15L12.38 12.2C12.18 12.44 11.81 12.44 11.61 12.2L9.88 10.13C9.16 9.27997 8 9.01997 6.96 9.48997C6.04 9.90997 5.5 10.89 5.5 11.9V12.88C5.5 13.3 5.28 13.52 5 13.52L2.56 13.53C2.31 13.53 2.08 13.34 2.05 13.09C2.02 12.73 2 12.37 2 12C2 5.94997 7.39 1.13997 13.63 2.12997C18.46 2.88997 22.07 7.23997 22 12.14Z" fill="black"/>
</svg>
