<svg width="24" height="24" viewBox="0 0 24 24" fill="none" xmlns="http://www.w3.org/2000/svg">
<path d="M21.54 14.999C20.26 19.059 16.47 21.999 12 21.999C7.54 21.999 3.76 19.079 2.47 15.039H3.05L7 14.999V11.759C7 10.839 8.15 10.409 8.75 11.109L12 14.999L15.25 11.109C15.85 10.409 17 10.839 17 11.759V14.999H21.54Z" fill="black"/>
<path opacity="0.4" d="M22 12C22 13.05 21.84 14.05 21.54 15H17V11.76C17 10.84 15.85 10.41 15.25 11.11L12 15L8.75 11.11C8.15 10.41 7 10.84 7 11.76V15L3.05 15.04H2.47C2.17 14.08 2 13.06 2 12C2 6.48 6.48 2 12 2C17.52 2 22 6.48 22 12Z" fill="black"/>
</svg>
