<svg width="24" height="24" viewBox="0 0 24 24" fill="none" xmlns="http://www.w3.org/2000/svg">
<path d="M12 22.7479C7.30001 22.7479 3.18001 19.7379 1.76001 15.2679C1.72545 15.1553 1.71741 15.0363 1.73649 14.9201C1.75557 14.8038 1.80127 14.6936 1.87001 14.5979C2.01001 14.4079 2.23001 14.2879 2.47001 14.2879L6.26001 14.2579V8.99794C6.26001 8.67794 6.46001 8.39794 6.75001 8.28794C7.05001 8.17794 7.38001 8.26794 7.58001 8.51794L12 13.8279L16.42 8.51794C16.62 8.27794 16.96 8.18794 17.25 8.28794C17.55 8.39794 17.74 8.67794 17.74 8.99794V14.2479H21.53C21.77 14.2479 21.99 14.3579 22.13 14.5579C22.27 14.7479 22.31 14.9979 22.24 15.2279C20.84 19.7279 16.71 22.7479 12 22.7479ZM3.55001 15.7779C4.27705 17.4104 5.46274 18.7964 6.96288 19.7675C8.46302 20.7386 10.213 21.2529 12 21.2479C13.7924 21.2538 15.5475 20.7366 17.0503 19.7596C18.553 18.7827 19.738 17.3885 20.46 15.7479H17C16.59 15.7479 16.25 15.4079 16.25 14.9979V11.0679L12.58 15.4779C12.29 15.8179 11.71 15.8179 11.43 15.4779L7.76001 11.0679V14.9979C7.76001 15.4079 7.43001 15.7479 7.02001 15.7479L3.55001 15.7779Z" fill="black"/>
<path d="M2.47 15.79C2.309 15.7906 2.15206 15.7395 2.0224 15.644C1.89273 15.5486 1.79723 15.4139 1.75 15.26C1.42 14.19 1.25 13.09 1.25 12C1.25 6.07 6.07 1.25 12 1.25C17.93 1.25 22.75 6.07 22.75 12C22.75 13.1 22.58 14.19 22.26 15.23C22.16 15.54 21.87 15.75 21.54 15.75H17C16.59 15.75 16.25 15.41 16.25 15V11.07L12.58 15.48C12.29 15.82 11.71 15.82 11.43 15.48L7.76 11.07V15C7.76 15.41 7.43 15.75 7.02 15.75L2.47 15.79ZM12 2.75C6.9 2.75 2.75 6.9 2.75 12C2.75 12.76 2.85 13.53 3.04 14.29L6.25 14.26V9C6.25 8.68 6.45 8.4 6.74 8.29C7.04 8.18 7.37 8.27 7.57 8.52L12 13.83L16.42 8.52C16.62 8.28 16.96 8.19 17.25 8.29C17.55 8.4 17.74 8.68 17.74 9V14.25H20.96C21.14 13.52 21.24 12.76 21.24 12C21.25 6.9 17.1 2.75 12 2.75Z" fill="black"/>
</svg>
