<svg width="24" height="24" viewBox="0 0 24 24" fill="none" xmlns="http://www.w3.org/2000/svg">
<path d="M8.51 2V8.5H2V7.81C2 4.17 4.17 2 7.81 2H8.51ZM22 7.81V8.5H15.51V2H16.19C19.83 2 22 4.17 22 7.81ZM22 15.5V16.19C22 19.83 19.83 22 16.19 22H15.51V15.5H22ZM8.51 15.5V22H7.81C4.17 22 2 19.83 2 16.19V15.5H8.51Z" fill="black"/>
<path opacity="0.4" d="M8.51 8.5H2V15.5H8.51V8.5ZM22 8.5H15.51V15.5H22V8.5Z" fill="black"/>
<path d="M15.51 8.5H8.51V15.5H15.51V8.5Z" fill="black"/>
<path opacity="0.4" d="M15.51 2H8.51V8.5H15.51V2ZM15.51 15.5H8.51V22H15.51V15.5Z" fill="black"/>
</svg>
