<svg width="24" height="24" viewBox="0 0 24 24" fill="none" xmlns="http://www.w3.org/2000/svg">
<path d="M15 22.75H9C3.57 22.75 1.25 20.43 1.25 15V9C1.25 3.57 3.57 1.25 9 1.25H15C20.43 1.25 22.75 3.57 22.75 9V15C22.75 20.43 20.43 22.75 15 22.75ZM9 2.75C4.39 2.75 2.75 4.39 2.75 9V15C2.75 19.61 4.39 21.25 9 21.25H15C19.61 21.25 21.25 19.61 21.25 15V9C21.25 4.39 19.61 2.75 15 2.75H9Z" fill="black"/>
<path d="M22 9.25H2.03C1.62 9.25 1.28 8.91 1.28 8.5C1.28 8.09 1.62 7.75 2.03 7.75H22C22.41 7.75 22.75 8.09 22.75 8.5C22.75 8.91 22.41 9.25 22 9.25ZM22 16.25H2.03C1.62 16.25 1.28 15.91 1.28 15.5C1.28 15.09 1.62 14.75 2.03 14.75H22C22.41 14.75 22.75 15.09 22.75 15.5C22.75 15.91 22.41 16.25 22 16.25Z" fill="black"/>
<path d="M8.50999 22.7417C8.09999 22.7417 7.75999 22.4017 7.75999 21.9917V2.01172C7.75999 1.60172 8.09999 1.26172 8.50999 1.26172C8.91999 1.26172 9.25999 1.60172 9.25999 2.01172V21.9817C9.25999 22.4017 8.92999 22.7417 8.50999 22.7417ZM15.51 22.7417C15.1 22.7417 14.76 22.4017 14.76 21.9917V2.01172C14.76 1.60172 15.1 1.26172 15.51 1.26172C15.92 1.26172 16.26 1.60172 16.26 2.01172V21.9817C16.26 22.4017 15.93 22.7417 15.51 22.7417Z" fill="black"/>
</svg>
