<svg width="24" height="24" viewBox="0 0 24 24" fill="none" xmlns="http://www.w3.org/2000/svg">
<path d="M15.07 17.88L14.06 20.1C13.8 20.66 13.42 21.15 12.91 21.49C12.39 21.84 11.71 21.87 11.17 21.53C9.53 20.49 5.95 17.82 3.78 13.19C3.7 13.03 3.92 12.87 4.06 12.97C4.63 13.37 5.24 13.65 5.91 13.81C6.32 13.9 6.74 13.94 7.14 13.94C9 13.94 10.68 12.99 11.8 12.17C12.13 11.93 12.57 11.88 12.91 12.09C14.03 12.79 14.78 13.63 15.15 14.58C15.79 16.26 15.09 17.81 15.07 17.88Z" fill="black"/>
<path d="M16.85 18.0499C16.77 18.1399 16.61 18.0399 16.65 17.9299C17.09 16.4699 17.66 12.6199 12.56 10.1799C12.25 10.0299 12.02 9.74991 11.98 9.40991C11.36 3.84991 16.15 2.84991 16.15 2.84991C16.54 2.76991 16.95 2.76991 17.33 2.87991C18.41 3.16991 19.51 3.56991 20.62 4.10991C21.57 4.56991 22.12 5.56991 21.98 6.61991C21.65 9.09991 20.55 13.8799 16.85 18.0499Z" fill="black"/>
<path d="M10.56 10.21L10.59 10.41C10.66 10.79 10.5 11.18 10.18 11.38C8.03 12.73 4.51 13.75 2.36 7.83999C2.16 7.29999 2.04 6.89999 2 6.31999C1.95 5.55999 2.38 4.68999 3.06 4.36999C4.82 3.54999 8.54 2.11999 13.03 2.24999C13.23 2.25999 13.3 2.51999 13.14 2.62999C11.41 3.94999 9.92 6.32999 10.56 10.21Z" fill="black"/>
</svg>
