<svg width="24" height="24" viewBox="0 0 24 24" fill="none" xmlns="http://www.w3.org/2000/svg">
<path opacity="0.6" d="M16.36 18.4879C16.35 18.4979 16.35 18.5079 16.35 18.5079C15.0665 19.8647 13.6028 21.039 12 21.9979C12 21.9979 3.16 17.5779 2.1 7.07788C5.21 17.1479 12 9.99788 12 9.99788C18.76 12.8979 16.52 18.1379 16.36 18.4879Z" fill="black"/>
<path opacity="0.4" d="M16.36 18.4901C16.52 18.1401 18.76 12.9001 12 10.0001C11 4.00007 16.07 2.94007 16.07 2.94007L16.66 2.82007H16.67C18.41 3.23007 20.2 3.92007 22 5.00007C22 5.00007 22 12.5001 16.36 18.4901Z" fill="black"/>
<path d="M16.66 2.82198L16.07 2.94198C16.07 2.94198 11 4.00198 12 10.002C12 10.002 5.21 17.152 2.1 7.08198V7.07198C2.04 6.41198 2 5.71198 2 5.00198C2 5.00198 8.72 0.971983 16.66 2.82198Z" fill="black"/>
</svg>
