<svg width="24" height="24" viewBox="0 0 24 24" fill="none" xmlns="http://www.w3.org/2000/svg">
<path d="M12.03 22.85L11.66 22.67C11.56 22.62 1.24001 17.32 1.24001 5.00005V4.58005L1.60001 4.36005C1.70001 4.30005 12.11 -1.79995 22.37 4.36005L22.73 4.58005V5.00005C22.73 5.47005 22.61 16.5 12.37 22.64L12.03 22.85ZM2.75001 5.44005C2.96001 15.28 10.27 20.13 11.98 21.13C20.06 16.05 21.1 7.42005 21.23 5.42005C12.92 0.700047 4.59001 4.49005 2.75001 5.44005Z" fill="black"/>
<path d="M7.09999 13.21C6.75999 13.21 6.41999 13.17 6.06999 13.09C3.98999 12.6 2.41999 10.65 1.37999 7.28998C1.25999 6.88998 1.47999 6.46998 1.87999 6.34998C2.27999 6.22998 2.69999 6.44998 2.81999 6.84998C3.68999 9.65998 4.89999 11.27 6.41999 11.63C8.22999 12.05 10.29 10.58 11.2 9.72998C10.38 3.43998 15.86 2.20998 15.92 2.19998L16.52 2.07998C16.92 1.99998 17.32 2.26998 17.4 2.66998C17.48 3.06998 17.21 3.46998 16.81 3.54998L16.22 3.65998C16.06 3.69998 11.88 4.66998 12.74 9.85998C12.78 10.09 12.71 10.33 12.54 10.5C12.43 10.64 9.94999 13.21 7.09999 13.21Z" fill="black"/>
<path d="M16.35 19.2579C16.24 19.2579 16.13 19.2379 16.03 19.1879C15.8511 19.1016 15.7138 18.9478 15.6482 18.7603C15.5826 18.5728 15.594 18.367 15.68 18.1879C15.69 18.1679 16.54 16.3279 15.79 14.3579C15.21 12.8379 13.84 11.6079 11.71 10.6879C11.6193 10.6501 11.537 10.5946 11.4681 10.5246C11.3991 10.4545 11.3449 10.3714 11.3086 10.2801C11.2722 10.1888 11.2545 10.0911 11.2565 9.99285C11.2584 9.89459 11.28 9.79772 11.32 9.70793C11.49 9.32793 11.92 9.14793 12.31 9.31793C14.84 10.3979 16.48 11.9279 17.21 13.8579C18.18 16.4379 17.09 18.7479 17.04 18.8479C16.9 19.0979 16.63 19.2579 16.35 19.2579Z" fill="black"/>
</svg>
