<svg width="24" height="24" viewBox="0 0 24 24" fill="none" xmlns="http://www.w3.org/2000/svg">
<path d="M17 20.75H7C3.56 20.75 1.25 18.44 1.25 15V9C1.25 5.56 3.56 3.25 7 3.25H17C20.44 3.25 22.75 5.56 22.75 9V15C22.75 18.44 20.44 20.75 17 20.75ZM7 4.75C4.42 4.75 2.75 6.42 2.75 9V15C2.75 17.58 4.42 19.25 7 19.25H17C19.58 19.25 21.25 17.58 21.25 15V9C21.25 6.42 19.58 4.75 17 4.75H7Z" fill="black"/>
<path d="M10.59 15.5302C10.3 15.5302 10.02 15.4602 9.77001 15.3202C9.19001 14.9902 8.85001 14.3202 8.85001 13.4902V10.5302C8.85001 9.70022 9.18001 9.03022 9.77001 8.70022C10.35 8.37022 11.1 8.43022 11.81 8.86022L14.28 10.3402C14.96 10.7502 15.35 11.3602 15.35 12.0102C15.35 12.6602 14.96 13.2702 14.28 13.6802L11.81 15.1602C11.4 15.4002 10.98 15.5302 10.59 15.5302ZM10.59 9.97022C10.5589 9.96979 10.528 9.97664 10.5 9.99022C10.43 10.0302 10.35 10.2102 10.35 10.5202V13.4802C10.35 13.7802 10.43 13.9602 10.5 14.0102C10.58 14.0502 10.77 14.0302 11.03 13.8702L13.5 12.3902C13.75 12.2402 13.84 12.0902 13.84 12.0002C13.84 11.9102 13.75 11.7702 13.5 11.6102L11.03 10.1302C10.85 10.0202 10.69 9.97022 10.59 9.97022Z" fill="black"/>
</svg>
