<svg width="24" height="24" viewBox="0 0 24 24" fill="none" xmlns="http://www.w3.org/2000/svg">
<path d="M22 6.27993V17.7099C22 17.8899 21.91 18.0499 21.76 18.1399L18.87 19.8699C18.71 19.9599 18.52 19.9599 18.36 19.8699L8.75 14.2799C8.6747 14.236 8.61208 14.1733 8.56826 14.0979C8.52444 14.0226 8.50092 13.9371 8.5 13.8499V12.5199C8.49948 12.4309 8.52273 12.3434 8.56734 12.2664C8.61195 12.1894 8.67631 12.1257 8.75378 12.0818C8.83124 12.038 8.919 12.0157 9.00799 12.0171C9.09698 12.0185 9.18398 12.0436 9.26 12.0899L17.75 17.1799C18.08 17.3799 18.51 17.1399 18.51 16.7499V8.41993C18.51 8.23993 18.42 8.07993 18.27 7.98993L14.19 5.53993C14.1166 5.49472 14.056 5.43147 14.0139 5.3562C13.9719 5.28093 13.9498 5.19615 13.9498 5.10993C13.9498 5.02372 13.9719 4.93893 14.0139 4.86366C14.056 4.78839 14.1166 4.72514 14.19 4.67993L16.76 3.12993C16.92 3.02993 17.12 3.02993 17.28 3.12993L21.78 5.82993C21.91 5.93993 22 6.10993 22 6.27993Z" fill="black"/>
<path d="M11.29 18.43L7.26 20.85C7.1 20.95 6.9 20.95 6.75 20.85L2.25 18.15C2.17595 18.1055 2.11483 18.0424 2.07273 17.9669C2.03063 17.8915 2.009 17.8063 2.01 17.72V6.28996C2.01 6.10996 2.1 5.94996 2.25 5.85996L6.75 3.15996C6.91 3.05996 7.11 3.05996 7.26 3.15996L16.76 8.85996C16.91 8.94996 17 9.10996 17 9.28996V14.12C17.0005 14.209 16.9773 14.2965 16.9327 14.3735C16.888 14.4505 16.8237 14.5142 16.7462 14.5581C16.6688 14.6019 16.581 14.6242 16.492 14.6228C16.403 14.6214 16.316 14.5962 16.24 14.55L7.75 9.45996C7.42 9.25996 6.99 9.49996 6.99 9.88996V14.72C6.99 14.9 7.08 15.06 7.23 15.15L11.27 17.58C11.61 17.77 11.61 18.23 11.29 18.43Z" fill="black"/>
</svg>
