<svg width="24" height="24" viewBox="0 0 24 24" fill="none" xmlns="http://www.w3.org/2000/svg">
<path d="M17 21.7499C16.87 21.7499 16.73 21.7099 16.61 21.6399L6.61 15.6399C6.49962 15.5736 6.40839 15.4798 6.34528 15.3675C6.28216 15.2553 6.24932 15.1286 6.24999 14.9999V8.99989C6.25073 8.86706 6.28664 8.7368 6.35406 8.62235C6.42149 8.5079 6.51803 8.41335 6.63385 8.34833C6.74968 8.2833 6.88067 8.25012 7.01348 8.25215C7.1463 8.25418 7.27621 8.29135 7.38999 8.35989L16.25 13.6799V9.42989L11.61 6.64989C11.5006 6.58272 11.4102 6.48861 11.3475 6.37657C11.2848 6.26453 11.2519 6.13828 11.2519 6.00989C11.2519 5.8815 11.2848 5.75526 11.3475 5.64322C11.4102 5.53117 11.5006 5.43707 11.61 5.36989L16.61 2.36989C16.85 2.22989 17.14 2.22989 17.38 2.36989L22.38 5.36989C22.61 5.50989 22.74 5.74989 22.74 6.00989V18.0099C22.74 18.2699 22.6 18.5199 22.38 18.6499L17.38 21.6499C17.27 21.7099 17.13 21.7499 17 21.7499ZM7.74999 14.5799L17 20.1299L21.25 17.5799V6.42989L17 3.87989L13.46 6.00989L17.39 8.36989C17.62 8.50989 17.75 8.74989 17.75 9.00989V15.0099C17.75 15.2799 17.6 15.5299 17.37 15.6599C17.14 15.7899 16.85 15.7899 16.61 15.6499L7.74999 10.3299V14.5799Z" fill="black"/>
<path d="M6.99999 21.7489C6.86999 21.7489 6.72999 21.7089 6.60999 21.6389L1.60999 18.6389C1.49962 18.5726 1.40839 18.4788 1.34528 18.3666C1.28216 18.2544 1.24932 18.1276 1.24999 17.9989V5.99891C1.24999 5.73891 1.38999 5.48891 1.60999 5.35891L6.60999 2.35891C6.84999 2.21891 7.13999 2.21891 7.37999 2.35891L12.38 5.35891C12.74 5.56891 12.85 6.02891 12.64 6.38891C12.43 6.74891 11.97 6.85891 11.61 6.64891L6.99999 3.87891L2.74999 6.42891V17.5789L6.97999 20.1189L11.29 17.2489C11.63 17.0189 12.1 17.1089 12.33 17.4589C12.56 17.8089 12.47 18.2689 12.12 18.4989L7.41999 21.6289C7.28999 21.7089 7.14999 21.7489 6.99999 21.7489Z" fill="black"/>
</svg>
