<svg width="24" height="24" viewBox="0 0 24 24" fill="none" xmlns="http://www.w3.org/2000/svg">
<path d="M21.14 9.89844H12.75V15.3784C12.75 15.7884 12.41 16.1284 12 16.1284C11.59 16.1284 11.25 15.7884 11.25 15.3784V9.89844H2.86C2.38 9.89844 2 10.2784 2 10.7584C2 16.6484 6.11 20.7584 12 20.7584C17.89 20.7584 22 16.6484 22 10.7584C22 10.2784 21.62 9.89844 21.14 9.89844Z" fill="black"/>
<path d="M12.748 5.79989L14.308 7.35989C14.598 7.64989 15.078 7.64989 15.368 7.35989C15.658 7.06989 15.658 6.58989 15.368 6.29989L12.518 3.45989C12.3769 3.32041 12.1864 3.24219 11.988 3.24219C11.7896 3.24219 11.5991 3.32041 11.458 3.45989L8.618 6.30989C8.478 6.45989 8.398 6.64989 8.398 6.83989C8.398 7.02989 8.468 7.21989 8.618 7.36989C8.908 7.65989 9.388 7.65989 9.678 7.36989L11.238 5.80989V9.89989H12.738V5.79989H12.748Z" fill="black"/>
</svg>
