<svg width="24" height="24" viewBox="0 0 24 24" fill="none" xmlns="http://www.w3.org/2000/svg">
<path d="M16.19 2H7.81C4.17 2 2 4.17 2 7.81V16.18C2 19.83 4.17 22 7.81 22H16.18C19.82 22 21.99 19.83 21.99 16.19V7.81C22 4.17 19.83 2 16.19 2ZM16.2 18.25C15.07 18.25 14.15 17.33 14.15 16.2C14.15 15.54 14.47 14.96 14.96 14.58C14.54 13.48 13.49 12.72 12.31 12.76L10.25 12.77H10.24C9.63 12.77 9.05 12.59 8.56 12.28V14.3C9.32 14.6 9.86 15.34 9.86 16.2C9.86 17.33 8.94 18.25 7.81 18.25C6.68 18.25 5.76 17.33 5.76 16.2C5.76 15.33 6.3 14.6 7.06 14.3V9.95C6.6747 9.77591 6.34742 9.49495 6.117 9.14045C5.88657 8.78595 5.76267 8.3728 5.76 7.95C5.76 6.74 6.75 5.75 7.96 5.75C9.17 5.75 10.16 6.74 10.16 7.95C10.16 8.93 9.51 9.75 8.62 10.04C8.82 10.77 9.48 11.28 10.24 11.28H10.25L12.31 11.27H12.33C14.17 11.27 15.82 12.44 16.42 14.18C17.45 14.29 18.26 15.15 18.26 16.21C18.2532 16.7524 18.0333 17.2703 17.6479 17.652C17.2625 18.0337 16.7424 18.2485 16.2 18.25Z" fill="black"/>
</svg>
