<svg width="24" height="24" viewBox="0 0 24 24" fill="none" xmlns="http://www.w3.org/2000/svg">
<path opacity="0.4" d="M16.19 2H7.82C4.18 2 2.01 4.17 2.01 7.81V16.18C2.01 19.82 4.18 21.99 7.82 21.99H16.19C19.83 21.99 22 19.82 22 16.18V7.81C22 4.17 19.83 2 16.19 2Z" fill="black"/>
<path d="M16.41 14.1683C16.1136 13.3194 15.5609 12.5835 14.8282 12.0622C14.0956 11.5409 13.2192 11.26 12.32 11.2583H12.3L10.24 11.2683H10.23C9.47 11.2683 8.81 10.7583 8.61 10.0283C9.5 9.74828 10.15 8.91828 10.15 7.93828C10.15 6.72828 9.16 5.73828 7.95 5.73828C6.74 5.73828 5.75 6.72828 5.75 7.93828C5.75 8.82828 6.29 9.59828 7.05 9.93828V14.2783C6.29 14.5783 5.75 15.3183 5.75 16.1783C5.75 17.3083 6.67 18.2283 7.8 18.2283C8.93 18.2283 9.85 17.3083 9.85 16.1783C9.85 15.3083 9.31 14.5783 8.55 14.2783V12.2583C9.04 12.5683 9.62 12.7483 10.23 12.7483H10.24L12.3 12.7383C13.48 12.6983 14.53 13.4583 14.95 14.5583C14.46 14.9383 14.14 15.5183 14.14 16.1783C14.14 17.3083 15.06 18.2283 16.19 18.2283C17.32 18.2283 18.24 17.3083 18.24 16.1783C18.25 15.1383 17.44 14.2783 16.41 14.1683Z" fill="black"/>
</svg>
