<svg width="24" height="24" viewBox="0 0 24 24" fill="none" xmlns="http://www.w3.org/2000/svg">
<path d="M7.8 10.2V14.4M7.8 14.4C8.27739 14.4 8.73523 14.5896 9.07279 14.9272C9.41036 15.2648 9.6 15.7226 9.6 16.2C9.6 16.6774 9.41036 17.1352 9.07279 17.4728C8.73523 17.8104 8.27739 18 7.8 18C7.32261 18 6.86477 17.8104 6.52721 17.4728C6.18964 17.1352 6 16.6774 6 16.2C6 15.7226 6.18964 15.2648 6.52721 14.9272C6.86477 14.5896 7.32261 14.4 7.8 14.4ZM7.95 9.9C8.46717 9.9 8.96316 9.69455 9.32886 9.32886C9.69455 8.96316 9.9 8.46717 9.9 7.95C9.9 7.43283 9.69455 6.93684 9.32886 6.57114C8.96316 6.20545 8.46717 6 7.95 6C7.43283 6 6.93684 6.20545 6.57114 6.57114C6.20545 6.93684 6 7.43283 6 7.95C6 8.46717 6.20545 8.96316 6.57114 9.32886C6.93684 9.69455 7.43283 9.9 7.95 9.9ZM16.2 18C16.6774 18 17.1352 17.8104 17.4728 17.4728C17.8104 17.1352 18 16.6774 18 16.2C18 15.7226 17.8104 15.2648 17.4728 14.9272C17.1352 14.5896 16.6774 14.4 16.2 14.4C15.7226 14.4 15.2648 14.5896 14.9272 14.9272C14.5896 15.2648 14.4 15.7226 14.4 16.2C14.4 16.6774 14.5896 17.1352 14.9272 17.4728C15.2648 17.8104 15.7226 18 16.2 18Z" stroke="black" stroke-width="1.5" stroke-linecap="round" stroke-linejoin="round"/>
<path d="M7.88 10.2002C8.01468 10.723 8.31994 11.1858 8.74742 11.5155C9.17491 11.8452 9.70017 12.0228 10.24 12.0202L12.3 12.0102C13.87 12.0002 15.21 13.0102 15.7 14.4202" stroke="black" stroke-width="1.5" stroke-linecap="round" stroke-linejoin="round"/>
<path d="M9 22H15C20 22 22 20 22 15V9C22 4 20 2 15 2H9C4 2 2 4 2 9V15C2 20 4 22 9 22Z" stroke="black" stroke-width="1.5" stroke-linecap="round" stroke-linejoin="round"/>
</svg>
