<svg width="24" height="24" viewBox="0 0 24 24" fill="none" xmlns="http://www.w3.org/2000/svg">
<path d="M7.8 15.1502C7.39 15.1502 7.05 14.8102 7.05 14.4002V10.2002C7.05 9.7902 7.39 9.4502 7.8 9.4502C8.21 9.4502 8.55 9.7902 8.55 10.2002V14.4002C8.55 14.8102 8.21 15.1502 7.8 15.1502Z" fill="black"/>
<path d="M7.95 10.65C6.46 10.65 5.25 9.44 5.25 7.95C5.25 6.46 6.46 5.25 7.95 5.25C9.44 5.25 10.65 6.46 10.65 7.95C10.65 9.44 9.44 10.65 7.95 10.65ZM7.95 6.75C7.29 6.75 6.75 7.29 6.75 7.95C6.75 8.61 7.29 9.15 7.95 9.15C8.61 9.15 9.15 8.61 9.15 7.95C9.15 7.29 8.61 6.75 7.95 6.75ZM7.8 18.748C6.39 18.748 5.25 17.608 5.25 16.198C5.25 14.788 6.39 13.648 7.8 13.648C9.21 13.648 10.35 14.788 10.35 16.198C10.35 17.608 9.21 18.748 7.8 18.748ZM7.8 15.148C7.66211 15.148 7.52557 15.1752 7.39818 15.2279C7.27079 15.2807 7.15504 15.358 7.05754 15.4555C6.96004 15.553 6.88269 15.6688 6.82993 15.7962C6.77716 15.9236 6.75 16.0601 6.75 16.198C6.75 16.3359 6.77716 16.4724 6.82993 16.5998C6.88269 16.7272 6.96004 16.843 7.05754 16.9405C7.15504 17.038 7.27079 17.1153 7.39818 17.1681C7.52557 17.2208 7.66211 17.248 7.8 17.248C8.07848 17.248 8.34555 17.1374 8.54246 16.9405C8.73938 16.7435 8.85 16.4765 8.85 16.198C8.85 15.9195 8.73938 15.6525 8.54246 15.4555C8.34555 15.2586 8.07848 15.148 7.8 15.148ZM16.2 18.748C14.79 18.748 13.65 17.608 13.65 16.198C13.65 14.788 14.79 13.648 16.2 13.648C17.61 13.648 18.75 14.788 18.75 16.198C18.75 17.608 17.61 18.748 16.2 18.748ZM16.2 15.148C16.0621 15.148 15.9256 15.1752 15.7982 15.2279C15.6708 15.2807 15.555 15.358 15.4575 15.4555C15.36 15.553 15.2827 15.6688 15.2299 15.7962C15.1772 15.9236 15.15 16.0601 15.15 16.198C15.15 16.3359 15.1772 16.4724 15.2299 16.5998C15.2827 16.7272 15.36 16.843 15.4575 16.9405C15.555 17.038 15.6708 17.1153 15.7982 17.1681C15.9256 17.2208 16.0621 17.248 16.2 17.248C16.4785 17.248 16.7455 17.1374 16.9425 16.9405C17.1394 16.7435 17.25 16.4765 17.25 16.198C17.25 15.9195 17.1394 15.6525 16.9425 15.4555C16.7455 15.2586 16.4785 15.148 16.2 15.148Z" fill="black"/>
<path d="M15.7 15.1714C15.5444 15.172 15.3925 15.1242 15.2653 15.0346C15.1381 14.945 15.0419 14.8181 14.99 14.6714C14.59 13.5314 13.52 12.7714 12.31 12.7714H12.3L10.24 12.7814H10.23C8.78 12.7814 7.51 11.8014 7.15 10.4014C7.05 10.0014 7.29 9.59142 7.69 9.49142C8.08 9.39142 8.5 9.63142 8.6 10.0314C8.79 10.7714 9.46 11.2914 10.23 11.2914H10.24L12.3 11.2814H12.32C14.16 11.2814 15.81 12.4514 16.42 14.1914C16.56 14.5814 16.35 15.0114 15.96 15.1514C15.87 15.1614 15.78 15.1714 15.7 15.1714Z" fill="black"/>
<path d="M15 22.75H9C3.57 22.75 1.25 20.43 1.25 15V9C1.25 3.57 3.57 1.25 9 1.25H15C20.43 1.25 22.75 3.57 22.75 9V15C22.75 20.43 20.43 22.75 15 22.75ZM9 2.75C4.39 2.75 2.75 4.39 2.75 9V15C2.75 19.61 4.39 21.25 9 21.25H15C19.61 21.25 21.25 19.61 21.25 15V9C21.25 4.39 19.61 2.75 15 2.75H9Z" fill="black"/>
</svg>
