<svg width="24" height="24" viewBox="0 0 24 24" fill="none" xmlns="http://www.w3.org/2000/svg">
<g opacity="0.4">
<path d="M7.8 10.2V14.4M7.95 9.9C8.46717 9.9 8.96316 9.69455 9.32886 9.32886C9.69455 8.96316 9.9 8.46717 9.9 7.95C9.9 7.43283 9.69455 6.93684 9.32886 6.57114C8.96316 6.20545 8.46717 6 7.95 6C7.43283 6 6.93684 6.20545 6.57114 6.57114C6.20545 6.93684 6 7.43283 6 7.95C6 8.46717 6.20545 8.96316 6.57114 9.32886C6.93684 9.69455 7.43283 9.9 7.95 9.9ZM7.8 17.998C8.27739 17.998 8.73523 17.8084 9.07279 17.4708C9.41036 17.1332 9.6 16.6754 9.6 16.198C9.6 15.7206 9.41036 15.2628 9.07279 14.9252C8.73523 14.5876 8.27739 14.398 7.8 14.398C7.32261 14.398 6.86477 14.5876 6.52721 14.9252C6.18964 15.2628 6 15.7206 6 16.198C6 16.6754 6.18964 17.1332 6.52721 17.4708C6.86477 17.8084 7.32261 17.998 7.8 17.998ZM16.2 17.998C16.6774 17.998 17.1352 17.8084 17.4728 17.4708C17.8104 17.1332 18 16.6754 18 16.198C18 15.7206 17.8104 15.2628 17.4728 14.9252C17.1352 14.5876 16.6774 14.398 16.2 14.398C15.7226 14.398 15.2648 14.5876 14.9272 14.9252C14.5896 15.2628 14.4 15.7206 14.4 16.198C14.4 16.6754 14.5896 17.1332 14.9272 17.4708C15.2648 17.8084 15.7226 17.998 16.2 17.998Z" stroke="black" stroke-width="1.5" stroke-linecap="round" stroke-linejoin="round"/>
<path d="M7.879 10.2002C8.01368 10.723 8.31894 11.1858 8.74642 11.5155C9.1739 11.8452 9.69917 12.0228 10.239 12.0202L12.299 12.0102C13.869 12.0002 15.209 13.0102 15.699 14.4202" stroke="black" stroke-width="1.5" stroke-linecap="round" stroke-linejoin="round"/>
</g>
<path d="M9 22H15C20 22 22 20 22 15V9C22 4 20 2 15 2H9C4 2 2 4 2 9V15C2 20 4 22 9 22Z" stroke="black" stroke-width="1.5" stroke-linecap="round" stroke-linejoin="round"/>
</svg>
