<svg width="24" height="24" viewBox="0 0 24 24" fill="none" xmlns="http://www.w3.org/2000/svg">
<g clip-path="url(#clip0_128_1455)">
<path opacity="0.4" d="M12 24C18.627 24 24 18.627 24 12C24 5.373 18.627 0 12 0C5.373 0 0 5.373 0 12C0 18.627 5.373 24 12 24Z" fill="black"/>
<path d="M16.5 18.3C16.2619 18.2981 16.034 18.2027 15.8656 18.0343C15.6972 17.8659 15.6018 17.6381 15.6 17.4V6.59995C15.6 6.10695 16.008 5.69995 16.5 5.69995C16.992 5.69995 17.4 6.10695 17.4 6.59995V17.4C17.4 17.891 16.992 18.3 16.5 18.3Z" fill="black"/>
<path d="M16.5 15.144H7.5C7.008 15.144 7.6 14.736 7.6 14.244C7.6 13.752 7.008 13.344 7.5 13.344H16.5C16.992 13.344 17.4 13.752 17.4 14.244C17.4 14.736 16.992 15.144 16.5 15.144Z" fill="black"/>
</g>
<defs>
<clipPath id="clip0_128_1455">
<rect width="24" height="24" fill="white"/>
</clipPath>
</defs>
</svg>
