<svg width="24" height="24" viewBox="0 0 24 24" fill="none" xmlns="http://www.w3.org/2000/svg">
<path d="M21.97 7.21C21.8211 5.78065 21.148 4.45712 20.0806 3.49495C19.0131 2.53277 17.6271 2.00018 16.19 2H7.81C6.26925 2.00053 4.79177 2.61282 3.7023 3.7023C2.61282 4.79177 2.00053 6.26925 2 7.81V16.19C2.00053 17.7307 2.61282 19.2082 3.7023 20.2977C4.79177 21.3872 6.26925 21.9995 7.81 22H14C14.55 22 15 21.55 15 21V18.03C15 16.36 16.36 15 18.03 15H21C21.55 15 22 14.55 22 14V7.81C22 7.61 21.99 7.41 21.97 7.21ZM7.75 13.5C7.75 13.91 7.41 14.25 7 14.25C6.59 14.25 6.25 13.91 6.25 13.5V10.5C6.25 10.09 6.59 9.75 7 9.75C7.41 9.75 7.75 10.09 7.75 10.5V13.5ZM12.75 13.5C12.75 13.91 12.41 14.25 12 14.25C11.59 14.25 11.25 13.91 11.25 13.5V10.5C11.25 10.09 11.59 9.75 12 9.75C12.41 9.75 12.75 10.09 12.75 10.5V13.5Z" fill="black"/>
<path d="M20.97 16H18.03C16.76 16 16 16.76 16 18.03V20.97C16 22.24 16.76 23 18.03 23H20.97C22.24 23 23 22.24 23 20.97V18.03C23 16.76 22.24 16 20.97 16ZM21.47 20.56C21.72 20.81 21.72 21.22 21.47 21.47C21.34 21.59 21.17 21.65 21.01 21.65C20.85 21.65 20.68 21.59 20.55 21.47L19.49 20.41L18.45 21.47C18.32 21.59 18.16 21.65 17.98 21.65C17.83 21.65 17.66 21.59 17.54 21.47C17.4199 21.349 17.3526 21.1855 17.3526 21.015C17.3526 20.8445 17.4199 20.681 17.54 20.56L18.6 19.5L17.54 18.45C17.4199 18.329 17.3526 18.1655 17.3526 17.995C17.3526 17.8245 17.4199 17.661 17.54 17.54C17.79 17.29 18.2 17.29 18.45 17.54L19.49 18.6L20.55 17.54C20.8 17.29 21.22 17.29 21.47 17.54C21.72 17.79 21.72 18.2 21.47 18.45L20.41 19.5L21.47 20.56Z" fill="black"/>
</svg>
