<svg width="24" height="24" viewBox="0 0 24 24" fill="none" xmlns="http://www.w3.org/2000/svg">
<path d="M17.23 21.522C17.04 21.522 16.85 21.452 16.7 21.302C16.5605 21.1609 16.4823 20.9704 16.4823 20.772C16.4823 20.5736 16.5605 20.3831 16.7 20.242L20.24 16.702C20.53 16.412 21.01 16.412 21.3 16.702C21.59 16.992 21.59 17.472 21.3 17.762L17.76 21.302C17.62 21.442 17.42 21.522 17.23 21.522Z" fill="black"/>
<path d="M20.77 21.522C20.58 21.522 20.39 21.452 20.24 21.302L16.7 17.762C16.5605 17.6209 16.4823 17.4304 16.4823 17.232C16.4823 17.0336 16.5605 16.8431 16.7 16.702C16.99 16.412 17.47 16.412 17.76 16.702L21.3 20.242C21.59 20.532 21.59 21.012 21.3 21.302C21.15 21.442 20.96 21.522 20.77 21.522ZM7 14.25C6.59 14.25 6.25 13.91 6.25 13.5V10.5C6.25 10.09 6.59 9.75 7 9.75C7.41 9.75 7.75 10.09 7.75 10.5V13.5C7.75 13.91 7.41 14.25 7 14.25ZM12 14.25C11.59 14.25 11.25 13.91 11.25 13.5V10.5C11.25 10.09 11.59 9.75 12 9.75C12.41 9.75 12.75 10.09 12.75 10.5V13.5C12.75 13.91 12.41 14.25 12 14.25ZM17 14.25C16.59 14.25 16.25 13.91 16.25 13.5V10.5C16.25 10.09 16.59 9.75 17 9.75C17.41 9.75 17.75 10.09 17.75 10.5V13.5C17.75 13.91 17.41 14.25 17 14.25Z" fill="black"/>
<path d="M13 22.75H9C3.57 22.75 1.25 20.43 1.25 15V9C1.25 3.57 3.57 1.25 9 1.25H15C20.43 1.25 22.75 3.57 22.75 9V13C22.75 13.41 22.41 13.75 22 13.75C21.59 13.75 21.25 13.41 21.25 13V9C21.25 4.39 19.61 2.75 15 2.75H9C4.39 2.75 2.75 4.39 2.75 9V15C2.75 19.61 4.39 21.25 9 21.25H13C13.41 21.25 13.75 21.59 13.75 22C13.75 22.41 13.41 22.75 13 22.75Z" fill="black"/>
</svg>
