<svg width="24" height="24" viewBox="0 0 24 24" fill="none" xmlns="http://www.w3.org/2000/svg">
<path d="M20 8C20 6 20 5 17 5H16M10 15.999C10 14.339 10 12.999 13 12.999H17C19.03 12.999 19.68 12.539 19.9 11.629M12 2H8C7.35004 3.94719 7.35004 6.05281 8 8H12C12.65 6.05 12.65 3.95 12 2Z" stroke="black" stroke-width="1.5" stroke-linecap="round" stroke-linejoin="round"/>
<path d="M8 2H7C5 2 4 3 4 5C4 7 5 8 7 8H8C7 6 7 4 8 2ZM13 2H12C13 4 13 6 12 8H13C15 8 16 7 16 5C16 3 15 2 13 2ZM9.5 22H10.5C12 22 12 21 12 20.5V17.5C12 17 12 16 10.5 16H9.5C8 16 8 17 8 17.5V20.5C8 21 8 22 9.5 22Z" stroke="black" stroke-width="1.5" stroke-linecap="round" stroke-linejoin="round"/>
</svg>
