<svg width="24" height="24" viewBox="0 0 24 24" fill="none" xmlns="http://www.w3.org/2000/svg">
<path d="M15.52 2.9C14.92 2.3 14.05 2 12.93 2H7.35C5.1 2 3.86 3.24 3.86 5.49C3.86 6.61 4.16 7.48 4.76 8.08C5.36 8.68 6.23 8.98 7.35 8.98H12.93C15.18 8.98 16.42 7.74 16.42 5.49C16.42 4.37 16.12 3.5 15.52 2.9Z" fill="black"/>
<path opacity="0.4" d="M10.6 15.02H9.67C8.72 15.02 7.58 15.38 7.58 17.11V19.9C7.58 21.63 8.72 21.99 9.67 21.99H10.6C11.55 21.99 12.69 21.63 12.69 19.9V17.11C12.7 15.39 11.56 15.02 10.6 15.02Z" fill="black"/>
<path opacity="0.4" d="M16.65 4.79004H16.37C16.4 5.01004 16.42 5.24004 16.42 5.49004C16.42 5.74004 16.4 5.97004 16.37 6.19004H16.65C18.74 6.19004 18.74 6.47004 18.74 8.28004V10.14C18.74 11.95 18.74 12.23 16.65 12.23H12.93C9.94 12.23 9.51 13.65 9.45 15.03C9.52 15.03 9.6 15.02 9.67 15.02H10.6C10.68 15.02 10.76 15.03 10.85 15.03C10.9 14.02 11.19 13.62 12.93 13.62H16.65C19.9 13.62 20.14 12.3 20.14 10.13V8.28004C20.14 6.11004 19.9 4.79004 16.65 4.79004Z" fill="black"/>
</svg>
