<svg width="24" height="24" viewBox="0 0 24 24" fill="none" xmlns="http://www.w3.org/2000/svg">
<path d="M12 2C6.48 2 2 6.48 2 12C2 17.52 6.48 22 12 22C17.52 22 22 17.52 22 12C22 6.48 17.52 2 12 2ZM14.67 16.43L12.42 17.93C12.29 18.01 12.15 18.06 12 18.06C11.85 18.06 11.71 18.02 11.58 17.93L9.33 16.43C9.16525 16.3191 9.05083 16.1478 9.01152 15.9531C8.97222 15.7584 9.01119 15.5561 9.12 15.39C9.35 15.04 9.82 14.95 10.16 15.18L11.99 16.4L13.82 15.18C14.16 14.95 14.63 15.04 14.86 15.39C15.1 15.74 15.01 16.2 14.67 16.43ZM16.5 12.99C16.5 13.77 15.65 14.25 14.99 13.85L12.52 12.37C12.2 12.18 11.81 12.18 11.49 12.37L9.02 13.85C8.8684 13.9413 8.69519 13.9906 8.51821 13.9928C8.34122 13.995 8.16686 13.95 8.01306 13.8624C7.85926 13.7748 7.73158 13.6478 7.64316 13.4944C7.55474 13.3411 7.50878 13.167 7.51 12.99V9.16C7.51 8.82 7.69 8.5 7.97 8.32L11.47 6.1C11.8 5.89 12.21 5.89 12.54 6.1L16.04 8.32C16.33 8.5 16.5 8.82 16.5 9.16V12.99Z" fill="black"/>
</svg>
