<svg width="24" height="24" viewBox="0 0 24 24" fill="none" xmlns="http://www.w3.org/2000/svg">
<path opacity="0.4" d="M11.75 9.43L8.5 15L7.87 16.09L5.4 20.31C5.22 20.63 4.76 20.64 4.56 20.33L1.18 15.28C1.1261 15.1966 1.09742 15.0993 1.09742 15C1.09742 14.9007 1.1261 14.8034 1.18 14.72L4.85 9.22C4.94 9.08 5.1 9 5.27 9H11.5L11.75 9.43Z" fill="black"/>
<path d="M22.84 14.7302L16.14 3.25017C16.0986 3.17268 16.0365 3.10824 15.9605 3.06409C15.8846 3.01993 15.7978 2.9978 15.71 3.00017H8.87C8.48 3.00017 8.24 3.42017 8.44 3.75017L11.5 9.00017L11.75 9.43017L14.56 14.2502C14.76 14.5802 14.52 15.0002 14.13 15.0002H8.5L7.87 16.0902C8.05 15.7702 8.51 15.7602 8.71 16.0702L11.85 20.7802C11.94 20.9202 12.1 21.0002 12.27 21.0002H18.73C18.9 21.0002 19.06 20.9202 19.15 20.7802L22.83 15.2602C22.93 15.1002 22.94 14.9002 22.84 14.7302Z" fill="black"/>
</svg>
