<svg width="24" height="24" viewBox="0 0 24 24" fill="none" xmlns="http://www.w3.org/2000/svg">
<path d="M18.73 21.75H12.27C11.85 21.75 11.46 21.54 11.23 21.19L8.31001 16.81L6.05001 20.68C5.83001 21.06 5.44001 21.29 5.01001 21.3C4.59001 21.34 4.17001 21.11 3.93001 20.74L0.560006 15.68C0.280006 15.26 0.280006 14.71 0.560006 14.29L4.23001 8.78998C4.46001 8.43998 4.85001 8.22998 5.27001 8.22998H10.2L7.80001 4.10998C7.58001 3.71998 7.57001 3.23998 7.80001 2.85998C8.02001 2.46998 8.44001 2.22998 8.88001 2.22998H15.72C16.16 2.22998 16.58 2.46998 16.8 2.84998L23.5 14.33C23.74 14.75 23.73 15.25 23.46 15.65L19.78 21.17C19.54 21.54 19.15 21.75 18.73 21.75ZM12.4 20.25H18.6L22.12 14.97L15.57 3.74998H9.31001L12.81 9.74998L15.21 13.87C15.43 14.25 15.44 14.73 15.21 15.12C14.99 15.51 14.57 15.75 14.13 15.75H9.40001L12.4 20.25ZM1.90001 15L4.96001 19.58L7.20001 15.75L10.7 9.74998H5.41001L1.90001 15ZM9.81001 14.25H13.7L11.76 10.92L9.81001 14.25Z" fill="black"/>
</svg>
