<svg width="24" height="24" viewBox="0 0 24 24" fill="none" xmlns="http://www.w3.org/2000/svg">
<path d="M20.04 6.82165L14.28 2.79165C12.71 1.69165 10.3 1.75165 8.79 2.92165L3.78 6.83165C2.78 7.61165 1.99 9.21165 1.99 10.4716V17.3716C1.99 19.9216 4.06 22.0016 6.61 22.0016H17.39C19.94 22.0016 22.01 19.9316 22.01 17.3816V10.6016C22.01 9.25165 21.14 7.59165 20.04 6.82165ZM12.75 18.0016C12.75 18.4116 12.41 18.7516 12 18.7516C11.59 18.7516 11.25 18.4116 11.25 18.0016V15.0016C11.25 14.5916 11.59 14.2516 12 14.2516C12.41 14.2516 12.75 14.5916 12.75 15.0016V18.0016Z" fill="black"/>
</svg>
