<svg width="24" height="24" viewBox="0 0 24 24" fill="none" xmlns="http://www.w3.org/2000/svg">
<path opacity="0.4" d="M4.12 2.00001H19.89C20.49 2.00001 20.95 2.52001 20.88 3.11001L19.08 19.33C19.04 19.73 18.75 20.07 18.36 20.18L12.28 21.92C12.1 21.97 11.91 21.97 11.73 21.92L5.65 20.18C5.45987 20.1245 5.29024 20.0144 5.16222 19.8632C5.0342 19.7121 4.95345 19.5267 4.93 19.33L3.13 3.11001C3.11343 2.97038 3.12671 2.82882 3.16894 2.69471C3.21118 2.56059 3.28142 2.43698 3.37501 2.33204C3.4686 2.22711 3.58341 2.14325 3.71184 2.08601C3.84027 2.02877 3.97939 1.99945 4.12 2.00001Z" fill="black"/>
<path d="M17.06 6.49998C16.9902 6.42045 16.904 6.35693 16.8073 6.31378C16.7107 6.27064 16.6058 6.24887 16.5 6.24998L7.5 6.22998C7.30109 6.22998 7.11032 6.309 6.96967 6.44965C6.82902 6.5903 6.75 6.78107 6.75 6.97998C6.75 7.17889 6.82902 7.36966 6.96967 7.51031C7.11032 7.65096 7.30109 7.72998 7.5 7.72998L15.66 7.74998L15.38 10.25H8C7.59 10.25 7.25 10.59 7.25 11C7.25 11.41 7.59 11.75 8 11.75H15.22L14.81 15.42L12 16.22L9.12 15.4L8.72 13.82C8.62 13.42 8.21 13.17 7.81 13.27C7.41 13.37 7.16 13.78 7.26 14.18L7.76 16.18C7.82 16.44 8.02 16.65 8.28 16.72L11.78 17.72C11.9172 17.7594 12.0628 17.7594 12.2 17.72L15.7 16.72C15.99 16.64 16.21 16.39 16.24 16.08L17.24 7.07998C17.2536 6.97604 17.2445 6.8704 17.2135 6.77029C17.1824 6.67017 17.13 6.57797 17.06 6.49998Z" fill="black"/>
</svg>
