<svg width="24" height="24" viewBox="0 0 24 24" fill="none" xmlns="http://www.w3.org/2000/svg">
<path d="M12 22.71C11.84 22.71 11.68 22.69 11.52 22.64L5.44 20.9C4.75 20.7 4.26 20.12 4.18 19.41L2.38 3.19C2.35346 2.94561 2.37868 2.69838 2.45402 2.46438C2.52936 2.23038 2.65312 2.01487 2.81726 1.83187C2.98139 1.64887 3.18222 1.50248 3.40667 1.40223C3.63112 1.30198 3.87417 1.25011 4.12 1.25H19.89C20.39 1.25 20.86 1.46 21.19 1.83C21.52 2.2 21.68 2.7 21.63 3.19L19.83 19.41C19.75 20.12 19.26 20.7 18.57 20.9L12.49 22.64C12.32 22.69 12.16 22.71 12 22.71ZM4.12 2.75C4.02 2.75 3.96 2.8 3.93 2.83C3.90697 2.85553 3.8897 2.8857 3.87935 2.91848C3.869 2.95126 3.86581 2.98588 3.87 3.02L5.67 19.24C5.68 19.34 5.75 19.43 5.85 19.45L11.93 21.19C11.97 21.2 12.02 21.2 12.07 21.19L18.15 19.45C18.25 19.42 18.32 19.34 18.33 19.24L20.13 3.02C20.14 2.92 20.1 2.86 20.07 2.83C20.0455 2.80442 20.0159 2.78412 19.9833 2.77036C19.9506 2.75661 19.9154 2.74968 19.88 2.75H4.12Z" fill="black"/>
<path d="M12 17.75C11.93 17.75 11.86 17.74 11.79 17.72L8.28999 16.72C8.16259 16.6854 8.04695 16.6169 7.95538 16.5218C7.86381 16.4267 7.79974 16.3086 7.76999 16.18L7.26999 14.18C7.16999 13.78 7.40999 13.37 7.81999 13.27C8.21999 13.17 8.62999 13.41 8.72999 13.82L9.12999 15.4L12.01 16.22L14.82 15.42L15.67 7.74998L7.50999 7.72998C7.09999 7.72998 6.75999 7.38998 6.75999 6.97998C6.75999 6.56998 7.09999 6.22998 7.50999 6.22998L16.51 6.24998C16.72 6.24998 16.93 6.33998 17.07 6.49998C17.21 6.65998 17.28 6.86998 17.26 7.07998L16.26 16.08C16.23 16.38 16.01 16.63 15.72 16.72L12.22 17.72C12.14 17.74 12.07 17.75 12 17.75Z" fill="black"/>
<path d="M16.06 11.75H8C7.59 11.75 7.25 11.41 7.25 11C7.25 10.59 7.59 10.25 8 10.25H16.06C16.47 10.25 16.81 10.59 16.81 11C16.81 11.41 16.47 11.75 16.06 11.75Z" fill="black"/>
</svg>
