<svg width="24" height="24" viewBox="0 0 24 24" fill="none" xmlns="http://www.w3.org/2000/svg">
<path d="M4.12 2.00001H19.89C20.49 2.00001 20.95 2.52001 20.88 3.11001L19.08 19.33C19.04 19.73 18.75 20.07 18.36 20.18L12.28 21.92C12.1 21.97 11.91 21.97 11.73 21.92L5.65 20.18C5.45986 20.1245 5.29024 20.0144 5.16222 19.8632C5.0342 19.7121 4.95345 19.5267 4.93 19.33L3.13 3.11001C3.11343 2.97038 3.1267 2.82882 3.16894 2.69471C3.21118 2.56059 3.28142 2.43698 3.37501 2.33204C3.4686 2.22711 3.58341 2.14325 3.71184 2.08601C3.84027 2.02877 3.97939 1.99945 4.12 2.00001Z" stroke="black" stroke-width="1.5" stroke-miterlimit="10" stroke-linecap="round" stroke-linejoin="round"/>
<g opacity="0.4">
<path d="M7.5 6.97998L16.5 6.99998L15.5 16L12 17L8.5 16L8 14M8 11H16.06" stroke="black" stroke-width="1.5" stroke-miterlimit="10" stroke-linecap="round" stroke-linejoin="round"/>
</g>
</svg>
