<svg width="24" height="24" viewBox="0 0 24 24" fill="none" xmlns="http://www.w3.org/2000/svg">
<path d="M1.97 12.941V15.001C1.97 20.001 3.97 22.001 8.97 22.001H14.97C19.97 22.001 21.97 20.001 21.97 15.001V13.001M10.97 2H8.97C3.97 2 1.97 4 1.97 9" stroke="black" stroke-width="1.5" stroke-linecap="round" stroke-linejoin="round"/>
<path d="M18.51 3.00022C19.17 2.63022 19.81 2.32022 20.41 2.08022C20.88 1.90022 21.34 2.04022 21.63 2.33022C21.93 2.63022 22.08 3.09022 21.89 3.56022C20.66 6.63022 17.57 10.8102 14.99 12.8802L13.41 14.1402C13.21 14.2902 13.01 14.4102 12.78 14.5002C12.78 14.3502 12.77 14.2002 12.75 14.0402C12.66 13.3702 12.36 12.7402 11.82 12.2102C11.27 11.6602 10.61 11.3502 9.93 11.2602C9.77 11.2502 9.61 11.2402 9.45 11.2502C9.54 11.0002 9.67 10.7702 9.84 10.5802L11.09 9.00022C12.16 7.66022 13.81 6.18022 15.58 4.89022" stroke="black" stroke-width="1.5" stroke-linecap="round" stroke-linejoin="round"/>
<path d="M15.82 11.9809C15.82 9.89092 14.13 8.19092 12.03 8.19092M12.78 14.4889C12.78 15.3689 12.44 16.2089 11.81 16.8489C11.32 17.3389 10.66 17.6789 9.87 17.7789L7.9 17.9889C7.64693 18.016 7.39103 17.9858 7.15116 17.9008C6.91129 17.8157 6.69359 17.6779 6.51411 17.4974C6.33463 17.317 6.19795 17.0985 6.11416 16.8582C6.03037 16.6179 6.00161 16.3618 6.03 16.1089L6.24 14.1389C6.43 12.3889 7.89 11.2689 9.45 11.2389C9.61 11.2289 9.77 11.2389 9.93 11.2489C10.61 11.3389 11.27 11.6489 11.82 12.1989C12.36 12.7389 12.66 13.3589 12.75 14.0289C12.77 14.1889 12.78 14.3489 12.78 14.4889Z" stroke="black" stroke-width="1.5" stroke-linecap="round" stroke-linejoin="round"/>
</svg>
