<svg width="24" height="24" viewBox="0 0 24 24" fill="none" xmlns="http://www.w3.org/2000/svg">
<g clip-path="url(#clip0_135_3557)">
<path opacity="0.4" d="M14.19 0H5.81C2.17 0 0 2.17 0 5.81V14.18C0 17.83 2.17 20 5.81 20H14.18C17.82 20 19.99 17.83 19.99 14.19V5.81C20 2.17 17.83 0 14.19 0Z" fill="black"/>
<path d="M19.83 1.55022C18.78 4.16022 16.4 7.57022 14.12 9.80022C13.9577 8.79359 13.4767 7.86561 12.7476 7.15277C12.0186 6.43993 11.08 5.97986 10.07 5.84022C12.31 3.56022 15.74 1.14022 18.36 0.0802204C18.82 -0.0997796 19.29 0.0402204 19.57 0.33022C19.88 0.63022 20.02 1.09022 19.83 1.55022Z" fill="black"/>
<path opacity="0.4" d="M14.12 9.79203C13.72 10.182 13.32 10.542 12.94 10.842L11.37 12.102C11.17 12.242 10.97 12.362 10.75 12.462C10.75 12.312 10.73 12.162 10.72 12.002C10.63 11.342 10.33 10.712 9.79 10.172C9.28211 9.66276 8.62215 9.33279 7.91 9.23203C7.75 9.21203 7.58 9.21203 7.43 9.21203C7.52 8.96203 7.65 8.73203 7.82 8.54203L9.07 6.97203C9.37 6.59203 9.71 6.21203 10.08 5.83203C12.15 6.12203 13.8 7.74203 14.12 9.79203Z" fill="black"/>
<path d="M10.75 12.47C10.75 13.35 10.41 14.19 9.78 14.82C9.29 15.31 8.64 15.65 7.84 15.75L5.88 15.97C4.81 16.09 3.89 15.17 4.01 14.09L4.23 12.13C4.42 10.38 5.88 9.26 7.43 9.23C7.58 9.22 7.75 9.23 7.91 9.25C8.59 9.34 9.24 9.65 9.79 10.19C10.32 10.72 10.63 11.36 10.72 12.02C10.73 12.17 10.75 12.32 10.75 12.47Z" fill="black"/>
</g>
<defs>
<clipPath id="clip0_135_3557">
<rect width="24" height="24" fill="white"/>
</clipPath>
</defs>
</svg>
