<svg width="24" height="24" viewBox="0 0 24 24" fill="none" xmlns="http://www.w3.org/2000/svg">
<path d="M14.97 22.75H8.97C3.54 22.75 1.22 20.43 1.22 15V9C1.22 3.57 3.54 1.25 8.97 1.25H10.97C11.38 1.25 11.72 1.59 11.72 2C11.72 2.41 11.38 2.75 10.97 2.75H8.97C4.36 2.75 2.72 4.39 2.72 9V15C2.72 19.61 4.36 21.25 8.97 21.25H14.97C19.58 21.25 21.22 19.61 21.22 15V13C21.22 12.59 21.56 12.25 21.97 12.25C22.38 12.25 22.72 12.59 22.72 13V15C22.72 20.43 20.41 22.75 14.97 22.75Z" fill="black"/>
<path d="M12.78 15.2399C12.63 15.2399 12.49 15.1999 12.36 15.1099C12.2578 15.0421 12.1741 14.9499 12.1165 14.8417C12.0589 14.7334 12.0292 14.6125 12.03 14.4899C12.03 14.3799 12.02 14.2599 12 14.1399C11.93 13.6099 11.69 13.1399 11.29 12.7299C10.88 12.3199 10.38 12.0599 9.83 11.9899C9.75 11.9799 9.62 11.9699 9.5 11.9799C9.25 11.9999 9 11.8899 8.85 11.6899C8.7761 11.589 8.72753 11.4719 8.70838 11.3483C8.68924 11.2247 8.70008 11.0984 8.74 10.9799C8.86 10.6399 9.05 10.3199 9.27 10.0699L10.5 8.52989C12.64 5.85989 16.95 2.65989 20.13 1.38989C20.86 1.10989 21.63 1.26989 22.16 1.79989C22.71 2.34989 22.87 3.12989 22.58 3.83989C21.31 7.00989 18.11 11.3299 15.45 13.4599L13.88 14.7199C13.57 14.9399 13.32 15.0899 13.06 15.1899C12.97 15.2199 12.87 15.2399 12.78 15.2399ZM10.72 10.6699C11.33 10.8699 11.88 11.2099 12.35 11.6699C12.81 12.1299 13.14 12.6599 13.33 13.2299L14.51 12.2799C17 10.2799 20 6.23989 21.19 3.26989C21.27 3.07989 21.18 2.93989 21.1 2.84989C21.05 2.79989 20.91 2.68989 20.68 2.77989C17.72 3.96989 13.68 6.96989 11.68 9.45989L10.72 10.6699Z" fill="black"/>
<path d="M7.701 18.7499C7.061 18.7499 6.451 18.4999 5.991 18.0399C5.461 17.5099 5.201 16.7799 5.291 16.0299L5.501 14.0699C5.721 12.0399 7.371 10.5399 9.441 10.4999C9.601 10.4899 9.801 10.4999 9.991 10.5099C10.8872 10.6223 11.719 11.0347 12.351 11.6799C12.991 12.3199 13.381 13.0799 13.491 13.9399C13.5806 14.5648 13.5234 15.202 13.3238 15.8008C13.1241 16.3997 12.7876 16.9438 12.341 17.3899C11.711 18.0199 10.891 18.4099 9.961 18.5299L7.981 18.7399C7.881 18.7499 7.791 18.7499 7.701 18.7499ZM9.601 11.9899H9.501C8.351 12.0199 7.141 12.7899 6.991 14.2299L6.781 16.1999C6.751 16.4899 6.851 16.7799 7.051 16.9799C7.251 17.1799 7.531 17.2799 7.811 17.2499L9.781 17.0399C10.361 16.9699 10.881 16.7199 11.271 16.3299C11.751 15.8399 12.021 15.1999 12.021 14.4999C12.021 14.3899 12.011 14.2699 11.991 14.1499C11.921 13.6199 11.681 13.1499 11.281 12.7399C10.871 12.3299 10.371 12.0699 9.821 11.9999C9.771 11.9899 9.691 11.9899 9.601 11.9899ZM15.82 12.7309C15.41 12.7309 15.07 12.3909 15.07 11.9809C15.07 10.3109 13.71 8.94092 12.03 8.94092C11.62 8.94092 11.28 8.60092 11.28 8.19092C11.28 7.78092 11.62 7.44092 12.03 7.44092C14.53 7.44092 16.57 9.47092 16.57 11.9809C16.57 12.3909 16.24 12.7309 15.82 12.7309Z" fill="black"/>
</svg>
