<svg width="24" height="24" viewBox="0 0 24 24" fill="none" xmlns="http://www.w3.org/2000/svg">
<path opacity="0.4" d="M10.97 2H8.97C3.97 2 1.97 4 1.97 9V15C1.97 20 3.97 22 8.97 22H14.97C19.97 22 21.97 20 21.97 15V13" stroke="black" stroke-width="1.5" stroke-linecap="round" stroke-linejoin="round"/>
<path d="M21.88 3.56022C20.65 6.63022 17.56 10.8102 14.98 12.8802L13.4 14.1402C13.2 14.2902 13 14.4102 12.77 14.5002C12.77 14.3502 12.76 14.2002 12.74 14.0402C12.65 13.3702 12.35 12.7402 11.81 12.2102C11.26 11.6602 10.6 11.3502 9.92 11.2602C9.76 11.2502 9.6 11.2402 9.44 11.2502C9.53 11.0002 9.66 10.7702 9.83 10.5802L11.09 9.00022C13.16 6.42022 17.35 3.31022 20.41 2.08022C20.88 1.90022 21.34 2.04022 21.63 2.33022C21.93 2.63022 22.07 3.09022 21.88 3.56022Z" stroke="black" stroke-width="1.5" stroke-linecap="round" stroke-linejoin="round"/>
<path d="M12.78 14.489C12.78 15.369 12.44 16.209 11.81 16.849C11.32 17.339 10.66 17.679 9.87 17.779L7.9 17.989C7.64694 18.016 7.39103 17.9859 7.15117 17.9008C6.9113 17.8158 6.69359 17.6779 6.51411 17.4975C6.33463 17.3171 6.19795 17.0986 6.11416 16.8583C6.03038 16.618 6.00161 16.3619 6.03 16.109L6.24 14.139C6.43 12.389 7.89 11.269 9.45 11.239C9.61 11.229 9.77 11.239 9.93 11.249C10.61 11.339 11.27 11.649 11.82 12.199C12.36 12.739 12.66 13.359 12.75 14.029C12.77 14.189 12.78 14.349 12.78 14.489Z" stroke="black" stroke-width="1.5" stroke-linecap="round" stroke-linejoin="round"/>
<path opacity="0.4" d="M15.82 11.9809C15.82 9.89092 14.13 8.19092 12.03 8.19092" stroke="black" stroke-width="1.5" stroke-linecap="round" stroke-linejoin="round"/>
</svg>
