<svg width="24" height="24" viewBox="0 0 24 24" fill="none" xmlns="http://www.w3.org/2000/svg">
<path d="M21 22.75H3C2.59 22.75 2.25 22.41 2.25 22C2.25 21.59 2.59 21.25 3 21.25H21C21.41 21.25 21.75 21.59 21.75 22C21.75 22.41 21.41 22.75 21 22.75ZM5.6 19.749H4C3.04 19.749 2.25 18.959 2.25 17.999V9.379C2.25 8.419 3.04 7.629 4 7.629H5.6C6.56 7.629 7.35 8.419 7.35 9.379V17.999C7.35 18.959 6.56 19.749 5.6 19.749ZM4 9.119C3.86 9.119 3.75 9.229 3.75 9.369V17.999C3.75 18.139 3.86 18.249 4 18.249H5.6C5.74 18.249 5.85 18.139 5.85 17.999V9.379C5.85 9.239 5.74 9.129 5.6 9.129H4V9.119ZM12.8 19.751H11.2C10.24 19.751 9.45 18.961 9.45 18.001V6.191C9.45 5.231 10.24 4.441 11.2 4.441H12.8C13.76 4.441 14.55 5.231 14.55 6.191V18.001C14.55 18.961 13.76 19.751 12.8 19.751ZM11.2 5.941C11.06 5.941 10.95 6.051 10.95 6.191V18.001C10.95 18.141 11.06 18.251 11.2 18.251H12.8C12.94 18.251 13.05 18.141 13.05 18.001V6.191C13.05 6.051 12.94 5.941 12.8 5.941H11.2ZM20 19.75H18.4C17.44 19.75 16.65 18.96 16.65 18V3C16.65 2.04 17.44 1.25 18.4 1.25H20C20.96 1.25 21.75 2.04 21.75 3V18C21.75 18.96 20.96 19.75 20 19.75ZM18.4 2.75C18.26 2.75 18.15 2.86 18.15 3V18C18.15 18.14 18.26 18.25 18.4 18.25H20C20.14 18.25 20.25 18.14 20.25 18V3C20.25 2.86 20.14 2.75 20 2.75H18.4Z" fill="black"/>
</svg>
