<svg width="24" height="24" viewBox="0 0 24 24" fill="none" xmlns="http://www.w3.org/2000/svg">
<path opacity="0.4" d="M3 22H21" stroke="black" stroke-width="1.5" stroke-linecap="round" stroke-linejoin="round"/>
<path d="M5.6 8.379H4C3.45 8.379 3 8.829 3 9.379V17.999C3 18.549 3.45 18.999 4 18.999H5.6C6.15 18.999 6.6 18.549 6.6 17.999V9.379C6.6 8.829 6.15 8.379 5.6 8.379ZM12.8 5.191H11.2C10.65 5.191 10.2 5.641 10.2 6.191V18.001C10.2 18.551 10.65 19.001 11.2 19.001H12.8C13.35 19.001 13.8 18.551 13.8 18.001V6.191C13.8 5.641 13.35 5.191 12.8 5.191ZM20 2H18.4C17.85 2 17.4 2.45 17.4 3V18C17.4 18.55 17.85 19 18.4 19H20C20.55 19 21 18.55 21 18V3C21 2.45 20.55 2 20 2Z" stroke="black" stroke-width="1.5" stroke-linecap="round" stroke-linejoin="round"/>
</svg>
