<svg width="24" height="24" viewBox="0 0 24 24" fill="none" xmlns="http://www.w3.org/2000/svg">
<path d="M9.23 22.751H9.19C7.51 22.741 6.31 21.231 5.46 19.921C3.29 16.591 2.85 12.401 4.42 9.971C5.47 8.341 7.17 7.331 8.85 7.331C9.72 7.331 10.4 7.571 11 7.791C11.48 7.961 11.89 8.111 12.32 8.111C12.7 8.111 13.03 7.981 13.45 7.821C14.03 7.601 14.74 7.331 15.77 7.331C17.25 7.331 18.77 8.121 19.83 9.461C19.8978 9.54587 19.9463 9.64449 19.9721 9.75C19.9979 9.85552 20.0004 9.96538 19.9795 10.072C19.9586 10.1786 19.9147 10.2793 19.8509 10.3672C19.787 10.4551 19.7049 10.5281 19.61 10.581C18.48 11.201 17.86 12.331 17.95 13.611C18.04 14.911 18.84 16.011 20.04 16.461C20.23 16.531 20.39 16.681 20.47 16.871C20.55 17.061 20.55 17.281 20.46 17.461C20.02 18.441 19.8 18.891 19.23 19.771C18.28 21.231 17.08 22.731 15.44 22.751C14.73 22.751 14.25 22.541 13.83 22.341C13.41 22.151 13 22.001 12.35 21.981C11.65 21.981 11.28 22.151 10.85 22.341C10.41 22.541 9.93 22.751 9.23 22.751ZM8.85 8.831C7.67 8.831 6.46 9.581 5.68 10.781C4.62 12.421 4.63 15.891 6.72 19.101C7.37 20.101 8.24 21.241 9.21 21.251C9.57 21.241 9.84 21.141 10.21 20.981C10.7 20.761 11.31 20.491 12.32 20.481C13.31 20.461 13.95 20.751 14.44 20.981C14.8 21.151 15.04 21.261 15.41 21.251C16.35 21.241 17.26 20.021 17.96 18.961C18.33 18.391 18.54 18.031 18.77 17.521C18.1001 17.1269 17.5373 16.5742 17.131 15.9116C16.7247 15.249 16.4874 14.4968 16.44 13.721C16.33 12.191 16.95 10.761 18.09 9.811C17.39 9.191 16.56 8.841 15.76 8.841C15.01 8.841 14.51 9.031 13.98 9.231C13.48 9.421 12.96 9.621 12.31 9.621C11.62 9.621 11.05 9.411 10.49 9.221C9.96 9.011 9.45 8.831 8.85 8.831ZM11.82 7.131H11.72C11.5484 7.12497 11.3842 7.06004 11.2549 6.94712C11.1256 6.8342 11.0391 6.68019 11.01 6.511C10.8 5.381 11.2 4.081 12.07 3.021C12.87 2.051 14.19 1.331 15.36 1.251C15.77 1.231 16.1 1.501 16.15 1.891C16.32 3.061 15.95 4.341 15.12 5.411C14.31 6.461 13.02 7.131 11.82 7.131ZM14.65 2.951C14.11 3.171 13.58 3.541 13.23 3.971C12.9 4.371 12.59 4.931 12.49 5.511C13.03 5.331 13.57 4.971 13.94 4.491C14.14 4.241 14.52 3.661 14.65 2.951Z" fill="black"/>
</svg>
