<svg width="24" height="24" viewBox="0 0 24 24" fill="none" xmlns="http://www.w3.org/2000/svg">
<path d="M18.59 19.358C19.14 18.518 19.34 18.098 19.76 17.158C16.68 15.988 16.18 11.598 19.23 9.918C18.3 8.748 16.99 8.078 15.76 8.078C14.87 8.078 14.26 8.308 13.71 8.518C13.25 8.698 12.82 8.858 12.31 8.858C11.75 8.858 11.26 8.678 10.74 8.498C10.17 8.298 9.58 8.078 8.84 8.078C7.45 8.078 5.98 8.928 5.04 10.368C3.73 12.408 3.95 16.238 6.08 19.508C6.84 20.678 7.86 21.988 9.19 21.998C9.74 22.008 10.11 21.838 10.51 21.658C10.97 21.458 11.46 21.228 12.32 21.228C13.18 21.218 13.67 21.448 14.12 21.658C14.51 21.838 14.87 21.998 15.41 21.998C16.75 21.988 17.83 20.528 18.59 19.358Z" stroke="black" stroke-width="1.5" stroke-miterlimit="10" stroke-linecap="round" stroke-linejoin="round"/>
<path opacity="0.4" d="M16.01 2.07001C16.17 3.17001 15.72 4.26001 15.13 5.02001C14.5 5.84001 13.4 6.48001 12.34 6.44001C12.15 5.38001 12.64 4.29001 13.24 3.56001C13.91 2.76001 15.04 2.14001 16.01 2.07001Z" stroke="black" stroke-width="1.5" stroke-miterlimit="10" stroke-linecap="round" stroke-linejoin="round"/>
</svg>
