<svg width="24" height="24" viewBox="0 0 24 24" fill="none" xmlns="http://www.w3.org/2000/svg">
<path d="M5.25 8.5C6.11195 8.5 6.9386 8.15759 7.5481 7.5481C8.15759 6.9386 8.5 6.11195 8.5 5.25C8.5 4.38805 8.15759 3.5614 7.5481 2.9519C6.9386 2.34241 6.11195 2 5.25 2C4.38805 2 3.5614 2.34241 2.9519 2.9519C2.34241 3.5614 2 4.38805 2 5.25C2 6.11195 2.34241 6.9386 2.9519 7.5481C3.5614 8.15759 4.38805 8.5 5.25 8.5ZM5 22C5.79565 22 6.55871 21.6839 7.12132 21.1213C7.68393 20.5587 8 19.7956 8 19C8 18.2044 7.68393 17.4413 7.12132 16.8787C6.55871 16.3161 5.79565 16 5 16C4.20435 16 3.44129 16.3161 2.87868 16.8787C2.31607 17.4413 2 18.2044 2 19C2 19.7956 2.31607 20.5587 2.87868 21.1213C3.44129 21.6839 4.20435 22 5 22ZM19 22C19.7956 22 20.5587 21.6839 21.1213 21.1213C21.6839 20.5587 22 19.7956 22 19C22 18.2044 21.6839 17.4413 21.1213 16.8787C20.5587 16.3161 19.7956 16 19 16C18.2044 16 17.4413 16.3161 16.8787 16.8787C16.3161 17.4413 16 18.2044 16 19C16 19.7956 16.3161 20.5587 16.8787 21.1213C17.4413 21.6839 18.2044 22 19 22Z" fill="black"/>
<path d="M19.17 15.98C18.6971 14.6222 17.8135 13.4451 16.6417 12.6119C15.4698 11.7787 14.0678 11.3307 12.63 11.33H12.6L9.07 11.34C7.55 11.36 6.19 10.33 5.78 8.85V7.01C5.78 6.59 5.44 6.25 5.01 6.25C4.58 6.25 4.25 6.59 4.25 7.01V18.23C4.25 18.65 4.59 18.99 5.01 18.99C5.43 18.99 5.78 18.65 5.78 18.23V11.61C6.66 12.39 7.81 12.87 9.06 12.87H9.08L12.61 12.86H12.63C14.92 12.86 16.97 14.31 17.72 16.48C17.7884 16.6721 17.9291 16.8299 18.1123 16.9195C18.2954 17.0092 18.5063 17.0238 18.7 16.96C19.1 16.82 19.31 16.38 19.17 15.98Z" fill="black"/>
</svg>
