<svg width="24" height="24" viewBox="0 0 24 24" fill="none" xmlns="http://www.w3.org/2000/svg">
<path d="M5 9V16M5 16C5.79565 16 6.55871 16.3161 7.12132 16.8787C7.68393 17.4413 8 18.2044 8 19C8 19.7956 7.68393 20.5587 7.12132 21.1213C6.55871 21.6839 5.79565 22 5 22C4.20435 22 3.44129 21.6839 2.87868 21.1213C2.31607 20.5587 2 19.7956 2 19C2 18.2044 2.31607 17.4413 2.87868 16.8787C3.44129 16.3161 4.20435 16 5 16ZM5.25 8.5C6.11195 8.5 6.9386 8.15759 7.5481 7.5481C8.15759 6.9386 8.5 6.11195 8.5 5.25C8.5 4.38805 8.15759 3.5614 7.5481 2.9519C6.9386 2.34241 6.11195 2 5.25 2C4.38805 2 3.5614 2.34241 2.9519 2.9519C2.34241 3.5614 2 4.38805 2 5.25C2 6.11195 2.34241 6.9386 2.9519 7.5481C3.5614 8.15759 4.38805 8.5 5.25 8.5ZM19 22C19.7956 22 20.5587 21.6839 21.1213 21.1213C21.6839 20.5587 22 19.7956 22 19C22 18.2044 21.6839 17.4413 21.1213 16.8787C20.5587 16.3161 19.7956 16 19 16C18.2044 16 17.4413 16.3161 16.8787 16.8787C16.3161 17.4413 16 18.2044 16 19C16 19.7956 16.3161 20.5587 16.8787 21.1213C17.4413 21.6839 18.2044 22 19 22Z" stroke="black" stroke-width="1.5" stroke-linecap="round" stroke-linejoin="round"/>
<path d="M5.13 9C5.35604 9.87223 5.86594 10.6444 6.57931 11.1948C7.29269 11.7453 8.16897 12.0426 9.07 12.04L12.5 12.03C13.7446 12.0264 14.9594 12.4106 15.9756 13.1293C16.9917 13.8479 17.7587 14.8653 18.17 16.04" stroke="black" stroke-width="1.5" stroke-linecap="round" stroke-linejoin="round"/>
</svg>
