<svg width="24" height="24" viewBox="0 0 24 24" fill="none" xmlns="http://www.w3.org/2000/svg">
<path d="M5 16.75C4.59 16.75 4.25 16.41 4.25 16V9C4.25 8.59 4.59 8.25 5 8.25C5.41 8.25 5.75 8.59 5.75 9V16C5.75 16.41 5.41 16.75 5 16.75Z" fill="black"/>
<path d="M5.25 9.25C3.04 9.25 1.25 7.46 1.25 5.25C1.25 3.04 3.04 1.25 5.25 1.25C7.46 1.25 9.25 3.04 9.25 5.25C9.25 7.46 7.46 9.25 5.25 9.25ZM5.25 2.75C4.58696 2.75 3.95107 3.01339 3.48223 3.48223C3.01339 3.95107 2.75 4.58696 2.75 5.25C2.75 5.91304 3.01339 6.54893 3.48223 7.01777C3.95107 7.48661 4.58696 7.75 5.25 7.75C5.91304 7.75 6.54893 7.48661 7.01777 7.01777C7.48661 6.54893 7.75 5.91304 7.75 5.25C7.75 4.58696 7.48661 3.95107 7.01777 3.48223C6.54893 3.01339 5.91304 2.75 5.25 2.75ZM5 22.75C2.93 22.75 1.25 21.07 1.25 19C1.25 16.93 2.93 15.25 5 15.25C7.07 15.25 8.75 16.93 8.75 19C8.75 21.07 7.07 22.75 5 22.75ZM5 16.75C3.76 16.75 2.75 17.76 2.75 19C2.75 20.24 3.76 21.25 5 21.25C6.24 21.25 7.25 20.24 7.25 19C7.25 17.76 6.24 16.75 5 16.75ZM19 22.75C16.93 22.75 15.25 21.07 15.25 19C15.25 16.93 16.93 15.25 19 15.25C21.07 15.25 22.75 16.93 22.75 19C22.75 21.07 21.07 22.75 19 22.75ZM19 16.75C17.76 16.75 16.75 17.76 16.75 19C16.75 20.24 17.76 21.25 19 21.25C20.24 21.25 21.25 20.24 21.25 19C21.25 17.76 20.24 16.75 19 16.75Z" fill="black"/>
<path d="M18.17 16.7898C18.0144 16.7904 17.8625 16.7426 17.7353 16.653C17.6081 16.5634 17.5119 16.4365 17.46 16.2898C17.1033 15.2641 16.4359 14.3749 15.5506 13.7459C14.6653 13.1168 13.606 12.7792 12.52 12.7798H12.5L9.07 12.7898H9.05C6.86 12.7898 4.95 11.3098 4.4 9.18981C4.36577 9.00292 4.40375 8.81 4.50626 8.65003C4.60878 8.49005 4.76819 8.37495 4.95229 8.32798C5.13639 8.281 5.33146 8.30564 5.49809 8.39694C5.66473 8.48823 5.7905 8.63937 5.85 8.81981C6.03294 9.52947 6.44656 10.1582 7.02583 10.6071C7.60509 11.0561 8.31714 11.2997 9.05 11.2998H9.06L12.49 11.2898H12.52C13.9169 11.2897 15.2792 11.725 16.4173 12.5351C17.5553 13.3452 18.4127 14.4898 18.87 15.8098C18.9031 15.9023 18.9173 16.0005 18.9121 16.0986C18.9068 16.1967 18.882 16.2928 18.8392 16.3812C18.7963 16.4697 18.7363 16.5487 18.6627 16.6137C18.589 16.6787 18.5031 16.7284 18.41 16.7598C18.33 16.7698 18.25 16.7898 18.17 16.7898Z" fill="black"/>
</svg>
