<svg width="24" height="24" viewBox="0 0 24 24" fill="none" xmlns="http://www.w3.org/2000/svg">
<path d="M5.25 8.5C6.11195 8.5 6.9386 8.15759 7.5481 7.5481C8.15759 6.9386 8.5 6.11195 8.5 5.25C8.5 4.38805 8.15759 3.5614 7.5481 2.9519C6.9386 2.34241 6.11195 2 5.25 2C4.38805 2 3.5614 2.34241 2.9519 2.9519C2.34241 3.5614 2 4.38805 2 5.25C2 6.11195 2.34241 6.9386 2.9519 7.5481C3.5614 8.15759 4.38805 8.5 5.25 8.5ZM5 22C5.79565 22 6.55871 21.6839 7.12132 21.1213C7.68393 20.5587 8 19.7956 8 19C8 18.2044 7.68393 17.4413 7.12132 16.8787C6.55871 16.3161 5.79565 16 5 16C4.20435 16 3.44129 16.3161 2.87868 16.8787C2.31607 17.4413 2 18.2044 2 19C2 19.7956 2.31607 20.5587 2.87868 21.1213C3.44129 21.6839 4.20435 22 5 22ZM19 22C19.7956 22 20.5587 21.6839 21.1213 21.1213C21.6839 20.5587 22 19.7956 22 19C22 18.2044 21.6839 17.4413 21.1213 16.8787C20.5587 16.3161 19.7956 16 19 16C18.2044 16 17.4413 16.3161 16.8787 16.8787C16.3161 17.4413 16 18.2044 16 19C16 19.7956 16.3161 20.5587 16.8787 21.1213C17.4413 21.6839 18.2044 22 19 22Z" stroke="black" stroke-width="1.5" stroke-linecap="round" stroke-linejoin="round"/>
<g opacity="0.4">
<path d="M5 9V16M5.129 9C5.35503 9.87223 5.86493 10.6444 6.57831 11.1948C7.29169 11.7453 8.16796 12.0426 9.069 12.04L12.499 12.03C13.7436 12.0264 14.9584 12.4106 15.9746 13.1293C16.9907 13.8479 17.7577 14.8653 18.169 16.04" stroke="black" stroke-width="1.5" stroke-linecap="round" stroke-linejoin="round"/>
</g>
</svg>
