<svg width="24" height="24" viewBox="0 0 24 24" fill="none" xmlns="http://www.w3.org/2000/svg">
<path d="M9 6C7.9 6 7 6.9 7 8C7 9.1 7.9 10 9 10C10.1 10 11 9.1 11 8M2 12.98V15C2 20 4 22 9 22H15C20 22 22 20 22 15V10M13 2H9C4 2 2 4 2 9M18 8V2M18 2L20 4M18 2L16 4" stroke="black" stroke-width="1.5" stroke-linecap="round" stroke-linejoin="round"/>
<path d="M2.672 18.9491L7.602 15.6391C8.392 15.1091 9.532 15.1691 10.242 15.7791L10.572 16.0691C11.352 16.7391 12.612 16.7391 13.392 16.0691L17.552 12.4991C18.332 11.8291 19.592 11.8291 20.372 12.4991L22.002 13.8991" stroke="black" stroke-width="1.5" stroke-linecap="round" stroke-linejoin="round"/>
</svg>
