<svg width="24" height="24" viewBox="0 0 24 24" fill="none" xmlns="http://www.w3.org/2000/svg">
<path d="M21.999 13.8991V16.1891C21.999 19.8291 19.829 21.9991 16.189 21.9991H7.809C5.259 21.9991 3.419 20.9291 2.559 19.0291L2.669 18.9491L7.589 15.6491C8.389 15.1091 9.519 15.1691 10.229 15.7891L10.569 16.0691C11.349 16.7391 12.609 16.7391 13.389 16.0691L17.549 12.4991C18.329 11.8291 19.589 11.8291 20.369 12.4991L21.999 13.8991Z" fill="black"/>
<path opacity="0.4" d="M20.97 8H18.03C16.76 8 16 7.24 16 5.97V3.03C16 2.63 16.08 2.29 16.22 2H7.81C4.17 2 2 4.17 2 7.81V16.19C2 17.28 2.19 18.23 2.56 19.03L2.67 18.95L7.59 15.65C8.39 15.11 9.52 15.17 10.23 15.79L10.57 16.07C11.35 16.74 12.61 16.74 13.39 16.07L17.55 12.5C18.33 11.83 19.59 11.83 20.37 12.5L22 13.9V7.78C21.71 7.92 21.37 8 20.97 8Z" fill="black"/>
<path d="M9.001 10.381C9.63222 10.381 10.2376 10.1303 10.6839 9.68391C11.1303 9.23758 11.381 8.63222 11.381 8.001C11.381 7.36979 11.1303 6.76442 10.6839 6.31809C10.2376 5.87175 9.63222 5.621 9.001 5.621C8.36979 5.621 7.76442 5.87175 7.31809 6.31809C6.87175 6.76442 6.621 7.36979 6.621 8.001C6.621 8.63222 6.87175 9.23758 7.31809 9.68391C7.76442 10.1303 8.36979 10.381 9.001 10.381ZM20.97 1H18.03C16.76 1 16 1.76 16 3.03V5.97C16 7.24 16.76 8 18.03 8H20.97C22.24 8 23 7.24 23 5.97V3.03C23 1.76 22.24 1 20.97 1ZM21.19 4.31C21.1321 4.36747 21.0634 4.41296 20.9879 4.44385C20.9124 4.47474 20.8316 4.49042 20.75 4.49C20.6684 4.49042 20.5876 4.47474 20.5121 4.44385C20.4366 4.41296 20.3679 4.36747 20.31 4.31L20.13 4.13V6.37C20.13 6.72 19.85 7 19.5 7C19.15 7 18.87 6.72 18.87 6.37V4.13L18.69 4.31C18.45 4.55 18.05 4.55 17.81 4.31C17.6947 4.19257 17.6301 4.03457 17.6301 3.87C17.6301 3.70543 17.6947 3.54743 17.81 3.43L19.06 2.18C19.11 2.13 19.18 2.09 19.25 2.06C19.27 2.05 19.29 2.05 19.31 2.04C19.36 2.02 19.41 2.01 19.47 2.01H19.53C19.6 2.01 19.66 2.02 19.73 2.05H19.75C19.82 2.08 19.88 2.12 19.93 2.17C19.94 2.18 19.94 2.18 19.95 2.18L21.2 3.43C21.44 3.67 21.44 4.07 21.19 4.31Z" fill="black"/>
</svg>
