<svg width="24" height="24" viewBox="0 0 24 24" fill="none" xmlns="http://www.w3.org/2000/svg">
<path d="M9 10.75C7.48 10.75 6.25 9.52 6.25 8C6.25 6.48 7.48 5.25 9 5.25C10.52 5.25 11.75 6.48 11.75 8C11.75 9.52 10.52 10.75 9 10.75ZM9 6.75C8.66848 6.75 8.35054 6.8817 8.11612 7.11612C7.8817 7.35054 7.75 7.66848 7.75 8C7.75 8.33152 7.8817 8.64946 8.11612 8.88388C8.35054 9.1183 8.66848 9.25 9 9.25C9.33152 9.25 9.64946 9.1183 9.88388 8.88388C10.1183 8.64946 10.25 8.33152 10.25 8C10.25 7.66848 10.1183 7.35054 9.88388 7.11612C9.64946 6.8817 9.33152 6.75 9 6.75Z" fill="black"/>
<path d="M15 22.75H9C3.57 22.75 1.25 20.43 1.25 15V9C1.25 3.57 3.57 1.25 9 1.25H13C13.41 1.25 13.75 1.59 13.75 2C13.75 2.41 13.41 2.75 13 2.75H9C4.39 2.75 2.75 4.39 2.75 9V15C2.75 19.61 4.39 21.25 9 21.25H15C19.61 21.25 21.25 19.61 21.25 15V10C21.25 9.59 21.59 9.25 22 9.25C22.41 9.25 22.75 9.59 22.75 10V15C22.75 20.43 20.43 22.75 15 22.75Z" fill="black"/>
<path d="M18 8.75201C17.59 8.75201 17.25 8.41201 17.25 8.00201V2.00201C17.25 1.70201 17.43 1.42201 17.71 1.31201C17.99 1.20201 18.31 1.26201 18.53 1.47201L20.53 3.47201C20.82 3.76201 20.82 4.24201 20.53 4.53201C20.24 4.82201 19.76 4.82201 19.47 4.53201L18.75 3.81201V8.00201C18.75 8.41201 18.41 8.75201 18 8.75201Z" fill="black"/>
<path d="M16.001 4.75104C15.811 4.75104 15.621 4.68104 15.471 4.53104C15.3315 4.3899 15.2533 4.19947 15.2533 4.00104C15.2533 3.80261 15.3315 3.61218 15.471 3.47104L17.471 1.47104C17.761 1.18104 18.241 1.18104 18.531 1.47104C18.821 1.76104 18.821 2.24104 18.531 2.53104L16.531 4.53104C16.381 4.68104 16.191 4.75104 16.001 4.75104ZM2.67 19.699C2.51016 19.6979 2.35484 19.6458 2.22665 19.5504C2.09845 19.4549 2.00406 19.321 1.95721 19.1682C1.91036 19.0154 1.91349 18.8516 1.96615 18.7006C2.01881 18.5497 2.11825 18.4195 2.25 18.329L7.18 15.019C8.26 14.299 9.75 14.379 10.73 15.209L11.06 15.499C11.56 15.929 12.41 15.929 12.9 15.499L17.06 11.929C18.12 11.019 19.79 11.019 20.86 11.929L22.49 13.329C22.8 13.599 22.84 14.069 22.57 14.389C22.3 14.699 21.82 14.739 21.51 14.469L19.88 13.069C19.38 12.639 18.54 12.639 18.04 13.069L13.88 16.639C12.82 17.549 11.15 17.549 10.08 16.639L9.75 16.349C9.29 15.959 8.53 15.919 8.02 16.269L3.1 19.579C2.96 19.659 2.81 19.699 2.67 19.699Z" fill="black"/>
</svg>
