<svg width="24" height="24" viewBox="0 0 24 24" fill="none" xmlns="http://www.w3.org/2000/svg">
<path opacity="0.4" d="M12 22C17.523 22 22 17.523 22 12C22 6.477 17.523 2 12 2C6.477 2 2 6.477 2 12C2 17.523 6.477 22 12 22Z" fill="black"/>
<path d="M15.53 10.9701L12.53 7.97014C12.3889 7.83066 12.1984 7.75244 12 7.75244C11.8016 7.75244 11.6111 7.83066 11.47 7.97014L8.47 10.9701C8.18 11.2601 8.18 11.7401 8.47 12.0301C8.76 12.3201 9.24 12.3201 9.53 12.0301L11.25 10.3101V15.5001C11.25 15.9101 11.59 16.2501 12 16.2501C12.41 16.2501 12.75 15.9101 12.75 15.5001V10.3101L14.47 12.0301C14.62 12.1801 14.81 12.2501 15 12.2501C15.19 12.2501 15.38 12.1801 15.53 12.0301C15.82 11.7401 15.82 11.2601 15.53 10.9701Z" fill="black"/>
</svg>
