<svg width="24" height="24" viewBox="0 0 24 24" fill="none" xmlns="http://www.w3.org/2000/svg">
<path d="M19.92 15.8002C19.73 15.8002 19.54 15.7302 19.39 15.5802L12.87 9.06016C12.39 8.58016 11.61 8.58016 11.13 9.06016L4.61001 15.5802C4.32001 15.8702 3.84001 15.8702 3.55001 15.5802C3.41053 15.439 3.33231 15.2486 3.33231 15.0502C3.33231 14.8517 3.41053 14.6613 3.55001 14.5202L10.07 8.00016C10.5832 7.49087 11.277 7.20508 12 7.20508C12.723 7.20508 13.4168 7.49087 13.93 8.00016L20.45 14.5202C20.74 14.8102 20.74 15.2902 20.45 15.5802C20.3 15.7202 20.11 15.8002 19.92 15.8002Z" fill="black"/>
</svg>
