<svg width="24" height="24" viewBox="0 0 24 24" fill="none" xmlns="http://www.w3.org/2000/svg">
<path d="M21.03 22.0004H13.99C13.7911 22.0004 13.6003 21.9213 13.4597 21.7807C13.319 21.64 13.24 21.4493 13.24 21.2504C13.24 21.0514 13.319 20.8607 13.4597 20.72C13.6003 20.5794 13.7911 20.5004 13.99 20.5004H21.03C21.2289 20.5004 21.4197 20.5794 21.5603 20.72C21.701 20.8607 21.78 21.0514 21.78 21.2504C21.78 21.4493 21.701 21.64 21.5603 21.7807C21.4197 21.9213 21.2289 22.0004 21.03 22.0004ZM13.64 16.6904C14.03 17.0804 14.03 17.7104 13.64 18.1104L10.66 21.0904C10.1257 21.6215 9.41247 21.9342 8.65981 21.9675C7.90716 22.0008 7.16914 21.7522 6.59 21.2704C6.52 21.2104 6.46 21.1504 6.4 21.0904L5.53 20.2204L3.74 18.4304L2.88 17.5704C2.81 17.5004 2.75 17.4304 2.69 17.3604C2.21429 16.7836 1.97024 16.0505 2.00536 15.3037C2.04048 14.5569 2.35226 13.8499 2.88 13.3204L5.86 10.3404C5.95251 10.2477 6.0624 10.1741 6.18338 10.1239C6.30435 10.0737 6.43403 10.0479 6.565 10.0479C6.69597 10.0479 6.82565 10.0737 6.94662 10.1239C7.0676 10.1741 7.17749 10.2477 7.27 10.3404L13.64 16.6904ZM21.12 10.6414L16.12 15.6414C16.0275 15.7341 15.9176 15.8076 15.7966 15.8578C15.6757 15.908 15.546 15.9338 15.415 15.9338C15.284 15.9338 15.1543 15.908 15.0334 15.8578C14.9124 15.8076 14.8025 15.7341 14.71 15.6414L8.34 9.29136C7.95 8.90136 7.95 8.27136 8.34 7.87136L13.34 2.88136C13.9064 2.3193 14.672 2.00391 15.47 2.00391C16.268 2.00391 17.0336 2.3193 17.6 2.88136L21.12 6.39136C21.6819 6.95582 21.9974 7.71988 21.9974 8.51636C21.9974 9.31284 21.6819 10.0769 21.12 10.6414Z" fill="black"/>
</svg>
