<svg width="24" height="24" viewBox="0 0 24 24" fill="none" xmlns="http://www.w3.org/2000/svg">
<path d="M21.03 22H13.99C13.7911 22 13.6003 21.921 13.4597 21.7803C13.319 21.6397 13.24 21.4489 13.24 21.25C13.24 21.0511 13.319 20.8603 13.4597 20.7197C13.6003 20.579 13.7911 20.5 13.99 20.5H21.03C21.2289 20.5 21.4197 20.579 21.5603 20.7197C21.701 20.8603 21.78 21.0511 21.78 21.25C21.78 21.4489 21.701 21.6397 21.5603 21.7803C21.4197 21.921 21.2289 22 21.03 22Z" fill="black"/>
<path opacity="0.4" d="M15.41 16.3381L10.66 21.0881C10.1257 21.6192 9.41247 21.932 8.65981 21.9653C7.90716 21.9986 7.16914 21.75 6.59 21.2681C6.52 21.2081 6.46 21.1481 6.4 21.0881L5.53 20.2181L3.74 18.4281L2.88 17.5681C2.81 17.4981 2.75 17.4281 2.69 17.3581C2.21429 16.7814 1.97024 16.0482 2.00536 15.3015C2.04048 14.5547 2.35226 13.8477 2.88 13.3181L6.57 9.63812L7.63 8.57812L15.41 16.3381Z" fill="black"/>
<path d="M21.12 10.6414L15.41 16.3414L7.63 8.58136L13.34 2.88136C13.9064 2.3193 14.672 2.00391 15.47 2.00391C16.268 2.00391 17.0336 2.3193 17.6 2.88136L21.12 6.39136C21.6819 6.95582 21.9974 7.71988 21.9974 8.51636C21.9974 9.31284 21.6819 10.0769 21.12 10.6414Z" fill="black"/>
</svg>
