<svg width="24" height="24" viewBox="0 0 24 24" fill="none" xmlns="http://www.w3.org/2000/svg">
<path d="M9 21.9996H21M7.12 9.12959L14.87 16.8796M3.52 17.6596L9.17 11.9996M6.34 20.4896L12 14.8296M2.91 17.5796L6.42 21.0896C6.9825 21.6514 7.745 21.9669 8.54 21.9669C9.335 21.9669 10.0975 21.6514 10.66 21.0896L21.09 10.6596C21.6518 10.0971 21.9674 9.33459 21.9674 8.53959C21.9674 7.74458 21.6518 6.98209 21.09 6.41959L17.58 2.90959C17.0175 2.34778 16.255 2.03223 15.46 2.03223C14.665 2.03223 13.9025 2.34778 13.34 2.90959L2.91 13.3396C2.3482 13.9021 2.03264 14.6646 2.03264 15.4596C2.03264 16.2546 2.3482 17.0171 2.91 17.5796Z" stroke="black" stroke-width="1.5" stroke-linecap="round" stroke-linejoin="round"/>
</svg>
