<svg width="24" height="24" viewBox="0 0 24 24" fill="none" xmlns="http://www.w3.org/2000/svg">
<path d="M21 22.75H9C8.59 22.75 8.25 22.41 8.25 22C8.25 21.59 8.59 21.25 9 21.25H21C21.41 21.25 21.75 21.59 21.75 22C21.75 22.41 21.41 22.75 21 22.75Z" fill="black"/>
<path d="M8.53999 22.71C7.53999 22.71 6.58999 22.32 5.88999 21.61L2.37999 18.1C1.67872 17.3964 1.28494 16.4434 1.28494 15.45C1.28494 14.4566 1.67872 13.5036 2.37999 12.8L12.81 2.37C14.22 0.96 16.7 0.96 18.11 2.37L21.62 5.88C22.3213 6.58364 22.715 7.53657 22.715 8.53C22.715 9.52343 22.3213 10.4764 21.62 11.18L11.19 21.61C10.49 22.33 9.54999 22.71 8.53999 22.71ZM3.43999 17.05L6.94999 20.56C7.79999 21.41 9.28999 21.41 10.13 20.56L20.56 10.13C21.44 9.25 21.44 7.83 20.56 6.95L17.05 3.44C16.21 2.6 14.72 2.59 13.87 3.44L3.43999 13.87C2.55999 14.74 2.55999 16.17 3.43999 17.05Z" fill="black"/>
<path d="M14.87 17.6303C14.68 17.6303 14.49 17.5603 14.34 17.4103L6.59001 9.66031C6.45077 9.51905 6.37271 9.32866 6.37271 9.13031C6.37271 8.93196 6.45077 8.74158 6.59001 8.60031C6.88001 8.31031 7.36001 8.31031 7.65001 8.60031L15.4 16.3503C15.69 16.6403 15.69 17.1203 15.4 17.4103C15.25 17.5603 15.06 17.6303 14.87 17.6303Z" fill="black"/>
<path d="M3.521 18.4114C3.331 18.4114 3.141 18.3414 2.991 18.1914C2.85152 18.0503 2.7733 17.8598 2.7733 17.6614C2.7733 17.463 2.85152 17.2725 2.991 17.1314L8.651 11.4714C8.941 11.1814 9.421 11.1814 9.711 11.4714C10.001 11.7614 10.001 12.2414 9.711 12.5314L4.051 18.1914C3.901 18.3414 3.711 18.4114 3.521 18.4114ZM6.34 21.2404C6.15 21.2404 5.96 21.1704 5.81 21.0204C5.67052 20.8793 5.5923 20.6888 5.5923 20.4904C5.5923 20.292 5.67052 20.1015 5.81 19.9604L11.47 14.3004C11.76 14.0104 12.24 14.0104 12.53 14.3004C12.82 14.5904 12.82 15.0704 12.53 15.3604L6.87 21.0204C6.72948 21.1611 6.53885 21.2402 6.34 21.2404Z" fill="black"/>
</svg>
