<svg width="24" height="24" viewBox="0 0 24 24" fill="none" xmlns="http://www.w3.org/2000/svg">
<path d="M9 21.9996H21M2.91 17.5786L6.42 21.0886C6.9825 21.6504 7.745 21.966 8.54 21.966C9.335 21.966 10.0975 21.6504 10.66 21.0886L21.09 10.6586C21.6518 10.0961 21.9674 9.33361 21.9674 8.53861C21.9674 7.74361 21.6518 6.98111 21.09 6.41861L17.58 2.90861C17.0175 2.34681 16.255 2.03125 15.46 2.03125C14.665 2.03125 13.9025 2.34681 13.34 2.90861L2.91 13.3386C2.3482 13.9011 2.03264 14.6636 2.03264 15.4586C2.03264 16.2536 2.3482 17.0161 2.91 17.5786Z" stroke="black" stroke-width="1.5" stroke-linecap="round" stroke-linejoin="round"/>
<g opacity="0.4">
<path d="M7.12 9.12891L14.87 16.8789M3.52 17.6599L9.17 11.9999M6.34 20.4879L12 14.8279" stroke="black" stroke-width="1.5" stroke-linecap="round" stroke-linejoin="round"/>
</g>
</svg>
