<svg width="24" height="24" viewBox="0 0 24 24" fill="none" xmlns="http://www.w3.org/2000/svg">
<path d="M12 2C6.48 2 2 6.48 2 12C2 17.52 6.48 22 12 22C17.52 22 22 17.52 22 12C22 6.48 17.52 2 12 2ZM15.82 16.32C15.73 16.8 15.32 17.14 14.84 17.14H9.3C8.64 17.14 8.16 16.5 8.34 15.87L9.18 12.92L7.47 13.26C7.42 13.27 7.37 13.27 7.32 13.27C7.13614 13.2667 6.95993 13.1958 6.82502 13.0709C6.69011 12.9459 6.60596 12.7756 6.58864 12.5926C6.57132 12.4095 6.62205 12.2264 6.73114 12.0784C6.84022 11.9304 7.00001 11.8277 7.18 11.79L9.65 11.3L10.96 6.73C11.02 6.52 11.22 6.37 11.44 6.37H12.8C12.9539 6.36932 13.1058 6.40416 13.244 6.4718C13.3822 6.53944 13.5029 6.63806 13.5968 6.75998C13.6906 6.8819 13.7551 7.02383 13.7851 7.17473C13.8152 7.32563 13.81 7.48143 13.77 7.63L12.96 10.64L14.89 10.25C14.9885 10.2257 15.0909 10.2216 15.1911 10.238C15.2912 10.2545 15.387 10.291 15.4725 10.3455C15.5581 10.4 15.6318 10.4713 15.689 10.5551C15.7462 10.6389 15.7859 10.7334 15.8055 10.833C15.8251 10.9325 15.8244 11.035 15.8033 11.1343C15.7821 11.2335 15.7411 11.3275 15.6826 11.4104C15.6241 11.4933 15.5494 11.5635 15.463 11.6167C15.3767 11.6699 15.2804 11.7051 15.18 11.72L12.52 12.25L11.97 14.3H15C15.62 14.3 16.09 14.86 15.98 15.48L15.82 16.32Z" fill="black"/>
</svg>
