<svg width="24" height="24" viewBox="0 0 24 24" fill="none" xmlns="http://www.w3.org/2000/svg">
<path opacity="0.4" d="M12 22C17.523 22 22 17.523 22 12C22 6.477 17.523 2 12 2C6.477 2 2 6.477 2 12C2 17.523 6.477 22 12 22Z" fill="black"/>
<path d="M12.78 6.36012C12.9339 6.35944 13.0858 6.39428 13.224 6.46192C13.3622 6.52956 13.4829 6.62817 13.5768 6.75009C13.6706 6.87201 13.7351 7.01395 13.7651 7.16485C13.7952 7.31575 13.79 7.47155 13.75 7.62012L11.96 14.3001H14.99C15.61 14.3001 16.09 14.8601 15.97 15.4801L15.82 16.3201C15.73 16.8001 15.32 17.1401 14.84 17.1401H9.3C8.64 17.1401 8.16 16.5001 8.34 15.8701L10.95 6.73012C11.01 6.52012 11.21 6.37012 11.43 6.37012H12.78V6.36012Z" fill="black"/>
<path d="M7.32 13.2689C7.13614 13.2656 6.95993 13.1947 6.82502 13.0698C6.69011 12.9448 6.60596 12.7745 6.58864 12.5915C6.57132 12.4084 6.62205 12.2253 6.73113 12.0773C6.84022 11.9293 7.00001 11.8266 7.18 11.7889L14.88 10.2489C14.9785 10.2246 15.0809 10.2205 15.1811 10.2369C15.2812 10.2534 15.377 10.2899 15.4625 10.3444C15.5481 10.3989 15.6218 10.4702 15.679 10.554C15.7362 10.6378 15.7759 10.7323 15.7955 10.8319C15.8151 10.9314 15.8144 11.0339 15.7933 11.1332C15.7721 11.2324 15.7311 11.3264 15.6726 11.4093C15.6141 11.4922 15.5394 11.5624 15.453 11.6156C15.3667 11.6688 15.2704 11.704 15.17 11.7189L7.47 13.2589C7.42 13.2689 7.37 13.2689 7.32 13.2689Z" fill="black"/>
</svg>
