<svg width="24" height="24" viewBox="0 0 24 24" fill="none" xmlns="http://www.w3.org/2000/svg">
<path d="M15.67 17.8901H7.97C7.73 17.8901 7.51 17.7801 7.37 17.5901C7.29957 17.4972 7.25201 17.3891 7.23116 17.2744C7.21031 17.1598 7.21677 17.0418 7.25 16.9301L10.33 6.15011C10.3754 5.99432 10.4702 5.85747 10.6 5.76011C10.7298 5.66274 10.8877 5.61011 11.05 5.61011H14.09C14.32 5.61011 14.54 5.72011 14.69 5.90011C14.83 6.09011 14.88 6.33011 14.82 6.55011L12.95 13.5501H16.2C16.42 13.5501 16.63 13.6501 16.78 13.8201C16.92 13.9901 16.98 14.2201 16.94 14.4301L16.43 17.2701C16.34 17.6301 16.03 17.8901 15.67 17.8901ZM8.96 16.3901H15.04L15.28 15.0501H11.96C11.73 15.0501 11.51 14.9401 11.36 14.7601C11.2908 14.6685 11.2432 14.5625 11.2207 14.45C11.1982 14.3374 11.2014 14.2213 11.23 14.1101L13.1 7.11011H11.6L8.96 16.3901Z" fill="black"/>
<path d="M7.32 13.2689C7.13613 13.2656 6.95992 13.1947 6.82501 13.0698C6.6901 12.9448 6.60596 12.7745 6.58864 12.5915C6.57132 12.4084 6.62205 12.2253 6.73113 12.0773C6.84021 11.9293 7.00001 11.8266 7.18 11.7889L14.88 10.2489C14.9785 10.2246 15.0809 10.2205 15.1811 10.2369C15.2812 10.2534 15.3769 10.2899 15.4625 10.3444C15.5481 10.3989 15.6218 10.4702 15.679 10.554C15.7362 10.6378 15.7759 10.7323 15.7955 10.8319C15.8151 10.9314 15.8144 11.0339 15.7933 11.1332C15.7721 11.2324 15.7311 11.3264 15.6726 11.4093C15.6141 11.4922 15.5394 11.5624 15.453 11.6156C15.3667 11.6688 15.2704 11.704 15.17 11.7189L7.47 13.2589C7.42 13.2689 7.37 13.2689 7.32 13.2689Z" fill="black"/>
<path d="M12 22.75C6.07 22.75 1.25 17.93 1.25 12C1.25 6.07 6.07 1.25 12 1.25C17.93 1.25 22.75 6.07 22.75 12C22.75 17.93 17.93 22.75 12 22.75ZM12 2.75C6.9 2.75 2.75 6.9 2.75 12C2.75 17.1 6.9 21.25 12 21.25C17.1 21.25 21.25 17.1 21.25 12C21.25 6.9 17.1 2.75 12 2.75Z" fill="black"/>
</svg>
