<svg width="24" height="24" viewBox="0 0 24 24" fill="none" xmlns="http://www.w3.org/2000/svg">
<path d="M21.25 5.15V7.85C21.25 9.69 20.69 10.25 18.85 10.25H16.15C14.31 10.25 13.75 9.69 13.75 7.85V5.15C13.75 3.31 14.31 2.75 16.15 2.75H18.85C20.69 2.75 21.25 3.31 21.25 5.15ZM10.25 16.15V18.85C10.25 20.69 9.69 21.25 7.85 21.25H5.15C3.31 21.25 2.75 20.69 2.75 18.85V16.15C2.75 14.31 3.31 13.75 5.15 13.75H7.85C9.69 13.75 10.25 14.31 10.25 16.15Z" fill="black"/>
<path d="M16.15 11.751C16.2773 11.751 16.3994 11.8016 16.4894 11.8916C16.5794 11.9816 16.63 12.1037 16.63 12.231V13.621C16.63 15.901 15.9 16.631 13.62 16.631H12.23C12.1027 16.631 11.9806 16.5804 11.8906 16.4904C11.8006 16.4004 11.75 16.2783 11.75 16.151C11.75 13.491 10.51 12.251 7.85 12.251C7.7227 12.251 7.60061 12.2004 7.51059 12.1104C7.42057 12.0204 7.37 11.8983 7.37 11.771V10.381C7.37 8.101 8.1 7.371 10.38 7.371H11.77C11.8973 7.371 12.0194 7.42157 12.1094 7.51159C12.1994 7.60161 12.25 7.7237 12.25 7.851C12.25 10.511 13.49 11.751 16.15 11.751Z" fill="black"/>
</svg>
