<svg width="24" height="24" viewBox="0 0 24 24" fill="none" xmlns="http://www.w3.org/2000/svg">
<path opacity="0.4" d="M21.25 5.15V7.85C21.25 9.69 20.69 10.25 18.85 10.25H16.15C14.31 10.25 13.75 9.69 13.75 7.85V5.15C13.75 3.31 14.31 2.75 16.15 2.75H18.85C20.69 2.75 21.25 3.31 21.25 5.15ZM10.25 16.15V18.85C10.25 20.69 9.69 21.25 7.85 21.25H5.15C3.31 21.25 2.75 20.69 2.75 18.85V16.15C2.75 14.31 3.31 13.75 5.15 13.75H7.85C9.69 13.75 10.25 14.31 10.25 16.15Z" fill="black"/>
<path d="M16.63 11.751V13.621C16.63 15.901 15.9 16.631 13.62 16.631H11.75V16.151C11.75 13.491 10.51 12.251 7.85 12.251H7.37V10.381C7.37 8.101 8.1 7.371 10.38 7.371H12.25V7.851C12.25 10.511 13.49 11.751 16.15 11.751H16.63Z" fill="black"/>
</svg>
