<svg width="24" height="24" viewBox="0 0 24 24" fill="none" xmlns="http://www.w3.org/2000/svg">
<path d="M18.85 11.75H16.15C13.49 11.75 12.25 10.51 12.25 7.85V5.15C12.25 2.49 13.49 1.25 16.15 1.25H18.85C21.51 1.25 22.75 2.49 22.75 5.15V7.85C22.75 10.51 21.51 11.75 18.85 11.75ZM16.15 2.75C14.31 2.75 13.75 3.31 13.75 5.15V7.85C13.75 9.69 14.31 10.25 16.15 10.25H18.85C20.69 10.25 21.25 9.69 21.25 7.85V5.15C21.25 3.31 20.69 2.75 18.85 2.75H16.15ZM7.85 22.75H5.15C2.49 22.75 1.25 21.51 1.25 18.85V16.15C1.25 13.49 2.49 12.25 5.15 12.25H7.85C10.51 12.25 11.75 13.49 11.75 16.15V18.85C11.75 21.51 10.51 22.75 7.85 22.75ZM5.15 13.75C3.31 13.75 2.75 14.31 2.75 16.15V18.85C2.75 20.69 3.31 21.25 5.15 21.25H7.85C9.69 21.25 10.25 20.69 10.25 18.85V16.15C10.25 14.31 9.69 13.75 7.85 13.75H5.15Z" fill="black"/>
<path d="M13.621 18.131H11.001C10.591 18.131 10.251 17.791 10.251 17.381V16.151C10.251 14.311 9.691 13.751 7.851 13.751H6.621C6.211 13.751 5.871 13.411 5.871 13.001V10.381C5.871 7.261 7.261 5.871 10.381 5.871H13.001C13.411 5.871 13.751 6.211 13.751 6.621V7.851C13.751 9.691 14.311 10.251 16.151 10.251H17.381C17.791 10.251 18.131 10.591 18.131 11.001V13.621C18.131 16.741 16.741 18.131 13.621 18.131ZM11.751 16.631H13.621C15.901 16.631 16.631 15.901 16.631 13.621V11.751H16.151C13.491 11.751 12.251 10.511 12.251 7.851V7.371H10.381C8.101 7.371 7.371 8.101 7.371 10.381V12.251H7.851C10.511 12.251 11.751 13.491 11.751 16.151V16.631Z" fill="black"/>
</svg>
