<svg width="24" height="24" viewBox="0 0 24 24" fill="none" xmlns="http://www.w3.org/2000/svg">
<path d="M22 5.15V7.85C22 10.1 21.1 11 18.85 11H16.15C13.9 11 13 10.1 13 7.85V5.15C13 2.9 13.9 2 16.15 2H18.85C21.1 2 22 2.9 22 5.15ZM11 16.15V18.85C11 21.1 10.1 22 7.85 22H5.15C2.9 22 2 21.1 2 18.85V16.15C2 13.9 2.9 13 5.15 13H7.85C10.1 13 11 13.9 11 16.15Z" stroke="black" stroke-width="1.5" stroke-linecap="round" stroke-linejoin="round"/>
<path opacity="0.4" d="M17.38 11.001V13.621C17.38 16.311 16.31 17.381 13.62 17.381H11V16.151C11 13.901 10.1 13.001 7.85 13.001H6.62V10.381C6.62 7.691 7.69 6.621 10.38 6.621H13V7.851C13 10.101 13.9 11.001 16.15 11.001H17.38Z" stroke="black" stroke-width="1.5" stroke-linecap="round" stroke-linejoin="round"/>
</svg>
