<svg width="24" height="24" viewBox="0 0 24 24" fill="none" xmlns="http://www.w3.org/2000/svg">
<path d="M21.4 12.9501L18.62 14.3401C18.43 14.4401 18.2 14.4001 18.04 14.2501L16.17 12.3801C15.97 12.1801 15.97 11.8701 16.17 11.6701L18.07 9.77007C18.22 9.62007 18.46 9.58007 18.65 9.68007L21.4 11.0601C22.19 11.4401 22.19 12.5601 21.4 12.9501ZM16.3 8.49107C16.61 8.64107 16.67 9.05107 16.43 9.29107L14.76 10.9611L14.05 11.6711C13.85 11.8711 13.54 11.8711 13.34 11.6711L6.2 4.53207C5.801 4.13207 6.27 3.48207 6.78 3.73207L16.3 8.49107ZM2 20.1501V3.48007C2 3.04007 2.53 2.81007 2.85 3.12007L11.62 11.6301C11.83 11.8301 11.82 12.1601 11.61 12.3601L2.84 20.5201C2.76845 20.5864 2.67905 20.6304 2.58282 20.6466C2.48659 20.6627 2.38773 20.6504 2.29843 20.6111C2.20913 20.5717 2.13329 20.5071 2.08026 20.4252C2.02723 20.3433 1.99933 20.2476 2 20.1501ZM16.27 15.5191L6.88 20.2191C6.37 20.4691 5.9 19.8191 6.3 19.4191L13.35 12.3691C13.55 12.1691 13.86 12.1691 14.06 12.3691L16.41 14.7191C16.64 14.9591 16.57 15.3691 16.27 15.5191Z" fill="black"/>
</svg>
