<svg width="24" height="24" viewBox="0 0 24 24" fill="none" xmlns="http://www.w3.org/2000/svg">
<path d="M21.4 12.95L16.88 15.21L13.69 12.02L16.91 8.80005L21.4 11.05C22.19 11.44 22.19 12.56 21.4 12.95Z" stroke="black" stroke-width="1.5" stroke-miterlimit="10" stroke-linecap="round" stroke-linejoin="round"/>
<path d="M2 9.05805V3.06805C2 2.26805 2.83 1.75805 3.55 2.10805L16.92 8.79805L13.7 12.018L4.12 21.598L3.54 21.888C2.83 22.238 2 21.728 2 20.928V13.568M16.89 15.21L4.12 21.6L13.7 12.02M16.89 15.21L13.7 12.02M16.89 15.21L16.92 15.24M13.7 12.02L4.09 2.41005" stroke="black" stroke-width="1.5" stroke-miterlimit="10" stroke-linecap="round" stroke-linejoin="round"/>
</svg>
