<svg width="24" height="24" viewBox="0 0 24 24" fill="none" xmlns="http://www.w3.org/2000/svg">
<path d="M16.89 15.9589C16.7 15.9589 16.5 15.8789 16.36 15.7389L13.17 12.5489C13.0305 12.4078 12.9523 12.2173 12.9523 12.0189C12.9523 11.8205 13.0305 11.63 13.17 11.4889L16.39 8.26891C16.5025 8.15807 16.6467 8.08504 16.8026 8.05995C16.9586 8.03486 17.1184 8.05896 17.26 8.12891L21.75 10.3789C22.37 10.6789 22.76 11.2989 22.76 11.9989C22.76 12.6989 22.37 13.3189 21.75 13.6189L17.24 15.8789C17.1296 15.9281 17.0108 15.9552 16.89 15.9589ZM14.76 12.0189L17.03 14.2889L21.06 12.2689H21.07C21.22 12.1989 21.24 12.0689 21.24 11.9989C21.24 11.9289 21.22 11.7989 21.07 11.7289L17.06 9.71891L14.76 12.0189Z" fill="black"/>
<path d="M3.07 22.749C2.74 22.749 2.4 22.659 2.11 22.469C1.57 22.139 1.25 21.559 1.25 20.919V3.06002C1.25 2.43002 1.57 1.85002 2.11 1.51002C2.65 1.18002 3.31 1.14002 3.88 1.43002L17.25 8.12002C17.47 8.23002 17.62 8.43002 17.65 8.67002C17.68 8.91002 17.61 9.15002 17.44 9.32002L4.64 22.12C4.58 22.18 4.52 22.22 4.44 22.26L3.86 22.55C3.62 22.69 3.34 22.749 3.07 22.749ZM3.07 2.74902C3.01018 2.75206 2.95193 2.76919 2.9 2.79902C2.85286 2.8262 2.81401 2.86568 2.78758 2.91324C2.76116 2.9608 2.74817 3.01465 2.75 3.06902V20.929C2.75 21.089 2.84 21.169 2.9 21.199C2.96 21.239 3.07 21.279 3.22 21.209L3.68 20.979L15.65 9.01002L3.21 2.79002C3.16782 2.76426 3.11943 2.74944 3.07 2.74902Z" fill="black"/>
<path d="M4.12001 22.3501C3.89001 22.3501 3.66001 22.2401 3.51001 22.0401C3.29001 21.7401 3.33001 21.3301 3.59001 21.0701L13.17 11.4901C13.3106 11.3496 13.5013 11.2708 13.7 11.2708C13.8988 11.2708 14.0894 11.3496 14.23 11.4901L17.42 14.6801C17.59 14.8501 17.67 15.0901 17.63 15.3301C17.6106 15.4465 17.5644 15.5569 17.495 15.6523C17.4255 15.7478 17.3348 15.8258 17.23 15.8801L4.47001 22.2701C4.35998 22.3203 4.2409 22.3475 4.12001 22.3501ZM13.7 13.0801L7.93001 18.8501L15.62 15.0001L13.7 13.0801Z" fill="black"/>
<path d="M13.7 12.7711C13.51 12.7711 13.32 12.7011 13.17 12.5511L3.56 2.94107C3.42052 2.79994 3.3423 2.6095 3.3423 2.41107C3.3423 2.21264 3.42052 2.02221 3.56 1.88107C3.85 1.59107 4.33 1.59107 4.62 1.88107L14.23 11.4911C14.52 11.7811 14.52 12.2611 14.23 12.5511C14.09 12.7011 13.89 12.7711 13.7 12.7711ZM16.9 15.9801C16.72 15.9801 16.53 15.9101 16.39 15.7601L16.36 15.7301C16.2906 15.6601 16.2358 15.577 16.1987 15.4857C16.1617 15.3943 16.1431 15.2966 16.144 15.198C16.1449 15.0994 16.1654 15.002 16.2042 14.9114C16.243 14.8208 16.2993 14.7388 16.37 14.6701C16.67 14.3801 17.14 14.3801 17.43 14.6801C17.72 14.9701 17.73 15.4701 17.44 15.7601C17.28 15.9101 17.09 15.9801 16.9 15.9801Z" fill="black"/>
</svg>
