<svg width="24" height="24" viewBox="0 0 24 24" fill="none" xmlns="http://www.w3.org/2000/svg">
<path d="M17.02 2.88C16.54 2.4 15.58 2 14.9 2H9.1C8.42 2 7.46 2.4 6.98 2.88L2.88 6.98C2.4 7.46 2 8.42 2 9.1V14.9C2 15.58 2.4 16.54 2.88 17.02L4.41 18.55L18.55 4.41L17.02 2.88ZM21.12 6.979L19.61 5.469L5.47 19.609L6.98 21.119C7.46 21.599 8.42 21.999 9.1 21.999H14.9C15.58 21.999 16.54 21.599 17.02 21.119L21.12 17.019C21.6 16.539 22 15.579 22 14.899V9.099C22 8.419 21.6 7.459 21.12 6.979ZM2.49 20.47C2.2 20.76 2.2 21.24 2.49 21.53C2.64 21.68 2.83 21.75 3.02 21.75C3.21 21.75 3.4 21.68 3.55 21.53L5.47 19.61L4.41 18.55L2.49 20.47Z" fill="black"/>
<path d="M21.53 3.55004C21.82 3.26004 21.82 2.78004 21.53 2.49004C21.3889 2.35056 21.1984 2.27234 21 2.27234C20.8016 2.27234 20.6111 2.35056 20.47 2.49004L18.55 4.41004L19.61 5.47004L21.53 3.55004Z" fill="black"/>
</svg>
