<svg width="24" height="24" viewBox="0 0 24 24" fill="none" xmlns="http://www.w3.org/2000/svg">
<path opacity="0.4" d="M14.9 2H9.1C8.42 2 7.46 2.4 6.98 2.88L2.88 6.98C2.4 7.46 2 8.42 2 9.1V14.9C2 15.58 2.4 16.54 2.88 17.02L6.98 21.12C7.46 21.6 8.42 22 9.1 22H14.9C15.58 22 16.54 21.6 17.02 21.12L21.12 17.02C21.6 16.54 22 15.58 22 14.9V9.1C22 8.42 21.6 7.46 21.12 6.98L17.02 2.88C16.54 2.4 15.58 2 14.9 2Z" fill="black"/>
<path d="M3.02 21.75C2.83 21.75 2.64 21.68 2.49 21.53C2.35052 21.3888 2.2723 21.1984 2.2723 21C2.2723 20.8015 2.35052 20.6111 2.49 20.47L20.47 2.48996C20.76 2.19996 21.24 2.19996 21.53 2.48996C21.82 2.77996 21.82 3.25996 21.53 3.54996L3.55 21.53C3.48183 21.6015 3.39948 21.658 3.30822 21.6959C3.21695 21.7338 3.11879 21.7522 3.02 21.75Z" fill="black"/>
</svg>
