<svg width="24" height="24" viewBox="0 0 24 24" fill="none" xmlns="http://www.w3.org/2000/svg">
<path d="M14.9 22.75H9.1C8.21 22.75 7.07 22.28 6.45 21.65L2.35 17.55C1.72 16.92 1.25 15.78 1.25 14.9V9.1C1.25 8.21 1.72 7.07 2.35 6.45L6.45 2.35C7.08 1.72 8.22 1.25 9.1 1.25H14.9C15.79 1.25 16.93 1.72 17.55 2.35L21.65 6.45C22.28 7.08 22.75 8.22 22.75 9.1V14.9C22.75 15.79 22.28 16.93 21.65 17.55L17.55 21.65C16.92 22.28 15.79 22.75 14.9 22.75ZM9.1 2.75C8.61 2.75 7.85 3.06 7.51 3.41L3.41 7.51C3.07 7.86 2.75 8.61 2.75 9.1V14.9C2.75 15.39 3.06 16.15 3.41 16.49L7.51 20.59C7.86 20.93 8.61 21.25 9.1 21.25H14.9C15.39 21.25 16.15 20.94 16.49 20.59L20.59 16.49C20.93 16.14 21.25 15.39 21.25 14.9V9.1C21.25 8.61 20.94 7.85 20.59 7.51L16.49 3.41C16.14 3.07 15.39 2.75 14.9 2.75H9.1Z" fill="black"/>
<path d="M4.939 19.829C4.749 19.829 4.559 19.759 4.409 19.609C4.26952 19.4679 4.1913 19.2775 4.1913 19.079C4.1913 18.8806 4.26952 18.6902 4.409 18.549L18.549 4.40903C18.839 4.11903 19.319 4.11903 19.609 4.40903C19.899 4.69903 19.899 5.17903 19.609 5.46903L5.469 19.609C5.319 19.759 5.129 19.829 4.939 19.829Z" fill="black"/>
</svg>
