<svg width="24" height="24" viewBox="0 0 24 24" fill="none" xmlns="http://www.w3.org/2000/svg">
<path d="M20.49 6.70815L12.49 2.26815C12.342 2.18456 12.175 2.14062 12.005 2.14062C11.835 2.14063 11.668 2.18456 11.52 2.26815L3.52 6.70815C3.2 6.88815 3.01 7.21815 3.01 7.57815V16.3982C3.01 16.7582 3.21 17.0982 3.52 17.2682L11.54 21.7282C11.83 21.8882 12.18 21.8982 12.47 21.7482L16.5 19.7382C16.81 19.5782 17.18 19.5982 17.48 19.7882L19.47 21.0382C19.6214 21.1335 19.7956 21.1865 19.9745 21.1914C20.1534 21.1963 20.3303 21.1531 20.4867 21.0662C20.6431 20.9793 20.7733 20.8519 20.8636 20.6975C20.9539 20.543 21.001 20.3671 21 20.1882V17.5782C20.9997 17.401 20.9523 17.227 20.8627 17.0742C20.7731 16.9213 20.6445 16.795 20.49 16.7082L17.49 15.0482C17.342 14.9646 17.175 14.9206 17.005 14.9206C16.835 14.9206 16.668 14.9646 16.52 15.0482L12.49 17.2882C12.19 17.4582 11.82 17.4582 11.52 17.2882L7.52 15.0682C7.36498 14.982 7.2359 14.8558 7.1462 14.7028C7.0565 14.5498 7.00947 14.3755 7.01 14.1982V9.81815C7.01 9.45815 7.21 9.11815 7.52 8.94815L11.52 6.72816C11.82 6.55816 12.19 6.55816 12.49 6.72816L16.49 8.94815C16.81 9.12815 17 9.45815 17 9.81815V12.8782C17 13.6882 17.91 14.1582 18.57 13.6982L20.57 12.3082C20.84 12.1182 21 11.8182 21 11.4882V7.59816C21 7.22816 20.8 6.88815 20.49 6.70815Z" fill="black"/>
<path d="M15.86 10.4221V13.5721C15.86 13.9221 15.67 14.2421 15.36 14.4121L12.47 16.0221C12.3259 16.1009 12.1643 16.1422 12 16.1422C11.8357 16.1422 11.6741 16.1009 11.53 16.0221L8.64 14.4121C8.48878 14.33 8.36252 14.2087 8.27452 14.0608C8.18651 13.913 8.14004 13.7442 8.14 13.5721V10.4221C8.14 10.0721 8.33 9.75211 8.64 9.58211L11.53 7.97211C11.6741 7.89333 11.8357 7.85205 12 7.85205C12.1643 7.85205 12.3259 7.89333 12.47 7.97211L15.36 9.58211C15.67 9.75211 15.86 10.0721 15.86 10.4221Z" fill="black"/>
</svg>
