<svg width="24" height="24" viewBox="0 0 24 24" fill="none" xmlns="http://www.w3.org/2000/svg">
<path opacity="0.6" d="M21 7V12L17 14.78V9.23L21 7ZM12 17.56V22L3 17L7 14.77V14.78L12 17.56Z" fill="black"/>
<path d="M7 9.23V14.77L3 17V7L7 9.23Z" fill="black"/>
<path opacity="0.6" d="M12 2V6.44L7 9.22V9.23L3 7L12 2Z" fill="black"/>
<path d="M17 9.23V9.22L12 6.44V2L21 7L17 9.23ZM17 14.781V19.501L12 22.001V17.561L17 14.781Z" fill="black"/>
<path opacity="0.4" d="M21 17.0009V22.0009L17 19.5009V14.7809L21 17.0009ZM17 9.22092V14.7809L12 17.5609L7 14.7809V9.22092L12 6.44092L17 9.22092Z" fill="black"/>
</svg>
