<svg width="24" height="24" viewBox="0 0 24 24" fill="none" xmlns="http://www.w3.org/2000/svg">
<path d="M12 22.7502C11.8743 22.7512 11.7504 22.7203 11.64 22.6602L2.64 17.6602C2.52129 17.5958 2.42229 17.5004 2.35359 17.3842C2.2849 17.2679 2.24909 17.1352 2.25 17.0002V7.00018C2.25 6.73018 2.4 6.48018 2.64 6.34018L11.64 1.34018C11.87 1.21018 12.14 1.21018 12.37 1.34018L21.37 6.34018C21.61 6.47018 21.76 6.72018 21.76 7.00018V12.0002C21.76 12.2502 21.64 12.4802 21.44 12.6202L18.43 14.7102L21.38 16.3502C21.62 16.4802 21.77 16.7302 21.77 17.0102V22.0102C21.77 22.2802 21.62 22.5302 21.38 22.6702C21.2634 22.7359 21.1311 22.7688 20.9972 22.7652C20.8634 22.7617 20.733 22.7219 20.62 22.6502L16.98 20.3702L12.36 22.6802C12.23 22.7202 12.12 22.7502 12 22.7502ZM3.75 16.5602L12.02 21.1502L16.67 18.8302C16.9 18.7102 17.18 18.7302 17.4 18.8602L20.25 20.6402V17.4302L16.64 15.4202C16.5285 15.3584 16.4349 15.2689 16.3683 15.1602C16.3017 15.0516 16.2644 14.9275 16.26 14.8002C16.25 14.5402 16.37 14.2902 16.58 14.1502L20.26 11.6002V7.43018L12.01 2.85018L3.76 7.43018V16.5602H3.75Z" fill="black"/>
<path d="M12 18.3111C11.8743 18.3122 11.7504 18.2812 11.64 18.2211L6.64 15.4411C6.52129 15.3768 6.42229 15.2814 6.35359 15.1651C6.2849 15.0489 6.24909 14.9161 6.25 14.7811V9.22109C6.25 8.95109 6.4 8.70109 6.64 8.56109L11.64 5.78109C11.87 5.65109 12.14 5.65109 12.37 5.78109L17.37 8.56109C17.61 8.69109 17.76 8.94109 17.76 9.22109V14.7811C17.76 15.0511 17.61 15.3011 17.37 15.4411L12.37 18.2211C12.25 18.2711 12.13 18.3111 12 18.3111ZM7.75 14.3411L12 16.7011L16.25 14.3411V9.67109L12 7.30109L7.75 9.66109V14.3411Z" fill="black"/>
<path d="M7 9.982C6.88 9.982 6.75 9.952 6.64 9.892L2.64 7.662C2.47068 7.56292 2.34693 7.40144 2.29528 7.21219C2.24362 7.02294 2.26817 6.82098 2.36366 6.64962C2.45915 6.47825 2.61799 6.35112 2.80611 6.29549C2.99423 6.23985 3.19666 6.26014 3.37 6.352L7.37 8.582C7.73 8.782 7.86 9.242 7.66 9.602C7.51 9.842 7.26 9.982 7 9.982ZM3 17.75C2.83321 17.7505 2.67099 17.6955 2.53879 17.5938C2.40659 17.4922 2.3119 17.3495 2.26956 17.1881C2.22723 17.0268 2.23965 16.856 2.30489 16.7025C2.37012 16.549 2.48447 16.4215 2.63 16.34L6.63 14.11C6.80333 14.0181 7.00576 13.9979 7.19388 14.0535C7.382 14.1091 7.54084 14.2363 7.63633 14.4076C7.73182 14.579 7.75637 14.7809 7.70472 14.9702C7.65306 15.1594 7.52931 15.3209 7.36 15.42L3.36 17.65C3.25 17.72 3.12 17.75 3 17.75ZM17 9.98C16.8332 9.98046 16.671 9.92554 16.5388 9.82385C16.4066 9.72216 16.3119 9.57945 16.2696 9.41813C16.2272 9.2568 16.2397 9.08599 16.3049 8.93249C16.3701 8.77899 16.4845 8.65149 16.63 8.57L20.63 6.34C20.8033 6.24814 21.0058 6.22785 21.1939 6.28349C21.382 6.33912 21.5408 6.46625 21.6363 6.63762C21.7318 6.80898 21.7564 7.01094 21.7047 7.20019C21.6531 7.38944 21.5293 7.55092 21.36 7.65L17.36 9.88C17.25 9.95 17.13 9.98 17 9.98ZM12 6.75C11.59 6.75 11.25 6.41 11.25 6V2C11.25 1.59 11.59 1.25 12 1.25C12.41 1.25 12.75 1.59 12.75 2V6C12.75 6.41 12.41 6.75 12 6.75ZM12 22.75C11.59 22.75 11.25 22.41 11.25 22V18C11.25 17.59 11.59 17.25 12 17.25C12.41 17.25 12.75 17.59 12.75 18V22C12.75 22.41 12.41 22.75 12 22.75ZM17.75 15H16.25V20H17.75V15Z" fill="black"/>
</svg>
