<svg width="24" height="24" viewBox="0 0 24 24" fill="none" xmlns="http://www.w3.org/2000/svg">
<path opacity="0.4" d="M22 7.81V16.18C22 19.82 19.83 21.99 16.19 21.99H7.81C4.17 22 2 19.83 2 16.19V7.81C2 4.17 4.17 2 7.81 2H16.18C19.83 2 22 4.17 22 7.81Z" fill="black"/>
<path d="M12.53 5.46983L16.82 9.75983C17.11 10.0498 17.11 10.5298 16.82 10.8198C16.53 11.1098 16.05 11.1098 15.76 10.8198L12.75 7.80983V17.9998C12.75 18.4098 12.41 18.7498 12 18.7498C11.59 18.7498 11.25 18.4098 11.25 17.9998V7.80983L8.24 10.8198C7.95 11.1098 7.47 11.1098 7.18 10.8198C7.10998 10.7505 7.05446 10.668 7.01669 10.577C6.97892 10.486 6.95965 10.3884 6.96 10.2898C6.96 10.0998 7.04 9.89983 7.18 9.75983L11.47 5.46983C11.6106 5.32938 11.8012 5.25049 12 5.25049C12.1988 5.25049 12.3894 5.32938 12.53 5.46983Z" fill="black"/>
</svg>
