<svg width="24" height="24" viewBox="0 0 24 24" fill="none" xmlns="http://www.w3.org/2000/svg">
<path d="M18 6.34021C17.86 6.34021 17.42 6.37021 17.42 6.79021C17.42 7.08021 17.64 7.25021 18 7.25021C18.36 7.25021 18.58 7.08021 18.58 6.79021C18.58 6.46021 18.28 6.34021 18 6.34021ZM18 5.51221C18.27 5.51221 18.44 5.36221 18.44 5.13221C18.44 4.85221 18.21 4.76221 18 4.76221C17.79 4.76221 17.56 4.86221 17.56 5.13221C17.56 5.36221 17.73 5.51221 18 5.51221Z" fill="black"/>
<path d="M18 2C16.9983 1.99908 16.0329 2.37499 15.2955 3.05305C14.5582 3.73111 14.1028 4.66171 14.02 5.66C14 5.77 14 5.89 14 6C14 8.21 15.79 10 18 10C18.35 10 18.68 9.96 19 9.87C19.9415 9.62588 20.7618 9.04698 21.3073 8.24166C21.8528 7.43635 22.086 6.45983 21.9634 5.49492C21.8408 4.53001 21.3708 3.64287 20.6412 2.99956C19.9117 2.35625 18.9727 2.00089 18 2ZM18 8.2C17.01 8.2 16.4 7.7 16.4 6.89C16.4 6.5 16.58 6.15 16.9 5.91C16.66 5.7 16.53 5.41 16.53 5.08C16.53 4.31 17.12 3.8 17.99 3.8C18.86 3.8 19.45 4.32 19.45 5.08C19.45 5.41 19.33 5.7 19.08 5.91C19.41 6.14 19.59 6.49 19.59 6.89C19.6 7.7 18.99 8.2 18 8.2Z" fill="black"/>
<path d="M18 11.498C16.8929 11.5021 15.811 11.1671 14.9 10.538C14.8851 10.5268 14.8675 10.5201 14.849 10.5184C14.8305 10.5167 14.8119 10.5202 14.7953 10.5285C14.7787 10.5369 14.7647 10.5496 14.7549 10.5654C14.7452 10.5812 14.74 10.5994 14.74 10.618L14.75 15.438C14.75 15.6369 14.671 15.8277 14.5303 15.9683C14.3897 16.109 14.1989 16.188 14 16.188C13.8011 16.188 13.6103 16.109 13.4697 15.9683C13.329 15.8277 13.25 15.6369 13.25 15.438V10.498C13.25 10.168 13.47 9.88799 13.77 9.78799C13.85 9.75799 13.9 9.64799 13.84 9.58799C12.9766 8.59511 12.5007 7.32381 12.5 6.00799C12.5 5.83799 12.51 5.65799 12.53 5.48799C12.53 5.44799 12.54 5.41799 12.54 5.37799C12.5547 5.26756 12.5347 5.1553 12.4827 5.05675C12.4307 4.95821 12.3494 4.87826 12.25 4.82799L11.35 4.39799C11.0837 4.27445 10.7936 4.21045 10.5 4.21045C10.2064 4.21045 9.91634 4.27445 9.65 4.39799L3.15 7.45799C2.45 7.78799 2 8.48799 2 9.26799V16.728C2 17.508 2.45 18.208 3.15 18.538L9.65 21.598C10.19 21.848 10.81 21.848 11.35 21.598L17.85 18.538C18.55 18.208 19 17.508 19 16.728V12.018C19 11.708 18.71 11.468 18.4 11.488C18.27 11.498 18.14 11.498 18 11.498ZM11.75 13.498C11.75 15.018 10.52 16.248 9 16.248C7.48 16.248 6.25 15.018 6.25 13.498V10.498C6.25 10.088 6.59 9.74799 7 9.74799C7.41 9.74799 7.75 10.088 7.75 10.498V13.498C7.75 13.8295 7.8817 14.1475 8.11612 14.3819C8.35054 14.6163 8.66848 14.748 9 14.748C9.33152 14.748 9.64946 14.6163 9.88388 14.3819C10.1183 14.1475 10.25 13.8295 10.25 13.498V10.498C10.25 10.088 10.59 9.74799 11 9.74799C11.41 9.74799 11.75 10.088 11.75 10.498V13.498Z" fill="black"/>
</svg>
