<svg width="24" height="24" viewBox="0 0 24 24" fill="none" xmlns="http://www.w3.org/2000/svg">
<path d="M2 10.9902V9.26018C2 8.48018 2.45 7.78018 3.15 7.45018L9.65 4.39018C9.91634 4.26664 10.2064 4.20264 10.5 4.20264C10.7936 4.20264 11.0837 4.26664 11.35 4.39018L14.02 5.65018C14 5.77018 14 5.89018 14 6.00018C14 8.21018 15.79 10.0002 18 10.0002C18.35 10.0002 18.68 9.96018 19 9.87018V16.7302C19 17.5102 18.55 18.2102 17.85 18.5402L11.35 21.6002C10.81 21.8502 10.19 21.8502 9.65 21.6002L3.15 18.5402C2.45 18.2102 2 17.5102 2 16.7302V15.4402" stroke="black" stroke-width="1.5" stroke-miterlimit="10" stroke-linecap="round" stroke-linejoin="round"/>
<path d="M7 10.5V13.5C7 14.6 7.9 15.5 9 15.5C10.1 15.5 11 14.6 11 13.5V10.5M14 10.5V15.44" stroke="black" stroke-width="1.5" stroke-miterlimit="10" stroke-linecap="round"/>
<path d="M22 6C22 7.86 20.73 9.43 19 9.87C18.68 9.96 18.35 10 18 10C15.79 10 14 8.21 14 6C14 5.89 14 5.77 14.02 5.66C14.1028 4.66171 14.5582 3.73111 15.2955 3.05305C16.0329 2.37499 16.9983 1.99908 18 2C20.21 2 22 3.79 22 6Z" stroke="black" stroke-width="1.5" stroke-miterlimit="10"/>
<path d="M19.09 5.9098C19.33 5.6998 19.46 5.4198 19.46 5.0798C19.46 4.3098 18.88 3.7998 18 3.7998C17.12 3.7998 16.54 4.3198 16.54 5.0798C16.54 5.4098 16.67 5.6998 16.91 5.9098C16.59 6.1498 16.41 6.4998 16.41 6.8898C16.41 7.6998 17.02 8.1998 18.01 8.1998C19 8.1998 19.61 7.6998 19.61 6.8898C19.6086 6.69666 19.5606 6.50672 19.4701 6.3361C19.3795 6.16549 19.2491 6.01925 19.09 5.9098ZM18 5.5098C17.73 5.5098 17.56 5.3598 17.56 5.1298C17.56 4.8498 17.79 4.7598 18 4.7598C18.21 4.7598 18.44 4.8598 18.44 5.1298C18.44 5.3598 18.27 5.5098 18 5.5098ZM18 6.3398C18.28 6.3398 18.58 6.4598 18.58 6.7898C18.58 7.0798 18.36 7.2498 18 7.2498C17.64 7.2498 17.42 7.0798 17.42 6.7898C17.42 6.3798 17.86 6.3398 18 6.3398Z" fill="black"/>
</svg>
