<svg width="24" height="24" viewBox="0 0 24 24" fill="none" xmlns="http://www.w3.org/2000/svg">
<path opacity="0.4" d="M19 9.86799V16.728C19 17.508 18.55 18.208 17.85 18.538L11.35 21.598C10.81 21.848 10.19 21.848 9.65 21.598L3.15 18.538C2.45 18.208 2 17.508 2 16.728V9.26799C2 8.48799 2.45 7.78799 3.15 7.45799L9.65 4.39799C9.91634 4.27445 10.2064 4.21045 10.5 4.21045C10.7936 4.21045 11.0837 4.27445 11.35 4.39799L14.02 5.65799C14 5.76799 14 5.88799 14 5.99799C14 8.20799 15.79 9.99799 18 9.99799C18.35 9.99799 18.68 9.95799 19 9.86799Z" fill="black"/>
<path d="M9 16.2502C7.48 16.2502 6.25 15.0202 6.25 13.5002V10.5002C6.25 10.0902 6.59 9.75021 7 9.75021C7.41 9.75021 7.75 10.0902 7.75 10.5002V13.5002C7.75 13.8317 7.8817 14.1497 8.11612 14.3841C8.35054 14.6185 8.66848 14.7502 9 14.7502C9.33152 14.7502 9.64946 14.6185 9.88388 14.3841C10.1183 14.1497 10.25 13.8317 10.25 13.5002V10.5002C10.25 10.0902 10.59 9.75021 11 9.75021C11.41 9.75021 11.75 10.0902 11.75 10.5002V13.5002C11.75 15.0202 10.52 16.2502 9 16.2502ZM14 16.1902C13.59 16.1902 13.25 15.8502 13.25 15.4402V10.5002C13.25 10.0902 13.59 9.75021 14 9.75021C14.41 9.75021 14.75 10.0902 14.75 10.5002V15.4402C14.75 15.8602 14.41 16.1902 14 16.1902ZM18 6.34021C17.86 6.34021 17.42 6.37021 17.42 6.79021C17.42 7.08021 17.64 7.25021 18 7.25021C18.36 7.25021 18.58 7.08021 18.58 6.79021C18.58 6.46021 18.28 6.34021 18 6.34021ZM18 5.51221C18.27 5.51221 18.44 5.36221 18.44 5.13221C18.44 4.85221 18.21 4.76221 18 4.76221C17.79 4.76221 17.56 4.86221 17.56 5.13221C17.56 5.36221 17.73 5.51221 18 5.51221Z" fill="black"/>
<path d="M18 2C16.9983 1.99908 16.0329 2.37499 15.2955 3.05305C14.5582 3.73111 14.1028 4.66171 14.02 5.66C14 5.77 14 5.89 14 6C14 8.21 15.79 10 18 10C18.35 10 18.68 9.96 19 9.87C19.9415 9.62588 20.7618 9.04698 21.3073 8.24166C21.8528 7.43635 22.086 6.45983 21.9634 5.49492C21.8408 4.53001 21.3708 3.64287 20.6412 2.99956C19.9117 2.35625 18.9727 2.00089 18 2ZM18 8.2C17.01 8.2 16.4 7.7 16.4 6.89C16.4 6.5 16.58 6.15 16.9 5.91C16.66 5.7 16.53 5.41 16.53 5.08C16.53 4.31 17.12 3.8 17.99 3.8C18.86 3.8 19.45 4.32 19.45 5.08C19.45 5.41 19.33 5.7 19.08 5.91C19.41 6.14 19.59 6.49 19.59 6.89C19.6 7.7 18.99 8.2 18 8.2Z" fill="black"/>
</svg>
