<svg width="24" height="24" viewBox="0 0 24 24" fill="none" xmlns="http://www.w3.org/2000/svg">
<path d="M19 9.9V16.8C19 17.6 18.6 18.3 17.9 18.6L11.4 21.7C10.9 21.9 10.2 21.9 9.70001 21.7L3.20001 18.6C2.50001 18.3 2.10001 17.6 2.10001 16.8V9.3C2.10001 8.5 2.50001 7.8 3.20001 7.5L9.70001 4.4C10.2 4.2 10.9 4.2 11.4 4.4L14 5.7V6C14 8.2 15.8 10 18 10C18.4 10 18.7 10 19 9.9Z" stroke="black" stroke-width="1.5" stroke-miterlimit="10" stroke-linejoin="round"/>
<path d="M7 10.5V13.5C7 14.6 7.9 15.5 9 15.5C10.1 15.5 11 14.6 11 13.5V10.5M14 10.5V15.4" stroke="black" stroke-width="1.5" stroke-miterlimit="10" stroke-linecap="round"/>
<path d="M22 6C22 7.9 20.7 9.4 19 9.9C18.7 10 18.4 10 18 10C15.8 10 14 8.2 14 6V5.7C14.2 3.7 15.9 2 18 2C20.2 2 22 3.8 22 6Z" stroke="black" stroke-width="1.5" stroke-miterlimit="10"/>
<path d="M19.1 5.8998C19.3 5.6998 19.5 5.3998 19.5 5.0998C19.5 4.2998 18.9 3.7998 18 3.7998C17.1 3.7998 16.5 4.2998 16.5 5.0998C16.5 5.3998 16.6 5.6998 16.9 5.8998C16.6 6.0998 16.4 6.4998 16.4 6.8998C16.4 7.6998 17 8.1998 18 8.1998C19 8.1998 19.6 7.6998 19.6 6.8998C19.6 6.4998 19.4 6.0998 19.1 5.8998ZM18 5.4998C17.7 5.4998 17.6 5.3998 17.6 5.0998C17.6 4.7998 17.8 4.6998 18 4.6998C18.2 4.6998 18.4 4.7998 18.4 5.0998C18.4 5.3998 18.3 5.4998 18 5.4998ZM18 6.2998C18.3 6.2998 18.6 6.3998 18.6 6.7998C18.6 7.0998 18.4 7.2998 18 7.2998C17.6 7.2998 17.4 7.0998 17.4 6.7998C17.4 6.3998 17.9 6.2998 18 6.2998Z" fill="black"/>
</svg>
