<svg width="24" height="24" viewBox="0 0 24 24" fill="none" xmlns="http://www.w3.org/2000/svg">
<path d="M10.5 22.5402C10.1 22.5402 9.70999 22.4502 9.33999 22.2802L2.83999 19.2202C2.36828 18.9968 1.9695 18.6444 1.68987 18.2037C1.41023 17.763 1.26119 17.2521 1.25999 16.7302V9.27019C1.25999 8.21019 1.87999 7.23019 2.83999 6.78019L9.33999 3.72019C10.08 3.37019 10.93 3.38019 11.67 3.72019L14.34 4.98019C14.65 5.13019 14.82 5.46019 14.76 5.79019C14.75 5.86019 14.75 5.93019 14.75 6.00019C14.7512 6.49472 14.865 6.98249 15.0828 7.42647C15.3006 7.87046 15.6166 8.259 16.007 8.56262C16.3974 8.86623 16.8517 9.07694 17.3357 9.17874C17.8196 9.28055 18.3204 9.27079 18.8 9.15019C18.9118 9.11693 19.0298 9.11031 19.1447 9.13087C19.2595 9.15143 19.3679 9.19859 19.4612 9.26858C19.5545 9.33856 19.6302 9.42943 19.682 9.5339C19.7339 9.63837 19.7606 9.75354 19.76 9.87019V16.7302C19.76 17.7902 19.14 18.7702 18.18 19.2202L11.68 22.2802C11.3 22.4502 10.9 22.5402 10.5 22.5402ZM10.5 4.96019C10.32 4.96019 10.13 5.00019 9.95999 5.08019L3.45999 8.14019C3.01999 8.35019 2.73999 8.78019 2.73999 9.27019V16.7302C2.73999 17.2202 3.01999 17.6502 3.45999 17.8602L9.95999 20.9202C10.3 21.0702 10.69 21.0802 11.03 20.9202L17.53 17.8602C17.97 17.6502 18.25 17.2202 18.25 16.7302V10.7402C18.17 10.7402 18.08 10.7502 18 10.7502C15.42 10.7502 13.32 8.69019 13.25 6.13019L11.03 5.08019C10.86 5.00019 10.68 4.96019 10.5 4.96019Z" fill="black"/>
<path d="M9 16.25C7.48 16.25 6.25 15.02 6.25 13.5V10.5C6.25 10.09 6.59 9.75 7 9.75C7.41 9.75 7.75 10.09 7.75 10.5V13.5C7.75 13.8315 7.8817 14.1495 8.11612 14.3839C8.35054 14.6183 8.66848 14.75 9 14.75C9.33152 14.75 9.64946 14.6183 9.88388 14.3839C10.1183 14.1495 10.25 13.8315 10.25 13.5V10.5C10.25 10.09 10.59 9.75 11 9.75C11.41 9.75 11.75 10.09 11.75 10.5V13.5C11.75 15.02 10.52 16.25 9 16.25ZM14 16.19C13.59 16.19 13.25 15.85 13.25 15.44V10.5C13.25 10.09 13.59 9.75 14 9.75C14.41 9.75 14.75 10.09 14.75 10.5V15.44C14.75 15.86 14.41 16.19 14 16.19ZM18 10.75C15.38 10.75 13.25 8.62 13.25 6C13.25 5.85 13.25 5.68 13.28 5.53C13.48 3.12 15.51 1.25 18 1.25C19.2359 1.28587 20.4092 1.80204 21.2707 2.68893C22.1322 3.57581 22.6141 4.76356 22.6141 6C22.6141 7.23644 22.1322 8.42419 21.2707 9.31107C20.4092 10.198 19.2359 10.7141 18 10.75ZM18 2.75C16.3 2.75 14.91 4.03 14.77 5.72C14.75 5.86 14.75 5.93 14.75 6C14.7512 6.49453 14.865 6.9823 15.0828 7.42628C15.3006 7.87027 15.6166 8.25882 16.007 8.56243C16.3974 8.86604 16.8517 9.07675 17.3357 9.17855C17.8196 9.28036 18.3204 9.2706 18.8 9.15C19.5013 8.97367 20.1235 8.56778 20.5675 7.99695C21.0115 7.42612 21.2517 6.72316 21.25 6C21.25 4.21 19.79 2.75 18 2.75Z" fill="black"/>
<path d="M19.09 5.9098C19.33 5.6998 19.46 5.4198 19.46 5.0798C19.46 4.3098 18.88 3.7998 18 3.7998C17.12 3.7998 16.54 4.3198 16.54 5.0798C16.54 5.4098 16.67 5.6998 16.91 5.9098C16.59 6.1498 16.41 6.4998 16.41 6.8898C16.41 7.6998 17.02 8.1998 18.01 8.1998C19 8.1998 19.61 7.6998 19.61 6.8898C19.6086 6.69666 19.5606 6.50672 19.4701 6.3361C19.3795 6.16549 19.2491 6.01925 19.09 5.9098ZM18 5.5098C17.73 5.5098 17.56 5.3598 17.56 5.1298C17.56 4.8498 17.79 4.7598 18 4.7598C18.21 4.7598 18.44 4.8598 18.44 5.1298C18.44 5.3598 18.27 5.5098 18 5.5098ZM18 6.3398C18.28 6.3398 18.58 6.4598 18.58 6.7898C18.58 7.0798 18.36 7.2498 18 7.2498C17.64 7.2498 17.42 7.0798 17.42 6.7898C17.42 6.3798 17.86 6.3398 18 6.3398Z" fill="black"/>
</svg>
