<svg width="24" height="24" viewBox="0 0 24 24" fill="none" xmlns="http://www.w3.org/2000/svg">
<path d="M20.89 10.53C20.48 10.53 20.14 10.19 20.14 9.78001V6.91001L12 2.84001L3.86 6.91001V9.78001C3.86 10.19 3.52 10.53 3.11 10.53C2.7 10.53 2.36 10.19 2.36 9.78001V6.45001C2.36 6.17001 2.52 5.91001 2.78 5.78001L11.67 1.34001C11.88 1.23001 12.13 1.23001 12.34 1.34001L21.23 5.78001C21.48 5.91001 21.65 6.17001 21.65 6.45001V9.78001C21.6448 9.97902 21.5628 10.1683 21.4211 10.3081C21.2794 10.448 21.0891 10.5275 20.89 10.53ZM12 22.75C11.8852 22.7497 11.7722 22.7222 11.67 22.67L2.78 18.23C2.65595 18.1667 2.55138 18.071 2.47742 17.953C2.40346 17.8351 2.36288 17.6992 2.36 17.56V14.23C2.36 13.82 2.7 13.48 3.11 13.48C3.52 13.48 3.86 13.82 3.86 14.23V17.1L12 21.17L20.14 17.1V14.23C20.14 13.82 20.48 13.48 20.89 13.48C21.3 13.48 21.64 13.82 21.64 14.23V17.56C21.64 17.84 21.48 18.1 21.22 18.23L12.33 22.67C12.2278 22.7222 12.1148 22.7497 12 22.75Z" fill="black"/>
<path d="M16.44 11.999C16.44 9.54901 14.45 7.55901 12 7.55901C9.55 7.55901 7.56 9.54901 7.56 11.999C7.56 14.199 9.17 16.019 11.27 16.369C11.27 16.399 11.26 16.419 11.26 16.439V21.999C11.26 22.409 11.6 22.749 12.01 22.749C12.42 22.749 12.76 22.409 12.76 21.999V16.439C12.76 16.409 12.75 16.389 12.75 16.369C13.7823 16.1941 14.7193 15.6593 15.3947 14.8593C16.0702 14.0593 16.4405 13.046 16.44 11.999Z" fill="black"/>
</svg>
