<svg width="24" height="24" viewBox="0 0 24 24" fill="none" xmlns="http://www.w3.org/2000/svg">
<path d="M8.99 3.5L12 2L20.89 6.44V9.78M3.11 9.781V6.441L4.95 5.531M3.11 14.219V17.559L12 21.999L20.89 17.559V14.219M12 22.001V16.441" stroke="black" stroke-width="1.5" stroke-miterlimit="10" stroke-linecap="round" stroke-linejoin="round"/>
<path d="M12 16.439C13.1776 16.439 14.3069 15.9712 15.1396 15.1386C15.9722 14.3059 16.44 13.1766 16.44 11.999C16.44 10.8214 15.9722 9.69211 15.1396 8.85945C14.3069 8.02679 13.1776 7.55901 12 7.55901C10.8224 7.55901 9.69311 8.02679 8.86045 8.85945C8.02778 9.69211 7.56 10.8214 7.56 11.999C7.56 13.1766 8.02778 14.3059 8.86045 15.1386C9.69311 15.9712 10.8224 16.439 12 16.439Z" stroke="black" stroke-width="1.5" stroke-miterlimit="10"/>
</svg>
