<svg width="24" height="24" viewBox="0 0 24 24" fill="none" xmlns="http://www.w3.org/2000/svg">
<path d="M3.1 9.8V6.4L12 2L20.9 6.4V9.8M3.1 14.2V17.6L12 22M12 22L20.9 17.6V14.2M12 22V16.4" stroke="black" stroke-width="1.5" stroke-miterlimit="10" stroke-linecap="round" stroke-linejoin="round"/>
<path d="M12 16.4C13.167 16.4 14.2861 15.9364 15.1113 15.1113C15.9364 14.2861 16.4 13.167 16.4 12C16.4 10.8331 15.9364 9.7139 15.1113 8.88874C14.2861 8.06358 13.167 7.60001 12 7.60001C10.833 7.60001 9.71389 8.06358 8.88873 8.88874C8.06357 9.7139 7.6 10.8331 7.6 12C7.6 13.167 8.06357 14.2861 8.88873 15.1113C9.71389 15.9364 10.833 16.4 12 16.4Z" stroke="black" stroke-width="1.5" stroke-miterlimit="10"/>
</svg>
