<svg width="24" height="24" viewBox="0 0 24 24" fill="none" xmlns="http://www.w3.org/2000/svg">
<path d="M20.89 10.53C20.48 10.53 20.14 10.19 20.14 9.78001V6.91001L12 2.84001L3.86 6.91001V9.78001C3.86 10.19 3.52 10.53 3.11 10.53C2.7 10.53 2.36 10.19 2.36 9.78001V6.45001C2.36 6.17001 2.52 5.91001 2.78 5.78001L11.67 1.34001C11.88 1.23001 12.13 1.23001 12.34 1.34001L21.23 5.78001C21.48 5.91001 21.65 6.17001 21.65 6.45001V9.78001C21.6448 9.97902 21.5628 10.1683 21.4211 10.3081C21.2794 10.448 21.0891 10.5275 20.89 10.53ZM12 22.75C11.8852 22.7497 11.7722 22.7222 11.67 22.67L2.78 18.23C2.65595 18.1667 2.55138 18.071 2.47742 17.953C2.40346 17.8351 2.36288 17.6992 2.36 17.56V14.23C2.36 13.82 2.7 13.48 3.11 13.48C3.52 13.48 3.86 13.82 3.86 14.23V17.1L12 21.17L20.14 17.1V14.23C20.14 13.82 20.48 13.48 20.89 13.48C21.3 13.48 21.64 13.82 21.64 14.23V17.56C21.64 17.84 21.48 18.1 21.22 18.23L12.33 22.67C12.2278 22.7222 12.1148 22.7497 12 22.75Z" fill="black"/>
<path d="M12 22.751C11.59 22.751 11.25 22.411 11.25 22.001V16.441C11.25 16.031 11.59 15.691 12 15.691C12.41 15.691 12.75 16.031 12.75 16.441V22.001C12.75 22.411 12.41 22.751 12 22.751Z" fill="black"/>
<path d="M12 17.189C9.14 17.189 6.81 14.859 6.81 11.999C6.81 9.13901 9.14 6.80901 12 6.80901C14.86 6.80901 17.19 9.13901 17.19 11.999C17.19 14.859 14.86 17.189 12 17.189ZM12 8.30901C9.96 8.30901 8.31 9.96901 8.31 11.999C8.31264 12.9768 8.70225 13.9139 9.39369 14.6053C10.0851 15.2968 11.0222 15.6864 12 15.689C12.9778 15.6864 13.9149 15.2968 14.6063 14.6053C15.2977 13.9139 15.6874 12.9768 15.69 11.999C15.69 9.96901 14.04 8.30901 12 8.30901Z" fill="black"/>
</svg>
