<svg width="24" height="24" viewBox="0 0 24 24" fill="none" xmlns="http://www.w3.org/2000/svg">
<path d="M6 9.33017V14.6702C6 17.9902 8.35 19.3402 11.22 17.6902L12.5 16.9502C12.81 16.7702 13 16.4402 13 16.0802V7.92017C13 7.56017 12.81 7.23017 12.5 7.05017L11.22 6.31017C8.35 4.66017 6 6.01017 6 9.33017ZM14 8.79217V15.2222C14 15.6122 14.42 15.8522 14.75 15.6522L15.85 15.0122C18.72 13.3622 18.72 10.6422 15.85 8.99217L14.75 8.35217C14.6733 8.30895 14.5867 8.28661 14.4987 8.28736C14.4107 8.28812 14.3244 8.31196 14.2485 8.3565C14.1726 8.40103 14.1097 8.4647 14.0661 8.54115C14.0225 8.61761 13.9997 8.70416 14 8.79217Z" fill="black"/>
</svg>
