<svg width="24" height="24" viewBox="0 0 24 24" fill="none" xmlns="http://www.w3.org/2000/svg">
<path d="M6 9.33017V14.6702C6 17.9902 8.35 19.3402 11.22 17.6902L12.5 16.9502C12.81 16.7702 13 16.4402 13 16.0802V7.92017C13 7.56017 12.81 7.23017 12.5 7.05017L11.22 6.31017C8.35 4.66017 6 6.01017 6 9.33017Z" fill="black"/>
<path opacity="0.4" d="M14 8.78998V15.22C14 15.61 14.42 15.85 14.75 15.65L15.85 15.01C18.72 13.36 18.72 10.64 15.85 8.98998L14.75 8.34998C14.6733 8.30676 14.5867 8.28442 14.4987 8.28517C14.4107 8.28593 14.3244 8.30977 14.2485 8.35431C14.1726 8.39884 14.1097 8.46251 14.0661 8.53896C14.0225 8.61542 13.9997 8.70197 14 8.78998Z" fill="black"/>
</svg>
