<svg width="24" height="24" viewBox="0 0 24 24" fill="none" xmlns="http://www.w3.org/2000/svg">
<path opacity="0.4" d="M16.19 2H7.82C4.18 2 2.01 4.17 2.01 7.81V16.18C2.01 19.82 4.18 21.99 7.82 21.99H16.19C19.83 21.99 22 19.82 22 16.18V7.81C22 4.17 19.83 2 16.19 2Z" fill="black"/>
<path d="M13.92 9.27995L13.97 12.23L16.6 12.19C16.79 12.19 16.93 12.36 16.9 12.54L16.55 14.45C16.52 14.59 16.4 14.69 16.26 14.7L14.01 14.74L14.13 21.99L11.13 22.04L11.01 14.79L9.31 14.82C9.14 14.82 9.01 14.69 9.01 14.52L8.98 12.62C8.98 12.45 9.11 12.32 9.28 12.32L10.98 12.29L10.93 9.03995C10.9229 8.64583 10.9935 8.25418 11.138 7.88743C11.2825 7.52068 11.498 7.18605 11.772 6.90271C12.0461 6.61937 12.3733 6.3929 12.735 6.23627C13.0968 6.07965 13.4859 5.99594 13.88 5.98995L16.58 5.94995C16.75 5.94995 16.88 6.07995 16.88 6.24995L16.92 8.64995C16.92 8.81995 16.79 8.94995 16.62 8.94995L14.22 8.98995C14.05 8.97995 13.92 9.11995 13.92 9.27995Z" fill="black"/>
</svg>
