<svg width="24" height="24" viewBox="0 0 24 24" fill="none" xmlns="http://www.w3.org/2000/svg">
<path d="M12 2.29996V7.55996M10.45 3.04896L6.72 7.70896C5.87 8.76896 6.17 10.129 7.38 10.729L11.11 12.599C11.6 12.839 12.4 12.839 12.89 12.599L16.62 10.729C17.83 10.119 18.13 8.75896 17.28 7.70896L13.55 3.04896C12.7 1.97896 11.3 1.97896 10.45 3.04896Z" stroke="black" stroke-width="1.5" stroke-miterlimit="10" stroke-linecap="round" stroke-linejoin="round"/>
<path d="M7.8 10.709L12 7.55896L16.2 10.709M7.8 17.73L7 16.75C6 15.53 7.33 13.79 8.77 14.43L10.38 15.15C10.8916 15.3774 11.4452 15.4949 12.005 15.4949C12.5648 15.4949 13.1184 15.3774 13.63 15.15L15.24 14.43C16.68 13.79 18.01 15.53 17.01 16.75L13.55 20.98C12.7 22.02 11.31 22.02 10.45 20.98" stroke="black" stroke-width="1.5" stroke-miterlimit="10" stroke-linecap="round" stroke-linejoin="round"/>
</svg>
