<svg width="24" height="24" viewBox="0 0 24 24" fill="none" xmlns="http://www.w3.org/2000/svg">
<path opacity="0.4" d="M17.5 11.49C17.39 11.58 17.28 11.65 17.15 11.71L16.06 12.26L12.99 13.79C12.44 14.07 11.55 14.07 11.01 13.79L7.94 12.26L6.85 11.71C6.73 11.64 6.62 11.58 6.5 11.49C5.44 10.75 5.25 9.39999 6.1 8.32999L10.27 3.12999C10.53 2.80999 10.84 2.56999 11.16 2.42999C11.7 2.16999 12.3 2.16999 12.83 2.42999C13.15 2.56999 13.47 2.80999 13.72 3.12999L17.89 8.32999C18.75 9.40999 18.56 10.76 17.5 11.49Z" fill="black"/>
<path d="M17.5 11.491C17.39 11.581 17.28 11.651 17.15 11.711L16.06 12.261L12 9.21097L7.94 12.271L6.85 11.721C6.73 11.651 6.62 11.591 6.5 11.501C6.54 11.311 6.64 11.141 6.81 11.021L11.16 7.75097V2.44097C11.7 2.18097 12.3 2.18097 12.83 2.44097V7.75097L17.18 11.021C17.35 11.141 17.45 11.301 17.5 11.491ZM8.77 14.43L10.38 15.15C10.8916 15.3774 11.4452 15.4949 12.005 15.4949C12.5648 15.4949 13.1184 15.3774 13.63 15.15L15.24 14.43C16.68 13.79 18.01 15.53 17.01 16.75L13.55 20.98C12.7 22.02 11.31 22.02 10.45 20.98L7 16.75C5.99 15.53 7.32 13.79 8.77 14.43Z" fill="black"/>
</svg>
