<svg width="24" height="24" viewBox="0 0 24 24" fill="none" xmlns="http://www.w3.org/2000/svg">
<path d="M12 2.30006V7.56006M10.45 3.05006L6.71001 7.71006C5.86001 8.77006 6.16001 10.1301 7.37001 10.7301L11.1 12.6001C11.59 12.8401 12.39 12.8401 12.88 12.6001L16.61 10.7301C17.82 10.1201 18.12 8.76006 17.27 7.71006L13.54 3.05006C12.7 1.98006 11.3 1.98006 10.45 3.05006Z" stroke="black" stroke-width="1.5" stroke-miterlimit="10" stroke-linecap="round" stroke-linejoin="round"/>
<path d="M7.8 10.7101L12 7.56006L16.2 10.7101M8.77 14.4301L10.38 15.1501C10.8916 15.3775 11.4452 15.495 12.005 15.495C12.5648 15.495 13.1184 15.3775 13.63 15.1501L15.24 14.4301C16.68 13.7901 18.01 15.5301 17.01 16.7501L13.55 20.9801C12.7 22.0201 11.31 22.0201 10.45 20.9801L7 16.7501C5.99 15.5301 7.32 13.7901 8.77 14.4301Z" stroke="black" stroke-width="1.5" stroke-miterlimit="10" stroke-linecap="round" stroke-linejoin="round"/>
</svg>
