<svg width="24" height="24" viewBox="0 0 24 24" fill="none" xmlns="http://www.w3.org/2000/svg">
<path d="M12 13.53C11.56 13.53 11.12 13.44 10.77 13.27L7.03999 11.4C6.25999 11.01 5.70999 10.33 5.53999 9.55C5.36999 8.76 5.57999 7.92 6.12999 7.24L9.85999 2.58C10.41 1.89 11.19 1.5 12 1.5C12.81 1.5 13.59 1.89 14.14 2.58L17.87 7.25C18.42 7.93 18.63 8.77 18.46 9.56C18.29 10.35 17.74 11.02 16.96 11.41L13.23 13.28C12.88 13.45 12.44 13.53 12 13.53ZM11.03 3.52L7.29999 8.18C7.03999 8.51 6.92999 8.88 7.00999 9.23C7.08999 9.58 7.33999 9.87 7.71999 10.06L11.45 11.93C11.73 12.07 12.28 12.07 12.56 11.93L16.29 10.06C16.67 9.87 16.92 9.57 17 9.23C17.08 8.89 16.97 8.51 16.71 8.18L12.98 3.52C12.43 2.85 11.57 2.85 11.03 3.52Z" fill="black"/>
<path d="M12 8.31005C11.59 8.31005 11.25 7.97005 11.25 7.56005V2.30005C11.25 1.89005 11.59 1.55005 12 1.55005C12.41 1.55005 12.75 1.89005 12.75 2.30005V7.56005C12.75 7.97005 12.41 8.31005 12 8.31005Z" fill="black"/>
<path d="M16.2 11.459C16.0378 11.4582 15.8802 11.4057 15.75 11.309L12 8.48896L8.25 11.309C8.09087 11.4283 7.89085 11.4796 7.69394 11.4514C7.49702 11.4233 7.31935 11.3181 7.2 11.159C7.08066 10.9998 7.02941 10.7998 7.05754 10.6029C7.08567 10.406 7.19087 10.2283 7.35 10.109L11.55 6.95896C11.82 6.75896 12.18 6.75896 12.45 6.95896L16.65 10.109C16.98 10.359 17.05 10.829 16.8 11.159C16.66 11.359 16.43 11.459 16.2 11.459ZM12 22.5C11.2 22.5 10.42 22.12 9.87 21.44L6.41 17.21C5.74 16.39 5.72 15.27 6.36 14.42C7 13.57 8.09 13.3 9.06 13.73L10.67 14.45C11.51 14.82 12.47 14.82 13.31 14.45L14.92 13.73C15.89 13.3 16.98 13.58 17.62 14.42C18.27 15.27 18.25 16.39 17.57 17.21L14.11 21.44C13.58 22.12 12.8 22.5 12 22.5ZM8.14 15.04C7.83 15.04 7.63 15.26 7.56 15.34C7.48 15.45 7.23 15.84 7.58 16.27L11.04 20.5C11.57 21.15 12.44 21.15 12.97 20.5L16.43 16.27C16.78 15.84 16.53 15.45 16.45 15.34C16.351 15.2019 16.2065 15.1031 16.0419 15.061C15.8773 15.0189 15.7031 15.0363 15.55 15.11L13.94 15.83C12.71 16.37 11.31 16.37 10.08 15.83L8.47 15.11C8.36519 15.0667 8.25335 15.043 8.14 15.04Z" fill="black"/>
</svg>
