<svg width="24" height="24" viewBox="0 0 24 24" fill="none" xmlns="http://www.w3.org/2000/svg">
<path d="M12 2C6.48 2 2 6.48 2 12C2 17.52 6.48 22 12 22C17.52 22 22 17.52 22 12C22 6.48 17.52 2 12 2ZM10.7 16.14H6.44C6.39592 16.1394 6.3528 16.1271 6.31499 16.1045C6.27718 16.0818 6.24604 16.0495 6.22472 16.0109C6.2034 15.9724 6.19265 15.9288 6.19358 15.8848C6.19451 15.8407 6.20707 15.7976 6.23 15.76L8.36 12.21C8.46 12.05 8.69 12.05 8.79 12.21L10.92 15.76C11.02 15.93 10.9 16.14 10.7 16.14ZM9.87 10.14C9.82592 10.1394 9.7828 10.1271 9.74499 10.1044C9.70718 10.0818 9.67604 10.0495 9.65472 10.0109C9.6334 9.97237 9.62265 9.92883 9.62358 9.88476C9.62451 9.84069 9.63707 9.79765 9.66 9.76L11.79 6.21C11.89 6.05 12.12 6.05 12.22 6.21L14.35 9.76C14.45 9.93 14.33 10.14 14.14 10.14H9.87ZM17.56 16.14H13.3C13.2559 16.1394 13.2128 16.1271 13.175 16.1045C13.1372 16.0818 13.106 16.0495 13.0847 16.0109C13.0634 15.9724 13.0527 15.9288 13.0536 15.8848C13.0545 15.8407 13.0671 15.7976 13.09 15.76L15.22 12.21C15.32 12.05 15.55 12.05 15.65 12.21L17.78 15.76C17.87 15.93 17.75 16.14 17.56 16.14Z" fill="black"/>
</svg>
