<svg width="24" height="24" viewBox="0 0 24 24" fill="none" xmlns="http://www.w3.org/2000/svg">
<path opacity="0.4" d="M12 22C17.523 22 22 17.523 22 12C22 6.477 17.523 2 12 2C6.477 2 2 6.477 2 12C2 17.523 6.477 22 12 22Z" fill="black"/>
<path d="M11.79 6.21L9.66 9.76C9.56 9.93 9.68 10.14 9.87 10.14H14.13C14.32 10.14 14.44 9.93 14.34 9.76L12.21 6.21C12.1884 6.17351 12.1577 6.14328 12.1209 6.12228C12.0841 6.10128 12.0424 6.09024 12 6.09024C11.9576 6.09024 11.916 6.10128 11.8791 6.12228C11.8423 6.14328 11.8116 6.17351 11.79 6.21ZM8.36 12.21L6.23 15.76C6.13 15.93 6.25 16.14 6.44 16.14H10.7C10.89 16.14 11.01 15.93 10.91 15.76L8.78 12.21C8.75842 12.1735 8.7277 12.1433 8.69088 12.1223C8.65405 12.1013 8.61239 12.0902 8.57 12.0902C8.52761 12.0902 8.48595 12.1013 8.44913 12.1223C8.41231 12.1433 8.38159 12.1735 8.36 12.21ZM15.21 12.21L13.08 15.76C12.98 15.93 13.099 16.14 13.289 16.14H17.549C17.739 16.14 17.859 15.93 17.759 15.76L15.629 12.21C15.549 12.05 15.309 12.05 15.209 12.21H15.21Z" fill="black"/>
</svg>
