<svg width="24" height="24" viewBox="0 0 24 24" fill="none" xmlns="http://www.w3.org/2000/svg">
<path d="M12 22.75C6.07 22.75 1.25 17.93 1.25 12C1.25 6.07 6.07 1.25 12 1.25C17.93 1.25 22.75 6.07 22.75 12C22.75 17.93 17.93 22.75 12 22.75ZM12 2.75C6.9 2.75 2.75 6.9 2.75 12C2.75 17.1 6.9 21.25 12 21.25C17.1 21.25 21.25 17.1 21.25 12C21.25 6.9 17.1 2.75 12 2.75Z" fill="black"/>
<path d="M14.57 10.889H9.43C9.29717 10.8883 9.1669 10.8524 9.05246 10.7849C8.93801 10.7175 8.84346 10.621 8.77844 10.5051C8.71341 10.3893 8.68022 10.2583 8.68226 10.1255C8.68429 9.99269 8.72146 9.86278 8.79 9.749L11.36 5.459C11.63 5.009 12.38 5.009 12.65 5.459L15.22 9.749C15.36 9.979 15.36 10.269 15.23 10.509C15.1631 10.6248 15.0669 10.7209 14.951 10.7876C14.8352 10.8544 14.7037 10.8893 14.57 10.889ZM10.75 9.389H13.24L11.99 7.309L10.75 9.389ZM11.14 16.89H6C5.86781 16.8904 5.73789 16.8556 5.62359 16.7892C5.50928 16.7228 5.41471 16.6272 5.34956 16.5122C5.28441 16.3971 5.25104 16.2668 5.25288 16.1347C5.25471 16.0025 5.29169 15.8732 5.36 15.76L7.93 11.47C8.2 11.02 8.95 11.02 9.22 11.47L11.79 15.76C11.8588 15.8739 11.8958 16.0041 11.8972 16.1372C11.8986 16.2702 11.8644 16.4012 11.798 16.5166C11.7317 16.6319 11.6357 16.7274 11.52 16.793C11.4042 16.8587 11.273 16.8922 11.14 16.89ZM7.32 15.39H9.81L8.56 13.31L7.32 15.39ZM18 16.89H12.86C12.7278 16.8904 12.5979 16.8556 12.4836 16.7892C12.3693 16.7228 12.2747 16.6272 12.2096 16.5122C12.1444 16.3971 12.111 16.2668 12.1129 16.1347C12.1147 16.0025 12.1517 15.8732 12.22 15.76L14.79 11.47C15.06 11.02 15.81 11.02 16.08 11.47L18.65 15.76C18.7188 15.8739 18.7558 16.0041 18.7572 16.1372C18.7586 16.2702 18.7244 16.4012 18.658 16.5166C18.5917 16.6319 18.4957 16.7274 18.38 16.793C18.2642 16.8587 18.133 16.8922 18 16.89ZM14.18 15.39H16.67L15.42 13.31L14.18 15.39Z" fill="black"/>
</svg>
