<svg width="24" height="24" viewBox="0 0 24 24" fill="none" xmlns="http://www.w3.org/2000/svg">
<path d="M12 22.75C10.83 22.75 9.74 22.3 8.92 21.48L2.53 15.09C2.1256 14.6858 1.80519 14.2055 1.58723 13.6769C1.36926 13.1483 1.25805 12.5818 1.26 12.01C1.26 10.85 1.71 9.75002 2.53 8.93002L8.92 2.54002C9.74 1.72002 10.84 1.27002 12 1.27002C13.16 1.27002 14.26 1.72002 15.08 2.54002L21.47 8.93002C22.29 9.75002 22.74 10.85 22.74 12.01C22.74 13.17 22.29 14.27 21.47 15.09L15.08 21.48C14.26 22.3 13.17 22.75 12 22.75ZM12 2.75002C11.23 2.75002 10.51 3.05002 9.98 3.58002L3.59 9.97002C3.05 10.51 2.76 11.23 2.76 11.99C2.76 12.75 3.06 13.48 3.59 14.01L9.98 20.4C11.05 21.47 12.95 21.47 14.02 20.4L20.41 14.01C20.95 13.47 21.24 12.76 21.24 11.99C21.24 11.22 20.94 10.5 20.41 9.97002L14.02 3.58002C13.49 3.05002 12.77 2.75002 12 2.75002Z" fill="black"/>
</svg>
