<svg width="24" height="24" viewBox="0 0 24 24" fill="none" xmlns="http://www.w3.org/2000/svg">
<path d="M20.86 8.36985L13.93 2.82985C12.86 1.96985 11.13 1.96985 10.07 2.81985L3.14 8.36985C2.36 8.98985 1.86 10.2998 2.03 11.2798L3.36 19.2398C3.6 20.6598 4.96 21.8098 6.4 21.8098H17.6C19.03 21.8098 20.4 20.6498 20.64 19.2398L21.97 11.2798C22.13 10.2998 21.63 8.98985 20.86 8.36985ZM12 15.4998C11.337 15.4998 10.7011 15.2365 10.2322 14.7676C9.76339 14.2988 9.5 13.6629 9.5 12.9998C9.5 12.3368 9.76339 11.7009 10.2322 11.2321C10.7011 10.7632 11.337 10.4998 12 10.4998C12.663 10.4998 13.2989 10.7632 13.7678 11.2321C14.2366 11.7009 14.5 12.3368 14.5 12.9998C14.5 13.6629 14.2366 14.2988 13.7678 14.7676C13.2989 15.2365 12.663 15.4998 12 15.4998Z" fill="black"/>
</svg>
