<svg width="24" height="24" viewBox="0 0 24 24" fill="none" xmlns="http://www.w3.org/2000/svg">
<path opacity="0.4" d="M10.07 2.81985L3.14 8.36985C2.36 8.98985 1.86 10.2998 2.03 11.2798L3.36 19.2398C3.6 20.6598 4.96 21.8098 6.4 21.8098H17.6C19.03 21.8098 20.4 20.6498 20.64 19.2398L21.97 11.2798C22.13 10.2998 21.63 8.98985 20.86 8.36985L13.93 2.82985C12.86 1.96985 11.13 1.96985 10.07 2.81985Z" fill="black"/>
<path d="M12 15.5C12.663 15.5 13.2989 15.2366 13.7678 14.7678C14.2366 14.2989 14.5 13.663 14.5 13C14.5 12.337 14.2366 11.7011 13.7678 11.2322C13.2989 10.7634 12.663 10.5 12 10.5C11.337 10.5 10.7011 10.7634 10.2322 11.2322C9.76339 11.7011 9.5 12.337 9.5 13C9.5 13.663 9.76339 14.2989 10.2322 14.7678C10.7011 15.2366 11.337 15.5 12 15.5Z" fill="black"/>
</svg>
