<svg width="24" height="24" viewBox="0 0 24 24" fill="none" xmlns="http://www.w3.org/2000/svg">
<path d="M17.6 22.5598H6.4C4.58 22.5598 2.92 21.1598 2.62 19.3598L1.29 11.3998C1.08 10.1598 1.68 8.56982 2.67 7.77982L9.6 2.22982C10.94 1.14982 13.05 1.15982 14.4 2.23982L21.33 7.77982C22.31 8.56982 22.91 10.1598 22.71 11.3998L21.38 19.3598C21.08 21.1298 19.39 22.5598 17.6 22.5598ZM11.99 2.93982C11.46 2.93982 10.93 3.09982 10.54 3.40982L3.61 8.95982C3.04 9.41982 2.65 10.4398 2.77 11.1598L4.1 19.1198C4.28 20.1698 5.33 21.0598 6.4 21.0598H17.6C18.67 21.0598 19.72 20.1698 19.9 19.1098L21.23 11.1498C21.35 10.4298 20.95 9.39982 20.39 8.94982L13.46 3.40982C13.06 3.09982 12.53 2.93982 11.99 2.93982Z" fill="black"/>
<path d="M12 16.25C10.21 16.25 8.75 14.79 8.75 13C8.75 11.21 10.21 9.75 12 9.75C13.79 9.75 15.25 11.21 15.25 13C15.25 14.79 13.79 16.25 12 16.25ZM12 11.25C11.04 11.25 10.25 12.04 10.25 13C10.25 13.96 11.04 14.75 12 14.75C12.96 14.75 13.75 13.96 13.75 13C13.75 12.04 12.96 11.25 12 11.25Z" fill="black"/>
</svg>
