<svg width="24" height="24" viewBox="0 0 24 24" fill="none" xmlns="http://www.w3.org/2000/svg">
<path d="M12 2H8.67C6.83 2 5.34 3.49 5.34 5.33C5.34 7.17 6.83 8.66 8.67 8.66H12V2Z" fill="black"/>
<path opacity="0.4" d="M12 8.672H8.67C6.83 8.672 5.34 10.162 5.34 12.002C5.34 13.842 6.83 15.332 8.67 15.332H12V8.672Z" fill="black"/>
<path d="M12 15.328H8.67C6.83 15.328 5.34 16.818 5.34 18.658C5.34 20.498 6.83 21.988 8.67 21.988C10.51 21.988 12 20.498 12 18.658V15.328Z" fill="black"/>
<path opacity="0.4" d="M12 2H15.33C17.17 2 18.66 3.49 18.66 5.33C18.66 7.17 17.17 8.66 15.33 8.66H12V2Z" fill="black"/>
<path d="M15.33 8.672C17.17 8.672 18.66 10.162 18.66 12.002C18.66 13.842 17.17 15.332 15.33 15.332C13.49 15.332 12 13.842 12 12.002C12 10.162 13.49 8.672 15.33 8.672Z" fill="black"/>
</svg>
