<svg width="24" height="24" viewBox="0 0 24 24" fill="none" xmlns="http://www.w3.org/2000/svg">
<path d="M12 6H10C8.9 6 8 6.9 8 8C8 9.1 8.9 10 10 10M12 6V10M12 6H14C15.1 6 16 6.9 16 8C16 9.1 15.1 10 14 10M10 10H12M10 10C8.9 10 8 10.9 8 12C8 13.1 8.9 14 10 14M12 10V14M12 10H14M10 14H12M10 14C8.9 14 8 14.9 8 16C8 17.1 8.9 18 10 18C11.1 18 12 17.1 12 16V14M14 10C15.1 10 16 10.9 16 12C16 13.1 15.1 14 14 14C12.9 14 12 13.1 12 12C12 10.9 12.9 10 14 10Z" stroke="black" stroke-width="1.5" stroke-miterlimit="10"/>
<path d="M12 22C17.523 22 22 17.523 22 12C22 6.477 17.523 2 12 2C6.477 2 2 6.477 2 12C2 17.523 6.477 22 12 22Z" stroke="black" stroke-width="1.5" stroke-miterlimit="10"/>
</svg>
