<svg width="24" height="24" viewBox="0 0 24 24" fill="none" xmlns="http://www.w3.org/2000/svg">
<path d="M12.75 10.75H10C8.48 10.75 7.25 9.52 7.25 8C7.25 6.48 8.48 5.25 10 5.25H12.75V10.75ZM10 6.75C9.66848 6.75 9.35054 6.8817 9.11612 7.11612C8.8817 7.35054 8.75 7.66848 8.75 8C8.75 8.33152 8.8817 8.64946 9.11612 8.88388C9.35054 9.1183 9.66848 9.25 10 9.25H11.25V6.75H10Z" fill="black"/>
<path d="M12.75 14.75H10C8.48 14.75 7.25 13.52 7.25 12C7.25 10.48 8.48 9.25 10 9.25H12.75V14.75ZM10 10.75C9.66848 10.75 9.35054 10.8817 9.11612 11.1161C8.8817 11.3505 8.75 11.6685 8.75 12C8.75 12.3315 8.8817 12.6495 9.11612 12.8839C9.35054 13.1183 9.66848 13.25 10 13.25H11.25V10.75H10Z" fill="black"/>
<path d="M10 18.75C8.48 18.75 7.25 17.52 7.25 16C7.25 14.48 8.48 13.25 10 13.25H12.75V16C12.75 17.52 11.52 18.75 10 18.75ZM10 14.75C9.75277 14.75 9.5111 14.8233 9.30554 14.9607C9.09998 15.098 8.93976 15.2932 8.84515 15.5216C8.75054 15.7501 8.72579 16.0014 8.77402 16.2439C8.82225 16.4863 8.9413 16.7091 9.11612 16.8839C9.29093 17.0587 9.51366 17.1777 9.75614 17.226C9.99861 17.2742 10.2499 17.2495 10.4784 17.1549C10.7068 17.0602 10.902 16.9 11.0393 16.6945C11.1767 16.4889 11.25 16.2472 11.25 16V14.75H10ZM14 10.75H11.25V5.25H14C15.52 5.25 16.75 6.48 16.75 8C16.75 9.52 15.52 10.75 14 10.75ZM12.75 9.25H14C14.3315 9.25 14.6495 9.1183 14.8839 8.88388C15.1183 8.64946 15.25 8.33152 15.25 8C15.25 7.66848 15.1183 7.35054 14.8839 7.11612C14.6495 6.8817 14.3315 6.75 14 6.75H12.75V9.25Z" fill="black"/>
<path d="M14 14.75C12.48 14.75 11.25 13.52 11.25 12C11.25 10.48 12.48 9.25 14 9.25C15.52 9.25 16.75 10.48 16.75 12C16.75 13.52 15.52 14.75 14 14.75ZM14 10.75C13.6685 10.75 13.3505 10.8817 13.1161 11.1161C12.8817 11.3505 12.75 11.6685 12.75 12C12.75 12.3315 12.8817 12.6495 13.1161 12.8839C13.3505 13.1183 13.6685 13.25 14 13.25C14.3315 13.25 14.6495 13.1183 14.8839 12.8839C15.1183 12.6495 15.25 12.3315 15.25 12C15.25 11.6685 15.1183 11.3505 14.8839 11.1161C14.6495 10.8817 14.3315 10.75 14 10.75Z" fill="black"/>
<path d="M12 22.75C6.07 22.75 1.25 17.93 1.25 12C1.25 6.07 6.07 1.25 12 1.25C17.93 1.25 22.75 6.07 22.75 12C22.75 17.93 17.93 22.75 12 22.75ZM12 2.75C6.9 2.75 2.75 6.9 2.75 12C2.75 17.1 6.9 21.25 12 21.25C17.1 21.25 21.25 17.1 21.25 12C21.25 6.9 17.1 2.75 12 2.75Z" fill="black"/>
</svg>
