<svg width="24" height="24" viewBox="0 0 24 24" fill="none" xmlns="http://www.w3.org/2000/svg">
<path d="M12 2C6.48 2 2 6.48 2 12C2 17.52 6.48 22 12 22C17.52 22 22 17.52 22 12C22 6.48 17.52 2 12 2ZM9.05 8.29C9.09123 8.20585 9.15528 8.13498 9.23485 8.08547C9.31441 8.03596 9.40629 8.00981 9.5 8.01H14.5C14.69 8.01 14.86 8.12 14.95 8.29C15.04 8.46 15.02 8.66 14.9 8.81L12.4 12.14C12.3546 12.2033 12.2944 12.2546 12.2247 12.2894C12.155 12.3243 12.0779 12.3416 12 12.34C11.9221 12.3416 11.845 12.3243 11.7753 12.2894C11.7056 12.2546 11.6454 12.2033 11.6 12.14L9.1 8.81C9.04556 8.73589 9.01217 8.64843 9.00337 8.55689C8.99456 8.46535 9.01068 8.37313 9.05 8.29ZM17.61 10.44L12.61 17.44C12.5408 17.537 12.4492 17.6158 12.343 17.6697C12.2368 17.7237 12.1191 17.7512 12 17.75C11.76 17.75 11.53 17.63 11.39 17.44L6.39 10.44C6.27534 10.2775 6.22892 10.0766 6.2607 9.8803C6.29248 9.68401 6.39993 9.50799 6.56 9.39C6.72247 9.27534 6.9234 9.22892 7.1197 9.2607C7.31599 9.29248 7.49201 9.39993 7.61 9.56L12 15.71L16.39 9.56C16.63 9.22 17.1 9.14 17.44 9.39C17.77 9.63 17.85 10.1 17.61 10.44Z" fill="black"/>
</svg>
