<svg width="24" height="24" viewBox="0 0 24 24" fill="none" xmlns="http://www.w3.org/2000/svg">
<path d="M14.95 8.29221C14.9088 8.20806 14.8447 8.13719 14.7652 8.08768C14.6856 8.03817 14.5937 8.01202 14.5 8.01221H9.5C9.31 8.01221 9.14 8.12221 9.05 8.29221C9.00596 8.37411 8.9872 8.46723 8.9961 8.55979C9.005 8.65236 9.04116 8.7402 9.1 8.81221L11.6 12.1422C11.69 12.2722 11.84 12.3422 12 12.3422C12.16 12.3422 12.31 12.2722 12.4 12.1422L14.9 8.81221C14.9544 8.73809 14.9878 8.65064 14.9966 8.5591C15.0054 8.46756 14.9893 8.37534 14.95 8.29221Z" fill="black"/>
<path opacity="0.4" d="M12 22C17.523 22 22 17.523 22 12C22 6.477 17.523 2 12 2C6.477 2 2 6.477 2 12C2 17.523 6.477 22 12 22Z" fill="black"/>
<path d="M12 17.7478C11.76 17.7478 11.53 17.6278 11.39 17.4378L6.39 10.4378C6.27534 10.2753 6.22892 10.0744 6.2607 9.8781C6.29248 9.68181 6.39993 9.50578 6.56 9.3878C6.72247 9.27314 6.9234 9.22672 7.1197 9.2585C7.31599 9.29028 7.49201 9.39773 7.61 9.5578L12 15.7078L16.39 9.5578C16.63 9.2178 17.1 9.1378 17.44 9.3878C17.78 9.6278 17.86 10.0978 17.61 10.4378L12.61 17.4378C12.47 17.6278 12.24 17.7478 12 17.7478Z" fill="black"/>
</svg>
