<svg width="24" height="24" viewBox="0 0 24 24" fill="none" xmlns="http://www.w3.org/2000/svg">
<path d="M12 12.6C11.76 12.6 11.54 12.49 11.4 12.3L8.9 8.97002C8.81588 8.85794 8.76475 8.72458 8.75239 8.585C8.74002 8.44541 8.7669 8.30514 8.83 8.18002C8.96 7.92002 9.22 7.77002 9.5 7.77002H14.5C14.78 7.77002 15.04 7.93002 15.17 8.18002C15.3 8.43002 15.27 8.74002 15.1 8.97002L12.6 12.3C12.46 12.49 12.24 12.6 12 12.6ZM11 9.27002L12 10.6L13 9.27002H11Z" fill="black"/>
<path d="M12 22.75C6.07 22.75 1.25 17.93 1.25 12C1.25 6.07 6.07 1.25 12 1.25C17.93 1.25 22.75 6.07 22.75 12C22.75 17.93 17.93 22.75 12 22.75ZM12 2.75C6.9 2.75 2.75 6.9 2.75 12C2.75 17.1 6.9 21.25 12 21.25C17.1 21.25 21.25 17.1 21.25 12C21.25 6.9 17.1 2.75 12 2.75Z" fill="black"/>
<path d="M12 17.7478C11.76 17.7478 11.53 17.6278 11.39 17.4378L6.39 10.4378C6.27534 10.2753 6.22892 10.0744 6.2607 9.8781C6.29248 9.68181 6.39994 9.50578 6.56 9.3878C6.72247 9.27314 6.9234 9.22672 7.1197 9.2585C7.316 9.29028 7.49202 9.39773 7.61 9.5578L12 15.7078L16.39 9.5578C16.63 9.2178 17.1 9.1378 17.44 9.3878C17.78 9.6278 17.86 10.0978 17.61 10.4378L12.61 17.4378C12.47 17.6278 12.24 17.7478 12 17.7478Z" fill="black"/>
</svg>
