<svg width="24" height="24" viewBox="0 0 24 24" fill="none" xmlns="http://www.w3.org/2000/svg">
<path d="M12 2C6.48 2 2 6.48 2 12C2 17.52 6.48 22 12 22C17.52 22 22 17.52 22 12C22 6.48 17.52 2 12 2ZM16.5 14.25H13.45L15.44 17.07C15.68 17.41 15.6 17.88 15.26 18.11C15.1342 18.1992 14.9842 18.248 14.83 18.25C14.59 18.25 14.36 18.14 14.22 17.93L11.92 14.67L9.62 17.93C9.55129 18.0282 9.46004 18.1085 9.35391 18.1642C9.24778 18.2198 9.12985 18.2493 9.01 18.25C8.86 18.25 8.71 18.21 8.58 18.11C8.49954 18.0538 8.43101 17.9823 8.37835 17.8994C8.3257 17.8166 8.28998 17.7242 8.27324 17.6275C8.25651 17.5308 8.25909 17.4318 8.28085 17.3361C8.3026 17.2404 8.3431 17.15 8.4 17.07L10.39 14.25H7.52C7.11 14.25 6.77 13.91 6.77 13.5C6.77 13.09 7.11 12.75 7.52 12.75H16.52C16.93 12.75 17.27 13.09 17.27 13.5C17.27 13.91 16.91 14.25 16.5 14.25ZM16.5 11.25H7.5C7.09 11.25 6.75 10.91 6.75 10.5C6.75 10.09 7.09 9.75 7.5 9.75H10.37L8.38 6.93C8.32271 6.85019 8.28188 6.75977 8.2599 6.66401C8.23792 6.56825 8.23523 6.46908 8.25199 6.37227C8.26874 6.27546 8.30461 6.18296 8.35749 6.10016C8.41037 6.01736 8.47922 5.94591 8.56 5.89C8.63981 5.83271 8.73023 5.79188 8.82599 5.7699C8.92175 5.74792 9.02093 5.74523 9.11773 5.76199C9.21454 5.77874 9.30704 5.81461 9.38984 5.86749C9.47264 5.92037 9.54409 5.98922 9.6 6.07L11.9 9.33L14.2 6.07C14.44 5.73 14.91 5.65 15.24 5.89C15.58 6.13 15.66 6.6 15.42 6.93L13.43 9.75H16.48C16.89 9.75 17.23 10.09 17.23 10.5C17.23 10.91 16.91 11.25 16.5 11.25Z" fill="black"/>
</svg>
