<svg width="24" height="24" viewBox="0 0 24 24" fill="none" xmlns="http://www.w3.org/2000/svg">
<path opacity="0.4" d="M12 22C17.523 22 22 17.523 22 12C22 6.477 17.523 2 12 2C6.477 2 2 6.477 2 12C2 17.523 6.477 22 12 22Z" fill="black"/>
<path d="M7.5 11.2479H16.5C16.91 11.2479 17.25 10.9079 17.25 10.4979C17.25 10.0879 16.91 9.74787 16.5 9.74787H13.45L15.44 6.92787C15.4973 6.84806 15.5381 6.75764 15.5601 6.66188C15.5821 6.56612 15.5848 6.46695 15.568 6.37014C15.5513 6.27333 15.5154 6.18083 15.4625 6.09803C15.4096 6.01523 15.3408 5.94379 15.26 5.88787C15.1802 5.83058 15.0898 5.78975 14.994 5.76778C14.8983 5.7458 14.7991 5.74311 14.7023 5.75986C14.6055 5.77662 14.513 5.81248 14.4302 5.86537C14.3474 5.91825 14.2759 5.98709 14.22 6.06787L11.92 9.32787L9.62 6.06787C9.56382 5.98741 9.49226 5.91888 9.40945 5.86623C9.32663 5.81358 9.23421 5.77785 9.13752 5.76112C9.04082 5.74438 8.94177 5.74697 8.84608 5.76872C8.75039 5.79048 8.65995 5.83098 8.58 5.88787C8.24 6.12787 8.16 6.59787 8.4 6.92787L10.39 9.74787H7.52C7.11 9.74787 6.77 10.0879 6.77 10.4979C6.77 10.9079 7.09 11.2479 7.5 11.2479ZM16.5 12.7499H7.5C7.09 12.7499 6.75 13.0899 6.75 13.4999C6.75 13.9099 7.09 14.2499 7.5 14.2499H10.37L8.38 17.0699C8.32271 17.1497 8.28188 17.2401 8.2599 17.3359C8.23792 17.4316 8.23523 17.5308 8.25199 17.6276C8.26874 17.7244 8.30461 17.8169 8.35749 17.8997C8.41037 17.9825 8.47922 18.054 8.56 18.1099C8.69 18.1999 8.84 18.2499 8.99 18.2499C9.23 18.2499 9.46 18.1399 9.6 17.9299L11.9 14.6699L14.2 17.9299C14.35 18.1399 14.58 18.2499 14.81 18.2499C14.96 18.2499 15.11 18.2099 15.24 18.1099C15.58 17.8699 15.66 17.3999 15.42 17.0699L13.43 14.2499H16.48C16.89 14.2499 17.23 13.9099 17.23 13.4999C17.23 13.0899 16.91 12.7499 16.5 12.7499Z" fill="black"/>
</svg>
