<svg width="24" height="24" viewBox="0 0 24 24" fill="none" xmlns="http://www.w3.org/2000/svg">
<path d="M16.5 11.25H7.5C7.09 11.25 6.75 10.91 6.75 10.5C6.75 10.09 7.09 9.75 7.5 9.75H16.5C16.91 9.75 17.25 10.09 17.25 10.5C17.25 10.91 16.91 11.25 16.5 11.25Z" fill="black"/>
<path d="M11.82 11.2479C11.58 11.2479 11.35 11.1379 11.21 10.9279L8.39 6.92787C8.3327 6.84806 8.29188 6.75764 8.2699 6.66188C8.24792 6.56612 8.24523 6.46695 8.26199 6.37014C8.27874 6.27333 8.31461 6.18083 8.36749 6.09803C8.42037 6.01523 8.48921 5.94379 8.57 5.88787C8.64981 5.83058 8.74023 5.78975 8.83599 5.76778C8.93174 5.7458 9.03092 5.74311 9.12773 5.75986C9.22454 5.77662 9.31704 5.81248 9.39984 5.86537C9.48264 5.91825 9.55408 5.98709 9.61 6.06787L12.43 10.0679C12.67 10.4079 12.59 10.8779 12.25 11.1079C12.12 11.2079 11.97 11.2479 11.82 11.2479Z" fill="black"/>
<path d="M12 11.2479C11.85 11.2479 11.7 11.2079 11.57 11.1079C11.4895 11.0517 11.421 10.9801 11.3684 10.8973C11.3157 10.8145 11.28 10.7221 11.2632 10.6254C11.2465 10.5287 11.2491 10.4296 11.2708 10.3339C11.2926 10.2382 11.3331 10.1478 11.39 10.0679L14.21 6.06786C14.45 5.72786 14.92 5.64786 15.25 5.88786C15.59 6.12786 15.67 6.59786 15.43 6.92786L12.61 10.9279C12.47 11.1379 12.23 11.2479 12 11.2479ZM16.5 14.2499H7.5C7.09 14.2499 6.75 13.9099 6.75 13.4999C6.75 13.0899 7.09 12.7499 7.5 12.7499H16.5C16.91 12.7499 17.25 13.0899 17.25 13.4999C17.25 13.9099 16.91 14.2499 16.5 14.2499Z" fill="black"/>
<path d="M8.99999 18.2479C8.84999 18.2479 8.69999 18.2079 8.56999 18.1079C8.48953 18.0517 8.421 17.9801 8.36835 17.8973C8.3157 17.8145 8.27997 17.7221 8.26323 17.6254C8.2465 17.5287 8.24908 17.4296 8.27084 17.3339C8.2926 17.2382 8.33309 17.1478 8.38999 17.0679L11.21 13.0679C11.45 12.7279 11.92 12.6479 12.25 12.8879C12.59 13.1279 12.67 13.5979 12.43 13.9279L9.60999 17.9279C9.46999 18.1379 9.22999 18.2479 8.99999 18.2479Z" fill="black"/>
<path d="M14.82 18.2479C14.58 18.2479 14.35 18.1379 14.21 17.9279L11.39 13.9279C11.3327 13.8481 11.2919 13.7576 11.2699 13.6619C11.2479 13.5661 11.2452 13.467 11.262 13.3701C11.2787 13.2733 11.3146 13.1808 11.3675 13.098C11.4204 13.0152 11.4892 12.9438 11.57 12.8879C11.6498 12.8306 11.7402 12.7898 11.836 12.7678C11.9317 12.7458 12.0309 12.7431 12.1277 12.7599C12.2245 12.7766 12.317 12.8125 12.3998 12.8654C12.4826 12.9182 12.5541 12.9871 12.61 13.0679L15.43 17.0679C15.67 17.4079 15.59 17.8779 15.25 18.1079C15.12 18.2079 14.97 18.2479 14.82 18.2479Z" fill="black"/>
<path d="M12 22.75C6.07 22.75 1.25 17.93 1.25 12C1.25 6.07 6.07 1.25 12 1.25C17.93 1.25 22.75 6.07 22.75 12C22.75 17.93 17.93 22.75 12 22.75ZM12 2.75C6.9 2.75 2.75 6.9 2.75 12C2.75 17.1 6.9 21.25 12 21.25C17.1 21.25 21.25 17.1 21.25 12C21.25 6.9 17.1 2.75 12 2.75Z" fill="black"/>
</svg>
